<svg width="1440" height="692" viewBox="0 0 1440 692" fill="none" xmlns="http://www.w3.org/2000/svg">
<g opacity="0.1" clip-path="url(#clip0_1017_2188)">
<path d="M614.984 131.829L598.135 126.731L603.221 109.884L590.652 106.084L585.554 122.931L568.706 117.846L564.906 130.414L581.755 135.511L576.668 152.359L589.249 156.158L594.335 139.311L611.184 144.397L614.984 131.829Z" stroke="#F1CE4B" stroke-width="4" stroke-miterlimit="10"/>
<path d="M366.899 641.062L359.977 624.881L376.159 617.96L370.991 605.883L354.809 612.804L347.876 596.623L335.81 601.791L342.731 617.983L326.549 624.905L331.717 636.982L347.899 630.049L354.821 646.23L366.899 641.062Z" stroke="#6854E4" stroke-width="4" stroke-miterlimit="10"/>
<path d="M1337.2 217.153L1336.85 199.557L1354.46 199.206L1354.19 186.077L1336.59 186.416L1336.25 168.82L1323.11 169.078L1323.46 186.673L1305.86 187.024L1306.12 200.153L1323.72 199.814L1324.07 217.41L1337.2 217.153Z" stroke="#83E8E8" stroke-width="4" stroke-miterlimit="10"/>
<path d="M1204.67 601.674L1182.92 595.104L1189.49 573.346L1173.25 568.447L1166.68 590.193L1144.92 583.623L1140.02 599.862L1161.77 606.433L1155.2 628.191L1171.44 633.089L1178.01 611.343L1199.77 617.914L1204.67 601.674Z" stroke="#D96BE8" stroke-width="4" stroke-miterlimit="10"/>
<path d="M281.336 331.471L264.487 326.385L269.573 309.538L257.004 305.738L251.906 322.586L235.058 317.488L231.258 330.068L248.106 335.154L243.02 352.001L255.589 355.801L260.687 338.954L277.536 344.051L281.336 331.471Z" stroke="#F1CE4B" stroke-width="4" stroke-miterlimit="10"/>
<path d="M1326.8 683.619L1319.88 667.426L1336.06 660.505L1330.88 648.428L1314.7 655.361L1307.78 639.18L1295.7 644.347L1302.64 660.528L1286.44 667.45L1291.62 679.527L1307.79 672.606L1314.73 688.787L1326.8 683.619Z" stroke="#6854E4" stroke-width="4" stroke-miterlimit="10"/>
<path d="M871.428 526.555L871.077 508.96L888.686 508.609L888.417 495.479L870.82 495.83L870.481 478.223L857.339 478.492L857.69 496.087L840.093 496.426L840.35 509.567L857.947 509.217L858.298 526.812L871.428 526.555Z" stroke="#83E8E8" stroke-width="4" stroke-miterlimit="10"/>
<path d="M1243.52 312.837L1221.76 306.266L1228.33 284.52L1212.1 279.609L1205.52 301.367L1183.77 294.785L1178.86 311.024L1200.62 317.595L1194.05 339.353L1210.28 344.251L1216.86 322.505L1238.61 329.076L1243.52 312.837Z" stroke="#D96BE8" stroke-width="4" stroke-miterlimit="10"/>
<path d="M432.469 160.707C444.919 160.707 455.011 150.615 455.011 138.166C455.011 125.717 444.919 115.625 432.469 115.625C420.019 115.625 409.926 125.717 409.926 138.166C409.926 150.615 420.019 160.707 432.469 160.707Z" stroke="#83E8E8" stroke-width="4" stroke-miterlimit="10"/>
<path d="M1150.13 160.707C1162.58 160.707 1172.68 150.615 1172.68 138.166C1172.68 125.717 1162.58 115.625 1150.13 115.625C1137.68 115.625 1127.59 125.717 1127.59 138.166C1127.59 150.615 1137.68 160.707 1150.13 160.707Z" stroke="#D96BE8" stroke-width="4" stroke-miterlimit="10"/>
<path d="M943.477 168.229L930.323 155.076L917.169 168.229L930.323 181.382L943.477 168.229Z" stroke="#F1CE4B" stroke-width="4" stroke-miterlimit="10"/>
<path d="M496.356 513.885L475.687 493.217L455.018 513.885L475.687 534.552L496.356 513.885Z" stroke="#F1CE4B" stroke-width="4" stroke-miterlimit="10"/>
<path d="M154.423 295.971L133.754 275.303L113.085 295.971L133.754 316.638L154.423 295.971Z" stroke="#6854E4" stroke-width="4" stroke-miterlimit="10"/>
<path d="M770.057 177.039L759.113 136.178L729.205 166.096L770.057 177.039Z" stroke="#D96BE8" stroke-width="4" stroke-miterlimit="10"/>
<path d="M303.633 7.51367L261.389 9.60644L284.329 45.1485L303.633 7.51367Z" stroke="#F1CE4B" stroke-width="4" stroke-miterlimit="10"/>
<path d="M726.831 606.175L762.141 582.874L724.317 563.945L726.831 606.175Z" stroke="#6854E4" stroke-width="4" stroke-miterlimit="10"/>
<path d="M1288.56 80.1651L1323.87 56.8757L1286.04 37.9473L1288.56 80.1651Z" stroke="#6854E4" stroke-width="4" stroke-miterlimit="10"/>
<path d="M1009.62 476.213L1040.58 518.735" stroke="#83E8E8" stroke-width="4" stroke-miterlimit="10"/>
<path d="M992.91 488.371L1023.87 530.893" stroke="#83E8E8" stroke-width="4" stroke-miterlimit="10"/>
<path d="M129.84 585.633L90.8234 620.906" stroke="#83E8E8" stroke-width="4" stroke-miterlimit="10"/>
<path d="M115.985 570.305L76.9681 605.578" stroke="#83E8E8" stroke-width="4" stroke-miterlimit="10"/>
<path d="M220.115 160.719L268.404 139.861" stroke="#D96BE8" stroke-width="4" stroke-miterlimit="10"/>
<path d="M228.312 179.682L276.6 158.824" stroke="#D96BE8" stroke-width="4" stroke-miterlimit="10"/>
<path d="M1114.44 441.582L1134.35 450.935L1154.26 441.582L1174.17 450.935L1194.1 441.582L1214.01 450.935" stroke="#F1CE4B" stroke-width="4" stroke-miterlimit="10"/>
<path d="M1326.1 492.791L1351.89 502.144L1377.69 492.791L1403.48 502.144L1429.27 492.791L1455.08 502.144" stroke="#D96BE8" stroke-width="4" stroke-miterlimit="10"/>
<path d="M1326.1 465.246L1351.89 474.599L1377.69 465.246L1403.48 474.599L1429.27 465.246L1455.08 474.599" stroke="#6854E4" stroke-width="4" stroke-miterlimit="10"/>
<path d="M-16.09 188.777L9.71467 198.13L35.4959 188.777L61.3006 198.13L87.0935 188.777L112.886 198.13" stroke="#D96BE8" stroke-width="4" stroke-miterlimit="10"/>
<path d="M-16.09 161.232L9.71467 170.586L35.4959 161.232L61.3006 170.586L87.0935 161.232L112.886 170.586" stroke="#6854E4" stroke-width="4" stroke-miterlimit="10"/>
<path d="M190.698 606.115L212.609 604.268L225.178 586.205L247.101 584.346L259.67 566.283L281.593 564.424" stroke="#D96BE8" stroke-width="4" stroke-miterlimit="10"/>
<path d="M827.583 89.5062L849.494 87.6589L862.063 69.5956L883.974 67.7367L896.543 49.6734L918.477 47.8027" stroke="#83E8E8" stroke-width="4" stroke-miterlimit="10"/>
<path d="M252.69 482.129L274.613 480.282L287.182 462.219L309.093 460.36L321.662 442.296L343.597 440.438" stroke="#83E8E8" stroke-width="4" stroke-miterlimit="10"/>
<path d="M414.673 3.6324C414.676 4.18454 414.514 4.72499 414.21 5.18551C413.905 5.64604 413.471 6.00599 412.962 6.21995C412.453 6.4339 411.892 6.49225 411.349 6.38764C410.807 6.28303 410.308 6.02014 409.915 5.63216C409.522 5.24419 409.253 4.74852 409.142 4.20772C409.031 3.66693 409.082 3.10525 409.289 2.5936C409.497 2.08195 409.852 1.64326 410.308 1.33291C410.765 1.02256 411.303 0.854456 411.855 0.84983C412.224 0.845187 412.589 0.913732 412.931 1.05149C413.273 1.18925 413.584 1.39347 413.846 1.65232C414.108 1.91117 414.316 2.21949 414.458 2.55939C414.6 2.89929 414.673 3.26402 414.673 3.6324Z" fill="#F1CE4B"/>
<path d="M433.1 3.6322C433.1 4.18254 432.937 4.72052 432.631 5.17811C432.325 5.6357 431.891 5.99235 431.382 6.20296C430.874 6.41356 430.314 6.46867 429.775 6.3613C429.235 6.25393 428.739 5.98892 428.35 5.59977C427.961 5.21062 427.696 4.71482 427.588 4.17505C427.481 3.63529 427.536 3.07581 427.746 2.56736C427.957 2.05891 428.314 1.62433 428.771 1.31858C429.229 1.01283 429.767 0.849634 430.317 0.849634C430.683 0.848087 431.046 0.919005 431.384 1.05829C431.722 1.19758 432.03 1.40249 432.289 1.66118C432.547 1.91987 432.752 2.22724 432.891 2.56553C433.031 2.90383 433.102 3.26636 433.1 3.6322V3.6322Z" fill="#F1CE4B"/>
<path d="M451.539 3.63218C451.539 4.18252 451.376 4.7205 451.07 5.17809C450.764 5.63568 450.329 5.99233 449.821 6.20293C449.312 6.41354 448.753 6.46864 448.213 6.36128C447.673 6.25391 447.177 5.9889 446.788 5.59975C446.399 5.2106 446.134 4.71479 446.027 4.17503C445.919 3.63526 445.974 3.07578 446.185 2.56733C446.396 2.05889 446.752 1.62431 447.21 1.31856C447.668 1.0128 448.206 0.849609 448.756 0.849609C449.494 0.849609 450.202 1.14277 450.724 1.6646C451.246 2.18644 451.539 2.89419 451.539 3.63218Z" fill="#F1CE4B"/>
<path d="M469.977 3.63218C469.977 4.18252 469.814 4.7205 469.508 5.17809C469.203 5.63568 468.768 5.99233 468.26 6.20293C467.751 6.41354 467.192 6.46864 466.652 6.36128C466.112 6.25391 465.616 5.9889 465.227 5.59975C464.838 5.2106 464.573 4.71479 464.465 4.17503C464.358 3.63526 464.413 3.07578 464.624 2.56733C464.834 2.05889 465.191 1.62431 465.649 1.31856C466.106 1.0128 466.644 0.849609 467.195 0.849609C467.933 0.849609 468.64 1.14277 469.162 1.6646C469.684 2.18644 469.977 2.89419 469.977 3.63218V3.63218Z" fill="#F1CE4B"/>
<path d="M488.416 3.6322C488.418 4.18534 488.256 4.72673 487.951 5.18778C487.645 5.64883 487.209 6.00879 486.699 6.22208C486.189 6.43536 485.626 6.49237 485.083 6.38588C484.541 6.27938 484.042 6.01418 483.65 5.62387C483.258 5.23355 482.99 4.73569 482.882 4.19334C482.773 3.65099 482.827 3.08856 483.039 2.57729C483.25 2.06603 483.608 1.62893 484.068 1.32138C484.528 1.01382 485.068 0.849639 485.621 0.849634C485.988 0.848094 486.351 0.918933 486.69 1.05808C487.029 1.19723 487.337 1.40195 487.597 1.66048C487.856 1.91902 488.062 2.22629 488.203 2.56465C488.344 2.90301 488.416 3.2658 488.416 3.6322Z" fill="#F1CE4B"/>
<path d="M506.843 3.6322C506.843 4.18254 506.68 4.72052 506.374 5.17811C506.068 5.6357 505.633 5.99235 505.125 6.20296C504.616 6.41356 504.057 6.46867 503.517 6.3613C502.977 6.25393 502.481 5.98892 502.092 5.59977C501.703 5.21062 501.438 4.71482 501.331 4.17505C501.223 3.63529 501.278 3.07581 501.489 2.56736C501.7 2.05891 502.056 1.62433 502.514 1.31858C502.972 1.01283 503.51 0.849634 504.06 0.849634C504.426 0.848087 504.788 0.919005 505.127 1.05829C505.465 1.19758 505.772 1.40249 506.031 1.66118C506.29 1.91987 506.495 2.22724 506.634 2.56553C506.773 2.90383 506.844 3.26636 506.843 3.6322Z" fill="#F1CE4B"/>
<path d="M525.27 3.63218C525.27 4.18252 525.106 4.7205 524.801 5.17809C524.495 5.63568 524.06 5.99233 523.552 6.20293C523.043 6.41354 522.484 6.46864 521.944 6.36128C521.404 6.25391 520.908 5.9889 520.519 5.59975C520.13 5.2106 519.865 4.71479 519.758 4.17503C519.65 3.63526 519.705 3.07578 519.916 2.56733C520.127 2.05889 520.483 1.62431 520.941 1.31856C521.398 1.0128 521.936 0.849609 522.487 0.849609C523.225 0.849609 523.933 1.14277 524.455 1.6646C524.976 2.18644 525.27 2.89419 525.27 3.63218V3.63218Z" fill="#F1CE4B"/>
<path d="M543.72 3.63218C543.72 4.18252 543.557 4.7205 543.251 5.17809C542.945 5.63568 542.51 5.99233 542.002 6.20293C541.493 6.41354 540.934 6.46864 540.394 6.36128C539.854 6.25391 539.358 5.9889 538.969 5.59975C538.58 5.2106 538.315 4.71479 538.208 4.17503C538.1 3.63526 538.156 3.07578 538.366 2.56733C538.577 2.05889 538.933 1.62431 539.391 1.31856C539.849 1.0128 540.387 0.849609 540.937 0.849609C541.675 0.849609 542.383 1.14277 542.905 1.6646C543.427 2.18644 543.72 2.89419 543.72 3.63218V3.63218Z" fill="#F1CE4B"/>
<path d="M562.158 3.6322C562.161 4.18534 561.999 4.72673 561.693 5.18778C561.387 5.64883 560.952 6.00879 560.441 6.22208C559.931 6.43536 559.369 6.49237 558.826 6.38588C558.283 6.27938 557.784 6.01418 557.392 5.62387C557 5.23355 556.733 4.73569 556.624 4.19334C556.515 3.65099 556.57 3.08856 556.781 2.57729C556.992 2.06603 557.35 1.62893 557.81 1.32138C558.27 1.01382 558.811 0.849639 559.364 0.849634C559.73 0.848094 560.093 0.918933 560.432 1.05808C560.771 1.19723 561.08 1.40195 561.339 1.66048C561.599 1.91902 561.805 2.22629 561.945 2.56465C562.086 2.90301 562.158 3.2658 562.158 3.6322V3.6322Z" fill="#F1CE4B"/>
<path d="M421.221 21.0065C422.758 21.0065 424.004 19.7607 424.004 18.224C424.004 16.6872 422.758 15.4414 421.221 15.4414C419.684 15.4414 418.438 16.6872 418.438 18.224C418.438 19.7607 419.684 21.0065 421.221 21.0065Z" fill="#F1CE4B"/>
<path d="M439.659 21.0065C441.196 21.0065 442.442 19.7607 442.442 18.224C442.442 16.6872 441.196 15.4414 439.659 15.4414C438.123 15.4414 436.877 16.6872 436.877 18.224C436.877 19.7607 438.123 21.0065 439.659 21.0065Z" fill="#F1CE4B"/>
<path d="M460.881 18.2357C460.878 18.7855 460.713 19.3223 460.406 19.7784C460.099 20.2344 459.664 20.5893 459.155 20.7981C458.646 21.0069 458.087 21.0603 457.548 20.9516C457.009 20.843 456.514 20.577 456.126 20.1874C455.738 19.7978 455.474 19.302 455.368 18.7625C455.262 18.2231 455.317 17.6642 455.528 17.1564C455.739 16.6487 456.096 16.2148 456.553 15.9096C457.011 15.6043 457.548 15.4414 458.098 15.4414C458.837 15.4445 459.545 15.7403 460.066 16.2639C460.588 16.7876 460.881 17.4966 460.881 18.2357V18.2357Z" fill="#F1CE4B"/>
<path d="M479.319 18.2357C479.319 18.7888 479.155 19.3295 478.848 19.7893C478.54 20.2491 478.103 20.6072 477.592 20.8183C477.08 21.0295 476.518 21.0841 475.975 20.9754C475.433 20.8666 474.935 20.5993 474.545 20.2074C474.154 19.8154 473.889 19.3164 473.783 18.7736C473.676 18.2308 473.733 17.6686 473.947 17.1582C474.16 16.6479 474.52 16.2123 474.981 15.9067C475.442 15.601 475.983 15.4391 476.537 15.4414C477.276 15.4445 477.983 15.7403 478.505 16.264C479.026 16.7877 479.319 17.4966 479.319 18.2357V18.2357Z" fill="#F1CE4B"/>
<path d="M497.746 18.2357C497.744 18.7855 497.579 19.3223 497.271 19.7784C496.964 20.2344 496.529 20.5893 496.02 20.7981C495.512 21.0069 494.952 21.0603 494.413 20.9516C493.874 20.843 493.38 20.577 492.992 20.1874C492.604 19.7978 492.34 19.302 492.233 18.7625C492.127 18.2231 492.183 17.6642 492.394 17.1564C492.605 16.6487 492.961 16.2148 493.419 15.9096C493.876 15.6043 494.413 15.4414 494.963 15.4414C495.33 15.4414 495.693 15.5138 496.031 15.6543C496.369 15.7949 496.677 16.0009 496.935 16.2605C497.194 16.5202 497.399 16.8283 497.538 17.1672C497.677 17.5062 497.748 17.8693 497.746 18.2357Z" fill="#F1CE4B"/>
<path d="M513.402 21.0065C514.939 21.0065 516.185 19.7607 516.185 18.224C516.185 16.6872 514.939 15.4414 513.402 15.4414C511.865 15.4414 510.619 16.6872 510.619 18.224C510.619 19.7607 511.865 21.0065 513.402 21.0065Z" fill="#F1CE4B"/>
<path d="M534.623 18.2357C534.621 18.7855 534.456 19.3223 534.149 19.7784C533.842 20.2344 533.406 20.5893 532.897 20.7981C532.389 21.0069 531.83 21.0603 531.291 20.9516C530.752 20.843 530.257 20.577 529.869 20.1874C529.481 19.7978 529.217 19.302 529.11 18.7625C529.004 18.2231 529.06 17.6642 529.271 17.1564C529.482 16.6487 529.838 16.2148 530.296 15.9096C530.753 15.6043 531.291 15.4414 531.841 15.4414C532.58 15.4445 533.287 15.7403 533.809 16.2639C534.331 16.7876 534.623 17.4966 534.623 18.2357V18.2357Z" fill="#F1CE4B"/>
<path d="M553.062 18.2357C553.062 18.7888 552.898 19.3295 552.59 19.7893C552.283 20.2491 551.845 20.6072 551.334 20.8183C550.823 21.0295 550.26 21.0841 549.718 20.9754C549.176 20.8666 548.678 20.5993 548.287 20.2074C547.897 19.8154 547.632 19.3164 547.525 18.7736C547.419 18.2308 547.476 17.6686 547.689 17.1582C547.902 16.6479 548.262 16.2123 548.723 15.9067C549.185 15.601 549.726 15.4391 550.279 15.4414C551.018 15.4445 551.726 15.7403 552.248 16.264C552.769 16.7877 553.062 17.4966 553.062 18.2357V18.2357Z" fill="#F1CE4B"/>
<path d="M571.489 18.2357C571.486 18.7855 571.321 19.3223 571.014 19.7784C570.707 20.2344 570.272 20.5893 569.763 20.7981C569.254 21.0069 568.695 21.0603 568.156 20.9516C567.617 20.843 567.122 20.577 566.734 20.1874C566.346 19.7978 566.082 19.302 565.976 18.7625C565.87 18.2231 565.925 17.6642 566.136 17.1564C566.347 16.6487 566.704 16.2148 567.161 15.9096C567.619 15.6043 568.156 15.4414 568.706 15.4414C569.072 15.4414 569.435 15.5138 569.774 15.6543C570.112 15.7949 570.419 16.0009 570.678 16.2605C570.936 16.5202 571.141 16.8283 571.28 17.1672C571.42 17.5062 571.49 17.8693 571.489 18.2357V18.2357Z" fill="#F1CE4B"/>
<path d="M1.0041 475.16C1.00102 475.897 0.706852 476.603 0.185653 477.124C-0.335546 477.645 -1.04156 477.939 -1.77864 477.942C-2.51667 477.942 -3.22447 477.649 -3.74633 477.127C-4.2682 476.605 -4.56138 475.898 -4.56138 475.16C-4.56292 474.794 -4.492 474.431 -4.35271 474.093C-4.21341 473.755 -4.00849 473.447 -3.74978 473.189C-3.49107 472.93 -3.18369 472.725 -2.84537 472.586C-2.50706 472.446 -2.14451 472.375 -1.77864 472.377C-1.04061 472.377 -0.332811 472.67 0.189054 473.192C0.710918 473.714 1.0041 474.422 1.0041 475.16V475.16Z" fill="#F1CE4B"/>
<path d="M19.4426 475.16C19.4396 475.897 19.1454 476.603 18.6242 477.124C18.103 477.645 17.397 477.939 16.6599 477.942C15.9208 477.942 15.2118 477.649 14.6881 477.128C14.1643 476.606 13.8686 475.899 13.8655 475.16C13.8655 474.793 13.9378 474.43 14.0784 474.092C14.219 473.754 14.425 473.446 14.6847 473.188C14.9443 472.929 15.2524 472.725 15.5914 472.585C15.9304 472.446 16.2935 472.375 16.6599 472.377C17.3979 472.377 18.1057 472.67 18.6276 473.192C19.1495 473.714 19.4426 474.422 19.4426 475.16V475.16Z" fill="#F1CE4B"/>
<path d="M37.8694 475.16C37.8694 475.71 37.7062 476.248 37.4005 476.705C37.0947 477.163 36.6601 477.52 36.1516 477.73C35.6431 477.941 35.0836 477.996 34.5438 477.889C34.004 477.781 33.5082 477.516 33.119 477.127C32.7298 476.738 32.4648 476.242 32.3574 475.702C32.2501 475.163 32.3052 474.603 32.5158 474.095C32.7264 473.586 33.0831 473.152 33.5407 472.846C33.9983 472.54 34.5363 472.377 35.0867 472.377C35.8247 472.377 36.5325 472.67 37.0544 473.192C37.5762 473.714 37.8694 474.422 37.8694 475.16V475.16Z" fill="#F1CE4B"/>
<path d="M56.308 475.16C56.308 475.71 56.1448 476.248 55.839 476.705C55.5333 477.163 55.0987 477.52 54.5902 477.73C54.0817 477.941 53.5222 477.996 52.9824 477.889C52.4426 477.781 51.9468 477.516 51.5576 477.127C51.1684 476.738 50.9034 476.242 50.796 475.702C50.6887 475.163 50.7438 474.603 50.9544 474.095C51.165 473.586 51.5217 473.152 51.9793 472.846C52.4369 472.54 52.9749 472.377 53.5253 472.377C54.2633 472.377 54.9711 472.67 55.493 473.192C56.0148 473.714 56.308 474.422 56.308 475.16V475.16Z" fill="#F1CE4B"/>
<path d="M74.7466 475.16C74.7466 475.71 74.5834 476.248 74.2777 476.705C73.9719 477.163 73.5373 477.52 73.0288 477.73C72.5203 477.941 71.9608 477.996 71.421 477.889C70.8812 477.781 70.3854 477.516 69.9962 477.127C69.607 476.738 69.342 476.242 69.2346 475.702C69.1273 475.163 69.1824 474.603 69.393 474.095C69.6036 473.586 69.9603 473.152 70.4179 472.846C70.8755 472.54 71.4135 472.377 71.9639 472.377C72.701 472.38 73.407 472.674 73.9282 473.195C74.4494 473.717 74.7436 474.423 74.7466 475.16V475.16Z" fill="#F1CE4B"/>
<path d="M93.1851 475.16C93.1875 475.713 93.0252 476.255 92.7191 476.716C92.4129 477.178 91.9766 477.538 91.4655 477.751C90.9544 477.963 90.3916 478.02 89.8484 477.912C89.3053 477.805 88.8063 477.539 88.4148 477.147C88.0233 476.756 87.7569 476.257 87.6494 475.713C87.542 475.17 87.5983 474.608 87.8113 474.097C88.0242 473.585 88.3842 473.149 88.8455 472.843C89.3069 472.537 89.8487 472.375 90.4024 472.377C91.1395 472.38 91.8455 472.674 92.3667 473.195C92.8879 473.717 93.1821 474.423 93.1851 475.16V475.16Z" fill="#F1CE4B"/>
<path d="M111.612 475.16C111.612 475.71 111.449 476.248 111.143 476.705C110.837 477.163 110.403 477.52 109.894 477.73C109.386 477.941 108.826 477.996 108.286 477.889C107.747 477.781 107.251 477.516 106.862 477.127C106.472 476.738 106.207 476.242 106.1 475.702C105.993 475.163 106.048 474.603 106.258 474.095C106.469 473.586 106.826 473.152 107.283 472.846C107.741 472.54 108.279 472.377 108.829 472.377C109.567 472.377 110.275 472.67 110.797 473.192C111.319 473.714 111.612 474.422 111.612 475.16V475.16Z" fill="#F1CE4B"/>
<path d="M130.074 475.16C130.074 475.71 129.911 476.248 129.605 476.705C129.299 477.163 128.865 477.52 128.356 477.73C127.848 477.941 127.288 477.996 126.748 477.889C126.209 477.781 125.713 477.516 125.324 477.127C124.934 476.738 124.669 476.242 124.562 475.702C124.455 475.163 124.51 474.603 124.72 474.095C124.931 473.586 125.288 473.152 125.745 472.846C126.203 472.54 126.741 472.377 127.291 472.377C128.029 472.377 128.737 472.67 129.259 473.192C129.781 473.714 130.074 474.422 130.074 475.16V475.16Z" fill="#F1CE4B"/>
<path d="M10.3461 489.751C10.3461 490.489 10.0529 491.197 9.53105 491.719C9.00918 492.241 8.30138 492.534 7.56335 492.534C7.19694 492.535 6.83382 492.465 6.49485 492.325C6.15588 492.186 5.84774 491.982 5.5881 491.723C5.32845 491.464 5.12243 491.157 4.98186 490.819C4.84128 490.48 4.76892 490.118 4.76892 489.751C4.77201 489.012 5.06779 488.305 5.59151 487.783C6.11524 487.262 6.82424 486.969 7.56335 486.969C8.30043 486.972 9.00645 487.266 9.52765 487.787C10.0488 488.308 10.343 489.014 10.3461 489.751V489.751Z" fill="#F1CE4B"/>
<path d="M28.773 489.751C28.773 490.303 28.6092 490.842 28.3023 491.3C27.9955 491.758 27.5595 492.114 27.0497 492.324C26.5398 492.534 25.9791 492.588 25.4387 492.479C24.8983 492.369 24.4025 492.102 24.0143 491.711C23.6261 491.319 23.3629 490.821 23.2582 490.28C23.1535 489.738 23.2119 489.178 23.4261 488.67C23.6403 488.162 24.0006 487.729 24.4613 487.426C24.922 487.123 25.4623 486.964 26.0136 486.969C26.3775 486.97 26.7376 487.044 27.0732 487.184C27.4088 487.325 27.7134 487.53 27.9696 487.789C28.2259 488.047 28.4287 488.353 28.5665 488.69C28.7044 489.027 28.7745 489.388 28.773 489.751V489.751Z" fill="#F1CE4B"/>
<path d="M47.2115 489.751C47.2115 490.302 47.0483 490.84 46.7425 491.297C46.4367 491.755 46.0021 492.111 45.4936 492.322C44.9852 492.533 44.4256 492.588 43.8858 492.48C43.346 492.373 42.8502 492.108 42.461 491.719C42.0719 491.33 41.8068 490.834 41.6995 490.294C41.5921 489.754 41.6472 489.195 41.8578 488.686C42.0684 488.178 42.4251 487.743 42.8827 487.438C43.3403 487.132 43.8784 486.969 44.4287 486.969C44.7946 486.967 45.1571 487.038 45.4955 487.177C45.8338 487.317 46.1412 487.522 46.3999 487.78C46.6586 488.039 46.8635 488.346 47.0028 488.685C47.1421 489.023 47.213 489.385 47.2115 489.751V489.751Z" fill="#F1CE4B"/>
<path d="M65.6501 489.751C65.6501 490.302 65.4869 490.84 65.1811 491.297C64.8753 491.755 64.4407 492.111 63.9322 492.322C63.4238 492.533 62.8642 492.588 62.3244 492.48C61.7847 492.373 61.2888 492.108 60.8996 491.719C60.5105 491.33 60.2454 490.834 60.1381 490.294C60.0307 489.754 60.0858 489.195 60.2964 488.686C60.507 488.178 60.8637 487.743 61.3213 487.438C61.7789 487.132 62.317 486.969 62.8673 486.969C63.6054 486.969 64.3132 487.262 64.835 487.784C65.3569 488.306 65.6501 489.013 65.6501 489.751V489.751Z" fill="#F1CE4B"/>
<path d="M84.0887 489.751C84.0887 490.302 83.9255 490.84 83.6197 491.297C83.3139 491.755 82.8793 492.111 82.3708 492.322C81.8624 492.533 81.3028 492.588 80.763 492.48C80.2233 492.373 79.7274 492.108 79.3382 491.719C78.9491 491.33 78.684 490.834 78.5767 490.294C78.4693 489.754 78.5244 489.195 78.735 488.686C78.9456 488.178 79.3023 487.743 79.7599 487.438C80.2175 487.132 80.7556 486.969 81.3059 486.969C82.044 486.969 82.7518 487.262 83.2736 487.784C83.7955 488.306 84.0887 489.013 84.0887 489.751V489.751Z" fill="#F1CE4B"/>
<path d="M102.527 489.751C102.53 490.304 102.368 490.846 102.062 491.307C101.756 491.768 101.321 492.128 100.81 492.341C100.3 492.554 99.7376 492.612 99.1948 492.505C98.652 492.399 98.1529 492.133 97.761 491.743C97.369 491.353 97.1017 490.855 96.9929 490.312C96.8841 489.77 96.9388 489.208 97.1499 488.696C97.3611 488.185 97.7193 487.748 98.1791 487.44C98.6388 487.133 99.1796 486.969 99.7328 486.969C100.099 486.967 100.462 487.038 100.801 487.177C101.14 487.316 101.448 487.521 101.708 487.78C101.968 488.038 102.174 488.345 102.314 488.684C102.455 489.022 102.527 489.385 102.527 489.751V489.751Z" fill="#F1CE4B"/>
<path d="M120.954 489.751C120.954 490.302 120.791 490.84 120.485 491.297C120.179 491.755 119.745 492.111 119.236 492.322C118.728 492.533 118.168 492.588 117.629 492.48C117.089 492.373 116.593 492.108 116.204 491.719C115.815 491.33 115.55 490.834 115.442 490.294C115.335 489.754 115.39 489.195 115.6 488.686C115.811 488.178 116.168 487.743 116.625 487.438C117.083 487.132 117.621 486.969 118.171 486.969C118.537 486.967 118.9 487.038 119.238 487.177C119.576 487.317 119.884 487.522 120.143 487.78C120.401 488.039 120.606 488.346 120.745 488.685C120.885 489.023 120.956 489.385 120.954 489.751V489.751Z" fill="#F1CE4B"/>
<path d="M139.428 489.751C139.428 490.302 139.265 490.84 138.959 491.297C138.653 491.755 138.218 492.111 137.71 492.322C137.201 492.533 136.642 492.588 136.102 492.48C135.562 492.373 135.067 492.108 134.677 491.719C134.288 491.33 134.023 490.834 133.916 490.294C133.808 489.754 133.864 489.195 134.074 488.686C134.285 488.178 134.641 487.743 135.099 487.438C135.557 487.132 136.095 486.969 136.645 486.969C137.383 486.969 138.091 487.262 138.613 487.784C139.135 488.306 139.428 489.013 139.428 489.751V489.751Z" fill="#F1CE4B"/>
<path d="M1305.14 561.572C1305.14 562.122 1304.97 562.66 1304.67 563.118C1304.36 563.575 1303.93 563.932 1303.42 564.142C1302.91 564.353 1302.35 564.408 1301.81 564.301C1301.27 564.193 1300.78 563.928 1300.39 563.539C1300 563.15 1299.73 562.654 1299.63 562.114C1299.52 561.575 1299.57 561.015 1299.78 560.507C1299.99 559.998 1300.35 559.564 1300.81 559.258C1301.27 558.952 1301.8 558.789 1302.35 558.789C1302.72 558.789 1303.08 558.861 1303.42 559.001C1303.76 559.141 1304.06 559.346 1304.32 559.604C1304.58 559.862 1304.79 560.169 1304.93 560.507C1305.07 560.844 1305.14 561.206 1305.14 561.572V561.572Z" fill="#F1CE4B"/>
<path d="M1323.61 561.572C1323.61 562.125 1323.45 562.666 1323.15 563.127C1322.84 563.588 1322.4 563.948 1321.89 564.161C1321.38 564.375 1320.82 564.432 1320.28 564.325C1319.74 564.219 1319.24 563.954 1318.85 563.563C1318.45 563.173 1318.19 562.675 1318.08 562.133C1317.97 561.59 1318.02 561.028 1318.23 560.517C1318.45 560.005 1318.8 559.568 1319.26 559.261C1319.72 558.953 1320.26 558.789 1320.82 558.789C1321.18 558.788 1321.55 558.858 1321.89 558.998C1322.22 559.137 1322.53 559.341 1322.79 559.6C1323.05 559.858 1323.26 560.166 1323.4 560.504C1323.54 560.842 1323.61 561.205 1323.61 561.572Z" fill="#F1CE4B"/>
<path d="M1342.04 561.572C1342.04 562.122 1341.87 562.66 1341.57 563.118C1341.26 563.575 1340.83 563.932 1340.32 564.142C1339.81 564.353 1339.25 564.408 1338.71 564.301C1338.17 564.193 1337.68 563.928 1337.29 563.539C1336.9 563.15 1336.63 562.654 1336.53 562.115C1336.42 561.575 1336.47 561.015 1336.68 560.507C1336.9 559.998 1337.25 559.564 1337.71 559.258C1338.17 558.952 1338.71 558.789 1339.26 558.789C1339.62 558.788 1339.98 558.858 1340.32 558.998C1340.66 559.137 1340.97 559.342 1341.23 559.601C1341.49 559.859 1341.69 560.167 1341.83 560.505C1341.97 560.843 1342.04 561.206 1342.04 561.572V561.572Z" fill="#F1CE4B"/>
<path d="M1360.48 561.572C1360.48 562.122 1360.31 562.66 1360.01 563.118C1359.7 563.575 1359.27 563.932 1358.76 564.142C1358.25 564.353 1357.69 564.408 1357.15 564.301C1356.61 564.193 1356.12 563.928 1355.73 563.539C1355.34 563.15 1355.07 562.654 1354.96 562.114C1354.86 561.575 1354.91 561.015 1355.12 560.507C1355.33 559.998 1355.69 559.564 1356.15 559.258C1356.61 558.952 1357.14 558.789 1357.69 558.789C1358.43 558.789 1359.14 559.082 1359.66 559.604C1360.18 560.126 1360.48 560.834 1360.48 561.572Z" fill="#F1CE4B"/>
<path d="M1378.92 561.572C1378.92 562.122 1378.75 562.66 1378.45 563.118C1378.14 563.575 1377.71 563.932 1377.2 564.142C1376.69 564.353 1376.13 564.408 1375.59 564.301C1375.05 564.193 1374.55 563.928 1374.17 563.539C1373.78 563.15 1373.51 562.654 1373.4 562.114C1373.3 561.575 1373.35 561.015 1373.56 560.507C1373.77 559.998 1374.13 559.564 1374.59 559.258C1375.04 558.952 1375.58 558.789 1376.13 558.789C1376.87 558.789 1377.58 559.082 1378.1 559.604C1378.62 560.126 1378.92 560.834 1378.92 561.572Z" fill="#F1CE4B"/>
<path d="M1397.35 561.572C1397.36 562.125 1397.19 562.667 1396.89 563.128C1396.58 563.59 1396.15 563.95 1395.63 564.163C1395.12 564.376 1394.56 564.432 1394.02 564.324C1393.47 564.217 1392.98 563.951 1392.58 563.559C1392.19 563.168 1391.93 562.669 1391.82 562.126C1391.71 561.582 1391.77 561.02 1391.98 560.509C1392.19 559.998 1392.55 559.561 1393.01 559.255C1393.48 558.949 1394.02 558.787 1394.57 558.789C1394.94 558.789 1395.3 558.861 1395.64 559.001C1395.97 559.141 1396.28 559.346 1396.54 559.604C1396.8 559.862 1397 560.169 1397.14 560.507C1397.28 560.844 1397.35 561.206 1397.35 561.572V561.572Z" fill="#F1CE4B"/>
<path d="M1415.78 561.572C1415.78 562.122 1415.62 562.66 1415.31 563.118C1415.01 563.575 1414.57 563.932 1414.06 564.142C1413.55 564.353 1412.99 564.408 1412.46 564.301C1411.92 564.193 1411.42 563.928 1411.03 563.539C1410.64 563.15 1410.38 562.654 1410.27 562.115C1410.16 561.575 1410.22 561.015 1410.43 560.507C1410.64 559.998 1410.99 559.564 1411.45 559.258C1411.91 558.952 1412.45 558.789 1413 558.789C1413.36 558.788 1413.73 558.858 1414.06 558.998C1414.4 559.137 1414.71 559.342 1414.97 559.601C1415.23 559.859 1415.43 560.167 1415.57 560.505C1415.71 560.843 1415.78 561.206 1415.78 561.572V561.572Z" fill="#F1CE4B"/>
<path d="M1434.22 561.572C1434.22 562.122 1434.06 562.66 1433.75 563.118C1433.44 563.575 1433.01 563.932 1432.5 564.142C1431.99 564.353 1431.43 564.408 1430.89 564.301C1430.35 564.193 1429.86 563.928 1429.47 563.539C1429.08 563.15 1428.81 562.654 1428.71 562.115C1428.6 561.575 1428.66 561.015 1428.87 560.507C1429.08 559.998 1429.43 559.564 1429.89 559.258C1430.35 558.952 1430.89 558.789 1431.44 558.789C1431.8 558.788 1432.17 558.858 1432.5 558.998C1432.84 559.137 1433.15 559.342 1433.41 559.601C1433.67 559.859 1433.87 560.167 1434.01 560.505C1434.15 560.843 1434.22 561.206 1434.22 561.572V561.572Z" fill="#F1CE4B"/>
<path d="M1314.49 576.175C1314.49 576.728 1314.33 577.269 1314.02 577.729C1313.71 578.189 1313.28 578.547 1312.76 578.758C1312.25 578.969 1311.69 579.024 1311.15 578.915C1310.61 578.806 1310.11 578.539 1309.72 578.147C1309.33 577.755 1309.06 577.256 1308.96 576.713C1308.85 576.17 1308.91 575.608 1309.12 575.098C1309.33 574.587 1309.69 574.152 1310.15 573.846C1310.61 573.54 1311.16 573.379 1311.71 573.381C1312.45 573.384 1313.16 573.68 1313.68 574.203C1314.2 574.727 1314.49 575.436 1314.49 576.175V576.175Z" fill="#F1CE4B"/>
<path d="M1332.94 576.175C1332.94 576.725 1332.77 577.262 1332.47 577.718C1332.16 578.174 1331.72 578.529 1331.22 578.738C1330.71 578.946 1330.15 579 1329.61 578.891C1329.07 578.782 1328.58 578.517 1328.19 578.127C1327.8 577.737 1327.54 577.241 1327.43 576.702C1327.32 576.163 1327.38 575.604 1327.59 575.096C1327.8 574.588 1328.16 574.154 1328.61 573.849C1329.07 573.544 1329.61 573.381 1330.16 573.381C1330.53 573.381 1330.89 573.453 1331.23 573.594C1331.57 573.734 1331.87 573.94 1332.13 574.2C1332.39 574.46 1332.59 574.768 1332.73 575.107C1332.87 575.446 1332.94 575.809 1332.94 576.175Z" fill="#F1CE4B"/>
<path d="M1351.38 576.175C1351.38 576.725 1351.21 577.262 1350.91 577.718C1350.6 578.174 1350.16 578.529 1349.65 578.738C1349.15 578.946 1348.59 579 1348.05 578.891C1347.51 578.782 1347.01 578.517 1346.63 578.127C1346.24 577.737 1345.97 577.241 1345.87 576.702C1345.76 576.163 1345.82 575.604 1346.03 575.096C1346.24 574.588 1346.6 574.154 1347.05 573.849C1347.51 573.544 1348.05 573.381 1348.6 573.381C1348.96 573.381 1349.33 573.453 1349.67 573.594C1350 573.734 1350.31 573.94 1350.57 574.2C1350.83 574.46 1351.03 574.768 1351.17 575.107C1351.31 575.446 1351.38 575.809 1351.38 576.175V576.175Z" fill="#F1CE4B"/>
<path d="M1369.82 576.175C1369.82 576.725 1369.65 577.262 1369.34 577.718C1369.04 578.174 1368.6 578.529 1368.09 578.738C1367.58 578.946 1367.03 579 1366.49 578.891C1365.95 578.782 1365.45 578.517 1365.06 578.127C1364.68 577.737 1364.41 577.241 1364.31 576.702C1364.2 576.163 1364.26 575.604 1364.47 575.096C1364.68 574.588 1365.03 574.154 1365.49 573.849C1365.95 573.544 1366.49 573.381 1367.04 573.381C1367.78 573.384 1368.48 573.68 1369 574.203C1369.53 574.727 1369.82 575.436 1369.82 576.175V576.175Z" fill="#F1CE4B"/>
<path d="M1388.26 576.175C1388.26 576.728 1388.09 577.269 1387.79 577.729C1387.48 578.189 1387.04 578.547 1386.53 578.758C1386.02 578.969 1385.46 579.024 1384.91 578.915C1384.37 578.806 1383.87 578.539 1383.48 578.147C1383.09 577.755 1382.83 577.256 1382.72 576.713C1382.61 576.17 1382.67 575.608 1382.88 575.098C1383.1 574.587 1383.46 574.152 1383.92 573.846C1384.38 573.54 1384.92 573.379 1385.47 573.381C1386.21 573.384 1386.92 573.68 1387.44 574.203C1387.96 574.727 1388.26 575.436 1388.26 576.175V576.175Z" fill="#F1CE4B"/>
<path d="M1406.68 576.175C1406.68 576.725 1406.52 577.262 1406.21 577.718C1405.9 578.174 1405.47 578.529 1404.96 578.738C1404.45 578.946 1403.89 579 1403.35 578.891C1402.81 578.782 1402.32 578.517 1401.93 578.127C1401.54 577.737 1401.28 577.241 1401.17 576.702C1401.07 576.163 1401.12 575.604 1401.33 575.096C1401.54 574.588 1401.9 574.154 1402.36 573.849C1402.81 573.544 1403.35 573.381 1403.9 573.381C1404.27 573.381 1404.63 573.453 1404.97 573.594C1405.31 573.734 1405.62 573.94 1405.87 574.2C1406.13 574.46 1406.34 574.768 1406.48 575.107C1406.62 575.446 1406.69 575.809 1406.68 576.175V576.175Z" fill="#F1CE4B"/>
<path d="M1425.12 576.175C1425.12 576.725 1424.96 577.262 1424.65 577.718C1424.34 578.174 1423.91 578.529 1423.4 578.738C1422.89 578.946 1422.33 579 1421.79 578.891C1421.25 578.782 1420.76 578.517 1420.37 578.127C1419.98 577.737 1419.72 577.241 1419.61 576.702C1419.5 576.163 1419.56 575.604 1419.77 575.096C1419.98 574.588 1420.34 574.154 1420.8 573.849C1421.25 573.544 1421.79 573.381 1422.34 573.381C1422.71 573.381 1423.07 573.453 1423.41 573.594C1423.75 573.734 1424.05 573.94 1424.31 574.2C1424.57 574.46 1424.78 574.768 1424.91 575.107C1425.05 575.446 1425.12 575.809 1425.12 576.175Z" fill="#F1CE4B"/>
<path d="M1443.56 576.175C1443.56 576.724 1443.39 577.259 1443.08 577.713C1442.77 578.168 1442.34 578.521 1441.83 578.728C1441.32 578.935 1440.76 578.988 1440.23 578.879C1439.69 578.77 1439.19 578.504 1438.81 578.115C1438.42 577.726 1438.16 577.232 1438.05 576.693C1437.94 576.155 1438 575.597 1438.21 575.09C1438.42 574.582 1438.77 574.148 1439.23 573.842C1439.68 573.536 1440.22 573.371 1440.77 573.369C1441.14 573.369 1441.5 573.442 1441.84 573.583C1442.18 573.724 1442.49 573.931 1442.75 574.192C1443.01 574.452 1443.21 574.762 1443.35 575.102C1443.49 575.443 1443.56 575.807 1443.56 576.175V576.175Z" fill="#F1CE4B"/>
<path d="M867.429 602.902C867.429 603.452 867.266 603.99 866.96 604.448C866.655 604.905 866.22 605.262 865.712 605.473C865.203 605.683 864.644 605.738 864.104 605.631C863.564 605.524 863.068 605.259 862.679 604.869C862.29 604.48 862.025 603.984 861.917 603.445C861.81 602.905 861.865 602.345 862.076 601.837C862.286 601.328 862.643 600.894 863.101 600.588C863.558 600.282 864.096 600.119 864.647 600.119C865.013 600.118 865.375 600.189 865.713 600.328C866.052 600.467 866.359 600.672 866.618 600.931C866.877 601.189 867.082 601.497 867.221 601.835C867.36 602.173 867.431 602.536 867.429 602.902V602.902Z" fill="#6854E4"/>
<path d="M885.868 602.902C885.868 603.452 885.705 603.99 885.399 604.448C885.093 604.905 884.659 605.262 884.15 605.473C883.642 605.683 883.082 605.738 882.542 605.631C882.003 605.524 881.507 605.259 881.118 604.869C880.728 604.48 880.463 603.984 880.356 603.445C880.249 602.905 880.304 602.345 880.514 601.837C880.725 601.328 881.082 600.894 881.539 600.588C881.997 600.282 882.535 600.119 883.085 600.119C883.451 600.118 883.814 600.189 884.152 600.328C884.49 600.467 884.798 600.672 885.056 600.931C885.315 601.189 885.52 601.497 885.659 601.835C885.799 602.173 885.87 602.536 885.868 602.902V602.902Z" fill="#6854E4"/>
<path d="M904.307 602.902C904.307 603.452 904.143 603.99 903.838 604.448C903.532 604.905 903.097 605.262 902.589 605.473C902.08 605.683 901.521 605.738 900.981 605.631C900.441 605.523 899.945 605.258 899.556 604.869C899.167 604.48 898.902 603.984 898.795 603.445C898.687 602.905 898.742 602.345 898.953 601.837C899.164 601.328 899.52 600.894 899.978 600.588C900.435 600.282 900.974 600.119 901.524 600.119C902.262 600.119 902.97 600.412 903.492 600.934C904.013 601.456 904.307 602.164 904.307 602.902Z" fill="#6854E4"/>
<path d="M922.804 602.902C922.806 603.455 922.644 603.997 922.338 604.459C922.031 604.92 921.595 605.28 921.084 605.493C920.573 605.706 920.01 605.762 919.467 605.655C918.924 605.547 918.425 605.281 918.033 604.889C917.642 604.498 917.375 603.999 917.268 603.456C917.16 602.913 917.217 602.35 917.43 601.839C917.643 601.328 918.003 600.891 918.464 600.585C918.925 600.279 919.467 600.117 920.021 600.119C920.759 600.119 921.467 600.412 921.989 600.934C922.51 601.456 922.804 602.164 922.804 602.902Z" fill="#6854E4"/>
<path d="M941.172 602.902C941.172 603.452 941.009 603.99 940.703 604.448C940.397 604.905 939.963 605.262 939.454 605.473C938.946 605.683 938.386 605.738 937.846 605.631C937.306 605.524 936.811 605.259 936.422 604.869C936.032 604.48 935.767 603.984 935.66 603.445C935.553 602.905 935.608 602.345 935.818 601.837C936.029 601.328 936.386 600.894 936.843 600.588C937.301 600.282 937.839 600.119 938.389 600.119C938.755 600.118 939.118 600.189 939.456 600.328C939.794 600.467 940.102 600.672 940.36 600.931C940.619 601.189 940.824 601.497 940.963 601.835C941.103 602.173 941.174 602.536 941.172 602.902V602.902Z" fill="#6854E4"/>
<path d="M959.611 602.902C959.611 603.452 959.447 603.99 959.142 604.448C958.836 604.905 958.401 605.262 957.893 605.473C957.384 605.683 956.825 605.738 956.285 605.631C955.745 605.524 955.249 605.259 954.86 604.869C954.471 604.48 954.206 603.984 954.099 603.445C953.991 602.905 954.046 602.345 954.257 601.837C954.468 601.328 954.824 600.894 955.282 600.588C955.74 600.282 956.277 600.119 956.828 600.119C957.194 600.118 957.556 600.189 957.895 600.328C958.233 600.467 958.54 600.672 958.799 600.931C959.058 601.189 959.263 601.497 959.402 601.835C959.541 602.173 959.612 602.536 959.611 602.902V602.902Z" fill="#6854E4"/>
<path d="M978.049 602.902C978.049 603.452 977.886 603.99 977.58 604.448C977.274 604.905 976.84 605.262 976.331 605.473C975.823 605.683 975.263 605.738 974.724 605.631C974.184 605.523 973.688 605.258 973.299 604.869C972.91 604.48 972.644 603.984 972.537 603.445C972.43 602.905 972.485 602.345 972.695 601.837C972.906 601.328 973.263 600.894 973.72 600.588C974.178 600.282 974.716 600.119 975.266 600.119C976.004 600.119 976.712 600.412 977.234 600.934C977.756 601.456 978.049 602.164 978.049 602.902V602.902Z" fill="#6854E4"/>
<path d="M996.464 602.902C996.467 603.455 996.304 603.997 995.998 604.459C995.692 604.92 995.256 605.28 994.745 605.493C994.234 605.706 993.671 605.762 993.128 605.655C992.584 605.547 992.085 605.281 991.694 604.889C991.302 604.498 991.036 603.999 990.929 603.456C990.821 602.913 990.878 602.35 991.09 601.839C991.303 601.328 991.663 600.891 992.125 600.585C992.586 600.279 993.128 600.117 993.682 600.119C994.42 600.119 995.127 600.412 995.649 600.934C996.171 601.456 996.464 602.164 996.464 602.902Z" fill="#6854E4"/>
<path d="M1014.91 602.902C1014.91 603.452 1014.75 603.99 1014.45 604.448C1014.14 604.905 1013.71 605.262 1013.2 605.473C1012.69 605.683 1012.13 605.738 1011.59 605.631C1011.05 605.524 1010.55 605.259 1010.16 604.869C1009.78 604.48 1009.51 603.984 1009.4 603.445C1009.3 602.905 1009.35 602.345 1009.56 601.837C1009.77 601.328 1010.13 600.894 1010.59 600.588C1011.04 600.282 1011.58 600.119 1012.13 600.119C1012.5 600.118 1012.86 600.189 1013.2 600.328C1013.54 600.467 1013.84 600.672 1014.1 600.931C1014.36 601.189 1014.57 601.497 1014.71 601.835C1014.85 602.173 1014.92 602.536 1014.91 602.902V602.902Z" fill="#6854E4"/>
<path d="M876.772 617.492C876.772 618.042 876.608 618.58 876.303 619.037C875.997 619.495 875.562 619.852 875.054 620.062C874.545 620.273 873.986 620.328 873.446 620.221C872.906 620.113 872.41 619.848 872.021 619.459C871.632 619.07 871.367 618.574 871.26 618.034C871.152 617.495 871.207 616.935 871.418 616.427C871.628 615.918 871.985 615.484 872.443 615.178C872.9 614.872 873.438 614.709 873.989 614.709C874.727 614.709 875.435 615.002 875.957 615.524C876.478 616.046 876.772 616.754 876.772 617.492Z" fill="#6854E4"/>
<path d="M895.21 617.492C895.21 618.042 895.047 618.58 894.741 619.037C894.435 619.495 894.001 619.852 893.492 620.062C892.984 620.273 892.424 620.328 891.884 620.221C891.345 620.113 890.849 619.848 890.46 619.459C890.07 619.07 889.805 618.574 889.698 618.034C889.591 617.495 889.646 616.935 889.856 616.427C890.067 615.918 890.424 615.484 890.881 615.178C891.339 614.872 891.877 614.709 892.427 614.709C893.164 614.712 893.87 615.006 894.392 615.527C894.913 616.049 895.207 616.754 895.21 617.492V617.492Z" fill="#6854E4"/>
<path d="M913.649 617.492C913.649 618.042 913.485 618.58 913.18 619.037C912.874 619.495 912.439 619.852 911.931 620.062C911.422 620.273 910.863 620.328 910.323 620.221C909.783 620.113 909.287 619.848 908.898 619.459C908.509 619.07 908.244 618.574 908.137 618.034C908.029 617.495 908.084 616.935 908.295 616.427C908.506 615.918 908.862 615.484 909.32 615.178C909.778 614.872 910.316 614.709 910.866 614.709C911.603 614.712 912.309 615.006 912.83 615.527C913.351 616.049 913.646 616.754 913.649 617.492V617.492Z" fill="#6854E4"/>
<path d="M932.087 617.492C932.09 618.045 931.928 618.586 931.622 619.047C931.316 619.508 930.881 619.868 930.37 620.081C929.86 620.295 929.298 620.352 928.755 620.245C928.212 620.139 927.713 619.874 927.321 619.483C926.929 619.093 926.662 618.595 926.553 618.053C926.444 617.51 926.499 616.948 926.71 616.437C926.921 615.925 927.279 615.488 927.739 615.181C928.199 614.873 928.74 614.709 929.293 614.709C930.032 614.709 930.741 615.002 931.265 615.523C931.788 616.045 932.084 616.752 932.087 617.492V617.492Z" fill="#6854E4"/>
<path d="M950.514 617.492C950.514 618.042 950.351 618.58 950.045 619.037C949.739 619.495 949.305 619.852 948.796 620.062C948.288 620.273 947.728 620.328 947.188 620.221C946.649 620.113 946.153 619.848 945.764 619.459C945.374 619.07 945.109 618.574 945.002 618.034C944.895 617.495 944.95 616.935 945.16 616.427C945.371 615.918 945.728 615.484 946.185 615.178C946.643 614.872 947.181 614.709 947.731 614.709C948.469 614.709 949.177 615.002 949.699 615.524C950.221 616.046 950.514 616.754 950.514 617.492Z" fill="#6854E4"/>
<path d="M968.953 617.492C968.953 618.042 968.789 618.58 968.484 619.037C968.178 619.495 967.743 619.852 967.235 620.062C966.726 620.273 966.167 620.328 965.627 620.221C965.087 620.113 964.591 619.848 964.202 619.459C963.813 619.07 963.548 618.574 963.441 618.034C963.333 617.495 963.388 616.935 963.599 616.427C963.81 615.918 964.166 615.484 964.624 615.178C965.082 614.872 965.62 614.709 966.17 614.709C966.907 614.712 967.613 615.006 968.134 615.527C968.655 616.049 968.95 616.754 968.953 617.492V617.492Z" fill="#6854E4"/>
<path d="M987.391 617.492C987.391 618.042 987.228 618.58 986.922 619.037C986.616 619.495 986.182 619.852 985.673 620.062C985.165 620.273 984.605 620.328 984.066 620.221C983.526 620.113 983.03 619.848 982.641 619.459C982.251 619.07 981.987 618.574 981.879 618.034C981.772 617.495 981.827 616.935 982.038 616.427C982.248 615.918 982.605 615.484 983.062 615.178C983.52 614.872 984.058 614.709 984.608 614.709C985.345 614.712 986.051 615.006 986.573 615.527C987.094 616.049 987.388 616.754 987.391 617.492V617.492Z" fill="#6854E4"/>
<path d="M1005.82 617.492C1005.82 618.045 1005.66 618.586 1005.35 619.047C1005.05 619.508 1004.61 619.868 1004.1 620.081C1003.59 620.295 1003.03 620.352 1002.49 620.245C1001.94 620.139 1001.44 619.874 1001.05 619.483C1000.66 619.093 1000.39 618.595 1000.28 618.053C1000.18 617.51 1000.23 616.948 1000.44 616.437C1000.65 615.925 1001.01 615.488 1001.47 615.181C1001.93 614.873 1002.47 614.709 1003.02 614.709C1003.76 614.709 1004.47 615.002 1005 615.523C1005.52 616.045 1005.82 616.752 1005.82 617.492V617.492Z" fill="#6854E4"/>
<path d="M1024.26 617.492C1024.26 618.042 1024.09 618.58 1023.79 619.037C1023.48 619.495 1023.05 619.852 1022.54 620.062C1022.03 620.273 1021.47 620.328 1020.93 620.221C1020.39 620.113 1019.9 619.848 1019.51 619.459C1019.12 619.07 1018.85 618.574 1018.74 618.034C1018.64 617.495 1018.69 616.935 1018.9 616.427C1019.11 615.918 1019.47 615.484 1019.93 615.178C1020.39 614.872 1020.92 614.709 1021.47 614.709C1022.21 614.709 1022.92 615.002 1023.44 615.524C1023.96 616.046 1024.26 616.754 1024.26 617.492Z" fill="#6854E4"/>
<path d="M1130.73 20.5384C1130.73 21.0888 1130.56 21.6267 1130.26 22.0843C1129.95 22.5419 1129.52 22.8986 1129.01 23.1092C1128.5 23.3198 1127.94 23.3749 1127.4 23.2675C1126.86 23.1602 1126.36 22.8951 1125.98 22.506C1125.59 22.1168 1125.32 21.621 1125.21 21.0813C1125.11 20.5415 1125.16 19.982 1125.37 19.4736C1125.58 18.9651 1125.94 18.5306 1126.4 18.2248C1126.85 17.9191 1127.39 17.7559 1127.94 17.7559C1128.68 17.7589 1129.39 18.0531 1129.91 18.5743C1130.43 19.0954 1130.72 19.8014 1130.73 20.5384V20.5384Z" fill="#D96BE8"/>
<path d="M1149.16 20.5385C1149.17 21.0921 1149 21.6339 1148.7 22.0952C1148.39 22.5565 1147.96 22.9165 1147.44 23.1294C1146.93 23.3424 1146.37 23.3987 1145.83 23.2913C1145.28 23.1838 1144.79 22.9174 1144.39 22.526C1144 22.1345 1143.74 21.6355 1143.63 21.0924C1143.52 20.5493 1143.58 19.9865 1143.79 19.4754C1144 18.9644 1144.36 18.5281 1144.82 18.2219C1145.29 17.9158 1145.83 17.7536 1146.38 17.7559C1147.12 17.759 1147.82 18.0531 1148.35 18.5743C1148.87 19.0954 1149.16 19.8014 1149.16 20.5385V20.5385Z" fill="#D96BE8"/>
<path d="M1167.59 20.5385C1167.59 21.0899 1167.43 21.6288 1167.12 22.0868C1166.81 22.5449 1166.38 22.9015 1165.87 23.1114C1165.36 23.3213 1164.8 23.3751 1164.26 23.2658C1163.72 23.1565 1163.22 22.8892 1162.83 22.4977C1162.44 22.1062 1162.18 21.6082 1162.08 21.0669C1161.97 20.5256 1162.03 19.9654 1162.24 19.4574C1162.46 18.9494 1162.82 18.5164 1163.28 18.2135C1163.74 17.9106 1164.28 17.7513 1164.83 17.756C1165.57 17.7621 1166.27 18.058 1166.78 18.5792C1167.3 19.1003 1167.59 19.8046 1167.59 20.5385V20.5385Z" fill="#D96BE8"/>
<path d="M1130.74 34.5787C1130.72 35.128 1130.53 35.6588 1130.21 36.104C1129.89 36.5492 1129.44 36.889 1128.93 37.0804C1128.41 37.2718 1127.85 37.3064 1127.32 37.1796C1126.78 37.0529 1126.29 36.7705 1125.92 36.3683C1125.55 35.966 1125.3 35.4617 1125.21 34.9192C1125.12 34.3767 1125.2 33.8201 1125.42 33.3198C1125.65 32.8194 1126.02 32.3977 1126.49 32.1078C1126.96 31.8179 1127.5 31.6729 1128.05 31.691C1128.41 31.703 1128.78 31.7874 1129.11 31.9392C1129.44 32.0911 1129.74 32.3074 1129.99 32.5758C1130.24 32.8441 1130.44 33.1592 1130.57 33.503C1130.69 33.8467 1130.75 34.2123 1130.74 34.5787V34.5787Z" fill="#D96BE8"/>
<path d="M1149.15 35.2335C1149.13 35.7839 1148.95 36.3162 1148.63 36.7632C1148.31 37.2102 1147.86 37.5517 1147.35 37.7445C1146.83 37.9373 1146.27 37.9727 1145.73 37.8462C1145.2 37.7197 1144.71 37.437 1144.33 37.034C1143.96 36.6309 1143.71 36.1256 1143.62 35.5819C1143.54 35.0383 1143.61 34.4808 1143.84 33.9801C1144.07 33.4793 1144.44 33.0579 1144.91 32.769C1145.38 32.4801 1145.92 32.3369 1146.47 32.3574C1147.21 32.3848 1147.91 32.703 1148.41 33.2421C1148.91 33.7812 1149.18 34.4974 1149.15 35.2335V35.2335Z" fill="#D96BE8"/>
<path d="M1167.58 35.9014C1167.56 36.4512 1167.37 36.9823 1167.05 37.4277C1166.73 37.8731 1166.28 38.2128 1165.76 38.4038C1165.25 38.5948 1164.69 38.6286 1164.15 38.5008C1163.62 38.3731 1163.13 38.0896 1162.76 37.6861C1162.38 37.2827 1162.14 36.7774 1162.05 36.2341C1161.96 35.6909 1162.04 35.134 1162.27 34.634C1162.5 34.1339 1162.87 33.7131 1163.34 33.4247C1163.81 33.1363 1164.35 32.9932 1164.9 33.0136C1165.27 33.0257 1165.63 33.1101 1165.96 33.2621C1166.29 33.4141 1166.59 33.6306 1166.84 33.8991C1167.09 34.1677 1167.29 34.4829 1167.41 34.8266C1167.54 35.1702 1167.59 35.5356 1167.58 35.9014V35.9014Z" fill="#D96BE8"/>
<path d="M1341.14 292.937C1341.14 293.487 1340.97 294.025 1340.67 294.483C1340.36 294.94 1339.93 295.297 1339.42 295.508C1338.91 295.718 1338.35 295.773 1337.81 295.666C1337.27 295.559 1336.78 295.294 1336.39 294.904C1336 294.515 1335.73 294.019 1335.63 293.48C1335.52 292.94 1335.57 292.38 1335.78 291.872C1336 291.364 1336.35 290.929 1336.81 290.623C1337.27 290.317 1337.8 290.154 1338.36 290.154C1339.09 290.157 1339.8 290.452 1340.32 290.973C1340.84 291.494 1341.14 292.2 1341.14 292.937V292.937Z" fill="#D96BE8"/>
<path d="M1359.58 292.937C1359.58 293.487 1359.41 294.025 1359.11 294.483C1358.8 294.94 1358.37 295.297 1357.86 295.508C1357.35 295.718 1356.79 295.773 1356.25 295.666C1355.71 295.559 1355.22 295.294 1354.83 294.904C1354.44 294.515 1354.17 294.019 1354.06 293.48C1353.96 292.94 1354.01 292.38 1354.22 291.872C1354.43 291.364 1354.79 290.929 1355.25 290.623C1355.71 290.317 1356.24 290.154 1356.79 290.154C1357.53 290.157 1358.24 290.452 1358.76 290.973C1359.28 291.494 1359.57 292.2 1359.58 292.937V292.937Z" fill="#D96BE8"/>
<path d="M1378.02 292.937C1378.02 293.49 1377.86 294.031 1377.55 294.492C1377.24 294.953 1376.81 295.313 1376.3 295.527C1375.79 295.74 1375.23 295.797 1374.68 295.691C1374.14 295.584 1373.64 295.319 1373.25 294.929C1372.86 294.538 1372.59 294.04 1372.48 293.498C1372.37 292.956 1372.43 292.393 1372.64 291.882C1372.85 291.371 1373.21 290.934 1373.67 290.626C1374.13 290.318 1374.67 290.154 1375.22 290.154C1375.96 290.154 1376.67 290.447 1377.19 290.969C1377.72 291.49 1378.01 292.198 1378.02 292.937V292.937Z" fill="#D96BE8"/>
<path d="M1341.15 306.967C1341.13 307.517 1340.95 308.049 1340.63 308.496C1340.31 308.943 1339.86 309.285 1339.35 309.478C1338.83 309.671 1338.27 309.707 1337.73 309.582C1337.2 309.456 1336.71 309.175 1336.34 308.773C1335.96 308.371 1335.71 307.867 1335.62 307.324C1335.53 306.781 1335.61 306.224 1335.83 305.723C1336.06 305.221 1336.43 304.799 1336.9 304.509C1337.37 304.218 1337.91 304.073 1338.46 304.091C1339.2 304.119 1339.89 304.437 1340.4 304.975C1340.9 305.514 1341.17 306.23 1341.15 306.967V306.967Z" fill="#D96BE8"/>
<path d="M1359.58 307.633C1359.56 308.183 1359.37 308.713 1359.05 309.159C1358.73 309.604 1358.28 309.944 1357.77 310.135C1357.25 310.327 1356.69 310.361 1356.15 310.234C1355.62 310.108 1355.13 309.825 1354.76 309.423C1354.38 309.021 1354.14 308.516 1354.05 307.974C1353.96 307.431 1354.04 306.875 1354.26 306.374C1354.49 305.874 1354.86 305.452 1355.33 305.163C1355.8 304.873 1356.34 304.728 1356.89 304.746C1357.25 304.758 1357.61 304.842 1357.95 304.994C1358.28 305.146 1358.58 305.362 1358.83 305.63C1359.08 305.899 1359.28 306.214 1359.4 306.558C1359.53 306.901 1359.59 307.267 1359.58 307.633V307.633Z" fill="#D96BE8"/>
<path d="M1377.99 308.288C1377.97 308.839 1377.79 309.371 1377.47 309.818C1377.15 310.265 1376.7 310.606 1376.18 310.799C1375.67 310.992 1375.11 311.027 1374.57 310.901C1374.04 310.774 1373.55 310.492 1373.17 310.089C1372.8 309.686 1372.55 309.18 1372.46 308.637C1372.38 308.093 1372.45 307.535 1372.68 307.035C1372.91 306.534 1373.28 306.113 1373.75 305.824C1374.22 305.535 1374.76 305.392 1375.31 305.412C1376.05 305.44 1376.75 305.758 1377.25 306.297C1377.75 306.836 1378.02 307.552 1377.99 308.288V308.288Z" fill="#D96BE8"/>
<path d="M554.699 617.422C554.148 617.422 553.61 617.259 553.153 616.954C552.695 616.648 552.338 616.213 552.128 615.705C551.917 615.196 551.862 614.637 551.969 614.097C552.077 613.557 552.342 613.062 552.731 612.672C553.12 612.283 553.616 612.018 554.156 611.911C554.696 611.804 555.255 611.859 555.764 612.069C556.272 612.28 556.707 612.636 557.013 613.094C557.318 613.552 557.482 614.09 557.482 614.64C557.482 615.378 557.188 616.086 556.666 616.607C556.145 617.129 555.437 617.422 554.699 617.422Z" fill="#83E8E8"/>
<path d="M554.699 635.86C554.148 635.86 553.61 635.697 553.153 635.391C552.695 635.085 552.338 634.651 552.128 634.142C551.917 633.634 551.862 633.074 551.969 632.535C552.077 631.995 552.342 631.499 552.731 631.11C553.12 630.721 553.616 630.456 554.156 630.348C554.696 630.241 555.255 630.296 555.764 630.507C556.272 630.717 556.707 631.074 557.013 631.532C557.318 631.989 557.482 632.527 557.482 633.078C557.482 633.816 557.188 634.523 556.666 635.045C556.145 635.567 555.437 635.86 554.699 635.86Z" fill="#83E8E8"/>
<path d="M554.699 654.297C554.146 654.3 553.604 654.138 553.143 653.832C552.682 653.527 552.322 653.091 552.109 652.581C551.895 652.07 551.838 651.508 551.945 650.965C552.051 650.422 552.317 649.923 552.707 649.532C553.097 649.14 553.595 648.872 554.138 648.764C554.68 648.655 555.242 648.709 555.754 648.921C556.265 649.132 556.702 649.49 557.01 649.95C557.317 650.409 557.481 650.95 557.481 651.503C557.483 651.87 557.412 652.233 557.273 652.572C557.134 652.911 556.929 653.219 556.671 653.478C556.412 653.738 556.105 653.944 555.766 654.085C555.428 654.225 555.065 654.297 554.699 654.297Z" fill="#83E8E8"/>
<path d="M540.668 617.433C540.118 617.414 539.585 617.232 539.138 616.91C538.691 616.589 538.35 616.142 538.157 615.626C537.964 615.11 537.929 614.549 538.055 614.013C538.182 613.477 538.465 612.99 538.868 612.615C539.271 612.24 539.776 611.993 540.32 611.905C540.863 611.817 541.421 611.892 541.922 612.122C542.422 612.351 542.844 612.723 543.133 613.192C543.422 613.661 543.565 614.205 543.545 614.755C543.514 615.49 543.195 616.184 542.657 616.685C542.118 617.186 541.404 617.455 540.668 617.433V617.433Z" fill="#83E8E8"/>
<path d="M540.002 635.86C539.452 635.839 538.922 635.656 538.476 635.333C538.031 635.011 537.691 634.564 537.5 634.048C537.308 633.533 537.274 632.973 537.401 632.438C537.527 631.903 537.81 631.418 538.212 631.043C538.614 630.668 539.119 630.421 539.661 630.333C540.204 630.245 540.76 630.319 541.261 630.547C541.761 630.774 542.183 631.145 542.473 631.612C542.763 632.079 542.908 632.622 542.89 633.171C542.878 633.537 542.793 633.898 542.641 634.232C542.49 634.566 542.273 634.866 542.005 635.116C541.736 635.366 541.421 635.56 541.078 635.688C540.734 635.816 540.368 635.874 540.002 635.86V635.86Z" fill="#83E8E8"/>
<path d="M539.3 654.273C538.75 654.254 538.217 654.072 537.77 653.75C537.323 653.429 536.982 652.982 536.789 652.466C536.596 651.95 536.561 651.388 536.687 650.852C536.814 650.316 537.096 649.83 537.5 649.455C537.903 649.08 538.408 648.832 538.952 648.745C539.495 648.657 540.053 648.732 540.554 648.961C541.055 649.191 541.476 649.563 541.765 650.032C542.054 650.501 542.197 651.045 542.177 651.595C542.149 652.331 541.831 653.026 541.292 653.528C540.753 654.03 540.036 654.298 539.3 654.273V654.273Z" fill="#83E8E8"/>
<path d="M554.699 562.94C554.148 562.94 553.61 562.777 553.153 562.471C552.695 562.165 552.338 561.731 552.128 561.222C551.917 560.714 551.862 560.155 551.969 559.615C552.077 559.075 552.342 558.579 552.731 558.19C553.12 557.801 553.616 557.536 554.156 557.428C554.696 557.321 555.255 557.376 555.764 557.587C556.272 557.797 556.707 558.154 557.013 558.612C557.318 559.069 557.482 559.607 557.482 560.158C557.483 560.523 557.412 560.886 557.273 561.224C557.134 561.563 556.929 561.87 556.67 562.129C556.411 562.387 556.104 562.592 555.766 562.732C555.427 562.871 555.065 562.942 554.699 562.94V562.94Z" fill="#83E8E8"/>
<path d="M554.699 581.378C554.148 581.378 553.61 581.214 553.153 580.909C552.695 580.603 552.338 580.168 552.128 579.66C551.917 579.151 551.862 578.592 551.969 578.052C552.077 577.512 552.342 577.017 552.731 576.628C553.12 576.238 553.616 575.973 554.156 575.866C554.696 575.759 555.255 575.814 555.764 576.024C556.272 576.235 556.707 576.592 557.013 577.049C557.318 577.507 557.482 578.045 557.482 578.595C557.483 578.961 557.412 579.323 557.273 579.662C557.134 580 556.929 580.307 556.67 580.566C556.411 580.825 556.104 581.03 555.766 581.169C555.427 581.308 555.065 581.379 554.699 581.378Z" fill="#83E8E8"/>
<path d="M554.699 599.815C554.148 599.815 553.61 599.652 553.153 599.346C552.695 599.04 552.338 598.606 552.128 598.097C551.917 597.589 551.862 597.03 551.969 596.49C552.077 595.95 552.342 595.454 552.731 595.065C553.12 594.676 553.616 594.411 554.156 594.303C554.696 594.196 555.255 594.251 555.764 594.462C556.272 594.672 556.707 595.029 557.013 595.487C557.318 595.944 557.482 596.482 557.482 597.033C557.482 597.771 557.188 598.478 556.666 599C556.145 599.522 555.437 599.815 554.699 599.815Z" fill="#83E8E8"/>
<path d="M540.668 562.952C540.118 562.933 539.585 562.751 539.138 562.43C538.691 562.108 538.35 561.661 538.157 561.145C537.964 560.63 537.929 560.068 538.055 559.532C538.182 558.996 538.465 558.51 538.868 558.135C539.271 557.759 539.776 557.512 540.32 557.424C540.863 557.336 541.421 557.412 541.922 557.641C542.422 557.87 542.844 558.243 543.133 558.712C543.422 559.181 543.565 559.725 543.545 560.275C543.517 561.011 543.199 561.706 542.66 562.208C542.121 562.71 541.404 562.977 540.668 562.952Z" fill="#83E8E8"/>
<path d="M540.002 581.377C539.452 581.356 538.921 581.173 538.475 580.85C538.03 580.527 537.69 580.079 537.499 579.563C537.308 579.047 537.274 578.486 537.402 577.951C537.53 577.416 537.814 576.931 538.217 576.556C538.62 576.182 539.126 575.936 539.669 575.849C540.212 575.762 540.769 575.839 541.269 576.068C541.769 576.297 542.19 576.67 542.479 577.138C542.767 577.607 542.91 578.15 542.89 578.7C542.876 579.066 542.791 579.425 542.638 579.757C542.486 580.09 542.269 580.389 542.001 580.637C541.733 580.886 541.418 581.08 541.075 581.206C540.732 581.333 540.367 581.392 540.002 581.377Z" fill="#83E8E8"/>
<path d="M539.3 599.802C538.75 599.783 538.218 599.602 537.771 599.281C537.325 598.96 536.983 598.513 536.79 597.998C536.597 597.483 536.56 596.922 536.686 596.386C536.811 595.851 537.093 595.364 537.495 594.988C537.897 594.613 538.401 594.364 538.944 594.275C539.487 594.186 540.044 594.26 540.545 594.487C541.046 594.714 541.469 595.085 541.759 595.553C542.049 596.02 542.195 596.563 542.177 597.113C542.149 597.85 541.831 598.546 541.293 599.05C540.754 599.554 540.038 599.824 539.3 599.802V599.802Z" fill="#83E8E8"/>
</g>
<defs>
<clipPath id="clip0_1017_2188">
<rect width="1440" height="691" fill="white" transform="translate(0 0.849609)"/>
</clipPath>
</defs>
</svg>
