<svg width="1484" height="978" viewBox="0 0 1484 978" fill="none" xmlns="http://www.w3.org/2000/svg">
<g opacity="0.3">
<g style="mix-blend-mode:soft-light" opacity="0.25">
<g style="mix-blend-mode:soft-light" opacity="0.25">
<path d="M1376.43 744.411L1373.66 743.831C1379.3 716.451 1381.62 688.491 1380.57 660.556C1380.22 653.652 1379.62 646.61 1379.01 640.065L1374.98 614.672L1371.47 599.622C1371.21 598.586 1370.96 597.537 1370.71 596.487C1370.19 594.278 1369.65 591.986 1369.03 589.749L1365.78 579.863L1360.81 565.226C1360.46 564.204 1360.01 563.141 1359.58 562.106C1359.35 561.54 1359.11 560.987 1358.89 560.421L1350.88 541.325C1349.94 539.143 1348.77 536.892 1347.62 534.697L1346.24 531.935L1341.41 522.67C1338.84 517.492 1335.68 512.273 1332.61 507.233L1330.98 504.541L1328.55 500.564C1325.79 495.883 1323.03 491.451 1319.77 486.894L1313.63 478.154C1312.25 476.221 1310.73 474.246 1309.28 472.341L1307.22 469.579L1305.43 467.232C1303.88 465.216 1302.33 463.2 1300.76 461.184L1293.98 452.982C1293.22 452.084 1292.47 451.173 1291.73 450.22C1290.35 448.467 1288.79 446.644 1287.19 444.904L1276.43 433.085C1275.64 432.242 1274.81 431.386 1274 430.544L1265.34 421.652C1263.35 419.567 1261.2 417.509 1259.09 415.452L1250.25 406.933C1246.01 403.039 1241.59 399.131 1237.34 395.348L1234.58 392.862L1230.19 389.314C1226.38 386.096 1222.44 382.755 1218.49 379.538C1208.27 371.253 1197.1 362.747 1185.35 354.283L1183.85 353.206C1178.85 349.644 1173.68 345.971 1168.4 342.477L1159.77 336.747L1151.08 331.224C1128.67 316.974 1105.05 303.387 1080.84 290.85C1058.54 279.348 1034.69 268.163 1009.96 257.628C986.188 247.52 962.617 238.297 939.917 230.178C918.418 222.473 895.884 214.989 871.044 207.505C860.163 204.219 849.047 200.988 837.076 197.632L828.598 195.271L811.642 190.756L803.164 188.588C780.436 182.817 757.681 177.611 735.505 173.096C690.395 163.914 644.58 156.913 599.318 152.274C594.955 151.79 590.149 151.376 585.51 150.962L581.589 150.617C577.267 150.216 572.931 149.899 568.72 149.609L563.694 149.25C552.647 148.49 541.159 147.869 528.497 147.399C507.426 146.598 485.251 146.267 460.673 146.391L444.241 146.543L427.948 146.819L411.931 147.192L396.08 147.634L334.4 149.581C315.179 150.175 294.647 150.755 274.846 151.072C252.754 151.445 234.803 151.459 218.358 151.072C178.509 150.285 146.654 147.455 120.971 142.429L114.067 141.048L112.148 140.592C111.375 140.426 110.643 140.233 109.911 140.026L108.53 139.653L107.149 139.225C106.431 139.018 105.769 138.811 105.092 138.576C103.215 137.97 101.371 137.264 99.5688 136.463L99.3065 136.339L98.3537 135.884C97.8349 135.65 97.3321 135.383 96.8487 135.083L96.5173 134.917C96.26 134.785 96.0109 134.637 95.7716 134.475L94.9708 133.95C93.9062 133.271 92.9398 132.449 92.0988 131.506C91.8487 131.262 91.6348 130.983 91.4636 130.678C91.4295 130.602 91.3828 130.532 91.3255 130.471L91.0355 130.25L90.9389 129.96C90.9059 129.851 90.8643 129.745 90.8146 129.642L90.5523 129.173L90.4832 128.634C90.4274 128.506 90.3857 128.372 90.3589 128.234V128.013V127.792C90.3658 127.728 90.3658 127.663 90.3589 127.599C90.3142 127.303 90.3378 127.001 90.428 126.715C90.4231 126.77 90.4231 126.826 90.428 126.881L90.5523 126.066L90.6489 125.845C90.999 124.774 91.5948 123.8 92.3887 123.001C93.4302 121.902 94.5929 120.924 95.8545 120.087C97.6314 118.929 99.4757 117.878 101.378 116.939C106.667 114.4 112.13 112.241 117.726 110.477C131.971 105.952 146.52 102.45 161.262 99.9968L169.547 98.6989L173.482 98.119L179.806 97.2767C181.187 97.0834 182.568 96.9177 183.949 96.7658L186.269 96.4758C189.223 96.103 192.234 95.7854 195.244 95.4678L199.207 95.0398L202.603 94.7084C205.848 94.3908 209.107 94.0871 212.393 93.8247C215.679 93.5624 218.993 93.2862 222.321 93.0377L229.529 92.5406C232.746 92.3335 235.963 92.1263 239.194 91.9606C247.23 91.505 255.916 91.1184 266.52 90.7456C276.186 90.4004 285.948 90.1794 294.246 90.0137C298.904 89.9125 303.571 89.8296 308.248 89.7652L317.154 89.6547H322.111C342.491 89.4752 362.651 89.6547 377.95 89.7514C387.818 89.8158 397.732 89.9033 407.692 90.0137C435.308 90.2761 463.766 90.5522 492.127 90.2761V93.0377C463.738 93.3138 435.211 93.0377 407.637 92.7753C397.686 92.6833 387.772 92.5958 377.895 92.513C362.609 92.3749 342.464 92.2368 322.111 92.4163H317.154L308.261 92.5268C303.58 92.5958 298.927 92.6787 294.274 92.7753C285.989 92.941 276.227 93.1619 266.589 93.5071C255.998 93.8799 247.341 94.2528 239.319 94.7222C236.074 94.8741 232.87 95.095 229.653 95.3022L222.473 95.7992C219.159 96.034 215.845 96.2825 212.573 96.5725C209.3 96.8625 206.041 97.1524 202.81 97.4562L199.441 97.7876L195.478 98.2156C192.482 98.5332 189.5 98.8508 186.559 99.2236L184.211 99.4998C182.83 99.6655 181.519 99.8173 180.193 100.011L173.869 100.867L169.975 101.433L161.691 102.717C147.116 105.171 132.733 108.655 118.651 113.142C113.187 114.876 107.85 116.984 102.676 119.452C100.87 120.329 99.1218 121.321 97.4424 122.421C96.3519 123.143 95.3467 123.986 94.4461 124.934C93.9293 125.432 93.5408 126.048 93.3138 126.729L93.231 127.019C93.2442 127.157 93.2442 127.295 93.231 127.433C93.231 127.585 93.231 127.723 93.231 127.861C93.283 128.018 93.32 128.18 93.3415 128.344C93.4292 128.494 93.5032 128.651 93.5624 128.814L93.8662 129.283C93.9159 129.373 93.9761 129.457 94.0456 129.532L94.2528 129.753C94.927 130.482 95.6874 131.127 96.5173 131.672C96.7658 131.81 97.0834 132.017 97.3872 132.224C97.5248 132.323 97.6729 132.407 97.829 132.473L98.3261 132.749C98.7267 132.991 99.1417 133.207 99.5688 133.398C99.8864 133.55 100.218 133.702 100.522 133.868L100.687 133.937C102.427 134.711 104.206 135.393 106.017 135.98C106.652 136.215 107.287 136.394 107.936 136.588C108.585 136.781 108.903 136.864 109.317 137.016L110.698 137.375C111.375 137.568 112.079 137.748 112.811 137.913L118.941 139.211L121.537 139.695C147.082 144.693 178.785 147.496 218.469 148.283C234.928 148.614 252.836 148.601 274.86 148.283C294.647 147.965 315.151 147.386 334.372 146.792L396.066 144.845L411.917 144.403L427.948 144.058L444.186 143.795L460.631 143.644C485.237 143.519 507.468 143.851 528.594 144.652C541.283 145.135 552.827 145.756 563.873 146.502L568.899 146.875C573.124 147.165 577.488 147.468 581.823 147.883L585.745 148.228C590.398 148.642 595.217 149.056 599.553 149.609C644.898 154.262 690.809 161.276 735.988 170.472C758.219 174.988 781.03 180.221 803.785 185.992L812.291 188.16L829.275 192.689L837.766 195.064C849.752 198.42 860.881 201.651 871.789 204.951C896.643 212.517 919.247 219.946 940.829 227.665C963.584 235.784 987.209 245.035 1011.03 255.17C1035.88 265.733 1059.74 276.945 1082.1 288.488C1106.37 301.054 1130.08 314.723 1152.52 328.987L1161.23 334.51L1169.83 340.254C1175.15 343.775 1180.33 347.462 1185.35 351.038L1186.86 352.129C1198.72 360.607 1209.93 369.14 1220.2 377.48C1224.17 380.711 1228.12 384.053 1231.93 387.298L1236.33 391.012L1239.09 393.525C1243.37 397.322 1247.79 401.244 1252.07 405.179L1260.94 413.712C1263.05 415.756 1265.23 417.855 1267.26 419.981L1275.9 428.873C1276.73 429.729 1277.58 430.585 1278.39 431.455L1289.16 443.289C1290.8 445.084 1292.32 446.934 1293.8 448.715L1296.04 451.477L1302.83 459.762C1304.45 461.791 1305.99 463.821 1307.55 465.865L1309.35 468.212L1311.39 470.891C1312.87 472.824 1314.39 474.812 1315.81 476.801L1321.95 485.527C1325.28 490.167 1328.11 494.847 1330.85 499.335C1331.65 500.716 1332.45 501.986 1333.28 503.312L1334.91 506.004C1338 511.099 1341.19 516.374 1343.8 521.621L1348.63 530.886C1349.09 531.784 1349.56 532.681 1350.01 533.579C1351.17 535.802 1352.37 538.121 1353.35 540.4L1361.38 559.537L1362.05 561.194C1362.51 562.258 1362.98 563.376 1363.35 564.481L1368.4 579.007L1371.68 588.962C1372.33 591.309 1372.86 593.629 1373.4 595.866L1374.15 598.987L1377.68 614.175L1378.53 619.284L1381.76 639.761C1382.36 646.417 1382.97 653.459 1383.32 660.473C1384.41 688.628 1382.09 716.811 1376.43 744.411Z" fill="#9FFFFF"/>
</g>
<g style="mix-blend-mode:soft-light" opacity="0.25">
<path d="M1284.2 693.28L1281.44 692.797C1285.88 668.826 1287.51 644.419 1286.3 620.071L1284.04 597.826L1281.68 584.681L1280.05 575.996C1279.59 574.132 1279.05 572.171 1278.53 570.224C1278.27 569.285 1278 568.346 1277.75 567.394L1275.35 558.612C1274.65 555.847 1273.81 553.118 1272.84 550.438L1266.85 533.633C1265.38 529.961 1263.66 526.177 1262 522.518C1261.2 520.764 1260.4 519.011 1259.63 517.271C1257.72 512.728 1255.25 508.13 1252.85 503.67L1251.58 501.295C1250.87 500.011 1250.19 498.713 1249.49 497.415C1247.34 493.397 1245.35 489.6 1242.81 485.72C1230.02 465.027 1215.34 445.562 1198.97 427.575C1182.55 409.471 1164.83 392.59 1145.96 377.066L1141.71 373.614C1138.47 370.963 1135.13 368.229 1131.68 365.619L1129.91 364.238C1125.77 361.035 1121.49 357.721 1117.1 354.573L1109.7 349.188L1102.17 343.968L1099.65 342.228C1098 341.082 1096.37 339.95 1094.69 338.832L1087.05 333.792C1067.09 320.73 1046.14 308.358 1024.78 297.063C1004.58 286.348 983.067 275.978 960.85 266.216C918.981 247.936 876.108 232.05 832.437 218.634C790.226 205.516 747.049 194.429 704.134 185.661C682.704 181.311 660.942 177.445 639.471 174.2L631.352 172.985C629.612 172.723 627.845 172.474 626.091 172.239L615.045 170.721L603.999 169.34L598.696 168.691L590.508 167.766C586.366 167.255 581.906 166.827 577.612 166.385L573.87 166.012C552.854 164.024 531.065 162.671 507.302 161.87C487.419 161.207 466.127 160.931 442.198 161.041C420.561 161.138 398.896 161.566 378.557 162.008L362.512 162.381C347.324 162.726 331.541 163.071 316.118 163.361C292.465 163.817 273.024 164.01 254.894 163.968C233.008 163.968 213.705 163.499 195.879 162.657C175.485 161.676 157.548 160.185 141.034 158.1L137.789 157.714L135.732 157.41L128.344 156.319C125.334 155.918 122.476 155.408 119.701 154.938L116.152 154.303C113.087 153.806 110.201 153.185 107.398 152.577L104.54 151.956L100.273 151.044L99.403 150.837L94.1284 149.456C93.1204 149.194 92.1815 148.904 91.2288 148.6C90.6764 148.421 90.1379 148.241 89.558 148.076L87.901 147.496C87.0035 147.178 86.0922 146.861 85.2499 146.515C82.7456 145.55 80.3058 144.424 77.9456 143.146C73.2785 140.495 70.2269 137.775 68.8462 135.041C68.5419 134.549 68.3138 134.013 68.1696 133.453C68.1696 133.26 68.0453 133.066 67.9624 132.873L67.8658 132.486L67.6587 130.816L67.8796 128.869L68.1696 127.888C68.2495 127.546 68.3749 127.217 68.5424 126.908C68.5947 126.831 68.6364 126.748 68.6667 126.66L69.0395 125.873L69.3847 125.334C69.7406 124.734 70.1471 124.166 70.5998 123.636L71.5525 122.559C72.1344 121.934 72.7572 121.348 73.4166 120.805C75.3488 119.183 77.4186 117.732 79.6025 116.469C85.358 113.249 91.3881 110.546 97.6218 108.392C100.756 107.246 104.332 106.058 108.585 104.76C112.162 103.669 116.124 102.565 120.363 101.474C128.123 99.458 136.56 97.6077 145.411 95.9508C149.747 95.1499 154.082 94.4043 158.294 93.7553L167.352 92.485L171.591 91.9189C179.724 90.8971 188.367 89.972 198.806 89.0192C207.823 88.2598 217.088 87.6384 226.422 87.0723C236.212 86.5476 245.283 86.161 254.134 85.8986C264.214 85.5949 273.313 85.4016 281.971 85.2911C291.747 85.1668 300.888 85.0978 309.904 85.084C312.915 85.084 315.897 85.084 318.88 85.084H323.809C326.764 85.084 329.733 85.084 332.687 85.084H337.7C356.092 85.2497 374.857 85.6639 393 86.0505L409.294 86.4095C441.052 87.1414 473.928 87.887 506.598 87.7903V90.5519C473.873 90.7038 441.01 89.9582 409.211 89.1711L392.917 88.8121C374.788 88.4255 356.037 88.0113 337.686 87.8456H332.674C329.719 87.8456 326.764 87.8456 323.809 87.8456H318.866C315.883 87.8456 312.901 87.8456 309.891 87.8456C300.888 87.8456 291.761 87.9284 281.985 88.0527C273.341 88.1631 264.255 88.3565 254.203 88.6602C245.366 88.9226 236.322 89.3092 226.588 89.8339C217.336 90.3586 208.099 91.0076 199.124 91.7808C188.726 92.7197 180.11 93.6311 172.005 94.6529L167.863 95.219L158.832 96.4893C154.69 97.1383 150.368 97.8701 146.06 98.6709C137.264 100.314 128.897 102.164 121.206 104.194C117.063 105.271 113.087 106.362 109.538 107.453C105.396 108.723 101.806 109.897 98.7265 111.029C92.6443 113.123 86.7617 115.757 81.149 118.9C79.0973 120.082 77.1523 121.44 75.3359 122.959C74.7546 123.447 74.2014 123.968 73.6789 124.519L72.9057 125.403C72.5357 125.837 72.1987 126.299 71.8977 126.784L71.5663 127.309L71.3868 127.737C71.3203 127.903 71.2419 128.065 71.1521 128.22C71.1521 128.317 71.0554 128.399 71.0278 128.482V128.634L70.7516 129.559L70.6274 130.83L70.7655 132.045C70.8483 132.252 70.9173 132.473 70.9864 132.694C71.0644 133.014 71.1901 133.321 71.3592 133.605L71.4559 133.771C72.5743 136.035 75.2668 138.396 79.4506 140.771C81.7192 141.989 84.0619 143.064 86.465 143.988C87.2659 144.334 88.1358 144.637 88.9781 144.927C89.5304 145.107 90.0827 145.3 90.6212 145.507L92.2505 146.004C93.1481 146.294 94.0456 146.584 95.0121 146.833L97.4009 147.496L100.259 148.2L101.019 148.379L105.285 149.291L108.171 149.912C110.933 150.52 113.777 151.127 116.787 151.624L120.377 152.259C123.139 152.756 125.9 153.281 128.897 153.64L136.325 154.745L138.314 155.021L141.559 155.408C157.99 157.493 175.871 158.984 196.183 159.95C213.967 160.806 233.243 161.235 255.087 161.262C273.148 161.262 292.603 161.11 316.242 160.655C331.666 160.365 347.407 160.019 362.623 159.674L378.668 159.315C399.021 158.873 420.699 158.432 442.363 158.335C466.334 158.224 487.667 158.501 507.578 159.163C531.397 159.964 553.227 161.331 574.326 163.306L578.054 163.679C582.362 164.093 586.822 164.535 591.019 165.059L599.194 165.984C600.975 166.192 602.742 166.412 604.523 166.647L615.57 168.028L626.616 169.547L631.918 170.293L640.024 171.508C661.55 174.766 683.353 178.632 704.838 182.996C747.849 191.778 791.109 202.893 833.403 216.038C877.182 229.484 920.162 245.407 962.134 263.731C984.406 273.507 1005.97 283.918 1026.24 294.66C1047.67 306.01 1068.69 318.41 1088.74 331.527L1096.25 336.54C1097.96 337.672 1099.61 338.818 1101.26 339.964L1103.79 341.717L1111.34 346.951L1118.76 352.35C1123.19 355.525 1127.48 358.853 1131.64 362.015L1133.39 363.396C1136.89 366.033 1140.3 368.781 1143.5 371.446L1147.75 374.912C1166.73 390.531 1184.53 407.519 1201.02 425.739C1217.53 443.838 1232.33 463.433 1245.21 484.27C1247.76 488.219 1249.92 492.237 1251.99 496.131L1254.07 499.997L1255.34 502.386C1257.77 506.888 1260.27 511.555 1262.25 516.194C1263.01 517.906 1263.8 519.66 1264.6 521.4C1266.27 525.086 1268.01 528.897 1269.51 532.681L1275.5 549.513C1276.58 552.343 1277.35 555.174 1278.1 557.922L1280.5 566.703C1280.75 567.656 1281.01 568.581 1281.28 569.465C1281.81 571.439 1282.35 573.414 1282.84 575.389L1286.85 597.481L1287.34 601.983L1289.16 619.933C1290.35 644.491 1288.69 669.106 1284.2 693.28Z" fill="#9FFFFF"/>
</g>
<g style="mix-blend-mode:soft-light" opacity="0.25">
<path d="M1033.88 579.848L1031.12 579.738C1031.24 576.672 1031.52 573.648 1031.78 570.721C1032.26 566.319 1032.48 561.893 1032.46 557.466C1032.46 556.692 1032.46 555.988 1032.46 555.284C1032.61 552.444 1032.56 549.597 1032.31 546.765L1031.7 536.091C1030.68 522.283 1027.42 508.613 1024.05 495.924C1022.96 492.762 1021.88 489.489 1020.86 486.258C1020.59 485.29 1020.25 484.344 1019.84 483.428C1019.57 482.806 1019.33 482.185 1019.11 481.564L1017.38 476.91C1016.72 475.281 1016 473.61 1015.25 471.953C1014.62 470.573 1013.98 469.095 1013.4 467.659L1008.79 458.546C1002.26 446.039 994.711 434.088 986.229 422.811L983.025 418.475C982.376 417.619 981.645 416.763 980.94 415.893L979.56 414.195C978.897 413.38 978.179 412.566 977.613 411.737C977.047 410.909 976.646 410.494 976.135 409.887L972.518 405.648C972.048 405.123 971.592 404.585 971.137 404.046C970.377 403.149 969.673 402.306 968.886 401.464L965.034 397.322C963.556 395.637 961.941 393.98 960.367 392.365C959.29 391.26 958.213 390.155 957.177 389.051C946.331 377.894 934.772 367.451 922.574 357.79C896.203 336.988 867.896 318.766 838.042 303.373C821.473 294.743 805.815 287.273 790.143 280.535C773.007 273.203 756.024 266.575 739.661 260.831C705.439 248.812 670.564 238.74 635.205 230.66C617.406 226.587 599.442 222.997 581.837 219.987L576.7 219.145C573.939 218.675 571.177 218.215 568.416 217.764L555.077 215.858C546.599 214.643 537.928 213.566 529.284 212.641C498.355 209.341 461.957 207.436 414.748 206.648C393.898 206.262 372.482 206.096 351.77 205.93C329.677 205.751 307.985 205.571 286.113 205.226C274.763 205.047 263.455 204.812 252.477 204.508C241.749 204.204 230.633 203.79 218.469 203.238C193.366 202.078 171.094 200.476 150.368 198.322C126.411 195.851 104.512 192.606 85.2638 188.657L82.6402 188.132C80.9557 187.801 79.2159 187.455 77.559 187.069L67.7277 184.749C66.057 184.363 64.3862 183.976 62.7569 183.548L48.7419 179.613L45.856 178.701L44.9033 178.398C43.6053 177.997 42.335 177.583 41.1061 177.127C36.405 175.511 31.7956 173.639 27.2982 171.521C23.2422 169.623 19.3451 167.402 15.6443 164.88C14.1767 163.907 12.766 162.851 11.4191 161.718L10.7702 161.207C10.1902 160.723 9.66552 160.226 9.15463 159.729L8.32616 158.928C7.69093 158.348 7.09582 157.725 6.54494 157.064L4.84657 155.035C4.42591 154.48 4.03417 153.904 3.6729 153.309L3.32771 152.756C2.51837 151.524 1.85132 150.204 1.33937 148.821L1.03559 148.089C0.759434 147.288 0.607547 146.598 0.441852 145.921L0.0966548 144.32C0.0417347 143.954 0.00945533 143.585 0 143.215V142.897C0 142.055 0 141.213 0 140.384V140.232C0.0966553 139.376 0.234733 138.52 0.386619 137.664L0.676584 136.214L1.10464 134.958C1.42222 134.06 1.73979 133.204 2.0988 132.348C3.00195 130.499 4.07435 128.738 5.30224 127.087C8.11337 123.349 11.4369 120.026 15.1749 117.215C19.4375 113.934 23.9634 111.011 28.7066 108.474C33.3599 105.961 38.5793 103.503 44.2267 101.142C54.9139 96.7972 65.8563 93.1082 76.9928 90.096C87.3487 87.2378 98.0913 84.7248 109.842 82.405C120.888 80.2372 131.603 78.456 142.718 76.8819C145.48 76.4953 148.242 76.1501 151.003 75.8187L161.829 74.645C163.568 74.4517 165.308 74.2722 167.034 74.1203L174.849 73.4299C186.255 72.491 196.293 71.842 205.531 71.4554C215.776 70.9859 225.745 70.6821 235.176 70.5579C238.669 70.5579 242.08 70.4612 245.56 70.4336H253.844C257.227 70.4336 260.61 70.4336 263.938 70.4336C272.112 70.4336 280.728 70.6131 291.871 70.8616C301.454 71.0688 310.678 71.3587 319.225 71.6349L332.95 72.132L346.592 72.7119C363.741 73.4989 381.346 74.4517 400.443 75.6254L410.895 76.2605C442.405 78.1936 474.992 80.182 507.302 81.3142L507.205 84.0758C474.853 82.9435 442.308 80.9414 410.73 79.0221L400.263 78.3869C381.222 77.2133 363.631 76.2605 346.495 75.4735L332.867 74.8935L319.156 74.3965C310.622 74.1203 301.399 73.8303 291.83 73.6094C280.715 73.3747 272.112 73.2366 263.952 73.1952C260.61 73.1952 257.241 73.1952 253.872 73.1952H245.656C242.232 73.1952 238.752 73.1952 235.314 73.3194C225.897 73.4437 215.983 73.7475 205.738 74.217C196.528 74.6036 186.531 75.2387 175.167 76.1777L167.365 76.8681C165.653 77.02 163.927 77.1995 162.201 77.379L151.404 78.5526C148.642 78.8978 145.88 79.2292 143.119 79.6158C132.073 81.1071 121.358 82.8883 110.394 85.0423C98.7126 87.3483 88.0391 89.8475 77.7523 92.6919C66.7249 95.6668 55.8887 99.3096 45.3037 103.6C39.7805 105.92 34.6164 108.336 30.115 110.808C25.5082 113.281 21.1077 116.121 16.9561 119.3C13.4132 121.957 10.2658 125.105 7.60815 128.648C6.49208 130.147 5.51678 131.746 4.69469 133.425C4.39091 134.143 4.10095 134.958 3.81098 135.759L3.42436 136.919L3.18962 138.065C3.06535 138.824 2.94108 139.597 2.84442 140.371C2.74777 141.144 2.84442 141.889 2.84442 142.649V142.966C2.83023 143.224 2.83023 143.482 2.84442 143.74L3.16201 145.203C3.30009 145.811 3.45197 146.418 3.64528 147.012L3.92145 147.661C4.37073 148.875 4.94939 150.037 5.64743 151.127L6.03405 151.734C6.36544 152.259 6.66922 152.742 7.02822 153.212L8.71278 155.228C9.1918 155.8 9.70844 156.34 10.2593 156.843L11.0877 157.644C11.5572 158.086 12.0267 158.542 12.4685 159.025L13.1037 159.536C14.374 160.558 15.6996 161.621 17.1356 162.56C20.7346 164.992 24.5153 167.143 28.4443 168.994C32.8401 171.073 37.3432 172.916 41.9346 174.517C43.1497 174.959 44.3924 175.36 45.6351 175.76L46.6017 176.064L49.3632 176.948L63.4197 180.869C65.0076 181.283 66.6507 181.67 68.3076 182.057L78.1527 184.363C79.7544 184.749 81.4528 185.081 83.1097 185.398L85.7608 185.937C104.926 189.83 126.743 193.048 150.658 195.519C171.37 197.66 193.545 199.261 218.607 200.421C230.744 200.973 241.845 201.388 252.56 201.691C263.51 201.995 274.819 202.23 286.155 202.409C308.013 202.755 329.677 202.934 351.784 203.114C372.496 203.279 393.939 203.445 414.803 203.832C462.095 204.619 498.562 206.593 529.588 209.838C538.259 210.763 546.958 211.854 555.464 213.069L562.023 214.036L568.761 215.071C571.523 215.486 574.284 215.955 577.046 216.452L582.168 217.294C599.856 220.304 617.862 223.908 635.715 227.995C671.176 236.094 706.147 246.199 740.462 258.262C756.88 264.02 773.919 270.689 791.123 278.021C806.864 284.787 822.591 292.285 839.202 300.956C869.225 316.405 897.694 334.702 924.218 355.594C936.533 365.324 948.206 375.84 959.165 387.076C960.215 388.195 961.278 389.286 962.341 390.376C963.929 392.006 965.572 393.704 967.063 395.402L970.888 399.545C971.731 400.428 972.49 401.34 973.236 402.223L974.616 403.798L978.275 408.078C978.814 408.727 979.311 409.362 979.794 409.997C980.278 410.633 981.051 411.599 981.714 412.4L983.094 414.098C983.826 414.982 984.558 415.866 985.248 416.763L988.549 421.182C997.128 432.585 1004.76 444.671 1011.37 457.317L1016.01 466.541C1016.65 468.046 1017.27 469.454 1017.89 470.863C1018.64 472.547 1019.38 474.245 1020.07 475.944L1021.81 480.652C1022.02 481.246 1022.25 481.826 1022.5 482.392C1022.95 483.404 1023.32 484.447 1023.62 485.513C1024.61 488.62 1025.69 491.878 1026.81 495.178C1030.23 508.089 1033.53 521.896 1034.57 535.967L1035.18 546.585C1035.43 549.524 1035.48 552.476 1035.33 555.422C1035.33 556.112 1035.33 556.803 1035.33 557.521C1035.35 562.032 1035.12 566.54 1034.64 571.025C1034.27 573.856 1034 576.866 1033.88 579.848Z" fill="#9FFFFF"/>
</g>
<g style="mix-blend-mode:soft-light" opacity="0.25">
<path d="M1099.01 822.673L1096.76 821.085C1114.28 796.408 1129.86 770.408 1143.36 743.319C1155.29 719.449 1164.77 694.436 1171.67 668.659C1177.84 645.444 1181 621.53 1181.06 597.507C1180.86 574.84 1177.51 552.31 1171.1 530.567C1170.81 529.6 1170.55 528.634 1170.27 527.667C1169.82 525.996 1169.34 524.27 1168.76 522.586L1162.94 506.776C1162.32 505.16 1161.56 503.476 1160.8 501.846C1160.36 500.921 1159.93 499.982 1159.53 499.085C1158.8 497.524 1158.08 495.937 1157.38 494.349C1155.78 490.759 1154.27 487.376 1152.32 483.937L1148.36 476.426L1144.03 469.094C1132.07 449.368 1118.15 430.901 1102.48 413.973C1072.83 381.566 1035.67 351.354 992.014 324.222C972.891 312.305 951.585 300.472 928.691 289.053C907.883 278.78 885.638 268.852 862.593 259.573C840.625 250.791 817.869 242.534 794.934 235.05C771.999 227.566 748.968 220.883 726.475 215.07C703.222 208.953 679.942 203.706 657.283 199.288C633.631 194.704 610.074 190.851 587.319 187.841L569.714 185.687L560.932 184.707C559.04 184.499 557.149 184.32 555.243 184.14C554.194 184.058 553.144 183.961 552.109 183.851L548.947 183.561C547.069 183.381 545.191 183.202 543.285 183.05L525.501 181.669L516.567 181.117C495.193 179.888 472.313 179.197 444.573 178.949C419.719 178.728 394.975 178.949 371.695 179.197L359.848 179.322C339.647 179.529 318.755 179.763 298.181 179.832C269.323 179.929 246.001 179.681 224.71 179.032C197.978 178.217 174.642 176.781 153.351 174.654C131.684 172.65 110.171 169.232 88.9505 164.423C73.3199 161.026 52.8566 154.757 44.2957 144.084C42.3708 141.931 41.1543 139.238 40.8109 136.371C40.4676 133.503 41.0141 130.599 42.3764 128.053C44.9861 122.93 50.8131 117.738 59.2359 113.044C68.0124 108.322 77.2234 104.456 86.7412 101.5C96.2963 98.3935 106.887 95.5352 118.223 93.0222C129.021 90.6196 140.123 88.576 151.224 86.9467C161.414 85.4693 172.033 84.1851 184.667 83.0805C195.326 82.1139 206.497 81.3407 217.806 80.7608C228.314 80.2361 239.028 79.8633 250.572 79.6147C272.941 79.1453 294.757 79.2971 315.055 79.5319C333.53 79.7666 353.22 80.2637 378.889 81.1612C388.941 81.5202 398.993 81.8976 409.045 82.2934C440.983 83.5085 474.011 84.7651 506.833 85.1379V87.8995C473.97 87.5266 440.928 86.2701 408.962 85.055C398.91 84.6684 388.863 84.291 378.82 83.9228C353.165 83.0253 333.502 82.542 315.041 82.2934C294.799 82.0587 272.982 81.9068 250.655 82.3763C239.139 82.6248 228.452 82.9977 217.971 83.5085C206.663 84.0885 195.547 84.8893 184.915 85.8421C172.336 86.9881 161.76 88.2032 151.625 89.6807C140.578 91.31 129.532 93.3398 118.817 95.7147C107.564 98.214 97.0695 101.045 87.5973 104.124C78.2535 107.026 69.2094 110.818 60.5891 115.446C52.6357 119.879 47.1954 124.67 44.8342 129.254C43.7113 131.323 43.262 133.691 43.5491 136.028C43.8363 138.364 44.8454 140.553 46.436 142.289C52.829 150.242 67.7415 156.939 89.558 161.62C110.67 166.403 132.072 169.802 153.627 171.796C174.849 173.909 198.129 175.345 224.793 176.16C246.057 176.808 269.364 177.057 298.168 176.96C318.741 176.891 339.591 176.657 359.82 176.449L371.667 176.325C394.961 176.077 419.774 175.856 444.587 176.077C472.382 176.325 495.317 177.016 516.733 178.244L534.6 179.432L543.493 180.122C545.412 180.26 547.317 180.454 549.209 180.633L552.357 180.923L555.492 181.213C557.411 181.393 559.33 181.572 561.236 181.779L578.855 183.795L587.664 184.928C610.502 187.938 634.1 191.831 657.808 196.402C680.522 200.834 703.857 206.067 727.193 212.129C749.755 217.956 772.842 224.708 795.832 232.164C818.822 239.621 841.605 247.933 863.629 256.742C886.757 266.063 909.057 276.004 929.907 286.319C952.869 297.779 974.258 309.654 993.423 321.626C1037.28 348.938 1074.63 379.315 1104.44 411.915C1120.24 428.981 1134.28 447.596 1146.35 467.478L1150.71 474.866L1154.69 482.405C1156.66 485.926 1158.28 489.53 1159.84 493.023C1160.53 494.583 1161.22 496.157 1161.98 497.745C1162.39 498.684 1162.8 499.596 1163.23 500.507C1164.01 502.178 1164.81 503.904 1165.46 505.616L1171.3 521.481C1171.9 523.276 1172.4 525.044 1172.87 526.742C1173.13 527.695 1173.4 528.647 1173.68 529.6C1180.16 551.578 1183.54 574.349 1183.75 597.259C1183.69 621.524 1180.51 645.68 1174.26 669.129C1167.32 695.083 1157.78 720.268 1145.77 744.299C1132.24 771.598 1116.61 797.802 1099.01 822.673Z" fill="#9FFFFF"/>
</g>
<g style="mix-blend-mode:soft-light" opacity="0.25">
<path d="M1053.79 470.049C1041.7 445.816 1024.79 422.053 1003.52 399.408L1002.14 397.875C1001.36 397.019 1000.58 396.163 999.719 395.321L995.673 391.178C995.163 390.681 994.666 390.17 994.168 389.659C993.354 388.831 992.525 387.989 991.655 387.174L987.513 383.17L985.98 381.692C985.138 380.864 984.282 380.049 983.384 379.235L979.076 375.341L977.461 373.877C976.591 373.076 975.707 372.275 974.782 371.488L970.226 367.746C958.14 357.522 945.55 347.909 932.502 338.943C905.169 320.231 876.39 303.725 846.438 289.58C829.868 281.654 814.542 274.916 799.657 268.965C783.474 262.447 767.194 256.427 751.232 251.014C718.621 240.022 685.471 230.694 651.912 223.067C635.191 219.256 618.179 215.832 601.361 212.863L588.63 210.709L575.886 208.707L563.114 206.871L550.838 205.324C521.096 201.72 486.797 199.497 445.995 198.544C429.798 198.172 412.456 197.937 389.728 197.813C378.286 197.739 366.71 197.702 355.001 197.702H331.362C292.175 197.536 251.663 197.357 210.916 195.369C188.823 194.292 169.133 192.856 150.575 190.964C130.236 188.92 110.96 186.131 93.2861 182.679L90.9388 182.237C89.4337 181.947 87.9425 181.671 86.4927 181.34L73.4166 178.385C71.9668 178.053 70.586 177.681 69.2052 177.308L67.1202 176.742L57.8965 174.16L54.5826 173.152C52.9533 172.655 51.393 172.116 49.8879 171.591L48.2586 171.025C46.2979 170.307 44.4614 169.644 42.2936 168.706C35.2838 165.922 28.698 162.171 22.7278 157.563C17.2046 152.951 13.7527 147.897 12.6757 142.691C12.5654 142.178 12.5007 141.656 12.4823 141.131V140.579C12.4823 140.289 12.4823 140.109 12.4823 139.916C12.4136 139.361 12.4136 138.8 12.4823 138.245C12.4823 137.983 12.4823 137.707 12.579 137.431C12.6651 136.214 12.9207 135.015 13.3384 133.868L14.0979 131.687L15.1473 129.657C15.5466 128.884 16.0084 128.145 16.5281 127.448L16.9009 126.909C17.2599 126.384 17.6189 125.873 18.0469 125.349C20.5349 122.355 23.3509 119.65 26.4421 117.285C30.002 114.616 33.7438 112.198 37.6403 110.05C41.7827 107.799 46.0908 105.714 50.4955 103.822C55.3697 101.751 59.8434 100.025 64.1791 98.52C68.9566 96.8492 73.6789 95.3304 78.2355 94.0048C82.7921 92.6793 87.2797 91.4365 92.43 90.1386C101.488 87.8603 110.836 85.8305 121.026 83.925C130.885 82.1024 140.357 80.5973 150.023 79.3546C152.425 79.0509 154.98 78.7333 157.327 78.4709L164.217 77.7805C166.164 77.5596 168.125 77.3801 170.072 77.1868L173.593 76.8692L178.177 76.4412L182.223 76.1236C185.426 75.8612 188.74 75.5989 191.985 75.4056L194.291 75.2537L198.82 74.9637L205.613 74.6047C207.878 74.4666 210.129 74.37 212.379 74.2871L219.09 73.9972L223.591 73.8591C226.546 73.7624 229.487 73.6658 232.401 73.6106L245.532 73.3758C248.459 73.3758 251.359 73.3068 254.245 73.293H258.525C274.073 73.293 290.187 73.4725 309.269 73.9419H309.573L321.793 74.2733L325.452 74.3838C328.421 74.4666 331.389 74.5495 334.344 74.6738C343.195 74.9775 351.908 75.3365 359.199 75.6541C375.437 76.3583 391.136 77.2006 408.52 78.1395H409.128C441.148 79.8655 474.274 81.6606 507.164 82.5857L507.095 85.3473C474.205 84.4221 441.079 82.5857 409.059 80.8873H408.451C391.081 79.9484 375.381 79.1061 359.157 78.4019C351.825 78.0843 343.14 77.7115 334.303 77.4215C331.362 77.2973 328.407 77.2144 325.438 77.1316L321.779 77.0211C317.637 76.883 313.619 76.7864 309.573 76.6897H309.2C290.145 76.234 274.031 76.0269 258.525 76.0545H254.245C251.359 76.0545 248.473 76.0545 245.56 76.1374L232.442 76.3721C229.529 76.3721 226.601 76.524 223.674 76.6207L219.173 76.7588L212.476 77.0349C210.239 77.1316 208.002 77.2282 205.751 77.3525L198.958 77.7253L194.457 78.0015L192.137 78.1533C188.92 78.3467 185.62 78.6228 182.471 78.8714L178.426 79.2027L173.883 79.617L170.362 79.9484C168.429 80.1279 166.482 80.3074 164.549 80.5283L157.52 81.2877C155.187 81.5501 152.66 81.8539 150.258 82.1714C140.689 83.4003 131.272 84.933 121.468 86.7142C111.333 88.6059 102.027 90.6219 93.0376 92.8864C87.9287 94.1705 83.3721 95.427 78.9397 96.725C74.5074 98.0229 69.7437 99.4865 65.0214 101.199C60.7409 102.676 56.3224 104.388 51.5034 106.432C47.1954 108.282 42.9564 110.34 38.9107 112.535C35.1323 114.615 31.5056 116.959 28.0576 119.549C25.136 121.777 22.477 124.329 20.1319 127.158C19.7681 127.6 19.427 128.061 19.1101 128.538L18.7097 129.118C18.2786 129.696 17.8997 130.31 17.5775 130.955L16.5695 132.929L15.8791 134.89C15.5555 135.841 15.3514 136.829 15.2715 137.831C15.2715 138.121 15.2715 138.411 15.1749 138.701C15.1333 139.059 15.1333 139.42 15.1749 139.778C15.1749 140.013 15.1749 140.234 15.1749 140.468C15.1749 140.703 15.1749 140.8 15.1749 141.007C15.1876 141.383 15.2338 141.757 15.313 142.125C16.2795 146.834 19.3311 151.294 24.4262 155.491C30.1971 159.912 36.5602 163.5 43.3292 166.151C45.4418 167.007 47.2644 167.725 49.1561 168.416L50.7854 168.982C52.2629 169.493 53.7818 170.031 55.3697 170.501L58.6559 171.509L67.8382 174.008L69.937 174.574C71.3178 174.933 72.6986 175.306 74.0794 175.623L87.1278 178.578C88.5086 178.896 90.0275 179.172 91.4911 179.448L93.797 179.959C111.388 183.383 130.581 186.159 150.837 188.244C169.354 190.122 189.044 191.571 211.026 192.635C251.718 194.623 292.203 194.802 331.362 194.968H354.987C366.696 194.968 378.281 195.005 389.742 195.079C412.469 195.203 429.785 195.438 446.036 195.81C486.935 196.763 521.317 198.986 551.17 202.604L563.459 204.192L576.272 206.042L589.045 208.044L601.803 210.212C618.676 213.181 635.729 216.633 652.506 220.444C686.152 228.098 719.389 237.453 752.088 248.474C768.092 253.859 784.44 259.893 800.651 266.424C815.591 272.403 830.945 279.169 847.598 287.136C877.678 301.354 906.581 317.938 934.035 336.734C947.162 345.756 959.826 355.434 971.979 365.73L976.453 369.541C977.392 370.356 978.289 371.171 979.214 371.999L980.802 373.38L985.138 377.288C986.049 378.116 986.919 378.958 987.789 379.814L989.308 381.195L993.45 385.186C994.348 386.028 995.204 386.898 996.046 387.754L997.524 389.245L1001.58 393.319C1002.45 394.188 1003.27 395.072 1004.08 395.956C1004.54 396.467 1005.01 396.964 1005.46 397.475C1026.91 420.313 1043.97 444.311 1056.19 468.779L1053.79 470.049Z" fill="#9FFFFF"/>
</g>
<g style="mix-blend-mode:soft-light" opacity="0.25">
<path d="M1226.25 623.055H1223.49L1223.66 606.83L1222.61 590.841C1222.4 587.109 1221.98 583.393 1221.34 579.712C1221.1 578.165 1220.87 576.619 1220.66 575.072L1219.5 567.285C1219.25 565.669 1218.85 563.971 1218.45 562.328C1218.23 561.402 1218.01 560.491 1217.81 559.566L1216.03 551.875C1215.84 551.074 1215.66 550.259 1215.47 549.445C1215.11 547.729 1214.65 546.037 1214.09 544.377L1209.34 529.189C1208.82 527.466 1208.2 525.774 1207.49 524.121C1207.17 523.348 1206.87 522.588 1206.56 521.815L1203.62 514.469C1203.26 513.627 1202.93 512.771 1202.58 511.915C1201.98 510.382 1201.36 508.794 1200.65 507.248L1197.14 500.054C1180.58 464.927 1154.57 430.324 1120.03 397.157C1090.4 368.837 1054.88 342.174 1014.47 317.928C976.781 295.577 937.47 276.09 896.864 259.631C857.257 243.466 816.8 229.467 775.672 217.696C735.222 206.099 694.205 196.577 652.782 189.169C632.25 185.482 611.358 182.265 590.647 179.725C579.352 178.344 569.051 177.198 559.178 176.286L554.47 175.886C550.838 175.555 547.069 175.223 543.354 174.975L539.447 174.698C535.539 174.409 531.493 174.119 527.503 173.911C483.138 171.274 438.663 171.357 400.995 171.771C386.672 171.937 372.362 172.144 358.066 172.393C330.906 172.807 302.835 173.249 275.385 173.262H274.183C224.323 173.262 187.346 171.799 154.4 168.526C136.38 166.816 118.464 164.148 100.729 160.532L88.7434 157.77C84.2972 156.652 80.8452 155.644 77.8351 154.594C71.781 152.662 66.0132 149.926 60.6857 146.461C58.5775 145.037 56.6769 143.327 55.0383 141.38L54.4445 140.676L53.0638 138.48C52.9671 138.218 52.8428 137.969 52.7324 137.707C52.3992 137.044 52.1621 136.338 52.0282 135.608C51.0616 131.659 52.401 127.434 55.9082 123.402C57.804 121.263 59.9611 119.37 62.3289 117.769C65.0994 115.834 68.0067 114.104 71.0278 112.591C74.1484 111.003 77.6556 109.429 81.4528 107.896C85.25 106.363 88.9781 105.038 93.1067 103.684C110.267 98.2261 127.804 94.0311 145.577 91.1331C150.575 90.277 155.09 89.5866 159.385 89.0067L163.9 88.4268L173.386 87.2945C181.671 86.328 190.632 85.4857 201.457 84.671C218.358 83.3869 236.681 82.5584 257.434 82.1165C265.719 81.937 274.542 81.8404 285.244 81.7852C294.094 81.7852 303.429 81.7852 312.97 81.7852C344.728 81.9785 376.776 83.0002 407.816 83.9944L423.433 84.4777C459.126 85.5961 497.139 86.6455 535.139 86.1346V88.8962C497.07 89.4071 459.03 88.3577 423.295 87.2393L407.664 86.7422C376.638 85.7618 344.562 84.74 312.901 84.5467C303.373 84.5467 294.039 84.5467 285.202 84.5467C274.515 84.5467 265.692 84.6986 257.434 84.8781C236.723 85.32 218.469 86.1485 201.609 87.4188C190.811 88.2334 181.933 89.0757 173.634 90.0285L164.19 91.1745C162.685 91.3678 161.193 91.5473 159.702 91.7545C155.449 92.3206 150.962 93.011 146.005 93.8533C128.36 96.7226 110.948 100.876 93.9075 106.28C89.848 107.661 85.9818 109.042 82.4193 110.423C78.8569 111.804 75.2807 113.46 72.2153 115.021C69.3106 116.467 66.5182 118.129 63.8615 119.992C61.6833 121.459 59.6978 123.194 57.9517 125.156C55.0245 128.525 53.8922 131.922 54.6793 134.973V135.153C54.7765 135.633 54.9391 136.097 55.1626 136.533C55.2917 136.799 55.407 137.071 55.5078 137.348L56.6124 139.06L57.0819 139.599C58.565 141.341 60.2738 142.878 62.1632 144.169C67.2772 147.481 72.813 150.091 78.6222 151.929C81.5632 152.965 84.9462 153.959 89.2819 155.05L101.226 157.811C118.85 161.417 136.656 164.072 154.566 165.765C187.415 169.037 224.309 170.487 274.073 170.487H275.274C302.683 170.487 330.768 170.031 357.914 169.617C372.21 169.387 386.524 169.18 400.857 168.996C438.566 168.582 483.111 168.499 527.544 171.136C531.549 171.343 535.608 171.647 539.544 171.923L543.424 172.213C547.165 172.448 550.949 172.793 554.608 173.111L559.303 173.525C569.217 174.436 579.545 175.555 590.867 176.963C611.579 179.559 632.609 182.735 653.196 186.435C694.693 193.864 735.783 203.404 776.307 215.018C817.542 226.824 858.104 240.859 897.817 257.063C938.549 273.576 977.985 293.123 1015.79 315.539C1056.39 339.91 1092.07 366.628 1121.84 395.155C1156.63 428.543 1182.77 463.435 1199.53 498.853L1203.04 506.047C1203.8 507.69 1204.42 509.319 1205.06 510.879L1206.08 513.406L1209.05 520.793C1209.34 521.567 1209.64 522.312 1209.94 523.058C1210.7 524.794 1211.35 526.574 1211.89 528.388L1216.61 543.452C1217.17 545.207 1217.63 546.991 1217.99 548.796C1218.16 549.583 1218.34 550.37 1218.55 551.171L1220.33 558.917C1220.54 559.828 1220.74 560.726 1220.96 561.679C1221.36 563.377 1221.78 565.117 1222.05 566.857L1223.21 574.686C1223.42 576.218 1223.66 577.751 1223.89 579.27C1224.54 583.048 1224.97 586.861 1225.17 590.689L1226.22 606.747L1226.25 623.055Z" fill="#9FFFFF"/>
</g>
<g style="mix-blend-mode:soft-light" opacity="0.25">
<path d="M1227.52 887.393L1225.22 885.86C1247.54 852.224 1267.22 821.654 1281.83 788.335C1282.28 787.443 1282.48 786.446 1282.41 785.449C1282.32 784.018 1282.61 782.588 1283.25 781.307C1298.04 750.363 1304.93 719.889 1310.73 683.671C1313.19 666.453 1313.64 647.577 1312.11 625.996C1309.47 586.45 1297.91 546.683 1277.74 507.786L1265.31 487.074C1235.93 439.506 1197.74 404.572 1157.89 370.039C1137.89 354.753 1117.97 341.525 1096.87 327.51L1086.23 320.441C1070.75 310.969 1055.41 302.919 1040.66 295.145C1031.74 290.464 1022.52 285.617 1013.21 280.453C998.587 273.135 983.633 266.908 969.162 260.887C961.927 257.863 954.429 254.743 947.07 251.512C892.749 230.041 837.435 212.173 767.76 193.588C708.386 178.744 646.127 168.223 571.909 160.449C499.901 153.835 427.699 156.182 357.887 158.474C311.382 159.993 263.303 161.567 215.79 160.463C190.507 159.192 165.501 156.803 139.018 154.263L131.451 153.545C125.831 152.841 120.888 151.791 116.111 150.783C111.333 149.775 106.445 148.726 101.046 148.022H100.839C99.4582 147.635 98.0774 147.262 96.6966 146.917C88.2462 144.666 80.2652 142.554 76.4404 134.877C75.5639 133.47 75.0308 131.878 74.8845 130.227C74.7381 128.577 74.9827 126.915 75.5982 125.377C78.0008 119.55 86.0093 114.662 99.3892 110.837C102.344 109.857 105.216 108.642 107.991 107.482C112.802 105.271 117.859 103.644 123.056 102.635C153.737 94.6265 181.96 91.7406 215.665 88.8272C271.808 85.7066 321.075 84.8091 366.337 86.0656C412.483 87.4464 460.231 88.8272 506.529 88.4268V91.1883C460.134 91.575 412.4 90.1804 366.227 88.8272C321.047 87.5707 271.864 88.4682 215.845 91.5888C182.306 94.516 154.193 97.3743 123.594 105.397C118.584 106.419 113.713 108.032 109.082 110.202C106.252 111.389 103.324 112.618 100.218 113.654C87.7905 117.202 80.21 121.676 78.125 126.619C77.6658 127.782 77.4914 129.039 77.6163 130.283C77.7412 131.527 78.1618 132.723 78.843 133.772C82.1569 140.386 89.2127 142.25 97.3732 144.418L101.391 145.509C106.914 146.213 111.844 147.262 116.58 148.27C121.316 149.278 126.246 150.328 131.644 151.032L139.17 151.75C165.626 154.29 190.604 156.679 215.776 157.936C263.178 159.027 311.216 157.466 357.68 155.947C427.589 153.655 499.901 151.294 572.075 157.936C646.444 165.682 708.773 176.217 768.354 191.075C838.153 209.688 893.564 227.583 948.036 249.068C955.437 252.299 962.907 255.419 970.129 258.43C984.641 264.477 999.636 270.719 1014.41 278.106C1023.73 283.284 1032.94 288.117 1041.85 292.797C1056.7 300.599 1072.07 308.663 1087.69 318.204L1098.38 325.315C1119.52 339.344 1139.48 352.599 1159.61 367.995C1199.66 402.722 1238.06 437.822 1267.65 485.735L1280.07 506.447C1300.61 545.868 1312.23 585.911 1314.9 625.871C1316.44 647.646 1315.99 666.715 1313.52 684.155C1307.68 720.635 1300.73 751.33 1285.78 782.591C1285.34 783.477 1285.15 784.464 1285.22 785.449C1285.3 786.853 1285.01 788.252 1284.38 789.509C1269.65 822.979 1249.92 853.633 1227.52 887.393Z" fill="#9FFFFF"/>
</g>
</g>
<path d="M1434.54 673.477L1433.02 673.187C1437.88 647.25 1439.83 620.852 1438.84 594.482C1438.48 587.426 1437.87 580.357 1437.26 573.77L1433.12 548.101L1431.96 543.02L1429.57 532.885L1428.83 529.778C1428.29 527.528 1427.74 525.194 1427.11 522.874L1423.83 512.864L1418.8 498.089C1418.44 497.054 1417.99 495.963 1417.55 494.913L1416.86 493.229L1408.78 473.898C1407.81 471.675 1406.62 469.383 1405.46 467.173C1404.99 466.262 1404.53 465.351 1404.08 464.412L1399.2 455.05C1396.6 449.831 1393.41 444.556 1390.32 439.461L1388.66 436.699L1386.22 432.681C1383.45 428.152 1380.69 423.471 1377.32 418.873L1371.14 410.064C1369.76 408.103 1368.21 406.115 1366.75 404.196L1364.66 401.434L1362.87 399.087C1361.29 397.043 1359.73 394.944 1358.13 392.956L1351.23 384.671C1350.45 383.76 1349.71 382.849 1348.95 381.91C1347.48 380.128 1345.97 378.278 1344.35 376.511L1333.48 364.581C1332.68 363.725 1331.85 362.869 1331.03 362.012L1322.3 353.051C1320.28 350.939 1318.16 348.84 1316 346.796L1307.06 338.194C1302.77 334.245 1298.33 330.31 1294.03 326.485L1291.19 323.972L1286.72 320.175C1282.88 316.93 1278.93 313.588 1274.97 310.357C1264.65 301.976 1253.37 293.401 1241.44 284.854L1239.81 283.694C1234.8 280.118 1229.62 276.431 1224.32 272.924L1215.66 267.152L1206.89 261.532C1184.28 247.145 1160.42 233.433 1135.99 220.772C1113.48 209.159 1089.42 197.878 1064.45 187.232C1040.45 177.042 1016.68 167.722 993.754 159.534C972.048 151.76 949.32 144.345 924.245 136.668C913.199 133.34 902.042 130.081 889.974 126.698L881.427 124.323L864.319 119.753L855.758 117.571C832.823 111.758 809.847 106.525 787.464 101.927C741.898 92.6757 695.724 85.6061 650.034 80.9252C645.643 80.4419 640.783 80.0139 636.102 79.5444L632.139 79.1992C627.79 78.785 623.412 78.4812 619.173 78.1774L614.092 77.8184C603.046 77.059 591.364 76.4376 578.564 75.9405C557.286 75.1397 534.904 74.8083 510.119 74.9326L493.549 75.0845L477.173 75.3468L461.004 75.7334L445.014 76.1753L382.796 78.136C363.465 78.7297 342.753 79.3235 322.732 79.6272C300.501 80.0139 282.399 80.0277 265.76 79.6272C225.607 78.8402 193.504 75.9958 167.628 70.9283L160.724 69.5475L158.804 69.0918C158.017 68.9123 157.299 68.719 156.568 68.5257L155.118 68.1391L153.737 67.711C153.019 67.5039 152.356 67.2968 151.707 67.0759C149.831 66.463 147.987 65.7532 146.184 64.9495L145.908 64.839L144.969 64.3695C144.491 64.1499 144.03 63.8961 143.588 63.6101L143.202 63.403C142.969 63.2861 142.743 63.1571 142.525 63.0163L141.683 62.464C140.657 61.8088 139.728 61.0141 138.921 60.1029C138.695 59.8907 138.503 59.6436 138.355 59.3711C138.295 59.2565 138.22 59.1499 138.134 59.0535L138.01 58.9292V58.7773C137.969 58.6338 137.914 58.495 137.844 58.3631L137.609 57.8246V57.576C137.609 57.3413 137.499 57.2308 137.471 57.1066V56.9961V56.8718C137.485 56.7433 137.485 56.6137 137.471 56.4852C137.414 56.2821 137.414 56.067 137.471 55.8639L137.568 55.2701L137.678 54.9802C138.002 53.9945 138.556 53.1 139.294 52.3705C140.311 51.2937 141.445 50.3349 142.677 49.5122C144.457 48.3628 146.301 47.3163 148.2 46.3778C153.518 43.8416 159.003 41.6733 164.618 39.8881C178.951 35.446 193.583 32.0314 208.402 29.6703L216.77 28.2895C218.082 28.0962 219.393 27.8891 220.719 27.7096L227.098 26.8535C228.479 26.6602 229.86 26.4945 231.241 26.3426L233.588 26.0526C236.557 25.6798 239.567 25.3622 242.605 25.0308L246.636 24.6028L250.061 24.2714C253.32 23.9538 256.592 23.6362 259.92 23.3739C263.247 23.1115 266.52 22.8354 269.848 22.5868L277.124 22.0898C280.383 21.8826 283.655 21.6617 286.942 21.496C295.047 21.0404 303.801 20.6399 314.488 20.2809C324.154 19.9357 334.054 19.7148 342.449 19.5353C347.144 19.434 351.853 19.3512 356.575 19.2868L365.509 19.1763H370.562C391.108 18.9968 411.448 19.1763 426.871 19.2591C449.889 19.4248 478.554 18.8173 506.28 18.2373C524.382 17.8507 541.49 17.4779 556.693 17.3398V18.8863C541.504 19.0244 524.382 19.3972 506.28 19.7838C478.554 20.3638 449.889 20.9713 426.829 20.8194C411.406 20.6813 391.081 20.5433 370.549 20.7228H365.495L356.575 20.8332C351.853 20.8977 347.149 20.9805 342.463 21.0818C334.068 21.2613 324.182 21.4822 314.516 21.8274C303.843 22.1864 295.102 22.5868 286.997 23.0425C283.711 23.2082 280.452 23.4291 277.207 23.6362L269.93 24.1333C266.617 24.3819 263.289 24.6166 260.016 24.9204C256.744 25.2241 253.444 25.5003 250.185 25.8041L246.761 26.1355L242.729 26.5773C239.719 26.8949 236.709 27.2125 233.754 27.5991L231.393 27.8753C230.012 28.041 228.631 28.1928 227.25 28.3862L220.83 29.3113C219.518 29.4908 218.206 29.6979 216.894 29.8912L208.61 31.1892C193.849 33.652 179.282 37.1588 165.018 41.6832C159.475 43.4427 154.059 45.5786 148.808 48.0762C146.972 48.9899 145.188 50.004 143.464 51.114C142.328 51.8735 141.282 52.7581 140.343 53.7513C139.75 54.319 139.309 55.0263 139.059 55.8086L138.949 56.2229C138.962 56.3514 138.962 56.481 138.949 56.6095C138.949 56.6095 138.949 56.6095 138.949 56.5266C138.968 56.7564 138.968 56.9873 138.949 57.217C139.006 57.3535 139.044 57.4977 139.059 57.6451L139.142 57.8798C139.237 58.0593 139.312 58.2493 139.363 58.4459C139.481 58.5936 139.587 58.7506 139.681 58.9154C139.767 59.0629 139.874 59.1977 139.998 59.3158L140.109 59.4401C140.822 60.2366 141.639 60.9333 142.539 61.5113C142.801 61.677 143.119 61.8703 143.409 62.0774L143.92 62.3674L144.403 62.6297C144.82 62.8832 145.254 63.1092 145.701 63.3063C146.018 63.4582 146.35 63.6101 146.64 63.7758L146.861 63.8586C148.631 64.6491 150.443 65.3451 152.287 65.9436C152.908 66.1646 153.571 66.3579 154.248 66.565L155.629 66.9792L157.009 67.3658C157.7 67.5453 158.39 67.7387 159.177 67.9043L165.363 69.2851L167.987 69.7684C193.78 74.8221 225.8 77.6527 265.857 78.4398C282.427 78.785 300.556 78.7712 322.773 78.4398C342.781 78.136 363.451 77.5423 382.81 76.9485L445.042 74.9878L461.032 74.5459L477.215 74.1593L493.591 73.897L510.16 73.7451C535.014 73.6208 557.383 73.9522 578.675 74.7531C591.489 75.2501 603.129 75.8715 614.258 76.6309L619.339 76.9899C623.578 77.2937 627.983 77.5975 632.346 78.0117L636.295 78.3707C640.99 78.7712 645.85 79.1992 650.255 79.7515C695.987 84.4462 742.271 91.5159 787.837 100.781C810.233 105.351 833.237 110.626 856.186 116.453L864.761 118.635L881.896 123.205L890.443 125.58C902.525 128.963 913.751 132.222 924.756 135.549C949.845 143.185 972.6 150.669 994.334 158.457C1017.28 166.645 1041.09 175.979 1065.11 186.183C1090.11 196.842 1114.21 208.137 1136.76 219.777C1161.23 232.453 1185.09 246.192 1207.78 260.607L1216.57 266.227L1225.23 272.013C1230.55 275.52 1235.74 279.22 1240.76 282.797L1242.39 283.97C1254.35 292.531 1265.66 301.133 1275.99 309.529C1279.96 312.76 1283.94 316.129 1287.77 319.374L1292.25 323.171L1295.11 325.712C1299.42 329.522 1303.87 333.472 1308.17 337.434L1317.13 346.064C1319.25 348.108 1321.44 350.207 1323.47 352.347L1332.19 361.308C1333.03 362.164 1333.87 363.034 1334.68 363.904L1345.54 375.834C1347.19 377.643 1348.73 379.493 1350.2 381.357C1350.95 382.269 1351.7 383.18 1352.47 384.119L1359.37 392.404C1360.99 394.447 1362.56 396.546 1364.14 398.562L1365.93 400.909L1368.02 403.671C1369.49 405.604 1371.03 407.592 1372.45 409.581L1378.64 418.39C1381.98 423.057 1384.84 427.752 1387.58 432.308C1388.4 433.689 1389.2 434.973 1390.03 436.313L1391.67 439.074C1394.79 444.197 1398.01 449.499 1400.62 454.76L1405.49 464.122L1406.87 466.883C1408.03 469.12 1409.25 471.44 1410.23 473.787L1418.32 493.118C1418.54 493.685 1418.77 494.237 1419.01 494.803C1419.45 495.866 1419.92 496.985 1420.29 498.076L1425.32 512.864L1428.62 522.902C1429.27 525.263 1429.82 527.611 1430.36 529.875L1431.11 532.982L1434.67 548.267L1435.51 553.376L1438.76 574.088C1439.38 580.729 1439.98 587.813 1440.34 594.91C1441.31 621.233 1439.37 647.582 1434.54 673.477Z" fill="#9FFFFF"/>
<path d="M1428.05 671.932C1427.84 673.061 1427.96 674.228 1428.4 675.288C1428.84 676.348 1429.59 677.254 1430.55 677.891C1431.5 678.527 1432.63 678.867 1433.78 678.867C1434.92 678.867 1436.05 678.527 1437 677.89C1437.96 677.253 1438.71 676.347 1439.15 675.287C1439.59 674.226 1439.71 673.059 1439.5 671.931C1439.28 670.802 1438.73 669.764 1437.92 668.946C1437.11 668.129 1436.08 667.568 1434.96 667.334C1434.2 667.178 1433.42 667.173 1432.67 667.319C1431.91 667.466 1431.19 667.762 1430.54 668.19C1429.9 668.618 1429.35 669.169 1428.92 669.811C1428.5 670.454 1428.2 671.175 1428.05 671.932Z" fill="#9FFFFF"/>
<path d="M1341.31 621.908L1339.78 621.659C1343.54 599.176 1344.88 576.355 1343.77 553.586L1341.45 531.121L1339.06 517.824L1337.42 509.056C1336.96 507.151 1336.42 505.19 1335.89 503.243L1335.13 500.302L1332.68 491.396C1331.95 488.634 1331.19 485.873 1330.14 483.111L1324.08 466.224C1322.6 462.496 1320.86 458.685 1319.19 454.998C1318.38 453.217 1317.58 451.436 1316.79 449.682C1314.86 445.07 1312.34 440.417 1309.89 435.874L1308.6 433.499L1306.5 429.605C1304.43 425.712 1302.36 421.693 1299.74 417.744C1286.82 396.84 1272 377.177 1255.46 359.006C1238.86 340.724 1220.95 323.677 1201.88 307.999C1200.5 306.839 1199.01 305.666 1197.57 304.506C1194.31 301.827 1190.94 299.066 1187.45 296.428L1185.7 295.047C1181.56 291.803 1177.18 288.461 1172.73 285.271L1165.28 279.845L1157.68 274.57C1156.81 273.977 1155.94 273.383 1155.09 272.775C1153.44 271.643 1151.8 270.497 1150.11 269.379L1142.41 264.297C1122.25 251.097 1101.1 238.628 1079.54 227.209C1059.15 216.398 1037.43 205.931 1015.02 196.086C972.754 177.634 929.475 161.6 885.39 148.062C842.792 134.821 799.228 123.622 755.913 114.785C734.276 110.381 712.322 106.501 690.657 103.214L682.469 101.985L677.139 101.226L666.093 99.7072L655.046 98.3264C653.265 98.0916 651.498 97.8707 649.703 97.6636L641.418 96.7247C637.193 96.2276 632.678 95.7857 628.328 95.3439L624.628 94.9849C603.405 92.9689 581.423 91.6019 557.438 90.8425C537.389 90.1659 515.89 89.8897 491.727 90.0002C469.869 90.0969 448.025 90.5387 427.534 90.9806L411.075 91.3534C395.803 91.6986 380.021 92.0576 364.556 92.3476C340.668 92.8032 321.047 92.9965 302.807 92.9689C280.714 92.9689 261.273 92.4856 243.295 91.5881C222.735 90.6078 204.633 89.1027 188.063 87.0039L184.791 86.6035C184.087 86.5206 183.41 86.4102 182.734 86.3135L175.277 85.2089C172.253 84.8084 169.381 84.2837 166.606 83.8281L163.002 83.1791C159.909 82.6682 156.996 82.0469 154.179 81.4255L151.307 80.8042L146.999 79.8928L146.156 79.6857L140.84 78.3049C139.819 78.0426 138.88 77.7388 137.941 77.435L136.242 76.9103L134.585 76.3304C133.702 76.0266 132.777 75.709 131.962 75.35C129.452 74.3868 127.008 73.2614 124.644 71.9809C120.018 69.3574 117.008 66.6787 115.682 63.9999C115.41 63.5737 115.205 63.1079 115.075 62.6191C115.016 62.3981 114.942 62.1813 114.854 61.9702V61.7493L114.509 60.1061L114.716 58.3249L115.02 57.2479C115.082 56.97 115.189 56.7041 115.337 56.4608C115.394 56.3531 115.444 56.2424 115.489 56.1294L115.738 55.5633L116.152 54.9144C116.501 54.318 116.903 53.7543 117.353 53.2298L117.754 52.7327L118.265 52.208C118.821 51.6004 119.411 51.0241 120.032 50.482C121.964 48.8737 124.028 47.4325 126.204 46.174C131.977 42.9415 138.025 40.2291 144.279 38.0687C147.413 36.9088 151.017 35.7214 155.325 34.4234C158.956 33.305 162.961 32.2004 167.186 31.1095C175.001 29.0798 183.479 27.2157 192.413 25.5864C196.79 24.7717 201.153 24.0261 205.379 23.3771L214.519 22.093L218.786 21.5269C226.988 20.4913 235.701 19.5661 246.222 18.6134C255.308 17.8402 264.642 17.2326 273.99 16.6389C283.849 16.1142 292.99 15.7275 301.937 15.4514C312.058 15.1614 321.268 14.9543 329.995 14.8438C339.867 14.7196 349.091 14.6505 358.163 14.6367H372.192C375.202 14.6367 378.212 14.6367 381.222 14.6367H386.207C404.64 14.8024 423.488 15.2167 441.645 15.6033L458.381 15.9761C490.456 16.7079 523.623 17.4673 556.582 17.3569V18.9034C523.595 19.0552 490.429 18.2958 458.339 17.5226L441.618 17.1497C423.433 16.7631 404.613 16.3489 386.193 16.1832H381.208C378.198 16.1832 375.188 16.1832 372.192 16.1832H358.191C349.119 16.1832 339.909 16.2661 330.036 16.3903C321.296 16.5008 312.086 16.7079 302.006 16.9979C293.086 17.274 283.945 17.6606 274.1 18.1853C264.78 18.7239 255.446 19.3728 246.388 20.1461C235.894 21.0988 227.181 22.0239 219.007 23.0595L214.754 23.6257L205.641 24.9098C201.429 25.5588 197.08 26.2906 192.717 27.1053C183.824 28.776 175.374 30.6539 167.6 32.6284C163.458 33.7192 159.426 34.8239 155.808 35.9285C151.555 37.2264 147.965 38.4001 144.859 39.5462C138.693 41.6813 132.728 44.3566 127.033 47.5409C124.93 48.7429 122.939 50.1291 121.081 51.6833C120.478 52.1865 119.907 52.726 119.369 53.2988L118.568 54.2101C118.16 54.6831 117.795 55.1914 117.477 55.729L117.105 56.3089L116.925 56.7232C116.866 56.8792 116.796 57.0314 116.718 57.1788C116.633 57.3048 116.573 57.4452 116.539 57.5931L116.221 58.6977L116.083 60.0785L116.249 61.4593C116.331 61.694 116.4 61.915 116.47 62.1497C116.563 62.5373 116.722 62.9061 116.939 63.2405C118.182 65.7397 120.971 68.1975 125.293 70.6553C127.606 71.9076 130 73.0054 132.459 73.9416C133.26 74.2868 134.144 74.5906 135.014 74.8944C135.566 75.0877 136.118 75.2672 136.657 75.4743L138.327 75.9852C139.239 76.289 140.15 76.5789 141.158 76.8413L143.547 77.5041L146.46 78.2221L147.233 78.4016L151.542 79.3267L154.427 79.9481C157.189 80.5556 160.116 81.177 163.182 81.674L166.799 82.323C169.561 82.8339 172.419 83.3448 175.402 83.7038L182.885 84.8084C183.548 84.9051 184.266 85.0156 184.901 85.0984L188.174 85.485C204.743 87.5976 222.804 89.0889 243.405 90.0693C261.356 90.9253 280.797 91.3672 302.779 91.45C321.02 91.45 340.627 91.2981 364.487 90.8425C379.952 90.5525 395.748 90.1935 411.02 89.8483L427.465 89.4755C447.969 89.0337 469.827 88.5918 491.699 88.4952C515.877 88.3847 537.389 88.6609 557.466 89.3374C581.478 90.1383 603.488 91.5191 624.752 93.4798L628.452 93.8388C632.816 94.253 637.331 94.6949 641.57 95.2196L649.855 96.1585C651.65 96.3656 653.431 96.5866 655.212 96.8213L666.328 98.2021L677.374 99.721L682.717 100.48L690.906 101.709C712.612 104.996 734.594 108.889 756.245 113.294C799.615 122.145 843.234 133.357 885.887 146.613C930.027 160.168 973.362 176.22 1015.68 194.692C1038.13 204.551 1059.87 215.045 1080.32 225.87C1101.91 237.303 1123.12 249.813 1143.29 263.027L1151 268.108C1152.71 269.24 1154.35 270.387 1156.01 271.533L1158.59 273.328L1166.21 278.616L1173.67 284.043C1178.14 287.246 1182.48 290.601 1186.68 293.846L1188.43 295.227C1191.94 297.878 1195.34 300.653 1198.59 303.332L1202.9 306.839C1222.04 322.56 1240 339.659 1256.64 357.998C1273.24 376.234 1288.12 395.967 1301.09 416.944C1303.66 420.934 1305.83 424.98 1307.91 428.901C1308.6 430.199 1309.29 431.497 1310.01 432.795L1311.28 435.17C1313.72 439.713 1316.25 444.408 1318.18 449.061C1318.96 450.814 1319.76 452.582 1320.57 454.349C1322.26 458.05 1324 461.888 1325.5 465.672L1331.55 482.628C1332.56 485.384 1333.42 488.191 1334.13 491.037L1336.58 499.929L1337.36 502.842C1337.9 504.803 1338.44 506.764 1338.92 508.738L1342.97 530.914L1343.45 535.401L1345.29 553.462C1346.41 576.354 1345.08 599.3 1341.31 621.908Z" fill="#9FFFFF"/>
<path d="M1334.74 620.609C1334.57 621.745 1334.74 622.906 1335.23 623.946C1335.72 624.985 1336.51 625.856 1337.49 626.448C1338.48 627.04 1339.61 627.328 1340.76 627.274C1341.91 627.22 1343.01 626.828 1343.94 626.146C1344.86 625.464 1345.57 624.523 1345.96 623.443C1346.35 622.362 1346.41 621.19 1346.13 620.075C1345.86 618.96 1345.26 617.951 1344.41 617.176C1343.56 616.401 1342.5 615.895 1341.37 615.721C1340.61 615.605 1339.84 615.64 1339.1 615.824C1338.35 616.007 1337.65 616.335 1337.04 616.789C1336.42 617.243 1335.9 617.814 1335.51 618.47C1335.11 619.125 1334.85 619.852 1334.74 620.609Z" fill="#9FFFFF"/>
<path d="M1088.08 508.131L1086.69 508.02C1086.81 506.639 1086.93 505.258 1087.04 503.878C1087.52 499.407 1087.76 494.912 1087.74 490.415C1087.74 489.669 1087.74 488.965 1087.74 488.261C1087.9 485.361 1087.84 482.454 1087.58 479.562L1086.97 468.833C1085.94 454.818 1082.65 441.01 1079.24 428.169C1078.12 424.91 1077.03 421.624 1076.01 418.421C1075.72 417.432 1075.37 416.463 1074.96 415.521C1074.7 414.9 1074.45 414.278 1074.23 413.657L1072.49 408.962C1071.81 407.291 1071.11 405.607 1070.32 403.922C1069.68 402.542 1069.05 401.05 1068.45 399.614L1063.79 390.363C1057.19 377.727 1049.58 365.651 1041.02 354.255L1037.73 349.795C1037.06 348.912 1036.35 348.042 1035.61 347.158L1034.22 345.46C1033.55 344.645 1032.84 343.817 1032.26 343.002C1031.68 342.187 1031.28 341.732 1030.77 341.11L1027.1 336.816C1026.63 336.291 1026.17 335.753 1025.72 335.214C1025 334.344 1024.24 333.433 1023.43 332.577L1019.55 328.338C1018.07 326.653 1016.43 324.969 1014.84 323.339C1013.76 322.235 1012.67 321.116 1011.64 319.998C1000.66 308.722 988.976 298.165 976.646 288.392C949.989 267.404 921.382 249.02 891.216 233.492C874.495 224.779 858.671 217.226 842.889 210.432C825.601 203.031 808.452 196.334 791.924 190.549C757.383 178.407 722.181 168.237 686.487 160.089C668.536 155.946 650.393 152.343 632.636 149.319L627.458 148.449C624.696 147.993 621.935 147.524 619.077 147.068L605.683 145.066C597.136 143.823 588.382 142.732 579.655 141.807C548.422 138.466 511.693 136.546 464.055 135.759C443.136 135.373 421.472 135.193 400.539 135.027C377.369 134.848 356.354 134.668 334.261 134.323C322.828 134.144 311.409 133.895 300.335 133.591C289.524 133.288 278.243 132.873 266.05 132.321C240.74 131.147 218.275 129.559 197.397 127.364C173.261 124.865 151.182 121.606 131.796 117.699L129.131 117.174C127.447 116.842 125.707 116.511 124.05 116.111L114.108 113.777C112.437 113.377 110.767 112.99 109.123 112.562L94.998 108.599L92.1121 107.688L91.1456 107.384C89.8615 106.97 88.5773 106.556 87.3622 106.114C82.6643 104.478 78.0554 102.598 73.5543 100.48C69.5 98.5783 65.6031 96.3574 61.9005 93.8385C60.4384 92.8581 59.0281 91.8027 57.6753 90.6764L57.0401 90.1517C56.4602 89.6961 55.9631 89.199 55.4522 88.771L54.5961 87.9425C53.9837 87.3853 53.4116 86.7855 52.8839 86.1475L51.1579 84.0901C50.7463 83.5493 50.3638 82.9869 50.0119 82.4055L49.6667 81.8532C48.879 80.6391 48.2262 79.3427 47.7198 77.987L47.416 77.2552C47.1954 76.5704 47.011 75.8744 46.8637 75.1702L46.4356 73.6375C46.4356 73.2785 46.4356 72.9609 46.339 72.6572V72.2567C46.339 71.4144 46.339 70.586 46.339 69.7575C46.339 68.929 46.5737 67.9763 46.7256 67.134L46.9603 65.8637L47.416 64.4829C47.7336 63.613 48.0512 62.7431 48.4102 61.9008C49.2974 60.0886 50.3464 58.3602 51.5445 56.7366C54.3493 53.019 57.6581 49.7101 61.3758 46.9054C65.6533 43.6281 70.1877 40.7006 74.9351 38.1512C79.6022 35.6382 84.8492 33.1666 90.5243 30.8054C101.28 26.4563 112.292 22.7673 123.497 19.7591C133.909 16.8871 144.734 14.3602 156.636 12.0129C167.683 9.83122 178.563 8.0362 189.775 6.48971C192.537 6.10309 195.299 5.75789 198.184 5.4127L209.037 4.23903C210.805 4.05953 212.572 3.86621 214.34 3.71433L222.21 3.01012C233.684 2.07118 243.806 1.42222 253.14 1.02179C263.468 0.566126 273.52 0.248542 283.02 0.124271C286.527 0.0414239 289.924 0.0276158 293.431 0H301.716C305.14 0 308.551 0 311.906 0C320.122 0 328.807 0.165697 340.074 0.428047C349.74 0.635165 359.06 0.925133 367.69 1.20129L381.498 1.71218L395.306 2.29212C412.649 3.09297 430.392 4.04571 449.585 5.23319C455.909 5.61981 462.882 5.97882 470.297 6.36544C506.004 8.22951 550.382 10.5078 586.366 18.0883L586.076 19.4691C550.244 11.9438 505.879 9.63791 470.228 7.77385C462.785 7.38723 455.812 7.02822 449.516 6.6416C430.337 5.45412 412.58 4.50137 395.264 3.70052L381.457 3.12059L367.649 2.6097C359.06 2.33354 349.781 2.04357 340.033 1.83645C328.779 1.5741 320.108 1.44983 311.892 1.40841C308.537 1.40841 305.127 1.40841 301.73 1.40841H293.445C289.993 1.40841 286.541 1.40841 283.048 1.53268C273.562 1.65695 263.51 1.96072 253.195 2.43019C243.875 2.83062 233.781 3.47959 222.334 4.41853L214.464 5.10892L209.175 5.64743L198.35 6.8211C195.589 7.15249 192.73 7.49769 189.969 7.88431C178.812 9.38937 168 11.1844 156.926 13.4075C145.121 15.741 134.323 18.2679 123.939 21.1399C112.788 24.1479 101.832 27.837 91.1318 32.1862C85.512 34.5336 80.3064 36.9776 75.6669 39.4768C70.9889 41.9929 66.5193 44.8787 62.3009 48.1067C58.6802 50.8393 55.4594 54.0648 52.732 57.6894C51.5551 59.198 50.511 60.8057 49.6115 62.4945C49.2939 63.2816 48.9763 64.1101 48.6863 64.9385L48.2583 66.2089L48.0374 67.3687C47.8993 68.1834 47.7612 69.0119 47.6645 69.8265C47.5679 70.6412 47.6645 71.3592 47.7336 72.1601V72.5053C47.7423 72.7778 47.7653 73.0498 47.8026 73.3199L48.134 74.8388C48.2859 75.474 48.4378 76.1367 48.6449 76.7581L48.9349 77.4485C49.4118 78.7178 50.0179 79.9346 50.7437 81.08L51.1165 81.6461C51.439 82.184 51.7893 82.7048 52.1659 83.2064L53.8781 85.2638C54.3758 85.8543 54.9108 86.4124 55.4798 86.9345L56.3359 87.763C56.8192 88.2187 57.3025 88.6881 57.841 89.1438L58.4761 89.6547C59.8012 90.7583 61.1839 91.7907 62.6185 92.7476C66.2664 95.2257 70.1029 97.4141 74.0928 99.2926C78.5568 101.377 83.1291 103.221 87.7903 104.816C89.0054 105.271 90.2619 105.672 91.546 106.086L92.4988 106.39L95.357 107.287L109.455 111.236C111.07 111.664 112.727 112.051 114.398 112.438L124.34 114.771C125.969 115.172 127.695 115.503 129.366 115.834L132.045 116.359C151.376 120.294 173.468 123.553 197.508 126.025C218.372 128.179 240.796 129.794 266.092 130.968C278.339 131.52 289.565 131.934 300.349 132.238C311.395 132.542 322.828 132.791 334.261 132.97C356.354 133.315 377.3 133.495 400.47 133.674C421.43 133.84 443.095 134.019 463.986 134.406C511.679 135.193 548.449 137.168 579.71 140.468C588.464 141.393 597.232 142.484 605.793 143.726L612.407 144.693L619.201 145.729C621.962 146.157 624.807 146.626 627.596 147.109L632.788 147.965C650.6 151.003 668.688 154.635 686.735 158.749C722.481 166.91 757.734 177.093 792.324 189.251C808.894 195.064 826.071 201.761 843.414 209.176C859.265 215.983 875.172 223.55 891.865 232.276C922.095 247.849 950.763 266.284 977.474 287.329C989.858 297.144 1001.59 307.752 1012.6 319.087C1013.65 320.205 1014.73 321.324 1015.8 322.428C1017.41 324.071 1019.05 325.756 1020.54 327.468L1024.41 331.679C1025.25 332.563 1026.01 333.474 1026.75 334.358C1027.2 334.897 1027.65 335.435 1028.14 335.96L1031.84 340.268C1032.36 340.917 1032.86 341.552 1033.35 342.187C1033.85 342.822 1034.63 343.817 1035.3 344.617C1035.76 345.197 1036.21 345.75 1036.68 346.316C1037.41 347.213 1038.16 348.097 1038.85 349.008L1042.15 353.413C1050.78 364.905 1058.45 377.088 1065.09 389.838L1069.78 399.131C1070.39 400.608 1071.02 402.031 1071.66 403.467C1072.4 405.165 1073.15 406.863 1073.84 408.562L1075.59 413.284C1075.8 413.892 1076.05 414.485 1076.3 415.079C1076.73 416.07 1077.1 417.089 1077.4 418.131C1078.41 421.293 1079.5 424.579 1080.63 427.865C1084.07 440.817 1087.37 454.694 1088.42 468.833L1089.03 479.534C1089.29 482.482 1089.35 485.444 1089.19 488.399C1089.19 489.103 1089.19 489.78 1089.19 490.512C1089.21 495.05 1088.98 499.587 1088.49 504.099C1088.31 505.397 1088.19 506.764 1088.08 508.131Z" fill="#9FFFFF"/>
<path d="M1082.3 507.425C1082.22 508.451 1082.45 509.478 1082.96 510.374C1083.46 511.271 1084.22 511.998 1085.14 512.462C1086.06 512.926 1087.09 513.106 1088.12 512.98C1089.14 512.854 1090.1 512.427 1090.88 511.754C1091.66 511.081 1092.22 510.191 1092.49 509.199C1092.76 508.206 1092.73 507.155 1092.4 506.179C1092.08 505.203 1091.47 504.346 1090.65 503.717C1089.84 503.089 1088.85 502.716 1087.83 502.647C1086.46 502.552 1085.12 503.001 1084.08 503.897C1083.05 504.792 1082.41 506.06 1082.3 507.425Z" fill="#9FFFFF"/>
<path d="M1159.96 749.754L1157.64 748.166C1173.03 725.756 1186.82 702.289 1198.91 677.939C1210.93 653.866 1220.48 628.639 1227.43 602.644C1233.65 579.217 1236.83 555.084 1236.88 530.843C1236.69 507.98 1233.32 485.256 1226.86 463.323C1226.57 462.342 1226.29 461.362 1226.02 460.395C1225.55 458.711 1225.06 456.957 1224.48 455.273L1218.63 439.311C1217.99 437.695 1217.25 435.997 1216.46 434.367C1216.02 433.415 1215.59 432.476 1215.18 431.606C1214.43 430.032 1213.71 428.416 1213.01 426.828C1211.39 423.211 1209.86 419.786 1207.91 416.321L1203.91 408.74L1199.55 401.353C1187.48 381.461 1173.43 362.836 1157.63 345.762C1127.73 313.065 1090.24 282.591 1046.22 255.169C1026.89 243.142 1005.44 231.198 982.349 219.696C961.361 209.326 938.923 199.316 915.67 189.94C893.578 181.089 870.56 172.777 847.459 165.224C824.359 157.671 801.065 150.919 778.42 145.051C754.947 139.017 731.473 133.687 708.593 129.227C684.72 124.601 660.97 120.721 638.008 117.683L620.264 115.502L611.4 114.508C609.508 114.3 607.589 114.135 605.669 113.955L602.494 113.651L599.304 113.362C597.412 113.182 595.507 112.989 593.601 112.851L575.651 111.47L566.648 110.904C545.094 109.675 522.021 108.984 494.019 108.722C469.026 108.501 444.007 108.722 420.506 108.971L408.493 109.095C388.14 109.316 367.069 109.537 346.357 109.62C317.278 109.716 293.721 109.454 272.236 108.805C245.27 107.976 221.727 106.54 200.27 104.386C178.412 102.373 156.71 98.9275 135.303 94.0719C119.535 90.6337 98.892 84.2821 90.2483 73.5534C88.2998 71.3838 87.0653 68.6676 86.7121 65.7729C86.3589 62.8783 86.9041 59.945 88.2738 57.3705C90.9111 52.2064 96.7933 46.9732 105.285 42.1818C114.139 37.4251 123.428 33.5273 133.025 30.5418C142.691 27.4074 153.35 24.5215 164.783 21.9809C175.678 19.5645 186.876 17.5071 198.074 15.864C208.361 14.3589 219.076 13.1024 231.807 11.9701C242.549 10.9898 253.803 10.2027 265.263 9.609C275.868 9.0843 286.679 8.71148 298.319 8.46294C320.895 7.97967 342.919 8.13156 363.355 8.3801C382.037 8.61483 401.892 9.12572 427.755 10.0232C437.88 10.3822 448.006 10.7597 458.132 11.1555C490.36 12.3844 523.678 13.6547 556.789 14.0413V16.8029C523.651 16.4163 490.291 15.146 458.049 13.9171L427.672 12.7848C401.837 11.8873 382.009 11.404 363.355 11.1417C342.947 10.9069 320.951 10.7551 298.458 11.2245C286.845 11.4731 276.061 11.8459 265.484 12.3706C254.065 12.9643 242.853 13.7514 232.152 14.7179C219.463 15.8778 208.789 17.1067 198.571 18.5979C187.428 20.2273 176.299 22.2846 165.432 24.6872C154.096 27.2003 143.492 30.0585 133.936 33.1653C124.514 36.1105 115.396 39.9528 106.707 44.6396C98.6987 49.1134 93.2032 53.9461 90.8282 58.5994C89.6939 60.6855 89.2397 63.074 89.5294 65.4309C89.8191 67.7877 90.838 69.9952 92.4438 71.7445C98.8782 79.7531 113.915 86.519 135.939 91.3103C157.232 96.1386 178.818 99.5657 200.56 101.57C221.962 103.71 245.435 105.146 272.361 105.974C293.818 106.623 317.333 106.886 346.385 106.775C367.097 106.706 388.154 106.485 408.52 106.264L420.533 106.14C444.007 105.891 469.096 105.671 494.102 105.891C522.145 106.154 545.26 106.844 566.869 108.087L584.889 109.274L593.864 109.965C595.797 110.117 597.716 110.296 599.635 110.489L602.811 110.779L605.987 111.083C607.92 111.249 609.839 111.428 611.759 111.636L629.543 113.679L638.436 114.811C661.453 117.863 685.258 121.715 709.187 126.382C732.094 130.856 755.637 136.2 779.179 142.261C801.921 148.13 825.215 154.937 848.426 162.476C871.637 170.015 894.586 178.383 916.816 187.261C940.138 196.651 962.631 206.689 983.688 217.1C1006.86 228.644 1028.43 240.574 1047.8 252.711C1091.98 280.258 1129.72 310.911 1159.79 343.843C1175.73 361.062 1189.89 379.843 1202.06 399.903L1206.45 407.345L1210.47 414.954C1212.47 418.502 1214.09 422.134 1215.66 425.655C1216.36 427.229 1217.04 428.831 1217.83 430.418C1218.24 431.371 1218.67 432.296 1219.1 433.18C1219.89 434.851 1220.69 436.591 1221.35 438.316L1227.23 454.32C1227.84 456.115 1228.34 457.896 1228.82 459.622C1229.08 460.589 1229.36 461.541 1229.65 462.508C1236.18 484.692 1239.59 507.677 1239.8 530.802C1239.72 555.296 1236.49 579.679 1230.19 603.348C1223.19 629.531 1213.55 654.938 1201.44 679.181C1189.28 703.648 1175.42 727.231 1159.96 749.754Z" fill="#9FFFFF"/>
<path d="M1150.28 742.546C1149.1 744.269 1148.46 746.302 1148.44 748.389C1148.42 750.476 1149.02 752.523 1150.16 754.27C1151.3 756.018 1152.93 757.387 1154.85 758.205C1156.77 759.024 1158.89 759.254 1160.94 758.868C1162.99 758.481 1164.88 757.495 1166.37 756.034C1167.86 754.572 1168.89 752.702 1169.31 750.659C1169.74 748.616 1169.55 746.492 1168.77 744.557C1167.99 742.621 1166.66 740.96 1164.93 739.785C1162.62 738.214 1159.78 737.622 1157.04 738.14C1154.29 738.657 1151.86 740.242 1150.28 742.546Z" fill="#9FFFFF"/>
<path d="M1106.61 397.114C1093.54 372.889 1077.29 350.524 1058.28 330.616C1057.78 330.105 1057.31 329.58 1056.9 329.069C1056.1 328.199 1055.3 327.329 1054.44 326.473L1050.3 322.331L1048.79 320.812C1047.96 319.956 1047.12 319.114 1046.22 318.271L1042 314.24L1040.45 312.748C1039.58 311.906 1038.73 311.077 1037.83 310.263L1033.47 306.328L1031.86 304.878C1030.97 304.049 1030.08 303.235 1029.1 302.434L1024.68 298.706C1012.47 288.377 999.756 278.667 986.574 269.612C958.981 250.712 929.925 234.044 899.681 219.766C882.918 211.771 867.467 204.964 852.444 198.957C836.123 192.371 819.678 186.296 803.564 180.869C770.653 169.777 737.199 160.366 703.333 152.673C686.445 148.821 669.268 145.355 652.243 142.373L639.402 140.191L626.533 138.175L613.65 136.311L601.223 134.709C571.191 131.078 536.575 128.841 495.399 127.805C479.092 127.419 461.584 127.198 438.635 127.06C427.092 127.004 415.415 126.968 403.605 126.949H379.758C340.254 126.77 299.41 126.59 258.249 124.588C236.018 123.497 216.121 122.047 197.411 120.142C176.92 118.085 157.493 115.282 139.68 111.857L137.333 111.402C135.814 111.125 134.309 110.835 132.846 110.504L119.659 107.535C118.209 107.19 116.828 106.817 115.434 106.444L113.321 105.878L104.001 103.338L100.687 102.316C99.0301 101.833 97.456 101.28 95.9371 100.756L94.3077 100.176C92.3608 99.4715 90.5106 98.7949 88.3289 97.8698C81.3784 95.0255 74.8545 91.2339 68.9426 86.6025C63.4195 82.0459 60.078 77.1165 59.0286 71.9523C58.9168 71.4672 58.8521 70.9725 58.8353 70.4749V69.8812C58.8353 69.6326 58.8353 69.4393 58.8353 69.2322C58.78 68.7182 58.78 68.1997 58.8353 67.6857C58.8353 67.4096 58.9181 67.1334 58.9457 66.8572C59.0329 65.6788 59.2791 64.5177 59.6775 63.4053L60.3818 61.3617L61.4726 59.2215C61.8508 58.4692 62.2895 57.7488 62.7843 57.0674L63.1848 56.5151C63.5303 55.9849 63.9036 55.4733 64.3032 54.9824C66.7819 51.9981 69.5887 49.3024 72.6708 46.9463C76.2363 44.274 79.9826 41.8518 83.8828 39.6971C88.0252 37.4464 92.3746 35.3338 96.7932 33.4421C101.709 31.3571 106.21 29.6173 110.601 28.1123C115.406 26.4277 120.17 24.9088 124.74 23.5695C129.311 22.2301 133.867 20.9736 139.045 19.6757C148.172 17.3835 157.589 15.3262 167.849 13.4207C177.79 11.5704 187.332 10.0654 197.025 8.80884C199.455 8.49126 202.023 8.18749 204.384 7.91133L211.468 7.1519C213.428 6.93097 215.389 6.75147 217.336 6.55816L220.912 6.22677L225.538 5.81253L229.584 5.48114C232.829 5.21879 236.184 4.95644 239.456 4.74933L241.541 4.59744L246.112 4.30747L253.016 3.94846C255.294 3.81039 257.558 3.71373 259.823 3.63088L266.589 3.34092L271.132 3.20284C274.1 3.10619 277.069 2.99572 280.01 2.9543L293.252 2.70576C296.193 2.70576 299.093 2.70576 301.992 2.63672H306.356C322.014 2.63672 338.279 2.81622 357.528 3.28569H357.776C361.919 3.38234 365.992 3.479 370.203 3.61708L373.931 3.72754C376.914 3.81039 379.91 3.90705 382.865 4.01751C391.73 4.32128 400.539 4.69409 407.982 5.01167C424.289 5.71588 440.154 6.57196 457.69 7.52471C465.671 7.95275 474.177 8.25653 483.179 8.5603C511.223 9.55447 542.995 10.6591 569.81 16.3756L569.479 17.8944C542.774 12.1918 511.071 11.0733 483.097 10.1206C474.08 9.81682 465.574 9.51305 457.58 9.085C440.016 8.13226 424.151 7.27617 407.871 6.57197C400.429 6.25439 391.619 5.88157 382.755 5.5778C379.814 5.46733 376.831 5.37068 373.849 5.28783L370.12 5.17737C365.978 5.03929 361.836 4.94264 357.693 4.84598H357.528C338.293 4.37651 322.055 4.1832 306.438 4.19701H302.089C299.189 4.19701 296.29 4.19701 293.362 4.27986L280.121 4.51459C277.193 4.51459 274.238 4.66648 271.27 4.76313L266.727 4.90121L259.975 5.19118C257.724 5.27402 255.46 5.37068 253.181 5.50876L246.277 5.86776L241.721 6.15773L239.387 6.30962C236.129 6.50293 232.787 6.77909 229.556 7.04144L225.51 7.35902L220.829 7.77325L217.253 8.10464C215.306 8.28415 213.359 8.46365 211.399 8.68457L204.315 9.45782C201.968 9.72017 199.4 10.0377 196.983 10.3415C187.318 11.598 177.818 13.1031 167.904 14.9396C157.672 16.845 148.283 18.8886 139.183 21.1807C134.033 22.4787 129.366 23.749 124.947 25.0607C120.529 26.3725 115.655 27.9052 110.877 29.5759C106.555 31.0672 102.082 32.7932 97.2074 34.8643C92.8303 36.7422 88.5361 38.8272 84.4351 41.0503C80.5926 43.1668 76.9016 45.5474 73.3888 48.1752C70.3932 50.4517 67.669 53.0647 65.2697 55.9628C64.8693 56.4461 64.5517 56.9155 64.2204 57.3436L63.8199 57.9235C63.3678 58.5392 62.9661 59.1902 62.6186 59.8704L61.5692 61.9278L60.9893 63.9714C60.6388 64.9696 60.4206 66.0094 60.3403 67.0644C60.3403 67.3543 60.2713 67.6443 60.2437 67.9343C60.1884 68.3374 60.1884 68.7462 60.2437 69.1493V69.8121C60.2437 69.964 60.2437 70.1849 60.2437 70.3921C60.2566 70.81 60.3074 71.226 60.3956 71.6348C61.3897 76.4813 64.5379 81.107 69.7849 85.4427C75.6361 89.9619 82.092 93.6383 88.9641 96.3647C91.1319 97.2346 92.9684 97.9526 94.8877 98.6568L96.5032 99.2229C98.0083 99.7476 99.5686 100.286 101.184 100.769L104.484 101.791L113.777 104.318L115.903 104.884C117.284 105.257 118.665 105.63 120.046 105.947L133.218 108.93C134.599 109.247 136.159 109.537 137.665 109.814C138.452 109.965 139.239 110.104 140.012 110.269C157.783 113.735 177.155 116.538 197.605 118.554C216.287 120.459 236.156 121.923 258.359 123C299.452 125.002 340.282 125.182 379.758 125.361H403.605C415.41 125.361 427.078 125.361 438.649 125.472C461.612 125.61 479.12 125.831 495.441 126.217C536.657 127.184 571.384 129.421 601.416 133.121L613.844 134.723L626.754 136.587L639.637 138.603L652.492 140.785C669.503 143.781 686.694 147.261 703.581 151.113C737.504 158.818 771.013 168.243 803.978 179.35C820.12 184.777 836.579 190.88 852.941 197.466C868.075 203.431 883.608 210.335 900.344 218.288C930.661 232.636 959.79 249.368 987.458 268.328C1000.68 277.407 1013.44 287.149 1025.68 297.518L1030.19 301.357C1031.15 302.171 1032.04 303 1032.95 303.828L1034.54 305.278L1038.91 309.213C1039.83 310.042 1040.7 310.884 1041.57 311.726L1043.12 313.218L1047.33 317.236C1048.24 318.092 1049.08 318.962 1049.94 319.818C1050.44 320.329 1050.92 320.826 1051.43 321.323L1055.57 325.465C1056.44 326.335 1057.26 327.219 1058.07 328.103L1059.45 329.635C1078.55 349.645 1094.87 372.127 1107.99 396.479L1106.61 397.114Z" fill="#9FFFFF"/>
<path d="M1101.97 399.226C1102.5 400.243 1103.33 401.078 1104.34 401.625C1105.35 402.172 1106.5 402.407 1107.65 402.3C1108.79 402.194 1109.88 401.75 1110.77 401.026C1111.66 400.301 1112.32 399.328 1112.66 398.23C1113 397.132 1113.01 395.958 1112.68 394.856C1112.35 393.754 1111.7 392.774 1110.82 392.04C1109.94 391.305 1108.85 390.85 1107.71 390.731C1106.57 390.611 1105.41 390.834 1104.4 391.37C1103.03 392.092 1102.01 393.324 1101.56 394.796C1101.1 396.269 1101.25 397.862 1101.97 399.226Z" fill="#9FFFFF"/>
<path d="M1281.97 551.098H1280.42L1280.53 540.259L1279.47 524.09C1279.26 520.308 1278.83 516.541 1278.18 512.809C1277.95 511.249 1277.71 509.688 1277.51 508.142L1276.33 500.271C1276.08 498.614 1275.67 496.902 1275.27 495.232C1275.05 494.306 1274.83 493.367 1274.63 492.47L1272.83 484.696C1272.63 483.895 1272.45 483.081 1272.26 482.266C1271.91 480.508 1271.45 478.774 1270.88 477.074L1266.1 461.885C1265.57 460.126 1264.93 458.397 1264.21 456.707C1263.91 455.934 1263.59 455.175 1263.3 454.415L1260.32 446.987C1259.96 446.131 1259.61 445.261 1259.28 444.405C1258.66 442.858 1258.02 441.243 1257.31 439.682L1253.77 432.419C1236.97 396.919 1210.76 361.999 1175.85 328.446C1145.96 299.739 1110.06 272.814 1069.27 248.333C1031.22 225.769 991.522 206.097 950.521 189.483C910.548 173.168 869.717 159.036 828.211 147.148C787.403 135.459 746.027 125.85 704.244 118.359C683.532 114.645 662.392 111.455 641.487 108.831C630.095 107.451 619.698 106.277 609.729 105.379L605.006 104.951C601.32 104.634 597.523 104.289 593.767 104.04L589.818 103.764C585.869 103.474 581.795 103.17 577.763 102.977C532.998 100.312 488.123 100.381 450.109 100.809C435.666 100.975 421.237 101.209 406.835 101.43C379.427 101.858 351.093 102.3 323.422 102.314C272.54 102.314 234.913 100.933 201.443 97.5365C183.288 95.8198 165.239 93.1327 147.371 89.4865L135.276 86.725C130.829 85.5927 127.35 84.5847 124.354 83.5215C118.292 81.6024 112.519 78.8712 107.19 75.4025C105.134 73.9963 103.276 72.3197 101.667 70.4178L101.17 69.8241L99.7893 67.6424C99.6927 67.3663 99.5684 67.1039 99.4441 66.8278C99.1183 66.1889 98.8903 65.5046 98.7676 64.798C97.8286 61.0975 99.1266 56.9966 102.551 53.0613C104.428 50.9562 106.568 49.1001 108.916 47.5381C111.684 45.599 114.591 43.8682 117.615 42.3602C120.736 40.7723 124.257 39.1844 128.082 37.6379C131.907 36.0914 135.635 34.7797 139.791 33.3989C157.078 27.9028 174.744 23.6801 192.647 20.7646C197.715 19.9086 202.313 19.2044 206.538 18.6244L211.026 18.0583L220.691 16.8984C229.059 15.9181 238.048 15.0758 248.984 14.2473C266.036 12.9632 284.498 12.1209 305.417 11.679C313.701 11.4995 322.663 11.4029 333.46 11.3477C342.477 11.3477 351.618 11.3477 361.421 11.3477C393.387 11.541 425.766 12.5628 457.082 13.5707L472.837 14.0678C509.953 15.2277 523.678 15.1172 561.456 14.6201V16.1666C523.65 16.6637 509.911 16.7742 472.782 15.6143L456.944 15.062C425.642 14.0678 393.262 13.0322 361.325 12.8389C351.521 12.8389 342.38 12.7561 333.364 12.8389C322.58 12.8389 313.674 12.9908 305.347 13.1703C284.456 13.6122 266.023 14.4544 249.011 15.7386C238.103 16.567 229.128 17.4093 220.774 18.3759L211.109 19.5357L206.635 20.1157C202.368 20.6818 197.853 21.3722 192.827 22.2283C175.001 25.1435 157.409 29.3475 140.191 34.8073C136.049 36.1881 132.155 37.5688 128.565 39.0187C124.975 40.4685 121.316 42.1116 118.237 43.6857C115.277 45.1595 112.43 46.8486 109.717 48.7394C107.479 50.258 105.439 52.0483 103.642 54.0693C100.563 57.6179 99.3751 61.2218 100.204 64.5219C100.311 65.1032 100.501 65.6659 100.77 66.1926C100.894 66.4688 101.018 66.7449 101.129 67.0349L102.316 68.899L102.786 69.4375C104.315 71.2322 106.08 72.8115 108.033 74.1322C113.238 77.5158 118.877 80.1817 124.795 82.0579C127.764 83.1073 131.189 84.1014 135.593 85.2199L147.648 87.9815C165.442 91.6152 183.418 94.2978 201.498 96.0177C234.637 99.3177 271.919 100.781 322.11 100.781H323.325C350.941 100.781 379.316 100.326 406.711 99.8977C421.127 99.6768 435.556 99.442 449.999 99.2763C488.026 98.8483 532.943 98.7792 577.75 101.444C581.795 101.651 585.882 101.941 589.845 102.231L593.767 102.507C597.536 102.756 601.361 103.101 605.048 103.433L609.77 103.847C619.781 104.758 630.178 105.89 641.528 107.313C662.461 109.922 683.601 113.126 704.368 116.854C746.205 124.345 787.632 133.968 828.487 145.685C870.047 157.577 910.928 171.724 950.949 188.061C992.057 204.698 1031.86 224.397 1070.01 246.993C1110.93 271.544 1146.88 298.538 1176.87 327.217C1211.92 360.853 1238.25 395.98 1255.12 431.632L1258.66 438.909C1259.4 440.525 1260.04 442.154 1260.67 443.728C1261.01 444.584 1261.35 445.44 1261.71 446.296L1264.69 453.739C1264.98 454.498 1265.3 455.258 1265.6 456.017C1266.35 457.75 1267 459.525 1267.54 461.333L1272.31 476.522C1272.88 478.275 1273.34 480.059 1273.7 481.865C1273.87 482.666 1274.05 483.467 1274.25 484.268L1276.06 492.07C1276.25 492.995 1276.47 493.92 1276.69 494.831C1277.09 496.529 1277.52 498.283 1277.78 499.995L1278.96 507.879C1279.16 509.426 1279.4 510.972 1279.63 512.533C1280.29 516.315 1280.72 520.132 1280.93 523.966L1281.99 540.176L1281.97 551.098Z" fill="#9FFFFF"/>
<path d="M1275.38 550.741C1275.37 551.89 1275.7 553.017 1276.33 553.979C1276.96 554.941 1277.86 555.695 1278.92 556.145C1279.98 556.595 1281.14 556.721 1282.27 556.507C1283.4 556.294 1284.44 555.75 1285.26 554.945C1286.08 554.14 1286.65 553.109 1286.88 551.984C1287.12 550.858 1287.01 549.689 1286.58 548.622C1286.15 547.556 1285.42 546.641 1284.47 545.993C1283.52 545.345 1282.4 544.994 1281.25 544.983C1280.48 544.975 1279.73 545.119 1279.02 545.404C1278.31 545.689 1277.67 546.112 1277.12 546.646C1276.58 547.181 1276.14 547.818 1275.84 548.52C1275.54 549.223 1275.39 549.977 1275.38 550.741Z" fill="#9FFFFF"/>
<path d="M1185.28 939.475L1184.29 938.509C1211.99 910.277 1238.01 880.442 1262.21 849.158C1263.59 847.317 1264.97 845.476 1266.35 843.635C1271.47 836.883 1276.77 829.91 1281.54 822.923L1283.82 819.623C1288.98 812.153 1294.31 804.434 1299 796.633L1307.29 783.557C1309.15 780.615 1310.87 777.536 1312.51 774.54C1313.28 773.159 1314.04 771.778 1314.83 770.398L1322.09 757.349C1323.62 754.505 1325.07 751.564 1326.47 748.705C1327.2 747.2 1327.95 745.695 1328.69 744.204C1346.03 709.132 1358.16 674.101 1364.73 640.079C1371.34 604.869 1372.21 570.708 1367.34 538.549L1366.95 535.456L1365.16 526.205L1362.71 513.985C1361.2 508.103 1359.41 502.11 1357.7 496.311C1357.07 494.171 1356.43 492.044 1355.82 489.918C1353.31 483.014 1350.3 474.812 1347.04 466.444L1345.14 462.302C1342.28 456.144 1339.32 449.778 1336.22 443.606C1335.06 441.526 1333.91 439.441 1332.77 437.351C1329.89 432.146 1326.94 426.774 1323.82 421.541L1316.91 410.743C1315.38 408.382 1313.68 405.993 1312.04 403.688C1311.2 402.514 1310.37 401.354 1309.57 400.18L1305.87 394.989L1301.95 389.866L1299.46 386.635C1297.72 384.37 1295.93 382.037 1294.08 379.731L1285.79 369.872C1284.01 367.718 1282.02 365.564 1280.12 363.479C1279.12 362.402 1278.14 361.325 1277.19 360.248C1274.15 356.906 1271.39 353.883 1268.41 350.872L1265.53 347.945C1263.5 345.846 1261.49 343.803 1259.4 341.704L1256.38 338.818C1251.28 333.944 1246.01 328.904 1240.54 324.113C1234.77 318.824 1228.57 313.646 1222.59 308.634L1221.1 307.378L1216.38 303.732C1211.35 299.714 1206.15 295.558 1200.79 291.609C1194.34 286.638 1187.48 281.792 1180.84 277.097L1180.13 276.6C1177.72 274.929 1175.26 273.272 1172.81 271.629L1167.75 268.205C1166.6 267.431 1165.47 266.658 1164.3 265.899L1158.94 262.447C1145.72 253.844 1131.57 245.325 1115.64 236.364C1102.75 229.087 1088.34 221.52 1071.55 213.249C1058.46 206.773 1044.33 200.256 1027.11 192.758C999.153 180.593 969.3 169.064 938.384 158.487C909.843 148.697 881.095 139.915 850.469 131.493C792.513 115.715 733.57 103.814 674.032 95.8682L659.106 93.9765C656.662 93.6727 654.218 93.3689 651.76 93.1066L640.589 91.8639C638.753 91.6568 636.82 91.4635 634.887 91.284L629.101 90.7316C623.219 90.1379 617.24 89.6822 611.468 89.2404L606.07 88.8261L598.448 88.3291L588.92 87.7491L571.895 86.9207L560.628 86.534C556.789 86.3821 552.868 86.2855 549.402 86.2165L545.619 86.1198C543.161 86.1198 540.689 85.9955 538.245 85.9679C524.134 85.7332 509.732 85.6779 494.198 85.7608C479.244 85.8713 464.732 86.0784 451.048 86.3822C437.365 86.6859 423.861 87.0173 410.702 87.3487H408.713C394.698 87.7077 380.877 88.0529 367 88.3567L362.029 88.4533C356.796 88.5638 351.549 88.6743 346.385 88.7571L325.976 89.0471C296.524 89.4061 270.745 89.0471 247.092 88.1357C244.855 88.1357 242.673 87.9562 240.506 87.832L237.744 87.6801L234.347 87.5006C232.359 87.4039 230.357 87.2935 228.41 87.1692L217.654 86.396L214.74 86.175L201.443 84.9599L188.588 83.4825L185.978 83.1097L176.202 81.7289C174.518 81.4665 172.902 81.1766 171.273 80.8866L168.29 80.3757L166.647 80.0857C164.59 79.7406 162.505 79.3815 160.53 78.9397L152.411 77.2551L151.238 77.0066L146.612 75.8605C138.327 73.6513 131.658 70.9173 127.35 67.9486C122.752 64.8142 120.681 61.4589 121.192 57.9793C121.702 54.4997 124.837 50.9925 130.54 47.4577C137.886 43.2525 145.681 39.8853 153.778 37.4193C163.967 34.1118 174.323 31.3464 184.805 29.1346C190.328 27.9471 195.851 26.8701 201.485 25.9036C204.246 25.4341 207.008 24.9922 209.88 24.5228L218.744 23.2939C230.108 21.8026 241.942 20.5323 254.921 19.5105C276.71 17.7569 300.294 16.7489 329.152 16.2242C335.393 16.1138 341.653 16.0309 347.931 15.9757C354.2 15.9757 360.524 15.8652 366.724 15.8652C379.51 15.8652 392.282 15.8652 404.184 16.0723C421.9 16.3071 440.085 16.6523 457.566 16.9837L479.838 17.3979C502.414 17.7983 529.173 18.185 556.582 17.964V19.3448C529.16 19.5657 502.372 19.1791 479.796 18.7787L457.497 18.4059C439.961 18.0745 421.831 17.7293 404.129 17.4946C392.227 17.3565 379.468 17.246 366.696 17.2874C360.496 17.2874 354.172 17.2874 347.903 17.3979C341.635 17.5084 335.366 17.536 329.125 17.6464C300.294 18.1435 276.738 19.1791 254.99 20.9327C242.038 21.9821 230.233 23.211 218.896 24.7023L210.045 25.9312C207.215 26.3592 204.522 26.7873 201.664 27.312C196.141 28.2647 190.507 29.3417 185.095 30.5292C174.663 32.7408 164.357 35.5063 154.22 38.8139C146.222 41.2401 138.524 44.5612 131.271 48.7142C125.914 52.0281 123.069 55.1625 122.545 58.2693C122.131 61.1689 124.008 64.0686 128.137 66.8992C132.266 69.7298 138.824 72.4224 146.971 74.604L151.569 75.7501L152.674 75.9848L160.834 77.6694C162.74 78.1112 164.838 78.4702 166.882 78.8154L168.525 79.0916L171.521 79.6163C173.137 79.8924 174.752 80.1824 176.409 80.4448L186.185 81.8255L188.754 82.1846L201.595 83.662L214.864 84.8909C215.803 84.9737 216.77 85.0428 217.75 85.098L228.507 85.8713C230.453 85.9955 232.428 86.106 234.416 86.2026L237.813 86.3822L240.575 86.534C242.742 86.6583 244.91 86.7688 247.147 86.8378C270.745 87.8044 296.524 88.1081 325.963 87.7491L346.371 87.4592C351.535 87.3763 356.768 87.2659 362.001 87.1554L366.972 87.0587C380.78 86.755 394.671 86.4098 408.672 86.0508H410.66C423.819 85.7194 437.434 85.3742 451.021 85.0842C464.608 84.7942 479.23 84.5733 494.184 84.4628C509.732 84.3662 524.147 84.4629 538.259 84.67C540.717 84.67 543.188 84.7666 545.646 84.8219L549.443 84.9185C552.895 84.9875 556.831 85.0842 560.669 85.2361L571.95 85.6227L588.989 86.4512L598.53 87.0449C601.071 87.1968 603.626 87.3487 606.166 87.542L611.565 87.9563C617.351 88.3981 623.329 88.8538 629.225 89.4613L635.011 90.0136C636.958 90.1931 638.891 90.3726 640.727 90.5936L651.898 91.8225C654.37 92.0986 656.814 92.4024 659.258 92.7062L674.211 94.5978C733.804 102.554 792.802 114.464 850.815 130.25C881.468 138.645 910.189 147.482 938.785 157.286C969.728 167.863 999.539 179.378 1027.61 191.585C1044.86 199.096 1059 205.613 1072.1 212.103C1088.92 220.388 1103.36 227.968 1116.29 235.259C1132.25 244.234 1146.43 252.767 1159.66 261.383L1165.03 264.835L1168.49 267.155L1173.56 270.579C1176.02 272.223 1178.48 273.893 1180.89 275.564L1181.6 276.061C1188.25 280.756 1195.13 285.616 1201.6 290.601C1206.96 294.564 1212.17 298.72 1217.22 302.752L1221.86 306.439L1223.37 307.709C1229.37 312.735 1235.57 317.927 1241.32 323.215C1246.84 328.034 1252.09 333.074 1257.19 337.962L1260.22 340.848C1262.33 342.933 1264.36 344.99 1266.39 347.117L1269.25 350.044C1272.25 353.068 1275.02 356.106 1278.07 359.475C1279.02 360.538 1280.01 361.615 1281 362.678C1282.92 364.777 1284.91 366.945 1286.72 369.126L1295 378.985C1296.88 381.291 1298.67 383.639 1300.41 385.889L1302.9 389.12L1306.83 394.257L1310.55 399.49L1313.02 402.97C1314.68 405.303 1316.39 407.706 1317.94 410.094L1324.84 420.92C1327.99 426.194 1330.96 431.566 1333.81 436.771C1334.96 438.852 1336.12 440.946 1337.29 443.054C1340.41 449.267 1343.38 455.647 1346.24 461.819L1348.16 465.961C1351.45 474.384 1354.46 482.6 1356.98 489.545C1357.61 491.713 1358.24 493.839 1358.88 495.98C1360.59 501.779 1362.37 507.785 1363.9 513.737L1368.17 535.304L1368.56 538.425C1373.46 570.708 1372.57 605.021 1365.93 640.396C1359.35 674.543 1347.18 709.698 1329.78 744.867C1329.02 746.358 1328.29 747.863 1327.56 749.368C1326.18 752.24 1324.7 755.195 1323.15 758.067L1315.88 771.143C1315.09 772.524 1314.33 773.905 1313.57 775.286C1311.92 778.282 1310.19 781.402 1308.3 784.357L1300.1 797.42C1295.35 805.249 1290 812.995 1284.82 820.479L1282.56 823.765C1277.78 830.849 1272.47 837.849 1267.37 844.615L1263.23 850.138C1239.01 881.413 1212.99 911.244 1185.28 939.475Z" fill="#9FFFFF"/>
<path d="M1181.17 935.25C1180.46 935.992 1179.99 936.928 1179.81 937.94C1179.63 938.951 1179.76 939.992 1180.17 940.931C1180.59 941.87 1181.27 942.665 1182.14 943.216C1183 943.767 1184.01 944.048 1185.04 944.025C1186.07 944.002 1187.06 943.675 1187.9 943.086C1188.74 942.496 1189.39 941.671 1189.76 940.714C1190.14 939.758 1190.21 938.712 1189.99 937.71C1189.77 936.708 1189.26 935.794 1188.51 935.084C1187.52 934.134 1186.18 933.619 1184.81 933.65C1183.43 933.681 1182.12 934.256 1181.17 935.25Z" fill="#9FFFFF"/>
<path style="mix-blend-mode:color-dodge" d="M1219.47 774.207C1234.16 740.613 1218.83 701.471 1185.24 686.781C1151.65 672.09 1112.51 687.414 1097.82 721.007C1083.12 754.601 1098.45 793.743 1132.04 808.434C1165.64 823.124 1204.78 807.8 1219.47 774.207Z" fill="url(#paint0_radial_971_238)"/>
<path style="mix-blend-mode:color-dodge" d="M1185.63 978.001C1207.39 978.001 1225.02 960.363 1225.02 938.607C1225.02 916.85 1207.39 899.213 1185.63 899.213C1163.87 899.213 1146.23 916.85 1146.23 938.607C1146.23 960.363 1163.87 978.001 1185.63 978.001Z" fill="url(#paint1_radial_971_238)"/>
<path style="mix-blend-mode:color-dodge" d="M1136.15 417.362C1146.62 401.261 1142.06 379.715 1125.96 369.239C1109.86 358.763 1088.32 363.323 1077.84 379.424C1067.36 395.525 1071.92 417.071 1088.02 427.547C1104.13 438.024 1125.67 433.464 1136.15 417.362Z" fill="url(#paint2_radial_971_238)"/>
<path style="mix-blend-mode:color-dodge" d="M1456.98 702.007C1471.88 689.878 1474.12 667.97 1462 653.073C1449.87 638.176 1427.96 635.932 1413.06 648.06C1398.17 660.188 1395.92 682.096 1408.05 696.993C1420.18 711.89 1442.08 714.135 1456.98 702.007Z" fill="url(#paint3_radial_971_238)"/>
</g>
<defs>
<radialGradient id="paint0_radial_971_238" cx="0" cy="0" r="1" gradientUnits="userSpaceOnUse" gradientTransform="translate(1164.94 748.015) rotate(4.41601) scale(66.7445)">
<stop offset="0.06" stop-color="white"/>
<stop offset="0.09" stop-color="#EAF2FF" stop-opacity="0.92"/>
<stop offset="0.19" stop-color="#ADCCFF" stop-opacity="0.68"/>
<stop offset="0.3" stop-color="#78ABFF" stop-opacity="0.47"/>
<stop offset="0.4" stop-color="#4D90FF" stop-opacity="0.3"/>
<stop offset="0.49" stop-color="#2B7BFF" stop-opacity="0.17"/>
<stop offset="0.59" stop-color="#136CFF" stop-opacity="0.08"/>
<stop offset="0.67" stop-color="#0563FF" stop-opacity="0.02"/>
<stop offset="0.74" stop-color="#0060FF" stop-opacity="0"/>
</radialGradient>
<radialGradient id="paint1_radial_971_238" cx="0" cy="0" r="1" gradientUnits="userSpaceOnUse" gradientTransform="translate(69053.2 12131.9) rotate(4.30446) scale(2236 2236)">
<stop offset="0.06" stop-color="white"/>
<stop offset="0.09" stop-color="#EAF2FF" stop-opacity="0.92"/>
<stop offset="0.19" stop-color="#ADCCFF" stop-opacity="0.68"/>
<stop offset="0.3" stop-color="#78ABFF" stop-opacity="0.47"/>
<stop offset="0.4" stop-color="#4D90FF" stop-opacity="0.3"/>
<stop offset="0.49" stop-color="#2B7BFF" stop-opacity="0.17"/>
<stop offset="0.59" stop-color="#136CFF" stop-opacity="0.08"/>
<stop offset="0.67" stop-color="#0563FF" stop-opacity="0.02"/>
<stop offset="0.74" stop-color="#0060FF" stop-opacity="0"/>
</radialGradient>
<radialGradient id="paint2_radial_971_238" cx="0" cy="0" r="1" gradientUnits="userSpaceOnUse" gradientTransform="translate(57001.4 -16745.1) rotate(4.39) scale(1757.69)">
<stop offset="0.06" stop-color="white"/>
<stop offset="0.09" stop-color="#EAF2FF" stop-opacity="0.92"/>
<stop offset="0.19" stop-color="#ADCCFF" stop-opacity="0.68"/>
<stop offset="0.3" stop-color="#78ABFF" stop-opacity="0.47"/>
<stop offset="0.4" stop-color="#4D90FF" stop-opacity="0.3"/>
<stop offset="0.49" stop-color="#2B7BFF" stop-opacity="0.17"/>
<stop offset="0.59" stop-color="#136CFF" stop-opacity="0.08"/>
<stop offset="0.67" stop-color="#0563FF" stop-opacity="0.02"/>
<stop offset="0.74" stop-color="#0060FF" stop-opacity="0"/>
</radialGradient>
<radialGradient id="paint3_radial_971_238" cx="0" cy="0" r="1" gradientUnits="userSpaceOnUse" gradientTransform="translate(73859.6 -2481.19) rotate(4.4) scale(1757.69)">
<stop offset="0.06" stop-color="white"/>
<stop offset="0.09" stop-color="#EAF2FF" stop-opacity="0.92"/>
<stop offset="0.19" stop-color="#ADCCFF" stop-opacity="0.68"/>
<stop offset="0.3" stop-color="#78ABFF" stop-opacity="0.47"/>
<stop offset="0.4" stop-color="#4D90FF" stop-opacity="0.3"/>
<stop offset="0.49" stop-color="#2B7BFF" stop-opacity="0.17"/>
<stop offset="0.59" stop-color="#136CFF" stop-opacity="0.08"/>
<stop offset="0.67" stop-color="#0563FF" stop-opacity="0.02"/>
<stop offset="0.74" stop-color="#0060FF" stop-opacity="0"/>
</radialGradient>
</defs>
</svg>
