<svg width="1000" height="114" viewBox="0 0 1000 114" fill="none" xmlns="http://www.w3.org/2000/svg">
<path d="M17.524 109.144C16.264 109.144 15.124 108.868 14.104 108.316C13.096 107.752 12.304 106.984 11.728 106.012C11.152 105.028 10.864 103.924 10.864 102.7C10.864 101.476 11.152 100.378 11.728 99.406C12.304 98.422 13.102 97.654 14.122 97.102C15.142 96.538 16.282 96.256 17.542 96.256C18.526 96.256 19.426 96.424 20.242 96.76C21.058 97.084 21.754 97.57 22.33 98.218L21.16 99.352C20.212 98.356 19.03 97.858 17.614 97.858C16.678 97.858 15.832 98.068 15.076 98.488C14.32 98.908 13.726 99.49 13.294 100.234C12.874 100.966 12.664 101.788 12.664 102.7C12.664 103.612 12.874 104.44 13.294 105.184C13.726 105.916 14.32 106.492 15.076 106.912C15.832 107.332 16.678 107.542 17.614 107.542C19.018 107.542 20.2 107.038 21.16 106.03L22.33 107.164C21.754 107.812 21.052 108.304 20.224 108.64C19.408 108.976 18.508 109.144 17.524 109.144ZM28.3275 109.108C27.3795 109.108 26.5275 108.898 25.7715 108.478C25.0155 108.058 24.4215 107.482 23.9895 106.75C23.5695 106.006 23.3595 105.166 23.3595 104.23C23.3595 103.294 23.5695 102.46 23.9895 101.728C24.4215 100.984 25.0155 100.408 25.7715 100C26.5275 99.58 27.3795 99.37 28.3275 99.37C29.2755 99.37 30.1215 99.58 30.8655 100C31.6215 100.408 32.2095 100.984 32.6295 101.728C33.0615 102.46 33.2775 103.294 33.2775 104.23C33.2775 105.166 33.0615 106.006 32.6295 106.75C32.2095 107.482 31.6215 108.058 30.8655 108.478C30.1215 108.898 29.2755 109.108 28.3275 109.108ZM28.3275 107.596C28.9395 107.596 29.4855 107.458 29.9655 107.182C30.4575 106.894 30.8415 106.498 31.1175 105.994C31.3935 105.478 31.5315 104.89 31.5315 104.23C31.5315 103.57 31.3935 102.988 31.1175 102.484C30.8415 101.968 30.4575 101.572 29.9655 101.296C29.4855 101.02 28.9395 100.882 28.3275 100.882C27.7155 100.882 27.1635 101.02 26.6715 101.296C26.1915 101.572 25.8075 101.968 25.5195 102.484C25.2435 102.988 25.1055 103.57 25.1055 104.23C25.1055 104.89 25.2435 105.478 25.5195 105.994C25.8075 106.498 26.1915 106.894 26.6715 107.182C27.1635 107.458 27.7155 107.596 28.3275 107.596ZM40.7613 99.37C41.9733 99.37 42.9333 99.724 43.6413 100.432C44.3613 101.128 44.7213 102.154 44.7213 103.51V109H42.9933V103.708C42.9933 102.784 42.7713 102.088 42.3273 101.62C41.8833 101.152 41.2473 100.918 40.4193 100.918C39.4833 100.918 38.7453 101.194 38.2053 101.746C37.6653 102.286 37.3953 103.066 37.3953 104.086V109H35.6673V99.46H37.3233V100.9C37.6713 100.408 38.1393 100.03 38.7273 99.766C39.3273 99.502 40.0053 99.37 40.7613 99.37ZM53.0133 99.37C54.2253 99.37 55.1853 99.724 55.8933 100.432C56.6133 101.128 56.9733 102.154 56.9733 103.51V109H55.2453V103.708C55.2453 102.784 55.0233 102.088 54.5793 101.62C54.1353 101.152 53.4993 100.918 52.6713 100.918C51.7353 100.918 50.9973 101.194 50.4573 101.746C49.9173 102.286 49.6473 103.066 49.6473 104.086V109H47.9193V99.46H49.5753V100.9C49.9233 100.408 50.3913 100.03 50.9793 99.766C51.5793 99.502 52.2573 99.37 53.0133 99.37ZM68.8459 104.284C68.8459 104.416 68.8339 104.59 68.8099 104.806H61.0699C61.1779 105.646 61.5439 106.324 62.1679 106.84C62.8039 107.344 63.5899 107.596 64.5259 107.596C65.6659 107.596 66.5839 107.212 67.2799 106.444L68.2339 107.56C67.8019 108.064 67.2619 108.448 66.6139 108.712C65.9779 108.976 65.2639 109.108 64.4719 109.108C63.4639 109.108 62.5699 108.904 61.7899 108.496C61.0099 108.076 60.4039 107.494 59.9719 106.75C59.5519 106.006 59.3419 105.166 59.3419 104.23C59.3419 103.306 59.5459 102.472 59.9539 101.728C60.3739 100.984 60.9439 100.408 61.6639 100C62.3959 99.58 63.2179 99.37 64.1299 99.37C65.0419 99.37 65.8519 99.58 66.5599 100C67.2799 100.408 67.8379 100.984 68.2339 101.728C68.6419 102.472 68.8459 103.324 68.8459 104.284ZM64.1299 100.828C63.3019 100.828 62.6059 101.08 62.0419 101.584C61.4899 102.088 61.1659 102.748 61.0699 103.564H67.1899C67.0939 102.76 66.7639 102.106 66.1999 101.602C65.6479 101.086 64.9579 100.828 64.1299 100.828ZM75.4034 109.108C74.4314 109.108 73.5614 108.898 72.7934 108.478C72.0374 108.058 71.4434 107.482 71.0114 106.75C70.5794 106.006 70.3634 105.166 70.3634 104.23C70.3634 103.294 70.5794 102.46 71.0114 101.728C71.4434 100.984 72.0374 100.408 72.7934 100C73.5614 99.58 74.4314 99.37 75.4034 99.37C76.2674 99.37 77.0354 99.544 77.7074 99.892C78.3914 100.24 78.9194 100.744 79.2914 101.404L77.9774 102.25C77.6774 101.794 77.3054 101.452 76.8614 101.224C76.4174 100.996 75.9254 100.882 75.3854 100.882C74.7614 100.882 74.1974 101.02 73.6934 101.296C73.2014 101.572 72.8114 101.968 72.5234 102.484C72.2474 102.988 72.1094 103.57 72.1094 104.23C72.1094 104.902 72.2474 105.496 72.5234 106.012C72.8114 106.516 73.2014 106.906 73.6934 107.182C74.1974 107.458 74.7614 107.596 75.3854 107.596C75.9254 107.596 76.4174 107.482 76.8614 107.254C77.3054 107.026 77.6774 106.684 77.9774 106.228L79.2914 107.056C78.9194 107.716 78.3914 108.226 77.7074 108.586C77.0354 108.934 76.2674 109.108 75.4034 109.108ZM87.0157 108.442C86.7637 108.658 86.4517 108.826 86.0797 108.946C85.7077 109.054 85.3237 109.108 84.9277 109.108C83.9677 109.108 83.2237 108.85 82.6957 108.334C82.1677 107.818 81.9037 107.08 81.9037 106.12V100.882H80.2837V99.46H81.9037V97.372H83.6317V99.46H86.3677V100.882H83.6317V106.048C83.6317 106.564 83.7577 106.96 84.0097 107.236C84.2737 107.512 84.6457 107.65 85.1257 107.65C85.6537 107.65 86.1037 107.5 86.4757 107.2L87.0157 108.442ZM111.993 96.4L107.781 109H105.891L102.453 98.938L99.0148 109H97.0888L92.8768 96.4H94.7308L98.1328 106.642L101.679 96.4H103.335L106.809 106.696L110.283 96.4H111.993ZM116.696 99.37C118.016 99.37 119.024 99.694 119.72 100.342C120.428 100.99 120.782 101.956 120.782 103.24V109H119.144V107.74C118.856 108.184 118.442 108.526 117.902 108.766C117.374 108.994 116.744 109.108 116.012 109.108C114.944 109.108 114.086 108.85 113.438 108.334C112.802 107.818 112.484 107.14 112.484 106.3C112.484 105.46 112.79 104.788 113.402 104.284C114.014 103.768 114.986 103.51 116.318 103.51H119.054V103.168C119.054 102.424 118.838 101.854 118.406 101.458C117.974 101.062 117.338 100.864 116.498 100.864C115.934 100.864 115.382 100.96 114.842 101.152C114.302 101.332 113.846 101.578 113.474 101.89L112.754 100.594C113.246 100.198 113.834 99.898 114.518 99.694C115.202 99.478 115.928 99.37 116.696 99.37ZM116.3 107.776C116.96 107.776 117.53 107.632 118.01 107.344C118.49 107.044 118.838 106.624 119.054 106.084V104.752H116.39C114.926 104.752 114.194 105.244 114.194 106.228C114.194 106.708 114.38 107.086 114.752 107.362C115.124 107.638 115.64 107.776 116.3 107.776ZM123.98 95.644H125.708V109H123.98V95.644ZM129.007 95.644H130.735V109H129.007V95.644ZM142.656 104.284C142.656 104.416 142.644 104.59 142.62 104.806H134.88C134.988 105.646 135.354 106.324 135.978 106.84C136.614 107.344 137.4 107.596 138.336 107.596C139.476 107.596 140.394 107.212 141.09 106.444L142.044 107.56C141.612 108.064 141.072 108.448 140.424 108.712C139.788 108.976 139.074 109.108 138.282 109.108C137.274 109.108 136.38 108.904 135.6 108.496C134.82 108.076 134.214 107.494 133.782 106.75C133.362 106.006 133.152 105.166 133.152 104.23C133.152 103.306 133.356 102.472 133.764 101.728C134.184 100.984 134.754 100.408 135.474 100C136.206 99.58 137.028 99.37 137.94 99.37C138.852 99.37 139.662 99.58 140.37 100C141.09 100.408 141.648 100.984 142.044 101.728C142.452 102.472 142.656 103.324 142.656 104.284ZM137.94 100.828C137.112 100.828 136.416 101.08 135.852 101.584C135.3 102.088 134.976 102.748 134.88 103.564H141C140.904 102.76 140.574 102.106 140.01 101.602C139.458 101.086 138.768 100.828 137.94 100.828ZM150.42 108.442C150.168 108.658 149.856 108.826 149.484 108.946C149.112 109.054 148.728 109.108 148.332 109.108C147.372 109.108 146.628 108.85 146.1 108.334C145.572 107.818 145.308 107.08 145.308 106.12V100.882H143.688V99.46H145.308V97.372H147.036V99.46H149.772V100.882H147.036V106.048C147.036 106.564 147.162 106.96 147.414 107.236C147.678 107.512 148.05 107.65 148.53 107.65C149.058 107.65 149.508 107.5 149.88 107.2L150.42 108.442Z" fill="white"/>
<path d="M99 73.75H51.5C49.843 73.748 48.2544 73.0889 47.0828 71.9172C45.9111 70.7455 45.252 69.157 45.25 67.5V27.5C45.25 27.1685 45.3817 26.8505 45.6161 26.6161C45.8505 26.3817 46.1685 26.25 46.5 26.25C46.8315 26.25 47.1495 26.3817 47.3839 26.6161C47.6183 26.8505 47.75 27.1685 47.75 27.5V67.5C47.75 68.4946 48.1451 69.4484 48.8484 70.1516C49.5516 70.8549 50.5054 71.25 51.5 71.25H99C99.9946 71.25 100.948 70.8549 101.652 70.1516C102.355 69.4484 102.75 68.4946 102.75 67.5V60C102.75 59.6685 102.882 59.3505 103.116 59.1161C103.351 58.8817 103.668 58.75 104 58.75C104.332 58.75 104.649 58.8817 104.884 59.1161C105.118 59.3505 105.25 59.6685 105.25 60V67.5C105.248 69.157 104.589 70.7455 103.417 71.9172C102.246 73.0889 100.657 73.748 99 73.75Z" fill="white"/>
<path d="M104 46.2494C103.668 46.2494 103.35 46.1177 103.116 45.8833C102.882 45.6489 102.75 45.3309 102.75 44.9994V37.4994C102.747 36.5522 102.384 35.6414 101.735 34.9519C101.619 34.8325 101.528 34.6912 101.468 34.5363C101.408 34.3813 101.379 34.2159 101.383 34.0497C101.387 33.8834 101.425 33.7197 101.493 33.5681C101.561 33.4165 101.659 33.2801 101.781 33.1668C101.903 33.0536 102.046 32.9657 102.202 32.9085C102.358 32.8512 102.524 32.8257 102.69 32.8334C102.856 32.8411 103.019 32.8818 103.17 32.9533C103.32 33.0247 103.454 33.1254 103.565 33.2494C104.645 34.4013 105.247 35.9204 105.25 37.4994V44.9994C105.25 45.3309 105.118 45.6489 104.884 45.8833C104.649 46.1177 104.331 46.2494 104 46.2494Z" fill="white"/>
<path d="M89.85 33.75H87.75C87.4185 33.75 87.1005 33.6183 86.8661 33.3839C86.6317 33.1495 86.5 32.8315 86.5 32.5C86.5 32.1685 86.6317 31.8505 86.8661 31.6161C87.1005 31.3817 87.4185 31.25 87.75 31.25H89.85C90.1815 31.25 90.4995 31.3817 90.7339 31.6161C90.9683 31.8505 91.1 32.1685 91.1 32.5C91.1 32.8315 90.9683 33.1495 90.7339 33.3839C90.4995 33.6183 90.1815 33.75 89.85 33.75Z" fill="white"/>
<path d="M97.7499 36.25C94.7832 36.25 91.8831 35.3703 89.4163 33.722C86.9496 32.0738 85.027 29.7311 83.8917 26.9903C82.7564 24.2494 82.4593 21.2334 83.0381 18.3237C83.6169 15.4139 85.0455 12.7412 87.1433 10.6434C89.2411 8.54562 91.9138 7.11701 94.8235 6.53823C97.7332 5.95945 100.749 6.2565 103.49 7.39181C106.231 8.52713 108.574 10.4497 110.222 12.9165C111.87 15.3832 112.75 18.2833 112.75 21.25C112.746 25.2269 111.164 29.0397 108.352 31.8519C105.54 34.664 101.727 36.2457 97.7499 36.25ZM97.7499 8.75001C95.2776 8.75001 92.8609 9.48312 90.8053 10.8566C88.7496 12.2302 87.1475 14.1824 86.2014 16.4665C85.2553 18.7505 85.0078 21.2639 85.4901 23.6886C85.9724 26.1134 87.1629 28.3407 88.911 30.0888C90.6592 31.837 92.8865 33.0275 95.3112 33.5098C97.736 33.9921 100.249 33.7446 102.533 32.7985C104.817 31.8524 106.77 30.2502 108.143 28.1946C109.517 26.139 110.25 23.7223 110.25 21.25C110.246 17.9359 108.928 14.7586 106.585 12.4152C104.241 10.0718 101.064 8.75365 97.7499 8.75001Z" fill="white"/>
<path d="M89.85 33.75H51.5C50.679 33.7508 49.8659 33.5897 49.1073 33.2759C48.3486 32.9621 47.6593 32.5018 47.0788 31.9212C46.4982 31.3407 46.0379 30.6514 45.7241 29.8927C45.4103 29.1341 45.2492 28.321 45.25 27.5C45.2528 27.0058 45.3089 26.5134 45.4175 26.0312C45.818 24.6709 46.642 23.4738 47.7696 22.614C48.8972 21.7541 50.2697 21.2763 51.6875 21.25H84C84.3315 21.25 84.6495 21.3817 84.8839 21.6161C85.1183 21.8505 85.25 22.1685 85.25 22.5C85.25 22.8315 85.1183 23.1495 84.8839 23.3839C84.6495 23.6183 84.3315 23.75 84 23.75H51.6875C50.8369 23.7807 50.0155 24.0682 49.3314 24.5747C48.6473 25.0812 48.1326 25.7829 47.855 26.5875C47.7878 26.8871 47.7526 27.193 47.75 27.5C47.749 27.9927 47.8453 28.4808 48.0334 28.9362C48.2215 29.3916 48.4977 29.8054 48.8461 30.1538C49.1946 30.5023 49.6084 30.7785 50.0638 30.9666C50.5192 31.1547 51.0073 31.251 51.5 31.25H89.85C90.1815 31.25 90.4995 31.3817 90.7339 31.6161C90.9683 31.8505 91.1 32.1685 91.1 32.5C91.1 32.8315 90.9683 33.1495 90.7339 33.3839C90.4995 33.6183 90.1815 33.75 89.85 33.75Z" fill="white"/>
<path d="M106.5 61.25H94C91.6794 61.25 89.4538 60.3281 87.8128 58.6872C86.1719 57.0462 85.25 54.8206 85.25 52.5C85.25 50.1794 86.1719 47.9538 87.8128 46.3128C89.4538 44.6719 91.6794 43.75 94 43.75H106.5C106.832 43.75 107.149 43.8817 107.384 44.1161C107.618 44.3505 107.75 44.6685 107.75 45V60C107.75 60.3315 107.618 60.6495 107.384 60.8839C107.149 61.1183 106.832 61.25 106.5 61.25ZM94 46.25C92.3424 46.25 90.7527 46.9085 89.5806 48.0806C88.4085 49.2527 87.75 50.8424 87.75 52.5C87.75 54.1576 88.4085 55.7473 89.5806 56.9194C90.7527 58.0915 92.3424 58.75 94 58.75H105.25V46.25H94Z" fill="white"/>
<path d="M96.5 56.25C95.7583 56.25 95.0333 56.0301 94.4166 55.618C93.7999 55.206 93.3193 54.6203 93.0355 53.9351C92.7516 53.2498 92.6774 52.4958 92.8221 51.7684C92.9668 51.041 93.3239 50.3728 93.8484 49.8484C94.3728 49.3239 95.041 48.9668 95.7684 48.8221C96.4958 48.6774 97.2498 48.7516 97.9351 49.0355C98.6203 49.3193 99.206 49.7999 99.618 50.4166C100.03 51.0333 100.25 51.7583 100.25 52.5C100.25 53.4946 99.8549 54.4484 99.1517 55.1517C98.4484 55.8549 97.4946 56.25 96.5 56.25ZM96.5 51.25C96.2528 51.25 96.0111 51.3233 95.8055 51.4607C95.6 51.598 95.4398 51.7932 95.3452 52.0217C95.2505 52.2501 95.2258 52.5014 95.274 52.7439C95.3223 52.9863 95.4413 53.2091 95.6161 53.3839C95.7909 53.5587 96.0137 53.6778 96.2561 53.726C96.4986 53.7742 96.75 53.7495 96.9784 53.6549C97.2068 53.5602 97.402 53.4 97.5393 53.1945C97.6767 52.9889 97.75 52.7472 97.75 52.5C97.75 52.1685 97.6183 51.8505 97.3839 51.6161C97.1495 51.3817 96.8315 51.25 96.5 51.25Z" fill="#FBC02D"/>
<path d="M105.25 28.75C104.918 28.75 104.601 28.6183 104.366 28.3839C104.132 28.1495 104 27.8315 104 27.5C103.996 24.1859 102.678 21.0086 100.335 18.6652C97.9914 16.3218 94.8141 15.0036 91.5 15C91.1685 15 90.8505 14.8683 90.6161 14.6339C90.3817 14.3995 90.25 14.0815 90.25 13.75C90.25 13.4185 90.3817 13.1005 90.6161 12.8661C90.8505 12.6317 91.1685 12.5 91.5 12.5C95.4769 12.5043 99.2897 14.086 102.102 16.8981C104.914 19.7103 106.496 23.5231 106.5 27.5C106.5 27.8315 106.368 28.1495 106.134 28.3839C105.899 28.6183 105.582 28.75 105.25 28.75Z" fill="#FBC02D"/>
<path d="M100.25 28.75C99.9185 28.75 99.6005 28.6183 99.3661 28.3839C99.1317 28.1495 99 27.8315 99 27.5C98.998 25.5115 98.2072 23.605 96.8011 22.1989C95.395 20.7928 93.4885 20.002 91.5 20C91.1685 20 90.8505 19.8683 90.6161 19.6339C90.3817 19.3995 90.25 19.0815 90.25 18.75C90.25 18.4185 90.3817 18.1005 90.6161 17.8661C90.8505 17.6317 91.1685 17.5 91.5 17.5C94.1513 17.503 96.6931 18.5575 98.5678 20.4322C100.442 22.3069 101.497 24.8487 101.5 27.5C101.5 27.8315 101.368 28.1495 101.134 28.3839C100.899 28.6183 100.582 28.75 100.25 28.75Z" fill="#FBC02D"/>
<path d="M95.25 28.75C94.9185 28.75 94.6005 28.6183 94.3661 28.3839C94.1317 28.1495 94 27.8315 94 27.5C94 26.837 93.7366 26.2011 93.2678 25.7322C92.7989 25.2634 92.163 25 91.5 25C91.1685 25 90.8505 24.8683 90.6161 24.6339C90.3817 24.3995 90.25 24.0815 90.25 23.75C90.25 23.4185 90.3817 23.1005 90.6161 22.8661C90.8505 22.6317 91.1685 22.5 91.5 22.5C92.8261 22.5 94.0979 23.0268 95.0355 23.9645C95.9732 24.9021 96.5 26.1739 96.5 27.5C96.5 27.8315 96.3683 28.1495 96.1339 28.3839C95.8995 28.6183 95.5815 28.75 95.25 28.75Z" fill="#FBC02D"/>
<path d="M260 57L250 51.2265V62.7735L260 57ZM180 58H251V56H180V58Z" fill="white"/>
<path d="M312.098 97.966V102.358H318.416V103.906H312.098V109H310.298V96.4H319.19V97.966H312.098ZM321.296 99.46H323.024V109H321.296V99.46ZM322.16 97.624C321.824 97.624 321.542 97.516 321.314 97.3C321.098 97.084 320.99 96.82 320.99 96.508C320.99 96.196 321.098 95.932 321.314 95.716C321.542 95.488 321.824 95.374 322.16 95.374C322.496 95.374 322.772 95.482 322.988 95.698C323.216 95.902 323.33 96.16 323.33 96.472C323.33 96.796 323.216 97.072 322.988 97.3C322.772 97.516 322.496 97.624 322.16 97.624ZM331.418 99.37C332.63 99.37 333.59 99.724 334.298 100.432C335.018 101.128 335.378 102.154 335.378 103.51V109H333.65V103.708C333.65 102.784 333.428 102.088 332.984 101.62C332.54 101.152 331.904 100.918 331.076 100.918C330.14 100.918 329.402 101.194 328.862 101.746C328.322 102.286 328.052 103.066 328.052 104.086V109H326.324V99.46H327.98V100.9C328.328 100.408 328.796 100.03 329.384 99.766C329.984 99.502 330.662 99.37 331.418 99.37ZM347.628 95.644V109H345.972V107.488C345.588 108.016 345.102 108.418 344.514 108.694C343.926 108.97 343.278 109.108 342.57 109.108C341.646 109.108 340.818 108.904 340.086 108.496C339.354 108.088 338.778 107.518 338.358 106.786C337.95 106.042 337.746 105.19 337.746 104.23C337.746 103.27 337.95 102.424 338.358 101.692C338.778 100.96 339.354 100.39 340.086 99.982C340.818 99.574 341.646 99.37 342.57 99.37C343.254 99.37 343.884 99.502 344.46 99.766C345.036 100.018 345.516 100.396 345.9 100.9V95.644H347.628ZM342.714 107.596C343.314 107.596 343.86 107.458 344.352 107.182C344.844 106.894 345.228 106.498 345.504 105.994C345.78 105.478 345.918 104.89 345.918 104.23C345.918 103.57 345.78 102.988 345.504 102.484C345.228 101.968 344.844 101.572 344.352 101.296C343.86 101.02 343.314 100.882 342.714 100.882C342.102 100.882 341.55 101.02 341.058 101.296C340.578 101.572 340.194 101.968 339.906 102.484C339.63 102.988 339.492 103.57 339.492 104.23C339.492 104.89 339.63 105.478 339.906 105.994C340.194 106.498 340.578 106.894 341.058 107.182C341.55 107.458 342.102 107.596 342.714 107.596ZM367.666 109L367.648 99.82L363.094 107.47H362.266L357.712 99.874V109H355.984V96.4H357.46L362.716 105.256L367.9 96.4H369.376L369.394 109H367.666ZM376.397 99.37C377.717 99.37 378.725 99.694 379.421 100.342C380.129 100.99 380.483 101.956 380.483 103.24V109H378.845V107.74C378.557 108.184 378.143 108.526 377.603 108.766C377.075 108.994 376.445 109.108 375.713 109.108C374.645 109.108 373.787 108.85 373.139 108.334C372.503 107.818 372.185 107.14 372.185 106.3C372.185 105.46 372.491 104.788 373.103 104.284C373.715 103.768 374.687 103.51 376.019 103.51H378.755V103.168C378.755 102.424 378.539 101.854 378.107 101.458C377.675 101.062 377.039 100.864 376.199 100.864C375.635 100.864 375.083 100.96 374.543 101.152C374.003 101.332 373.547 101.578 373.175 101.89L372.455 100.594C372.947 100.198 373.535 99.898 374.219 99.694C374.903 99.478 375.629 99.37 376.397 99.37ZM376.001 107.776C376.661 107.776 377.231 107.632 377.711 107.344C378.191 107.044 378.539 106.624 378.755 106.084V104.752H376.091C374.627 104.752 373.895 105.244 373.895 106.228C373.895 106.708 374.081 107.086 374.453 107.362C374.825 107.638 375.341 107.776 376.001 107.776ZM389.045 108.442C388.793 108.658 388.481 108.826 388.109 108.946C387.737 109.054 387.353 109.108 386.957 109.108C385.997 109.108 385.253 108.85 384.725 108.334C384.197 107.818 383.933 107.08 383.933 106.12V100.882H382.313V99.46H383.933V97.372H385.661V99.46H388.397V100.882H385.661V106.048C385.661 106.564 385.787 106.96 386.039 107.236C386.303 107.512 386.675 107.65 387.155 107.65C387.683 107.65 388.133 107.5 388.505 107.2L389.045 108.442ZM394.976 109.108C394.004 109.108 393.134 108.898 392.366 108.478C391.61 108.058 391.016 107.482 390.584 106.75C390.152 106.006 389.936 105.166 389.936 104.23C389.936 103.294 390.152 102.46 390.584 101.728C391.016 100.984 391.61 100.408 392.366 100C393.134 99.58 394.004 99.37 394.976 99.37C395.84 99.37 396.608 99.544 397.28 99.892C397.964 100.24 398.492 100.744 398.864 101.404L397.55 102.25C397.25 101.794 396.878 101.452 396.434 101.224C395.99 100.996 395.498 100.882 394.958 100.882C394.334 100.882 393.77 101.02 393.266 101.296C392.774 101.572 392.384 101.968 392.096 102.484C391.82 102.988 391.682 103.57 391.682 104.23C391.682 104.902 391.82 105.496 392.096 106.012C392.384 106.516 392.774 106.906 393.266 107.182C393.77 107.458 394.334 107.596 394.958 107.596C395.498 107.596 395.99 107.482 396.434 107.254C396.878 107.026 397.25 106.684 397.55 106.228L398.864 107.056C398.492 107.716 397.964 108.226 397.28 108.586C396.608 108.934 395.84 109.108 394.976 109.108ZM406.072 99.37C407.284 99.37 408.244 99.724 408.952 100.432C409.672 101.128 410.032 102.154 410.032 103.51V109H408.304V103.708C408.304 102.784 408.082 102.088 407.638 101.62C407.194 101.152 406.558 100.918 405.73 100.918C404.794 100.918 404.056 101.194 403.516 101.746C402.976 102.286 402.706 103.066 402.706 104.086V109H400.978V95.644H402.706V100.81C403.066 100.354 403.534 100 404.11 99.748C404.698 99.496 405.352 99.37 406.072 99.37Z" fill="white"/>
<path d="M340.209 31.2832C335.12 31.2832 331 35.4028 331 40.4918C331 45.5808 335.12 49.7004 340.209 49.7004C345.298 49.7004 349.417 45.5808 349.417 40.4918C349.401 35.419 345.281 31.2994 340.209 31.2832ZM340.209 46.4693C336.913 46.4693 334.231 43.8037 334.231 40.4918C334.231 37.1961 336.897 34.5143 340.209 34.5143C343.504 34.5143 346.186 37.1799 346.186 40.4918C346.17 43.7875 343.504 46.4532 340.209 46.4693Z" fill="white"/>
<path d="M386.575 33.8691H353.698C352.81 33.8691 352.083 34.5961 352.083 35.4847C352.083 36.3732 352.81 37.1002 353.698 37.1002H386.575C387.463 37.1002 388.19 36.3732 388.19 35.4847C388.19 34.5961 387.463 33.8691 386.575 33.8691Z" fill="white"/>
<path d="M371.405 43.8848H353.698C352.81 43.8848 352.083 44.6118 352.083 45.5003C352.083 46.3889 352.794 47.1159 353.698 47.1159H371.405C372.293 47.1159 373.02 46.3889 373.02 45.5003C373.02 44.6118 372.293 43.8848 371.405 43.8848Z" fill="#FBC02D"/>
<path d="M340.209 6C335.12 6 331 10.1196 331 15.2086C331 20.2976 335.12 24.4172 340.209 24.4172C345.298 24.4172 349.417 20.2976 349.417 15.2086C349.401 10.1196 345.281 6 340.209 6ZM340.209 21.17C336.913 21.17 334.231 18.5043 334.231 15.1925C334.231 11.8806 336.897 9.21494 340.209 9.21494C343.504 9.21494 346.186 11.8806 346.186 15.1925C346.17 18.5043 343.504 21.17 340.209 21.17Z" fill="white"/>
<path d="M386.575 8.50195H353.698C352.81 8.50195 352.083 9.22895 352.083 10.1175C352.083 11.006 352.81 11.733 353.698 11.733H386.575C387.463 11.733 388.19 11.006 388.19 10.1175C388.19 9.22895 387.463 8.50195 386.575 8.50195Z" fill="white"/>
<path d="M371.405 18.6816H353.698C352.81 18.6816 352.083 19.4086 352.083 20.2972C352.083 21.1857 352.794 21.9127 353.698 21.9127H371.405C372.293 21.9127 373.02 21.1857 373.02 20.2972C373.02 19.4086 372.293 18.6816 371.405 18.6816Z" fill="#FBC02D"/>
<path d="M340.209 56.582C335.12 56.582 331 60.7017 331 65.7906C331 70.8796 335.12 74.9993 340.209 74.9993C345.298 74.9993 349.417 70.8796 349.417 65.7906C349.401 60.7017 345.281 56.582 340.209 56.582ZM340.209 71.752C336.913 71.752 334.231 69.0864 334.231 65.7745C334.231 62.4788 336.897 59.797 340.209 59.797C343.504 59.797 346.186 62.4626 346.186 65.7745C346.17 69.0864 343.504 71.752 340.209 71.752Z" fill="white"/>
<path d="M386.575 59.0723H353.698C352.81 59.0723 352.083 59.7993 352.083 60.6878C352.083 61.5764 352.81 62.3034 353.698 62.3034H386.575C387.463 62.3034 388.19 61.5764 388.19 60.6878C388.19 59.7993 387.463 59.0723 386.575 59.0723Z" fill="white"/>
<path d="M371.405 69.248H353.698C352.81 69.248 352.083 69.975 352.083 70.8636C352.083 71.7521 352.81 72.4791 353.698 72.4791H371.405C372.293 72.4791 373.02 71.7521 373.02 70.8636C373.02 69.975 372.293 69.248 371.405 69.248Z" fill="#FBC02D"/>
<path d="M540 57L530 51.2265V62.7735L540 57ZM460 58H531V56H460V58Z" fill="white"/>
<path d="M613.878 96.4C615.51 96.4 616.794 96.79 617.73 97.57C618.666 98.35 619.134 99.424 619.134 100.792C619.134 102.16 618.666 103.234 617.73 104.014C616.794 104.794 615.51 105.184 613.878 105.184H610.764V109H608.964V96.4H613.878ZM613.824 103.618C614.964 103.618 615.834 103.378 616.434 102.898C617.034 102.406 617.334 101.704 617.334 100.792C617.334 99.88 617.034 99.184 616.434 98.704C615.834 98.212 614.964 97.966 613.824 97.966H610.764V103.618H613.824ZM623.024 101.062C623.324 100.51 623.768 100.09 624.356 99.802C624.944 99.514 625.658 99.37 626.498 99.37V101.044C626.402 101.032 626.27 101.026 626.102 101.026C625.166 101.026 624.428 101.308 623.888 101.872C623.36 102.424 623.096 103.216 623.096 104.248V109H621.368V99.46H623.024V101.062ZM637.162 104.284C637.162 104.416 637.15 104.59 637.126 104.806H629.386C629.494 105.646 629.86 106.324 630.484 106.84C631.12 107.344 631.906 107.596 632.842 107.596C633.982 107.596 634.9 107.212 635.596 106.444L636.55 107.56C636.118 108.064 635.578 108.448 634.93 108.712C634.294 108.976 633.58 109.108 632.788 109.108C631.78 109.108 630.886 108.904 630.106 108.496C629.326 108.076 628.72 107.494 628.288 106.75C627.868 106.006 627.658 105.166 627.658 104.23C627.658 103.306 627.862 102.472 628.27 101.728C628.69 100.984 629.26 100.408 629.98 100C630.712 99.58 631.534 99.37 632.446 99.37C633.358 99.37 634.168 99.58 634.876 100C635.596 100.408 636.154 100.984 636.55 101.728C636.958 102.472 637.162 103.324 637.162 104.284ZM632.446 100.828C631.618 100.828 630.922 101.08 630.358 101.584C629.806 102.088 629.482 102.748 629.386 103.564H635.506C635.41 102.76 635.08 102.106 634.516 101.602C633.964 101.086 633.274 100.828 632.446 100.828ZM648.561 95.644V109H646.905V107.488C646.521 108.016 646.035 108.418 645.447 108.694C644.859 108.97 644.211 109.108 643.503 109.108C642.579 109.108 641.751 108.904 641.019 108.496C640.287 108.088 639.711 107.518 639.291 106.786C638.883 106.042 638.679 105.19 638.679 104.23C638.679 103.27 638.883 102.424 639.291 101.692C639.711 100.96 640.287 100.39 641.019 99.982C641.751 99.574 642.579 99.37 643.503 99.37C644.187 99.37 644.817 99.502 645.393 99.766C645.969 100.018 646.449 100.396 646.833 100.9V95.644H648.561ZM643.647 107.596C644.247 107.596 644.793 107.458 645.285 107.182C645.777 106.894 646.161 106.498 646.437 105.994C646.713 105.478 646.851 104.89 646.851 104.23C646.851 103.57 646.713 102.988 646.437 102.484C646.161 101.968 645.777 101.572 645.285 101.296C644.793 101.02 644.247 100.882 643.647 100.882C643.035 100.882 642.483 101.02 641.991 101.296C641.511 101.572 641.127 101.968 640.839 102.484C640.563 102.988 640.425 103.57 640.425 104.23C640.425 104.89 640.563 105.478 640.839 105.994C641.127 106.498 641.511 106.894 641.991 107.182C642.483 107.458 643.035 107.596 643.647 107.596ZM651.831 99.46H653.559V109H651.831V99.46ZM652.695 97.624C652.359 97.624 652.077 97.516 651.849 97.3C651.633 97.084 651.525 96.82 651.525 96.508C651.525 96.196 651.633 95.932 651.849 95.716C652.077 95.488 652.359 95.374 652.695 95.374C653.031 95.374 653.307 95.482 653.523 95.698C653.751 95.902 653.865 96.16 653.865 96.472C653.865 96.796 653.751 97.072 653.523 97.3C653.307 97.516 653.031 97.624 652.695 97.624ZM661.016 109.108C660.044 109.108 659.174 108.898 658.406 108.478C657.65 108.058 657.056 107.482 656.624 106.75C656.192 106.006 655.976 105.166 655.976 104.23C655.976 103.294 656.192 102.46 656.624 101.728C657.056 100.984 657.65 100.408 658.406 100C659.174 99.58 660.044 99.37 661.016 99.37C661.88 99.37 662.648 99.544 663.32 99.892C664.004 100.24 664.532 100.744 664.904 101.404L663.59 102.25C663.29 101.794 662.918 101.452 662.474 101.224C662.03 100.996 661.538 100.882 660.998 100.882C660.374 100.882 659.81 101.02 659.306 101.296C658.814 101.572 658.424 101.968 658.136 102.484C657.86 102.988 657.722 103.57 657.722 104.23C657.722 104.902 657.86 105.496 658.136 106.012C658.424 106.516 658.814 106.906 659.306 107.182C659.81 107.458 660.374 107.596 660.998 107.596C661.538 107.596 662.03 107.482 662.474 107.254C662.918 107.026 663.29 106.684 663.59 106.228L664.904 107.056C664.532 107.716 664.004 108.226 663.32 108.586C662.648 108.934 661.88 109.108 661.016 109.108ZM672.628 108.442C672.376 108.658 672.064 108.826 671.692 108.946C671.32 109.054 670.936 109.108 670.54 109.108C669.58 109.108 668.836 108.85 668.308 108.334C667.78 107.818 667.516 107.08 667.516 106.12V100.882H665.896V99.46H667.516V97.372H669.244V99.46H671.98V100.882H669.244V106.048C669.244 106.564 669.37 106.96 669.622 107.236C669.886 107.512 670.258 107.65 670.738 107.65C671.266 107.65 671.716 107.5 672.088 107.2L672.628 108.442Z" fill="white"/>
<g clip-path="url(#clip0_1205_623)">
<path d="M671.514 41.6815C671.723 40.3822 671.856 39.0724 671.915 37.7578C671.953 37.5961 671.961 37.4288 671.937 37.2647C671.953 36.8417 671.996 36.4285 671.996 36.0019C672.001 27.3434 668.871 18.9753 663.184 12.4455C663.144 12.3924 663.099 12.3424 663.051 12.2966C659.228 7.93284 654.41 4.55351 649.005 2.44487C648.966 2.429 648.929 2.41313 648.888 2.3997C640.593 -0.794693 631.407 -0.794693 623.112 2.3997C623.069 2.41313 623.027 2.42961 622.987 2.44914C617.583 4.55656 612.765 7.93406 608.942 12.2966C608.894 12.3424 608.849 12.3924 608.809 12.4455C603.123 18.9759 599.994 27.3434 600 36.0019C600 36.4468 600.017 36.8887 600.034 37.3348V37.4032C600.676 53.3727 611.754 67.0139 627.252 70.92H627.262C630.119 71.6359 633.053 71.999 635.998 71.9996C637.901 71.9941 639.801 71.833 641.678 71.5187C646.687 78.1675 655.111 81.2892 663.244 79.5114C671.377 77.7335 677.729 71.3808 679.508 63.2477C681.286 55.1152 678.164 46.691 671.514 41.6815ZM658.663 37.3348C655.676 37.3361 652.722 37.9696 649.997 39.1939L651.784 32.9351L659.741 29.5594L669.24 38.0019C669.199 38.6977 669.137 39.38 669.054 40.0575C665.881 38.2723 662.303 37.3348 658.663 37.3348ZM639.511 49.3343H627.671L622.87 32.5353L635.998 22.9839L649.127 32.5353L646.703 41.0151C643.624 43.1164 641.145 45.9836 639.511 49.3343ZM620.856 54.5916L607.208 52.7649C604.572 48.2632 603.038 43.2012 602.732 37.9934L612.253 29.5582L620.212 32.9351L625.168 50.2797L620.856 54.5916ZM610.579 27.4795L602.705 34.4554C603.001 27.9665 605.197 21.7071 609.021 16.4565L610.579 27.4795ZM662.976 16.459C666.804 21.7144 669 27.9799 669.292 34.4755L661.418 27.4795L662.976 16.459ZM660.683 13.6271L658.782 27.0687L650.797 30.4541L637.331 20.6573V10.1941L648.5 5.11134C653.147 7.00149 657.311 9.91148 660.682 13.6271H660.683ZM644.811 3.8608L635.998 7.86997L627.185 3.8608C632.953 2.27337 639.043 2.27337 644.811 3.8608ZM623.496 5.11134L634.665 10.1953V20.6573L621.199 30.4541L613.214 27.0687L611.314 13.6271C614.685 9.91148 618.848 7.00149 623.496 5.11134ZM609.142 55.7151L620.428 57.2245L625.179 67.5211C618.759 65.3038 613.166 61.186 609.142 55.7151ZM635.998 69.3331C633.495 69.3319 631 69.0475 628.561 68.4866L622.932 56.2858L627.217 52.0008H638.416C636.534 57.6627 637.128 63.8568 640.054 69.0573C638.709 69.2324 637.354 69.3246 635.998 69.3331ZM658.663 77.3326C651.114 77.3326 644.308 72.7851 641.419 65.8104C638.529 58.8351 640.127 50.807 645.465 45.4685C650.803 40.1301 658.831 38.5335 665.806 41.4221C672.781 44.3114 677.329 51.1176 677.329 58.6672C677.318 68.9712 668.968 77.3216 658.663 77.3326Z" fill="white"/>
<path d="M658.663 42.668C649.827 42.668 642.664 49.8313 642.664 58.6674C642.664 67.5036 649.827 74.6663 658.663 74.6663C667.499 74.6663 674.662 67.5036 674.662 58.6674C674.653 49.8355 667.496 42.6777 658.663 42.668ZM658.663 71.9998C651.3 71.9998 645.331 66.0309 645.331 58.6674C645.331 51.3039 651.3 45.3351 658.663 45.3351C666.027 45.3351 671.996 51.3039 671.996 58.6674C671.988 66.0272 666.023 71.9919 658.663 71.9998Z" fill="white"/>
<path d="M635.115 26.9248L627.425 32.5245C626.543 33.1605 626.139 34.2706 626.405 35.3246L627.973 41.6671C628.12 42.2615 628.654 42.6796 629.266 42.6802C629.374 42.6796 629.482 42.6668 629.587 42.6417C629.931 42.5569 630.226 42.339 630.41 42.0363C630.592 41.7336 630.647 41.3704 630.562 41.0268L628.993 34.6698L636.683 29.078C637.279 28.6453 637.411 27.8116 636.978 27.216C636.545 26.6197 635.711 26.4879 635.115 26.9212V26.9248Z" fill="#FBC02D"/>
<path d="M661.33 62.6674H659.997V53.335C659.997 52.7955 659.672 52.3097 659.173 52.1034C658.675 51.8971 658.102 52.0113 657.721 52.3921L655.054 55.0586C654.549 55.5816 654.556 56.4135 655.071 56.928C655.585 57.4419 656.417 57.4492 656.94 56.9439L657.33 56.5533V62.6674H655.997C655.261 62.6674 654.664 63.2649 654.664 64.001C654.664 64.737 655.261 65.3345 655.997 65.3345H661.33C662.066 65.3345 662.663 64.737 662.663 64.001C662.663 63.2649 662.066 62.6674 661.33 62.6674Z" fill="#FBC02D"/>
</g>
<path d="M820 57L810 51.2265V62.7735L820 57ZM740 58H811V56H740V58Z" fill="white"/>
<path d="M865.657 109.144C864.397 109.144 863.257 108.868 862.237 108.316C861.229 107.752 860.437 106.984 859.861 106.012C859.285 105.028 858.997 103.924 858.997 102.7C858.997 101.476 859.285 100.378 859.861 99.406C860.437 98.422 861.235 97.654 862.255 97.102C863.275 96.538 864.415 96.256 865.675 96.256C866.659 96.256 867.559 96.424 868.375 96.76C869.191 97.084 869.887 97.57 870.463 98.218L869.293 99.352C868.345 98.356 867.163 97.858 865.747 97.858C864.811 97.858 863.965 98.068 863.209 98.488C862.453 98.908 861.859 99.49 861.427 100.234C861.007 100.966 860.797 101.788 860.797 102.7C860.797 103.612 861.007 104.44 861.427 105.184C861.859 105.916 862.453 106.492 863.209 106.912C863.965 107.332 864.811 107.542 865.747 107.542C867.151 107.542 868.333 107.038 869.293 106.03L870.463 107.164C869.887 107.812 869.185 108.304 868.357 108.64C867.541 108.976 866.641 109.144 865.657 109.144ZM872.779 95.644H874.507V109H872.779V95.644ZM881.28 99.37C882.6 99.37 883.608 99.694 884.304 100.342C885.012 100.99 885.366 101.956 885.366 103.24V109H883.728V107.74C883.44 108.184 883.026 108.526 882.486 108.766C881.958 108.994 881.328 109.108 880.596 109.108C879.528 109.108 878.67 108.85 878.022 108.334C877.386 107.818 877.068 107.14 877.068 106.3C877.068 105.46 877.374 104.788 877.986 104.284C878.598 103.768 879.57 103.51 880.902 103.51H883.638V103.168C883.638 102.424 883.422 101.854 882.99 101.458C882.558 101.062 881.922 100.864 881.082 100.864C880.518 100.864 879.966 100.96 879.426 101.152C878.886 101.332 878.43 101.578 878.058 101.89L877.338 100.594C877.83 100.198 878.418 99.898 879.102 99.694C879.786 99.478 880.512 99.37 881.28 99.37ZM880.884 107.776C881.544 107.776 882.114 107.632 882.594 107.344C883.074 107.044 883.422 106.624 883.638 106.084V104.752H880.974C879.51 104.752 878.778 105.244 878.778 106.228C878.778 106.708 878.964 107.086 879.336 107.362C879.708 107.638 880.224 107.776 880.884 107.776ZM888.564 99.46H890.292V109H888.564V99.46ZM889.428 97.624C889.092 97.624 888.81 97.516 888.582 97.3C888.366 97.084 888.258 96.82 888.258 96.508C888.258 96.196 888.366 95.932 888.582 95.716C888.81 95.488 889.092 95.374 889.428 95.374C889.764 95.374 890.04 95.482 890.256 95.698C890.484 95.902 890.598 96.16 890.598 96.472C890.598 96.796 890.484 97.072 890.256 97.3C890.04 97.516 889.764 97.624 889.428 97.624ZM905.525 99.37C906.725 99.37 907.673 99.718 908.369 100.414C909.077 101.11 909.431 102.142 909.431 103.51V109H907.703V103.708C907.703 102.784 907.487 102.088 907.055 101.62C906.635 101.152 906.029 100.918 905.237 100.918C904.361 100.918 903.665 101.194 903.149 101.746C902.633 102.286 902.375 103.066 902.375 104.086V109H900.647V103.708C900.647 102.784 900.431 102.088 899.999 101.62C899.579 101.152 898.973 100.918 898.181 100.918C897.305 100.918 896.609 101.194 896.093 101.746C895.577 102.286 895.319 103.066 895.319 104.086V109H893.591V99.46H895.247V100.882C895.595 100.39 896.051 100.018 896.615 99.766C897.179 99.502 897.821 99.37 898.541 99.37C899.285 99.37 899.945 99.52 900.521 99.82C901.097 100.12 901.541 100.558 901.853 101.134C902.213 100.582 902.711 100.15 903.347 99.838C903.995 99.526 904.721 99.37 905.525 99.37ZM935.499 96.4L931.287 109H929.397L925.959 98.938L922.521 109H920.595L916.383 96.4H918.237L921.639 106.642L925.185 96.4H926.841L930.315 106.696L933.789 96.4H935.499ZM937.466 99.46H939.194V109H937.466V99.46ZM938.33 97.624C937.994 97.624 937.712 97.516 937.484 97.3C937.268 97.084 937.16 96.82 937.16 96.508C937.16 96.196 937.268 95.932 937.484 95.716C937.712 95.488 937.994 95.374 938.33 95.374C938.666 95.374 938.942 95.482 939.158 95.698C939.386 95.902 939.5 96.16 939.5 96.472C939.5 96.796 939.386 97.072 939.158 97.3C938.942 97.516 938.666 97.624 938.33 97.624ZM947.587 99.37C948.799 99.37 949.759 99.724 950.467 100.432C951.187 101.128 951.547 102.154 951.547 103.51V109H949.819V103.708C949.819 102.784 949.597 102.088 949.153 101.62C948.709 101.152 948.073 100.918 947.245 100.918C946.309 100.918 945.571 101.194 945.031 101.746C944.491 102.286 944.221 103.066 944.221 104.086V109H942.493V99.46H944.149V100.9C944.497 100.408 944.965 100.03 945.553 99.766C946.153 99.502 946.831 99.37 947.587 99.37ZM954.745 99.46H956.473V109H954.745V99.46ZM955.609 97.624C955.273 97.624 954.991 97.516 954.763 97.3C954.547 97.084 954.439 96.82 954.439 96.508C954.439 96.196 954.547 95.932 954.763 95.716C954.991 95.488 955.273 95.374 955.609 95.374C955.945 95.374 956.221 95.482 956.437 95.698C956.665 95.902 956.779 96.16 956.779 96.472C956.779 96.796 956.665 97.072 956.437 97.3C956.221 97.516 955.945 97.624 955.609 97.624ZM964.867 99.37C966.079 99.37 967.039 99.724 967.747 100.432C968.467 101.128 968.827 102.154 968.827 103.51V109H967.099V103.708C967.099 102.784 966.877 102.088 966.433 101.62C965.989 101.152 965.353 100.918 964.525 100.918C963.589 100.918 962.851 101.194 962.311 101.746C961.771 102.286 961.501 103.066 961.501 104.086V109H959.773V99.46H961.429V100.9C961.777 100.408 962.245 100.03 962.833 99.766C963.433 99.502 964.111 99.37 964.867 99.37ZM981.203 99.46V107.704C981.203 109.372 980.789 110.602 979.961 111.394C979.133 112.198 977.897 112.6 976.253 112.6C975.353 112.6 974.495 112.474 973.679 112.222C972.863 111.982 972.203 111.634 971.699 111.178L972.527 109.846C972.971 110.23 973.517 110.53 974.165 110.746C974.825 110.974 975.503 111.088 976.199 111.088C977.315 111.088 978.137 110.824 978.665 110.296C979.205 109.768 979.475 108.964 979.475 107.884V107.128C979.067 107.62 978.563 107.992 977.963 108.244C977.375 108.484 976.733 108.604 976.037 108.604C975.125 108.604 974.297 108.412 973.553 108.028C972.821 107.632 972.245 107.086 971.825 106.39C971.405 105.682 971.195 104.878 971.195 103.978C971.195 103.078 971.405 102.28 971.825 101.584C972.245 100.876 972.821 100.33 973.553 99.946C974.297 99.562 975.125 99.37 976.037 99.37C976.757 99.37 977.423 99.502 978.035 99.766C978.659 100.03 979.169 100.42 979.565 100.936V99.46H981.203ZM976.235 107.092C976.859 107.092 977.417 106.96 977.909 106.696C978.413 106.432 978.803 106.066 979.079 105.598C979.367 105.118 979.511 104.578 979.511 103.978C979.511 103.054 979.205 102.31 978.593 101.746C977.981 101.17 977.195 100.882 976.235 100.882C975.263 100.882 974.471 101.17 973.859 101.746C973.247 102.31 972.941 103.054 972.941 103.978C972.941 104.578 973.079 105.118 973.355 105.598C973.643 106.066 974.033 106.432 974.525 106.696C975.029 106.96 975.599 107.092 976.235 107.092Z" fill="white"/>
<path d="M947.26 31.9743H917.459C918.837 30.3903 919.674 28.3239 919.674 26.0644C919.674 21.0921 915.629 17.0469 910.656 17.0469C905.684 17.0469 901.639 21.0921 901.639 26.0644C901.639 28.3239 902.476 30.3903 903.854 31.9743H896.74C892.441 31.9743 888.944 35.4718 888.944 39.7707V48.9701C888.944 49.8313 889.642 50.5294 890.503 50.5294C891.364 50.5294 892.062 49.8313 892.062 48.9701V39.7707C892.062 37.1913 894.161 35.0929 896.74 35.0929H940.4C942.979 35.0929 945.077 37.1913 945.077 39.7707V48.1907H928.861C924.562 48.1907 921.065 51.6881 921.065 55.987C921.065 60.2859 924.562 63.7833 928.861 63.7833H945.077V72.2033C945.077 74.7827 942.979 76.8811 940.4 76.8811H896.74C894.161 76.8811 892.062 74.7827 892.062 72.2033V62.9915C892.062 62.1303 891.364 61.4323 890.503 61.4323C889.642 61.4323 888.944 62.1303 888.944 62.9915V72.2033C888.944 76.5022 892.441 79.9997 896.74 79.9997H947.26C951.559 79.9997 955.057 76.5022 955.057 72.2033V39.7707C955.057 35.4718 951.559 31.9743 947.26 31.9743ZM910.656 20.1656C913.909 20.1656 916.555 22.8118 916.555 26.0646C916.555 29.3173 913.909 31.9636 910.656 31.9636C907.404 31.9636 904.757 29.3173 904.757 26.0646C904.757 22.8118 907.404 20.1656 910.656 20.1656ZM946.632 35.0929H947.26C949.84 35.0929 951.938 37.1913 951.938 39.7707V48.1907H948.196V39.7707C948.196 38.0169 947.613 36.3969 946.632 35.0929ZM924.183 55.987C924.183 53.4077 926.282 51.3092 928.861 51.3092H951.938V60.6648H928.861C926.282 60.6648 924.183 58.5663 924.183 55.987ZM947.26 76.8811H946.632C947.613 75.5771 948.196 73.9572 948.196 72.2033V63.7833H951.938V72.2033C951.938 74.7827 949.84 76.8811 947.26 76.8811Z" fill="#EEEEEE"/>
<path d="M928.462 54.4277C928.05 54.4277 927.648 54.5946 927.358 54.8846C927.068 55.1746 926.903 55.5769 926.903 55.987C926.903 56.3971 927.068 56.7994 927.358 57.0894C927.649 57.3794 928.05 57.5463 928.462 57.5463C928.872 57.5463 929.273 57.3794 929.564 57.0894C929.854 56.7994 930.021 56.3971 930.021 55.987C930.021 55.5769 929.854 55.1746 929.564 54.8846C929.274 54.5944 928.872 54.4277 928.462 54.4277Z" fill="#FBC02D"/>
<path d="M933.344 21.4647C938.316 21.4647 942.361 17.4195 942.361 12.4472C942.361 7.47504 938.316 3.42969 933.344 3.42969C928.372 3.42969 924.326 7.47488 924.326 12.4472C924.326 17.4195 928.372 21.4647 933.344 21.4647ZM933.344 6.54837C936.597 6.54837 939.243 9.19459 939.243 12.4474C939.243 15.7002 936.597 18.3464 933.344 18.3464C930.091 18.3464 927.445 15.7002 927.445 12.4474C927.445 9.19459 930.091 6.54837 933.344 6.54837Z" fill="#FBC02D"/>
<path d="M918.114 15.3714C918.976 15.3714 919.674 14.6733 919.674 13.8121V1.55926C919.674 0.698082 918.976 0 918.114 0C917.253 0 916.555 0.698082 916.555 1.55926V13.8121C916.555 14.6733 917.253 15.3714 918.114 15.3714Z" fill="#FBC02D"/>
<path d="M910.63 9.97928C911.491 9.97928 912.189 9.2812 912.189 8.42002V1.55926C912.189 0.698082 911.491 0 910.63 0C909.769 0 909.071 0.698082 909.071 1.55926V8.42002C909.071 9.2812 909.769 9.97928 910.63 9.97928Z" fill="#FBC02D"/>
<path d="M890.503 57.5463C890.913 57.5463 891.315 57.3794 891.606 57.0894C891.896 56.7994 892.062 56.3971 892.062 55.987C892.062 55.5769 891.896 55.1746 891.606 54.8846C891.315 54.5946 890.915 54.4277 890.503 54.4277C890.093 54.4277 889.691 54.5946 889.401 54.8846C889.111 55.1746 888.944 55.5769 888.944 55.987C888.944 56.3971 889.111 56.7994 889.401 57.0894C889.691 57.3794 890.093 57.5463 890.503 57.5463Z" fill="#EEEEEE"/>
<defs>
<clipPath id="clip0_1205_623">
<rect width="80" height="80" fill="white" transform="translate(600)"/>
</clipPath>
</defs>
</svg>
