<svg width="126" height="588" viewBox="0 0 126 588" fill="none" xmlns="http://www.w3.org/2000/svg">
<path d="M6.688 92.128C5.568 92.128 4.55467 91.8827 3.648 91.392C2.752 90.8907 2.048 90.208 1.536 89.344C1.024 88.4693 0.768 87.488 0.768 86.4C0.768 85.312 1.024 84.336 1.536 83.472C2.048 82.5973 2.75733 81.9147 3.664 81.424C4.57067 80.9227 5.584 80.672 6.704 80.672C7.57867 80.672 8.37867 80.8213 9.104 81.12C9.82933 81.408 10.448 81.84 10.96 82.416L9.92 83.424C9.07733 82.5387 8.02667 82.096 6.768 82.096C5.936 82.096 5.184 82.2827 4.512 82.656C3.84 83.0293 3.312 83.5467 2.928 84.208C2.55467 84.8587 2.368 85.5893 2.368 86.4C2.368 87.2107 2.55467 87.9467 2.928 88.608C3.312 89.2587 3.84 89.7707 4.512 90.144C5.184 90.5173 5.936 90.704 6.768 90.704C8.016 90.704 9.06667 90.256 9.92 89.36L10.96 90.368C10.448 90.944 9.824 91.3813 9.088 91.68C8.36267 91.9787 7.56267 92.128 6.688 92.128ZM16.2911 92.096C15.4485 92.096 14.6911 91.9093 14.0191 91.536C13.3471 91.1627 12.8191 90.6507 12.4351 90C12.0618 89.3387 11.8751 88.592 11.8751 87.76C11.8751 86.928 12.0618 86.1867 12.4351 85.536C12.8191 84.8747 13.3471 84.3627 14.0191 84C14.6911 83.6267 15.4485 83.44 16.2911 83.44C17.1338 83.44 17.8858 83.6267 18.5471 84C19.2191 84.3627 19.7418 84.8747 20.1151 85.536C20.4991 86.1867 20.6911 86.928 20.6911 87.76C20.6911 88.592 20.4991 89.3387 20.1151 90C19.7418 90.6507 19.2191 91.1627 18.5471 91.536C17.8858 91.9093 17.1338 92.096 16.2911 92.096ZM16.2911 90.752C16.8351 90.752 17.3205 90.6293 17.7471 90.384C18.1845 90.128 18.5258 89.776 18.7711 89.328C19.0165 88.8693 19.1391 88.3467 19.1391 87.76C19.1391 87.1733 19.0165 86.656 18.7711 86.208C18.5258 85.7493 18.1845 85.3973 17.7471 85.152C17.3205 84.9067 16.8351 84.784 16.2911 84.784C15.7471 84.784 15.2565 84.9067 14.8191 85.152C14.3925 85.3973 14.0511 85.7493 13.7951 86.208C13.5498 86.656 13.4271 87.1733 13.4271 87.76C13.4271 88.3467 13.5498 88.8693 13.7951 89.328C14.0511 89.776 14.3925 90.128 14.8191 90.384C15.2565 90.6293 15.7471 90.752 16.2911 90.752ZM27.3434 83.44C28.4207 83.44 29.274 83.7547 29.9034 84.384C30.5434 85.0027 30.8634 85.9147 30.8634 87.12V92H29.3274V87.296C29.3274 86.4747 29.13 85.856 28.7354 85.44C28.3407 85.024 27.7754 84.816 27.0394 84.816C26.2074 84.816 25.5514 85.0613 25.0714 85.552C24.5914 86.032 24.3514 86.7253 24.3514 87.632V92H22.8154V83.52H24.2874V84.8C24.5967 84.3627 25.0127 84.0267 25.5354 83.792C26.0687 83.5573 26.6714 83.44 27.3434 83.44ZM38.234 83.44C39.3113 83.44 40.1647 83.7547 40.794 84.384C41.434 85.0027 41.754 85.9147 41.754 87.12V92H40.218V87.296C40.218 86.4747 40.0207 85.856 39.626 85.44C39.2313 85.024 38.666 84.816 37.93 84.816C37.098 84.816 36.442 85.0613 35.962 85.552C35.482 86.032 35.242 86.7253 35.242 87.632V92H33.706V83.52H35.178V84.8C35.4873 84.3627 35.9033 84.0267 36.426 83.792C36.9593 83.5573 37.562 83.44 38.234 83.44ZM52.3075 87.808C52.3075 87.9253 52.2968 88.08 52.2755 88.272H45.3955C45.4915 89.0187 45.8168 89.6213 46.3715 90.08C46.9368 90.528 47.6355 90.752 48.4675 90.752C49.4808 90.752 50.2968 90.4107 50.9155 89.728L51.7635 90.72C51.3795 91.168 50.8995 91.5093 50.3235 91.744C49.7582 91.9787 49.1235 92.096 48.4195 92.096C47.5235 92.096 46.7288 91.9147 46.0355 91.552C45.3422 91.1787 44.8035 90.6613 44.4195 90C44.0462 89.3387 43.8595 88.592 43.8595 87.76C43.8595 86.9387 44.0408 86.1973 44.4035 85.536C44.7768 84.8747 45.2835 84.3627 45.9235 84C46.5742 83.6267 47.3048 83.44 48.1155 83.44C48.9262 83.44 49.6462 83.6267 50.2755 84C50.9155 84.3627 51.4115 84.8747 51.7635 85.536C52.1262 86.1973 52.3075 86.9547 52.3075 87.808ZM48.1155 84.736C47.3795 84.736 46.7608 84.96 46.2595 85.408C45.7688 85.856 45.4808 86.4427 45.3955 87.168H50.8355C50.7502 86.4533 50.4568 85.872 49.9555 85.424C49.4648 84.9653 48.8515 84.736 48.1155 84.736ZM58.1364 92.096C57.2724 92.096 56.499 91.9093 55.8164 91.536C55.1444 91.1627 54.6164 90.6507 54.2324 90C53.8484 89.3387 53.6564 88.592 53.6564 87.76C53.6564 86.928 53.8484 86.1867 54.2324 85.536C54.6164 84.8747 55.1444 84.3627 55.8164 84C56.499 83.6267 57.2724 83.44 58.1364 83.44C58.9044 83.44 59.587 83.5947 60.1844 83.904C60.7924 84.2133 61.2617 84.6613 61.5924 85.248L60.4244 86C60.1577 85.5947 59.827 85.2907 59.4324 85.088C59.0377 84.8853 58.6004 84.784 58.1204 84.784C57.5657 84.784 57.0644 84.9067 56.6164 85.152C56.179 85.3973 55.8324 85.7493 55.5764 86.208C55.331 86.656 55.2084 87.1733 55.2084 87.76C55.2084 88.3573 55.331 88.8853 55.5764 89.344C55.8324 89.792 56.179 90.1387 56.6164 90.384C57.0644 90.6293 57.5657 90.752 58.1204 90.752C58.6004 90.752 59.0377 90.6507 59.4324 90.448C59.827 90.2453 60.1577 89.9413 60.4244 89.536L61.5924 90.272C61.2617 90.8587 60.7924 91.312 60.1844 91.632C59.587 91.9413 58.9044 92.096 58.1364 92.096ZM68.4584 91.504C68.2344 91.696 67.957 91.8453 67.6264 91.952C67.2957 92.048 66.9544 92.096 66.6024 92.096C65.749 92.096 65.0877 91.8667 64.6184 91.408C64.149 90.9493 63.9144 90.2933 63.9144 89.44V84.784H62.4744V83.52H63.9144V81.664H65.4504V83.52H67.8824V84.784H65.4504V89.376C65.4504 89.8347 65.5624 90.1867 65.7864 90.432C66.021 90.6773 66.3517 90.8 66.7784 90.8C67.2477 90.8 67.6477 90.6667 67.9784 90.4L68.4584 91.504ZM90.6603 80.8L86.9163 92H85.2363L82.1803 83.056L79.1243 92H77.4123L73.6683 80.8H75.3163L78.3403 89.904L81.4923 80.8H82.9643L86.0523 89.952L89.1403 80.8H90.6603ZM94.8409 83.44C96.0142 83.44 96.9102 83.728 97.5289 84.304C98.1582 84.88 98.4729 85.7387 98.4729 86.88V92H97.0169V90.88C96.7609 91.2747 96.3929 91.5787 95.9129 91.792C95.4435 91.9947 94.8835 92.096 94.2329 92.096C93.2835 92.096 92.5209 91.8667 91.9449 91.408C91.3795 90.9493 91.0969 90.3467 91.0969 89.6C91.0969 88.8533 91.3689 88.256 91.9129 87.808C92.4569 87.3493 93.3209 87.12 94.5049 87.12H96.9369V86.816C96.9369 86.1547 96.7449 85.648 96.3609 85.296C95.9769 84.944 95.4115 84.768 94.6649 84.768C94.1635 84.768 93.6729 84.8533 93.1929 85.024C92.7129 85.184 92.3075 85.4027 91.9769 85.68L91.3369 84.528C91.7742 84.176 92.2969 83.9093 92.9049 83.728C93.5129 83.536 94.1582 83.44 94.8409 83.44ZM94.4889 90.912C95.0755 90.912 95.5822 90.784 96.0089 90.528C96.4355 90.2613 96.7449 89.888 96.9369 89.408V88.224H94.5689C93.2675 88.224 92.6169 88.6613 92.6169 89.536C92.6169 89.9627 92.7822 90.2987 93.1129 90.544C93.4435 90.7893 93.9022 90.912 94.4889 90.912ZM101.315 80.128H102.851V92H101.315V80.128ZM105.784 80.128H107.32V92H105.784V80.128ZM117.917 87.808C117.917 87.9253 117.906 88.08 117.885 88.272H111.005C111.101 89.0187 111.426 89.6213 111.981 90.08C112.546 90.528 113.245 90.752 114.077 90.752C115.09 90.752 115.906 90.4107 116.525 89.728L117.373 90.72C116.989 91.168 116.509 91.5093 115.933 91.744C115.368 91.9787 114.733 92.096 114.029 92.096C113.133 92.096 112.338 91.9147 111.645 91.552C110.952 91.1787 110.413 90.6613 110.029 90C109.656 89.3387 109.469 88.592 109.469 87.76C109.469 86.9387 109.65 86.1973 110.013 85.536C110.386 84.8747 110.893 84.3627 111.533 84C112.184 83.6267 112.914 83.44 113.725 83.44C114.536 83.44 115.256 83.6267 115.885 84C116.525 84.3627 117.021 84.8747 117.373 85.536C117.736 86.1973 117.917 86.9547 117.917 87.808ZM113.725 84.736C112.989 84.736 112.37 84.96 111.869 85.408C111.378 85.856 111.09 86.4427 111.005 87.168H116.445C116.36 86.4533 116.066 85.872 115.565 85.424C115.074 84.9653 114.461 84.736 113.725 84.736ZM124.818 91.504C124.594 91.696 124.316 91.8453 123.986 91.952C123.655 92.048 123.314 92.096 122.962 92.096C122.108 92.096 121.447 91.8667 120.978 91.408C120.508 90.9493 120.274 90.2933 120.274 89.44V84.784H118.834V83.52H120.274V81.664H121.81V83.52H124.242V84.784H121.81V89.376C121.81 89.8347 121.922 90.1867 122.146 90.432C122.38 90.6773 122.711 90.8 123.138 90.8C123.607 90.8 124.007 90.6667 124.338 90.4L124.818 91.504Z" fill="white"/>
<path d="M79 59H41C39.6744 58.9984 38.4036 58.4711 37.4662 57.5338C36.5289 56.5964 36.0016 55.3256 36 54V22C36 21.7348 36.1054 21.4804 36.2929 21.2929C36.4804 21.1054 36.7348 21 37 21C37.2652 21 37.5196 21.1054 37.7071 21.2929C37.8946 21.4804 38 21.7348 38 22V54C38 54.7956 38.3161 55.5587 38.8787 56.1213C39.4413 56.6839 40.2044 57 41 57H79C79.7957 57 80.5587 56.6839 81.1213 56.1213C81.6839 55.5587 82 54.7956 82 54V48C82 47.7348 82.1054 47.4804 82.2929 47.2929C82.4804 47.1054 82.7348 47 83 47C83.2652 47 83.5196 47.1054 83.7071 47.2929C83.8947 47.4804 84 47.7348 84 48V54C83.9984 55.3256 83.4711 56.5964 82.5338 57.5338C81.5965 58.4711 80.3256 58.9984 79 59V59Z" fill="white"/>
<path d="M82.9999 36.9995C82.7347 36.9995 82.4803 36.8942 82.2928 36.7066C82.1052 36.5191 81.9999 36.2647 81.9999 35.9995V29.9995C81.9978 29.2417 81.7075 28.5131 81.1879 27.9615C81.0953 27.866 81.0227 27.753 80.9744 27.629C80.926 27.5051 80.9029 27.3727 80.9063 27.2397C80.9098 27.1067 80.9397 26.9758 80.9944 26.8545C81.0491 26.7332 81.1275 26.6241 81.2249 26.5335C81.3223 26.4429 81.4368 26.3726 81.5617 26.3268C81.6866 26.281 81.8194 26.2605 81.9523 26.2667C82.0851 26.2728 82.2155 26.3055 82.3356 26.3626C82.4557 26.4198 82.5633 26.5003 82.6519 26.5995C83.5159 27.521 83.9978 28.7363 83.9999 29.9995V35.9995C83.9999 36.2647 83.8945 36.5191 83.707 36.7066C83.5194 36.8942 83.2651 36.9995 82.9999 36.9995Z" fill="white"/>
<path d="M71.68 27H70C69.7348 27 69.4804 26.8946 69.2929 26.7071C69.1054 26.5196 69 26.2652 69 26C69 25.7348 69.1054 25.4804 69.2929 25.2929C69.4804 25.1054 69.7348 25 70 25H71.68C71.9452 25 72.1996 25.1054 72.3871 25.2929C72.5746 25.4804 72.68 25.7348 72.68 26C72.68 26.2652 72.5746 26.5196 72.3871 26.7071C72.1996 26.8946 71.9452 27 71.68 27Z" fill="white"/>
<path d="M78 29C75.6266 29 73.3065 28.2962 71.3332 26.9776C69.3598 25.6591 67.8217 23.7849 66.9135 21.5922C66.0052 19.3995 65.7676 16.9867 66.2306 14.6589C66.6936 12.3311 67.8365 10.193 69.5147 8.51472C71.193 6.83649 73.3311 5.6936 75.6589 5.23058C77.9867 4.76756 80.3995 5.0052 82.5922 5.91345C84.7849 6.8217 86.6591 8.35977 87.9776 10.3332C89.2962 12.3066 90 14.6266 90 17C89.9966 20.1815 88.7312 23.2318 86.4815 25.4815C84.2318 27.7312 81.1815 28.9966 78 29V29ZM78 7.00001C76.0222 7.00001 74.0888 7.58649 72.4443 8.68531C70.7998 9.78412 69.5181 11.3459 68.7612 13.1732C68.0043 15.0004 67.8063 17.0111 68.1922 18.9509C68.578 20.8907 69.5304 22.6725 70.9289 24.0711C72.3275 25.4696 74.1093 26.422 76.0491 26.8079C77.9889 27.1937 79.9996 26.9957 81.8268 26.2388C83.6541 25.4819 85.2159 24.2002 86.3147 22.5557C87.4135 20.9112 88 18.9778 88 17C87.9971 14.3487 86.9426 11.8069 85.0678 9.93215C83.1931 8.05742 80.6513 7.00292 78 7.00001Z" fill="white"/>
<path d="M71.68 27H41C40.3432 27.0007 39.6927 26.8718 39.0858 26.6207C38.4789 26.3697 37.9274 26.0014 37.463 25.537C36.9986 25.0726 36.6303 24.5211 36.3793 23.9142C36.1282 23.3073 35.9993 22.6568 36 22C36.0022 21.6046 36.0471 21.2107 36.134 20.825C36.4544 19.7368 37.1136 18.7791 38.0157 18.0912C38.9178 17.4033 40.0158 17.021 41.15 17H67C67.2652 17 67.5196 17.1054 67.7071 17.2929C67.8946 17.4804 68 17.7348 68 18C68 18.2652 67.8946 18.5196 67.7071 18.7071C67.5196 18.8946 67.2652 19 67 19H41.15C40.4695 19.0246 39.8124 19.2546 39.2651 19.6597C38.7179 20.0649 38.3061 20.6263 38.084 21.27C38.0303 21.5097 38.0021 21.7544 38 22C37.9992 22.3942 38.0763 22.7846 38.2268 23.149C38.3772 23.5133 38.5982 23.8443 38.8769 24.1231C39.1557 24.4018 39.4867 24.6228 39.851 24.7732C40.2154 24.9237 40.6058 25.0008 41 25H71.68C71.9452 25 72.1996 25.1054 72.3871 25.2929C72.5746 25.4804 72.68 25.7348 72.68 26C72.68 26.2652 72.5746 26.5196 72.3871 26.7071C72.1996 26.8946 71.9452 27 71.68 27Z" fill="white"/>
<path d="M85 49H75C73.1435 49 71.363 48.2625 70.0503 46.9497C68.7375 45.637 68 43.8565 68 42C68 40.1435 68.7375 38.363 70.0503 37.0503C71.363 35.7375 73.1435 35 75 35H85C85.2652 35 85.5196 35.1054 85.7071 35.2929C85.8946 35.4804 86 35.7348 86 36V48C86 48.2652 85.8946 48.5196 85.7071 48.7071C85.5196 48.8946 85.2652 49 85 49ZM75 37C73.6739 37 72.4021 37.5268 71.4645 38.4645C70.5268 39.4021 70 40.6739 70 42C70 43.3261 70.5268 44.5979 71.4645 45.5355C72.4021 46.4732 73.6739 47 75 47H84V37H75Z" fill="white"/>
<path d="M77 45C76.4067 45 75.8266 44.8241 75.3333 44.4944C74.8399 44.1648 74.4554 43.6962 74.2284 43.1481C74.0013 42.5999 73.9419 41.9967 74.0576 41.4147C74.1734 40.8328 74.4591 40.2982 74.8787 39.8787C75.2982 39.4591 75.8328 39.1734 76.4147 39.0576C76.9967 38.9419 77.5999 39.0013 78.1481 39.2284C78.6962 39.4554 79.1648 39.8399 79.4944 40.3333C79.8241 40.8266 80 41.4067 80 42C80 42.7957 79.6839 43.5587 79.1213 44.1213C78.5587 44.6839 77.7957 45 77 45ZM77 41C76.8022 41 76.6089 41.0587 76.4444 41.1685C76.28 41.2784 76.1518 41.4346 76.0761 41.6173C76.0004 41.8 75.9806 42.0011 76.0192 42.1951C76.0578 42.3891 76.153 42.5673 76.2929 42.7071C76.4327 42.847 76.6109 42.9422 76.8049 42.9808C76.9989 43.0194 77.2 42.9996 77.3827 42.9239C77.5654 42.8482 77.7216 42.72 77.8315 42.5556C77.9414 42.3911 78 42.1978 78 42C78 41.7348 77.8946 41.4804 77.7071 41.2929C77.5196 41.1054 77.2652 41 77 41Z" fill="#FBC02D"/>
<path d="M84 23C83.7348 23 83.4804 22.8946 83.2929 22.7071C83.1054 22.5196 83 22.2652 83 22C82.9971 19.3487 81.9426 16.8069 80.0679 14.9321C78.1931 13.0574 75.6513 12.0029 73 12C72.7348 12 72.4804 11.8946 72.2929 11.7071C72.1054 11.5196 72 11.2652 72 11C72 10.7348 72.1054 10.4804 72.2929 10.2929C72.4804 10.1054 72.7348 10 73 10C76.1815 10.0034 79.2318 11.2688 81.4815 13.5185C83.7312 15.7682 84.9966 18.8185 85 22C85 22.2652 84.8946 22.5196 84.7071 22.7071C84.5196 22.8946 84.2652 23 84 23Z" fill="#FBC02D"/>
<path d="M80 23C79.7348 23 79.4804 22.8946 79.2929 22.7071C79.1054 22.5196 79 22.2652 79 22C78.9984 20.4092 78.3658 18.884 77.2409 17.7591C76.116 16.6342 74.5908 16.0016 73 16C72.7348 16 72.4804 15.8946 72.2929 15.7071C72.1054 15.5196 72 15.2652 72 15C72 14.7348 72.1054 14.4804 72.2929 14.2929C72.4804 14.1054 72.7348 14 73 14C75.121 14.0024 77.1544 14.846 78.6542 16.3458C80.154 17.8456 80.9976 19.879 81 22C81 22.2652 80.8946 22.5196 80.7071 22.7071C80.5196 22.8946 80.2652 23 80 23Z" fill="#FBC02D"/>
<path d="M76 23C75.7348 23 75.4804 22.8946 75.2929 22.7071C75.1054 22.5196 75 22.2652 75 22C75 21.4696 74.7893 20.9609 74.4142 20.5858C74.0391 20.2107 73.5304 20 73 20C72.7348 20 72.4804 19.8946 72.2929 19.7071C72.1054 19.5196 72 19.2652 72 19C72 18.7348 72.1054 18.4804 72.2929 18.2929C72.4804 18.1054 72.7348 18 73 18C74.0609 18 75.0783 18.4214 75.8284 19.1716C76.5786 19.9217 77 20.9391 77 22C77 22.2652 76.8946 22.5196 76.7071 22.7071C76.5196 22.8946 76.2652 23 76 23Z" fill="#FBC02D"/>
<path d="M63 156L68.7735 146H57.2265L63 156ZM62 106V147H64V106H62Z" fill="white"/>
<path d="M20.4206 246.192V250.096H26.0366V251.472H20.4206V256H18.8206V244.8H26.7246V246.192H20.4206ZM28.5966 247.52H30.1326V256H28.5966V247.52ZM29.3646 245.888C29.066 245.888 28.8153 245.792 28.6126 245.6C28.4206 245.408 28.3246 245.173 28.3246 244.896C28.3246 244.619 28.4206 244.384 28.6126 244.192C28.8153 243.989 29.066 243.888 29.3646 243.888C29.6633 243.888 29.9086 243.984 30.1006 244.176C30.3033 244.357 30.4046 244.587 30.4046 244.864C30.4046 245.152 30.3033 245.397 30.1006 245.6C29.9086 245.792 29.6633 245.888 29.3646 245.888ZM37.5934 247.44C38.6707 247.44 39.524 247.755 40.1534 248.384C40.7934 249.003 41.1134 249.915 41.1134 251.12V256H39.5774V251.296C39.5774 250.475 39.38 249.856 38.9854 249.44C38.5907 249.024 38.0254 248.816 37.2894 248.816C36.4574 248.816 35.8014 249.061 35.3214 249.552C34.8414 250.032 34.6014 250.725 34.6014 251.632V256H33.0654V247.52H34.5374V248.8C34.8467 248.363 35.2627 248.027 35.7854 247.792C36.3187 247.557 36.9214 247.44 37.5934 247.44ZM52.0029 244.128V256H50.5309V254.656C50.1895 255.125 49.7575 255.483 49.2349 255.728C48.7122 255.973 48.1362 256.096 47.5069 256.096C46.6855 256.096 45.9495 255.915 45.2989 255.552C44.6482 255.189 44.1362 254.683 43.7629 254.032C43.4002 253.371 43.2189 252.613 43.2189 251.76C43.2189 250.907 43.4002 250.155 43.7629 249.504C44.1362 248.853 44.6482 248.347 45.2989 247.984C45.9495 247.621 46.6855 247.44 47.5069 247.44C48.1149 247.44 48.6749 247.557 49.1869 247.792C49.6989 248.016 50.1255 248.352 50.4669 248.8V244.128H52.0029ZM47.6349 254.752C48.1682 254.752 48.6535 254.629 49.0909 254.384C49.5282 254.128 49.8695 253.776 50.1149 253.328C50.3602 252.869 50.4829 252.347 50.4829 251.76C50.4829 251.173 50.3602 250.656 50.1149 250.208C49.8695 249.749 49.5282 249.397 49.0909 249.152C48.6535 248.907 48.1682 248.784 47.6349 248.784C47.0909 248.784 46.6002 248.907 46.1629 249.152C45.7362 249.397 45.3949 249.749 45.1389 250.208C44.8935 250.656 44.7709 251.173 44.7709 251.76C44.7709 252.347 44.8935 252.869 45.1389 253.328C45.3949 253.776 45.7362 254.128 46.1629 254.384C46.6002 254.629 47.0909 254.752 47.6349 254.752ZM69.814 256L69.798 247.84L65.75 254.64H65.014L60.966 247.888V256H59.43V244.8H60.742L65.414 252.672L70.022 244.8H71.334L71.35 256H69.814ZM77.5753 247.44C78.7486 247.44 79.6446 247.728 80.2633 248.304C80.8926 248.88 81.2073 249.739 81.2073 250.88V256H79.7513V254.88C79.4953 255.275 79.1273 255.579 78.6473 255.792C78.1779 255.995 77.6179 256.096 76.9673 256.096C76.0179 256.096 75.2553 255.867 74.6793 255.408C74.1139 254.949 73.8313 254.347 73.8313 253.6C73.8313 252.853 74.1033 252.256 74.6473 251.808C75.1913 251.349 76.0553 251.12 77.2393 251.12H79.6713V250.816C79.6713 250.155 79.4793 249.648 79.0953 249.296C78.7113 248.944 78.1459 248.768 77.3993 248.768C76.8979 248.768 76.4073 248.853 75.9273 249.024C75.4473 249.184 75.0419 249.403 74.7113 249.68L74.0713 248.528C74.5086 248.176 75.0313 247.909 75.6393 247.728C76.2473 247.536 76.8926 247.44 77.5753 247.44ZM77.2233 254.912C77.8099 254.912 78.3166 254.784 78.7433 254.528C79.1699 254.261 79.4793 253.888 79.6713 253.408V252.224H77.3033C76.0019 252.224 75.3513 252.661 75.3513 253.536C75.3513 253.963 75.5166 254.299 75.8473 254.544C76.1779 254.789 76.6366 254.912 77.2233 254.912ZM88.8178 255.504C88.5938 255.696 88.3164 255.845 87.9858 255.952C87.6551 256.048 87.3138 256.096 86.9618 256.096C86.1084 256.096 85.4471 255.867 84.9778 255.408C84.5084 254.949 84.2738 254.293 84.2738 253.44V248.784H82.8338V247.52H84.2738V245.664H85.8098V247.52H88.2418V248.784H85.8098V253.376C85.8098 253.835 85.9218 254.187 86.1458 254.432C86.3804 254.677 86.7111 254.8 87.1378 254.8C87.6071 254.8 88.0071 254.667 88.3378 254.4L88.8178 255.504ZM94.0895 256.096C93.2255 256.096 92.4522 255.909 91.7695 255.536C91.0975 255.163 90.5695 254.651 90.1855 254C89.8015 253.339 89.6095 252.592 89.6095 251.76C89.6095 250.928 89.8015 250.187 90.1855 249.536C90.5695 248.875 91.0975 248.363 91.7695 248C92.4522 247.627 93.2255 247.44 94.0895 247.44C94.8575 247.44 95.5402 247.595 96.1375 247.904C96.7455 248.213 97.2148 248.661 97.5455 249.248L96.3775 250C96.1108 249.595 95.7802 249.291 95.3855 249.088C94.9908 248.885 94.5535 248.784 94.0735 248.784C93.5188 248.784 93.0175 248.907 92.5695 249.152C92.1322 249.397 91.7855 249.749 91.5295 250.208C91.2842 250.656 91.1615 251.173 91.1615 251.76C91.1615 252.357 91.2842 252.885 91.5295 253.344C91.7855 253.792 92.1322 254.139 92.5695 254.384C93.0175 254.629 93.5188 254.752 94.0735 254.752C94.5535 254.752 94.9908 254.651 95.3855 254.448C95.7802 254.245 96.1108 253.941 96.3775 253.536L97.5455 254.272C97.2148 254.859 96.7455 255.312 96.1375 255.632C95.5402 255.941 94.8575 256.096 94.0895 256.096ZM103.953 247.44C105.03 247.44 105.883 247.755 106.513 248.384C107.153 249.003 107.473 249.915 107.473 251.12V256H105.937V251.296C105.937 250.475 105.739 249.856 105.345 249.44C104.95 249.024 104.385 248.816 103.649 248.816C102.817 248.816 102.161 249.061 101.681 249.552C101.201 250.032 100.961 250.725 100.961 251.632V256H99.4248V244.128H100.961V248.72C101.281 248.315 101.697 248 102.209 247.776C102.731 247.552 103.313 247.44 103.953 247.44Z" fill="white"/>
<path d="M47.1669 191.027C43.0958 191.027 39.8 194.323 39.8 198.394C39.8 202.465 43.0958 205.761 47.1669 205.761C51.2381 205.761 54.5338 202.465 54.5338 198.394C54.5209 194.336 51.2252 191.04 47.1669 191.027ZM47.1669 203.176C44.5304 203.176 42.3849 201.044 42.3849 198.394C42.3849 195.758 44.5174 193.612 47.1669 193.612C49.8035 193.612 51.949 195.745 51.949 198.394C51.936 201.031 49.8035 203.163 47.1669 203.176Z" fill="white"/>
<path d="M84.2598 193.096H57.9587C57.2479 193.096 56.6663 193.677 56.6663 194.388C56.6663 195.099 57.2479 195.681 57.9587 195.681H84.2598C84.9706 195.681 85.5522 195.099 85.5522 194.388C85.5522 193.677 84.9706 193.096 84.2598 193.096Z" fill="white"/>
<path d="M72.1238 201.107H57.9587C57.2479 201.107 56.6663 201.689 56.6663 202.4C56.6663 203.111 57.2349 203.692 57.9587 203.692H72.1238C72.8347 203.692 73.4163 203.111 73.4163 202.4C73.4163 201.689 72.8347 201.107 72.1238 201.107Z" fill="#FBC02D"/>
<path d="M47.1669 170.801C43.0958 170.801 39.8 174.096 39.8 178.168C39.8 182.239 43.0958 185.535 47.1669 185.535C51.2381 185.535 54.5338 182.239 54.5338 178.168C54.5209 174.096 51.2252 170.801 47.1669 170.801ZM47.1669 182.937C44.5304 182.937 42.3849 180.804 42.3849 178.155C42.3849 175.505 44.5174 173.373 47.1669 173.373C49.8035 173.373 51.949 175.505 51.949 178.155C51.936 180.804 49.8035 182.937 47.1669 182.937Z" fill="white"/>
<path d="M84.2598 172.803H57.9587C57.2479 172.803 56.6663 173.384 56.6663 174.095C56.6663 174.806 57.2479 175.388 57.9587 175.388H84.2598C84.9706 175.388 85.5522 174.806 85.5522 174.095C85.5522 173.384 84.9706 172.803 84.2598 172.803Z" fill="white"/>
<path d="M72.1238 180.945H57.9587C57.2479 180.945 56.6663 181.527 56.6663 182.238C56.6663 182.949 57.2349 183.53 57.9587 183.53H72.1238C72.8347 183.53 73.4163 182.949 73.4163 182.238C73.4163 181.527 72.8347 180.945 72.1238 180.945Z" fill="#FBC02D"/>
<path d="M47.1669 211.266C43.0958 211.266 39.8 214.561 39.8 218.633C39.8 222.704 43.0958 225.999 47.1669 225.999C51.2381 225.999 54.5338 222.704 54.5338 218.633C54.5209 214.561 51.2252 211.266 47.1669 211.266ZM47.1669 223.402C44.5304 223.402 42.3849 221.269 42.3849 218.62C42.3849 215.983 44.5174 213.838 47.1669 213.838C49.8035 213.838 51.949 215.97 51.949 218.62C51.936 221.269 49.8035 223.402 47.1669 223.402Z" fill="white"/>
<path d="M84.2598 213.258H57.9587C57.2479 213.258 56.6663 213.839 56.6663 214.55C56.6663 215.261 57.2479 215.843 57.9587 215.843H84.2598C84.9706 215.843 85.5522 215.261 85.5522 214.55C85.5522 213.839 84.9706 213.258 84.2598 213.258Z" fill="white"/>
<path d="M72.1238 221.398H57.9587C57.2479 221.398 56.6663 221.98 56.6663 222.691C56.6663 223.402 57.2479 223.983 57.9587 223.983H72.1238C72.8347 223.983 73.4163 223.402 73.4163 222.691C73.4163 221.98 72.8347 221.398 72.1238 221.398Z" fill="#FBC02D"/>
<path d="M63 320L68.7735 310H57.2265L63 320ZM62 270V311H64V270H62Z" fill="white"/>
<path d="M39.7887 408.8C41.2394 408.8 42.3807 409.147 43.2127 409.84C44.0447 410.533 44.4607 411.488 44.4607 412.704C44.4607 413.92 44.0447 414.875 43.2127 415.568C42.3807 416.261 41.2394 416.608 39.7887 416.608H37.0207V420H35.4207V408.8H39.7887ZM39.7407 415.216C40.7541 415.216 41.5274 415.003 42.0607 414.576C42.5941 414.139 42.8607 413.515 42.8607 412.704C42.8607 411.893 42.5941 411.275 42.0607 410.848C41.5274 410.411 40.7541 410.192 39.7407 410.192H37.0207V415.216H39.7407ZM47.9187 412.944C48.1854 412.453 48.5801 412.08 49.1027 411.824C49.6254 411.568 50.2601 411.44 51.0067 411.44V412.928C50.9214 412.917 50.8041 412.912 50.6547 412.912C49.8227 412.912 49.1667 413.163 48.6867 413.664C48.2174 414.155 47.9827 414.859 47.9827 415.776V420H46.4467V411.52H47.9187V412.944ZM60.4857 415.808C60.4857 415.925 60.4751 416.08 60.4537 416.272H53.5737C53.6697 417.019 53.9951 417.621 54.5497 418.08C55.1151 418.528 55.8137 418.752 56.6457 418.752C57.6591 418.752 58.4751 418.411 59.0937 417.728L59.9417 418.72C59.5577 419.168 59.0777 419.509 58.5017 419.744C57.9364 419.979 57.3017 420.096 56.5977 420.096C55.7017 420.096 54.9071 419.915 54.2137 419.552C53.5204 419.179 52.9817 418.661 52.5977 418C52.2244 417.339 52.0377 416.592 52.0377 415.76C52.0377 414.939 52.2191 414.197 52.5817 413.536C52.9551 412.875 53.4617 412.363 54.1017 412C54.7524 411.627 55.4831 411.44 56.2937 411.44C57.1044 411.44 57.8244 411.627 58.4537 412C59.0937 412.363 59.5897 412.875 59.9417 413.536C60.3044 414.197 60.4857 414.955 60.4857 415.808ZM56.2937 412.736C55.5577 412.736 54.9391 412.96 54.4377 413.408C53.9471 413.856 53.6591 414.443 53.5737 415.168H59.0137C58.9284 414.453 58.6351 413.872 58.1337 413.424C57.6431 412.965 57.0297 412.736 56.2937 412.736ZM70.6186 408.128V420H69.1466V418.656C68.8053 419.125 68.3733 419.483 67.8506 419.728C67.3279 419.973 66.7519 420.096 66.1226 420.096C65.3013 420.096 64.5653 419.915 63.9146 419.552C63.2639 419.189 62.7519 418.683 62.3786 418.032C62.0159 417.371 61.8346 416.613 61.8346 415.76C61.8346 414.907 62.0159 414.155 62.3786 413.504C62.7519 412.853 63.2639 412.347 63.9146 411.984C64.5653 411.621 65.3013 411.44 66.1226 411.44C66.7306 411.44 67.2906 411.557 67.8026 411.792C68.3146 412.016 68.7413 412.352 69.0826 412.8V408.128H70.6186ZM66.2506 418.752C66.7839 418.752 67.2693 418.629 67.7066 418.384C68.1439 418.128 68.4853 417.776 68.7306 417.328C68.9759 416.869 69.0986 416.347 69.0986 415.76C69.0986 415.173 68.9759 414.656 68.7306 414.208C68.4853 413.749 68.1439 413.397 67.7066 413.152C67.2693 412.907 66.7839 412.784 66.2506 412.784C65.7066 412.784 65.2159 412.907 64.7786 413.152C64.3519 413.397 64.0106 413.749 63.7546 414.208C63.5093 414.656 63.3866 415.173 63.3866 415.76C63.3866 416.347 63.5093 416.869 63.7546 417.328C64.0106 417.776 64.3519 418.128 64.7786 418.384C65.2159 418.629 65.7066 418.752 66.2506 418.752ZM73.5248 411.52H75.0608V420H73.5248V411.52ZM74.2928 409.888C73.9942 409.888 73.7435 409.792 73.5408 409.6C73.3488 409.408 73.2528 409.173 73.2528 408.896C73.2528 408.619 73.3488 408.384 73.5408 408.192C73.7435 407.989 73.9942 407.888 74.2928 407.888C74.5915 407.888 74.8368 407.984 75.0288 408.176C75.2315 408.357 75.3328 408.587 75.3328 408.864C75.3328 409.152 75.2315 409.397 75.0288 409.6C74.8368 409.792 74.5915 409.888 74.2928 409.888ZM81.6896 420.096C80.8256 420.096 80.0523 419.909 79.3696 419.536C78.6976 419.163 78.1696 418.651 77.7856 418C77.4016 417.339 77.2096 416.592 77.2096 415.76C77.2096 414.928 77.4016 414.187 77.7856 413.536C78.1696 412.875 78.6976 412.363 79.3696 412C80.0523 411.627 80.8256 411.44 81.6896 411.44C82.4576 411.44 83.1403 411.595 83.7376 411.904C84.3456 412.213 84.8149 412.661 85.1456 413.248L83.9776 414C83.7109 413.595 83.3803 413.291 82.9856 413.088C82.5909 412.885 82.1536 412.784 81.6736 412.784C81.1189 412.784 80.6176 412.907 80.1696 413.152C79.7323 413.397 79.3856 413.749 79.1296 414.208C78.8843 414.656 78.7616 415.173 78.7616 415.76C78.7616 416.357 78.8843 416.885 79.1296 417.344C79.3856 417.792 79.7323 418.139 80.1696 418.384C80.6176 418.629 81.1189 418.752 81.6736 418.752C82.1536 418.752 82.5909 418.651 82.9856 418.448C83.3803 418.245 83.7109 417.941 83.9776 417.536L85.1456 418.272C84.8149 418.859 84.3456 419.312 83.7376 419.632C83.1403 419.941 82.4576 420.096 81.6896 420.096ZM92.0116 419.504C91.7876 419.696 91.5103 419.845 91.1796 419.952C90.8489 420.048 90.5076 420.096 90.1556 420.096C89.3023 420.096 88.6409 419.867 88.1716 419.408C87.7023 418.949 87.4676 418.293 87.4676 417.44V412.784H86.0276V411.52H87.4676V409.664H89.0036V411.52H91.4356V412.784H89.0036V417.376C89.0036 417.835 89.1156 418.187 89.3396 418.432C89.5743 418.677 89.9049 418.8 90.3316 418.8C90.8009 418.8 91.2009 418.667 91.5316 418.4L92.0116 419.504Z" fill="white"/>
<g clip-path="url(#clip0_1223_60)">
<path d="M88.2116 363.346C88.3786 362.307 88.485 361.259 88.5319 360.207C88.5626 360.078 88.569 359.944 88.5499 359.813C88.5626 359.474 88.5968 359.144 88.5968 358.802C88.6007 351.875 86.097 345.181 81.5474 339.957C81.5152 339.915 81.4795 339.875 81.441 339.838C78.3826 336.347 74.5283 333.644 70.2043 331.957C70.1731 331.944 70.1433 331.931 70.1101 331.921C63.4742 329.365 56.1255 329.365 49.4897 331.921C49.4555 331.931 49.4218 331.944 49.3896 331.96C45.0661 333.646 41.2123 336.348 38.1539 339.838C38.1153 339.875 38.0792 339.915 38.047 339.957C33.4984 345.182 30.9951 351.875 31 358.802C31 359.158 31.0137 359.512 31.0269 359.869V359.923C31.541 372.699 40.4033 383.612 52.8015 386.737H52.8098C55.0953 387.309 57.4423 387.6 59.7982 387.6C61.321 387.596 62.8405 387.467 64.3423 387.216C68.3499 392.535 75.0888 395.032 81.5953 393.61C88.1017 392.188 93.1835 387.105 94.6062 380.599C96.0285 374.093 93.5311 367.354 88.2116 363.346V363.346ZM77.9304 359.869C75.5409 359.87 73.1778 360.376 70.9977 361.356L72.4268 356.349L78.7927 353.648L86.3919 360.402C86.3591 360.959 86.3098 361.505 86.2429 362.047C83.705 360.619 80.8424 359.869 77.9304 359.869V359.869ZM62.609 369.468H53.1364L49.2963 356.029L59.7982 348.388L70.3015 356.029L68.3621 362.813C65.8989 364.494 63.9161 366.788 62.609 369.468V369.468ZM47.6851 373.674L36.7663 372.213C34.6575 368.611 33.4305 364.562 33.1854 360.395L40.8022 353.647L47.17 356.349L51.1341 370.225L47.6851 373.674ZM39.4634 351.984L33.1639 357.565C33.4007 352.374 35.158 347.366 38.2169 343.166L39.4634 351.984ZM81.3809 343.168C84.4432 347.372 86.2 352.385 86.4338 357.581L80.1344 351.984L81.3809 343.168ZM79.5465 340.902L78.0256 351.656L71.6378 354.364L60.865 346.527V338.156L69.8 334.09C73.5176 335.602 76.8485 337.93 79.5456 340.902H79.5465ZM66.8485 333.089L59.7982 336.297L52.7483 333.089C57.3623 331.819 62.2341 331.819 66.8485 333.089ZM49.7968 334.09L58.7318 338.157V346.527L47.959 354.364L41.5712 351.656L40.0512 340.902C42.7484 337.93 46.0787 335.602 49.7968 334.09ZM38.3136 374.573L47.3423 375.78L51.1429 384.018C46.0074 382.244 41.5331 378.95 38.3136 374.573ZM59.7982 385.467C57.7958 385.466 55.8003 385.239 53.8488 384.79L49.3456 375.029L52.7737 371.601H61.7331C60.2269 376.131 60.7024 381.086 63.0431 385.247C61.967 385.387 60.8836 385.46 59.7982 385.467V385.467ZM77.9304 391.867C71.8912 391.867 66.4462 388.229 64.1348 382.649C61.8234 377.069 63.1012 370.646 67.3719 366.376C71.6427 362.105 78.0652 360.828 83.6449 363.138C89.2252 365.45 92.8632 370.895 92.8632 376.935C92.8544 385.178 86.1741 391.858 77.9304 391.867Z" fill="white"/>
<path d="M77.9304 364.135C70.862 364.135 65.1313 369.865 65.1313 376.934C65.1313 384.003 70.862 389.733 77.9304 389.733C84.9994 389.733 90.73 384.003 90.73 376.934C90.7222 369.869 84.9964 364.143 77.9304 364.135V364.135ZM77.9304 387.6C72.0401 387.6 67.2645 382.825 67.2645 376.934C67.2645 371.044 72.0401 366.268 77.9304 366.268C83.8212 366.268 88.5968 371.044 88.5968 376.934C88.5905 382.822 83.8188 387.594 77.9304 387.6V387.6Z" fill="white"/>
<path d="M59.0921 351.539L52.9401 356.019C52.2346 356.528 51.9113 357.416 52.1242 358.259L53.3785 363.333C53.4962 363.808 53.923 364.143 54.4132 364.143C54.4996 364.143 54.586 364.133 54.67 364.113C54.9449 364.045 55.1812 363.87 55.3277 363.628C55.4736 363.386 55.5176 363.096 55.4497 362.821L54.1944 357.735L60.3464 353.262C60.8229 352.915 60.9284 352.249 60.5822 351.772C60.2361 351.295 59.5686 351.19 59.0921 351.536V351.539Z" fill="#FBC02D"/>
<path d="M80.0641 380.134H78.9973V372.668C78.9973 372.236 78.7376 371.848 78.3387 371.683C77.9402 371.518 77.4818 371.609 77.1766 371.914L75.0434 374.047C74.6392 374.465 74.645 375.131 75.0566 375.542C75.4677 375.953 76.1332 375.959 76.5517 375.555L76.8641 375.243V380.134H75.7973C75.2085 380.134 74.731 380.612 74.731 381.201C74.731 381.79 75.2085 382.268 75.7973 382.268H80.0641C80.653 382.268 81.1305 381.79 81.1305 381.201C81.1305 380.612 80.653 380.134 80.0641 380.134V380.134Z" fill="#FBC02D"/>
</g>
<path d="M63 484L68.7735 474H57.2265L63 484ZM62 434V475H64V434H62Z" fill="white"/>
<path d="M14.2505 584.128C13.1305 584.128 12.1172 583.883 11.2105 583.392C10.3145 582.891 9.6105 582.208 9.0985 581.344C8.5865 580.469 8.3305 579.488 8.3305 578.4C8.3305 577.312 8.5865 576.336 9.0985 575.472C9.6105 574.597 10.3198 573.915 11.2265 573.424C12.1332 572.923 13.1465 572.672 14.2665 572.672C15.1412 572.672 15.9412 572.821 16.6665 573.12C17.3918 573.408 18.0105 573.84 18.5225 574.416L17.4825 575.424C16.6398 574.539 15.5892 574.096 14.3305 574.096C13.4985 574.096 12.7465 574.283 12.0745 574.656C11.4025 575.029 10.8745 575.547 10.4905 576.208C10.1172 576.859 9.9305 577.589 9.9305 578.4C9.9305 579.211 10.1172 579.947 10.4905 580.608C10.8745 581.259 11.4025 581.771 12.0745 582.144C12.7465 582.517 13.4985 582.704 14.3305 582.704C15.5785 582.704 16.6292 582.256 17.4825 581.36L18.5225 582.368C18.0105 582.944 17.3865 583.381 16.6505 583.68C15.9252 583.979 15.1252 584.128 14.2505 584.128ZM20.581 572.128H22.117V584H20.581V572.128ZM28.1378 575.44C29.3111 575.44 30.2071 575.728 30.8258 576.304C31.4551 576.88 31.7698 577.739 31.7698 578.88V584H30.3138V582.88C30.0578 583.275 29.6898 583.579 29.2098 583.792C28.7404 583.995 28.1804 584.096 27.5298 584.096C26.5804 584.096 25.8178 583.867 25.2418 583.408C24.6764 582.949 24.3938 582.347 24.3938 581.6C24.3938 580.853 24.6658 580.256 25.2098 579.808C25.7538 579.349 26.6178 579.12 27.8018 579.12H30.2338V578.816C30.2338 578.155 30.0418 577.648 29.6578 577.296C29.2738 576.944 28.7084 576.768 27.9618 576.768C27.4604 576.768 26.9698 576.853 26.4898 577.024C26.0098 577.184 25.6044 577.403 25.2738 577.68L24.6338 576.528C25.0711 576.176 25.5938 575.909 26.2018 575.728C26.8098 575.536 27.4551 575.44 28.1378 575.44ZM27.7858 582.912C28.3724 582.912 28.8791 582.784 29.3058 582.528C29.7324 582.261 30.0418 581.888 30.2338 581.408V580.224H27.8658C26.5644 580.224 25.9138 580.661 25.9138 581.536C25.9138 581.963 26.0791 582.299 26.4098 582.544C26.7404 582.789 27.1991 582.912 27.7858 582.912ZM34.6123 575.52H36.1483V584H34.6123V575.52ZM35.3803 573.888C35.0816 573.888 34.8309 573.792 34.6283 573.6C34.4363 573.408 34.3403 573.173 34.3403 572.896C34.3403 572.619 34.4363 572.384 34.6283 572.192C34.8309 571.989 35.0816 571.888 35.3803 571.888C35.6789 571.888 35.9243 571.984 36.1163 572.176C36.3189 572.357 36.4203 572.587 36.4203 572.864C36.4203 573.152 36.3189 573.397 36.1163 573.6C35.9243 573.792 35.6789 573.888 35.3803 573.888ZM49.689 575.44C50.7557 575.44 51.5983 575.749 52.217 576.368C52.8463 576.987 53.161 577.904 53.161 579.12V584H51.625V579.296C51.625 578.475 51.433 577.856 51.049 577.44C50.6757 577.024 50.137 576.816 49.433 576.816C48.6543 576.816 48.0357 577.061 47.577 577.552C47.1183 578.032 46.889 578.725 46.889 579.632V584H45.353V579.296C45.353 578.475 45.161 577.856 44.777 577.44C44.4037 577.024 43.865 576.816 43.161 576.816C42.3823 576.816 41.7637 577.061 41.305 577.552C40.8463 578.032 40.617 578.725 40.617 579.632V584H39.081V575.52H40.553V576.784C40.8623 576.347 41.2677 576.016 41.769 575.792C42.2703 575.557 42.841 575.44 43.481 575.44C44.1423 575.44 44.729 575.573 45.241 575.84C45.753 576.107 46.1477 576.496 46.425 577.008C46.745 576.517 47.1877 576.133 47.753 575.856C48.329 575.579 48.9743 575.44 49.689 575.44ZM76.3321 572.8L72.5881 584H70.9081L67.8521 575.056L64.7961 584H63.0841L59.3401 572.8H60.9881L64.0121 581.904L67.1641 572.8H68.6361L71.7241 581.952L74.8121 572.8H76.3321ZM78.081 575.52H79.617V584H78.081V575.52ZM78.849 573.888C78.5503 573.888 78.2997 573.792 78.097 573.6C77.905 573.408 77.809 573.173 77.809 572.896C77.809 572.619 77.905 572.384 78.097 572.192C78.2997 571.989 78.5503 571.888 78.849 571.888C79.1477 571.888 79.393 571.984 79.585 572.176C79.7877 572.357 79.889 572.587 79.889 572.864C79.889 573.152 79.7877 573.397 79.585 573.6C79.393 573.792 79.1477 573.888 78.849 573.888ZM87.0778 575.44C88.1551 575.44 89.0084 575.755 89.6378 576.384C90.2778 577.003 90.5978 577.915 90.5978 579.12V584H89.0618V579.296C89.0618 578.475 88.8644 577.856 88.4698 577.44C88.0751 577.024 87.5098 576.816 86.7738 576.816C85.9418 576.816 85.2858 577.061 84.8058 577.552C84.3258 578.032 84.0858 578.725 84.0858 579.632V584H82.5498V575.52H84.0218V576.8C84.3311 576.363 84.7471 576.027 85.2698 575.792C85.8031 575.557 86.4058 575.44 87.0778 575.44ZM93.4404 575.52H94.9764V584H93.4404V575.52ZM94.2084 573.888C93.9097 573.888 93.659 573.792 93.4564 573.6C93.2644 573.408 93.1684 573.173 93.1684 572.896C93.1684 572.619 93.2644 572.384 93.4564 572.192C93.659 571.989 93.9097 571.888 94.2084 571.888C94.507 571.888 94.7524 571.984 94.9444 572.176C95.147 572.357 95.2484 572.587 95.2484 572.864C95.2484 573.152 95.147 573.397 94.9444 573.6C94.7524 573.792 94.507 573.888 94.2084 573.888ZM102.437 575.44C103.514 575.44 104.368 575.755 104.997 576.384C105.637 577.003 105.957 577.915 105.957 579.12V584H104.421V579.296C104.421 578.475 104.224 577.856 103.829 577.44C103.434 577.024 102.869 576.816 102.133 576.816C101.301 576.816 100.645 577.061 100.165 577.552C99.6851 578.032 99.4451 578.725 99.4451 579.632V584H97.9091V575.52H99.3811V576.8C99.6905 576.363 100.106 576.027 100.629 575.792C101.162 575.557 101.765 575.44 102.437 575.44ZM116.959 575.52V582.848C116.959 584.331 116.591 585.424 115.855 586.128C115.119 586.843 114.02 587.2 112.559 587.2C111.759 587.2 110.996 587.088 110.271 586.864C109.545 586.651 108.959 586.341 108.511 585.936L109.247 584.752C109.641 585.093 110.127 585.36 110.703 585.552C111.289 585.755 111.892 585.856 112.511 585.856C113.503 585.856 114.233 585.621 114.703 585.152C115.183 584.683 115.423 583.968 115.423 583.008V582.336C115.06 582.773 114.612 583.104 114.079 583.328C113.556 583.541 112.985 583.648 112.367 583.648C111.556 583.648 110.82 583.477 110.159 583.136C109.508 582.784 108.996 582.299 108.623 581.68C108.249 581.051 108.063 580.336 108.063 579.536C108.063 578.736 108.249 578.027 108.623 577.408C108.996 576.779 109.508 576.293 110.159 575.952C110.82 575.611 111.556 575.44 112.367 575.44C113.007 575.44 113.599 575.557 114.143 575.792C114.697 576.027 115.151 576.373 115.503 576.832V575.52H116.959ZM112.543 582.304C113.097 582.304 113.593 582.187 114.031 581.952C114.479 581.717 114.825 581.392 115.071 580.976C115.327 580.549 115.455 580.069 115.455 579.536C115.455 578.715 115.183 578.053 114.639 577.552C114.095 577.04 113.396 576.784 112.543 576.784C111.679 576.784 110.975 577.04 110.431 577.552C109.887 578.053 109.615 578.715 109.615 579.536C109.615 580.069 109.737 580.549 109.983 580.976C110.239 581.392 110.585 581.717 111.023 581.952C111.471 582.187 111.977 582.304 112.543 582.304Z" fill="white"/>
<path d="M83.2081 519.579H59.3667C60.4692 518.311 61.139 516.658 61.139 514.851C61.139 510.873 57.9029 507.637 53.925 507.637C49.9471 507.637 46.711 510.873 46.711 514.851C46.711 516.658 47.3808 518.311 48.4832 519.579H42.792C39.3529 519.579 36.5549 522.377 36.5549 525.816V533.175C36.5549 533.864 37.1134 534.423 37.8023 534.423C38.4913 534.423 39.0498 533.864 39.0498 533.175V525.816C39.0498 523.752 40.7285 522.074 42.792 522.074H77.7195C79.7829 522.074 81.4617 523.752 81.4617 525.816V532.552H68.4886C65.0495 532.552 62.2516 535.35 62.2516 538.789C62.2516 542.228 65.0495 545.026 68.4886 545.026H81.4617V551.762C81.4617 553.825 79.7829 555.504 77.7195 555.504H42.792C40.7285 555.504 39.0498 553.825 39.0498 551.762V544.392C39.0498 543.703 38.4913 543.145 37.8023 543.145C37.1134 543.145 36.5549 543.703 36.5549 544.392V551.762C36.5549 555.201 39.3529 557.999 42.792 557.999H83.2081C86.6472 557.999 89.4451 555.201 89.4451 551.762V525.816C89.4451 522.377 86.6472 519.579 83.2081 519.579ZM53.925 510.132C56.5272 510.132 58.6442 512.249 58.6442 514.851C58.6442 517.453 56.5272 519.57 53.925 519.57C51.3229 519.57 49.2058 517.453 49.2058 514.851C49.2058 512.249 51.3228 510.132 53.925 510.132ZM82.7057 522.074H83.2081C85.2715 522.074 86.9503 523.752 86.9503 525.816V532.552H83.9565V525.816C83.9565 524.413 83.4906 523.117 82.7057 522.074ZM64.7464 538.789C64.7464 536.725 66.4252 535.047 68.4886 535.047H86.9503V542.531H68.4886C66.4252 542.531 64.7464 540.852 64.7464 538.789ZM83.2081 555.504H82.7057C83.4906 554.461 83.9565 553.165 83.9565 551.762V545.026H86.9503V551.762C86.9503 553.825 85.2715 555.504 83.2081 555.504Z" fill="white"/>
<path d="M68.1693 537.541C67.84 537.541 67.5181 537.674 67.2861 537.907C67.0541 538.139 66.9219 538.46 66.9219 538.788C66.9219 539.117 67.0541 539.438 67.2861 539.67C67.5194 539.902 67.84 540.036 68.1693 540.036C68.4974 540.036 68.8179 539.902 69.0512 539.67C69.2832 539.438 69.4167 539.117 69.4167 538.788C69.4167 538.46 69.2832 538.139 69.0512 537.907C68.8192 537.674 68.4974 537.541 68.1693 537.541Z" fill="#FBC02D"/>
<path d="M72.0751 511.172C76.053 511.172 79.2891 507.936 79.2891 503.958C79.2891 499.98 76.053 496.744 72.0751 496.744C68.0972 496.744 64.8611 499.98 64.8611 503.958C64.8611 507.936 68.0972 511.172 72.0751 511.172ZM72.0751 499.239C74.6772 499.239 76.7943 501.356 76.7943 503.958C76.7943 506.561 74.6773 508.677 72.0751 508.677C69.4729 508.677 67.3559 506.561 67.3559 503.958C67.3559 501.356 69.4729 499.239 72.0751 499.239V499.239Z" fill="#FBC02D"/>
<path d="M59.8915 506.297C60.5804 506.297 61.1389 505.739 61.1389 505.05V495.247C61.1389 494.558 60.5804 494 59.8915 494C59.2025 494 58.644 494.558 58.644 495.247V505.05C58.644 505.739 59.2025 506.297 59.8915 506.297Z" fill="#FBC02D"/>
<path d="M53.9039 501.983C54.5929 501.983 55.1513 501.425 55.1513 500.736V495.247C55.1513 494.558 54.5929 494 53.9039 494C53.215 494 52.6565 494.558 52.6565 495.247V500.736C52.6565 501.425 53.215 501.983 53.9039 501.983Z" fill="#FBC02D"/>
<path d="M37.8023 540.036C38.1304 540.036 38.4522 539.902 38.6843 539.67C38.9163 539.438 39.0498 539.117 39.0498 538.788C39.0498 538.46 38.9163 538.139 38.6843 537.907C38.4522 537.674 38.1317 537.541 37.8023 537.541C37.4743 537.541 37.1524 537.674 36.9204 537.907C36.6884 538.139 36.5549 538.46 36.5549 538.788C36.5549 539.117 36.6884 539.438 36.9204 539.67C37.1524 539.902 37.4741 540.036 37.8023 540.036Z" fill="#EEEEEE"/>
<defs>
<clipPath id="clip0_1223_60">
<rect width="64" height="64" fill="white" transform="translate(31 330)"/>
</clipPath>
</defs>
</svg>
