<svg width="256" height="44" viewBox="0 0 256 44" fill="none" xmlns="http://www.w3.org/2000/svg">
<circle cx="17.6" cy="22.4008" r="17.6" fill="#FBC02D"/>
<path d="M17.6785 29.5315C13.7891 29.5315 10.6258 26.3682 10.6258 22.4788C10.6258 18.5894 13.7891 15.4261 17.6785 15.4261L19.9569 15.4261L20.9078 13.7148L17.6785 13.7148C12.8455 13.7148 8.91456 17.6458 8.91456 22.4788C8.91456 27.3118 12.8455 31.2427 17.6785 31.2427L20.9078 31.2427L19.9569 29.5315L17.6785 29.5315Z" fill="white"/>
<path d="M23.6237 29.5315L24.5747 31.2427L26.2859 31.2427L23.8413 26.8424L22.13 26.8424L21.1522 26.8424L19.441 26.8424L17.6784 26.8424C15.356 26.8424 13.4566 25.0187 13.327 22.7281C13.3221 22.645 13.3148 22.5619 13.3148 22.4788C13.3148 22.3957 13.3221 22.3125 13.327 22.2294C13.4566 19.9388 15.356 18.1151 17.6784 18.1151L19.441 18.1151L21.1522 18.1151L22.13 18.1151L23.8413 18.1151L25.0636 15.915L25.3349 15.4261L26.2859 13.7148L24.5747 13.7148L23.6237 15.4261L23.081 16.4039L22.1032 16.4039L22.6459 15.4261L23.5968 13.7148L22.086 13.7148L21.8856 13.7148L20.9346 15.4261L20.3919 16.4039L17.6784 16.4039C14.4637 16.4039 11.8016 18.9194 11.6182 22.1316L11.6158 22.183C11.6109 22.2588 11.6035 22.3614 11.6035 22.4788C11.6035 22.5961 11.6109 22.6988 11.6158 22.7746L11.6182 22.8259C11.8016 26.0381 14.4637 28.5536 17.6784 28.5536L20.3919 28.5536L20.9346 29.5315L21.8856 31.2427L22.086 31.2427L23.5968 31.2427L22.6459 29.5315L22.1032 28.5536L23.081 28.5536L23.6237 29.5315Z" fill="white"/>
<path d="M15.7205 21.4941H23.3599L22.5265 23.1609H14.7482L15.7205 21.4941Z" fill="white"/>
<path d="M56.8 15.504V18H46.3936V4.56H56.5505V7.056H49.4848V9.9744H55.7248V12.3936H49.4848V15.504H56.8ZM62.3853 7.056V10.608H68.6061V13.104H62.3853V18H59.2749V4.56H69.4317V7.056H62.3853ZM77.5086 18.2304C75.5886 18.2304 74.091 17.6992 73.0158 16.6368C71.9534 15.5744 71.4222 14.0576 71.4222 12.0864V4.56H74.5326V11.9712C74.5326 14.3776 75.531 15.5808 77.5278 15.5808C78.5006 15.5808 79.243 15.2928 79.755 14.7168C80.267 14.128 80.523 13.2128 80.523 11.9712V4.56H83.595V12.0864C83.595 14.0576 83.0574 15.5744 81.9822 16.6368C80.9198 17.6992 79.4286 18.2304 77.5086 18.2304ZM98.9951 4.56V18H96.4415L89.7407 9.84V18H86.6687V4.56H89.2415L95.9231 12.72V4.56H98.9951Z" fill="#FBC02D"/>
<path d="M49.0336 30.16C50.0491 30.16 50.848 30.4027 51.4304 30.888C52.0128 31.3733 52.304 32.0416 52.304 32.8928C52.304 33.744 52.0128 34.4123 51.4304 34.8976C50.848 35.3829 50.0491 35.6256 49.0336 35.6256H47.096V38H45.976V30.16H49.0336ZM49 34.6512C49.7094 34.6512 50.2507 34.5019 50.624 34.2032C50.9974 33.8971 51.184 33.4603 51.184 32.8928C51.184 32.3253 50.9974 31.8923 50.624 31.5936C50.2507 31.2875 49.7094 31.1344 49 31.1344H47.096V34.6512H49ZM58.9309 37.0256V38H53.2973V37.2384L56.4893 34.1584C56.8775 33.7851 57.1389 33.464 57.2733 33.1952C57.4077 32.9189 57.4749 32.6427 57.4749 32.3664C57.4749 31.9557 57.3293 31.6384 57.0381 31.4144C56.7543 31.1829 56.3437 31.0672 55.8061 31.0672C54.9399 31.0672 54.2717 31.3509 53.8013 31.9184L53.0397 31.2576C53.3458 30.8843 53.7453 30.5931 54.2381 30.384C54.7383 30.1749 55.2946 30.0704 55.9069 30.0704C56.7282 30.0704 57.3815 30.2683 57.8669 30.664C58.3522 31.0523 58.5949 31.5824 58.5949 32.2544C58.5949 32.6725 58.5053 33.0683 58.3261 33.4416C58.1469 33.8149 57.8071 34.2405 57.3069 34.7184L54.9101 37.0256H58.9309ZM63.5477 30.16C64.5632 30.16 65.3621 30.4027 65.9445 30.888C66.5269 31.3733 66.8181 32.0416 66.8181 32.8928C66.8181 33.744 66.5269 34.4123 65.9445 34.8976C65.3621 35.3829 64.5632 35.6256 63.5477 35.6256H61.6101V38H60.4901V30.16H63.5477ZM63.5141 34.6512C64.2234 34.6512 64.7648 34.5019 65.1381 34.2032C65.5114 33.8971 65.6981 33.4603 65.6981 32.8928C65.6981 32.3253 65.5114 31.8923 65.1381 31.5936C64.7648 31.2875 64.2234 31.1344 63.5141 31.1344H61.6101V34.6512H63.5141ZM75.0863 38.0896C74.3023 38.0896 73.593 37.9179 72.9583 37.5744C72.3311 37.2235 71.8383 36.7456 71.4799 36.1408C71.1215 35.5285 70.9423 34.8416 70.9423 34.08C70.9423 33.3184 71.1215 32.6352 71.4799 32.0304C71.8383 31.4181 72.3349 30.9403 72.9695 30.5968C73.6042 30.2459 74.3135 30.0704 75.0975 30.0704C75.7098 30.0704 76.2698 30.1749 76.7775 30.384C77.2853 30.5856 77.7183 30.888 78.0767 31.2912L77.3487 31.9968C76.7589 31.3771 76.0234 31.0672 75.1423 31.0672C74.5599 31.0672 74.0335 31.1979 73.5631 31.4592C73.0927 31.7205 72.7231 32.0827 72.4543 32.5456C72.193 33.0011 72.0623 33.5125 72.0623 34.08C72.0623 34.6475 72.193 35.1627 72.4543 35.6256C72.7231 36.0811 73.0927 36.4395 73.5631 36.7008C74.0335 36.9621 74.5599 37.0928 75.1423 37.0928C76.0159 37.0928 76.7514 36.7792 77.3487 36.152L78.0767 36.8576C77.7183 37.2608 77.2815 37.5669 76.7663 37.776C76.2586 37.9851 75.6986 38.0896 75.0863 38.0896ZM80.5481 33.0608C80.7348 32.7173 81.011 32.456 81.3769 32.2768C81.7428 32.0976 82.187 32.008 82.7097 32.008V33.0496C82.65 33.0421 82.5678 33.0384 82.4633 33.0384C81.8809 33.0384 81.4217 33.2139 81.0857 33.5648C80.7572 33.9083 80.5929 34.4011 80.5929 35.0432V38H79.5177V32.064H80.5481V33.0608ZM89.5283 32.064L86.6499 38.5936C86.396 39.1984 86.0974 39.624 85.7539 39.8704C85.4179 40.1168 85.011 40.24 84.5331 40.24C84.2419 40.24 83.9582 40.1915 83.6819 40.0944C83.4131 40.0048 83.1891 39.8704 83.0099 39.6912L83.4691 38.8848C83.7752 39.176 84.1299 39.3216 84.5331 39.3216C84.7944 39.3216 85.011 39.2507 85.1827 39.1088C85.3619 38.9744 85.5224 38.7392 85.6643 38.4032L85.8547 37.9888L83.2339 32.064H84.3539L86.4259 36.8128L88.4755 32.064H89.5283ZM93.679 32.008C94.2539 32.008 94.7691 32.1349 95.2246 32.3888C95.68 32.6427 96.0347 32.9973 96.2886 33.4528C96.5499 33.9083 96.6806 34.4347 96.6806 35.032C96.6806 35.6293 96.5499 36.1595 96.2886 36.6224C96.0347 37.0779 95.68 37.4325 95.2246 37.6864C94.7691 37.9403 94.2539 38.0672 93.679 38.0672C93.2534 38.0672 92.8614 37.9851 92.503 37.8208C92.152 37.6565 91.8534 37.4176 91.607 37.104V40.1728H90.5318V32.064H91.5622V33.0048C91.8011 32.6763 92.1035 32.4299 92.4694 32.2656C92.8352 32.0939 93.2384 32.008 93.679 32.008ZM93.5894 37.1264C93.9702 37.1264 94.3099 37.0405 94.6086 36.8688C94.9147 36.6896 95.1536 36.4432 95.3254 36.1296C95.5046 35.8085 95.5942 35.4427 95.5942 35.032C95.5942 34.6213 95.5046 34.2592 95.3254 33.9456C95.1536 33.6245 94.9147 33.3781 94.6086 33.2064C94.3099 33.0347 93.9702 32.9488 93.5894 32.9488C93.216 32.9488 92.8763 33.0384 92.5702 33.2176C92.2715 33.3893 92.0326 33.632 91.8534 33.9456C91.6816 34.2592 91.5958 34.6213 91.5958 35.032C91.5958 35.4427 91.6816 35.8085 91.8534 36.1296C92.0251 36.4432 92.264 36.6896 92.5702 36.8688C92.8763 37.0405 93.216 37.1264 93.5894 37.1264ZM101.504 37.6528C101.347 37.7872 101.153 37.8917 100.921 37.9664C100.69 38.0336 100.451 38.0672 100.205 38.0672C99.6072 38.0672 99.1443 37.9067 98.8157 37.5856C98.4872 37.2645 98.3229 36.8053 98.3229 36.208V32.9488H97.3149V32.064H98.3229V30.7648H99.3981V32.064H101.101V32.9488H99.3981V36.1632C99.3981 36.4843 99.4765 36.7307 99.6333 36.9024C99.7976 37.0741 100.029 37.16 100.328 37.16C100.656 37.16 100.936 37.0667 101.168 36.88L101.504 37.6528ZM105.149 38.0672C104.559 38.0672 104.029 37.9365 103.559 37.6752C103.088 37.4139 102.719 37.0555 102.45 36.6C102.189 36.1371 102.058 35.6144 102.058 35.032C102.058 34.4496 102.189 33.9307 102.45 33.4752C102.719 33.0123 103.088 32.6539 103.559 32.4C104.029 32.1387 104.559 32.008 105.149 32.008C105.739 32.008 106.265 32.1387 106.728 32.4C107.199 32.6539 107.565 33.0123 107.826 33.4752C108.095 33.9307 108.229 34.4496 108.229 35.032C108.229 35.6144 108.095 36.1371 107.826 36.6C107.565 37.0555 107.199 37.4139 106.728 37.6752C106.265 37.9365 105.739 38.0672 105.149 38.0672ZM105.149 37.1264C105.53 37.1264 105.87 37.0405 106.168 36.8688C106.474 36.6896 106.713 36.4432 106.885 36.1296C107.057 35.8085 107.143 35.4427 107.143 35.032C107.143 34.6213 107.057 34.2592 106.885 33.9456C106.713 33.6245 106.474 33.3781 106.168 33.2064C105.87 33.0347 105.53 32.9488 105.149 32.9488C104.768 32.9488 104.425 33.0347 104.119 33.2064C103.82 33.3781 103.581 33.6245 103.402 33.9456C103.23 34.2592 103.144 34.6213 103.144 35.032C103.144 35.4427 103.23 35.8085 103.402 36.1296C103.581 36.4432 103.82 36.6896 104.119 36.8688C104.425 37.0405 104.768 37.1264 105.149 37.1264ZM115.166 38.0896C114.576 38.0896 114.004 38 113.452 37.8208C112.907 37.6341 112.478 37.3952 112.164 37.104L112.578 36.2304C112.877 36.4992 113.258 36.7195 113.721 36.8912C114.191 37.0555 114.673 37.1376 115.166 37.1376C115.815 37.1376 116.3 37.0293 116.622 36.8128C116.943 36.5888 117.103 36.2939 117.103 35.928C117.103 35.6592 117.014 35.4427 116.834 35.2784C116.663 35.1067 116.446 34.976 116.185 34.8864C115.931 34.7968 115.569 34.696 115.098 34.584C114.508 34.4421 114.031 34.3003 113.665 34.1584C113.306 34.0165 112.996 33.8 112.735 33.5088C112.481 33.2101 112.354 32.8107 112.354 32.3104C112.354 31.8923 112.463 31.5152 112.679 31.1792C112.903 30.8432 113.239 30.5744 113.687 30.3728C114.135 30.1712 114.691 30.0704 115.356 30.0704C115.819 30.0704 116.274 30.1301 116.722 30.2496C117.17 30.3691 117.555 30.5408 117.876 30.7648L117.506 31.6608C117.178 31.4517 116.827 31.2949 116.454 31.1904C116.08 31.0784 115.714 31.0224 115.356 31.0224C114.721 31.0224 114.243 31.1381 113.922 31.3696C113.609 31.6011 113.452 31.8997 113.452 32.2656C113.452 32.5344 113.542 32.7547 113.721 32.9264C113.9 33.0907 114.12 33.2213 114.382 33.3184C114.65 33.408 115.012 33.5051 115.468 33.6096C116.058 33.7515 116.532 33.8933 116.89 34.0352C117.249 34.1771 117.555 34.3936 117.809 34.6848C118.07 34.976 118.201 35.368 118.201 35.8608C118.201 36.2715 118.089 36.6485 117.865 36.992C117.641 37.328 117.301 37.5968 116.846 37.7984C116.39 37.9925 115.83 38.0896 115.166 38.0896ZM122.827 32.008C123.402 32.008 123.918 32.1349 124.373 32.3888C124.828 32.6427 125.183 32.9973 125.437 33.4528C125.698 33.9083 125.829 34.4347 125.829 35.032C125.829 35.6293 125.698 36.1595 125.437 36.6224C125.183 37.0779 124.828 37.4325 124.373 37.6864C123.918 37.9403 123.402 38.0672 122.827 38.0672C122.402 38.0672 122.01 37.9851 121.651 37.8208C121.3 37.6565 121.002 37.4176 120.755 37.104V40.1728H119.68V32.064H120.711V33.0048C120.95 32.6763 121.252 32.4299 121.618 32.2656C121.984 32.0939 122.387 32.008 122.827 32.008ZM122.738 37.1264C123.119 37.1264 123.458 37.0405 123.757 36.8688C124.063 36.6896 124.302 36.4432 124.474 36.1296C124.653 35.8085 124.743 35.4427 124.743 35.032C124.743 34.6213 124.653 34.2592 124.474 33.9456C124.302 33.6245 124.063 33.3781 123.757 33.2064C123.458 33.0347 123.119 32.9488 122.738 32.9488C122.364 32.9488 122.025 33.0384 121.719 33.2176C121.42 33.3893 121.181 33.632 121.002 33.9456C120.83 34.2592 120.744 34.6213 120.744 35.032C120.744 35.4427 120.83 35.8085 121.002 36.1296C121.174 36.4432 121.412 36.6896 121.719 36.8688C122.025 37.0405 122.364 37.1264 122.738 37.1264ZM129.857 38.0672C129.267 38.0672 128.737 37.9365 128.267 37.6752C127.796 37.4139 127.427 37.0555 127.158 36.6C126.896 36.1371 126.766 35.6144 126.766 35.032C126.766 34.4496 126.896 33.9307 127.158 33.4752C127.427 33.0123 127.796 32.6539 128.267 32.4C128.737 32.1387 129.267 32.008 129.857 32.008C130.447 32.008 130.973 32.1387 131.436 32.4C131.907 32.6539 132.272 33.0123 132.534 33.4752C132.803 33.9307 132.937 34.4496 132.937 35.032C132.937 35.6144 132.803 36.1371 132.534 36.6C132.272 37.0555 131.907 37.4139 131.436 37.6752C130.973 37.9365 130.447 38.0672 129.857 38.0672ZM129.857 37.1264C130.238 37.1264 130.577 37.0405 130.876 36.8688C131.182 36.6896 131.421 36.4432 131.593 36.1296C131.765 35.8085 131.851 35.4427 131.851 35.032C131.851 34.6213 131.765 34.2592 131.593 33.9456C131.421 33.6245 131.182 33.3781 130.876 33.2064C130.577 33.0347 130.238 32.9488 129.857 32.9488C129.476 32.9488 129.133 33.0347 128.827 33.2064C128.528 33.3781 128.289 33.6245 128.11 33.9456C127.938 34.2592 127.852 34.6213 127.852 35.032C127.852 35.4427 127.938 35.8085 128.11 36.1296C128.289 36.4432 128.528 36.6896 128.827 36.8688C129.133 37.0405 129.476 37.1264 129.857 37.1264ZM135.454 33.0608C135.641 32.7173 135.917 32.456 136.283 32.2768C136.649 32.0976 137.093 32.008 137.616 32.008V33.0496C137.556 33.0421 137.474 33.0384 137.37 33.0384C136.787 33.0384 136.328 33.2139 135.992 33.5648C135.663 33.9083 135.499 34.4011 135.499 35.0432V38H134.424V32.064H135.454V33.0608ZM142.519 37.6528C142.363 37.7872 142.168 37.8917 141.937 37.9664C141.705 38.0336 141.467 38.0672 141.22 38.0672C140.623 38.0672 140.16 37.9067 139.831 37.5856C139.503 37.2645 139.339 36.8053 139.339 36.208V32.9488H138.331V32.064H139.339V30.7648H140.414V32.064H142.116V32.9488H140.414V36.1632C140.414 36.4843 140.492 36.7307 140.649 36.9024C140.813 37.0741 141.045 37.16 141.343 37.16C141.672 37.16 141.952 37.0667 142.183 36.88L142.519 37.6528ZM150.041 30.16C151.057 30.16 151.856 30.4027 152.438 30.888C153.021 31.3733 153.312 32.0416 153.312 32.8928C153.312 33.744 153.021 34.4123 152.438 34.8976C151.856 35.3829 151.057 35.6256 150.041 35.6256H148.104V38H146.984V30.16H150.041ZM150.008 34.6512C150.717 34.6512 151.259 34.5019 151.632 34.2032C152.005 33.8971 152.192 33.4603 152.192 32.8928C152.192 32.3253 152.005 31.8923 151.632 31.5936C151.259 31.2875 150.717 31.1344 150.008 31.1344H148.104V34.6512H150.008ZM155.732 33.0608C155.919 32.7173 156.195 32.456 156.561 32.2768C156.927 32.0976 157.371 32.008 157.894 32.008V33.0496C157.834 33.0421 157.752 33.0384 157.648 33.0384C157.065 33.0384 156.606 33.2139 156.27 33.5648C155.942 33.9083 155.777 34.4011 155.777 35.0432V38H154.702V32.064H155.732V33.0608ZM164.529 35.0656C164.529 35.1477 164.522 35.256 164.507 35.3904H159.691C159.758 35.9131 159.986 36.3349 160.374 36.656C160.77 36.9696 161.259 37.1264 161.841 37.1264C162.551 37.1264 163.122 36.8875 163.555 36.4096L164.149 37.104C163.88 37.4176 163.544 37.6565 163.141 37.8208C162.745 37.9851 162.301 38.0672 161.808 38.0672C161.181 38.0672 160.624 37.9403 160.139 37.6864C159.654 37.4251 159.277 37.0629 159.008 36.6C158.746 36.1371 158.616 35.6144 158.616 35.032C158.616 34.4571 158.743 33.9381 158.997 33.4752C159.258 33.0123 159.613 32.6539 160.061 32.4C160.516 32.1387 161.027 32.008 161.595 32.008C162.162 32.008 162.666 32.1387 163.107 32.4C163.555 32.6539 163.902 33.0123 164.149 33.4752C164.402 33.9381 164.529 34.4683 164.529 35.0656ZM161.595 32.9152C161.08 32.9152 160.647 33.072 160.296 33.3856C159.952 33.6992 159.751 34.1099 159.691 34.6176H163.499C163.439 34.1173 163.234 33.7104 162.883 33.3968C162.539 33.0757 162.11 32.9152 161.595 32.9152ZM171.622 29.6896V38H170.592V37.0592C170.353 37.3877 170.051 37.6379 169.685 37.8096C169.319 37.9813 168.916 38.0672 168.475 38.0672C167.9 38.0672 167.385 37.9403 166.93 37.6864C166.474 37.4325 166.116 37.0779 165.854 36.6224C165.601 36.1595 165.474 35.6293 165.474 35.032C165.474 34.4347 165.601 33.9083 165.854 33.4528C166.116 32.9973 166.474 32.6427 166.93 32.3888C167.385 32.1349 167.9 32.008 168.475 32.008C168.901 32.008 169.293 32.0901 169.651 32.2544C170.01 32.4112 170.308 32.6464 170.547 32.96V29.6896H171.622ZM168.565 37.1264C168.938 37.1264 169.278 37.0405 169.584 36.8688C169.89 36.6896 170.129 36.4432 170.301 36.1296C170.473 35.8085 170.558 35.4427 170.558 35.032C170.558 34.6213 170.473 34.2592 170.301 33.9456C170.129 33.6245 169.89 33.3781 169.584 33.2064C169.278 33.0347 168.938 32.9488 168.565 32.9488C168.184 32.9488 167.841 33.0347 167.534 33.2064C167.236 33.3781 166.997 33.6245 166.818 33.9456C166.646 34.2592 166.56 34.6213 166.56 35.032C166.56 35.4427 166.646 35.8085 166.818 36.1296C166.997 36.4432 167.236 36.6896 167.534 36.8688C167.841 37.0405 168.184 37.1264 168.565 37.1264ZM173.657 32.064H174.732V38H173.657V32.064ZM174.194 30.9216C173.985 30.9216 173.81 30.8544 173.668 30.72C173.534 30.5856 173.466 30.4213 173.466 30.2272C173.466 30.0331 173.534 29.8688 173.668 29.7344C173.81 29.5925 173.985 29.5216 174.194 29.5216C174.403 29.5216 174.575 29.5888 174.71 29.7232C174.851 29.8501 174.922 30.0107 174.922 30.2048C174.922 30.4064 174.851 30.5781 174.71 30.72C174.575 30.8544 174.403 30.9216 174.194 30.9216ZM179.372 38.0672C178.767 38.0672 178.226 37.9365 177.748 37.6752C177.278 37.4139 176.908 37.0555 176.639 36.6C176.37 36.1371 176.236 35.6144 176.236 35.032C176.236 34.4496 176.37 33.9307 176.639 33.4752C176.908 33.0123 177.278 32.6539 177.748 32.4C178.226 32.1387 178.767 32.008 179.372 32.008C179.91 32.008 180.388 32.1163 180.806 32.3328C181.231 32.5493 181.56 32.8629 181.791 33.2736L180.974 33.8C180.787 33.5163 180.556 33.3035 180.279 33.1616C180.003 33.0197 179.697 32.9488 179.361 32.9488C178.973 32.9488 178.622 33.0347 178.308 33.2064C178.002 33.3781 177.759 33.6245 177.58 33.9456C177.408 34.2592 177.322 34.6213 177.322 35.032C177.322 35.4501 177.408 35.8197 177.58 36.1408C177.759 36.4544 178.002 36.6971 178.308 36.8688C178.622 37.0405 178.973 37.1264 179.361 37.1264C179.697 37.1264 180.003 37.0555 180.279 36.9136C180.556 36.7717 180.787 36.5589 180.974 36.2752L181.791 36.7904C181.56 37.2011 181.231 37.5184 180.806 37.7424C180.388 37.9589 179.91 38.0672 179.372 38.0672ZM186.597 37.6528C186.441 37.7872 186.247 37.8917 186.015 37.9664C185.784 38.0336 185.545 38.0672 185.298 38.0672C184.701 38.0672 184.238 37.9067 183.909 37.5856C183.581 37.2645 183.417 36.8053 183.417 36.208V32.9488H182.409V32.064H183.417V30.7648H184.492V32.064H186.194V32.9488H184.492V36.1632C184.492 36.4843 184.57 36.7307 184.727 36.9024C184.891 37.0741 185.123 37.16 185.421 37.16C185.75 37.16 186.03 37.0667 186.261 36.88L186.597 37.6528ZM187.897 32.064H188.973V38H187.897V32.064ZM188.435 30.9216C188.226 30.9216 188.05 30.8544 187.909 30.72C187.774 30.5856 187.707 30.4213 187.707 30.2272C187.707 30.0331 187.774 29.8688 187.909 29.7344C188.05 29.5925 188.226 29.5216 188.435 29.5216C188.644 29.5216 188.816 29.5888 188.95 29.7232C189.092 29.8501 189.163 30.0107 189.163 30.2048C189.163 30.4064 189.092 30.5781 188.95 30.72C188.816 30.8544 188.644 30.9216 188.435 30.9216ZM196.278 32.064L193.68 38H192.582L189.984 32.064H191.104L193.142 36.824L195.226 32.064H196.278ZM202.482 35.0656C202.482 35.1477 202.475 35.256 202.46 35.3904H197.644C197.711 35.9131 197.939 36.3349 198.327 36.656C198.723 36.9696 199.212 37.1264 199.794 37.1264C200.504 37.1264 201.075 36.8875 201.508 36.4096L202.102 37.104C201.833 37.4176 201.497 37.6565 201.094 37.8208C200.698 37.9851 200.254 38.0672 199.761 38.0672C199.134 38.0672 198.577 37.9403 198.092 37.6864C197.607 37.4251 197.23 37.0629 196.961 36.6C196.7 36.1371 196.569 35.6144 196.569 35.032C196.569 34.4571 196.696 33.9381 196.95 33.4752C197.211 33.0123 197.566 32.6539 198.014 32.4C198.469 32.1387 198.981 32.008 199.548 32.008C200.116 32.008 200.62 32.1387 201.06 32.4C201.508 32.6539 201.855 33.0123 202.102 33.4752C202.356 33.9381 202.482 34.4683 202.482 35.0656ZM199.548 32.9152C199.033 32.9152 198.6 33.072 198.249 33.3856C197.905 33.6992 197.704 34.1099 197.644 34.6176H201.452C201.392 34.1173 201.187 33.7104 200.836 33.3968C200.493 33.0757 200.063 32.9152 199.548 32.9152ZM210.198 30.16C211.213 30.16 212.012 30.4027 212.595 30.888C213.177 31.3733 213.468 32.0416 213.468 32.8928C213.468 33.744 213.177 34.4123 212.595 34.8976C212.012 35.3829 211.213 35.6256 210.198 35.6256H208.26V38H207.14V30.16H210.198ZM210.164 34.6512C210.873 34.6512 211.415 34.5019 211.788 34.2032C212.161 33.8971 212.348 33.4603 212.348 32.8928C212.348 32.3253 212.161 31.8923 211.788 31.5936C211.415 31.2875 210.873 31.1344 210.164 31.1344H208.26V34.6512H210.164ZM215.066 29.6896H216.141V38H215.066V29.6896ZM220.356 32.008C221.177 32.008 221.804 32.2096 222.237 32.6128C222.678 33.016 222.898 33.6171 222.898 34.416V38H221.879V37.216C221.7 37.4923 221.442 37.7051 221.106 37.8544C220.778 37.9963 220.386 38.0672 219.93 38.0672C219.266 38.0672 218.732 37.9067 218.329 37.5856C217.933 37.2645 217.735 36.8427 217.735 36.32C217.735 35.7973 217.925 35.3792 218.306 35.0656C218.687 34.7445 219.292 34.584 220.121 34.584H221.823V34.3712C221.823 33.9083 221.689 33.5536 221.42 33.3072C221.151 33.0608 220.755 32.9376 220.233 32.9376C219.882 32.9376 219.538 32.9973 219.202 33.1168C218.866 33.2288 218.583 33.3819 218.351 33.576L217.903 32.7696C218.209 32.5232 218.575 32.3365 219.001 32.2096C219.426 32.0752 219.878 32.008 220.356 32.008ZM220.109 37.2384C220.52 37.2384 220.875 37.1488 221.173 36.9696C221.472 36.7829 221.689 36.5216 221.823 36.1856V35.3568H220.165C219.255 35.3568 218.799 35.6629 218.799 36.2752C218.799 36.5739 218.915 36.8091 219.146 36.9808C219.378 37.1525 219.699 37.2384 220.109 37.2384ZM228.226 37.6528C228.069 37.7872 227.875 37.8917 227.643 37.9664C227.412 38.0336 227.173 38.0672 226.926 38.0672C226.329 38.0672 225.866 37.9067 225.538 37.5856C225.209 37.2645 225.045 36.8053 225.045 36.208V32.9488H224.037V32.064H225.045V30.7648H226.12V32.064H227.822V32.9488H226.12V36.1632C226.12 36.4843 226.198 36.7307 226.355 36.9024C226.519 37.0741 226.751 37.16 227.05 37.16C227.378 37.16 227.658 37.0667 227.89 36.88L228.226 37.6528ZM231.698 30.5072C231.056 30.5072 230.735 30.8544 230.735 31.5488V32.064H232.46V32.9488H230.758V38H229.682V32.9488H228.674V32.064H229.682V31.5376C229.682 30.9477 229.854 30.4811 230.198 30.1376C230.541 29.7941 231.023 29.6224 231.642 29.6224C231.881 29.6224 232.105 29.6523 232.314 29.712C232.523 29.7717 232.703 29.8576 232.852 29.9696L232.527 30.7872C232.281 30.6005 232.004 30.5072 231.698 30.5072ZM235.929 38.0672C235.339 38.0672 234.809 37.9365 234.338 37.6752C233.868 37.4139 233.498 37.0555 233.23 36.6C232.968 36.1371 232.838 35.6144 232.838 35.032C232.838 34.4496 232.968 33.9307 233.23 33.4752C233.498 33.0123 233.868 32.6539 234.338 32.4C234.809 32.1387 235.339 32.008 235.929 32.008C236.519 32.008 237.045 32.1387 237.508 32.4C237.978 32.6539 238.344 33.0123 238.606 33.4752C238.874 33.9307 239.009 34.4496 239.009 35.032C239.009 35.6144 238.874 36.1371 238.606 36.6C238.344 37.0555 237.978 37.4139 237.508 37.6752C237.045 37.9365 236.519 38.0672 235.929 38.0672ZM235.929 37.1264C236.31 37.1264 236.649 37.0405 236.948 36.8688C237.254 36.6896 237.493 36.4432 237.665 36.1296C237.837 35.8085 237.922 35.4427 237.922 35.032C237.922 34.6213 237.837 34.2592 237.665 33.9456C237.493 33.6245 237.254 33.3781 236.948 33.2064C236.649 33.0347 236.31 32.9488 235.929 32.9488C235.548 32.9488 235.205 33.0347 234.898 33.2064C234.6 33.3781 234.361 33.6245 234.182 33.9456C234.01 34.2592 233.924 34.6213 233.924 35.032C233.924 35.4427 234.01 35.8085 234.182 36.1296C234.361 36.4432 234.6 36.6896 234.898 36.8688C235.205 37.0405 235.548 37.1264 235.929 37.1264ZM241.526 33.0608C241.713 32.7173 241.989 32.456 242.355 32.2768C242.721 32.0976 243.165 32.008 243.688 32.008V33.0496C243.628 33.0421 243.546 33.0384 243.441 33.0384C242.859 33.0384 242.4 33.2139 242.064 33.5648C241.735 33.9083 241.571 34.4011 241.571 35.0432V38H240.496V32.064H241.526V33.0608ZM252.439 32.008C253.185 32.008 253.775 32.2245 254.208 32.6576C254.649 33.0907 254.869 33.7328 254.869 34.584V38H253.794V34.7072C253.794 34.1323 253.659 33.6992 253.391 33.408C253.129 33.1168 252.752 32.9712 252.259 32.9712C251.714 32.9712 251.281 33.1429 250.96 33.4864C250.639 33.8224 250.479 34.3077 250.479 34.9424V38H249.403V34.7072C249.403 34.1323 249.269 33.6992 249 33.408C248.739 33.1168 248.362 32.9712 247.869 32.9712C247.324 32.9712 246.891 33.1429 246.57 33.4864C246.249 33.8224 246.088 34.3077 246.088 34.9424V38H245.013V32.064H246.043V32.9488C246.26 32.6427 246.544 32.4112 246.895 32.2544C247.246 32.0901 247.645 32.008 248.093 32.008C248.556 32.008 248.967 32.1013 249.325 32.288C249.683 32.4747 249.96 32.7472 250.154 33.1056C250.378 32.7621 250.688 32.4933 251.083 32.2992C251.487 32.1051 251.938 32.008 252.439 32.008Z" fill="white"/>
</svg>
