<svg width="540" height="525" viewBox="0 0 540 525" fill="none" xmlns="http://www.w3.org/2000/svg">
<g clip-path="url(#clip0_1017_2318)">
<path d="M36.2343 438.84C56.2459 438.84 72.4685 422.642 72.4685 402.66C72.4685 382.679 56.2459 366.48 36.2343 366.48C16.2226 366.48 0 382.679 0 402.66C0 422.642 16.2226 438.84 36.2343 438.84Z" fill="url(#paint0_linear_1017_2318)"/>
<path d="M83.1339 162.005C91.4245 162.005 98.1454 155.295 98.1454 147.016C98.1454 138.738 91.4245 132.027 83.1339 132.027C74.8432 132.027 68.1223 138.738 68.1223 147.016C68.1223 155.295 74.8432 162.005 83.1339 162.005Z" fill="url(#paint1_linear_1017_2318)"/>
<path d="M532.117 312.006C542.65 301.489 542.65 284.437 532.117 273.92C521.584 263.403 504.507 263.403 493.974 273.92C483.441 284.437 483.441 301.489 493.974 312.006C504.507 322.523 521.584 322.523 532.117 312.006Z" fill="url(#paint2_linear_1017_2318)"/>
<path opacity="0.8" d="M519.933 402.061C509.145 404.169 497.339 400.799 493.732 394.551C490.126 388.303 495.921 381.532 506.756 379.423C517.591 377.315 529.35 380.685 532.957 386.949C536.563 393.212 530.783 399.937 519.933 402.061Z" fill="#0C0F38"/>
<path opacity="0.8" d="M36.6658 524.85C52.5832 524.85 65.4868 517.409 65.4868 508.23C65.4868 499.051 52.5832 491.609 36.6658 491.609C20.7484 491.609 7.84485 499.051 7.84485 508.23C7.84485 517.409 20.7484 524.85 36.6658 524.85Z" fill="#0C0F38"/>
<path opacity="0.8" d="M83.1339 207.895C88.8454 207.895 93.4755 205.222 93.4755 201.924C93.4755 198.626 88.8454 195.953 83.1339 195.953C77.4223 195.953 72.7922 198.626 72.7922 201.924C72.7922 205.222 77.4223 207.895 83.1339 207.895Z" fill="#0C0F38"/>
<g style="mix-blend-mode:lighten" opacity="0.8">
<path d="M186.103 84.6735C186.1 85.4307 185.873 86.17 185.449 86.7981C185.026 87.4262 184.425 87.915 183.724 88.2027C183.022 88.4903 182.251 88.564 181.508 88.4144C180.764 88.2649 180.082 87.8987 179.547 87.3622C179.011 86.8257 178.647 86.1429 178.501 85.4C178.354 84.6571 178.431 83.8874 178.722 83.1881C179.012 82.4888 179.504 81.8913 180.135 81.4709C180.766 81.0505 181.507 80.8262 182.266 80.8262C182.771 80.8262 183.271 80.9258 183.738 81.1193C184.204 81.3129 184.628 81.5965 184.985 81.9539C185.341 82.3114 185.624 82.7356 185.816 83.2023C186.008 83.669 186.105 84.1689 186.103 84.6735Z" fill="#D4088C"/>
</g>
<g style="mix-blend-mode:lighten" opacity="0.8">
<path d="M114.883 479.635C117.445 479.635 119.522 477.561 119.522 475.003C119.522 472.445 117.445 470.371 114.883 470.371C112.321 470.371 110.244 472.445 110.244 475.003C110.244 477.561 112.321 479.635 114.883 479.635Z" fill="#D4088C"/>
</g>
<g style="mix-blend-mode:lighten">
<path d="M87.8963 454.522C87.8993 454.995 87.7618 455.457 87.5012 455.852C87.2406 456.246 86.8685 456.554 86.4323 456.737C85.9961 456.92 85.5153 456.969 85.0509 456.879C84.5864 456.789 84.1593 456.563 83.8237 456.23C83.4881 455.897 83.259 455.472 83.1656 455.009C83.0721 454.546 83.1185 454.065 83.2989 453.629C83.4792 453.192 83.7854 452.818 84.1786 452.555C84.5718 452.293 85.0343 452.152 85.5074 452.152C85.8204 452.15 86.1307 452.21 86.4204 452.328C86.7101 452.447 86.9736 452.621 87.1957 452.841C87.4177 453.061 87.5939 453.323 87.7142 453.612C87.8344 453.9 87.8963 454.21 87.8963 454.522Z" fill="#6EE8FC"/>
</g>
<g style="mix-blend-mode:lighten">
<path d="M492.607 366.665C492.607 367.152 492.463 367.629 492.192 368.033C491.921 368.438 491.536 368.754 491.085 368.94C490.634 369.127 490.139 369.175 489.66 369.08C489.182 368.985 488.742 368.751 488.398 368.407C488.053 368.062 487.818 367.623 487.723 367.146C487.628 366.668 487.676 366.173 487.863 365.723C488.05 365.273 488.366 364.889 488.771 364.618C489.177 364.348 489.654 364.203 490.141 364.203C490.466 364.201 490.787 364.263 491.087 364.386C491.387 364.509 491.66 364.691 491.89 364.92C492.119 365.149 492.301 365.421 492.424 365.721C492.547 366.02 492.609 366.342 492.607 366.665Z" fill="#6EE8FC"/>
</g>
<g style="mix-blend-mode:lighten">
<path d="M36.6504 200.539C36.6504 201.224 36.447 201.893 36.0659 202.462C35.6849 203.032 35.1433 203.476 34.5096 203.738C33.876 204 33.1788 204.068 32.5061 203.935C31.8334 203.801 31.2155 203.471 30.7305 202.987C30.2455 202.503 29.9153 201.886 29.7815 201.214C29.6477 200.543 29.7163 199.846 29.9788 199.214C30.2413 198.581 30.6857 198.04 31.256 197.66C31.8263 197.279 32.4967 197.076 33.1826 197.076C34.1023 197.076 34.9844 197.441 35.6347 198.09C36.285 198.74 36.6504 199.62 36.6504 200.539Z" fill="#6EE8FC"/>
</g>
<g style="mix-blend-mode:lighten">
<path d="M295.9 74.2712C295.9 74.956 295.697 75.6254 295.316 76.1948C294.935 76.7643 294.393 77.2081 293.76 77.4701C293.126 77.7322 292.429 77.8008 291.756 77.6672C291.083 77.5336 290.465 77.2038 289.98 76.7196C289.496 76.2353 289.165 75.6183 289.031 74.9467C288.898 74.275 288.966 73.5788 289.229 72.9461C289.491 72.3134 289.936 71.7726 290.506 71.3921C291.076 71.0117 291.747 70.8086 292.433 70.8086C293.352 70.8086 294.234 71.1734 294.885 71.8228C295.535 72.4721 295.9 73.3528 295.9 74.2712Z" fill="#6EE8FC"/>
</g>
<g style="mix-blend-mode:lighten">
<path d="M50.7835 192.875C50.7835 193.255 50.6705 193.627 50.4588 193.944C50.2471 194.26 49.9462 194.506 49.5942 194.652C49.2422 194.798 48.8548 194.836 48.4811 194.762C48.1074 194.687 47.7641 194.504 47.4947 194.235C47.2252 193.966 47.0418 193.623 46.9674 193.25C46.8931 192.877 46.9312 192.49 47.0771 192.139C47.2229 191.787 47.4698 191.487 47.7866 191.275C48.1034 191.064 48.4759 190.951 48.857 190.951C49.1105 190.949 49.362 190.998 49.5966 191.093C49.8313 191.189 50.0445 191.331 50.2238 191.51C50.4031 191.689 50.5449 191.902 50.641 192.136C50.7371 192.371 50.7855 192.622 50.7835 192.875Z" fill="#6EE8FC"/>
</g>
<g style="mix-blend-mode:lighten">
<path d="M381.423 86.5825C381.426 87.0336 381.295 87.4755 381.046 87.852C380.797 88.2286 380.442 88.5229 380.026 88.6977C379.609 88.8724 379.15 88.9197 378.707 88.8336C378.263 88.7475 377.855 88.5318 377.535 88.2139C377.214 87.8959 376.995 87.4902 376.906 87.0479C376.817 86.6057 376.861 86.147 377.033 85.7299C377.205 85.3128 377.498 84.9562 377.873 84.7053C378.249 84.4543 378.69 84.3203 379.142 84.3203C379.744 84.3203 380.322 84.5581 380.75 84.982C381.177 85.4058 381.419 85.9811 381.423 86.5825Z" fill="#D4088C"/>
</g>
<path d="M48.1479 314.125L47.3157 311.155L53.9121 309.308L52.0626 302.722L55.0372 301.891L57.719 311.447L48.1479 314.125Z" fill="#6EE1F8"/>
<path d="M42.3221 324.453L41.4899 321.483L48.0863 319.636L46.2523 313.05L49.2114 312.219L51.8932 321.775L42.3221 324.453Z" fill="#6EE1F8"/>
<path d="M48.5024 321.129L45.8361 311.572L55.4071 308.895L56.2239 311.865L49.6275 313.711L51.477 320.298L48.5024 321.129Z" fill="#6EE1F8"/>
<path d="M276.126 93.9395C274.677 93.9395 273.26 93.5106 272.054 92.7071C270.848 91.9035 269.908 90.7613 269.352 89.4246C268.796 88.0879 268.648 86.6166 268.929 85.1965C269.21 83.7764 269.905 82.4711 270.928 81.4454C271.951 80.4198 273.255 79.7197 274.676 79.4336C276.097 79.1475 277.572 79.2882 278.913 79.8379C280.254 80.3876 281.402 81.3217 282.211 82.5223C283.021 83.7228 283.457 85.136 283.463 86.5835C283.467 87.5481 283.28 88.5039 282.913 89.3962C282.546 90.2885 282.006 91.0997 281.325 91.7831C280.643 92.4666 279.833 93.0089 278.941 93.379C278.049 93.749 277.092 93.9395 276.126 93.9395ZM276.126 82.3669C275.284 82.3669 274.46 82.6168 273.76 83.0849C273.06 83.553 272.515 84.2182 272.194 84.9961C271.873 85.774 271.79 86.6296 271.957 87.4543C272.123 88.279 272.532 89.0358 273.13 89.6286C273.728 90.2213 274.488 90.6234 275.316 90.7838C276.143 90.9442 276.999 90.8557 277.776 90.5295C278.552 90.2033 279.215 89.6541 279.678 88.9516C280.142 88.2491 280.386 87.4249 280.38 86.5835C280.368 85.4636 279.915 84.3935 279.119 83.6045C278.323 82.8154 277.248 82.3709 276.126 82.3669Z" fill="#6EE1F8"/>
<path d="M437.046 460.446L428.723 452.136L437.046 443.826L445.369 452.136L437.046 460.446ZM433.085 452.136L437.046 456.107L441.022 452.136L437.046 448.227L433.085 452.136Z" fill="#6EE1F8"/>
<path d="M456.888 157.04L454.708 159.217L463.623 168.118L465.803 165.942L456.888 157.04Z" fill="#D4088C"/>
<path d="M463.623 157.056L454.708 165.957L456.888 168.133L465.803 159.232L463.623 157.056Z" fill="#D4088C"/>
<path d="M265.939 514.032C259.881 514.197 253.88 512.815 248.508 510.015L106.715 428.222C102.091 425.544 99.5171 421.805 99.5171 417.696C99.5171 412.802 103.17 407.877 109.535 404.215L245.718 325.73C257.57 318.897 275.556 318.174 285.79 324.099L427.583 405.862C432.207 408.539 434.78 412.279 434.78 416.388C434.78 421.297 431.128 426.206 424.762 429.884L288.58 508.399C281.633 512.164 273.842 514.102 265.939 514.032ZM268.297 321.668C260.657 321.601 253.126 323.476 246.412 327.115L110.229 405.6C104.341 408.985 100.981 413.418 100.981 417.757C100.981 421.297 103.262 424.559 107.408 426.991L249.201 508.769C259.05 514.447 276.358 513.724 287.732 507.137L423.915 428.653C429.802 425.267 433.162 420.835 433.162 416.495C433.162 412.956 430.881 409.693 426.735 407.262L284.942 325.499C279.816 322.808 274.087 321.468 268.297 321.606V321.668Z" fill="url(#paint3_linear_1017_2318)"/>
<path opacity="0.8" d="M253.624 485.254L148.821 424.836C141.361 420.542 142.301 413.032 150.902 408.077L251.544 350.06C260.144 345.105 273.121 344.566 280.611 348.86L385.415 409.277C392.874 413.571 391.934 421.081 383.334 426.036L282.707 484.053C274.092 489.008 261.084 489.547 253.624 485.254Z" fill="#0C0F38"/>
<path d="M397.791 232.133H342.723L281.413 196.738C273.522 192.121 259.728 192.768 250.588 198.015L191.482 232.133H136.46V386.178C136.245 389.256 138.002 392.226 141.747 394.412L252.808 458.43C260.699 463.047 274.493 462.416 283.632 457.153L390.301 395.689C395.032 392.965 397.56 389.533 397.806 386.178L397.791 232.133Z" fill="url(#paint4_linear_1017_2318)"/>
<path d="M150.408 232.133H136.537V386.178C136.471 387.328 136.663 388.477 137.1 389.543C137.538 390.608 138.209 391.562 139.065 392.334C137.952 390.889 137.404 389.089 137.524 387.271V233.21H151.626C151.148 232.779 150.778 232.471 150.408 232.133Z" fill="#D4088C"/>
<path d="M380.175 232.133L379.851 233.056H396.805V387.101C396.526 389.449 395.436 391.626 393.722 393.257C395.947 391.523 397.402 388.987 397.776 386.193V232.133H380.175Z" fill="#6DE0F6"/>
<g style="mix-blend-mode:lighten" opacity="0.5">
<path d="M175.376 413.787V235.119H155.371V402.261L175.376 413.787Z" fill="#D4088C"/>
</g>
<g style="mix-blend-mode:lighten" opacity="0.3">
<path d="M187.644 420.864V247.121H182.188V417.71L187.644 420.864Z" fill="#D4088C"/>
</g>
<g style="mix-blend-mode:lighten" opacity="0.15">
<path d="M197.431 426.498V249.215H191.975V423.358L197.431 426.498Z" fill="#D4088C"/>
</g>
<path d="M252.823 304.4L141.762 240.366C133.871 235.749 134.857 227.87 143.981 222.607L250.604 161.143C259.728 155.895 273.522 155.31 281.428 159.865L392.489 223.884C400.38 228.501 399.394 236.396 390.27 241.643L283.648 303.2C274.508 308.371 260.714 308.94 252.823 304.4Z" fill="url(#paint5_linear_1017_2318)"/>
<path d="M254.041 304.401L143.072 240.366C135.166 235.75 136.168 227.87 145.276 222.607L251.914 161.143C256.741 158.507 262.12 157.036 267.619 156.85C261.698 156.85 255.871 158.325 250.665 161.143L144.043 222.607C134.919 227.87 133.933 235.827 141.824 240.366L252.885 304.401C257.539 306.797 262.766 307.862 267.989 307.478C263.15 307.691 258.34 306.629 254.041 304.401Z" fill="#D4088C"/>
<path d="M392.474 223.884L281.413 159.865C276.753 157.469 271.521 156.404 266.293 156.787C271.05 156.618 275.769 157.678 279.995 159.865L391.04 223.884C398.947 228.501 397.945 236.395 388.836 241.643L282.214 303.2C277.392 305.834 272.018 307.304 266.525 307.493C272.497 307.513 278.379 306.037 283.632 303.2L390.254 241.643C399.378 236.395 400.365 228.439 392.474 223.884Z" fill="#6DE0F6"/>
<path d="M256.476 285.933L173.789 238.227C167.917 234.826 168.657 228.993 175.438 224.992L254.827 179.24C261.608 175.316 271.888 174.901 277.76 178.286L360.447 225.992C366.319 229.378 365.579 235.226 358.798 239.212L279.409 284.979C272.628 288.888 262.379 289.319 256.476 285.933Z" fill="#6DE0F6"/>
<path d="M175.438 233.949L254.827 188.151C261.608 184.242 271.888 183.811 277.76 187.212L360.447 234.918C361.153 235.324 361.81 235.809 362.404 236.365C365.564 232.81 365.009 228.67 360.447 226.008L277.76 178.302C271.888 174.916 261.608 175.332 254.827 179.256L175.438 225.085C169.535 228.486 168.225 233.41 171.831 236.857C172.872 235.703 174.089 234.722 175.438 233.949Z" fill="#267FE5"/>
<path d="M286.792 315.327L380.807 261.065C381.276 260.726 381.659 260.282 381.927 259.769C382.194 259.256 382.338 258.688 382.348 258.11V256.571C382.348 255.417 381.639 254.894 380.807 255.386L286.792 309.648C286.322 309.99 285.938 310.436 285.67 310.952C285.402 311.467 285.259 312.038 285.25 312.618V314.157C285.235 315.296 285.944 315.881 286.792 315.327Z" fill="#6DE0F6"/>
<path d="M378.68 259.896C379.152 259.557 379.538 259.111 379.806 258.595C380.074 258.079 380.216 257.507 380.221 256.926V255.679L380.729 255.387C381.577 254.894 382.271 255.387 382.271 256.572V258.111C382.261 258.689 382.117 259.257 381.849 259.77C381.582 260.283 381.198 260.726 380.729 261.065L286.715 315.327C285.867 315.82 285.173 315.327 285.173 314.158V313.865L378.68 259.896Z" fill="#267FE5"/>
<path d="M286.792 331.839L380.807 277.577C381.277 277.235 381.661 276.789 381.928 276.273C382.196 275.758 382.339 275.187 382.348 274.607V273.068C382.348 271.929 381.639 271.406 380.807 271.898L286.792 326.145C286.324 326.489 285.942 326.936 285.675 327.451C285.408 327.966 285.262 328.535 285.25 329.115V330.654C285.235 331.808 285.944 332.331 286.792 331.839Z" fill="#6DE0F6"/>
<path d="M378.68 276.408C379.151 276.067 379.535 275.621 379.803 275.105C380.071 274.59 380.214 274.018 380.221 273.438V272.191L380.729 271.899C381.577 271.406 382.271 271.899 382.271 273.068V274.607C382.262 275.188 382.119 275.758 381.851 276.274C381.584 276.789 381.2 277.236 380.729 277.577L286.715 331.839C285.867 332.332 285.173 331.839 285.173 330.654V330.377L378.68 276.408Z" fill="#267FE5"/>
<path d="M286.792 348.336L380.807 294.089C381.276 293.747 381.659 293.3 381.927 292.785C382.194 292.27 382.338 291.699 382.348 291.119V289.58C382.348 288.441 381.639 287.903 380.807 288.411L286.792 342.657C286.322 343 285.939 343.446 285.672 343.961C285.404 344.477 285.26 345.047 285.25 345.627V347.166C285.235 348.305 285.944 348.844 286.792 348.336Z" fill="#6DE0F6"/>
<path d="M378.68 292.92C379.15 292.579 379.534 292.132 379.801 291.617C380.069 291.101 380.212 290.531 380.221 289.95V288.688L380.729 288.411C381.577 287.903 382.271 288.411 382.271 289.581V291.12C382.261 291.7 382.117 292.27 381.85 292.786C381.582 293.301 381.199 293.747 380.729 294.09L286.715 348.336C285.867 348.844 285.173 348.336 285.173 347.167V346.875L378.68 292.92Z" fill="#267FE5"/>
<path d="M286.792 364.848L380.807 310.602C381.274 310.258 381.656 309.811 381.924 309.296C382.191 308.781 382.336 308.211 382.348 307.632V306.093C382.348 304.938 381.639 304.415 380.807 304.908L286.792 359.17C286.322 359.511 285.938 359.958 285.67 360.473C285.402 360.989 285.259 361.559 285.25 362.14V363.679C285.235 364.818 285.944 365.341 286.792 364.848Z" fill="#6DE0F6"/>
<path d="M378.68 309.417C379.152 309.078 379.538 308.633 379.806 308.116C380.074 307.6 380.216 307.028 380.221 306.447V305.201L380.729 304.908C381.577 304.416 382.271 304.908 382.271 306.093V307.632C382.259 308.212 382.114 308.781 381.846 309.296C381.579 309.811 381.197 310.258 380.729 310.602L286.715 364.849C285.867 365.341 285.173 364.849 285.173 363.679V363.387L378.68 309.417Z" fill="#267FE5"/>
<path d="M286.792 381.36L380.807 327.098C381.277 326.757 381.661 326.31 381.928 325.795C382.196 325.279 382.339 324.709 382.348 324.128V322.589C382.348 321.45 381.639 320.927 380.807 321.42L286.792 375.682C286.323 376.021 285.939 376.464 285.672 376.977C285.404 377.49 285.26 378.058 285.25 378.636V380.175C285.235 381.329 285.944 381.853 286.792 381.36Z" fill="#6DE0F6"/>
<path d="M378.68 325.929C379.151 325.588 379.535 325.142 379.803 324.627C380.071 324.111 380.214 323.54 380.221 322.959V321.713L380.729 321.42C381.577 320.928 382.271 321.42 382.271 322.59V324.129C382.262 324.709 382.119 325.28 381.851 325.795C381.584 326.311 381.2 326.757 380.729 327.099L286.715 381.361C285.867 381.853 285.173 381.361 285.173 380.176V379.899L378.68 325.929Z" fill="#267FE5"/>
<path d="M286.792 397.874L380.807 343.612C381.276 343.269 381.659 342.823 381.927 342.308C382.194 341.792 382.338 341.222 382.348 340.642V339.103C382.348 337.964 381.639 337.441 380.807 337.933L286.792 392.18C286.324 392.524 285.942 392.971 285.675 393.486C285.408 394.001 285.262 394.57 285.25 395.15V396.689C285.235 397.843 285.944 398.366 286.792 397.874Z" fill="#6DE0F6"/>
<path d="M378.68 342.441C379.151 342.1 379.535 341.654 379.803 341.138C380.071 340.623 380.214 340.052 380.221 339.471V338.224L380.729 337.932C381.577 337.44 382.271 337.932 382.271 339.102V340.64C382.261 341.221 382.117 341.791 381.85 342.306C381.582 342.822 381.199 343.268 380.729 343.611L286.715 397.873C285.867 398.365 285.173 397.873 285.173 396.688V396.411L378.68 342.441Z" fill="#267FE5"/>
<path d="M286.792 414.372L380.807 360.125C381.276 359.783 381.659 359.336 381.927 358.821C382.194 358.305 382.338 357.735 382.348 357.155V355.616C382.348 354.462 381.639 353.939 380.807 354.431L286.792 408.693C286.322 409.036 285.939 409.482 285.672 409.997C285.404 410.513 285.26 411.083 285.25 411.663V413.202C285.235 414.372 285.944 414.864 286.792 414.372Z" fill="#6DE0F6"/>
<path d="M378.68 358.97C379.15 358.632 379.535 358.189 379.803 357.676C380.071 357.163 380.214 356.594 380.221 356.015V354.753L380.729 354.461C381.577 353.969 382.271 354.461 382.271 355.646V357.185C382.259 357.765 382.114 358.334 381.846 358.849C381.579 359.364 381.197 359.811 380.729 360.155L286.715 414.402C285.867 414.894 285.173 414.402 285.173 413.232V412.94L378.68 358.97Z" fill="#267FE5"/>
<path d="M286.792 430.883L380.807 376.621C381.276 376.282 381.659 375.839 381.927 375.326C382.194 374.813 382.338 374.245 382.348 373.667V372.128C382.348 370.974 381.639 370.45 380.807 370.943L286.792 425.205C286.322 425.546 285.938 425.993 285.67 426.508C285.402 427.024 285.259 427.594 285.25 428.175V429.714C285.235 430.853 285.944 431.376 286.792 430.883Z" fill="#6DE0F6"/>
<path d="M378.68 375.451C379.152 375.112 379.538 374.666 379.806 374.15C380.074 373.634 380.216 373.062 380.221 372.481V371.281L380.729 370.988C381.577 370.496 382.271 370.988 382.271 372.173V373.712C382.261 374.29 382.117 374.858 381.849 375.371C381.582 375.884 381.198 376.328 380.729 376.667L286.715 430.929C285.867 431.422 285.173 430.929 285.173 429.759V429.467L378.68 375.451Z" fill="#267FE5"/>
<path d="M286.792 447.395L380.807 393.133C381.277 392.792 381.661 392.345 381.928 391.83C382.196 391.314 382.339 390.744 382.348 390.163V388.624C382.348 387.486 381.639 386.962 380.807 387.455L286.792 441.701C286.324 442.046 285.942 442.492 285.675 443.007C285.408 443.522 285.262 444.092 285.25 444.672V446.21C285.235 447.365 285.944 447.888 286.792 447.395Z" fill="#6DE0F6"/>
<path d="M378.68 391.964C379.151 391.624 379.535 391.178 379.803 390.662C380.071 390.146 380.214 389.575 380.221 388.994V387.748L380.729 387.455C381.577 386.963 382.271 387.455 382.271 388.625V390.164C382.262 390.744 382.119 391.315 381.851 391.831C381.584 392.346 381.2 392.792 380.729 393.134L286.715 447.396C285.867 447.889 285.173 447.396 285.173 446.211V445.934L378.68 391.964Z" fill="#267FE5"/>
<path d="M267.126 320.544C268.522 320.544 269.653 319.414 269.653 318.02C269.653 316.626 268.522 315.496 267.126 315.496C265.73 315.496 264.598 316.626 264.598 318.02C264.598 319.414 265.73 320.544 267.126 320.544Z" fill="#6DE0F6"/>
<path d="M267.126 319.59C266.538 319.59 265.969 319.385 265.516 319.012C265.064 318.638 264.755 318.119 264.644 317.543C264.629 317.696 264.629 317.851 264.644 318.005C264.617 318.352 264.662 318.7 264.776 319.029C264.891 319.358 265.072 319.66 265.308 319.915C265.545 320.171 265.832 320.375 266.151 320.514C266.471 320.653 266.816 320.725 267.164 320.725C267.513 320.725 267.857 320.653 268.177 320.514C268.496 320.375 268.783 320.171 269.02 319.915C269.256 319.66 269.438 319.358 269.552 319.029C269.666 318.7 269.711 318.352 269.684 318.005C269.699 317.851 269.699 317.696 269.684 317.543C269.571 318.132 269.251 318.662 268.782 319.037C268.313 319.412 267.726 319.608 267.126 319.59Z" fill="#267FE5"/>
<path d="M267.126 337.055C268.522 337.055 269.653 335.925 269.653 334.532C269.653 333.138 268.522 332.008 267.126 332.008C265.73 332.008 264.598 333.138 264.598 334.532C264.598 335.925 265.73 337.055 267.126 337.055Z" fill="#6DE0F6"/>
<path d="M267.126 336.086C266.54 336.09 265.971 335.888 265.518 335.517C265.065 335.147 264.756 334.629 264.644 334.055C264.628 334.208 264.628 334.363 264.644 334.516C264.617 334.863 264.662 335.212 264.776 335.541C264.891 335.87 265.072 336.171 265.308 336.427C265.545 336.682 265.832 336.886 266.152 337.026C266.471 337.165 266.816 337.237 267.164 337.237C267.513 337.237 267.858 337.165 268.177 337.026C268.496 336.886 268.783 336.682 269.02 336.427C269.257 336.171 269.438 335.87 269.552 335.541C269.666 335.212 269.711 334.863 269.684 334.516C269.7 334.363 269.7 334.208 269.684 334.055C269.57 334.642 269.25 335.17 268.781 335.543C268.312 335.915 267.725 336.108 267.126 336.086Z" fill="#267FE5"/>
<path d="M267.126 353.554C268.522 353.554 269.653 352.424 269.653 351.03C269.653 349.636 268.522 348.506 267.126 348.506C265.73 348.506 264.598 349.636 264.598 351.03C264.598 352.424 265.73 353.554 267.126 353.554Z" fill="#6DE0F6"/>
<path d="M267.126 352.599C266.538 352.602 265.967 352.399 265.514 352.025C265.06 351.651 264.753 351.13 264.644 350.553C264.628 350.711 264.628 350.871 264.644 351.03C264.694 351.663 264.981 352.254 265.448 352.686C265.915 353.117 266.528 353.357 267.164 353.357C267.8 353.357 268.413 353.117 268.88 352.686C269.347 352.254 269.634 351.663 269.684 351.03C269.7 350.871 269.7 350.711 269.684 350.553C269.574 351.143 269.255 351.675 268.785 352.05C268.316 352.426 267.727 352.621 267.126 352.599Z" fill="#267FE5"/>
<path d="M267.126 370.065C268.522 370.065 269.653 368.935 269.653 367.541C269.653 366.148 268.522 365.018 267.126 365.018C265.73 365.018 264.598 366.148 264.598 367.541C264.598 368.935 265.73 370.065 267.126 370.065Z" fill="#6DE0F6"/>
<path d="M267.126 369.111C266.538 369.114 265.967 368.911 265.514 368.537C265.06 368.163 264.753 367.642 264.644 367.064C264.628 367.223 264.628 367.383 264.644 367.542C264.694 368.175 264.981 368.766 265.448 369.198C265.915 369.629 266.528 369.868 267.164 369.868C267.8 369.868 268.413 369.629 268.88 369.198C269.347 368.766 269.634 368.175 269.684 367.542C269.7 367.383 269.7 367.223 269.684 367.064C269.574 367.655 269.255 368.186 268.785 368.562C268.316 368.938 267.727 369.132 267.126 369.111Z" fill="#267FE5"/>
<path d="M267.126 386.579C268.522 386.579 269.653 385.449 269.653 384.055C269.653 382.661 268.522 381.531 267.126 381.531C265.73 381.531 264.598 382.661 264.598 384.055C264.598 385.449 265.73 386.579 267.126 386.579Z" fill="#6DE0F6"/>
<path d="M267.126 385.623C266.538 385.623 265.969 385.418 265.516 385.045C265.064 384.671 264.755 384.152 264.644 383.576C264.629 383.73 264.629 383.884 264.644 384.038C264.617 384.385 264.662 384.734 264.776 385.062C264.891 385.391 265.072 385.693 265.308 385.948C265.545 386.204 265.832 386.408 266.151 386.547C266.471 386.687 266.816 386.759 267.164 386.759C267.513 386.759 267.857 386.687 268.177 386.547C268.496 386.408 268.783 386.204 269.02 385.948C269.256 385.693 269.438 385.391 269.552 385.062C269.666 384.734 269.711 384.385 269.684 384.038C269.699 383.884 269.699 383.73 269.684 383.576C269.571 384.165 269.251 384.695 268.782 385.07C268.313 385.445 267.726 385.641 267.126 385.623Z" fill="#267FE5"/>
<path d="M267.126 403.075C268.522 403.075 269.653 401.945 269.653 400.551C269.653 399.157 268.522 398.027 267.126 398.027C265.73 398.027 264.598 399.157 264.598 400.551C264.598 401.945 265.73 403.075 267.126 403.075Z" fill="#6DE0F6"/>
<path d="M267.126 402.06C266.538 402.063 265.967 401.86 265.514 401.486C265.06 401.112 264.753 400.591 264.644 400.014C264.628 400.172 264.628 400.332 264.644 400.491C264.617 400.838 264.662 401.186 264.776 401.515C264.891 401.844 265.072 402.146 265.308 402.401C265.545 402.657 265.832 402.861 266.152 403C266.471 403.139 266.816 403.211 267.164 403.211C267.513 403.211 267.858 403.139 268.177 403C268.496 402.861 268.783 402.657 269.02 402.401C269.257 402.146 269.438 401.844 269.552 401.515C269.666 401.186 269.711 400.838 269.684 400.491C269.7 400.332 269.7 400.172 269.684 400.014C269.574 400.604 269.255 401.136 268.785 401.511C268.316 401.887 267.727 402.082 267.126 402.06Z" fill="#267FE5"/>
<path d="M267.126 419.589C268.522 419.589 269.653 418.459 269.653 417.065C269.653 415.671 268.522 414.541 267.126 414.541C265.73 414.541 264.598 415.671 264.598 417.065C264.598 418.459 265.73 419.589 267.126 419.589Z" fill="#6DE0F6"/>
<path d="M267.126 418.635C266.538 418.638 265.967 418.434 265.514 418.06C265.06 417.686 264.753 417.165 264.644 416.588C264.628 416.747 264.628 416.906 264.644 417.065C264.694 417.698 264.981 418.29 265.448 418.721C265.915 419.152 266.528 419.392 267.164 419.392C267.8 419.392 268.413 419.152 268.88 418.721C269.347 418.29 269.634 417.698 269.684 417.065C269.7 416.906 269.7 416.747 269.684 416.588C269.574 417.178 269.255 417.71 268.785 418.085C268.316 418.461 267.727 418.656 267.126 418.635Z" fill="#267FE5"/>
<path d="M267.126 436.1C268.522 436.1 269.653 434.97 269.653 433.577C269.653 432.183 268.522 431.053 267.126 431.053C265.73 431.053 264.598 432.183 264.598 433.577C264.598 434.97 265.73 436.1 267.126 436.1Z" fill="#6DE0F6"/>
<path d="M267.126 435.146C266.538 435.146 265.969 434.942 265.516 434.568C265.064 434.195 264.755 433.675 264.644 433.1C264.629 433.253 264.629 433.408 264.644 433.561C264.617 433.908 264.662 434.257 264.776 434.586C264.891 434.915 265.072 435.216 265.308 435.472C265.545 435.727 265.832 435.931 266.151 436.071C266.471 436.21 266.816 436.282 267.164 436.282C267.513 436.282 267.857 436.21 268.177 436.071C268.496 435.931 268.783 435.727 269.02 435.472C269.256 435.216 269.438 434.915 269.552 434.586C269.666 434.257 269.711 433.908 269.684 433.561C269.699 433.408 269.699 433.253 269.684 433.1C269.571 433.689 269.251 434.218 268.782 434.593C268.313 434.968 267.726 435.164 267.126 435.146Z" fill="#267FE5"/>
<path d="M267.126 452.596C268.522 452.596 269.653 451.467 269.653 450.073C269.653 448.679 268.522 447.549 267.126 447.549C265.73 447.549 264.598 448.679 264.598 450.073C264.598 451.467 265.73 452.596 267.126 452.596Z" fill="#6DE0F6"/>
<path d="M267.126 451.642C266.538 451.645 265.967 451.442 265.514 451.068C265.06 450.694 264.753 450.173 264.644 449.596C264.567 449.963 264.573 450.343 264.661 450.708C264.75 451.073 264.919 451.414 265.156 451.705C265.393 451.997 265.692 452.232 266.031 452.393C266.371 452.554 266.742 452.638 267.118 452.638C267.494 452.638 267.865 452.554 268.205 452.393C268.544 452.232 268.843 451.997 269.08 451.705C269.317 451.414 269.486 451.073 269.575 450.708C269.663 450.343 269.669 449.963 269.592 449.596C269.484 450.17 269.179 450.689 268.728 451.063C268.278 451.437 267.711 451.642 267.126 451.642Z" fill="#267FE5"/>
<path d="M231.061 425.929C230.517 425.904 229.988 425.745 229.52 425.467L225.759 423.298C224.636 422.491 223.717 421.434 223.075 420.21C222.433 418.987 222.085 417.63 222.06 416.249V314.927C221.999 314.323 222.096 313.713 222.342 313.157C222.588 312.601 222.974 312.119 223.463 311.757C223.886 311.546 224.357 311.452 224.829 311.485C225.3 311.517 225.755 311.675 226.144 311.942L229.905 314.112C231.033 314.915 231.956 315.971 232.601 317.195C233.246 318.419 233.595 319.777 233.619 321.16V422.467C233.68 423.075 233.581 423.688 233.333 424.247C233.084 424.805 232.694 425.289 232.202 425.652C231.854 425.847 231.459 425.943 231.061 425.929ZM224.511 312.234C224.262 312.231 224.017 312.295 223.802 312.419C223.429 312.713 223.138 313.099 222.957 313.538C222.776 313.977 222.712 314.456 222.769 314.927V416.249C222.787 417.499 223.097 418.728 223.675 419.837C224.253 420.946 225.083 421.904 226.098 422.636L229.859 424.806C230.135 425.003 230.459 425.125 230.797 425.157C231.136 425.19 231.476 425.132 231.785 424.99C232.155 424.69 232.442 424.301 232.619 423.859C232.797 423.418 232.86 422.939 232.803 422.467V321.16C232.785 319.91 232.474 318.681 231.896 317.572C231.318 316.464 230.489 315.505 229.474 314.773L225.713 312.603C225.352 312.376 224.937 312.249 224.511 312.234Z" fill="#161242"/>
<path d="M168.487 390.395C167.942 390.374 167.412 390.215 166.946 389.934L163.185 387.764C162.058 386.961 161.134 385.905 160.489 384.681C159.844 383.457 159.495 382.099 159.471 380.716V279.409C159.407 278.802 159.503 278.189 159.749 277.63C159.995 277.072 160.382 276.587 160.873 276.223C161.299 276.013 161.773 275.919 162.247 275.952C162.721 275.984 163.178 276.142 163.571 276.408L167.331 278.578C168.454 279.385 169.373 280.442 170.016 281.665C170.658 282.889 171.005 284.245 171.03 285.626V386.948C171.091 387.553 170.994 388.163 170.748 388.718C170.502 389.274 170.116 389.756 169.628 390.118C169.278 390.309 168.885 390.405 168.487 390.395ZM163.524 387.102L167.285 389.272C167.559 389.468 167.88 389.589 168.216 389.621C168.551 389.654 168.889 389.597 169.196 389.457C169.567 389.16 169.856 388.774 170.037 388.336C170.217 387.897 170.283 387.419 170.229 386.948V285.626C170.211 284.376 169.9 283.148 169.322 282.039C168.744 280.93 167.915 279.971 166.9 279.24L163.139 277.07C162.863 276.872 162.539 276.751 162.201 276.718C161.862 276.686 161.521 276.744 161.212 276.885C160.843 277.186 160.556 277.575 160.378 278.016C160.201 278.458 160.138 278.937 160.195 279.409V380.716C160.213 381.966 160.523 383.194 161.101 384.303C161.68 385.412 162.509 386.37 163.524 387.102Z" fill="#161242"/>
<path d="M199.774 408.216C199.227 408.196 198.695 408.031 198.233 407.739L194.472 405.569C193.345 404.769 192.421 403.716 191.776 402.494C191.131 401.272 190.782 399.917 190.758 398.536V297.168C190.695 296.562 190.793 295.95 191.042 295.393C191.291 294.837 191.682 294.356 192.176 293.997C192.597 293.78 193.07 293.683 193.543 293.715C194.015 293.748 194.47 293.909 194.857 294.182L198.618 296.352C199.744 297.153 200.665 298.206 201.307 299.428C201.95 300.65 202.296 302.005 202.317 303.385V404.707C202.383 405.312 202.288 405.923 202.042 406.48C201.795 407.036 201.407 407.518 200.915 407.877C200.576 408.1 200.179 408.218 199.774 408.216ZM193.224 294.521C192.975 294.516 192.73 294.58 192.515 294.705C192.141 294.999 191.849 295.384 191.668 295.824C191.487 296.263 191.423 296.742 191.482 297.214V398.536C191.499 399.784 191.809 401.011 192.387 402.117C192.965 403.224 193.796 404.179 194.811 404.907L198.572 407.077C198.846 407.273 199.167 407.394 199.503 407.426C199.838 407.459 200.176 407.402 200.483 407.262C200.857 406.968 201.149 406.583 201.33 406.143C201.511 405.703 201.575 405.225 201.516 404.753V303.385C201.499 302.137 201.189 300.91 200.611 299.803C200.033 298.697 199.202 297.741 198.187 297.014L194.426 294.844C194.064 294.618 193.65 294.491 193.224 294.475V294.521Z" fill="#161242"/>
<path opacity="0.5" d="M366.612 208.865L363.067 228.163L381.5 217.591L366.612 208.865Z" fill="#13113D"/>
<path d="M269.761 115.621L265.461 118.114L269.761 123.008V159.326C269.761 167.252 274.585 176.454 280.55 179.886L359.676 225.515L359.923 225.638L362.481 228.547L366.504 226.207L366.673 226.1L367.043 225.884C369.155 224.484 370.48 221.529 370.48 217.389V173.684L269.761 115.621Z" fill="url(#paint6_linear_1017_2318)"/>
<path d="M265.461 118.115L366.165 176.163V219.868C366.165 227.794 361.341 231.441 355.376 228.009L276.25 182.38C270.285 178.948 265.461 169.746 265.461 161.805V118.115Z" fill="#6DE0F6"/>
<path opacity="0.5" d="M263.103 288.011L243.822 299.215L157.298 249.339L175.222 239.059L263.103 288.011Z" fill="#38025B"/>
<path style="mix-blend-mode:lighten" d="M364.47 0.849609H169.905V231.564H170.028C169.581 234.057 170.814 236.503 173.866 238.273L256.553 285.979C262.425 289.365 272.689 288.934 279.486 285.025L358.86 239.273C362.651 237.073 364.485 234.272 364.393 231.579H364.47V0.849609Z" fill="url(#paint7_linear_1017_2318)"/>
<path d="M171.693 174.547L167.393 177.04L171.693 181.934V218.252C171.693 226.177 176.517 235.38 182.481 238.812L261.608 284.441L261.855 284.564L264.413 287.472L268.436 285.133L268.59 285.025L268.975 284.81C271.087 283.41 272.412 280.455 272.412 276.315V232.61L171.693 174.547Z" fill="url(#paint8_linear_1017_2318)"/>
<path d="M167.393 177.039L268.097 235.087V278.792C268.097 286.717 263.257 290.365 257.308 286.933L178.181 241.304C172.217 237.872 167.393 228.67 167.393 220.744V177.039Z" fill="url(#paint9_linear_1017_2318)"/>
<path opacity="0.5" d="M381.793 217.76L366.612 208.865L381.793 217.76Z" fill="#38025B"/>
</g>
<defs>
<linearGradient id="paint0_linear_1017_2318" x1="61.8377" y1="377.069" x2="10.6717" y2="428.312" gradientUnits="userSpaceOnUse">
<stop stop-color="#D4088C"/>
<stop offset="0.04" stop-color="#CC088C"/>
<stop offset="0.46" stop-color="#85078A"/>
<stop offset="0.76" stop-color="#590689"/>
<stop offset="0.91" stop-color="#480689"/>
</linearGradient>
<linearGradient id="paint1_linear_1017_2318" x1="98.1454" y1="147.016" x2="68.1377" y2="147.016" gradientUnits="userSpaceOnUse">
<stop stop-color="#6EE8FC"/>
<stop offset="0.16" stop-color="#6AE2FB"/>
<stop offset="0.37" stop-color="#5ED1F7"/>
<stop offset="0.61" stop-color="#4BB5F1"/>
<stop offset="0.87" stop-color="#308EE8"/>
<stop offset="0.96" stop-color="#267FE5"/>
</linearGradient>
<linearGradient id="paint2_linear_1017_2318" x1="-13787.1" y1="40304.8" x2="-11667.6" y2="41357.8" gradientUnits="userSpaceOnUse">
<stop stop-color="#6EE8FC"/>
<stop offset="0.16" stop-color="#6AE2FB"/>
<stop offset="0.37" stop-color="#5ED1F7"/>
<stop offset="0.61" stop-color="#4BB5F1"/>
<stop offset="0.87" stop-color="#308EE8"/>
<stop offset="0.96" stop-color="#267FE5"/>
</linearGradient>
<linearGradient id="paint3_linear_1017_2318" x1="99.44" y1="417.065" x2="434.796" y2="417.065" gradientUnits="userSpaceOnUse">
<stop stop-color="#D4088C"/>
<stop offset="0.23" stop-color="#8D139B"/>
<stop offset="0.51" stop-color="#6EE1F8"/>
<stop offset="0.78" stop-color="#6EE8FC"/>
<stop offset="1" stop-color="#6EE8FC"/>
</linearGradient>
<linearGradient id="paint4_linear_1017_2318" x1="111.724" y1="327.607" x2="430.141" y2="327.607" gradientUnits="userSpaceOnUse">
<stop stop-color="#A31FA9"/>
<stop offset="0.07" stop-color="#8B17A0"/>
<stop offset="0.15" stop-color="#740F98"/>
<stop offset="0.24" stop-color="#640A92"/>
<stop offset="0.34" stop-color="#5B078F"/>
<stop offset="0.48" stop-color="#58068E"/>
<stop offset="0.63" stop-color="#4D22A3"/>
<stop offset="0.94" stop-color="#3168DA"/>
<stop offset="1" stop-color="#2C75E4"/>
</linearGradient>
<linearGradient id="paint5_linear_1017_2318" x1="137.399" y1="235.142" x2="383.448" y2="295.104" gradientUnits="userSpaceOnUse">
<stop stop-color="#8D139B"/>
<stop offset="0.17" stop-color="#851BA1"/>
<stop offset="0.43" stop-color="#6E33B2"/>
<stop offset="0.76" stop-color="#4958CD"/>
<stop offset="1" stop-color="#2979E4"/>
</linearGradient>
<linearGradient id="paint6_linear_1017_2318" x1="23755.1" y1="11676.9" x2="38629" y2="14856" gradientUnits="userSpaceOnUse">
<stop stop-color="#8D139B"/>
<stop offset="0.17" stop-color="#851BA1"/>
<stop offset="0.43" stop-color="#6E33B2"/>
<stop offset="0.76" stop-color="#4958CD"/>
<stop offset="1" stop-color="#2979E4"/>
</linearGradient>
<linearGradient id="paint7_linear_1017_2318" x1="267.187" y1="288.226" x2="267.187" y2="0.849609" gradientUnits="userSpaceOnUse">
<stop stop-color="#267FE5"/>
<stop offset="0.61" stop-color="#133A76"/>
<stop offset="1" stop-color="#071033"/>
</linearGradient>
<linearGradient id="paint8_linear_1017_2318" x1="16974.7" y1="16059.8" x2="31848.6" y2="19238.9" gradientUnits="userSpaceOnUse">
<stop stop-color="#8D139B"/>
<stop offset="0.17" stop-color="#851BA1"/>
<stop offset="0.43" stop-color="#6E33B2"/>
<stop offset="0.76" stop-color="#4958CD"/>
<stop offset="1" stop-color="#2979E4"/>
</linearGradient>
<linearGradient id="paint9_linear_1017_2318" x1="-243366" y1="-71214.1" x2="-230868" y2="-74405.4" gradientUnits="userSpaceOnUse">
<stop stop-color="#8D139B"/>
<stop offset="0.17" stop-color="#851BA1"/>
<stop offset="0.43" stop-color="#6E33B2"/>
<stop offset="0.76" stop-color="#4958CD"/>
<stop offset="1" stop-color="#2979E4"/>
</linearGradient>
<clipPath id="clip0_1017_2318">
<rect width="540" height="524" fill="white" transform="translate(0 0.849609)"/>
</clipPath>
</defs>
</svg>
