<?xml version="1.0" encoding="UTF-8" standalone="no"?>
<svg width="93px" height="82px" viewBox="0 0 93 82" version="1.1" xmlns="http://www.w3.org/2000/svg" xmlns:xlink="http://www.w3.org/1999/xlink" xmlns:sketch="http://www.bohemiancoding.com/sketch/ns">
    <!-- Generator: Sketch 3.3.2 (12043) - http://www.bohemiancoding.com/sketch -->
    <title>Group</title>
    <desc>Created with Sketch.</desc>
    <defs></defs>
    <g id="Desktop-View" stroke="none" stroke-width="1" fill="none" fill-rule="evenodd" sketch:type="MSPage">
        <g id="About" sketch:type="MSArtboardGroup" transform="translate(-619.000000, -1027.000000)" stroke="#4D3F40">
            <g id="Group" sketch:type="MSLayerGroup" transform="translate(480.000000, 1027.000000)">
                <g transform="translate(139.000000, 0.000000)" sketch:type="MSShapeGroup">
                    <g id="Oval-65-+-Line-+-Oval-66" transform="translate(0.000000, 29.000000)">
                        <path d="M39.6551724,50.7272727 C68.9515928,50.7272727 77.7241379,28.3822116 77.7241379,0.818181818 L1.5862069,0.818181818 C1.5862069,28.3822116 10.358752,50.7272727 39.6551724,50.7272727 Z" id="Oval-65"></path>
                        <path d="M0.793103448,51.5454545 L75.7655042,51.5454545" id="Line" stroke-linecap="round"></path>
                        <ellipse id="Oval-66" cx="84.862069" cy="17.1818182" rx="7.13793103" ry="7.36363636"></ellipse>
                    </g>
                    <path d="M30.9353917,8 C30.9353917,8 27.9113422,12.1150908 29.4233669,15.5658082 C30.9353917,19.0165257 33.9044969,20.7774521 30.2517578,24" id="Path-284" stroke-linecap="round"></path>
                    <path d="M48.9353917,8 C48.9353917,8 45.9113422,12.1150908 47.4233669,15.5658082 C48.9353917,19.0165257 51.9044969,20.7774521 48.2517578,24" id="Path-284-Copy-2" stroke-linecap="round"></path>
                    <path d="M40.8707834,0 C40.8707834,0 34.8226844,6.17263613 37.8467339,11.3487124 C40.8707834,16.5247886 46.8089938,19.1661781 39.5035157,24" id="Path-284-Copy" stroke-linecap="round"></path>
                </g>
            </g>
        </g>
    </g>
</svg>