<?xml version="1.0" encoding="UTF-8" standalone="no"?>
<svg width="91px" height="82px" viewBox="0 0 91 82" version="1.1" xmlns="http://www.w3.org/2000/svg" xmlns:xlink="http://www.w3.org/1999/xlink" xmlns:sketch="http://www.bohemiancoding.com/sketch/ns">
    <!-- Generator: Sketch 3.3.2 (12043) - http://www.bohemiancoding.com/sketch -->
    <title>Group</title>
    <desc>Created with Sketch.</desc>
    <defs></defs>
    <g id="Desktop-View" stroke="none" stroke-width="1" fill="none" fill-rule="evenodd" sketch:type="MSPage">
        <g id="About" sketch:type="MSArtboardGroup" transform="translate(-752.000000, -1028.000000)" stroke="#4D3F40" stroke-linejoin="round">
            <g id="Group" sketch:type="MSLayerGroup" transform="translate(480.000000, 1027.000000)">
                <g transform="translate(272.000000, 2.000000)" sketch:type="MSShapeGroup">
                    <path d="M17,15 L47,46 L77,15 L17,15 L17,15 Z" id="Stroke-225" stroke-linecap="round"></path>
                    <path d="M47,46 L47,80" id="Stroke-226" stroke-linecap="round"></path>
                    <path d="M32,80 L63,80" id="Stroke-227" stroke-linecap="round"></path>
                    <path d="M29,15 L15.4666667,0 L0,0" id="Stroke-228"></path>
                    <path d="M67.6478333,15.3256667 C67.2261667,14.1296667 67,12.8416667 67,11.5 C67,5.14433333 72.1481667,0 78.5,0 C84.8441667,0 90,5.14433333 90,11.5 C90,17.8556667 84.8441667,23 78.5,23 C76.2996667,23 74.2488333,22.3866667 72.5046667,21.3248333" id="Stroke-229"></path>
                </g>
            </g>
        </g>
    </g>
</svg>