<?xml version="1.0" encoding="utf-8"?>
<!-- Generator: Adobe Illustrator 16.0.0, SVG Export Plug-In . SVG Version: 6.00 Build 0)  -->
<!DOCTYPE svg PUBLIC "-//W3C//DTD SVG 1.1//EN" "http://www.w3.org/Graphics/SVG/1.1/DTD/svg11.dtd">
<svg version="1.1" id="Layer_1" xmlns:sketch="http://www.bohemiancoding.com/sketch/ns"
	 xmlns="http://www.w3.org/2000/svg" xmlns:xlink="http://www.w3.org/1999/xlink" x="0px" y="0px" width="1765.4px" height="970px"
	 viewBox="0 0 1765.4 970" enable-background="new 0 0 1765.4 970" xml:space="preserve">
<title>Polygon 1 Copy 3 + Polygon 1 Copy 4 Copy + Polygon 1 Copy 3 + Polygon 1 Copy 4 Copy Copy</title>
<desc>Created with Sketch.</desc>
<g id="NETWORKING" sketch:type="MSPage" opacity="0.5">
	<g id="Events---Main" transform="translate(0.000000, -518.000000)" sketch:type="MSArtboardGroup">
		
			<g id="Polygon-1-Copy-3-_x2B_-Polygon-1-Copy-4-Copy-_x2B_-Polygon-1-Copy-3-_x2B_-Polygon-1-Copy-4-Copy-Copy" transform="translate(-178.000000, 517.000000)" sketch:type="MSLayerGroup">
			
				<g id="Polygon-1-Copy-3-_x2B_-Polygon-1-Copy-4-Copy" transform="translate(577.500000, 492.000000) scale(-1, 1) translate(-577.500000, -492.000000) translate(0.000000, 12.000000)" sketch:type="MSShapeGroup">
				<polygon id="Polygon-1-Copy-3" fill="#9B9B9B" fill-opacity="0" stroke="#E5E5E5" points="478.999,0 893.826,239.5 
					893.826,718.5 478.999,958 64.174,718.5 64.174,239.5 				"/>
				<polygon id="Polygon-1-Copy-4" fill="#A66053" fill-opacity="0" stroke="#E5E5E5" points="945.5,482 1125.199,586.25 
					1125.199,794.75 945.5,899 765.8,794.75 765.8,586.25 				"/>
			</g>
			
				<g id="Polygon-1-Copy-3-_x2B_-Polygon-1-Copy-4-Copy-Copy" transform="translate(1247.500000, 480.000000) scale(1, -1) translate(-1247.500000, -480.000000) translate(670.000000, 0.000000)" sketch:type="MSShapeGroup">
				<polygon id="Polygon-1-Copy-3_1_" fill="#9B9B9B" fill-opacity="0" stroke="#E5E5E5" points="479.001,0 893.826,239.5 
					893.826,718.5 479.001,958 64.175,718.5 64.175,239.5 				"/>
				<polygon id="Polygon-1-Copy-4_1_" fill="#A66053" fill-opacity="0" stroke="#E5E5E5" points="945.501,482 1125.2,586.25 
					1125.2,794.75 945.501,899 765.8,794.75 765.8,586.25 				"/>
			</g>
		</g>
	</g>
</g>
</svg>
