<?xml version="1.0" encoding="utf-8"?>
<!-- Generator: Adobe Illustrator 16.0.0, SVG Export Plug-In . SVG Version: 6.00 Build 0)  -->
<!DOCTYPE svg PUBLIC "-//W3C//DTD SVG 1.1//EN" "http://www.w3.org/Graphics/SVG/1.1/DTD/svg11.dtd">
<svg version="1.1" id="Layer_1" xmlns="http://www.w3.org/2000/svg" xmlns:xlink="http://www.w3.org/1999/xlink" x="0px" y="0px"
	 width="40px" height="40px" viewBox="0 0 40 40" enable-background="new 0 0 40 40" xml:space="preserve">
<g>
	<g>
		<path fill="#FFFFFF" d="M20,34.168L7.73,27.084V12.916L20,5.832l12.269,7.084v14.168L20,34.168z M8.73,26.506L20,33.014
			l11.269-6.508V13.494L20,6.986L8.73,13.494V26.506z"/>
	</g>
	<g>
		<path fill="#FFFFFF" d="M19.992,22.639l-5.877-9.42h11.803L19.992,22.639z M15.917,14.219l4.078,6.537l4.112-6.537H15.917z"/>
	</g>
	<g>
		<rect x="19.494" y="21.697" fill="#FFFFFF" width="1" height="7.959"/>
	</g>
	<g>
		<rect x="18.528" y="29.178" fill="#FFFFFF" width="3.044" height="1"/>
	</g>
	<g>
		<rect x="16.957" y="16.109" fill="#FFFFFF" width="6.137" height="1"/>
	</g>
	<g>
		
			<rect x="20.535" y="10.6" transform="matrix(0.8696 0.4938 -0.4938 0.8696 9.9892 -8.4741)" fill="#FFFFFF" width="1.001" height="8.144"/>
	</g>
</g>
</svg>
