<?xml version="1.0" encoding="utf-8"?>
<!-- Generator: Adobe Illustrator 16.0.2, SVG Export Plug-In . SVG Version: 6.00 Build 0)  -->
<!DOCTYPE svg PUBLIC "-//W3C//DTD SVG 1.1//EN" "http://www.w3.org/Graphics/SVG/1.1/DTD/svg11.dtd">
<svg version="1.1" id="Layer_1" xmlns="http://www.w3.org/2000/svg" xmlns:xlink="http://www.w3.org/1999/xlink" x="0px" y="0px"
	 width="40px" height="40px" viewBox="0 0 40 40" enable-background="new 0 0 40 40" xml:space="preserve">
<g>
	<g id="XMLID_5941_">
		<path fill="#FFFFFF" d="M19.422,7.812l11.272,6.508v13.017l-11.272,6.509L8.149,27.337V14.32L19.422,7.812 M19.422,6.657
			L7.149,13.743v14.171L19.422,35l12.272-7.086V13.743L19.422,6.657L19.422,6.657z"/>
	</g>
	<g id="XMLID_3488_">
		<g id="XMLID_3494_">
			<path fill="#FFFFFF" d="M25.589,14.699v8.479h-12.29v-8.479H25.589 M26.589,13.699h-14.29v10.479h14.29V13.699L26.589,13.699z"/>
		</g>
		<g id="XMLID_3493_">
			<rect x="11.211" y="13.699" fill="#FFFFFF" width="16.529" height="0.986"/>
		</g>
		<g id="XMLID_3492_">
			<rect x="11.211" y="23.191" fill="#FFFFFF" width="16.529" height="0.987"/>
		</g>
		<g id="XMLID_3491_">
			<rect x="18.923" y="23.621" fill="#FFFFFF" width="1" height="5.959"/>
		</g>
		<g id="XMLID_3490_">
			
				<rect x="17.429" y="26.918" transform="matrix(0.5071 0.8619 -0.8619 0.5071 33.5299 -1.3307)" fill="#FFFFFF" width="0.999" height="3.467"/>
		</g>
		<g id="XMLID_3489_">
			
				<rect x="19.183" y="28.152" transform="matrix(0.8618 0.5072 -0.5072 0.8618 17.4236 -6.6503)" fill="#FFFFFF" width="3.467" height="1"/>
		</g>
	</g>
	<g id="XMLID_3487_">
		<polygon fill="#FFFFFF" points="19.558,21.358 16.46,19.615 15.239,21.037 14.48,20.385 16.237,18.341 19.194,20.007 
			20.631,17.637 23.774,15.071 24.407,15.845 21.332,18.355 		"/>
	</g>
</g>
</svg>
