<?xml version="1.0" encoding="utf-8"?>
<!-- Generator: Adobe Illustrator 16.0.2, SVG Export Plug-In . SVG Version: 6.00 Build 0)  -->
<!DOCTYPE svg PUBLIC "-//W3C//DTD SVG 1.1//EN" "http://www.w3.org/Graphics/SVG/1.1/DTD/svg11.dtd">
<svg version="1.1" id="Layer_1" xmlns="http://www.w3.org/2000/svg" xmlns:xlink="http://www.w3.org/1999/xlink" x="0px" y="0px"
	 width="40px" height="40px" viewBox="0 0 40 40" enable-background="new 0 0 40 40" xml:space="preserve">
<g id="XMLID_4429_">
	<g id="XMLID_4442_">
		<path fill="#A85E53" d="M19.527,7.271l11.273,6.507v13.018l-11.273,6.509L8.255,26.796V13.778L19.527,7.271 M19.527,6.116
			L7.255,13.201v14.172l12.272,7.086l12.273-7.086V13.201L19.527,6.116L19.527,6.116z"/>
	</g>
	<g id="XMLID_4430_">
		<g id="XMLID_4437_">
			<path fill="#A85E53" d="M26.305,17.961l1.148,0.663v1.326l-1.148,0.663l-1.148-0.663v-1.326L26.305,17.961 M26.305,16.807
				l-2.148,1.24v2.48l2.148,1.241l2.148-1.241v-2.48L26.305,16.807L26.305,16.807z"/>
		</g>
		<g id="XMLID_4432_">
			<path fill="#A85E53" d="M24.155,16.373l-0.001,7.538l-2.183,1.26l-5.019,0.003l-2.075-1.197l0.042-7.604H24.155 M25.155,15.373
				h-11.23l-0.05,9.179l2.811,1.622l5.555-0.003l2.914-1.683L25.155,15.373L25.155,15.373z"/>
		</g>
		<g id="XMLID_4431_">
			<rect x="13.875" y="26.76" fill="#A85E53" width="11.281" height="1"/>
		</g>
	</g>
</g>
</svg>
