<?xml version="1.0" encoding="utf-8"?>
<!-- Generator: Adobe Illustrator 16.0.0, SVG Export Plug-In . SVG Version: 6.00 Build 0)  -->
<!DOCTYPE svg PUBLIC "-//W3C//DTD SVG 1.1//EN" "http://www.w3.org/Graphics/SVG/1.1/DTD/svg11.dtd">
<svg version="1.1" id="Layer_1" xmlns="http://www.w3.org/2000/svg" xmlns:xlink="http://www.w3.org/1999/xlink" x="0px" y="0px"
	 width="40px" height="40px" viewBox="0 0 40 40" enable-background="new 0 0 40 40" xml:space="preserve">
<g>
	<path fill="#FFFFFF" d="M19.515,7.411l11.272,6.509v13.017l-11.272,6.508L8.241,26.937V13.92L19.515,7.411z M19.515,6.257
		L7.241,13.343v14.171L19.515,34.6l12.272-7.086V13.343L19.515,6.257z"/>
	<polygon fill="#FFFFFF" points="20.517,19.529 18.517,19.529 18.517,10.688 19.517,10.188 20.517,10.688 	"/>
	<polygon fill="#FFFFFF" points="18.517,25.063 18.517,21.227 20.517,21.227 20.517,25.063 20.313,28.331 20.017,29.727 
		19.517,30.575 19.017,29.727 18.721,28.347 	"/>
	<rect x="20.992" y="11.894" fill="#FFFFFF" width="0.739" height="6.788"/>
</g>
</svg>
