<?xml version="1.0" encoding="utf-8"?>
<!-- Generator: Adobe Illustrator 16.0.0, SVG Export Plug-In . SVG Version: 6.00 Build 0)  -->
<!DOCTYPE svg PUBLIC "-//W3C//DTD SVG 1.1//EN" "http://www.w3.org/Graphics/SVG/1.1/DTD/svg11.dtd">
<svg version="1.1" id="Layer_1" xmlns="http://www.w3.org/2000/svg" xmlns:xlink="http://www.w3.org/1999/xlink" x="0px" y="0px"
	 width="40px" height="40px" viewBox="0 0 40 40" enable-background="new 0 0 40 40" xml:space="preserve">
<g>
	<g>
		<path fill="#FFFFFF" d="M19.515,34.598L7.244,27.514v-14.17L19.515,6.26l12.27,7.084v14.17L19.515,34.598z M8.244,26.936
			l11.271,6.508l11.27-6.508V13.922l-11.27-6.508L8.244,13.922V26.936z"/>
	</g>
	<g>
		<path fill="#FFFFFF" d="M24.418,27.068h-9.807V13.787h9.807V27.068z M25.418,12.788H13.611v15.281h11.807V12.788z"/>
	</g>
	<g>
		<rect x="15.611" y="14.979" fill="#FFFFFF" width="4.715" height="1"/>
	</g>
	<g>
		<rect x="15.611" y="16.979" fill="#FFFFFF" width="7.715" height="1"/>
	</g>
	<g>
		<rect x="15.611" y="18.979" fill="#FFFFFF" width="6.715" height="1"/>
	</g>
	<g>
		<rect x="15.611" y="20.979" fill="#FFFFFF" width="5.715" height="1"/>
	</g>
	<g>
		<rect x="15.611" y="22.979" fill="#FFFFFF" width="7.715" height="1"/>
	</g>
	<g>
		<rect x="15.611" y="24.979" fill="#FFFFFF" width="7.715" height="1"/>
	</g>
</g>
</svg>
