<?xml version="1.0" encoding="utf-8"?>
<!-- Generator: Adobe Illustrator 16.0.2, SVG Export Plug-In . SVG Version: 6.00 Build 0)  -->
<!DOCTYPE svg PUBLIC "-//W3C//DTD SVG 1.1//EN" "http://www.w3.org/Graphics/SVG/1.1/DTD/svg11.dtd">
<svg version="1.1" id="Layer_1" xmlns="http://www.w3.org/2000/svg" xmlns:xlink="http://www.w3.org/1999/xlink" x="0px" y="0px"
	 width="40px" height="40px" viewBox="0 0 40 40" enable-background="new 0 0 40 40" xml:space="preserve">
<g>
	<path id="XMLID_4577_" fill="#FFFFFF" d="M19.357,7.271l11.272,6.507v13.018l-11.272,6.509L8.085,26.796V13.778L19.357,7.271
		 M19.357,6.116L7.085,13.201v14.172l12.272,7.086l12.272-7.086V13.201L19.357,6.116L19.357,6.116z"/>
	<g id="XMLID_3477_">
		<path id="XMLID_3484_" fill="#FFFFFF" d="M17.715,15.534v-0.042h3.165v0.042h-0.862v9.507h0.862v0.041h-3.165v-0.041h0.863v-4.698
			h-4.396v4.698h0.849v0.041h-3.165v-0.041h0.864v-9.507h-0.864v-0.042h3.165v0.042h-0.849v4.767h4.396v-4.767H17.715z"/>
		<path id="XMLID_3481_" fill="#FFFFFF" d="M23.487,25.041h0.836v0.041h-2.973v-0.041h0.85v-6.863h-0.85v-0.042h2.137V25.041z
			 M23.584,16.164c0,0.438-0.343,0.768-0.768,0.768c-0.452,0-0.767-0.316-0.767-0.754c0-0.438,0.343-0.768,0.767-0.768
			C23.27,15.41,23.584,15.726,23.584,16.164z"/>
		<path id="XMLID_3478_" fill="#FFFFFF" d="M26.024,21.972c0-0.821-0.124-1.849-0.384-3.068c-0.246-1.232-0.37-2.082-0.37-2.534
			c-0.097-1.246,1.657-1.246,1.575,0c0,0.452-0.123,1.302-0.383,2.534c-0.26,1.22-0.384,2.247-0.384,3.068H26.024z M26.818,24.384
			c0,0.452-0.342,0.78-0.768,0.78c-0.451,0-0.753-0.315-0.753-0.767c0-0.452,0.329-0.795,0.753-0.795
			C26.504,23.603,26.818,23.931,26.818,24.384z"/>
	</g>
</g>
</svg>
