<?xml version="1.0" encoding="utf-8"?>
<!-- Generator: Adobe Illustrator 19.0.0, SVG Export Plug-In . SVG Version: 6.00 Build 0)  -->
<svg version="1.1" id="Layer_1" xmlns="http://www.w3.org/2000/svg" xmlns:xlink="http://www.w3.org/1999/xlink" x="0px" y="0px"
	 viewBox="-273 132.5 20 20" style="enable-background:new -273 132.5 20 20;" xml:space="preserve">
<style type="text/css">
	.st0{fill:#FFFFFF;}
</style>
<path class="st0" d="M-256.9,132.5h-12.2c-2.1,0-3.9,1.7-3.9,3.9v12.2c0,2.1,1.7,3.9,3.9,3.9h12.2c2.1,0,3.9-1.7,3.9-3.9v-12.2
	C-253.1,134.3-254.8,132.5-256.9,132.5L-256.9,132.5L-256.9,132.5z M-255.8,134.7h0.4v3.4h-3.4v-3.4H-255.8L-255.8,134.7
	L-255.8,134.7z M-265.8,140.4c0.6-0.9,1.7-1.5,2.9-1.5c1.2,0,2.2,0.6,2.9,1.5c0.4,0.6,0.7,1.3,0.7,2.1c0,1.9-1.6,3.5-3.5,3.5
	s-3.5-1.6-3.5-3.5C-266.5,141.7-266.2,140.9-265.8,140.4L-265.8,140.4L-265.8,140.4z M-255,148.6c0,1.1-0.9,1.9-1.9,1.9h-12.2
	c-1.1,0-1.9-0.9-1.9-1.9v-8.2h3c-0.3,0.6-0.4,1.3-0.4,2.1c0,3,2.5,5.5,5.5,5.5c3,0,5.5-2.5,5.5-5.5c0-0.7-0.1-1.4-0.4-2.1h3
	L-255,148.6L-255,148.6L-255,148.6z"/>
</svg>
