<?xml version="1.0" encoding="utf-8"?>
<!-- Generator: Adobe Illustrator 16.0.2, SVG Export Plug-In . SVG Version: 6.00 Build 0)  -->
<!DOCTYPE svg PUBLIC "-//W3C//DTD SVG 1.1//EN" "http://www.w3.org/Graphics/SVG/1.1/DTD/svg11.dtd">
<svg version="1.1" id="Layer_1" xmlns="http://www.w3.org/2000/svg" xmlns:xlink="http://www.w3.org/1999/xlink" x="0px" y="0px"
	 width="40px" height="40px" viewBox="0 0 40 40" enable-background="new 0 0 40 40" xml:space="preserve">
<g>
	<path id="XMLID_4583_" fill="#A85E53" d="M19.502,8.271l11.272,6.507v13.018l-11.272,6.509L8.229,27.796V14.778L19.502,8.271
		 M19.502,7.116L7.229,14.201v14.172l12.272,7.086l12.272-7.086V14.201L19.502,7.116L19.502,7.116z"/>
	<path id="XMLID_3516_" fill="#A85E53" d="M27.71,16.967v8.528H11.322v-8.528H27.71 M28.71,15.967H10.322v10.528H28.71V15.967
		L28.71,15.967z"/>
	<rect id="XMLID_3515_" x="12.326" y="17.973" fill="#A85E53" width="1.004" height="1.004"/>
	<rect id="XMLID_3514_" x="25.702" y="17.973" fill="#A85E53" width="1.004" height="1.004"/>
	<rect id="XMLID_3513_" x="25.702" y="23.487" fill="#A85E53" width="1.004" height="1.004"/>
	<rect id="XMLID_3512_" x="12.326" y="23.487" fill="#A85E53" width="1.004" height="1.004"/>
	<rect id="XMLID_3511_" x="13.416" y="19.72" fill="#A85E53" width="12.227" height="1"/>
	<rect id="XMLID_3509_" x="16.511" y="21.494" fill="#A85E53" width="6.038" height="1"/>
</g>
</svg>
