<?xml version="1.0" encoding="utf-8"?>
<!-- Generator: Adobe Illustrator 19.0.0, SVG Export Plug-In . SVG Version: 6.00 Build 0)  -->
<svg version="1.1" id="Layer_1" xmlns="http://www.w3.org/2000/svg" xmlns:xlink="http://www.w3.org/1999/xlink" x="0px" y="0px"
	 viewBox="-261 119.9 43.5 43.5" style="enable-background:new -261 119.9 43.5 43.5;" xml:space="preserve">
<style type="text/css">
	.st0{fill:none;}
	.st1{fill:#38C0AD;}
	.st2{fill:#FFFFFF;}
</style>
<polygon class="st0" points="-245.1,146.9 -242.2,148.6 -235.7,148.6 -232.7,146.9 -232.7,136.1 -245.1,136.1 "/>
<polygon class="st0" points="-230.6,143.2 -228.9,142.2 -228.9,140.2 -230.6,139.3 -231.8,140 -231.8,142.4 "/>
<path class="st1" d="M-261,141.6l10.9,18.9h21.8l10.9-18.8l-10.9-18.9h-21.8L-261,141.6z"/>
<path class="st2" d="M-230.6,144.2l2.6-1.5v-3l-2.6-1.5l-1.3,0.7v4.5L-230.6,144.2z M-230.6,139.3l1.7,1v2l-1.7,1l-1.3-0.7V140
	L-230.6,139.3z"/>
<path class="st2" d="M-246,135.3v12.2l3.5,2h7l3.6-2.1v-3.9l-0.9-0.5v-3.5l0.9-0.5v-3.7L-246,135.3z M-232.7,146.9l-3,1.7h-6.5
	l-2.9-1.7v-10.8h12.4V146.9z"/>
<polygon class="st2" points="-232.7,142.9 -231.8,143.5 -231.8,139 -232.7,139.5 "/>
<rect x="-245.9" y="151" class="st2" width="14.1" height="0.9"/>
<path class="st2" d="M-242.5,133.5c0.2,0.2-0.2,1.3-0.2,1.3s1.4-1.4,1.1-1.9c-0.1-0.1-0.4,0.1-0.5-0.1c-0.2-0.4,0.5-1.8,0.5-1.8
	s-2,2-1.5,2.6C-243.1,133.7-242.6,133.4-242.5,133.5z"/>
<path class="st2" d="M-235.5,133.3c0.3,0.3-0.3,1.4-0.3,1.4s1.6-1.6,1.2-2.1c-0.1-0.1-0.5,0.1-0.6-0.1c-0.3-0.5,0.5-2,0.5-2
	s-2.3,2.3-1.7,3C-236.1,133.6-235.6,133.2-235.5,133.3z"/>
<path class="st2" d="M-240.3,132.6c0.2,0.2,1-0.4,1.3-0.2c0.4,0.4-0.4,2.3-0.4,2.3s2.6-2.6,2-3.5c-0.1-0.2-0.8,0.1-0.9-0.2
	c-0.5-0.7,0.9-3.3,0.9-3.3S-241.2,131.6-240.3,132.6z"/>
</svg>
