<?xml version="1.0" encoding="utf-8"?>
<!-- Generator: Adobe Illustrator 16.0.2, SVG Export Plug-In . SVG Version: 6.00 Build 0)  -->
<!DOCTYPE svg PUBLIC "-//W3C//DTD SVG 1.1//EN" "http://www.w3.org/Graphics/SVG/1.1/DTD/svg11.dtd">
<svg version="1.1" id="Layer_1" xmlns="http://www.w3.org/2000/svg" xmlns:xlink="http://www.w3.org/1999/xlink" x="0px" y="0px"
	 width="40px" height="40px" viewBox="0 0 40 40" enable-background="new 0 0 40 40" xml:space="preserve">
<path id="XMLID_4595_" fill="#FFFFFF" d="M20.958,9.296l9,5.196v10.393l-9,5.196l-9-5.196V14.492L20.958,9.296 M20.958,8.142
	l-10,5.773v11.547l10,5.773l10-5.773V13.915L20.958,8.142L20.958,8.142z"/>
<g id="XMLID_4157_">
	<polygon id="XMLID_4162_" fill="#FFFFFF" points="35.495,21.834 33.243,20.245 33.243,7.159 35.495,5.57 	"/>
	<g id="XMLID_4160_">
		<rect id="XMLID_4161_" x="34.495" y="13.622" fill="#FFFFFF" width="1" height="20.238"/>
	</g>
	<g id="XMLID_4158_">
		<polygon id="XMLID_4159_" fill="#FFFFFF" points="35.995,33.86 34.995,34.36 33.995,33.86 34.495,17.446 34.995,16.946 
			35.495,17.446 		"/>
	</g>
</g>
<path id="XMLID_4156_" fill="#FFFFFF" d="M7.879,14.95c0.641-0.786,0.905-1.813,0.725-2.812L7.868,6.563H7.744l0.105,5.55
	c0,1.589-1.134,0.601-1.134,0.601l-0.008-0.426l-0.43-6.771H6.153l-0.431,6.771H5.716v0.426c0,0-1.254,0.908-1.254-0.601l0.106-5.55
	H4.444l-0.736,5.575c-0.18,0.998,0.085,2.025,0.725,2.812l1.283,1.637v2.359l-0.5,14.914l1,0.5l1-0.5l-0.5-14.914v-2.359
	L7.879,14.95z"/>
</svg>
