<?xml version="1.0" encoding="utf-8"?>
<!-- Generator: Adobe Illustrator 16.0.2, SVG Export Plug-In . SVG Version: 6.00 Build 0)  -->
<!DOCTYPE svg PUBLIC "-//W3C//DTD SVG 1.1//EN" "http://www.w3.org/Graphics/SVG/1.1/DTD/svg11.dtd">
<svg version="1.1" id="Layer_1" xmlns="http://www.w3.org/2000/svg" xmlns:xlink="http://www.w3.org/1999/xlink" x="0px" y="0px"
	 width="40px" height="40px" viewBox="0 0 40 40" enable-background="new 0 0 40 40" xml:space="preserve">
<g id="XMLID_4338_">
	<g id="XMLID_4341_">
		<g id="XMLID_4349_">
			<path fill="#A85E53" d="M24.811,22.626c-0.035,0-0.071-0.004-0.107-0.012c-0.27-0.06-0.44-0.326-0.381-0.596l3.493-15.852
				c0.06-0.269,0.324-0.44,0.596-0.381c0.27,0.06,0.44,0.326,0.381,0.596l-3.493,15.852C25.247,22.467,25.041,22.626,24.811,22.626z
				"/>
		</g>
		<g id="XMLID_4348_">
			<path fill="#A85E53" d="M24.811,22.626H11.914c-0.276,0-0.5-0.224-0.5-0.5s0.224-0.5,0.5-0.5h12.896c0.276,0,0.5,0.224,0.5,0.5
				S25.087,22.626,24.811,22.626z"/>
		</g>
		<g id="XMLID_4347_">
			<rect x="16.691" y="22.622" fill="#A85E53" width="3.542" height="1"/>
		</g>
		<g id="XMLID_4346_">
			<rect x="17.962" y="22.845" fill="#A85E53" width="1" height="9.705"/>
		</g>
		<g id="XMLID_4343_">
			<g id="XMLID_4345_">
				<path fill="#A85E53" d="M14.216,22.476c-0.036,0-0.072-0.005-0.108-0.017c-0.184-0.06-0.285-0.257-0.225-0.441l1.856-5.714
					c0.06-0.184,0.258-0.286,0.441-0.225c0.184,0.06,0.285,0.257,0.225,0.441l-1.856,5.714C14.5,22.382,14.363,22.476,14.216,22.476
					z"/>
			</g>
			<g id="XMLID_4344_">
				<path fill="#A85E53" d="M26.093,16.762H16.069c-0.193,0-0.35-0.157-0.35-0.35s0.157-0.35,0.35-0.35h10.023
					c0.193,0,0.35,0.157,0.35,0.35S26.286,16.762,26.093,16.762z"/>
			</g>
		</g>
		<g id="XMLID_4342_">
			<path fill="#A85E53" d="M22.441,32.8h-7.969c-0.138,0-0.25-0.112-0.25-0.25s0.112-0.25,0.25-0.25h7.969
				c0.138,0,0.25,0.112,0.25,0.25S22.579,32.8,22.441,32.8z"/>
		</g>
	</g>
	<g id="XMLID_4340_">
		<circle fill="#A85E53" cx="16.134" cy="33.061" r="0.75"/>
	</g>
	<g id="XMLID_4339_">
		<circle fill="#A85E53" cx="20.794" cy="33.061" r="0.75"/>
	</g>
</g>
</svg>
