<?xml version="1.0" encoding="utf-8"?>
<!-- Generator: Adobe Illustrator 16.0.2, SVG Export Plug-In . SVG Version: 6.00 Build 0)  -->
<!DOCTYPE svg PUBLIC "-//W3C//DTD SVG 1.1//EN" "http://www.w3.org/Graphics/SVG/1.1/DTD/svg11.dtd">
<svg version="1.1" id="Layer_1" xmlns="http://www.w3.org/2000/svg" xmlns:xlink="http://www.w3.org/1999/xlink" x="0px" y="0px"
	 width="40px" height="40px" viewBox="0 0 40 40" enable-background="new 0 0 40 40" xml:space="preserve">
<g>
	<path id="XMLID_4602_" fill="#FFFFFF" d="M19.961,7.253l11.273,6.508v13.017l-11.273,6.509L8.688,26.777V13.761L19.961,7.253
		 M19.961,6.098L7.688,13.184v14.171l12.272,7.086l12.273-7.086V13.184L19.961,6.098L19.961,6.098z"/>
	<g id="XMLID_4133_">
		<polygon id="XMLID_4137_" fill="#FFFFFF" points="22.328,28.054 19.961,29.421 17.595,28.054 17.595,25.321 19.961,23.955 
			22.328,25.321 		"/>
		<path id="XMLID_4136_" fill="#FFFFFF" d="M19.887,21.154c-1.84,0-3.471,0.88-4.52,2.231l0.797,0.629
			c0.862-1.124,2.2-1.86,3.723-1.86c1.523,0,2.861,0.736,3.723,1.86l0.798-0.629C23.358,22.034,21.728,21.154,19.887,21.154z"/>
		<path id="XMLID_4135_" fill="#FFFFFF" d="M19.887,18.384c-2.746,0-5.18,1.31-6.751,3.324l0.783,0.617
			c1.388-1.783,3.54-2.94,5.968-2.941c2.429,0.001,4.581,1.158,5.969,2.941l0.783-0.617C25.067,19.694,22.634,18.385,19.887,18.384z
			"/>
		<path id="XMLID_4134_" fill="#FFFFFF" d="M19.887,15.653c-3.925,0-7.418,1.857-9.668,4.733l0.785,0.617
			c2.066-2.643,5.275-4.35,8.883-4.35c3.607,0,6.817,1.707,8.884,4.35l0.784-0.617C27.306,17.51,23.813,15.653,19.887,15.653z"/>
	</g>
</g>
</svg>
