<?xml version="1.0" encoding="utf-8"?>
<!-- Generator: Adobe Illustrator 16.0.2, SVG Export Plug-In . SVG Version: 6.00 Build 0)  -->
<!DOCTYPE svg PUBLIC "-//W3C//DTD SVG 1.1//EN" "http://www.w3.org/Graphics/SVG/1.1/DTD/svg11.dtd">
<svg version="1.1" id="Layer_1" xmlns="http://www.w3.org/2000/svg" xmlns:xlink="http://www.w3.org/1999/xlink" x="0px" y="0px"
	 width="40px" height="40px" viewBox="0 0 40 40" enable-background="new 0 0 40 40" xml:space="preserve">
<g>
	<path id="XMLID_4367_" fill="#FFFFFF" d="M19.481,8.271l11.273,6.507v13.018l-11.273,6.509L8.209,27.796V14.778L19.481,8.271
		 M19.481,7.116L7.209,14.201v14.172l12.272,7.086l12.273-7.086V14.201L19.481,7.116L19.481,7.116z"/>
	<g id="XMLID_4351_">
		<path id="XMLID_4361_" fill="#FFFFFF" d="M23.117,14.181v1.741h-7.285v-1.741H23.117 M24.117,13.181h-9.285v3.741h9.285V13.181
			L24.117,13.181z"/>
		<path id="XMLID_4356_" fill="#FFFFFF" d="M24.111,24.079v4h-9.279v-4H24.111 M25.111,23.079H13.832v6h11.279V23.079L25.111,23.079
			z"/>
		<rect id="XMLID_4355_" x="13.832" y="20.197" fill="#FFFFFF" width="1" height="1"/>
		<rect id="XMLID_4354_" x="15.831" y="20.197" fill="#FFFFFF" width="1" height="1"/>
		<polygon id="XMLID_4353_" fill="#FFFFFF" points="11.072,17.922 11.072,26.079 13.072,26.079 13.072,25.079 12.072,25.079 
			12.072,18.922 26.922,18.922 26.922,25.079 25.922,25.079 25.922,26.079 27.922,26.079 27.922,17.922 		"/>
		<rect id="XMLID_4352_" x="15.831" y="25.079" fill="#FFFFFF" width="7.28" height="1"/>
	</g>
</g>
</svg>
