<?xml version="1.0" encoding="utf-8"?>
<!-- Generator: Adobe Illustrator 16.0.2, SVG Export Plug-In . SVG Version: 6.00 Build 0)  -->
<!DOCTYPE svg PUBLIC "-//W3C//DTD SVG 1.1//EN" "http://www.w3.org/Graphics/SVG/1.1/DTD/svg11.dtd">
<svg version="1.1" id="Layer_1" xmlns="http://www.w3.org/2000/svg" xmlns:xlink="http://www.w3.org/1999/xlink" x="0px" y="0px"
	 width="40px" height="40px" viewBox="0 0 40 40" enable-background="new 0 0 40 40" xml:space="preserve">
<g>
	<g id="XMLID_265_">
		<path fill="#FFFFFF" d="M19.092,8.195l11.272,6.507V27.72l-11.272,6.509L7.819,27.72L7.818,14.702L19.092,8.195 M19.092,7.04
			L6.818,14.125l0.001,14.172l12.272,7.086l12.272-7.086V14.125L19.092,7.04L19.092,7.04z"/>
	</g>
	<g id="XMLID_263_">
		<rect x="16.102" y="16.66" fill="#FFFFFF" width="1" height="1"/>
	</g>
	<g id="XMLID_261_">
		<rect x="13.979" y="26.977" fill="#FFFFFF" width="1" height="1"/>
	</g>
	<g id="XMLID_260_">
		<rect x="23.311" y="26.977" fill="#FFFFFF" width="1" height="1"/>
	</g>
	<g id="XMLID_258_">
		<rect x="21.14" y="16.66" fill="#FFFFFF" width="1" height="1"/>
	</g>
	<g id="XMLID_225_">
		<rect x="16.102" y="22.864" fill="#FFFFFF" width="1" height="1"/>
	</g>
	<g id="XMLID_191_">
		<rect x="21.14" y="22.864" fill="#FFFFFF" width="1" height="1"/>
	</g>
	<g id="XMLID_190_">
		<path fill="#FFFFFF" d="M18.811,26.98h-6.304V13.594h6.304V26.98z M13.507,25.98h4.304V14.594h-4.304V25.98z"/>
	</g>
	<g id="XMLID_180_">
		<path fill="#FFFFFF" d="M25.684,26.98h-6.256V13.594h6.256V26.98z M20.428,25.98h4.256V14.594h-4.256V25.98z"/>
	</g>
	<g id="XMLID_172_">
		<rect x="13.007" y="19.787" fill="#FFFFFF" width="5.304" height="1"/>
	</g>
	<g id="XMLID_171_">
		<rect x="19.904" y="19.787" fill="#FFFFFF" width="5.303" height="1"/>
	</g>
</g>
</svg>
