<?xml version="1.0" encoding="utf-8"?>
<!-- Generator: Adobe Illustrator 16.0.0, SVG Export Plug-In . SVG Version: 6.00 Build 0)  -->
<!DOCTYPE svg PUBLIC "-//W3C//DTD SVG 1.1//EN" "http://www.w3.org/Graphics/SVG/1.1/DTD/svg11.dtd">
<svg version="1.1" id="Layer_1" xmlns:sketch="http://www.bohemiancoding.com/sketch/ns"
	 xmlns="http://www.w3.org/2000/svg" xmlns:xlink="http://www.w3.org/1999/xlink" x="0px" y="0px" width="44px" height="46.829px"
	 viewBox="22 23.896 44 46.829" enable-background="new 22 23.896 44 46.829" xml:space="preserve">
<title>Polygon 1 Copy 7 + toong_logo_main_white copy</title>
<desc>Created with Sketch.</desc>
<g id="Desktop-View" sketch:type="MSPage">
	<g id="Contact---Collapse" transform="translate(-826.000000, -401.000000)" sketch:type="MSArtboardGroup">
		
			<g id="Polygon-1-Copy-7-_x2B_-toong_x5F_logo_x5F_main_x5F_white-copy" transform="translate(820.000000, 401.000000)" sketch:type="MSLayerGroup">
			<polygon id="Polygon-1-Copy-7" sketch:type="MSShapeGroup" fill="#A66053" points="50.5,25.896 68.882,36.509 68.882,57.735 
				50.5,68.348 32.118,57.735 32.118,36.509 			">
			</polygon>
		</g>
	</g>
</g>
<g>
	<path fill="#FFFFFF" d="M39.537,45.508c0.481,0.502,0.717,1.137,0.717,1.915s-0.256,1.434-0.758,1.956s-1.106,0.788-1.822,0.788
		c-0.737,0-1.341-0.256-1.823-0.758c-0.471-0.502-0.707-1.146-0.707-1.924c0-0.778,0.246-1.424,0.748-1.946
		c0.501-0.523,1.116-0.778,1.833-0.778C38.461,44.76,39.065,45.006,39.537,45.508 M36.505,47.433c0,1.68,0.39,2.693,1.168,2.693
		c0.809,0,1.208-0.881,1.208-2.652c0-1.679-0.379-2.683-1.157-2.683C36.915,44.791,36.505,45.672,36.505,47.433"/>
	<path fill="#FFFFFF" d="M45.518,45.508c0.48,0.502,0.716,1.137,0.716,1.915s-0.256,1.434-0.758,1.956
		c-0.503,0.522-1.105,0.788-1.822,0.788c-0.738,0-1.341-0.256-1.823-0.758c-0.471-0.502-0.707-1.146-0.707-1.924
		c0-0.778,0.246-1.424,0.748-1.946c0.501-0.523,1.116-0.778,1.833-0.778C44.441,44.76,45.045,45.006,45.518,45.508 M42.485,47.433
		c0,1.68,0.39,2.693,1.168,2.693c0.81,0,1.208-0.881,1.208-2.652c0-1.679-0.379-2.683-1.157-2.683
		C42.896,44.791,42.485,45.672,42.485,47.433"/>
	<path fill="#FFFFFF" d="M57.201,43.788c0,0.574-0.472,1.055-1.24,1.137c0.697,0.235,1.045,0.697,1.045,1.403
		c0,0.471-0.194,0.86-0.594,1.167c-0.399,0.307-0.901,0.46-1.505,0.46c-0.134,0-0.298-0.01-0.502-0.041
		c-0.205-0.03-0.349-0.052-0.431-0.052c-0.43,0-0.645,0.134-0.645,0.39c0,0.338,0.634,0.431,1.443,0.44
		c0.399,0,0.81,0.021,1.208,0.05c0.81,0.072,1.443,0.462,1.443,1.209c0,0.481-0.245,0.87-0.737,1.167
		c-0.481,0.298-1.137,0.441-1.966,0.441c-1.403,0-2.068-0.451-2.068-1.147c0-0.215,0.071-0.399,0.225-0.552
		c0.317-0.318,0.594-0.38,0.799-0.411c-0.328-0.102-0.542-0.235-0.646-0.389c-0.071-0.123-0.112-0.256-0.112-0.409
		c0-0.44,0.409-0.768,0.973-0.86c-0.614-0.205-1.055-0.727-1.055-1.413c0-0.993,0.84-1.618,2.1-1.618
		c0.297,0,0.777,0.092,1.055,0.092c0.45,0,0.86-0.246,0.86-0.502c0-0.041-0.021-0.062-0.062-0.062l-0.134,0.041
		c-0.092,0.03-0.174,0.051-0.245,0.051c-0.358,0-0.635-0.235-0.635-0.634c0-0.369,0.286-0.635,0.695-0.635
		C56.914,43.111,57.201,43.378,57.201,43.788 M53.022,50.393c0,0.655,0.553,1.126,1.7,1.126c1.024,0,1.607-0.42,1.607-1.034
		c0-0.501-0.348-0.737-1.218-0.86c-0.503-0.071-0.902-0.102-1.198-0.102C53.381,49.522,53.022,49.86,53.022,50.393 M54.108,46.337
		c0,1.055,0.266,1.577,0.799,1.577c0.614,0,0.84-0.522,0.84-1.545c0-1.055-0.267-1.577-0.81-1.577
		C54.333,44.791,54.108,45.304,54.108,46.337"/>
	<path fill="#FFFFFF" d="M34.949,48.928c-0.042,0.461-0.369,0.778-0.789,0.778c-0.574,0-0.86-0.379-0.86-1.127v-3.573h1.577v-0.206
		H33.3v-1.484L32,43.859v0.941h-0.594v0.072l0,0v0.03l0,0v0.103H32v3.542c0,1.034,0.513,1.628,1.546,1.628
		c0.789,0,1.393-0.542,1.444-1.249H34.949L34.949,48.928z"/>
	<path fill="#FFFFFF" d="M51.854,49.962v-3.297c0-1.198-0.512-1.895-1.494-1.895c-0.502,0-0.941,0.185-1.188,0.44
		s-0.358,0.451-0.431,0.614v-0.818h0.005v-0.206h-1.93v0.072l0,0v0.031l0,0v0.103h0.614v4.955h-0.614v0.072l0,0v0.031l0,0v0.103
		h2.504v-0.206h-0.578v-3.625c0-0.727,0.409-1.28,0.992-1.28c0.502,0,0.809,0.317,0.809,0.881v4.023h-0.548v0.206h2.464v-0.206
		H51.854L51.854,49.962z"/>
</g>
</svg>
