<?xml version="1.0" encoding="utf-8"?>
<!-- Generator: Adobe Illustrator 16.0.0, SVG Export Plug-In . SVG Version: 6.00 Build 0)  -->
<!DOCTYPE svg PUBLIC "-//W3C//DTD SVG 1.1//EN" "http://www.w3.org/Graphics/SVG/1.1/DTD/svg11.dtd">
<svg version="1.1" id="Layer_1" xmlns:sketch="http://www.bohemiancoding.com/sketch/ns"
	 xmlns="http://www.w3.org/2000/svg" xmlns:xlink="http://www.w3.org/1999/xlink" x="0px" y="0px" width="452px" height="94px"
	 viewBox="0 0 452 94" enable-background="new 0 0 452 94" xml:space="preserve">
<title>toong_logo_01_white</title>
<desc>Created with Sketch.</desc>
<g>
	<g>
		<path fill="#a66053" d="M93.246,28.782c4.927,5.137,7.338,11.637,7.338,19.605c0,7.967-2.622,14.677-7.759,20.024
			c-5.136,5.346-11.322,8.073-18.66,8.073c-7.55,0-13.734-2.621-18.663-7.759c-4.822-5.137-7.234-11.742-7.234-19.71
			s2.516-14.572,7.655-19.92c5.136-5.345,11.426-7.967,18.765-7.967C82.237,21.128,88.422,23.644,93.246,28.782 M62.212,48.491
			c0,17.194,3.984,27.572,11.953,27.572c8.282,0,12.371-9.016,12.371-27.153c0-17.193-3.88-27.467-11.848-27.467
			C66.407,21.443,62.212,30.459,62.212,48.491"/>
	</g>
	<g>
		<path fill="#a66053" d="M154.473,28.782c4.928,5.137,7.338,11.637,7.338,19.605c0,7.967-2.621,14.677-7.758,20.024
			c-5.136,5.346-11.323,8.073-18.661,8.073c-7.549,0-13.734-2.621-18.662-7.759c-4.822-5.137-7.234-11.742-7.234-19.71
			s2.516-14.572,7.654-19.92c5.136-5.345,11.427-7.967,18.765-7.967C143.464,21.128,149.649,23.644,154.473,28.782 M123.44,48.491
			c0,17.194,3.984,27.572,11.952,27.572c8.282,0,12.372-9.016,12.372-27.153c0-17.193-3.88-27.467-11.848-27.467
			C127.635,21.443,123.44,30.459,123.44,48.491"/>
	</g>
	<g>
		<path fill="#a66053" d="M274.097,11.167c0,5.872-4.823,10.799-12.687,11.638c7.131,2.412,10.695,7.129,10.695,14.364
			c0,4.822-1.992,8.807-6.08,11.951c-4.09,3.147-9.226,4.718-15.413,4.718c-1.362,0-3.039-0.105-5.138-0.419
			c-2.095-0.314-3.562-0.525-4.402-0.525c-4.401,0-6.604,1.364-6.604,3.985c0,3.459,6.499,4.403,14.781,4.506
			c4.09,0,8.282,0.211,12.372,0.527c8.282,0.732,14.781,4.716,14.781,12.37c0,4.927-2.516,8.91-7.548,11.95
			c-4.927,3.042-11.638,4.51-20.129,4.51c-14.364,0-21.179-4.613-21.179-11.743c0-2.201,0.733-4.089,2.307-5.66
			c3.249-3.251,6.08-3.879,8.177-4.193c-3.354-1.049-5.557-2.411-6.604-3.985c-0.734-1.257-1.153-2.619-1.153-4.192
			c0-4.508,4.194-7.863,9.961-8.807c-6.291-2.098-10.801-7.444-10.801-14.469c0-10.169,8.597-16.563,21.492-16.563
			c3.041,0,7.969,0.944,10.801,0.944c4.61,0,8.807-2.516,8.807-5.138c0-0.418-0.212-0.628-0.63-0.628l-1.363,0.419
			c-0.943,0.314-1.782,0.523-2.516,0.523c-3.671,0-6.501-2.41-6.501-6.499c0-3.775,2.937-6.501,7.129-6.501
			C271.162,4.249,274.097,6.976,274.097,11.167 M231.323,78.79c0,6.709,5.661,11.531,17.403,11.531
			c10.482,0,16.458-4.298,16.458-10.589c0-5.137-3.562-7.547-12.475-8.806c-5.137-0.734-9.227-1.048-12.266-1.048
			C234.992,69.879,231.323,73.339,231.323,78.79 M242.436,37.274c0,10.797,2.727,16.145,8.177,16.145
			c6.29,0,8.597-5.348,8.597-15.831c0-10.799-2.725-16.146-8.282-16.146C244.741,21.442,242.436,26.686,242.436,37.274"/>
	</g>
	<g>
		<path fill="#a66053" d="M46.277,63.798c-0.419,4.718-3.775,7.968-8.074,7.968c-5.87,0-8.805-3.88-8.805-11.531V23.65h16.146
			v-2.108H29.398V6.345l-13.315,5.557v9.64h-6.08v0.74v0.315v1.054h6.08v36.27c0,10.588,5.243,16.668,15.831,16.668
			c8.074,0,14.259-5.556,14.783-12.79H46.277z"/>
	</g>
	<g>
		<path fill="#a66053" d="M219.369,74.381V40.628c0-12.266-5.242-19.395-15.306-19.395c-5.138,0-9.645,1.887-12.163,4.507
			c-2.516,2.622-3.669,4.614-4.401,6.291v-8.379h0.042v-2.109h-19.753v0.74v0.313v1.056h6.291v50.729h-6.291v0.74v0.314v1.055h25.64
			v-2.109h-5.928V37.274c0-7.444,4.192-13.104,10.169-13.104c5.136,0,8.282,3.248,8.282,9.014v41.197h-5.609v2.109h25.215v-2.109
			H219.369z"/>
	</g>
</g>
<g>
	<path fill="#a66053" d="M291.201,30.21v4.936h-1.818V30.21l-3.589-7.058h1.988l2.51,5.273l2.51-5.273h1.988L291.201,30.21z"/>
</g>
<g>
	<path fill="#a66053" d="M303.401,33.967c-0.826,0.825-1.887,1.28-3.167,1.28s-2.325-0.455-3.15-1.28
		c-1.179-1.179-1.162-2.51-1.162-4.818s-0.017-3.639,1.162-4.818c0.825-0.825,1.87-1.28,3.15-1.28s2.341,0.455,3.167,1.28
		c1.179,1.179,1.146,2.51,1.146,4.818S304.579,32.788,303.401,33.967z M302.019,25.426c-0.421-0.455-1.078-0.741-1.785-0.741
		c-0.708,0-1.364,0.287-1.786,0.741c-0.59,0.641-0.707,1.314-0.707,3.723s0.117,3.083,0.707,3.723
		c0.422,0.455,1.078,0.741,1.786,0.741c0.707,0,1.364-0.287,1.785-0.741c0.59-0.641,0.708-1.314,0.708-3.723
		S302.609,26.066,302.019,25.426z"/>
</g>
<g>
	<path fill="#a66053" d="M311.406,35.247c-2.442,0-4.295-1.668-4.295-4.144v-7.951h1.818v7.867c0,1.601,0.978,2.595,2.477,2.595
		c1.5,0,2.493-0.994,2.493-2.595v-7.867h1.819v7.951C315.719,33.579,313.85,35.247,311.406,35.247z"/>
	<path fill="#a66053" d="M325.358,35.146l-2.526-5.054h-2.274v5.054h-1.819V23.152h4.649c2.274,0,3.723,1.465,3.723,3.504
		c0,1.718-1.044,2.813-2.392,3.184l2.763,5.306H325.358z M323.252,24.786h-2.695v3.756h2.695c1.213,0,2.039-0.691,2.039-1.87
		C325.291,25.493,324.465,24.786,323.252,24.786z"/>
	<path fill="#a66053" d="M335.756,24.786v3.655h4.986v1.634h-4.986v5.071h-1.819V23.152h7.665v1.634H335.756z"/>
	<path fill="#a66053" d="M343.862,35.146V23.152h1.819v11.994H343.862z"/>
	<path fill="#a66053" d="M355.504,35.146l-2.527-5.054h-2.274v5.054h-1.819V23.152h4.649c2.274,0,3.724,1.465,3.724,3.504
		c0,1.718-1.045,2.813-2.393,3.184l2.763,5.306H355.504z M353.398,24.786h-2.695v3.756h2.695c1.213,0,2.038-0.691,2.038-1.87
		C355.436,25.493,354.611,24.786,353.398,24.786z"/>
	<path fill="#a66053" d="M363.172,35.247c-1.803,0-3.1-0.421-4.246-1.583l1.213-1.196c0.877,0.876,1.837,1.146,3.066,1.146
		c1.566,0,2.477-0.674,2.477-1.836c0-0.522-0.152-0.96-0.472-1.247c-0.304-0.286-0.606-0.404-1.314-0.505l-1.415-0.202
		c-0.977-0.135-1.752-0.472-2.273-0.96c-0.59-0.556-0.877-1.313-0.877-2.291c0-2.089,1.517-3.521,4.01-3.521
		c1.584,0,2.695,0.404,3.723,1.364l-1.162,1.146c-0.741-0.707-1.601-0.926-2.611-0.926c-1.415,0-2.189,0.809-2.189,1.87
		c0,0.438,0.135,0.826,0.455,1.112c0.303,0.27,0.791,0.472,1.348,0.556l1.364,0.202c1.111,0.168,1.735,0.438,2.24,0.893
		c0.657,0.573,0.978,1.432,0.978,2.46C367.485,33.933,365.682,35.247,363.172,35.247z"/>
</g>
<g>
	<path fill="#a66053" d="M374.074,24.786v10.36h-1.818v-10.36h-3.303v-1.634h8.424v1.634H374.074z"/>
</g>
<g>
</g>
<g>
	<path fill="#a66053" d="M388.145,30.429h-2.729v4.717h-1.819V23.152h4.549c2.342,0,3.841,1.55,3.841,3.639
		S390.487,30.429,388.145,30.429z M388.043,24.786h-2.628v3.992h2.628c1.264,0,2.123-0.725,2.123-1.988
		S389.307,24.786,388.043,24.786z"/>
</g>
<g>
	<path fill="#a66053" d="M394.245,35.146V23.152h1.819v10.36h5.778v1.634H394.245z"/>
</g>
<g>
	<path fill="#a66053" d="M410.875,35.146l-0.825-2.409h-4.733l-0.825,2.409h-1.938l4.396-11.994h1.466l4.396,11.994H410.875z
		 M407.726,25.864l-1.87,5.323h3.689L407.726,25.864z"/>
</g>
<g>
	<path fill="#a66053" d="M418.291,35.247c-1.247,0-2.325-0.455-3.15-1.28c-1.18-1.179-1.162-2.51-1.162-4.818
		s-0.018-3.639,1.162-4.818c0.825-0.825,1.903-1.28,3.15-1.28c2.207,0,3.857,1.297,4.278,3.689h-1.853
		c-0.287-1.213-1.096-2.056-2.426-2.056c-0.708,0-1.348,0.27-1.77,0.725c-0.589,0.64-0.724,1.331-0.724,3.74s0.135,3.1,0.724,3.74
		c0.422,0.455,1.062,0.725,1.77,0.725c1.33,0,2.156-0.843,2.442-2.056h1.836C422.165,33.95,420.464,35.247,418.291,35.247z"/>
</g>
<g>
	<path fill="#a66053" d="M425.066,35.146V23.152h7.665v1.634h-5.846v3.504h4.986v1.617h-4.986v3.604h5.846v1.634H425.066z"/>
</g>
<g>
	<path fill="#a66053" d="M435.026,37.757v-4.565h1.953v2.965L435.026,37.757z"/>
</g>
<g>
	<path fill="#a66053" d="M294.151,52.721l-0.826-2.409h-4.733l-0.825,2.409h-1.938l4.396-11.994h1.466l4.396,11.994H294.151z
		 M291,43.438l-1.87,5.323h3.689L291,43.438z"/>
</g>
<g>
	<path fill="#a66053" d="M299.661,42.36v3.656h4.986v1.634h-4.986v5.07h-1.819V40.727h7.665v1.634H299.661z"/>
</g>
<g>
	<path fill="#a66053" d="M311.826,42.36v10.36h-1.818V42.36h-3.303v-1.634h8.424v1.634H311.826z"/>
</g>
<g>
	<path fill="#a66053" d="M317.254,52.721V40.727h7.665v1.634h-5.846v3.504h4.986v1.617h-4.986v3.605h5.846v1.634H317.254z"/>
	<path fill="#a66053" d="M334.086,52.721l-2.526-5.054h-2.274v5.054h-1.819V40.727h4.649c2.274,0,3.723,1.466,3.723,3.504
		c0,1.718-1.044,2.813-2.392,3.184l2.763,5.307H334.086z M331.981,42.36h-2.695v3.757h2.695c1.213,0,2.039-0.69,2.039-1.87
		C334.02,43.068,333.194,42.36,331.981,42.36z"/>
</g>
<g>
	<path fill="#a66053" d="M349.387,52.721v-5.239h-4.869v5.239h-1.819V40.727h1.819v5.121h4.869v-5.121h1.818v11.994H349.387z"/>
	<path fill="#a66053" d="M361.435,51.541c-0.825,0.826-1.887,1.281-3.167,1.281s-2.325-0.455-3.15-1.281
		c-1.18-1.179-1.162-2.51-1.162-4.817s-0.018-3.639,1.162-4.818c0.825-0.826,1.87-1.28,3.15-1.28s2.342,0.455,3.167,1.28
		c1.179,1.179,1.146,2.51,1.146,4.818S362.614,50.362,361.435,51.541z M360.053,43.001c-0.421-0.455-1.078-0.741-1.785-0.741
		c-0.708,0-1.365,0.286-1.786,0.741c-0.589,0.64-0.707,1.313-0.707,3.723s0.118,3.083,0.707,3.723
		c0.421,0.455,1.078,0.741,1.786,0.741c0.707,0,1.364-0.286,1.785-0.741c0.59-0.64,0.708-1.313,0.708-3.723
		S360.643,43.641,360.053,43.001z"/>
</g>
<g>
	<path fill="#a66053" d="M374.089,52.721v-8.019l-2.763,5.846h-1.348l-2.83-5.846v8.019h-1.819V40.727h1.819l3.504,7.463
		l3.437-7.463h1.819v11.994H374.089z"/>
</g>
<g>
	<path fill="#a66053" d="M379.097,52.721V40.727h7.665v1.634h-5.846v3.504h4.986v1.617h-4.986v3.605h5.846v1.634H379.097z"/>
</g>
</svg>
