<?xml version="1.0" encoding="utf-8"?>
<!-- Generator: Adobe Illustrator 16.0.0, SVG Export Plug-In . SVG Version: 6.00 Build 0)  -->
<!DOCTYPE svg PUBLIC "-//W3C//DTD SVG 1.1//EN" "http://www.w3.org/Graphics/SVG/1.1/DTD/svg11.dtd">
<svg version="1.1" id="Layer_1" xmlns:sketch="http://www.bohemiancoding.com/sketch/ns"
	 xmlns="http://www.w3.org/2000/svg" xmlns:xlink="http://www.w3.org/1999/xlink" x="0px" y="0px" width="135px" height="44px"
	 viewBox="0 0 135 44" enable-background="new 0 0 135 44" xml:space="preserve">
<title>toong_logo_main_white</title>
<desc>Created with Sketch.</desc>
<path fill="#FFFFFF" d="M44.951,13.625c2.205,2.298,3.284,5.207,3.284,8.772c0,3.565-1.173,6.567-3.472,8.96
	c-2.298,2.393-5.066,3.612-8.35,3.612c-3.377,0-6.145-1.173-8.35-3.472c-2.157-2.298-3.237-5.253-3.237-8.818
	c0-3.566,1.126-6.521,3.425-8.914c2.298-2.393,5.113-3.565,8.397-3.565C40.025,10.2,42.792,11.326,44.951,13.625 M31.065,22.443
	c0,7.693,1.783,12.338,5.348,12.338c3.707,0,5.536-4.034,5.536-12.149c0-7.694-1.736-12.291-5.301-12.291
	C32.941,10.341,31.065,14.375,31.065,22.443"/>
<path fill="#FFFFFF" d="M72.347,13.625c2.205,2.298,3.284,5.207,3.284,8.772c0,3.565-1.173,6.567-3.472,8.96
	s-5.066,3.612-8.35,3.612c-3.378,0-6.145-1.173-8.35-3.472c-2.158-2.298-3.237-5.253-3.237-8.818c0-3.566,1.126-6.521,3.425-8.914
	c2.298-2.393,5.113-3.565,8.397-3.565C67.421,10.2,70.188,11.326,72.347,13.625 M58.461,22.443c0,7.693,1.783,12.338,5.348,12.338
	c3.706,0,5.536-4.034,5.536-12.149c0-7.694-1.736-12.291-5.301-12.291C60.338,10.341,58.461,14.375,58.461,22.443"/>
<path fill="#FFFFFF" d="M125.873,5.743c0,2.627-2.158,4.832-5.677,5.208c3.19,1.079,4.785,3.19,4.785,6.427
	c0,2.158-0.892,3.94-2.721,5.348c-1.83,1.407-4.128,2.11-6.896,2.11c-0.609,0-1.36-0.047-2.298-0.188
	c-0.938-0.141-1.595-0.235-1.971-0.235c-1.97,0-2.955,0.61-2.955,1.783c0,1.548,2.908,1.971,6.614,2.018
	c1.83,0,3.706,0.094,5.536,0.234c3.706,0.328,6.614,2.111,6.614,5.535c0,2.205-1.127,3.987-3.378,5.348
	c-2.205,1.36-5.207,2.018-9.007,2.018c-6.427,0-9.477-2.064-9.477-5.254c0-0.985,0.329-1.83,1.032-2.533
	c1.454-1.454,2.722-1.736,3.659-1.876c-1.501-0.47-2.485-1.079-2.955-1.783c-0.328-0.562-0.516-1.172-0.516-1.876
	c0-2.018,1.876-3.519,4.456-3.941c-2.814-0.938-4.831-3.33-4.831-6.473c0-4.55,3.846-7.412,9.616-7.412
	c1.36,0,3.565,0.422,4.832,0.422c2.063,0,3.94-1.125,3.94-2.298c0-0.188-0.094-0.282-0.281-0.282l-0.61,0.188
	c-0.422,0.141-0.798,0.234-1.126,0.234c-1.642,0-2.908-1.079-2.908-2.908c0-1.689,1.313-2.909,3.189-2.909
	C124.56,2.647,125.873,3.867,125.873,5.743 M106.733,36.001c0,3.002,2.533,5.16,7.787,5.16c4.691,0,7.364-1.924,7.364-4.738
	c0-2.298-1.594-3.377-5.581-3.94c-2.3-0.328-4.129-0.469-5.488-0.469C108.375,32.014,106.733,33.562,106.733,36.001 M111.706,17.424
	c0,4.832,1.22,7.225,3.658,7.225c2.815,0,3.848-2.393,3.848-7.083c0-4.832-1.22-7.224-3.706-7.224
	C112.737,10.341,111.706,12.687,111.706,17.424"/>
<path fill="#FFFFFF" d="M23.934,29.293c-0.188,2.11-1.689,3.564-3.612,3.564c-2.627,0-3.941-1.735-3.941-5.159v-16.37h7.225v-0.943
	h-7.225v-6.8l-5.957,2.486v4.313H7.704v0.331l0,0v0.141l0,0v0.472h2.721v16.228c0,4.738,2.346,7.459,7.083,7.459
	c3.612,0,6.38-2.486,6.614-5.723H23.934z"/>
<path fill="#FFFFFF" d="M101.385,34.027V18.925c0-5.489-2.346-8.679-6.849-8.679c-2.299,0-4.315,0.845-5.441,2.018
	c-1.126,1.172-1.643,2.064-1.971,2.814v-3.75h0.02v-0.943h-8.838v0.331h-0.001v0.141h0.001v0.472h2.814v22.699h-2.814v0.332h-0.001
	V34.5h0.001v0.472h11.472v-0.944h-2.653V17.424c0-3.33,1.877-5.863,4.551-5.863c2.298,0,3.705,1.454,3.705,4.034v18.433h-2.51v0.944
	h11.283v-0.944H101.385z"/>
</svg>
