<?xml version="1.0" encoding="utf-8"?>
<!-- Generator: Adobe Illustrator 16.0.0, SVG Export Plug-In . SVG Version: 6.00 Build 0)  -->
<!DOCTYPE svg PUBLIC "-//W3C//DTD SVG 1.1//EN" "http://www.w3.org/Graphics/SVG/1.1/DTD/svg11.dtd">
<svg version="1.1" id="Layer_1" xmlns:sketch="http://www.bohemiancoding.com/sketch/ns"
	 xmlns="http://www.w3.org/2000/svg" xmlns:xlink="http://www.w3.org/1999/xlink" x="0px" y="0px" width="87px" height="99px"
	 viewBox="0 0 87 99" enable-background="new 0 0 87 99" xml:space="preserve">
<title>Polygon 1 Copy 7 + toong_logo_main_white copy</title>
<desc>Created with Sketch.</desc>
<g id="Desktop-View" sketch:type="MSPage" opacity="0.6">
	<g id="Contact---Collapse" transform="translate(-826.000000, -401.000000)" sketch:type="MSArtboardGroup">
		
			<g id="Polygon-1-Copy-7-_x2B_-toong_x5F_logo_x5F_main_x5F_white-copy" transform="translate(820.000000, 401.000000)" sketch:type="MSLayerGroup">
			<polygon id="Polygon-1-Copy-7" sketch:type="MSShapeGroup" fill="#A66053" points="49.5,0 92.368,24.75 92.368,74.25 49.5,99 
				6.632,74.25 6.632,24.75 			">
			</polygon>
		</g>
	</g>
</g>
<g>
	<path fill="#FFFFFF" d="M31.925,45.736c1.123,1.17,1.672,2.65,1.672,4.465c0,1.814-0.597,3.344-1.768,4.562
		c-1.17,1.217-2.579,1.838-4.25,1.838c-1.719,0-3.128-0.598-4.25-1.768c-1.099-1.17-1.648-2.674-1.648-4.488s0.573-3.32,1.744-4.538
		c1.169-1.219,2.603-1.815,4.274-1.815C29.417,43.992,30.826,44.565,31.925,45.736 M24.856,50.225c0,3.918,0.908,6.281,2.723,6.281
		c1.887,0,2.818-2.054,2.818-6.186c0-3.917-0.884-6.256-2.699-6.256C25.811,44.064,24.856,46.118,24.856,50.225"/>
	<path fill="#FFFFFF" d="M45.872,45.736c1.122,1.17,1.671,2.65,1.671,4.465c0,1.814-0.598,3.344-1.768,4.562
		c-1.172,1.217-2.579,1.838-4.25,1.838c-1.72,0-3.128-0.598-4.25-1.768c-1.099-1.17-1.648-2.674-1.648-4.488s0.573-3.32,1.744-4.538
		c1.169-1.219,2.603-1.815,4.274-1.815C43.363,43.992,44.771,44.565,45.872,45.736 M38.802,50.225c0,3.918,0.908,6.281,2.723,6.281
		c1.887,0,2.819-2.054,2.819-6.186c0-3.917-0.885-6.256-2.699-6.256C39.758,44.064,38.802,46.118,38.802,50.225"/>
	<path fill="#FFFFFF" d="M73.119,41.724c0,1.337-1.1,2.46-2.891,2.651c1.625,0.549,2.437,1.624,2.437,3.271
		c0,1.099-0.454,2.006-1.386,2.723c-0.932,0.716-2.102,1.074-3.51,1.074c-0.311,0-0.692-0.024-1.17-0.096
		c-0.479-0.072-0.812-0.121-1.004-0.121c-1.003,0-1.504,0.312-1.504,0.907c0,0.789,1.479,1.005,3.366,1.028
		c0.933,0,1.888,0.048,2.817,0.118c1.888,0.167,3.367,1.075,3.367,2.817c0,1.123-0.572,2.03-1.72,2.723
		c-1.123,0.693-2.651,1.027-4.585,1.027c-3.271,0-4.824-1.051-4.824-2.675c0-0.502,0.168-0.932,0.525-1.289
		c0.738-0.741,1.385-0.884,1.861-0.956c-0.764-0.238-1.264-0.549-1.504-0.906c-0.166-0.287-0.264-0.598-0.264-0.955
		c0-1.027,0.956-1.791,2.27-2.006c-1.432-0.479-2.459-1.695-2.459-3.295c0-2.316,1.957-3.773,4.896-3.773
		c0.692,0,1.813,0.215,2.46,0.215c1.051,0,2.006-0.573,2.006-1.17c0-0.096-0.048-0.144-0.144-0.144l-0.312,0.096
		c-0.215,0.071-0.406,0.119-0.572,0.119c-0.836,0-1.48-0.549-1.48-1.48c0-0.86,0.669-1.481,1.623-1.481
		C72.451,40.147,73.119,40.769,73.119,41.724 M63.376,57.127c0,1.528,1.289,2.627,3.964,2.627c2.389,0,3.749-0.98,3.749-2.412
		c0-1.17-0.812-1.72-2.841-2.006c-1.171-0.167-2.104-0.238-2.794-0.238C64.212,55.098,63.376,55.886,63.376,57.127 M65.907,47.67
		c0,2.46,0.62,3.678,1.862,3.678c1.434,0,1.959-1.218,1.959-3.604c0-2.46-0.621-3.678-1.888-3.678
		C66.432,44.064,65.907,45.259,65.907,47.67"/>
	<path fill="#FFFFFF" d="M21.226,53.712c-0.096,1.074-0.86,1.813-1.839,1.813c-1.337,0-2.006-0.883-2.006-2.627v-8.333h3.678v-0.479
		h-3.678v-3.462l-3.032,1.266v2.195h-1.385v0.169l0,0v0.071l0,0v0.24h1.385v8.262c0,2.411,1.195,3.797,3.606,3.797
		c1.839,0,3.248-1.266,3.367-2.913H21.226L21.226,53.712z"/>
	<path fill="#FFFFFF" d="M60.652,56.122v-7.688c0-2.794-1.193-4.418-3.485-4.418c-1.171,0-2.196,0.431-2.771,1.027
		c-0.572,0.597-0.836,1.051-1.004,1.433v-1.909h0.012v-0.479h-4.5v0.168l0,0v0.072l0,0v0.24h1.434v11.555h-1.434v0.169l0,0v0.071
		l0,0v0.24h5.84v-0.48h-1.35V47.67c0-1.695,0.955-2.984,2.315-2.984c1.17,0,1.886,0.74,1.886,2.054v9.383h-1.277v0.48h5.744v-0.48
		L60.652,56.122L60.652,56.122z"/>
</g>
</svg>
