<?xml version="1.0" encoding="utf-8"?>
<!-- Generator: Adobe Illustrator 19.0.0, SVG Export Plug-In . SVG Version: 6.00 Build 0)  -->
<svg version="1.1" id="Layer_1" xmlns="http://www.w3.org/2000/svg" xmlns:xlink="http://www.w3.org/1999/xlink" x="0px" y="0px"
	 viewBox="0 0 100 100" style="enable-background:new 0 0 100 100;" xml:space="preserve">
<style type="text/css">
	.st0{fill:none;}
	.st1{fill:#000002;}
</style>
<g>
	<path class="st0" d="M30,37c0-6.4-5.2-11.6-11.6-11.6C12,25.4,6.8,30.6,6.8,37S12,48.6,18.4,48.6S30,43.4,30,37z M18.4,45.5
		c-1.3,0-2.4-1.1-2.4-2.4v-3.6h-3.6c-1.3,0-2.4-1.1-2.4-2.4c0-1.3,1.1-2.4,2.4-2.4H16v-3.6c0-1.3,1.1-2.4,2.4-2.4
		c1.3,0,2.4,1.1,2.4,2.4v3.6h3.6c1.3,0,2.4,1.1,2.4,2.4c0,1.4-1.1,2.4-2.4,2.4h-3.6V43C20.9,44.4,19.8,45.5,18.4,45.5z"/>
	<path class="st0" d="M68.6,38.3C68.6,38.3,68.6,38.3,68.6,38.3l-33.8,0c-0.6,7.6-6.4,13.8-13.8,15l0.8,8.5c0.1,0.5,0.6,1,1.1,1
		h37.6c0.7,0,1.6-0.7,1.8-1.3L68.6,38.3C68.6,38.3,68.6,38.3,68.6,38.3z"/>
	<circle class="st0" cx="54.2" cy="78.1" r="2.7"/>
	<path class="st0" d="M27.4,78.1c0,1.5,1.2,2.7,2.7,2.7c1.5,0,2.7-1.2,2.7-2.7c0-1.5-1.2-2.7-2.7-2.7C28.6,75.4,27.4,76.6,27.4,78.1
		z"/>
	<path class="st1" d="M98,16.8c0-1.4-1.1-2.4-2.4-2.4h-15c-2.9,0-5.7,2.2-6.5,4.9L70,33.6c-0.5-0.1-1-0.2-1.5-0.2H34.5
		c-1.6-7.3-8.2-12.9-16.1-12.9C9.3,20.5,2,27.9,2,37c0,8.3,6.2,15.2,14.2,16.3c0,0.1,0,0.2,0,0.3l0.9,8.6c0.3,3.1,2.9,5.4,6,5.4
		h37.6c2.9,0,5.7-2.2,6.5-5l4.7-17.4c0,0,0,0,0,0l7-24.7c0.2-0.7,1.1-1.4,1.8-1.4h15C96.9,19.2,98,18.1,98,16.8z M18.4,48.6
		C12,48.6,6.8,43.4,6.8,37S12,25.4,18.4,25.4C24.8,25.4,30,30.6,30,37S24.8,48.6,18.4,48.6z M62.4,61.5c-0.2,0.7-1.1,1.3-1.8,1.3H23
		c-0.5,0-1.1-0.5-1.1-1L21,53.2c7.4-1.2,13.2-7.4,13.8-15h33.8c0,0,0,0,0.1,0c0,0,0,0,0,0.1L62.4,61.5z"/>
	<path class="st1" d="M30.1,70.5c-4.2,0-7.6,3.4-7.6,7.6c0,4.2,3.4,7.6,7.6,7.6c4.2,0,7.6-3.4,7.6-7.6
		C37.7,73.9,34.3,70.5,30.1,70.5z M32.9,78.1c0,1.5-1.2,2.7-2.7,2.7c-1.5,0-2.7-1.2-2.7-2.7c0-1.5,1.2-2.7,2.7-2.7
		C31.6,75.4,32.9,76.6,32.9,78.1z"/>
	<path class="st1" d="M54.2,85.7c4.2,0,7.6-3.4,7.6-7.6c0-4.2-3.4-7.6-7.6-7.6c-4.2,0-7.6,3.4-7.6,7.6
		C46.6,82.3,50.1,85.7,54.2,85.7z M54.2,75.4c1.5,0,2.7,1.2,2.7,2.7c0,1.5-1.2,2.7-2.7,2.7c-1.5,0-2.7-1.2-2.7-2.7
		C51.5,76.6,52.8,75.4,54.2,75.4z"/>
	<path class="st1" d="M20.9,39.4h3.6c1.3,0,2.4-1.1,2.4-2.4c0-1.3-1.1-2.4-2.4-2.4h-3.6v-3.6c0-1.3-1.1-2.4-2.4-2.4
		c-1.3,0-2.4,1.1-2.4,2.4v3.6h-3.6c-1.3,0-2.4,1.1-2.4,2.4c0,1.3,1.1,2.4,2.4,2.4H16V43c0,1.3,1.1,2.4,2.4,2.4
		c1.3,0,2.4-1.1,2.4-2.4V39.4z"/>
</g>
</svg>
