<?xml version="1.0" encoding="utf-8"?>
<!-- Generator: Adobe Illustrator 19.0.0, SVG Export Plug-In . SVG Version: 6.00 Build 0)  -->
<svg version="1.1" id="Layer_1" xmlns="http://www.w3.org/2000/svg" xmlns:xlink="http://www.w3.org/1999/xlink" x="0px" y="0px"
	 viewBox="0 0 100 100" style="enable-background:new 0 0 100 100;" xml:space="preserve">
<style type="text/css">
	.st0{fill:#010101;}
</style>
<g id="XMLID_1_">
	<path id="XMLID_2_" class="st0" d="M50,0C36.6,0,24.1,5.2,14.6,14.6c-19.5,19.5-19.5,51.2,0,70.7C24.4,95.1,37.2,100,50,100
		s25.6-4.9,35.4-14.6c19.5-19.5,19.5-51.2,0-70.7c-3.8-3.8-8.1-6.9-12.7-9.3c-1-0.5-2.2-0.1-2.7,0.9c-0.5,1-0.1,2.2,0.9,2.7
		c4.2,2.1,8.2,5,11.7,8.5c17.9,17.9,17.9,47.1,0,65c-17.9,17.9-47.1,17.9-65,0s-17.9-47.1,0-65C26.2,8.8,37.7,4.1,50,4.1
		c1.1,0,2-0.9,2-2S51.1,0,50,0z"/>
	<path id="XMLID_15_" class="st0" d="M50,17.6c-1.1,0-2,0.9-2,2v60.7c0,1.1,0.9,2,2,2s2-0.9,2-2V19.7C52,18.5,51.1,17.6,50,17.6z"/>
	<path id="XMLID_16_" class="st0" d="M80.3,52c1.1,0,2-0.9,2-2c0-1.1-0.9-2-2-2H58.1c-1.1,0-2,0.9-2,2c0,1.1,0.9,2,2,2H80.3z"/>
	<path id="XMLID_17_" class="st0" d="M41.2,48H19.7c-1.1,0-2,0.9-2,2c0,1.1,0.9,2,2,2h21.5c1.1,0,2-0.9,2-2
		C43.2,48.9,42.3,48,41.2,48z"/>
</g>
</svg>
