<?xml version="1.0" encoding="utf-8"?>
<!-- Generator: Adobe Illustrator 19.0.0, SVG Export Plug-In . SVG Version: 6.00 Build 0)  -->
<svg version="1.1" id="Layer_1" xmlns="http://www.w3.org/2000/svg" xmlns:xlink="http://www.w3.org/1999/xlink" x="0px" y="0px"
	 viewBox="0 0 100 100" style="enable-background:new 0 0 100 100;" xml:space="preserve">
<style type="text/css">
	.st0{clip-path:url(#XMLID_32_);fill:#040305;}
	.st1{clip-path:url(#XMLID_33_);fill:#040305;}
	.st2{clip-path:url(#XMLID_34_);fill:#040305;}
	.st3{clip-path:url(#XMLID_36_);fill:#040305;}
	.st4{clip-path:url(#XMLID_37_);fill:#040305;}
	.st5{clip-path:url(#XMLID_39_);fill:#040305;}
	.st6{clip-path:url(#XMLID_40_);fill:#040305;}
	.st7{clip-path:url(#XMLID_42_);fill:#040305;}
	.st8{clip-path:url(#XMLID_43_);fill:#040305;}
	.st9{clip-path:url(#XMLID_45_);fill:#040305;}
	.st10{clip-path:url(#XMLID_46_);fill:#040305;}
	.st11{clip-path:url(#XMLID_48_);fill:#040305;}
	.st12{clip-path:url(#XMLID_49_);fill:#040305;}
</style>
<g id="XMLID_68_">
	<defs>
		<path id="XMLID_69_" d="M84.2,80.7c0,2.7-2.2,4.9-4.9,4.9H20.4c-2.7,0-4.9-2.2-4.9-4.9v-49c0-1.4,1.1-2.5,2.5-2.5h2.5v49
			c0,1.4,1.1,2.5,2.5,2.5s2.5-1.1,2.5-2.5V19.4c0-1.4,1.1-2.5,2.5-2.5h53.9c1.4,0,2.5,1.1,2.5,2.5V80.7z M81.7,12.1H27.8
			c-4.1,0-7.4,3.3-7.4,7.4v4.9H18c-4.1,0-7.4,3.3-7.4,7.4v49c0,5.4,4.4,9.8,9.8,9.8h58.8c5.4,0,9.8-4.4,9.8-9.8V19.4
			C89.1,15.3,85.8,12.1,81.7,12.1z"/>
	</defs>
	<clipPath id="XMLID_32_">
		<use xlink:href="#XMLID_69_"  style="overflow:visible;"/>
	</clipPath>
	<rect id="XMLID_28_" x="-22" y="-20.6" class="st0" width="143.8" height="143.8"/>
</g>
<g id="XMLID_65_">
	<defs>
		<path id="XMLID_24_" d="M58.4,45.4H78c0.7,0,1.2-0.9,1.2-2s-0.5-2-1.2-2H58.4c-0.7,0-1.2,0.9-1.2,2S57.7,45.4,58.4,45.4z"/>
	</defs>
	<clipPath id="XMLID_33_">
		<use xlink:href="#XMLID_24_"  style="overflow:visible;"/>
	</clipPath>
	<rect id="XMLID_25_" x="24.5" y="8.8" class="st1" width="87.4" height="69.3"/>
</g>
<g id="XMLID_62_">
	<defs>
		<path id="XMLID_22_" d="M58.4,38H78c0.7,0,1.2-0.9,1.2-2c0-1.1-0.5-2-1.2-2H58.4c-0.7,0-1.2,0.9-1.2,2C57.2,37.2,57.7,38,58.4,38z
			"/>
	</defs>
	<clipPath id="XMLID_34_">
		<use xlink:href="#XMLID_22_"  style="overflow:visible;"/>
	</clipPath>
	<rect id="XMLID_23_" x="24.5" y="1.4" class="st2" width="87.4" height="69.3"/>
</g>
<g id="XMLID_59_">
	<defs>
		<path id="XMLID_20_" d="M58.4,30.7H78c0.7,0,1.2-0.9,1.2-2s-0.5-2-1.2-2H58.4c-0.7,0-1.2,0.9-1.2,2S57.7,30.7,58.4,30.7z"/>
	</defs>
	<clipPath id="XMLID_36_">
		<use xlink:href="#XMLID_20_"  style="overflow:visible;"/>
	</clipPath>
	<rect id="XMLID_21_" x="24.5" y="-5.9" class="st3" width="87.4" height="69.3"/>
</g>
<g id="XMLID_56_">
	<defs>
		<path id="XMLID_18_" d="M51.1,78.2H31.5c-0.7,0-1.2,0.9-1.2,2c0,1.1,0.5,2,1.2,2h19.6c0.7,0,1.2-0.9,1.2-2
			C52.3,79.1,51.7,78.2,51.1,78.2z"/>
	</defs>
	<clipPath id="XMLID_37_">
		<use xlink:href="#XMLID_18_"  style="overflow:visible;"/>
	</clipPath>
	<rect id="XMLID_19_" x="-2.4" y="45.6" class="st4" width="87.4" height="69.3"/>
</g>
<g id="XMLID_53_">
	<defs>
		<path id="XMLID_16_" d="M51.1,70.9H31.5c-0.7,0-1.2,0.9-1.2,2c0,1.1,0.5,2,1.2,2h19.6c0.7,0,1.2-0.9,1.2-2
			C52.3,71.8,51.7,70.9,51.1,70.9z"/>
	</defs>
	<clipPath id="XMLID_39_">
		<use xlink:href="#XMLID_16_"  style="overflow:visible;"/>
	</clipPath>
	<rect id="XMLID_17_" x="-2.4" y="38.2" class="st5" width="87.4" height="69.3"/>
</g>
<g id="XMLID_50_">
	<defs>
		<path id="XMLID_14_" d="M51.1,63.5H31.5c-0.7,0-1.2,0.9-1.2,2c0,1.1,0.5,2,1.2,2h19.6c0.7,0,1.2-0.9,1.2-2
			C52.3,64.4,51.7,63.5,51.1,63.5z"/>
	</defs>
	<clipPath id="XMLID_40_">
		<use xlink:href="#XMLID_14_"  style="overflow:visible;"/>
	</clipPath>
	<rect id="XMLID_15_" x="-2.4" y="30.9" class="st6" width="87.4" height="69.3"/>
</g>
<g id="XMLID_47_">
	<defs>
		<path id="XMLID_12_" d="M78,78.2H58.4c-0.7,0-1.2,0.9-1.2,2c0,1.1,0.5,2,1.2,2H78c0.7,0,1.2-0.9,1.2-2
			C79.3,79.1,78.7,78.2,78,78.2z"/>
	</defs>
	<clipPath id="XMLID_42_">
		<use xlink:href="#XMLID_12_"  style="overflow:visible;"/>
	</clipPath>
	<rect id="XMLID_13_" x="24.5" y="45.6" class="st7" width="87.4" height="69.3"/>
</g>
<g id="XMLID_44_">
	<defs>
		<path id="XMLID_10_" d="M78,70.9H58.4c-0.7,0-1.2,0.9-1.2,2c0,1.1,0.5,2,1.2,2H78c0.7,0,1.2-0.9,1.2-2
			C79.3,71.8,78.7,70.9,78,70.9z"/>
	</defs>
	<clipPath id="XMLID_43_">
		<use xlink:href="#XMLID_10_"  style="overflow:visible;"/>
	</clipPath>
	<rect id="XMLID_11_" x="24.5" y="38.2" class="st8" width="87.4" height="69.3"/>
</g>
<g id="XMLID_41_">
	<defs>
		<path id="XMLID_8_" d="M78,63.5H58.4c-0.7,0-1.2,0.9-1.2,2c0,1.1,0.5,2,1.2,2H78c0.7,0,1.2-0.9,1.2-2C79.3,64.4,78.7,63.5,78,63.5
			z"/>
	</defs>
	<clipPath id="XMLID_45_">
		<use xlink:href="#XMLID_8_"  style="overflow:visible;"/>
	</clipPath>
	<rect id="XMLID_9_" x="24.5" y="30.9" class="st9" width="87.4" height="69.3"/>
</g>
<g id="XMLID_38_">
	<defs>
		<path id="XMLID_6_" d="M78,48.8H31.5c-0.7,0-1.2,0.9-1.2,2s0.5,2,1.2,2H78c0.7,0,1.2-0.9,1.2-2S78.7,48.8,78,48.8z"/>
	</defs>
	<clipPath id="XMLID_46_">
		<use xlink:href="#XMLID_6_"  style="overflow:visible;"/>
	</clipPath>
	<rect id="XMLID_7_" x="-2.4" y="16.1" class="st10" width="114.4" height="69.3"/>
</g>
<g id="XMLID_35_">
	<defs>
		<path id="XMLID_4_" d="M78,56.2H31.5c-0.7,0-1.2,0.9-1.2,2c0,1.1,0.5,2,1.2,2H78c0.7,0,1.2-0.9,1.2-2C79.3,57.1,78.7,56.2,78,56.2
			z"/>
	</defs>
	<clipPath id="XMLID_48_">
		<use xlink:href="#XMLID_4_"  style="overflow:visible;"/>
	</clipPath>
	<rect id="XMLID_5_" x="-2.4" y="23.5" class="st11" width="114.4" height="69.3"/>
</g>
<g id="XMLID_30_">
	<defs>
		<path id="XMLID_31_" d="M35.1,26.8h12.3V39H35.1V26.8z M32.7,43.9h17.2c1.4,0,2.5-1.1,2.5-2.5V24.3c0-1.4-1.1-2.5-2.5-2.5H32.7
			c-1.4,0-2.5,1.1-2.5,2.5v17.1C30.2,42.8,31.3,43.9,32.7,43.9z"/>
	</defs>
	<clipPath id="XMLID_49_">
		<use xlink:href="#XMLID_31_"  style="overflow:visible;"/>
	</clipPath>
	<rect id="XMLID_3_" x="-2.4" y="-10.8" class="st12" width="87.4" height="87.4"/>
</g>
</svg>
