<?xml version="1.0" encoding="utf-8"?>
<!-- Generator: Adobe Illustrator 19.0.0, SVG Export Plug-In . SVG Version: 6.00 Build 0)  -->
<svg version="1.1" id="Layer_1" xmlns="http://www.w3.org/2000/svg" xmlns:xlink="http://www.w3.org/1999/xlink" x="0px" y="0px"
	 viewBox="0 0 100 100" style="enable-background:new 0 0 100 100;" xml:space="preserve">
<style type="text/css">
	.st0{fill:none;}
	.st1{fill:#ED6C0C;}
	.st2{fill:#E05A00;}
	.st3{fill:#FFB600;}
	.st4{fill:#F6921E;}
	.st5{fill:#D85107;}
	.st6{fill:#E26600;}
</style>
<g>
	<path class="st0" d="M40.8,69.2l0.3,0.3c1.4,0.2,2.7,0.6,4.1,1l-0.6,2.5l0,0l-1.7,6.5l5.4,1.5l2.3-9.2c0.2,0,0.2,0,0.2,0l0.3,0.3
		c9.1,1.6,16,0.8,18.9-7.6c1.8-5.1,0.9-8.5-1.7-11c-0.9-0.8-1.9-1.5-3.1-2.1c0,0,0,0,0.1,0c-0.1-0.1-0.2-0.1-0.3-0.2
		c3.7-0.8,6.5-3.3,7.1-8.1c0.1-0.7,0.1-1.4,0.1-2c-0.1-1-0.3-2-0.6-2.9c0-0.1,0-0.1-0.1-0.2c-0.1-0.2-0.2-0.4-0.3-0.6
		c-0.5-0.9-1.1-1.6-1.8-2.3c-0.4-0.4-0.8-0.7-1.2-1c-0.3-0.2-0.6-0.4-0.9-0.6c-1.8-1.2-4.1-2.1-6.6-2.9l2.3-9L57.5,20l-0.6,2.4
		l0.1,0.1l-1.5,6.2c-0.1,0-0.1,0-0.2,0l0,0c-1.5-0.4-2.9-0.6-4.4-1l2.3-8.7l-5.4-1.5l-2.3,9c-1.2-0.2-2.5-0.6-3.5-0.8l-7.5-1.9
		l-1.5,5.8l4,1c2.1,0.4,2.5,1.9,2.5,3.1L37.1,44c0.2,0,0.4,0,0.6,0.2C37.5,44,37.3,44,37.1,44l-3.5,14.4c-0.2,0.6-1,1.7-2.5,1.2
		l-4-1l-2.7,6.2l7.1,1.9c1.5,0.4,2.7,0.6,4,1l-2.2,9l5.4,1.4L40.8,69.2z M42.7,62.7l2.9-12.1c3.3,0.9,12.8,2.3,14,7.5
		c0.2,0.8,0.2,1.6,0,2.5l-0.1,0C57.6,67.1,46.4,63.5,42.7,62.7z M61.2,42.9c-1.5,6.2-11,3.1-14.2,2.3l2.7-11
		C52.9,35,62.9,36.5,61.2,42.9z"/>
	<path class="st1" d="M59.6,58.1c-1.1-5.1-10.7-6.5-14-7.5l-2.9,12.1l2.9-11.9C48.9,51.6,58.4,53.1,59.6,58.1z"/>
	<path class="st1" d="M59.5,60.6l-16.8,2.1C46.4,63.5,57.6,67.1,59.5,60.6z"/>
	<path class="st2" d="M59.5,60.6l0.1,0c0.2-0.9,0.2-1.8,0-2.5c0.2,0.7,0.2,1.5,0,2.3C59.6,60.5,59.5,60.5,59.5,60.6z"/>
	<path class="st2" d="M59.6,60.4c0.2-0.9,0.2-1.6,0-2.3c-1.2-5-10.7-6.5-14-7.2l-2.9,11.9l16.8-2.1C59.5,60.5,59.6,60.5,59.6,60.4z"
		/>
	<path class="st1" d="M61.2,42.9l-14.2,2.3C50.2,46,59.8,49.2,61.2,42.9z"/>
	<path class="st2" d="M49.8,34.2c3.1,0.8,12.9,2.3,11.4,8.7C62.9,36.5,52.9,35,49.8,34.2z"/>
	<path class="st2" d="M49.8,34.2l-2.7,11l14.2-2.3C62.7,36.5,52.9,35,49.8,34.2z"/>
	<path class="st3" d="M98.8,60.5c0.6-2.8,1-5.7,1.1-8.5c-0.1,2.8-0.5,5.6-1.1,8.4C98.8,60.4,98.8,60.5,98.8,60.5z"/>
	<path class="st3" d="M62.1,1.5C35.2-5.2,8.2,11.3,1.5,37.9L62.1,1.5z"/>
	<path class="st4" d="M100,52c1-23.3-14.4-44.7-37.9-50.6C85.6,7.5,100.9,28.9,100,52z"/>
	<path class="st4" d="M73.2,94.1L73.2,94.1c-0.3,0.2-0.6,0.4-0.9,0.5c-0.6,0.3-1.2,0.6-1.8,0.8c-0.8,0.4-1.6,0.8-2.5,1.1l0,0
		c7.5-2.9,14.3-7.6,19.6-13.8C83.6,87.5,78.7,91.2,73.2,94.1z"/>
	<path class="st4" d="M91.3,78.1c-0.9,1.3-1.8,2.5-2.8,3.7C89.5,80.6,90.4,79.4,91.3,78.1z"/>
	<path class="st4" d="M37.9,98.5c10.3,2.5,20.6,1.7,29.7-1.7c-0.8,0.3-1.5,0.5-2.3,0.7c-0.1,0-0.2,0-0.3,0.1c-0.1,0-0.2,0.1-0.4,0.1
		c-0.9,0.3-1.8,0.6-2.7,0.9L62,98.5c-0.5,0.1-1.1,0.1-1.6,0.2c-0.6,0.1-1.2,0.3-1.9,0.5L58.4,99c-0.9,0.1-1.8,0.3-2.7,0.4L33.1,76.9
		l-0.2-0.2l0.2-0.2v0.2l0,0l2.2-9l-1.7,6.7L24.4,65l7.1,1.7l-7.1-1.9l2.7-6.2l4,1c1.5,0.4,2.3-0.6,2.5-1.2L37.1,44l2.5-10.2
		c0-1.2-0.4-2.7-2.5-3.1l-4-1l1.5-5.8l7.5,1.9c1,0.2,2.3,0.6,3.5,0.8l2.3-9l5.4,1.5L51,27.7c1.5,0.4,2.9,0.6,4.4,1l0,0
		c-1.4-0.4-2.8-0.6-4.2-1l2.3-8.7l3.4,3.4l0.6-2.4l5.4,1.5l-2.3,9c2.5,0.8,4.8,1.7,6.6,2.9c-0.1-0.1-0.3-0.2-0.4-0.3
		c-1.7-1-3.6-1.9-5.8-2.6l0-0.2l0,0l2.3-9l36,36.2c-0.1,1-0.3,1.9-0.5,2.9c0.6-2.8,1-5.6,1.1-8.4c1-23.1-14.4-44.5-37.9-50.6
		L1.5,37.9C-5.2,64.8,11.1,91.9,37.9,98.5z"/>
	<path class="st4" d="M68.1,33.9c0.4,0.3,0.9,0.6,1.2,1C69,34.6,68.5,34.3,68.1,33.9z"/>
	<path class="st4" d="M71.1,37.3c0.1,0.2,0.2,0.4,0.3,0.6c-0.1-0.1-0.1-0.3-0.2-0.4C71.2,37.4,71.2,37.3,71.1,37.3z"/>
	<path class="st4" d="M92.6,76.2c0.9-1.5,1.8-3,2.5-4.6C94.3,73.2,93.5,74.8,92.6,76.2z"/>
	<path class="st4" d="M72.1,42.9c-0.6,4.8-3.3,7.3-7.1,8.1c0.1,0.1,0.2,0.1,0.3,0.2c3.7-0.8,6.4-3.3,7-8.1c0.1-0.7,0-1.2,0-1.9
		c0-0.1-0.1-0.2-0.1-0.3C72.2,41.6,72.2,42.2,72.1,42.9z"/>
	<path class="st4" d="M96.5,68.2c0.2-0.6,0.5-1.2,0.7-1.8l0,0C97,67,96.8,67.6,96.5,68.2z"/>
	<path class="st4" d="M70,64.4c-2.9,8.4-9.8,9.1-18.9,7.6l0.2,0.2c9.1,1.6,16,0.8,18.9-7.6c1.9-5.2,0.9-8.7-1.9-11.2
		C70.9,55.8,71.8,59.3,70,64.4z"/>
	<path class="st5" d="M68.3,53.3c-0.8-0.8-1.9-1.5-3.1-2.1c0,0,0,0-0.1,0C66.4,51.9,67.4,52.5,68.3,53.3z"/>
	<path class="st5" d="M71.4,37.9c0,0.1,0.1,0.1,0.1,0.2c0,0,0,0,0-0.1C71.5,38,71.5,37.9,71.4,37.9z"/>
	<path class="st5" d="M92.6,76.2c-0.4,0.6-0.8,1.2-1.3,1.9C91.7,77.5,92.2,76.9,92.6,76.2z"/>
	<path class="st5" d="M98.1,63.9L98.1,63.9c-0.2,0.4-0.3,0.8-0.4,1.2C97.8,64.7,98,64.4,98.1,63.9z"/>
	<path class="st5" d="M88.5,81.8c-0.3,0.3-0.6,0.7-0.9,1C88,82.5,88.3,82.1,88.5,81.8z"/>
	<path class="st5" d="M95.1,71.6c0.5-1.1,1-2.3,1.4-3.4C96.1,69.4,95.6,70.5,95.1,71.6z"/>
	<path class="st5" d="M72.3,41.5c0-0.1,0-0.1,0-0.2c0,0.6,0.2,1.2,0,1.9c-0.6,4.8-3.3,7.2-7,8.1c1.2,0.6,2.2,1.3,3.1,2.1
		c2.8,2.5,3.8,6,1.9,11.2c-2.9,8.4-9.8,9.1-18.9,7.6l21.9,21.9c5.4-2.8,10.4-6.6,14.4-11.2c0.3-0.3,0.6-0.7,0.9-1
		c1-1.2,1.9-2.4,2.8-3.7c0.4-0.6,0.9-1.2,1.3-1.9c0.9-1.5,1.8-3,2.5-4.6c0.5-1.1,1-2.3,1.4-3.4c0.2-0.6,0.5-1.2,0.7-1.8L72.3,41.5z"
		/>
	<path class="st5" d="M71.3,37.4c0.1,0.1,0.1,0.3,0.2,0.4c0,0,0,0.1,0.1,0.1C71.4,37.8,71.4,37.6,71.3,37.4z"/>
	<path class="st5" d="M45.2,70.4c-1.4-0.4-2.7-0.8-4.1-1l3.5,3.5L45.2,70.4z"/>
	<path class="st5" d="M65.4,97.5c-0.1,0-0.2,0.1-0.3,0.1C65.2,97.5,65.3,97.5,65.4,97.5z"/>
	<path class="st5" d="M58.5,99.1c0.6-0.1,1.2-0.3,1.9-0.5c-0.7,0.1-1.3,0.2-2,0.3L58.5,99.1z"/>
	<path class="st5" d="M72.3,94.6c-0.6,0.3-1.2,0.6-1.8,0.8C71.1,95.1,71.7,94.9,72.3,94.6z"/>
	<path class="st6" d="M24.4,65l9.4,9.4l1.7-6.7c-1.2-0.4-2.5-0.6-4-1L24.4,65z"/>
	<path class="st6" d="M61.1,30.3l0,0.2c2.1,0.7,4.1,1.6,5.8,2.6c-1.6-1-3.5-1.9-5.6-2.6L61.1,30.3z"/>
	<path class="st1" d="M57.1,22.5l-0.1-0.1l-1.5,6.3c0.1,0,0.1,0,0.2,0L57.1,22.5z"/>
	<path class="st1" d="M56.9,22.4L53.5,19l-2.3,8.7c1.4,0.4,2.8,0.6,4.2,1L56.9,22.4z"/>
	<path class="st1" d="M71.8,38.7c-0.1-0.2-0.2-0.4-0.3-0.6c0.4,0.9,0.6,1.8,0.6,2.9C72.1,40.1,72,39.4,71.8,38.7z"/>
	<path class="st1" d="M98.5,62.1c-0.1,0.6-0.4,1.2-0.5,1.8l0.1,0.1c0.2-0.5,0.3-1.1,0.5-1.6c0.2-0.6,0.2-1.2,0.3-1.8
		C98.7,61,98.6,61.5,98.5,62.1z"/>
	<path class="st1" d="M67.2,33.3c0.3,0.2,0.6,0.4,0.9,0.6C67.8,33.7,67.5,33.5,67.2,33.3z"/>
	<path class="st1" d="M69.3,34.9c0.7,0.7,1.3,1.5,1.8,2.3C70.7,36.4,70.1,35.6,69.3,34.9z"/>
	<path class="st1" d="M97.2,66.4L97.2,66.4c0.2-0.4,0.3-0.8,0.4-1.3c-0.1,0.3-0.3,0.7-0.4,1C97.2,66.2,97.2,66.3,97.2,66.4z"/>
	<path class="st1" d="M98.5,62.1c0.1-0.5,0.2-1.1,0.3-1.6c0,0,0-0.1,0-0.1C98.7,61,98.6,61.5,98.5,62.1z"/>
	<path class="st1" d="M69.3,34.9c0.8,0.7,1.3,1.5,1.8,2.3c0,0.1,0.1,0.1,0.1,0.1c-0.1-0.2-0.1-0.4-0.2-0.5l26.9,27
		c0.2-0.6,0.4-1.2,0.5-1.8c0.1-0.6,0.2-1.1,0.3-1.7c0.2-0.9,0.4-1.9,0.5-2.9l-36-36.2l-2.3,9l0,0l0.8-2.5l5.8,5.8
		c-0.3-0.2-0.6-0.3-0.9-0.5c0.1,0.1,0.3,0.2,0.4,0.3c0.3,0.2,0.6,0.4,0.9,0.6C68.5,34.3,69,34.6,69.3,34.9z"/>
	<path class="st1" d="M97.2,66.4L97.2,66.4c0-0.1,0.1-0.1,0.1-0.2C97.2,66.2,97.2,66.3,97.2,66.4z"/>
	<path class="st1" d="M72.2,40.9c0,0.1,0.1,0.2,0.1,0.3c0-0.9-0.2-1.8-0.4-2.6C72,39.4,72.1,40.1,72.2,40.9z"/>
	<path class="st1" d="M97.3,66.2c0.1-0.3,0.3-0.7,0.4-1c0.1-0.4,0.3-0.8,0.4-1.3L98,63.8C97.8,64.6,97.5,65.4,97.3,66.2z"/>
	<path class="st1" d="M71.5,38C71.5,38,71.5,38.1,71.5,38c0.1,0.3,0.2,0.5,0.3,0.7C71.7,38.5,71.6,38.2,71.5,38z"/>
	<path class="st1" d="M71,36.9c0.1,0.2,0.1,0.4,0.2,0.5c0.1,0.2,0.2,0.4,0.3,0.6c0.1,0.2,0.2,0.5,0.3,0.7c0.3,0.8,0.4,1.6,0.4,2.6
		c0,0.1,0,0.1,0,0.2l24.9,24.9c0-0.1,0.1-0.2,0.1-0.2c0.3-0.8,0.5-1.5,0.7-2.3L71,36.9z"/>
	<path class="st1" d="M61.9,27.7l-0.8,2.5l0.2,0.2c2.1,0.7,3.9,1.6,5.6,2.6c0.3,0.2,0.6,0.3,0.9,0.5L61.9,27.7z"/>
	<polygon class="st1" points="48.3,80.8 42.9,79.4 45.3,80.1 	"/>
	<path class="st1" d="M37.3,77.9l1.2,0.4l2.3-9c0.1,0,0.2,0.1,0.3,0.1l-0.3-0.3l-2.3,9l-5.4-1.4l0,0.2l4.3,1.2L37.3,77.9z"/>
	<path class="st1" d="M68.1,96.6L68.1,96.6c-0.2,0-0.3,0.1-0.4,0.1C67.8,96.7,68,96.7,68.1,96.6z"/>
	<polygon class="st1" points="44.6,72.9 44.6,72.9 42.9,79.4 	"/>
	<path class="st1" d="M37.4,78l-4.3-1.2l22.5,22.5c0.9,0,1.8-0.3,2.7-0.4L37.4,78z"/>
	<path class="st1" d="M65.6,97.4c-0.1,0-0.1,0.1-0.2,0.1c0.8-0.2,1.6-0.4,2.3-0.7c0.1-0.1,0.3-0.1,0.4-0.2l0,0
		C67.2,96.9,66.4,97.1,65.6,97.4z"/>
	<polygon class="st1" points="33.1,76.7 33.1,76.4 32.9,76.7 33.1,76.9 33.2,76.7 	"/>
	<path class="st1" d="M60.4,98.7c0.5-0.1,1.1-0.1,1.6-0.2l-0.1-0.1C61.4,98.4,60.9,98.6,60.4,98.7z"/>
	<path class="st1" d="M64.8,97.6c0.1,0,0.2-0.1,0.4-0.1c0,0-0.1,0-0.1,0C64.9,97.6,64.8,97.6,64.8,97.6z"/>
	<polygon class="st1" points="42.9,79.4 44.6,79.9 45.3,80.1 	"/>
	<polygon class="st1" points="37.4,78 38.6,78.3 37.3,77.9 	"/>
	<path class="st1" d="M65,97.6c0,0,0.1,0,0.1,0c0.1,0,0.2-0.1,0.3-0.1c0.1,0,0.1-0.1,0.2-0.1C65.4,97.4,65.2,97.5,65,97.6z"/>
	<path class="st1" d="M43.1,79.6l1.5,0.4l-1.7-0.6l1.7-6.5l-3.5-3.5c-0.1,0-0.2-0.1-0.3-0.1l-2.3,9L37.4,78l21,21
		c0.7-0.1,1.4-0.2,2-0.3c0.5-0.1,1-0.2,1.5-0.4L43.1,79.6z"/>
	<path class="st2" d="M50.6,71.9c0.2,0,0.3,0,0.5,0.1l-0.3-0.3c0,0,0,0-0.2,0l-2.3,9.2l0.8-3.1L50.6,71.9z"/>
	<path class="st2" d="M68,96.6c0.9-0.3,1.7-0.8,2.5-1.1c-0.9,0.4-1.7,0.7-2.6,1L68,96.6z"/>
	<path class="st2" d="M62.1,98.5c0.9-0.2,1.8-0.6,2.7-0.9C63.8,97.9,63,98.3,62.1,98.5L62.1,98.5z"/>
	<path class="st2" d="M73.3,94.1L73.3,94.1c-0.4,0.1-0.7,0.3-1,0.4C72.7,94.4,73,94.3,73.3,94.1z"/>
	<path class="st2" d="M50.6,71.9l-1.5,5.8l0.2,0.2l1.5-5.8c0.2,0,0.3,0,0.5,0.1l-0.2-0.2C50.9,71.9,50.8,71.9,50.6,71.9z"/>
	<path class="st2" d="M49.4,77.9l18.5,18.5c0.9-0.3,1.8-0.7,2.6-1c0.6-0.3,1.2-0.5,1.8-0.8c0.3-0.2,0.6-0.4,0.9-0.5L51.3,72.1
		c-0.2,0-0.3,0-0.5-0.1L49.4,77.9z"/>
	<polygon class="st2" points="48.3,81 49.2,77.7 48.3,80.8 45.3,80.1 	"/>
	<polygon class="st2" points="49.4,77.9 49.2,77.7 48.3,81 45.3,80.1 44.6,79.9 48.5,81.2 	"/>
	<path class="st2" d="M65.6,97.4c0.8-0.3,1.7-0.5,2.4-0.8l-0.1-0.1C67.1,96.7,66.4,97.1,65.6,97.4z"/>
	<path class="st2" d="M61.9,98.3l0.1,0.1c0.9-0.2,1.8-0.5,2.7-0.8c0.1,0,0.2-0.1,0.2-0.1C64,97.9,62.9,98.1,61.9,98.3z"/>
	<path class="st2" d="M49.4,77.9l-0.8,3.3l-3.9-1.3l-1.5-0.4l18.8,18.8c1-0.3,2.1-0.4,3.1-0.8c0.2-0.1,0.4-0.1,0.6-0.2
		c0.8-0.3,1.6-0.6,2.3-0.9L49.4,77.9z"/>
</g>
</svg>
