<?xml version="1.0" encoding="utf-8"?>
<!-- Generator: Adobe Illustrator 19.0.0, SVG Export Plug-In . SVG Version: 6.00 Build 0)  -->
<svg version="1.1" id="Layer_1" xmlns="http://www.w3.org/2000/svg" xmlns:xlink="http://www.w3.org/1999/xlink" x="0px" y="0px"
	 viewBox="0 0 100 100" style="enable-background:new 0 0 100 100;" xml:space="preserve">
<style type="text/css">
	.st0{fill:none;}
	.st1{fill:#EC6E23;}
	.st2{fill:#DF5D26;}
	.st3{fill:#FDB515;}
	.st4{fill:#F69321;}
	.st5{fill:#D65427;}
	.st6{fill:#4E4F4F;}
	.st7{fill:#E06826;}
</style>
<g id="XMLID_1_">
	<path id="XMLID_2_" class="st0" d="M73.8,55.3c0.5,0,0.9-0.1,1.1-0.4c0.4-0.2,0.6-0.6,0.9-1c0.2-0.4,0.4-0.7,0.5-1.2
		c0.1-0.5,0.1-0.9,0.1-1.2c0-0.6-0.1-1.1-0.4-1.5c-0.2-0.4-0.6-0.5-1.1-0.5c-0.4,0-0.9,0.1-1.1,0.4c-0.4,0.2-0.6,0.6-0.9,1
		c-0.2,0.4-0.4,0.7-0.5,1.2c-0.1,0.5-0.1,0.9-0.1,1.2c0,0.6,0.1,1.1,0.4,1.5C72.9,55.2,73.3,55.3,73.8,55.3z"/>
	<path id="XMLID_75_" class="st0" d="M40.5,55.3c0.1,0,0.1,0,0.2,0c0,0.1,0.1,0.1,0.4,0.1c0.5,0,0.9-0.1,1.2-0.4
		c0.4-0.2,0.7-0.5,1-0.9c0.2-0.4,0.5-0.7,0.7-1.2c0.1-0.5,0.2-1,0.2-1.5c0-0.6-0.1-1.1-0.4-1.5s-0.6-0.5-1.1-0.5
		c-0.1,0-0.4,0-0.7,0.1c-0.2,0.1-0.6,0.2-0.7,0.4l-1.2,5.3c0.1,0,0.1,0,0.2,0H40.5z"/>
	<path id="XMLID_78_" class="st0" d="M14.9,56.9l0.6-2.2l0.1,0.1c0.3,0.1,0.7,0.1,1,0.2l-0.2,0.6l0,0l-0.4,1.6l1.3,0.4l0.6-2.3
		c0.1,0,0.1,0,0.1,0l0.1,0.1c2.2,0.4,3.9,0.2,4.6-1.9c0.5-1.2,0.2-2.1-0.4-2.7c-0.2-0.2-0.5-0.4-0.8-0.5c0,0,0,0,0,0c0,0,0,0-0.1,0
		c0.9-0.2,1.6-0.8,1.7-2c0.1-0.4,0-0.7-0.1-1c0,0,0-0.1,0-0.1c0-0.1-0.1-0.2-0.2-0.4c0,0,0-0.1,0-0.1c-0.5-0.7-1.4-1.2-2.5-1.5
		l0.6-2.2l-1.3-0.4l-0.1,0.6l0,0l-0.4,1.5c0,0,0,0,0,0l0,0c-0.4-0.1-0.7-0.2-1.1-0.3l0.6-2.2L17.2,42l-0.6,2.2
		c-0.3-0.1-0.6-0.2-0.9-0.2l-1.8-0.5L13.5,45l1,0.3c0.5,0.1,0.6,0.5,0.6,0.8l-0.6,2.5c0.1,0,0.1,0,0.2,0.1c-0.1-0.1-0.1-0.1-0.2-0.1
		l-0.9,3.5c-0.1,0.2-0.3,0.4-0.6,0.3l-1-0.3l-0.7,1.5l1.7,0.5c0.4,0.1,0.7,0.2,1,0.3l-0.6,2.2L14.9,56.9z M16.6,50.2
		c0.8,0.2,3.2,0.6,3.4,1.8c0,0.2,0.1,0.4,0,0.6l0,0c-0.5,1.6-3.2,0.7-4.1,0.5L16.6,50.2z M17.6,46.1c0.8,0.2,3.2,0.6,2.8,2.2
		c-0.4,1.5-2.7,0.8-3.5,0.6L17.6,46.1z"/>
	<path id="XMLID_80_" class="st1" d="M16.6,50.2c0.8,0.2,3.1,0.6,3.4,1.8C19.8,50.7,17.4,50.4,16.6,50.2l-0.7,2.9L16.6,50.2z"/>
	<path id="XMLID_81_" class="st1" d="M20,52.6l-4.1,0.5C16.8,53.3,19.5,54.2,20,52.6z"/>
	<path id="XMLID_82_" class="st2" d="M20,52.6C20,52.6,20,52.6,20,52.6L20,52.6c0.1-0.2,0.1-0.4,0-0.6C20.1,52.2,20.1,52.4,20,52.6z
		"/>
	<path id="XMLID_83_" class="st2" d="M20,52.6c0-0.2,0-0.4,0-0.6c-0.3-1.2-2.6-1.6-3.4-1.8l-0.7,2.9L20,52.6
		C20,52.6,20,52.6,20,52.6z"/>
	<path id="XMLID_84_" class="st1" d="M20.5,48.3L17,48.8C17.7,49,20.1,49.8,20.5,48.3z"/>
	<path id="XMLID_85_" class="st2" d="M20.5,48.3c0.4-1.6-2.1-1.9-2.8-2.2C18.4,46.3,20.8,46.7,20.5,48.3z"/>
	<path id="XMLID_86_" class="st2" d="M20.5,48.3c0.4-1.6-2.1-1.9-2.8-2.2L17,48.8L20.5,48.3z"/>
	<path id="XMLID_87_" class="st3" d="M5.7,47l14.9-9C14,36.4,7.4,40.5,5.7,47z"/>
	<path id="XMLID_88_" class="st3" d="M29.7,52.6C29.7,52.6,29.7,52.6,29.7,52.6c0.1-0.7,0.2-1.4,0.3-2.1
		C30,51.2,29.9,51.9,29.7,52.6z"/>
	<path id="XMLID_89_" class="st4" d="M30,50.5c0.2-5.7-3.5-11-9.3-12.5C26.4,39.5,30.2,44.8,30,50.5z"/>
	<path id="XMLID_90_" class="st4" d="M23,47.2c0.1,0.3,0.1,0.7,0.1,1c-0.2,1.2-0.8,1.8-1.7,2c0,0,0,0,0.1,0c0.9-0.2,1.6-0.8,1.7-2
		c0-0.1,0-0.3,0-0.4l0,0C23.2,47.6,23.1,47.4,23,47.2z"/>
	<path id="XMLID_91_" class="st4" d="M5.7,47c-1.6,6.6,2.4,13.3,9,14.9c2.5,0.6,5.1,0.4,7.3-0.4c-0.2,0.1-0.4,0.1-0.6,0.2
		c0,0,0,0-0.1,0c0,0-0.1,0-0.1,0c-0.2,0.1-0.4,0.2-0.7,0.2l0,0c-0.1,0-0.3,0-0.4,0.1c-0.2,0-0.3,0.1-0.5,0.1l0,0
		c-0.2,0-0.4,0.1-0.7,0.1l-5.5-5.5l-0.1-0.1l0.1-0.1v0.1l0,0l0.6-2.2L13.7,56l-2.3-2.3l1.7,0.4l-1.7-0.5l0.7-1.5l1,0.3
		c0.4,0.1,0.6-0.2,0.6-0.3l0.9-3.5l0.6-2.5c0-0.3-0.1-0.7-0.6-0.8l-1-0.3l0.4-1.4l1.8,0.5c0.3,0.1,0.6,0.2,0.9,0.2l0.6-2.2l1.3,0.4
		l-0.6,2.2c0.4,0.1,0.7,0.2,1.1,0.3l0,0c-0.3-0.1-0.7-0.1-1-0.2l0.6-2.2l0.8,0.8l0.1-0.6l1.3,0.4l-0.6,2.2c1.1,0.3,2,0.8,2.5,1.5
		c-0.2-0.3-0.5-0.5-0.8-0.8l0,0c-0.5-0.3-1-0.6-1.6-0.8l0,0l0,0l0.6-2.2l8.9,8.9c0,0.2-0.1,0.5-0.1,0.7c0.1-0.7,0.2-1.4,0.3-2.1
		c0.2-5.7-3.5-11-9.3-12.5L5.7,47z"/>
	<path id="XMLID_92_" class="st4" d="M22.8,46.8c0.1,0.1,0.1,0.2,0.2,0.4C23,47,22.9,46.9,22.8,46.8z"/>
	<path id="XMLID_93_" class="st4" d="M29.1,54.5c0.1-0.1,0.1-0.3,0.2-0.4l0,0C29.3,54.2,29.2,54.3,29.1,54.5z"/>
	<path id="XMLID_94_" class="st4" d="M28.2,56.5c0.2-0.4,0.4-0.7,0.6-1.1C28.6,55.7,28.4,56.1,28.2,56.5z"/>
	<path id="XMLID_95_" class="st4" d="M23.4,60.9L23.4,60.9c-0.1,0.1-0.1,0.1-0.2,0.1c-0.1,0.1-0.3,0.1-0.4,0.2
		c-0.2,0.1-0.4,0.2-0.6,0.3l0,0c1.9-0.7,3.5-1.9,4.8-3.4C26,59.2,24.7,60.2,23.4,60.9z"/>
	<path id="XMLID_96_" class="st4" d="M27.2,57.8c0.2-0.3,0.5-0.6,0.7-0.9C27.6,57.2,27.4,57.5,27.2,57.8z"/>
	<path id="XMLID_97_" class="st4" d="M22.6,53.5c-0.7,2.1-2.4,2.2-4.6,1.9l0.1,0.1C20.3,55.8,22,55.7,22.6,53.5
		c0.5-1.2,0.3-2.1-0.4-2.7C22.8,51.4,23.1,52.3,22.6,53.5z"/>
	<path id="XMLID_98_" class="st5" d="M27.2,57.8C27.1,57.9,27,58,27,58.1C27,58,27.1,57.9,27.2,57.8z"/>
	<path id="XMLID_99_" class="st5" d="M22.2,50.8c-0.2-0.2-0.5-0.4-0.8-0.5c0,0,0,0,0,0C21.7,50.5,22,50.6,22.2,50.8z"/>
	<path id="XMLID_100_" class="st5" d="M29.5,53.4L29.5,53.4c0,0.1-0.1,0.2-0.1,0.3C29.5,53.6,29.5,53.5,29.5,53.4z"/>
	<path id="XMLID_101_" class="st5" d="M27.9,56.9c0.1-0.2,0.2-0.3,0.3-0.5C28.1,56.6,28,56.8,27.9,56.9z"/>
	<path id="XMLID_102_" class="st5" d="M29.1,54.5c-0.1,0.3-0.2,0.6-0.3,0.8C28.9,55,29,54.8,29.1,54.5z"/>
	<path id="XMLID_103_" class="st5" d="M15.5,54.8l0.9,0.9l0.2-0.6C16.2,54.9,15.8,54.8,15.5,54.8z"/>
	<path id="XMLID_104_" class="st5" d="M19.8,62.1c0.2,0,0.3-0.1,0.5-0.1C20.1,62,19.9,62,19.8,62.1L19.8,62.1z"/>
	<path id="XMLID_105_" class="st5" d="M21.5,61.7C21.4,61.7,21.4,61.7,21.5,61.7C21.4,61.7,21.4,61.7,21.5,61.7z"/>
	<path id="XMLID_106_" class="st5" d="M23.2,61c-0.1,0.1-0.3,0.1-0.4,0.2C22.9,61.1,23,61.1,23.2,61z"/>
	<path id="XMLID_107_" class="st5" d="M23.2,47.9c0,0.1,0,0.2,0,0.4c-0.2,1.2-0.8,1.8-1.7,2c0.3,0.2,0.5,0.3,0.8,0.5
		c0.7,0.6,0.9,1.5,0.5,2.8c-0.7,2.1-2.4,2.2-4.6,1.9l5.4,5.4c1.3-0.7,2.6-1.6,3.6-2.8c0.1-0.1,0.1-0.2,0.2-0.3
		c0.2-0.3,0.5-0.6,0.7-0.9c0.1-0.2,0.2-0.3,0.3-0.5c0.2-0.4,0.4-0.7,0.6-1.1c0.1-0.3,0.2-0.6,0.3-0.8c0.1-0.1,0.1-0.3,0.2-0.4
		L23.2,47.9z"/>
	<path id="XMLID_110_" class="st6" d="M36.6,57c0.4,0.1,0.9,0.2,1.2,0.4c0.5,0.1,0.9,0.2,1.2,0.2c0.4,0.1,0.7,0.1,1,0.1s0.5,0,0.6,0
		c1,0,1.8-0.1,2.6-0.5c0.9-0.2,1.5-0.7,2.1-1.3c0.6-0.6,1-1.2,1.3-2.1c0.4-0.9,0.5-1.7,0.5-2.6c0-0.5-0.1-1.1-0.2-1.6
		c-0.1-0.5-0.4-1-0.6-1.3c-0.2-0.4-0.6-0.6-1.1-0.9s-1-0.4-1.6-0.4c-0.2,0-0.6,0.1-1.1,0.1c-0.2,0-0.5,0.1-0.7,0.2l1.2-5L39.9,43
		L36.6,57z M41.3,50.1c0.1-0.1,0.5-0.2,0.7-0.4c0.4-0.1,0.6-0.1,0.7-0.1c0.5,0,0.9,0.1,1.1,0.5s0.4,0.9,0.4,1.5c0,0.5-0.1,1-0.2,1.5
		c-0.2,0.5-0.5,0.9-0.7,1.2c-0.2,0.4-0.6,0.6-1,0.9c-0.4,0.2-0.7,0.4-1.2,0.4c-0.2,0-0.4,0-0.4-0.1c-0.1,0-0.1,0-0.2,0h-0.1
		c-0.1,0-0.1,0-0.2,0L41.3,50.1z"/>
	<path id="XMLID_111_" class="st6" d="M51.4,43c-0.2,0-0.5,0.2-0.6,0.4c-0.2,0.1-0.4,0.4-0.5,0.6c-0.1,0.2-0.1,0.5-0.1,0.7
		c0,0.5,0.1,0.9,0.5,1.1s0.7,0.4,1.1,0.4c0.2,0,0.5-0.1,0.7-0.1s0.5-0.2,0.6-0.4c0.2-0.1,0.4-0.4,0.5-0.6c0.1-0.2,0.1-0.5,0.1-0.7
		c0-0.5-0.1-0.9-0.5-1.1c-0.4-0.2-0.7-0.4-1.1-0.4C51.9,42.9,51.6,42.9,51.4,43z"/>
	<polygon id="XMLID_112_" class="st6" points="47.3,57.5 50.3,57.5 52.7,47.4 49.8,47.4 	"/>
	<path id="XMLID_113_" class="st6" d="M55.3,44.8l-2,8.1c-0.1,0.6-0.2,1.2-0.2,1.8c0,0.6,0,1.1,0.2,1.6s0.6,0.9,1.1,1.1
		c0.5,0.2,1.2,0.4,2.1,0.4c0.6,0,1.1,0,1.6-0.2c0.4-0.1,0.9-0.2,1.2-0.4L59.1,55c-0.2,0.1-0.6,0.2-0.9,0.2c-0.2,0.1-0.5,0.1-0.9,0.1
		c-0.4,0-0.6,0-0.9-0.1c-0.1-0.1-0.2-0.2-0.4-0.5C56,54.6,56,54.4,56,54.1s0-0.6,0.1-0.9l0.9-3.5h3.2l0.6-2.3h-3.2l0.7-3.1
		L55.3,44.8z"/>
	<path id="XMLID_114_" class="st6" d="M68.5,47.3c-0.5-0.1-1-0.1-1.6-0.1c-1,0-1.8,0.1-2.6,0.5c-0.7,0.4-1.5,0.7-2,1.3
		c-0.5,0.6-1,1.3-1.2,2.1c-0.4,0.7-0.5,1.6-0.5,2.4c0,0.6,0,1.1,0.5,1.7c0.1,0.5,0.4,1,0.7,1.3c0.4,0.5,0.7,0.7,1.3,1
		c0.6,0.2,1.2,0.4,2.1,0.4c0.6,0,1.1,0,1.6-0.1s0.9-0.2,1.2-0.4l-0.2-2.3c-0.4,0.1-0.6,0.1-1,0.2c-0.4,0.1-0.7,0.1-1.1,0.1
		c-0.7,0-1.3-0.2-1.6-0.6c-0.4-0.4-0.5-1-0.5-1.6c0-1.1,0.2-2.1,0.9-2.7c0.6-0.6,1.3-1,2.3-1c0.4,0,0.7,0,1,0.1
		c0.4,0,0.6,0.1,0.9,0.2l1-2.2C69.4,47.5,69,47.4,68.5,47.3z"/>
	<path id="XMLID_117_" class="st6" d="M70.8,49.2c-0.5,0.6-0.9,1.3-1.1,2.1c-0.2,0.7-0.4,1.6-0.4,2.3c0,0.6,0.1,1.2,0.2,1.7
		c0.1,0.5,0.4,1,0.7,1.3c0.2,0.4,0.7,0.6,1.2,0.9c0.6,0.2,1.1,0.4,1.8,0.4c1,0,1.7-0.2,2.4-0.6c0.7-0.4,1.3-0.9,1.8-1.5
		c0.5-0.6,0.9-1.3,1.1-2.1c0.2-0.7,0.4-1.6,0.4-2.3c0-0.6-0.1-1.2-0.2-1.7c-0.1-0.5-0.4-1-0.7-1.3c-0.2-0.4-0.7-0.6-1.2-0.9
		c-0.6-0.2-1.1-0.4-1.8-0.4c-1,0-1.7,0.2-2.4,0.6C71.9,48.1,71.3,48.6,70.8,49.2z M72.4,52.2c0.1-0.5,0.2-0.9,0.5-1.2
		c0.2-0.4,0.5-0.7,0.9-1c0.2-0.2,0.7-0.4,1.1-0.4c0.5,0,0.9,0.1,1.1,0.5c0.2,0.4,0.4,0.9,0.4,1.5c0,0.4,0,0.7-0.1,1.2
		c-0.1,0.5-0.2,0.9-0.5,1.2c-0.2,0.4-0.5,0.7-0.9,1c-0.2,0.2-0.6,0.4-1.1,0.4s-0.9-0.1-1.1-0.5c-0.2-0.4-0.4-0.9-0.4-1.5
		C72.3,53,72.3,52.6,72.4,52.2z"/>
	<path id="XMLID_118_" class="st6" d="M83.7,46.2c0.2,0,0.5-0.1,0.7-0.1c0.2,0,0.5-0.2,0.6-0.4c0.2-0.1,0.4-0.4,0.5-0.6
		c0.1-0.2,0.1-0.5,0.1-0.7c0-0.5-0.1-0.9-0.5-1.1s-0.7-0.4-1.1-0.4c-0.2,0-0.5,0-0.7,0.1c-0.2,0-0.5,0.2-0.6,0.4
		c-0.2,0.1-0.4,0.4-0.5,0.6c-0.1,0.2-0.1,0.5-0.1,0.7c0,0.5,0.1,0.9,0.5,1.1C83,46,83.3,46.2,83.7,46.2z"/>
	<polygon id="XMLID_119_" class="st6" points="79.4,57.5 82.3,57.5 84.8,47.4 81.8,47.4 	"/>
	<path id="XMLID_120_" class="st6" d="M94.1,48.5c-0.6-0.9-1.7-1.3-3.2-1.3c-0.5,0-1,0.1-1.3,0.1c-0.4,0-0.7,0-1.1,0.1
		c-0.2,0.1-0.6,0.1-0.9,0.2c-0.2,0.1-0.5,0.1-0.7,0.2l-2.3,9.8h2.9l1.8-7.9c0.4-0.1,0.7-0.1,1.1-0.1c0.4,0,0.6,0.1,0.9,0.2
		c0.2,0.1,0.4,0.4,0.4,0.6c0,0.2,0,0.5,0,0.9c-0.1,0.4-0.1,0.6-0.2,1l-1.2,5.4H93l1.3-5.5C94.8,50.6,94.7,49.3,94.1,48.5z"/>
	<path id="XMLID_121_" class="st7" d="M11.4,53.7l2.3,2.3l0.4-1.6c-0.3-0.1-0.6-0.2-1-0.3L11.4,53.7z"/>
	<path id="XMLID_122_" class="st7" d="M20.4,45.1L20.4,45.1c0.6,0.2,1.2,0.5,1.6,0.8l0,0C21.6,45.6,21,45.4,20.4,45.1L20.4,45.1z"/>
	<path id="XMLID_123_" class="st1" d="M19.4,43.2L19.4,43.2L19,44.8c0,0,0,0,0,0L19.4,43.2z"/>
	<path id="XMLID_124_" class="st1" d="M18.6,42.4L18,44.5c0.3,0.1,0.7,0.2,1,0.2l0.4-1.6L18.6,42.4z"/>
	<path id="XMLID_125_" class="st1" d="M29.5,53.4L29.5,53.4c0.1-0.1,0.1-0.3,0.1-0.4c0-0.2,0-0.3,0.1-0.4c0,0.1,0,0.3-0.1,0.4
		C29.6,53.1,29.5,53.3,29.5,53.4z"/>
	<path id="XMLID_126_" class="st1" d="M22.8,46.7C22.8,46.7,22.8,46.7,22.8,46.7C22.8,46.7,22.8,46.7,22.8,46.7z"/>
	<path id="XMLID_127_" class="st1" d="M23,47.2C23,47.2,23,47.1,23,47.2C23,47.1,23,47.2,23,47.2z"/>
	<path id="XMLID_128_" class="st1" d="M29.3,54C29.3,54,29.3,54,29.3,54L29.3,54c0,0,0.1-0.1,0.1-0.3C29.4,53.8,29.4,53.9,29.3,54z"
		/>
	<path id="XMLID_129_" class="st1" d="M29.6,53c0-0.1,0-0.3,0.1-0.4c0,0,0,0,0,0C29.7,52.7,29.7,52.8,29.6,53z"/>
	<path id="XMLID_130_" class="st1" d="M29.3,54L29.3,54C29.3,54,29.3,54,29.3,54C29.3,54,29.3,54,29.3,54z"/>
	<path id="XMLID_131_" class="st1" d="M23,47.1C23,47.1,23,47.2,23,47.1c0.1,0.3,0.2,0.5,0.2,0.8l0,0c0-0.4-0.1-0.8-0.3-1.2l6.6,6.6
		c0-0.1,0.1-0.3,0.1-0.4c0-0.1,0.1-0.3,0.1-0.4c0-0.2,0.1-0.5,0.1-0.7L21,42.9l-0.6,2.2l0,0l0.2-0.6l1.4,1.4
		c0.3,0.2,0.6,0.5,0.8,0.8c0,0,0,0.1,0,0.1C22.9,46.9,23,47,23,47.1z"/>
	<path id="XMLID_132_" class="st1" d="M29.3,54c0-0.1,0.1-0.2,0.1-0.3c0-0.1,0.1-0.2,0.1-0.3l0,0C29.4,53.6,29.4,53.8,29.3,54z"/>
	<path id="XMLID_133_" class="st1" d="M22.9,46.8c0.2,0.3,0.3,0.7,0.3,1.2l6.1,6.1c0,0,0,0,0-0.1c0.1-0.2,0.1-0.4,0.2-0.6L22.9,46.8
		z"/>
	<path id="XMLID_134_" class="st1" d="M20.4,45.1L20.4,45.1c0.6,0.2,1.2,0.5,1.6,0.8l-1.4-1.4L20.4,45.1z"/>
	<polygon id="XMLID_135_" class="st1" points="17.3,57.6 15.9,57.2 16.5,57.4 	"/>
	<path id="XMLID_136_" class="st1" d="M14.6,56.9l0.3,0.1l0.6-2.2c0,0,0,0,0.1,0l-0.1-0.1l-0.6,2.2l-1.3-0.4l0,0L14.6,56.9
		L14.6,56.9z"/>
	<path id="XMLID_137_" class="st1" d="M22.1,61.5L22.1,61.5c0,0-0.1,0-0.1,0C22.1,61.5,22.1,61.5,22.1,61.5z"/>
	<polygon id="XMLID_138_" class="st1" points="16.3,55.6 16.3,55.6 15.9,57.2 	"/>
	<polygon id="XMLID_139_" class="st1" points="13.5,56.6 13.5,56.6 13.5,56.5 13.5,56.6 13.5,56.6 	"/>
	<path id="XMLID_140_" class="st1" d="M14.6,56.9l-1.1-0.3l5.5,5.5c0.2,0,0.4-0.1,0.7-0.1L14.6,56.9z"/>
	<path id="XMLID_141_" class="st1" d="M20.2,62c0.1,0,0.3,0,0.4-0.1l0,0C20.5,61.9,20.4,62,20.2,62z"/>
	<polygon id="XMLID_142_" class="st1" points="15.9,57.2 16.4,57.4 16.5,57.4 	"/>
	<path id="XMLID_143_" class="st1" d="M21.5,61.7C21.5,61.7,21.5,61.7,21.5,61.7c0.1,0,0.3-0.1,0.5-0.1c0,0,0.1,0,0.1,0l0,0
		C21.9,61.5,21.7,61.6,21.5,61.7z"/>
	<path id="XMLID_144_" class="st1" d="M21.3,61.7C21.3,61.7,21.4,61.7,21.3,61.7C21.4,61.7,21.4,61.7,21.3,61.7
		C21.4,61.7,21.3,61.7,21.3,61.7z"/>
	<polygon id="XMLID_145_" class="st1" points="14.6,56.9 14.9,57 14.6,56.9 	"/>
	<path id="XMLID_146_" class="st1" d="M16,57.3l0.4,0.1L16,57.3l0.4-1.6l-0.9-0.9c0,0,0,0-0.1,0L14.9,57l-0.3-0.1l5.2,5.2
		c0.2,0,0.3,0,0.5-0.1c0.1,0,0.2-0.1,0.4-0.1L16,57.3z"/>
	<path id="XMLID_147_" class="st1" d="M21.4,61.7C21.4,61.7,21.4,61.7,21.4,61.7C21.4,61.7,21.4,61.7,21.4,61.7c0.1,0,0.1,0,0.1,0
		C21.5,61.7,21.4,61.7,21.4,61.7z"/>
	<path id="XMLID_148_" class="st2" d="M17.5,56.8L17.5,56.8l0.4-1.4c0,0,0.1,0,0.1,0l-0.1-0.1c0,0,0,0-0.1,0l-0.6,2.3L17.5,56.8z"/>
	<path id="XMLID_149_" class="st2" d="M22.1,61.4L22.1,61.4c0.2-0.1,0.4-0.2,0.6-0.3C22.5,61.3,22.3,61.4,22.1,61.4z"/>
	<path id="XMLID_150_" class="st2" d="M17.8,55.4l-0.4,1.4l0.1,0.1L17.8,55.4c0.1,0.1,0.1,0.1,0.2,0.1L18,55.4
		C17.9,55.4,17.9,55.4,17.8,55.4z"/>
	<path id="XMLID_151_" class="st2" d="M23.2,61c0.1,0,0.2-0.1,0.2-0.1l0,0C23.3,60.9,23.3,60.9,23.2,61z"/>
	<path id="XMLID_152_" class="st2" d="M20.6,61.9L20.6,61.9c0.2,0,0.5-0.1,0.7-0.2C21.1,61.8,20.9,61.9,20.6,61.9z"/>
	<path id="XMLID_153_" class="st2" d="M17.5,56.9l4.6,4.6c0.2-0.1,0.4-0.2,0.6-0.3c0.1-0.1,0.3-0.1,0.4-0.2c0.1,0,0.1-0.1,0.2-0.1
		L18,55.5c0,0-0.1,0-0.1,0L17.5,56.9z"/>
	<polygon id="XMLID_154_" class="st2" points="17.3,57.6 17.5,56.8 17.5,56.8 17.3,57.6 16.5,57.4 	"/>
	<polygon id="XMLID_155_" class="st2" points="17.5,56.9 17.5,56.8 17.3,57.6 16.5,57.4 16.4,57.4 17.3,57.7 	"/>
	<path id="XMLID_156_" class="st2" d="M20.6,61.9L20.6,61.9c0.3,0,0.5-0.1,0.7-0.2c0,0,0,0,0.1,0C21.1,61.8,20.9,61.8,20.6,61.9z"/>
	<path id="XMLID_157_" class="st2" d="M21.5,61.7c0.2-0.1,0.4-0.1,0.6-0.2l0,0C21.9,61.5,21.7,61.6,21.5,61.7z"/>
	<path id="XMLID_158_" class="st2" d="M22.1,61.4l-4.6-4.6l-0.2,0.8l-1-0.3L16,57.3l4.6,4.6c0.3-0.1,0.5-0.1,0.8-0.2
		c0,0,0.1,0,0.1,0C21.7,61.6,21.9,61.5,22.1,61.4z"/>
</g>
</svg>
