<?xml version="1.0" encoding="utf-8"?>
<!-- Generator: Adobe Illustrator 19.0.0, SVG Export Plug-In . SVG Version: 6.00 Build 0)  -->
<svg version="1.1" id="Layer_1" xmlns="http://www.w3.org/2000/svg" xmlns:xlink="http://www.w3.org/1999/xlink" x="0px" y="0px"
	 viewBox="0 0 100 100" style="enable-background:new 0 0 100 100;" xml:space="preserve">
<style type="text/css">
	.st0{clip-path:url(#SVGID_2_);}
	.st1{clip-path:url(#SVGID_4_);fill:#FFFFFF;}
	.st2{clip-path:url(#SVGID_6_);}
	.st3{clip-path:url(#SVGID_8_);fill:#FFFFFF;}
	.st4{clip-path:url(#SVGID_10_);}
	.st5{clip-path:url(#SVGID_12_);fill:#FFFFFF;}
	.st6{clip-path:url(#SVGID_14_);}
	.st7{clip-path:url(#SVGID_16_);fill:#FFFFFF;}
</style>
<g>
	<defs>
		<path id="SVGID_1_" d="M91.7,80.5c0,2.3-1.9,4.3-4.3,4.3H11.8c-2.3,0-4.3-1.9-4.3-4.3V36.4c0-2.3,1.9-4.2,4.2-4.2h1.8h9h4l6-15h34
			l6,15h14.8c2.3,0,4.2,1.9,4.2,4.2V80.5z M16.6,24.7h3v4.5h-3V24.7z M87.5,29.2H74.7l-6-15H30.6l-6,15h-2v-7.5h-9v7.5h-1.8
			c-4,0-7.2,3.2-7.2,7.2v44.1c0,4,3.3,7.3,7.3,7.3h75.6c4,0,7.3-3.3,7.3-7.3V36.4C94.7,32.4,91.5,29.2,87.5,29.2z"/>
	</defs>
	<clipPath id="SVGID_2_">
		<use xlink:href="#SVGID_1_"  style="overflow:visible;"/>
	</clipPath>
	<g class="st0">
		<defs>
			<rect id="SVGID_3_" x="-1594" y="-5437.1" width="3286.3" height="12046.5"/>
		</defs>
		<clipPath id="SVGID_4_">
			<use xlink:href="#SVGID_3_"  style="overflow:visible;"/>
		</clipPath>
		<rect x="-7.2" y="2.4" class="st1" width="113.6" height="97.1"/>
	</g>
</g>
<g>
	<defs>
		<path id="SVGID_5_" d="M49.6,78.8c-13.3,0-24-10.8-24-24s10.8-24,24-24s24,10.8,24,24S62.9,78.8,49.6,78.8z M49.6,27.7
			c-14.9,0-27,12.1-27,27s12.1,27,27,27s27-12.1,27-27S64.5,27.7,49.6,27.7z"/>
	</defs>
	<clipPath id="SVGID_6_">
		<use xlink:href="#SVGID_5_"  style="overflow:visible;"/>
	</clipPath>
	<g class="st2">
		<defs>
			<rect id="SVGID_7_" x="-1594" y="-5437.1" width="3286.3" height="12046.5"/>
		</defs>
		<clipPath id="SVGID_8_">
			<use xlink:href="#SVGID_7_"  style="overflow:visible;"/>
		</clipPath>
		<rect x="10.9" y="16" class="st3" width="77.6" height="77.6"/>
	</g>
</g>
<g>
	<defs>
		<path id="SVGID_9_" d="M49.6,69.8c-8.3,0-15-6.7-15-15s6.7-15,15-15s15,6.7,15,15S57.9,69.8,49.6,69.8z M49.6,36.7
			c-9.9,0-18,8.1-18,18s8.1,18,18,18s18-8.1,18-18S59.6,36.7,49.6,36.7z"/>
	</defs>
	<clipPath id="SVGID_10_">
		<use xlink:href="#SVGID_9_"  style="overflow:visible;"/>
	</clipPath>
	<g class="st4">
		<defs>
			<rect id="SVGID_11_" x="-1594" y="-5437.1" width="3286.3" height="12046.5"/>
		</defs>
		<clipPath id="SVGID_12_">
			<use xlink:href="#SVGID_11_"  style="overflow:visible;"/>
		</clipPath>
		<rect x="19.9" y="25" class="st5" width="59.5" height="59.5"/>
	</g>
</g>
<g>
	<defs>
		<path id="SVGID_13_" d="M82.7,44.2c-1.7,0-3-1.3-3-3s1.3-3,3-3c1.7,0,3,1.3,3,3S84.3,44.2,82.7,44.2z M82.7,35.2c-3.3,0-6,2.7-6,6
			s2.7,6,6,6c3.3,0,6-2.7,6-6S86,35.2,82.7,35.2z"/>
	</defs>
	<clipPath id="SVGID_14_">
		<use xlink:href="#SVGID_13_"  style="overflow:visible;"/>
	</clipPath>
	<g class="st6">
		<defs>
			<rect id="SVGID_15_" x="-1594" y="-5437.1" width="3286.3" height="12046.5"/>
		</defs>
		<clipPath id="SVGID_16_">
			<use xlink:href="#SVGID_15_"  style="overflow:visible;"/>
		</clipPath>
		<rect x="64.9" y="23.5" class="st7" width="35.5" height="35.5"/>
	</g>
</g>
</svg>
