<?xml version="1.0" encoding="utf-8"?>
<!-- Generator: Adobe Illustrator 19.0.0, SVG Export Plug-In . SVG Version: 6.00 Build 0)  -->
<svg version="1.1" id="Layer_1" xmlns="http://www.w3.org/2000/svg" xmlns:xlink="http://www.w3.org/1999/xlink" x="0px" y="0px"
	 viewBox="0 0 100 100" style="enable-background:new 0 0 100 100;" xml:space="preserve">
<style type="text/css">
	.st0{clip-path:url(#XMLID_17_);fill:#FFFFFF;}
	.st1{clip-path:url(#XMLID_18_);fill:#FFFFFF;}
	.st2{clip-path:url(#XMLID_19_);fill:#FFFFFF;}
	.st3{clip-path:url(#XMLID_21_);fill:#FFFFFF;}
	.st4{clip-path:url(#XMLID_22_);fill:#FFFFFF;}
</style>
<g id="XMLID_31_">
	<defs>
		<path id="XMLID_32_" d="M43.6,83.7c-1.7,0-3.1-1.4-3.1-3.1c0-1.7,1.4-3.1,3.1-3.1s3.1,1.4,3.1,3.1C46.8,82.3,45.4,83.7,43.6,83.7z
			 M43.6,73.5c-3.9,0-7.1,3.2-7.1,7.1s3.2,7.1,7.1,7.1c3.9,0,7.1-3.2,7.1-7.1C50.7,76.7,47.5,73.5,43.6,73.5z"/>
	</defs>
	<clipPath id="XMLID_17_">
		<use xlink:href="#XMLID_32_"  style="overflow:visible;"/>
	</clipPath>
	<rect id="XMLID_13_" x="17.8" y="54.7" class="st0" width="51.7" height="51.7"/>
</g>
<g id="XMLID_26_">
	<defs>
		<path id="XMLID_27_" d="M68.6,83.7c-1.7,0-3.1-1.4-3.1-3.1c0-1.7,1.4-3.1,3.1-3.1c1.7,0,3.1,1.4,3.1,3.1
			C71.7,82.3,70.3,83.7,68.6,83.7z M68.6,73.5c-3.9,0-7.1,3.2-7.1,7.1s3.2,7.1,7.1,7.1c3.9,0,7.1-3.2,7.1-7.1
			C75.7,76.7,72.5,73.5,68.6,73.5z"/>
	</defs>
	<clipPath id="XMLID_18_">
		<use xlink:href="#XMLID_27_"  style="overflow:visible;"/>
	</clipPath>
	<rect id="XMLID_10_" x="42.7" y="54.7" class="st1" width="51.7" height="51.7"/>
</g>
<g id="XMLID_23_">
	<defs>
		<path id="XMLID_6_" d="M70.3,36H41.9c-1.1,0-2,0.9-2,2c0,1.1,0.9,2,2,2h28.5c1.1,0,2-0.9,2-2C72.3,36.9,71.4,36,70.3,36z"/>
	</defs>
	<clipPath id="XMLID_19_">
		<use xlink:href="#XMLID_6_"  style="overflow:visible;"/>
	</clipPath>
	<rect id="XMLID_7_" x="21.1" y="17.3" class="st2" width="69.9" height="41.4"/>
</g>
<g id="XMLID_20_">
	<defs>
		<path id="XMLID_4_" d="M68.8,46.3H43.4c-1.1,0-2,0.9-2,2c0,1.1,0.9,2,2,2h25.4c1.1,0,2-0.9,2-2C70.8,47.2,69.9,46.3,68.8,46.3z"/>
	</defs>
	<clipPath id="XMLID_21_">
		<use xlink:href="#XMLID_4_"  style="overflow:visible;"/>
	</clipPath>
	<rect id="XMLID_5_" x="22.7" y="27.6" class="st3" width="66.8" height="41.4"/>
</g>
<g id="XMLID_15_">
	<defs>
		<path id="XMLID_16_" d="M81.1,56.6h-50l-5.6-27l61.1,0L81.1,56.6z M89.7,27.2c-0.8-0.9-1.9-1.5-3.1-1.5H24.7l-1.2-6.1
			c-0.3-1.3-1.1-2.3-2.3-2.8L12.5,13c-1-0.4-2.2,0-2.6,1c-0.4,1,0,2.2,1,2.6l8.7,3.8l9.6,46.7c0.4,1.8,2,3.2,3.9,3.2h47.6
			c1.1,0,2-0.9,2-2c0-1.1-0.9-2-2-2H33.1l-1.2-5.7h49.1c1.9,0,3.5-1.3,3.9-3.2l5.6-27C90.8,29.3,90.5,28.1,89.7,27.2z"/>
	</defs>
	<clipPath id="XMLID_22_">
		<use xlink:href="#XMLID_16_"  style="overflow:visible;"/>
	</clipPath>
	<rect id="XMLID_3_" x="-9" y="-5.9" class="st4" width="118.4" height="94.9"/>
</g>
</svg>
