<?xml version="1.0" encoding="utf-8"?>
<!-- Generator: Adobe Illustrator 19.0.0, SVG Export Plug-In . SVG Version: 6.00 Build 0)  -->
<svg version="1.1" id="Layer_1" xmlns="http://www.w3.org/2000/svg" xmlns:xlink="http://www.w3.org/1999/xlink" x="0px" y="0px"
	 viewBox="0 0 100 100" style="enable-background:new 0 0 100 100;" xml:space="preserve">
<style type="text/css">
	.st0{clip-path:url(#SVGID_2_);fill:#3D474E;}
	.st1{clip-path:url(#SVGID_4_);fill:#3D474E;}
	.st2{clip-path:url(#XMLID_15_);fill:#3D474E;}
	.st3{clip-path:url(#XMLID_16_);fill:#3D474E;}
	.st4{clip-path:url(#SVGID_6_);fill:#3D474E;}
</style>
<g>
	<defs>
		<path id="SVGID_1_" d="M43.4,84c-1.7,0-3.2-1.4-3.2-3.2c0-1.7,1.4-3.2,3.2-3.2c1.7,0,3.2,1.4,3.2,3.2C46.6,82.6,45.2,84,43.4,84z
			 M43.4,73.7c-3.9,0-7.1,3.2-7.1,7.1c0,3.9,3.2,7.1,7.1,7.1c3.9,0,7.1-3.2,7.1-7.1C50.6,77,47.4,73.7,43.4,73.7z"/>
	</defs>
	<clipPath id="SVGID_2_">
		<use xlink:href="#SVGID_1_"  style="overflow:visible;"/>
	</clipPath>
	<rect id="XMLID_13_" x="17.5" y="55" class="st0" width="51.9" height="51.9"/>
</g>
<g>
	<defs>
		<path id="SVGID_3_" d="M68.5,84c-1.7,0-3.2-1.4-3.2-3.2c0-1.7,1.4-3.2,3.2-3.2c1.7,0,3.2,1.4,3.2,3.2C71.6,82.6,70.2,84,68.5,84z
			 M68.5,73.7c-3.9,0-7.1,3.2-7.1,7.1c0,3.9,3.2,7.1,7.1,7.1c3.9,0,7.1-3.2,7.1-7.1C75.6,77,72.4,73.7,68.5,73.7z"/>
	</defs>
	<clipPath id="SVGID_4_">
		<use xlink:href="#SVGID_3_"  style="overflow:visible;"/>
	</clipPath>
	<rect id="XMLID_10_" x="42.5" y="55" class="st1" width="51.9" height="51.9"/>
</g>
<g>
	<defs>
		<path id="XMLID_6_" d="M70.2,36.1H41.7c-1.1,0-2,0.9-2,2c0,1.1,0.9,2,2,2h28.6c1.1,0,2-0.9,2-2C72.2,37,71.3,36.1,70.2,36.1z"/>
	</defs>
	<clipPath id="XMLID_15_">
		<use xlink:href="#XMLID_6_"  style="overflow:visible;"/>
	</clipPath>
	<rect id="XMLID_7_" x="20.9" y="17.3" class="st2" width="70.2" height="41.6"/>
</g>
<g>
	<defs>
		<path id="XMLID_4_" d="M68.7,46.5H43.2c-1.1,0-2,0.9-2,2c0,1.1,0.9,2,2,2h25.5c1.1,0,2-0.9,2-2C70.7,47.4,69.8,46.5,68.7,46.5z"/>
	</defs>
	<clipPath id="XMLID_16_">
		<use xlink:href="#XMLID_4_"  style="overflow:visible;"/>
	</clipPath>
	<rect id="XMLID_5_" x="22.4" y="27.7" class="st3" width="67.1" height="41.6"/>
</g>
<g>
	<defs>
		<path id="SVGID_5_" d="M81,56.8H30.9l-5.6-27.1l61.3,0L81,56.8z M89.7,27.3c-0.8-0.9-1.9-1.5-3.1-1.5H24.5l-1.3-6.1
			c-0.3-1.3-1.1-2.3-2.3-2.9L12.1,13c-1-0.4-2.2,0-2.6,1c-0.4,1,0,2.2,1,2.6l8.8,3.8L29,67.3c0.4,1.8,2,3.2,3.9,3.2h47.8
			c1.1,0,2-0.9,2-2c0-1.1-0.9-2-2-2H32.9l-1.2-5.7H81c1.9,0,3.5-1.3,3.9-3.2l5.6-27.1C90.7,29.4,90.4,28.2,89.7,27.3z"/>
	</defs>
	<clipPath id="SVGID_6_">
		<use xlink:href="#SVGID_5_"  style="overflow:visible;"/>
	</clipPath>
	<rect id="XMLID_3_" x="-9.4" y="-5.9" class="st4" width="118.8" height="95.2"/>
</g>
</svg>
