<?xml version="1.0" encoding="utf-8"?>
<!-- Generator: Adobe Illustrator 19.0.0, SVG Export Plug-In . SVG Version: 6.00 Build 0)  -->
<svg version="1.1" id="Layer_1" xmlns="http://www.w3.org/2000/svg" xmlns:xlink="http://www.w3.org/1999/xlink" x="0px" y="0px"
	 viewBox="0 0 100 100" style="enable-background:new 0 0 100 100;" xml:space="preserve">
<style type="text/css">
	.st0{fill:none;}
	.st1{fill:#FFFFFF;}
</style>
<g id="XMLID_1_">
	<path id="XMLID_25_" class="st0" d="M20.4,51.2c-2.8,0-5.1,2.3-5.1,5.1v29.9c0,2.8,2.3,5.1,5.1,5.1h59.2c2.8,0,5.1-2.3,5.1-5.1
		V56.3c0-2.8-2.3-5.1-5.1-5.1H20.4z M44,62.8c0-1.2,1-2.2,2.2-2.2h9.3c1.2,0,2.2,1,2.2,2.2s-1,2.2-2.2,2.2h-7.1v3.4h7.1
		c1.2,0,2.2,1,2.2,2.2c0,1.2-1,2.2-2.2,2.2h-7.1v3.4h7.1c1.2,0,2.2,1,2.2,2.2s-1,2.2-2.2,2.2h-9.3c-1.2,0-2.2-1-2.2-2.2V62.8z
		 M23.3,62.8c0-1,0.6-1.8,1.5-2.1c0.9-0.3,1.9,0,2.5,0.8l8.5,11.5V62.8c0-1.2,1-2.2,2.2-2.2c1.2,0,2.2,1,2.2,2.2v16.9
		c0,1-0.6,1.8-1.5,2.1c-0.2,0.1-0.5,0.1-0.7,0.1c-0.7,0-1.4-0.3-1.8-0.9l-8.5-11.5v8.9c0,1.2-1,2.2-2.2,2.2c-1.2,0-2.2-1-2.2-2.2
		V62.8z M17.8,53.6c0.4-0.4,1-0.7,1.6-0.7c0.6,0,1.2,0.2,1.6,0.7c0.4,0.4,0.7,1,0.7,1.6c0,0.6-0.2,1.2-0.7,1.6
		c-0.4,0.4-1,0.7-1.6,0.7c-0.6,0-1.2-0.2-1.6-0.7c-0.4-0.4-0.7-1-0.7-1.6C17.2,54.6,17.4,54,17.8,53.6z M79,53.6
		c0.4-0.4,1-0.7,1.6-0.7c0.6,0,1.2,0.2,1.6,0.7c0.4,0.4,0.7,1,0.7,1.6c0,0.6-0.2,1.2-0.7,1.6c-0.4,0.4-1,0.7-1.6,0.7
		c-0.6,0-1.2-0.2-1.6-0.7c-0.4-0.4-0.7-1-0.7-1.6C78.4,54.6,78.6,54,79,53.6z M70.8,67.2l1.4,2.5v-7c0-1.2,1-2.2,2.2-2.2
		s2.2,1,2.2,2.2v15.7c0,1-0.7,1.9-1.7,2.2c-0.2,0-0.4,0.1-0.6,0.1c-0.8,0-1.6-0.4-2-1.2l-3.7-6.7l-3.9,6.8c-0.5,0.9-1.5,1.3-2.5,1
		c-1-0.3-1.7-1.1-1.7-2.2V62.8c0-1.2,1-2.2,2.2-2.2c1.2,0,2.2,1,2.2,2.2v7.4l1.7-3c0.4-0.7,1.2-1.1,2-1.1
		C69.7,66,70.4,66.5,70.8,67.2z"/>
	<polygon id="XMLID_30_" class="st0" points="23.8,46.7 76.2,46.7 50,10.3 	"/>
	<path id="XMLID_31_" class="st1" d="M25.6,80.7c1.2,0,2.2-1,2.2-2.2v-8.9L36.3,81c0.4,0.6,1.1,0.9,1.8,0.9c0.2,0,0.5,0,0.7-0.1
		c0.9-0.3,1.5-1.2,1.5-2.1V62.8c0-1.2-1-2.2-2.2-2.2c-1.2,0-2.2,1-2.2,2.2v10.2l-8.5-11.5c-0.6-0.8-1.6-1.1-2.5-0.8
		c-0.9,0.3-1.5,1.2-1.5,2.1v15.7C23.3,79.7,24.3,80.7,25.6,80.7z"/>
	<path id="XMLID_32_" class="st1" d="M68.9,66c-0.8,0-1.6,0.4-2,1.1l-1.7,3v-7.4c0-1.2-1-2.2-2.2-2.2c-1.2,0-2.2,1-2.2,2.2v15.7
		c0,1,0.7,1.9,1.7,2.2c1,0.3,2-0.2,2.5-1l3.9-6.8l3.7,6.7c0.4,0.7,1.2,1.2,2,1.2c0.2,0,0.4,0,0.6-0.1c1-0.3,1.7-1.1,1.7-2.2V62.8
		c0-1.2-1-2.2-2.2-2.2s-2.2,1-2.2,2.2v7l-1.4-2.5C70.4,66.5,69.7,66,68.9,66z"/>
	<path id="XMLID_33_" class="st1" d="M46.2,80.7h9.3c1.2,0,2.2-1,2.2-2.2s-1-2.2-2.2-2.2h-7.1v-3.4h7.1c1.2,0,2.2-1,2.2-2.2
		c0-1.2-1-2.2-2.2-2.2h-7.1V65h7.1c1.2,0,2.2-1,2.2-2.2s-1-2.2-2.2-2.2h-9.3c-1.2,0-2.2,1-2.2,2.2v15.7C44,79.7,45,80.7,46.2,80.7z"
		/>
	<path id="XMLID_36_" class="st1" d="M50,4.2c-0.7,0-1.4,0.3-1.8,0.9L18,47c-4.2,1.1-7.3,4.8-7.3,9.3v29.9c0,5.3,4.3,9.6,9.6,9.6
		h59.2c5.3,0,9.6-4.3,9.6-9.6V56.3c0-4.5-3.1-8.3-7.3-9.3L51.8,5.1C51.4,4.6,50.7,4.2,50,4.2z M84.7,56.3v29.9
		c0,2.8-2.3,5.1-5.1,5.1H20.4c-2.8,0-5.1-2.3-5.1-5.1V56.3c0-2.8,2.3-5.1,5.1-5.1h59.2C82.4,51.2,84.7,53.5,84.7,56.3z M76.2,46.7
		H23.8L50,10.3L76.2,46.7z"/>
	<path id="XMLID_38_" class="st1" d="M19.4,57.4c0.6,0,1.2-0.2,1.6-0.7c0.4-0.4,0.7-1,0.7-1.6c0-0.6-0.2-1.2-0.7-1.6
		c-0.4-0.4-1-0.7-1.6-0.7c-0.6,0-1.2,0.2-1.6,0.7c-0.4,0.4-0.7,1-0.7,1.6c0,0.6,0.2,1.2,0.7,1.6C18.2,57.2,18.8,57.4,19.4,57.4z"/>
	<path id="XMLID_39_" class="st1" d="M80.6,57.4c0.6,0,1.2-0.2,1.6-0.7c0.4-0.4,0.7-1,0.7-1.6c0-0.6-0.2-1.2-0.7-1.6
		c-0.4-0.4-1-0.7-1.6-0.7c-0.6,0-1.2,0.2-1.6,0.7c-0.4,0.4-0.7,1-0.7,1.6c0,0.6,0.2,1.2,0.7,1.6C79.4,57.2,80,57.4,80.6,57.4z"/>
</g>
</svg>
