<?xml version="1.0" encoding="utf-8"?>
<!-- Generator: Adobe Illustrator 19.0.0, SVG Export Plug-In . SVG Version: 6.00 Build 0)  -->
<svg version="1.1" id="Layer_1" xmlns="http://www.w3.org/2000/svg" xmlns:xlink="http://www.w3.org/1999/xlink" x="0px" y="0px"
	 viewBox="0 0 100 100" style="enable-background:new 0 0 100 100;" xml:space="preserve">
<style type="text/css">
	.st0{fill:none;}
	.st1{fill:#FFFFFF;}
</style>
<g id="XMLID_1_">
	<path id="XMLID_2_" class="st0" d="M78.5,48C78.5,48,78.6,48,78.5,48c0.2-0.1,0.3-0.2,0.4-0.2c0,0,0.1,0,0.1-0.1
		c0.1-0.1,0.2-0.1,0.4-0.2c0,0,0.1,0,0.1,0c0.1-0.1,0.3-0.1,0.4-0.2c0,0,0.1,0,0.1,0c0.1,0,0.2-0.1,0.4-0.1c0,0,0.1,0,0.1,0
		c0.1,0,0.3-0.1,0.4-0.1c0,0,0,0,0,0c0.1,0,0.3-0.1,0.4-0.1l-3-3l-2,2L78.5,48C78.5,48,78.5,48,78.5,48z"/>
	<path id="XMLID_32_" class="st0" d="M10.4,10.4v27h3.9v5.3h-3.9v46.8h48.8V62.9V43.8v-1.1h-3.9v-5.3h3.9v-1.1L40.7,17.8l1.9-1.9
		c4.2-4.2,11.1-4.2,15.3,0l1.3,1.3v-6.8H10.4z M17.3,37.4h6.6v5.3h-6.6V37.4z M42.9,42.7h-6.6v-5.3h6.6V42.7z M17.8,56
		c0-4.4,3.5-7.9,7.9-7.9c4.4,0,7.9,3.5,7.9,7.9s-3.5,7.9-7.9,7.9S17.8,60.4,17.8,56z M33.4,42.7h-6.6v-5.3h6.6V42.7z M18.6,77.7
		l28.8-28.8l3.8,3.8L22.3,81.4L18.6,77.7z M44,82.2c-4.4,0-7.9-3.5-7.9-7.9c0-4.4,3.5-7.9,7.9-7.9c4.4,0,7.9,3.5,7.9,7.9
		C51.9,78.7,48.4,82.2,44,82.2z M52.4,37.4v5.3h-6.6v-5.3H52.4z"/>
	<path id="XMLID_47_" class="st0" d="M54.1,19.6c-1.5-1.5-3.6-1.9-5.4-1.4l18,18l2-2l-4.2-4.2L54.1,19.6z"/>
	<circle id="XMLID_48_" class="st0" cx="44" cy="74.3" r="2.6"/>
	<circle id="XMLID_49_" class="st0" cx="25.7" cy="56" r="2.6"/>
	<path id="XMLID_50_" class="st0" d="M66.8,43.8L64.6,46v4l4.2-4.2l2.8-2.8l9.8-9.8c-0.1,0-0.3-0.1-0.4-0.1c0,0-0.1,0-0.1,0
		c-0.1,0-0.2-0.1-0.4-0.1c0,0-0.1,0-0.1,0c-0.1,0-0.3-0.1-0.4-0.2c0,0,0,0,0,0c-0.1-0.1-0.3-0.1-0.4-0.2c0,0-0.1,0-0.1-0.1
		c-0.1-0.1-0.2-0.1-0.3-0.2c0,0-0.1,0-0.1-0.1c-0.1-0.1-0.3-0.1-0.4-0.2l-2.2,2.2L66.8,43.8z"/>
	<path id="XMLID_51_" class="st0" d="M87.9,53.4C87.9,53.4,87.9,53.4,87.9,53.4c-0.1-0.1-0.2-0.2-0.2-0.2c0,0,0,0-0.1-0.1
		c-0.1,0-0.1-0.1-0.2-0.1c0,0,0,0-0.1,0c-0.1,0-0.1-0.1-0.2-0.1c0,0,0,0,0,0c-0.1,0-0.1-0.1-0.2-0.1c0,0,0,0,0,0
		c-0.1,0-0.1-0.1-0.2-0.1c0,0,0,0,0,0c-0.1,0-0.2-0.1-0.2-0.1c0,0,0,0,0,0c-1-0.5-2.2-0.7-3.4-0.6c0,0,0,0,0,0c-0.1,0-0.2,0-0.3,0
		c0,0,0,0,0,0c-0.1,0-0.2,0-0.2,0.1c0,0,0,0,0,0c-0.1,0-0.1,0-0.2,0.1c0,0,0,0-0.1,0c-0.1,0-0.1,0-0.2,0.1c0,0-0.1,0-0.1,0
		c-0.1,0-0.1,0-0.2,0.1c0,0-0.1,0-0.1,0c0,0-0.1,0-0.1,0.1c-0.1,0-0.1,0.1-0.2,0.1c0,0,0,0-0.1,0c-0.1,0-0.1,0.1-0.2,0.1
		c0,0,0,0-0.1,0c-0.1,0-0.2,0.1-0.2,0.1c0,0,0,0,0,0c-0.1,0-0.1,0.1-0.2,0.1c0,0,0,0,0,0c-0.1,0.1-0.3,0.2-0.4,0.3c0,0,0,0,0,0
		c-0.1,0.1-0.1,0.1-0.2,0.2c-2.1,2.1-2.1,5.6,0,7.8c2.1,2.1,5.6,2.1,7.8,0C90.1,59.1,90.1,55.6,87.9,53.4z"/>
	<path id="XMLID_52_" class="st0" d="M80.1,26.7c1,1,2.4,1.6,3.9,1.6s2.9-0.6,3.9-1.6c2.1-2.1,2.1-5.6,0-7.8
		c-1.1-1.1-2.5-1.6-3.9-1.6s-2.8,0.5-3.9,1.6c-1,1-1.6,2.4-1.6,3.9C78.5,24.3,79.1,25.6,80.1,26.7L80.1,26.7z"/>
	<path id="XMLID_55_" class="st1" d="M5.1,94.9h59.5V57.6l8-8l2.2,2.2c-2.5,4.2-1.9,9.6,1.7,13.2c2.1,2.1,4.9,3.2,7.7,3.2
		c2.8,0,5.6-1.1,7.7-3.2c4.2-4.2,4.2-11.1,0-15.3l-9.6-9.6l9.6-9.6c0,0,0,0,0,0c4.2-4.2,4.2-11.1,0-15.3c-4.2-4.2-11.1-4.2-15.3,0
		c-2,2-3.2,4.8-3.2,7.7c0,2,0.5,3.9,1.5,5.6l-2.2,2.2l-8-8V5.1H5.1V94.9z M59.2,10.4v6.8l-1.3-1.3c-4.2-4.2-11.1-4.2-15.3,0
		l-1.9,1.9l18.6,18.6v1.1h-3.9v5.3h3.9v1.1v19.1v26.6H10.4V42.7h3.9v-5.3h-3.9v-27H59.2z M66.8,36.3l-18-18c1.9-0.5,4-0.1,5.4,1.4
		l10.4,10.4l4.2,4.2L66.8,36.3z M76.3,45.8l2-2l3,3c-0.1,0-0.3,0.1-0.4,0.1c0,0,0,0,0,0c-0.1,0-0.3,0.1-0.4,0.1c0,0-0.1,0-0.1,0
		c-0.1,0-0.2,0.1-0.4,0.1c0,0-0.1,0-0.1,0c-0.1,0.1-0.3,0.1-0.4,0.2c0,0-0.1,0-0.1,0c-0.1,0.1-0.2,0.1-0.4,0.2c0,0-0.1,0-0.1,0.1
		c-0.1,0.1-0.2,0.1-0.4,0.2c0,0,0,0-0.1,0c0,0,0,0,0,0L76.3,45.8z M87.9,61.2c-2.1,2.1-5.6,2.1-7.8,0c-2.1-2.1-2.1-5.6,0-7.8
		c0.1-0.1,0.1-0.1,0.2-0.2c0,0,0,0,0,0c0.1-0.1,0.3-0.2,0.4-0.3c0,0,0,0,0,0c0.1,0,0.1-0.1,0.2-0.1c0,0,0,0,0,0
		c0.1-0.1,0.2-0.1,0.2-0.1c0,0,0,0,0.1,0c0.1,0,0.1-0.1,0.2-0.1c0,0,0.1,0,0.1,0c0.1,0,0.1-0.1,0.2-0.1c0,0,0.1,0,0.1-0.1
		c0,0,0.1,0,0.1,0c0.1,0,0.1,0,0.2-0.1c0,0,0.1,0,0.1,0c0.1,0,0.1,0,0.2-0.1c0,0,0,0,0.1,0c0.1,0,0.1,0,0.2-0.1c0,0,0,0,0,0
		c0.1,0,0.2,0,0.2-0.1c0,0,0,0,0,0c0.1,0,0.2,0,0.3,0c0,0,0,0,0,0c1.1-0.2,2.3,0,3.4,0.6c0,0,0,0,0,0c0.1,0,0.2,0.1,0.2,0.1
		c0,0,0,0,0,0c0.1,0,0.1,0.1,0.2,0.1c0,0,0,0,0,0c0.1,0,0.1,0.1,0.2,0.1c0,0,0,0,0,0c0.1,0,0.1,0.1,0.2,0.1c0,0,0,0,0.1,0
		c0.1,0,0.1,0.1,0.2,0.1c0,0,0,0,0.1,0.1c0,0,0.1,0.1,0.1,0.1c0,0,0.1,0,0.1,0.1C90.1,55.6,90.1,59.1,87.9,61.2z M80.1,18.9
		c1.1-1.1,2.5-1.6,3.9-1.6s2.8,0.5,3.9,1.6c2.1,2.1,2.1,5.6,0,7.8c-1,1-2.4,1.6-3.9,1.6s-2.9-0.6-3.9-1.6l0,0c-1-1-1.6-2.4-1.6-3.9
		C78.5,21.3,79.1,19.9,80.1,18.9z M76.3,34.3l2.2-2.2c0.1,0.1,0.3,0.2,0.4,0.2c0,0,0.1,0,0.1,0.1c0.1,0.1,0.2,0.1,0.3,0.2
		c0,0,0.1,0,0.1,0.1c0.1,0.1,0.3,0.1,0.4,0.2c0,0,0,0,0,0c0.1,0.1,0.3,0.1,0.4,0.2c0,0,0.1,0,0.1,0c0.1,0,0.2,0.1,0.4,0.1
		c0,0,0.1,0,0.1,0c0.1,0,0.3,0.1,0.4,0.1l-9.8,9.8l-2.8,2.8l-4.2,4.2v-4l2.2-2.2L76.3,34.3z"/>
	<rect id="XMLID_61_" x="17.3" y="37.4" class="st1" width="6.6" height="5.3"/>
	<rect id="XMLID_62_" x="26.8" y="37.4" class="st1" width="6.6" height="5.3"/>
	<rect id="XMLID_63_" x="36.3" y="37.4" class="st1" width="6.6" height="5.3"/>
	<rect id="XMLID_64_" x="45.8" y="37.4" class="st1" width="6.6" height="5.3"/>
	<path id="XMLID_67_" class="st1" d="M33.6,56c0-4.4-3.5-7.9-7.9-7.9c-4.4,0-7.9,3.5-7.9,7.9s3.5,7.9,7.9,7.9S33.6,60.4,33.6,56z
		 M23.1,56c0-1.4,1.2-2.6,2.6-2.6c1.4,0,2.6,1.2,2.6,2.6c0,1.4-1.2,2.6-2.6,2.6C24.3,58.6,23.1,57.4,23.1,56z"/>
	<path id="XMLID_70_" class="st1" d="M44,66.4c-4.4,0-7.9,3.5-7.9,7.9c0,4.4,3.5,7.9,7.9,7.9c4.4,0,7.9-3.5,7.9-7.9
		C51.9,69.9,48.4,66.4,44,66.4z M44,76.9c-1.4,0-2.6-1.2-2.6-2.6c0-1.4,1.2-2.6,2.6-2.6c1.4,0,2.6,1.2,2.6,2.6
		C46.6,75.7,45.4,76.9,44,76.9z"/>
	
		<rect id="XMLID_71_" x="32.2" y="44.8" transform="matrix(0.7071 0.7071 -0.7071 0.7071 56.2776 -5.5565)" class="st1" width="5.3" height="40.7"/>
</g>
</svg>
