<?xml version="1.0" encoding="utf-8"?>
<!-- Generator: Adobe Illustrator 19.0.0, SVG Export Plug-In . SVG Version: 6.00 Build 0)  -->
<svg version="1.1" id="Layer_1" xmlns="http://www.w3.org/2000/svg" xmlns:xlink="http://www.w3.org/1999/xlink" x="0px" y="0px"
	 viewBox="0 0 100 100" style="enable-background:new 0 0 100 100;" xml:space="preserve">
<style type="text/css">
	.st0{fill:none;}
	.st1{fill:#FFFFFF;}
</style>
<g id="XMLID_1_">
	<path id="XMLID_17_" class="st0" d="M11,45.7c2,2.7,2,6.4,0.1,9.1l-1.6,2.3c-0.5,0.7-0.7,1.6-0.5,2.5c0.2,0.9,0.8,1.6,1.6,2L13,63
		c3,1.6,4.6,4.9,4,8.2L16.6,74c-0.2,0.9,0.1,1.8,0.7,2.5c0.6,0.7,1.4,1.1,2.3,1.2l2.8,0.1c3.4,0.2,6.2,2.4,7.2,5.6l0.8,2.7
		c0.4,1.3,1.6,2.2,3,2.2c0.4,0,0.8-0.1,1.2-0.2l2.6-1.1c1-0.4,2-0.6,3.1-0.6c2.2,0,4.4,1,5.8,2.6l1.9,2.1c0.6,0.7,1.4,1,2.3,1
		c0.9,0,1.8-0.4,2.4-1.1l1.9-2.1c1.5-1.7,3.6-2.7,5.9-2.7c1,0,2,0.2,3,0.6l2.6,1.1c0.4,0.2,0.8,0.2,1.2,0.2c1.4,0,2.6-0.9,3-2.3
		l0.7-2.7c0.9-3.2,3.7-5.5,7.1-5.7l2.8-0.2c0.9-0.1,1.7-0.5,2.3-1.2c0.6-0.7,0.8-1.6,0.6-2.5l-0.5-2.8c-0.6-3.3,1-6.6,3.9-8.2
		l2.5-1.4c0.8-0.4,1.3-1.2,1.5-2.1c0.2-0.9,0-1.8-0.5-2.5L89,54.3c-2-2.7-2-6.4-0.1-9.1l1.6-2.3c0.5-0.7,0.7-1.6,0.5-2.5
		c-0.2-0.9-0.8-1.6-1.6-2L87,36.9c-3-1.6-4.6-4.9-4-8.2l0.5-2.8c0.2-0.9-0.1-1.8-0.7-2.5c-0.6-0.7-1.4-1.1-2.3-1.2l-2.8-0.1
		c-3.4-0.2-6.2-2.4-7.2-5.6l-0.8-2.7c-0.4-1.3-1.6-2.2-3-2.2c-0.4,0-0.8,0.1-1.2,0.2L62.9,13c-1,0.4-2,0.6-3.1,0.6
		c-2.2,0-4.4-1-5.8-2.6L52,8.9c-0.6-0.7-1.4-1-2.3-1c-0.9,0-1.8,0.4-2.4,1.1L45.5,11c-1.5,1.7-3.6,2.7-5.9,2.7c-1,0-2-0.2-3-0.6
		L34,12.1c-0.4-0.2-0.8-0.2-1.2-0.2c-1.4,0-2.6,0.9-3,2.3L29,16.9c-0.9,3.2-3.7,5.5-7.1,5.7l-2.8,0.2c-0.9,0.1-1.7,0.5-2.3,1.2
		c-0.6,0.7-0.8,1.6-0.6,2.5l0.5,2.8c0.6,3.3-1,6.6-3.9,8.2l-2.5,1.4C9.6,39.3,9,40,8.8,40.9c-0.2,0.9,0,1.8,0.5,2.5L11,45.7z
		 M50,22.3c15.3,0,27.7,12.4,27.7,27.7c0,15.2-12.4,27.7-27.7,27.7S22.3,65.2,22.3,50C22.3,34.7,34.7,22.3,50,22.3z"/>
	<path id="XMLID_20_" class="st0" d="M50,73c12.7,0,23-10.3,23-23c0-12.7-10.3-23-23-23S27,37.3,27,50C27,62.7,37.3,73,50,73z
		 M39.9,49.2c0.9-0.9,2.4-0.9,3.3,0l3.3,3.4l10.3-10.2c0.9-0.9,2.4-0.9,3.3,0c0.9,0.9,0.9,2.4,0,3.3L48.2,57.6
		c-0.4,0.4-1,0.7-1.6,0.7c-0.6,0-1.2-0.2-1.7-0.7l-5-5C38.9,51.6,38.9,50.2,39.9,49.2z"/>
	<path id="XMLID_23_" class="st1" d="M50,77.7c15.3,0,27.7-12.4,27.7-27.7c0-15.3-12.4-27.7-27.7-27.7S22.3,34.7,22.3,50
		C22.3,65.2,34.7,77.7,50,77.7z M50,27c12.7,0,23,10.3,23,23c0,12.7-10.3,23-23,23c-12.7,0-23-10.3-23-23C27,37.3,37.3,27,50,27z"/>
	<path id="XMLID_26_" class="st1" d="M4.3,39.9c-0.5,2.2,0,4.5,1.3,6.3l1.7,2.3c0.8,1.1,0.8,2.6,0,3.6l-1.6,2.3
		c-1.3,1.8-1.7,4.1-1.2,6.3c0.5,2.2,1.9,4,3.9,5.1l2.5,1.3c1.2,0.6,1.8,1.9,1.6,3.3L12,73.3c-0.4,2.2,0.2,4.5,1.6,6.2
		c1.4,1.7,3.5,2.8,5.7,2.9l2.8,0.1c1.3,0.1,2.5,1,2.9,2.2l0.8,2.7c1,3.3,4,5.6,7.5,5.6c1.1,0,2.1-0.2,3.1-0.6l2.6-1.1
		c1.2-0.5,2.7-0.2,3.5,0.8l1.9,2.1c1.5,1.6,3.6,2.6,5.8,2.6c2.3,0,4.4-1,5.9-2.7L58,92c0.9-1,2.3-1.3,3.5-0.8l2.6,1.1
		c1,0.4,2,0.6,3,0.6c3.5,0,6.6-2.4,7.5-5.8l0.7-2.7c0.3-1.3,1.5-2.2,2.8-2.3l2.8-0.2c2.2-0.1,4.3-1.2,5.7-3c1.4-1.8,1.9-4,1.5-6.2
		l-0.5-2.8c-0.2-1.3,0.4-2.6,1.6-3.3l2.5-1.4c2-1.1,3.4-3,3.8-5.2c0.5-2.2,0-4.5-1.3-6.3l-1.7-2.3c-0.8-1.1-0.8-2.6,0-3.6l1.6-2.3
		c1.3-1.8,1.7-4.1,1.2-6.3c-0.5-2.2-1.9-4-3.9-5.1l-2.5-1.3c-1.2-0.6-1.8-1.9-1.6-3.3l0.5-2.8c0.4-2.2-0.2-4.5-1.6-6.2
		c-1.4-1.7-3.5-2.8-5.7-2.9l-2.8-0.1c-1.3-0.1-2.5-1-2.9-2.2l-0.8-2.7c-1-3.3-4-5.6-7.5-5.6c-1.1,0-2.1,0.2-3.1,0.6l-2.6,1.1
		c-1.2,0.5-2.7,0.2-3.5-0.8l-1.9-2.1c-1.5-1.6-3.6-2.6-5.8-2.6c-2.3,0-4.4,1-5.9,2.7L41.9,8c-0.9,1-2.3,1.3-3.5,0.8l-2.6-1.1
		c-1-0.4-2-0.6-3-0.6c-3.5,0-6.6,2.4-7.5,5.8l-0.7,2.7c-0.3,1.3-1.5,2.2-2.8,2.3l-2.8,0.2c-2.2,0.1-4.3,1.2-5.7,3
		c-1.4,1.8-1.9,4-1.5,6.2l0.5,2.8c0.2,1.3-0.4,2.6-1.6,3.3l-2.5,1.4C6.1,35.9,4.7,37.7,4.3,39.9z M8.8,40.9c0.2-0.9,0.7-1.6,1.5-2.1
		l2.5-1.4c2.9-1.6,4.5-4.9,3.9-8.2l-0.5-2.8c-0.2-0.9,0.1-1.8,0.6-2.5c0.6-0.7,1.4-1.1,2.3-1.2l2.8-0.2c3.4-0.2,6.2-2.5,7.1-5.7
		l0.7-2.7c0.4-1.4,1.6-2.3,3-2.3c0.4,0,0.8,0.1,1.2,0.2l2.6,1.1c1,0.4,2,0.6,3,0.6c2.3,0,4.4-1,5.9-2.7l1.9-2.1
		c0.6-0.7,1.4-1.1,2.4-1.1c0.9,0,1.7,0.4,2.3,1l1.9,2.1c1.5,1.6,3.6,2.6,5.8,2.6c1.1,0,2.1-0.2,3.1-0.6l2.6-1.1
		c0.4-0.2,0.8-0.2,1.2-0.2c1.4,0,2.6,0.9,3,2.2l0.8,2.7c0.9,3.2,3.8,5.5,7.2,5.6l2.8,0.1c0.9,0,1.7,0.4,2.3,1.2
		c0.6,0.7,0.8,1.6,0.7,2.5L83,28.7c-0.6,3.3,1.1,6.6,4,8.2l2.5,1.3c0.8,0.4,1.4,1.2,1.6,2c0.2,0.9,0,1.8-0.5,2.5l-1.6,2.3
		C87,47.9,87,51.5,89,54.3l1.7,2.3c0.5,0.7,0.7,1.6,0.5,2.5c-0.2,0.9-0.7,1.6-1.5,2.1l-2.5,1.4c-2.9,1.6-4.5,4.9-3.9,8.2l0.5,2.8
		c0.2,0.9-0.1,1.8-0.6,2.5c-0.6,0.7-1.4,1.1-2.3,1.2L78,77.4c-3.4,0.2-6.2,2.5-7.1,5.7l-0.7,2.7c-0.4,1.4-1.6,2.3-3,2.3
		c-0.4,0-0.8-0.1-1.2-0.2l-2.6-1.1c-1-0.4-2-0.6-3-0.6c-2.3,0-4.4,1-5.9,2.7l-1.9,2.1c-0.6,0.7-1.4,1.1-2.4,1.1
		c-0.9,0-1.7-0.4-2.3-1L46.1,89c-1.5-1.6-3.6-2.6-5.8-2.6c-1.1,0-2.1,0.2-3.1,0.6l-2.6,1.1c-0.4,0.2-0.8,0.2-1.2,0.2
		c-1.4,0-2.6-0.9-3-2.2l-0.8-2.7c-0.9-3.2-3.8-5.5-7.2-5.6l-2.8-0.1c-0.9,0-1.7-0.4-2.3-1.2c-0.6-0.7-0.8-1.6-0.7-2.5l0.5-2.8
		c0.6-3.3-1.1-6.6-4-8.2l-2.5-1.3c-0.8-0.4-1.4-1.2-1.6-2c-0.2-0.9,0-1.8,0.5-2.5l1.6-2.3c1.9-2.7,1.9-6.4-0.1-9.1l-1.7-2.3
		C8.8,42.7,8.6,41.8,8.8,40.9z"/>
	<path id="XMLID_27_" class="st1" d="M44.9,57.6c0.4,0.4,1,0.7,1.7,0.7c0.6,0,1.2-0.2,1.6-0.7l11.9-11.9c0.9-0.9,0.9-2.4,0-3.3
		c-0.9-0.9-2.4-0.9-3.3,0L46.5,52.6l-3.3-3.4c-0.9-0.9-2.4-0.9-3.3,0c-0.9,0.9-0.9,2.4,0,3.3L44.9,57.6z"/>
</g>
</svg>
