<?xml version="1.0" encoding="utf-8"?>
<!-- Generator: Adobe Illustrator 19.0.0, SVG Export Plug-In . SVG Version: 6.00 Build 0)  -->
<svg version="1.1" id="Layer_1" xmlns="http://www.w3.org/2000/svg" xmlns:xlink="http://www.w3.org/1999/xlink" x="0px" y="0px"
	 viewBox="0 0 100 100" style="enable-background:new 0 0 100 100;" xml:space="preserve">
<style type="text/css">
	.st0{fill:none;}
	.st1{fill:#FFFFFF;}
</style>
<g id="XMLID_1_">
	<polygon id="XMLID_2_" class="st0" points="45.7,64.9 54.3,64.9 50,52.9 	"/>
	<path id="XMLID_18_" class="st0" d="M18.4,81.7c0,5.2,4.3,9.5,9.5,9.5h53.8V32.9H27.8c-3.6,0-6.9-1.3-9.5-3.5V81.7z M47.6,44.2
		c0,0,0-0.1,0.1-0.1c0,0,0-0.1,0.1-0.1c0,0,0.1-0.1,0.1-0.1c0,0,0-0.1,0.1-0.1c0,0,0.1-0.1,0.1-0.1c0,0,0.1-0.1,0.1-0.1
		c0,0,0.1-0.1,0.1-0.1c0,0,0.1-0.1,0.1-0.1c0,0,0.1-0.1,0.1-0.1c0,0,0.1-0.1,0.1-0.1c0,0,0.1,0,0.1-0.1c0.1,0,0.1-0.1,0.1-0.1
		c0,0,0.1,0,0.1-0.1c0,0,0.1,0,0.1-0.1c0.1,0,0.2-0.1,0.2-0.1h0c0.1,0,0.1,0,0.2-0.1c0,0,0.1,0,0.1,0c0.1,0,0.1,0,0.2,0
		c0,0,0.1,0,0.1,0c0,0,0.1,0,0.1,0c0.1,0,0.1,0,0.1,0c0,0,0.1,0,0.1,0c0,0,0.1,0,0.1,0c0,0,0.1,0,0.1,0c0.1,0,0.1,0,0.2,0
		c0,0,0.1,0,0.1,0c0.1,0,0.2,0,0.2,0.1h0c0.1,0,0.2,0.1,0.2,0.1c0,0,0.1,0,0.1,0.1c0,0,0.1,0,0.1,0.1c0,0,0.1,0.1,0.1,0.1
		c0,0,0.1,0,0.1,0.1c0,0,0.1,0.1,0.1,0.1c0,0,0.1,0.1,0.1,0.1c0,0,0.1,0.1,0.1,0.1c0,0,0.1,0.1,0.1,0.1c0,0,0.1,0.1,0.1,0.1
		c0,0,0.1,0.1,0.1,0.1c0,0,0,0.1,0.1,0.1c0,0.1,0.1,0.1,0.1,0.1s0,0.1,0.1,0.1s0,0.1,0.1,0.1c0,0.1,0.1,0.2,0.1,0.2l11.5,32.4
		c0.5,1.3-0.2,2.8-1.5,3.2c-0.3,0.1-0.6,0.2-0.9,0.2c-1,0-2-0.6-2.4-1.7l-3.1-8.6c-0.1,0-0.2,0-0.3,0H43.9l-3.1,8.6
		c-0.4,1-1.3,1.7-2.4,1.7c-0.3,0-0.6-0.1-0.9-0.2c-1.3-0.5-2-1.9-1.6-3.3l11.6-32.4C47.6,44.4,47.6,44.3,47.6,44.2z"/>
	<path id="XMLID_21_" class="st1" d="M84.2,3.8H27.8c-8,0-14.5,6.5-14.5,14.5v63.4c0,8,6.5,14.5,14.5,14.5h56.3
		c1.4,0,2.5-1.1,2.5-2.5V30.3c0-1.4-1.1-2.5-2.6-2.5H27.8c-5.2,0-9.5-4.2-9.5-9.5c0-5.2,4.2-9.5,9.5-9.5h56.3c1.4,0,2.5-1.1,2.5-2.5
		C86.7,4.9,85.6,3.8,84.2,3.8z M27.8,32.9h53.8v58.3H27.8c-5.2,0-9.5-4.2-9.5-9.5V29.4C20.9,31.6,24.2,32.9,27.8,32.9z"/>
	<path id="XMLID_22_" class="st1" d="M28.6,16c-1.4,0-2.5,1.1-2.5,2.5c0,1.4,1.1,2.5,2.5,2.5h47.6c1.4,0,2.5-1.1,2.5-2.5
		c0-1.4-1.1-2.5-2.5-2.5H28.6z"/>
	<path id="XMLID_25_" class="st1" d="M36,76.8c-0.4,1.3,0.3,2.8,1.6,3.3c0.3,0.1,0.6,0.2,0.9,0.2c1,0,2-0.6,2.4-1.7l3.1-8.6h11.9
		c0.1,0,0.2,0,0.3,0l3.1,8.6c0.4,1,1.4,1.7,2.4,1.7c0.3,0,0.6-0.1,0.9-0.2c1.3-0.5,2-1.9,1.5-3.2L52.4,44.5c0-0.1-0.1-0.2-0.1-0.2
		c0,0,0-0.1-0.1-0.1s0-0.1-0.1-0.1s-0.1-0.1-0.1-0.1c0,0,0-0.1-0.1-0.1c0,0-0.1-0.1-0.1-0.1c0,0,0-0.1-0.1-0.1c0,0-0.1-0.1-0.1-0.1
		c0,0-0.1-0.1-0.1-0.1c0,0-0.1,0-0.1-0.1c0,0-0.1-0.1-0.1-0.1c0,0-0.1,0-0.1-0.1c0,0-0.1-0.1-0.1-0.1c0,0-0.1,0-0.1-0.1
		c0,0-0.1,0-0.1-0.1c-0.1,0-0.2-0.1-0.2-0.1h0c-0.1,0-0.2,0-0.2-0.1c0,0-0.1,0-0.1,0c-0.1,0-0.1,0-0.2,0c0,0-0.1,0-0.1,0
		c0,0-0.1,0-0.1,0c0,0-0.1,0-0.1,0c0,0-0.1,0-0.1,0c0,0-0.1,0-0.1,0c0,0-0.1,0-0.1,0c-0.1,0-0.1,0-0.2,0c0,0-0.1,0-0.1,0
		c-0.1,0-0.2,0-0.2,0.1h0C49,42.9,49,43,48.9,43c0,0-0.1,0-0.1,0.1c0,0-0.1,0-0.1,0.1c0,0-0.1,0.1-0.1,0.1c0,0-0.1,0-0.1,0.1
		c0,0-0.1,0.1-0.1,0.1c0,0-0.1,0-0.1,0.1c0,0-0.1,0.1-0.1,0.1c0,0-0.1,0.1-0.1,0.1c0,0,0,0.1-0.1,0.1c0,0-0.1,0.1-0.1,0.1
		c0,0,0,0.1-0.1,0.1c0,0-0.1,0.1-0.1,0.1c0,0,0,0.1-0.1,0.1c0,0,0,0.1-0.1,0.1c0,0.1-0.1,0.2-0.1,0.2L36,76.8z M45.7,64.9l4.3-12
		l4.3,12H45.7z"/>
</g>
</svg>
