<?xml version="1.0" encoding="utf-8"?>
<!-- Generator: Adobe Illustrator 19.0.0, SVG Export Plug-In . SVG Version: 6.00 Build 0)  -->
<svg version="1.1" id="Layer_1" xmlns="http://www.w3.org/2000/svg" xmlns:xlink="http://www.w3.org/1999/xlink" x="0px" y="0px"
	 viewBox="0 0 100 100" style="enable-background:new 0 0 100 100;" xml:space="preserve">
<style type="text/css">
	.st0{fill:none;}
	.st1{fill:#FFFFFF;}
</style>
<g id="XMLID_1_">
	<polygon id="XMLID_2_" class="st0" points="89.2,49.9 76.4,42.7 50,57.8 23.6,42.7 10.8,49.9 50,72.3 	"/>
	<polygon id="XMLID_5_" class="st0" points="50,90.7 89.2,68.3 76.4,61.1 50,76.2 23.6,61.1 10.8,68.3 	"/>
	<polygon id="XMLID_6_" class="st0" points="89.2,31.5 50,9.3 10.8,31.5 50,53.9 	"/>
	<path id="XMLID_14_" class="st1" d="M50,94.6l46-26.3l-16.2-9.2L96,49.9l-16.2-9.2L96,31.5L50,5.4L4,31.5l16.2,9.2L4,49.9l16.2,9.2
		L4,68.3L50,94.6z M10.8,31.5L50,9.3l39.2,22.3L50,53.9L10.8,31.5z M10.8,49.9l12.8-7.3L50,57.8l26.4-15.1l12.8,7.3L50,72.3
		L10.8,49.9z M23.6,61.1L50,76.2l26.4-15.1l12.8,7.3L50,90.7L10.8,68.3L23.6,61.1z"/>
</g>
</svg>
