<?xml version="1.0" encoding="utf-8"?>
<!-- Generator: Adobe Illustrator 19.0.0, SVG Export Plug-In . SVG Version: 6.00 Build 0)  -->
<svg version="1.1" id="Layer_1" xmlns="http://www.w3.org/2000/svg" xmlns:xlink="http://www.w3.org/1999/xlink" x="0px" y="0px"
	 viewBox="0 0 100 100" style="enable-background:new 0 0 100 100;" xml:space="preserve">
<style type="text/css">
	.st0{clip-path:url(#XMLID_5_);}
	.st1{clip-path:url(#XMLID_7_);fill:none;stroke:#798995;stroke-width:2;stroke-miterlimit:10;}
	.st2{clip-path:url(#XMLID_12_);}
	.st3{clip-path:url(#XMLID_17_);fill:#798995;}
	.st4{fill:none;stroke:#798995;stroke-linecap:square;stroke-miterlimit:10;}
</style>
<g id="XMLID_1_">
	<defs>
		<path id="XMLID_13_" d="M11.8,30.9c0-2.8,2.3-5.1,5.1-5.1h66.6c2.8,0,5.1,2.3,5.1,5.1v35.8c0,2.8-2.3,5.1-5.1,5.1H16.8
			c-2.8,0-5.1-2.3-5.1-5.1V30.9z"/>
	</defs>
	<clipPath id="XMLID_5_">
		<use xlink:href="#XMLID_13_"  style="overflow:visible;"/>
	</clipPath>
	<g id="XMLID_14_" class="st0">
		<defs>
			<rect id="XMLID_15_" x="-2040" y="-12916.9" width="3581.7" height="14608.1"/>
		</defs>
		<clipPath id="XMLID_7_">
			<use xlink:href="#XMLID_15_"  style="overflow:visible;"/>
		</clipPath>
		<path id="XMLID_16_" class="st1" d="M11.8,30.9c0-2.8,2.3-5.1,5.1-5.1h66.6c2.8,0,5.1,2.3,5.1,5.1v35.8c0,2.8-2.3,5.1-5.1,5.1
			H16.8c-2.8,0-5.1-2.3-5.1-5.1V30.9z"/>
	</g>
</g>
<g id="XMLID_2_">
	<defs>
		<path id="XMLID_8_" d="M27.1,41.1c0-1.4,1.1-2.6,2.6-2.6h7.7c1.4,0,2.6,1.1,2.6,2.6v2.6c0,1.4-1.1,2.6-2.6,2.6h-7.7
			c-1.4,0-2.6-1.1-2.6-2.6V41.1z"/>
	</defs>
	<clipPath id="XMLID_12_">
		<use xlink:href="#XMLID_8_"  style="overflow:visible;"/>
	</clipPath>
	<g id="XMLID_9_" class="st2">
		<defs>
			<rect id="XMLID_10_" x="-2040" y="-12916.9" width="3581.7" height="14608.1"/>
		</defs>
		<clipPath id="XMLID_17_">
			<use xlink:href="#XMLID_10_"  style="overflow:visible;"/>
		</clipPath>
		<rect id="XMLID_11_" x="14.3" y="25.8" class="st3" width="38.4" height="33.3"/>
	</g>
</g>
<g id="XMLID_3_">
	<line id="XMLID_6_" class="st4" x1="27.1" y1="57.7" x2="73.2" y2="57.7"/>
</g>
</svg>
