<?xml version="1.0" encoding="utf-8"?>
<!-- Generator: Adobe Illustrator 19.0.0, SVG Export Plug-In . SVG Version: 6.00 Build 0)  -->
<svg version="1.1" id="Layer_1" xmlns="http://www.w3.org/2000/svg" xmlns:xlink="http://www.w3.org/1999/xlink" x="0px" y="0px"
	 viewBox="0 0 100 100" style="enable-background:new 0 0 100 100;" xml:space="preserve">
<style type="text/css">
	.st0{clip-path:url(#SVGID_2_);}
	.st1{clip-path:url(#SVGID_4_);fill:#1E211E;}
	.st2{clip-path:url(#XMLID_8_);}
	.st3{clip-path:url(#XMLID_9_);fill:#FFFFFF;}
	.st4{clip-path:url(#XMLID_11_);fill:none;stroke:#9B9B9B;stroke-miterlimit:10;}
</style>
<g>
	<defs>
		<path id="SVGID_1_" d="M-524.1-1070.5c0.2-0.2,0.6-0.2,0.8,0c0.2,0.2,0.2,0.6,0,0.8l-4.2,4.2h13.9c0.3,0,0.6,0.3,0.6,0.6
			c0,0.3-0.3,0.6-0.6,0.6h-13.9l4.2,4.2c0.2,0.2,0.2,0.6,0,0.8c-0.2,0.2-0.6,0.2-0.8,0l-5.2-5.2c-0.2-0.2-0.2-0.6,0-0.8
			L-524.1-1070.5z"/>
	</defs>
	<clipPath id="SVGID_2_">
		<use xlink:href="#SVGID_1_"  style="overflow:visible;"/>
	</clipPath>
	<g class="st0">
		<defs>
			<rect id="SVGID_3_" x="-645" y="-1288" width="1400" height="2712"/>
		</defs>
		<clipPath id="SVGID_4_">
			<use xlink:href="#SVGID_3_"  style="overflow:visible;"/>
		</clipPath>
		<rect x="-534.5" y="-1075.6" class="st1" width="26.4" height="21.6"/>
	</g>
</g>
<g id="XMLID_10_">
	<defs>
		<circle id="XMLID_3_" cx="50" cy="50" r="37.1"/>
	</defs>
	<clipPath id="XMLID_8_">
		<use xlink:href="#XMLID_3_"  style="overflow:visible;"/>
	</clipPath>
	<g id="XMLID_12_" class="st2">
		<defs>
			<rect id="XMLID_4_" x="7.2" y="7.2" width="85.7" height="85.7"/>
		</defs>
		<clipPath id="XMLID_9_">
			<use xlink:href="#XMLID_4_"  style="overflow:visible;"/>
		</clipPath>
		<rect id="XMLID_5_" x="-15.7" y="-15.7" class="st3" width="131.4" height="131.4"/>
	</g>
</g>
<g id="XMLID_7_">
	<defs>
		<rect id="XMLID_1_" x="7.2" y="7.2" width="85.7" height="85.7"/>
	</defs>
	<clipPath id="XMLID_11_">
		<use xlink:href="#XMLID_1_"  style="overflow:visible;"/>
	</clipPath>
	<circle id="XMLID_2_" class="st4" cx="50" cy="50" r="37.1"/>
</g>
</svg>
