<?xml version="1.0" encoding="utf-8"?>
<!-- Generator: Adobe Illustrator 19.0.0, SVG Export Plug-In . SVG Version: 6.00 Build 0)  -->
<svg version="1.1" id="Layer_1" xmlns="http://www.w3.org/2000/svg" xmlns:xlink="http://www.w3.org/1999/xlink" x="0px" y="0px"
	 viewBox="0 0 100 100" style="enable-background:new 0 0 100 100;" xml:space="preserve">
<style type="text/css">
	.st0{fill:none;}
	.st1{fill:#010101;}
</style>
<g id="XMLID_1_">
	<path id="XMLID_2_" class="st0" d="M64.3,69.7c1.5,1.5,3.9,1.5,5.4,0c1.5-1.5,1.5-3.9,0-5.4L55.4,50L69,36.4c1.5-1.5,1.5-3.9,0-5.4
		c-1.5-1.5-3.9-1.5-5.4,0L50,44.6L35.7,30.3c-1.5-1.5-3.9-1.5-5.4,0c-1.5,1.5-1.5,3.9,0,5.4L44.6,50l-15,15c-1.5,1.5-1.5,3.9,0,5.4
		c1.5,1.5,3.9,1.5,5.4,0l15-15L64.3,69.7z"/>
	<path id="XMLID_10_" class="st1" d="M85.4,85.4c19.5-19.5,19.5-51.2,0-70.7s-51.2-19.5-70.7,0s-19.5,51.2,0,70.7
		S65.9,104.9,85.4,85.4z M29.6,70.4c-1.5-1.5-1.5-3.9,0-5.4l15-15L30.3,35.7c-1.5-1.5-1.5-3.9,0-5.4c1.5-1.5,3.9-1.5,5.4,0L50,44.6
		L63.6,31c1.5-1.5,3.9-1.5,5.4,0c1.5,1.5,1.5,3.9,0,5.4L55.4,50l14.3,14.3c1.5,1.5,1.5,3.9,0,5.4c-1.5,1.5-3.9,1.5-5.4,0L50,55.4
		l-15,15C33.5,71.9,31.1,71.9,29.6,70.4z"/>
</g>
</svg>
