<?xml version="1.0" encoding="utf-8"?>
<!-- Generator: Adobe Illustrator 19.0.0, SVG Export Plug-In . SVG Version: 6.00 Build 0)  -->
<svg version="1.1" id="Layer_1" xmlns="http://www.w3.org/2000/svg" xmlns:xlink="http://www.w3.org/1999/xlink" x="0px" y="0px"
	 viewBox="0 0 100 100" style="enable-background:new 0 0 100 100;" xml:space="preserve">
<style type="text/css">
	.st0{fill:#E03426;}
</style>
<g id="XMLID_1_">
	<path id="XMLID_2_" class="st0" d="M50,100c13,0,25.3-5,34.6-14c0.8-0.8,0.8-2.1,0.1-2.9c-0.8-0.8-2.1-0.8-2.9-0.1
		C73.2,91.4,61.9,95.9,50,95.9C24.7,95.9,4.1,75.3,4.1,50C4.1,24.7,24.7,4.1,50,4.1c25.3,0,45.9,20.6,45.9,45.9
		c0,5.7-1,11.3-3.1,16.6c-0.4,1,0.1,2.2,1.2,2.6c1,0.4,2.2-0.1,2.6-1.2c2.2-5.7,3.4-11.8,3.4-18c0-27.6-22.4-50-50-50S0,22.4,0,50
		C0,77.6,22.4,100,50,100z"/>
	<path id="XMLID_15_" class="st0" d="M71.4,73.5c0.5,0,1.1-0.2,1.5-0.6c0.8-0.8,0.8-2.1,0-2.9l-16-15.7c-0.8-0.8-2.1-0.8-2.9,0
		c-0.8,0.8-0.8,2.1,0,2.9l16,15.7C70.4,73.3,70.9,73.5,71.4,73.5z"/>
	<path id="XMLID_16_" class="st0" d="M27.1,27.1c-0.8,0.8-0.8,2.1,0,2.9l15.3,15.3c0.4,0.4,0.9,0.6,1.4,0.6s1-0.2,1.4-0.6
		c0.8-0.8,0.8-2.1,0-2.9L30,27.1C29.2,26.3,27.9,26.3,27.1,27.1z"/>
	<path id="XMLID_17_" class="st0" d="M72.9,27.1c-0.8-0.8-2.1-0.8-2.9,0L27.1,70c-0.8,0.8-0.8,2.1,0,2.9c0.4,0.4,0.9,0.6,1.4,0.6
		c0.5,0,1-0.2,1.4-0.6L72.9,30C73.7,29.2,73.7,27.9,72.9,27.1z"/>
</g>
</svg>
