<?xml version="1.0" encoding="utf-8"?>
<!-- Generator: Adobe Illustrator 19.0.0, SVG Export Plug-In . SVG Version: 6.00 Build 0)  -->
<svg version="1.1" id="Layer_1" xmlns="http://www.w3.org/2000/svg" xmlns:xlink="http://www.w3.org/1999/xlink" x="0px" y="0px"
	 viewBox="0 0 100 100" style="enable-background:new 0 0 100 100;" xml:space="preserve">
<style type="text/css">
	.st0{clip-path:url(#XMLID_24_);fill:#E03626;}
	.st1{clip-path:url(#XMLID_25_);fill:#E03626;}
	.st2{clip-path:url(#XMLID_26_);fill:#E03626;}
	.st3{clip-path:url(#XMLID_27_);fill:#3D474E;}
	.st4{clip-path:url(#XMLID_28_);fill:#E03626;}
</style>
<g id="XMLID_1_">
	<g id="XMLID_18_">
		<defs>
			<path id="XMLID_19_" d="M32.4,74.1c-2,0-3.6-1.6-3.6-3.6c0-2,1.6-3.6,3.6-3.6c2,0,3.6,1.6,3.6,3.6C36,72.5,34.4,74.1,32.4,74.1z
				 M32.4,62.3c-4.6,0-8.3,3.7-8.3,8.3c0,4.6,3.7,8.3,8.3,8.3c4.6,0,8.3-3.7,8.3-8.3C40.6,66,36.9,62.3,32.4,62.3z"/>
		</defs>
		<clipPath id="XMLID_24_">
			<use xlink:href="#XMLID_19_"  style="overflow:visible;"/>
		</clipPath>
		<rect id="XMLID_22_" x="14.4" y="52.6" class="st0" width="35.9" height="35.9"/>
	</g>
	<g id="XMLID_13_">
		<defs>
			<path id="XMLID_14_" d="M75.9,74.1c-2,0-3.6-1.6-3.6-3.6c0-2,1.6-3.6,3.6-3.6c2,0,3.6,1.6,3.6,3.6C79.5,72.5,77.9,74.1,75.9,74.1
				z M75.9,62.3c-4.6,0-8.3,3.7-8.3,8.3c0,4.6,3.7,8.3,8.3,8.3c4.6,0,8.3-3.7,8.3-8.3C84.2,66,80.5,62.3,75.9,62.3z"/>
		</defs>
		<clipPath id="XMLID_25_">
			<use xlink:href="#XMLID_14_"  style="overflow:visible;"/>
		</clipPath>
		<rect id="XMLID_17_" x="58" y="52.6" class="st1" width="35.9" height="35.9"/>
	</g>
	<g id="XMLID_10_">
		<defs>
			<path id="XMLID_11_" d="M41.7,36.9c0,1.2-0.9,2.1-2.1,2.1h-29c-1.2,0-2.1-0.9-2.1-2.1v-1.3c0-1.2,0.9-2.1,2.1-2.1h29
				c1.2,0,2.1,0.9,2.1,2.1V36.9z"/>
		</defs>
		<clipPath id="XMLID_26_">
			<use xlink:href="#XMLID_11_"  style="overflow:visible;"/>
		</clipPath>
		<rect id="XMLID_12_" x="-1.3" y="23.9" class="st2" width="52.6" height="24.8"/>
	</g>
	<g id="XMLID_5_">
		<defs>
			<path id="XMLID_6_" d="M83.2,48.8c0,0-10,0-13.4,0c-0.6,0-0.6-0.5-0.6-0.5V37.1c0,0,0-0.4,0.7-0.4c1,0,3.8,0,3.8,0
				c2.3,0,5.1,1.7,6.1,3.7l3.5,7.2c0.1,0.3,0.3,0.5,0.5,0.8C83.9,48.5,83.7,48.8,83.2,48.8z M92.1,49.2c-3-0.8-4.8-1.3-6-3.6l-4-8.1
				c-1.2-2.3-4.3-4.2-6.9-4.2h-5.4c0,0-0.7,0-0.7-0.7c0-1.7,0-6.8,0-6.8c0-2.6-1.5-4.8-4.6-4.8H20.2c-4.5,0-6.7,2.1-6.7,4.8v4.2
				c0,0,0,1.3,1.2,1.3c6.2,0,24.8,0,24.8,0c2.3,0,4.2,1.9,4.2,4.2v1.3c0,2.3-1.9,4.2-4.2,4.2H14.7c0,0-1.2-0.1-1.2,1.2
				c0,0.7,0,1.1,0,1.5c0,1.2,1.6,1.2,1.6,1.2h16.7c2.3,0,4.2,1.9,4.2,4.2v1.3c0,2.3-1.9,4.2-4.2,4.2H15.4c0,0-1.9,0-1.9,1.4
				c0,2.6,0,10.2,0,10.2c0,2.6,2.1,4.8,4.8,4.8c0,0,2,0,2.6,0c0.6,0,0.7-0.3,0.7-0.5c0-5.9,4.8-10.8,10.8-10.8
				c5.9,0,10.8,4.8,10.8,10.8c0,0.2,0,0.5,0.4,0.5c5.2,0,21.2,0,21.2,0c0.4,0,0.4-0.4,0.4-0.5c0-5.9,4.8-10.8,10.8-10.8
				c5.9,0,10.8,4.8,10.8,10.8c0,0.2,0,0.5,0.3,0.5c2.4,0,5.4,0,5.4,0c2.6,0,4.7-2.1,4.7-4.7v-8.9C97,49.9,94.6,49.9,92.1,49.2z"/>
		</defs>
		<clipPath id="XMLID_27_">
			<use xlink:href="#XMLID_6_"  style="overflow:visible;"/>
		</clipPath>
		<rect id="XMLID_9_" x="3.9" y="11.5" class="st3" width="102.8" height="69.2"/>
	</g>
	<g id="XMLID_2_">
		<defs>
			<path id="XMLID_3_" d="M33.9,50.4c0,1.2-0.9,2.1-2.1,2.1H5.1c-1.2,0-2.1-0.9-2.1-2.1v-1.3C3,48,3.9,47,5.1,47h26.7
				c1.2,0,2.1,0.9,2.1,2.1V50.4z"/>
		</defs>
		<clipPath id="XMLID_28_">
			<use xlink:href="#XMLID_3_"  style="overflow:visible;"/>
		</clipPath>
		<rect id="XMLID_4_" x="-6.7" y="37.4" class="st4" width="50.3" height="24.8"/>
	</g>
</g>
</svg>
