<?xml version="1.0" encoding="utf-8"?>
<!-- Generator: Adobe Illustrator 19.0.0, SVG Export Plug-In . SVG Version: 6.00 Build 0)  -->
<svg version="1.1" id="Layer_1" xmlns="http://www.w3.org/2000/svg" xmlns:xlink="http://www.w3.org/1999/xlink" x="0px" y="0px"
	 viewBox="0 0 100 100" style="enable-background:new 0 0 100 100;" xml:space="preserve">
<style type="text/css">
	.st0{fill:none;}
	.st1{fill:#1C233A;}
</style>
<g id="XMLID_1_">
	<polygon id="XMLID_2_" class="st0" points="39,45 37.2,51.9 44.1,50.1 74.8,19.3 69.8,14.3 	"/>
	
		<rect id="XMLID_8_" x="73.5" y="9.5" transform="matrix(-0.7071 -0.7071 0.7071 -0.7071 122.9838 75.0678)" class="st0" width="7.2" height="5.2"/>
	<path id="XMLID_15_" class="st1" d="M85.8,11.3l-8-8c-0.4-0.4-0.9-0.6-1.5-0.6c-0.5,0-1.1,0.2-1.5,0.6l-6.6,6.6c0,0,0,0,0,0
		c0,0,0,0,0,0L35.7,42.5c-0.3,0.3-0.4,0.6-0.5,0.9l-2.8,10.8c-0.2,0.7,0,1.5,0.5,2c0.4,0.4,0.9,0.6,1.5,0.6c0.2,0,0.3,0,0.5-0.1
		l10.8-2.8c0.4-0.1,0.7-0.3,0.9-0.5l32.6-32.6c0,0,0,0,0,0c0,0,0,0,0,0l6.6-6.6C86.6,13.4,86.6,12.1,85.8,11.3z M44.1,50.1l-6.9,1.8
		L39,45l30.8-30.8l5.1,5.1L44.1,50.1z M77.7,16.4l-5.1-5.1l3.7-3.7l5.1,5.1L77.7,16.4z"/>
	<path id="XMLID_17_" class="st1" d="M13.6,95.2c0,1.1,0.9,2.1,2.1,2.1h68.6c1.1,0,2.1-0.9,2.1-2.1V27.1c0-1.1-0.9-2.1-2.1-2.1
		c-1.1,0-2.1,0.9-2.1,2.1v66.1H17.7V14.5h38.1c1.1,0,2.1-0.9,2.1-2.1c0-1.1-0.9-2.1-2.1-2.1H15.7c-1.1,0-2.1,0.9-2.1,2.1V95.2z"/>
</g>
</svg>
