<?xml version="1.0" encoding="utf-8"?>
<!-- Generator: Adobe Illustrator 19.0.0, SVG Export Plug-In . SVG Version: 6.00 Build 0)  -->
<svg version="1.1" id="Layer_1" xmlns="http://www.w3.org/2000/svg" xmlns:xlink="http://www.w3.org/1999/xlink" x="0px" y="0px"
	 viewBox="0 0 100 100" style="enable-background:new 0 0 100 100;" xml:space="preserve">
<style type="text/css">
	.st0{fill:#29B99A;}
	.st1{fill:#B4D77D;}
</style>
<g id="XMLID_1_">
	<path id="XMLID_2_" class="st0" d="M67.1,68.5h24.2c0.8,0,1.4-0.6,1.4-1.4s-0.6-1.4-1.4-1.4H67.1c-8.6,0-15.7-7-15.7-15.7
		c0,2.5-0.5,4.9-1.4,7.1C52.8,63.8,59.4,68.5,67.1,68.5z"/>
	<path id="XMLID_9_" class="st0" d="M67.1,34.3h20.8l-9,9c-0.6,0.6-0.6,1.5,0,2c0.3,0.3,0.6,0.4,1,0.4s0.7-0.1,1-0.4l11.4-11.4
		c0.1-0.1,0.2-0.3,0.3-0.5c0.1-0.3,0.1-0.7,0-1.1c-0.1-0.2-0.2-0.3-0.3-0.5L81,20.5c-0.6-0.6-1.5-0.6-2,0c-0.6,0.6-0.6,1.5,0,2l9,9
		H67.1c-7.7,0-14.3,4.7-17.1,11.4c0.9,2.2,1.4,4.6,1.4,7.1C51.4,41.4,58.5,34.3,67.1,34.3z"/>
	<path id="XMLID_10_" class="st1" d="M8.6,31.5c-0.8,0-1.4,0.6-1.4,1.4c0,0.8,0.6,1.4,1.4,1.4h24.2c8.6,0,15.7,7,15.7,15.7
		c0-2.5,0.5-4.9,1.4-7.1c-2.8-6.7-9.4-11.4-17.1-11.4H8.6z"/>
	<path id="XMLID_11_" class="st1" d="M32.9,65.7H12.1l9-9c0.6-0.6,0.6-1.5,0-2c-0.6-0.6-1.5-0.6-2,0L7.6,66.1
		c-0.1,0.1-0.2,0.3-0.3,0.5c-0.1,0.3-0.1,0.7,0,1.1c0.1,0.2,0.2,0.3,0.3,0.5L19,79.5c0.3,0.3,0.6,0.4,1,0.4s0.7-0.1,1-0.4
		c0.6-0.6,0.6-1.5,0-2l-9-9h20.8c7.7,0,14.3-4.7,17.1-11.4c-0.9-2.2-1.4-4.6-1.4-7.1C48.6,58.7,41.5,65.7,32.9,65.7z"/>
	<path id="XMLID_12_" class="st1" d="M50,57.1c0.9-2.2,1.4-4.6,1.4-7.1s-0.5-4.9-1.4-7.1c-0.9,2.2-1.4,4.6-1.4,7.1
		S49.1,54.9,50,57.1z"/>
</g>
</svg>
