<?xml version="1.0" encoding="utf-8"?>
<!-- Generator: Adobe Illustrator 19.0.0, SVG Export Plug-In . SVG Version: 6.00 Build 0)  -->
<svg version="1.1" id="Layer_1" xmlns="http://www.w3.org/2000/svg" xmlns:xlink="http://www.w3.org/1999/xlink" x="0px" y="0px"
	 viewBox="0 0 100 100" style="enable-background:new 0 0 100 100;" xml:space="preserve">
<style type="text/css">
	.st0{clip-path:url(#XMLID_5_);}
	.st1{clip-path:url(#XMLID_6_);fill:#385D8F;}
</style>
<g>
	<defs>
		<path id="XMLID_1_" d="M29.9,52.8h9.3v38.4c0,0.8,0.6,1.4,1.4,1.4h15.8c0.8,0,1.4-0.6,1.4-1.4V53h10.7c0.7,0,1.3-0.5,1.4-1.2
			l1.6-14.1c0-0.4-0.1-0.8-0.3-1.1c-0.3-0.3-0.6-0.5-1-0.5H57.8v-8.9c0-2.7,1.4-4,4.3-4c0.4,0,8.1,0,8.1,0c0.8,0,1.4-0.6,1.4-1.4
			v-13c0-0.8-0.6-1.4-1.4-1.4H59c-0.1,0-0.3,0-0.5,0c-1.9,0-8.6,0.4-13.9,5.3c-5.9,5.4-5.1,11.9-4.9,13v10.4h-9.8
			c-0.8,0-1.4,0.6-1.4,1.4v13.9C28.5,52.2,29.1,52.8,29.9,52.8z"/>
	</defs>
	<clipPath id="XMLID_5_">
		<use xlink:href="#XMLID_1_"  style="overflow:visible;"/>
	</clipPath>
	<g class="st0">
		<defs>
			<rect id="XMLID_2_" x="-5315.3" y="-2255.6" width="7437.5" height="6438.8"/>
		</defs>
		<clipPath id="XMLID_6_">
			<use xlink:href="#XMLID_2_"  style="overflow:visible;"/>
		</clipPath>
		<rect id="XMLID_3_" x="2" y="-19.1" class="st1" width="96.1" height="138.1"/>
	</g>
</g>
</svg>
