<?xml version="1.0" encoding="utf-8"?>
<!-- Generator: Adobe Illustrator 19.0.0, SVG Export Plug-In . SVG Version: 6.00 Build 0)  -->
<svg version="1.1" id="Layer_1" xmlns="http://www.w3.org/2000/svg" xmlns:xlink="http://www.w3.org/1999/xlink" x="0px" y="0px"
	 viewBox="0 0 100 100" style="enable-background:new 0 0 100 100;" xml:space="preserve">
<style type="text/css">
	.st0{fill:#F1F0F0;}
	.st1{fill:#D81F2A;}
	.st2{fill:#3755A6;}
</style>
<g id="XMLID_1_">
	<polygon id="XMLID_2_" class="st0" points="100,62.5 100,50 50,50 50,53.8 0,53.8 0,62.5 	"/>
	<rect id="XMLID_48_" x="50" y="25" class="st0" width="50" height="12.5"/>
	<rect id="XMLID_49_" x="50" class="st0" width="50" height="12.5"/>
	<rect id="XMLID_50_" y="75" class="st0" width="100" height="12.5"/>
	<rect id="XMLID_51_" x="50" y="12.5" class="st1" width="50" height="12.5"/>
	<rect id="XMLID_52_" x="50" y="37.5" class="st1" width="50" height="12.5"/>
	<rect id="XMLID_53_" y="62.5" class="st1" width="100" height="12.5"/>
	<rect id="XMLID_54_" y="87.5" class="st1" width="100" height="12.5"/>
	<rect id="XMLID_55_" y="50" class="st2" width="50" height="3.8"/>
	<polygon id="XMLID_56_" class="st2" points="9.1,37.5 10.1,34.7 11,37.5 24.1,37.5 25,34.7 25.9,37.5 39,37.5 39.9,34.7 40.9,37.5 
		50,37.5 50,25 40.7,25 41,25.9 44.6,25.9 41.7,28 42.8,31.3 39.9,29.2 37.1,31.3 38.2,28 35.3,25.9 38.8,25.9 39.1,25 25.8,25 
		26.1,25.9 29.6,25.9 26.8,28 27.9,31.3 25,29.2 22.1,31.3 23.2,28 20.4,25.9 23.9,25.9 24.2,25 10.9,25 11.2,25.9 14.7,25.9 
		11.8,28 12.9,31.3 10.1,29.2 7.2,31.3 8.3,28 5.4,25.9 9,25.9 9.3,25 0,25 0,37.5 	"/>
	<polygon id="XMLID_57_" class="st2" points="9.4,12.5 10.1,10.4 10.7,12.5 24.3,12.5 25,10.4 25.7,12.5 39.3,12.5 39.9,10.4 
		40.6,12.5 50,12.5 50,0 0,0 0,12.5 	"/>
	<polygon id="XMLID_58_" class="st2" points="9.3,25 10.1,22.5 10.9,25 24.2,25 25,22.5 25.8,25 39.1,25 39.9,22.5 40.7,25 50,25 
		50,12.5 40.6,12.5 41,13.8 44.6,13.8 41.7,15.8 42.8,19.2 39.9,17.1 37.1,19.2 38.2,15.8 35.3,13.8 38.8,13.8 39.3,12.5 25.7,12.5 
		26.1,13.8 29.6,13.8 26.8,15.8 27.9,19.2 25,17.1 22.1,19.2 23.2,15.8 20.4,13.8 23.9,13.8 24.3,12.5 10.7,12.5 11.2,13.8 
		14.7,13.8 11.8,15.8 12.9,19.2 10.1,17.1 7.2,19.2 8.3,15.8 5.4,13.8 9,13.8 9.4,12.5 0,12.5 0,25 	"/>
	<polygon id="XMLID_59_" class="st2" points="50,50 50,37.5 40.9,37.5 41,38 44.6,38 41.7,40.1 42.8,43.5 39.9,41.4 37.1,43.5 
		38.2,40.1 35.3,38 38.8,38 39,37.5 25.9,37.5 26.1,38 29.6,38 26.8,40.1 27.9,43.5 25,41.4 22.1,43.5 23.2,40.1 20.4,38 23.9,38 
		24.1,37.5 11,37.5 11.2,38 14.7,38 11.8,40.1 12.9,43.5 10.1,41.4 7.2,43.5 8.3,40.1 5.4,38 9,38 9.1,37.5 0,37.5 0,50 	"/>
	<polygon id="XMLID_60_" class="st0" points="9,25.9 5.4,25.9 8.3,28 7.2,31.3 10.1,29.2 12.9,31.3 11.8,28 14.7,25.9 11.2,25.9 
		10.9,25 9.3,25 	"/>
	<polygon id="XMLID_61_" class="st0" points="9.3,25 10.9,25 10.1,22.5 	"/>
	<polygon id="XMLID_62_" class="st0" points="9.1,37.5 11,37.5 10.1,34.7 	"/>
	<polygon id="XMLID_63_" class="st0" points="9,38 5.4,38 8.3,40.1 7.2,43.5 10.1,41.4 12.9,43.5 11.8,40.1 14.7,38 11.2,38 
		11,37.5 9.1,37.5 	"/>
	<polygon id="XMLID_64_" class="st0" points="9.4,12.5 10.7,12.5 10.1,10.4 	"/>
	<polygon id="XMLID_65_" class="st0" points="9,13.8 5.4,13.8 8.3,15.8 7.2,19.2 10.1,17.1 12.9,19.2 11.8,15.8 14.7,13.8 
		11.2,13.8 10.7,12.5 9.4,12.5 	"/>
	<polygon id="XMLID_66_" class="st0" points="23.9,25.9 20.4,25.9 23.2,28 22.1,31.3 25,29.2 27.9,31.3 26.8,28 29.6,25.9 
		26.1,25.9 25.8,25 24.2,25 	"/>
	<polygon id="XMLID_67_" class="st0" points="24.2,25 25.8,25 25,22.5 	"/>
	<polygon id="XMLID_68_" class="st0" points="24.1,37.5 25.9,37.5 25,34.7 	"/>
	<polygon id="XMLID_69_" class="st0" points="23.9,38 20.4,38 23.2,40.1 22.1,43.5 25,41.4 27.9,43.5 26.8,40.1 29.6,38 26.1,38 
		25.9,37.5 24.1,37.5 	"/>
	<polygon id="XMLID_70_" class="st0" points="39,37.5 40.9,37.5 39.9,34.7 	"/>
	<polygon id="XMLID_71_" class="st0" points="38.8,38 35.3,38 38.2,40.1 37.1,43.5 39.9,41.4 42.8,43.5 41.7,40.1 44.6,38 41,38 
		40.9,37.5 39,37.5 	"/>
	<polygon id="XMLID_72_" class="st0" points="38.8,25.9 35.3,25.9 38.2,28 37.1,31.3 39.9,29.2 42.8,31.3 41.7,28 44.6,25.9 
		41,25.9 40.7,25 39.1,25 	"/>
	<polygon id="XMLID_73_" class="st0" points="39.1,25 40.7,25 39.9,22.5 	"/>
	<polygon id="XMLID_74_" class="st0" points="24.3,12.5 25.7,12.5 25,10.4 	"/>
	<polygon id="XMLID_75_" class="st0" points="23.9,13.8 20.4,13.8 23.2,15.8 22.1,19.2 25,17.1 27.9,19.2 26.8,15.8 29.6,13.8 
		26.1,13.8 25.7,12.5 24.3,12.5 	"/>
	<polygon id="XMLID_76_" class="st0" points="39.3,12.5 40.6,12.5 39.9,10.4 	"/>
	<polygon id="XMLID_77_" class="st0" points="38.8,13.8 35.3,13.8 38.2,15.8 37.1,19.2 39.9,17.1 42.8,19.2 41.7,15.8 44.6,13.8 
		41,13.8 40.6,12.5 39.3,12.5 	"/>
</g>
</svg>
