<?xml version="1.0" encoding="utf-8"?>
<!-- Generator: Adobe Illustrator 19.0.0, SVG Export Plug-In . SVG Version: 6.00 Build 0)  -->
<svg version="1.1" id="Layer_1" xmlns="http://www.w3.org/2000/svg" xmlns:xlink="http://www.w3.org/1999/xlink" x="0px" y="0px"
	 viewBox="0 0 100 100" style="enable-background:new 0 0 100 100;" xml:space="preserve">
<style type="text/css">
	.st0{fill:#D81F2A;}
	.st1{fill:#FEDA46;}
</style>
<g id="XMLID_1_">
	<path id="XMLID_22_" class="st0" d="M0,100h100V0H0V100z M49.3,28.2L53,31l3.7-2.7l-1.4,4.4l3.7,2.7h-4.6L53,39.8l-1.4-4.4l-4.6,0
		l3.7-2.7L49.3,28.2z M56.8,71.8L53,69l-3.7,2.7l1.4-4.4L47,64.6h4.6l1.4-4.4l1.4,4.4h4.6l-3.7,2.7L56.8,71.8z M64.3,48.8l-3.7-2.7
		l-3.7,2.7l1.4-4.4l-3.7-2.7h4.6l1.4-4.4l1.4,4.4h4.6l-3.7,2.7L64.3,48.8z M56.8,51.2l3.7,2.7l3.7-2.7l-1.4,4.4l3.7,2.7h-4.6
		l-1.4,4.4l-1.4-4.4h-4.6l3.7-2.7L56.8,51.2z M32.7,32.7l3.8,11.7h12.4l-10,7.3l3.8,11.7l-10-7.3l-10,7.3l3.8-11.7l-10-7.3h12.4
		L32.7,32.7z"/>
	<polygon id="XMLID_27_" class="st1" points="16.6,44.4 26.6,51.7 22.7,63.5 32.7,56.2 42.7,63.5 38.9,51.7 48.9,44.4 36.6,44.4 
		32.7,32.7 28.9,44.4 	"/>
	<polygon id="XMLID_28_" class="st1" points="59.1,64.6 54.5,64.6 53,60.2 51.6,64.6 47,64.6 50.7,67.4 49.3,71.8 53,69 56.8,71.8 
		55.4,67.4 	"/>
	<polygon id="XMLID_29_" class="st1" points="59.1,58.3 60.5,62.7 61.9,58.3 66.6,58.3 62.8,55.6 64.3,51.2 60.5,53.9 56.8,51.2 
		58.2,55.6 54.4,58.3 	"/>
	<polygon id="XMLID_30_" class="st1" points="61.9,41.7 60.5,37.3 59.1,41.7 54.4,41.7 58.2,44.4 56.8,48.8 60.5,46.1 64.3,48.8 
		62.8,44.4 66.6,41.7 	"/>
	<polygon id="XMLID_31_" class="st1" points="47,35.4 51.6,35.4 53,39.8 54.5,35.4 59.1,35.4 55.4,32.6 56.8,28.2 53,31 49.3,28.2 
		50.7,32.6 	"/>
</g>
</svg>
