<?xml version="1.0" encoding="utf-8"?>
<!-- Generator: Adobe Illustrator 19.0.0, SVG Export Plug-In . SVG Version: 6.00 Build 0)  -->
<svg version="1.1" id="Layer_1" xmlns="http://www.w3.org/2000/svg" xmlns:xlink="http://www.w3.org/1999/xlink" x="0px" y="0px"
	 viewBox="0 0 100 100" style="enable-background:new 0 0 100 100;" xml:space="preserve">
<style type="text/css">
	.st0{fill:#D61E3C;}
</style>
<g id="XMLID_1_">
	<path id="XMLID_2_" class="st0" d="M85.8,36H78c-1.2,0-2.2,1-2.2,2.2V44h-5.8c-1.2,0-2.2,1-2.2,2.2V54c0,1.2,1,2.2,2.2,2.2h5.8v5.8
		c0,1.2,1,2.2,2.2,2.2h7.8c1.2,0,2.2-1,2.2-2.2v-5.8h5.8c1.2,0,2.2-1,2.2-2.2v-7.8c0-1.2-1-2.2-2.2-2.2H88v-5.8
		C88,37,87.1,36,85.8,36z"/>
	<path id="XMLID_9_" class="st0" d="M44.8,22.3c-0.1,0-0.1-0.1-0.2-0.1c-3.5-1.4-7.2-2.1-11-2.1c-7.8,0-15.2,3-20.8,8.4
		C7.2,34.1,4,41.7,4,49.8c-0.1,8.1,3,15.7,8.6,21.3c5.5,5.6,13.4,8.8,21.6,8.8c8.1,0,15.7-3.1,20.8-8.6c4.1-4.3,6.6-10.1,7.2-16.7
		c0-0.1,0-0.1,0-0.2l0.1-5.9c0-0.1,0-0.2,0-0.4l-0.3-2c-0.2-1.1-1.1-1.9-2.2-1.9H34.4c-1.2,0-2.2,1-2.2,2.2v8.8c0,1.2,1,2.2,2.2,2.2
		h12.9c-0.6,1.3-1.5,2.7-2.7,3.9c-2.6,2.8-6.4,4.4-10.5,4.4c-4.2,0-8.2-1.6-11-4.5c-5.9-6-5.8-16.4,0.1-22.3
		c2.8-2.8,6.6-4.4,10.6-4.4c2.7,0,5.2,0.7,7.4,2.1l2.5,1.7c0.9,0.6,2,0.5,2.8-0.3l7.3-7.2c0.5-0.5,0.7-1.1,0.6-1.8
		c-0.1-0.7-0.4-1.2-0.9-1.6l-4.2-2.9c-0.1-0.1-0.2-0.1-0.3-0.2L44.8,22.3z"/>
</g>
</svg>
