<?xml version="1.0" encoding="utf-8"?>
<!-- Generator: Adobe Illustrator 19.0.0, SVG Export Plug-In . SVG Version: 6.00 Build 0)  -->
<svg version="1.1" id="Layer_1" xmlns="http://www.w3.org/2000/svg" xmlns:xlink="http://www.w3.org/1999/xlink" x="0px" y="0px"
	 viewBox="0 0 100 100" style="enable-background:new 0 0 100 100;" xml:space="preserve">
<style type="text/css">
	.st0{clip-path:url(#SVGID_2_);fill:#FFFFFF;}
</style>
<g>
	<defs>
		<path id="SVGID_1_" d="M81.7,66.7H69.3c1.3-4.5,2.1-9.4,2.3-14.3h14.3C85.4,57.5,84,62.3,81.7,66.7z M75.3,75.3
			c-4.3,4.3-9.6,7.4-15.3,9.1c1.3-1.5,2.5-3.2,3.7-5.1c1.5-2.4,2.8-5,3.8-7.8h11C77.6,72.9,76.5,74.1,75.3,75.3z M52.4,84.9V71.5h10
			c-0.8,1.8-1.7,3.6-2.7,5.2C57.1,80.9,54.4,83.5,52.4,84.9z M66.7,52.4c-0.2,5-1,9.8-2.5,14.3H52.4V52.4H66.7z M52.4,33.3h11.8
			c1.4,4.5,2.3,9.3,2.5,14.3H52.4V33.3z M52.4,15.1c2,1.3,4.7,4,7.3,8.1c1,1.6,1.9,3.4,2.7,5.2h-10L52.4,15.1L52.4,15.1z M75.3,24.7
			c1.2,1.2,2.3,2.5,3.3,3.8h-11c-1.1-2.8-2.4-5.4-3.8-7.8c-1.2-1.9-2.4-3.6-3.7-5.1C65.8,17.3,71,20.3,75.3,24.7z M81.7,33.3
			c2.3,4.4,3.7,9.2,4,14.3H71.5c-0.2-4.9-1-9.8-2.3-14.3H81.7z M47.6,28.5h-10c0.8-1.8,1.7-3.6,2.7-5.2c2.5-4.1,5.2-6.7,7.3-8.1
			L47.6,28.5L47.6,28.5z M47.6,47.6H33.3c0.2-5,1-9.8,2.5-14.3h11.8V47.6z M47.6,66.7H35.8c-1.4-4.5-2.3-9.3-2.5-14.3h14.3V66.7z
			 M47.6,84.9c-2-1.3-4.7-4-7.3-8.1c-1-1.6-1.9-3.4-2.7-5.2h10L47.6,84.9L47.6,84.9z M24.7,75.3c-1.2-1.2-2.3-2.5-3.3-3.8h11
			c1.1,2.8,2.4,5.4,3.8,7.8c1.2,1.9,2.4,3.6,3.7,5.1C34.2,82.7,29,79.7,24.7,75.3z M18.3,66.7c-2.3-4.4-3.7-9.2-4-14.3h14.3
			c0.2,4.9,1,9.8,2.3,14.3H18.3z M18.3,33.3h12.5c-1.3,4.5-2.1,9.4-2.3,14.3H14.2C14.6,42.5,16,37.7,18.3,33.3z M24.7,24.7
			c4.3-4.3,9.6-7.4,15.3-9.1c-1.3,1.5-2.5,3.2-3.7,5.1c-1.5,2.4-2.8,5-3.8,7.8h-11C22.4,27.1,23.5,25.9,24.7,24.7z M78.8,21.2
			C71.2,13.7,61.2,9.5,50.6,9.3c-0.2,0-0.4,0-0.6,0s-0.4,0-0.6,0c-10.7,0.1-20.7,4.4-28.2,11.9C13.6,28.9,9.3,39.1,9.3,50
			s4.2,21.1,11.9,28.8c7.6,7.5,17.6,11.8,28.2,11.9c0.2,0,0.4,0,0.6,0c0.2,0,0.4,0,0.6,0c10.7-0.1,20.7-4.4,28.2-11.9
			c7.7-7.7,11.9-17.9,11.9-28.8C90.7,39.1,86.4,28.9,78.8,21.2z"/>
	</defs>
	<clipPath id="SVGID_2_">
		<use xlink:href="#SVGID_1_"  style="overflow:visible;"/>
	</clipPath>
	<rect id="XMLID_18_" x="-24.6" y="-24.6" class="st0" width="149.2" height="149.2"/>
</g>
</svg>
