<?xml version="1.0" encoding="utf-8"?>
<!-- Generator: Adobe Illustrator 19.0.0, SVG Export Plug-In . SVG Version: 6.00 Build 0)  -->
<svg version="1.1" id="Layer_1" xmlns="http://www.w3.org/2000/svg" xmlns:xlink="http://www.w3.org/1999/xlink" x="0px" y="0px"
	 viewBox="0 0 100 100" style="enable-background:new 0 0 100 100;" xml:space="preserve">
<style type="text/css">
	.st0{clip-path:url(#SVGID_2_);fill:#475070;}
</style>
<g>
	<defs>
		<path id="SVGID_1_" d="M83.3,67.6H70.2c1.4-4.8,2.2-9.8,2.4-15h15C87.2,57.9,85.8,62.9,83.3,67.6z M76.6,76.6
			c-4.5,4.5-10,7.8-16,9.5c1.4-1.6,2.7-3.3,3.9-5.3c1.6-2.5,2.9-5.3,4-8.2h11.6C79,74,77.9,75.4,76.6,76.6z M52.5,86.6v-14H63
			c-0.8,1.9-1.8,3.8-2.9,5.5C57.5,82.5,54.7,85.2,52.5,86.6z M67.5,52.5c-0.2,5.2-1.1,10.3-2.6,15H52.5v-15H67.5z M52.5,32.4h12.4
			c1.5,4.7,2.4,9.8,2.6,15h-15V32.4z M52.5,13.4c2.1,1.4,5,4.2,7.6,8.5c1.1,1.7,2,3.6,2.9,5.5H52.5L52.5,13.4L52.5,13.4z M76.6,23.4
			c1.3,1.3,2.4,2.6,3.5,4H68.5c-1.1-2.9-2.5-5.6-4-8.2c-1.2-2-2.5-3.8-3.9-5.3C66.6,15.6,72.1,18.8,76.6,23.4z M83.3,32.4
			c2.4,4.6,3.9,9.7,4.2,15h-15c-0.2-5.2-1-10.3-2.4-15H83.3z M47.5,27.4H37c0.8-1.9,1.8-3.8,2.9-5.5c2.7-4.3,5.5-7.1,7.6-8.5
			L47.5,27.4L47.5,27.4z M47.5,47.5h-15c0.2-5.2,1.1-10.3,2.6-15h12.4V47.5z M47.5,67.6H35.1c-1.5-4.7-2.4-9.8-2.6-15h15V67.6z
			 M47.5,86.6c-2.1-1.4-5-4.2-7.6-8.5c-1.1-1.7-2-3.6-2.9-5.5h10.5L47.5,86.6L47.5,86.6z M23.4,76.6c-1.3-1.3-2.4-2.6-3.5-4h11.6
			c1.1,2.9,2.5,5.6,4,8.2c1.2,2,2.5,3.8,3.9,5.3C33.4,84.4,27.9,81.2,23.4,76.6z M16.7,67.6c-2.4-4.6-3.9-9.7-4.2-15h15
			c0.2,5.2,1,10.3,2.4,15H16.7z M16.7,32.4h13.1c-1.4,4.8-2.2,9.8-2.4,15h-15C12.8,42.1,14.2,37.1,16.7,32.4z M23.4,23.4
			c4.5-4.5,10-7.8,16-9.5c-1.4,1.6-2.7,3.3-3.9,5.3c-1.6,2.5-2.9,5.3-4,8.2H19.9C21,26,22.1,24.6,23.4,23.4z M80.2,19.8
			C72.3,11.8,61.8,7.4,50.6,7.3c-0.2,0-0.4,0-0.6,0s-0.4,0-0.6,0c-11.2,0.1-21.7,4.6-29.6,12.5C11.7,27.9,7.3,38.6,7.3,50
			s4.4,22.1,12.5,30.2c7.9,7.9,18.4,12.4,29.6,12.5c0.2,0,0.4,0,0.6,0c0.2,0,0.4,0,0.6,0c11.2-0.1,21.7-4.6,29.6-12.5
			c8.1-8.1,12.5-18.8,12.5-30.2C92.7,38.6,88.3,27.9,80.2,19.8z"/>
	</defs>
	<clipPath id="SVGID_2_">
		<use xlink:href="#SVGID_1_"  style="overflow:visible;"/>
	</clipPath>
	<rect x="-21.2" y="-21.3" class="st0" width="142.5" height="142.5"/>
</g>
</svg>
