<?xml version="1.0" encoding="utf-8"?>
<!-- Generator: Adobe Illustrator 19.0.0, SVG Export Plug-In . SVG Version: 6.00 Build 0)  -->
<svg version="1.1" id="Layer_1" xmlns="http://www.w3.org/2000/svg" xmlns:xlink="http://www.w3.org/1999/xlink" x="0px" y="0px"
	 viewBox="0 0 100 100" style="enable-background:new 0 0 100 100;" xml:space="preserve">
<style type="text/css">
	.st0{clip-path:url(#XMLID_16_);}
	.st1{clip-path:url(#XMLID_17_);fill:#010101;}
</style>
<g id="XMLID_2_">
	<defs>
		<path id="XMLID_3_" d="M68.7,68.4h23v23h-23V68.4z M68.7,38.1h23v23h-23V38.1z M68.7,8.5h23v23h-23V8.5z M37.9,68.4h23v23h-23
			V68.4z M8.3,68.4h23v23h-23V68.4z M8.3,8.5h23v23h-23V8.5z M8.3,38.1h23v23h-23V38.1z M37.9,38.1h23v23h-23V38.1z M37.9,8.5h23v23
			h-23V8.5z"/>
	</defs>
	<clipPath id="XMLID_16_">
		<use xlink:href="#XMLID_3_"  style="overflow:visible;"/>
	</clipPath>
	<g id="XMLID_13_" class="st0">
		<defs>
			<rect id="XMLID_14_" x="-6409" y="-1351" width="7376.1" height="14288.6"/>
		</defs>
		<clipPath id="XMLID_17_">
			<use xlink:href="#XMLID_14_"  style="overflow:visible;"/>
		</clipPath>
		<rect id="XMLID_15_" x="-18.1" y="-17.8" class="st1" width="136.1" height="135.6"/>
	</g>
</g>
</svg>
