<?xml version="1.0" encoding="utf-8"?>
<!-- Generator: Adobe Illustrator 19.0.0, SVG Export Plug-In . SVG Version: 6.00 Build 0)  -->
<svg version="1.1" id="Layer_1" xmlns="http://www.w3.org/2000/svg" xmlns:xlink="http://www.w3.org/1999/xlink" x="0px" y="0px"
	 viewBox="0 0 100 100" style="enable-background:new 0 0 100 100;" xml:space="preserve">
<style type="text/css">
	.st0{clip-path:url(#XMLID_10_);}
	.st1{clip-path:url(#XMLID_11_);fill:#E22F0A;}
</style>
<g id="XMLID_2_">
	<defs>
		<path id="XMLID_3_" d="M72,83.5V55.4c6.8,1.1,12,7,12,14.1C84,76.6,78.8,82.4,72,83.5z M28,54.5v28.1c-6.8-1.1-12-7-12-14.1
			C16,61.5,21.2,55.6,28,54.5z M88.5,50.3c0-10.3-4-19.9-11.3-27.2C69.9,15.9,60.3,11.9,50,11.9c-10.3,0-19.9,4-27.2,11.3
			S11.5,40.1,11.5,50.3v18.2c0,10.3,8.4,18.7,18.7,18.7c1.2,0,2.2-1,2.2-2.2V52.1c0-1.2-1-2.2-2.2-2.2c-5.7,0-10.8,2.6-14.2,6.6
			v-6.1c0-18.8,15.3-34,34-34c18.8,0,34,15.3,34,34c0,0.1,0,0.3,0,0.4c0,0.1,0,0.3,0,0.4v6.1c-3.4-4-8.5-6.6-14.2-6.6
			c-1.2,0-2.2,1-2.2,2.2v32.9c0,1.2,1,2.2,2.2,2.2c10.3,0,18.7-8.4,18.7-18.7V51.2c0-0.1,0-0.3,0-0.4C88.5,50.6,88.5,50.5,88.5,50.3
			z"/>
	</defs>
	<clipPath id="XMLID_10_">
		<use xlink:href="#XMLID_3_"  style="overflow:visible;"/>
	</clipPath>
	<g id="XMLID_7_" class="st0">
		<defs>
			<rect id="XMLID_8_" x="-1063.3" y="-5534.1" width="3343.8" height="12257.4"/>
		</defs>
		<clipPath id="XMLID_11_">
			<use xlink:href="#XMLID_8_"  style="overflow:visible;"/>
		</clipPath>
		<rect id="XMLID_9_" x="-0.4" y="-0.1" class="st1" width="100.8" height="100.1"/>
	</g>
</g>
</svg>
