<?xml version="1.0" encoding="utf-8"?>
<!-- Generator: Adobe Illustrator 19.0.0, SVG Export Plug-In . SVG Version: 6.00 Build 0)  -->
<svg version="1.1" id="Layer_1" xmlns="http://www.w3.org/2000/svg" xmlns:xlink="http://www.w3.org/1999/xlink" x="0px" y="0px"
	 viewBox="0 0 100 100" style="enable-background:new 0 0 100 100;" xml:space="preserve">
<style type="text/css">
	.st0{clip-path:url(#SVGID_2_);fill:#FFFFFF;}
</style>
<g>
	<defs>
		<path id="SVGID_1_" d="M81.7,49.4L50,81L18.3,49.4c-3.5-3.5-5.4-8.1-5.4-13s1.9-9.5,5.4-13c3.5-3.5,8.1-5.4,13-5.4
			c4.9,0,9.5,1.9,13,5.4l4,4c0.9,0.9,2.4,0.9,3.4,0l4-4c3.5-3.5,8.1-5.4,13-5.4c4.9,0,9.5,1.9,13,5.4c3.5,3.5,5.4,8.1,5.4,13
			C87.1,41.3,85.2,46,81.7,49.4z M85.1,20c-4.4-4.4-10.2-6.8-16.4-6.8c-6.2,0-12,2.4-16.4,6.8L50,22.3L47.7,20
			c-4.4-4.4-10.2-6.8-16.4-6.8c-6.2,0-12,2.4-16.4,6.8c-4.4,4.4-6.8,10.2-6.8,16.4c0,6.2,2.4,12,6.8,16.4l33.3,33.3
			c0.5,0.5,1.1,0.7,1.7,0.7s1.2-0.2,1.7-0.7l33.4-33.3c4.4-4.4,6.8-10.2,6.8-16.4C91.9,30.2,89.5,24.4,85.1,20z"/>
	</defs>
	<clipPath id="SVGID_2_">
		<use xlink:href="#SVGID_1_"  style="overflow:visible;"/>
	</clipPath>
	<rect id="XMLID_3_" x="-10.3" y="-5.3" class="st0" width="120.6" height="110.5"/>
</g>
</svg>
