<?xml version="1.0" encoding="utf-8"?>
<!-- Generator: Adobe Illustrator 19.0.0, SVG Export Plug-In . SVG Version: 6.00 Build 0)  -->
<svg version="1.1" id="Layer_1" xmlns="http://www.w3.org/2000/svg" xmlns:xlink="http://www.w3.org/1999/xlink" x="0px" y="0px"
	 viewBox="0 0 100 100" style="enable-background:new 0 0 100 100;" xml:space="preserve">
<style type="text/css">
	.st0{clip-path:url(#XMLID_7_);fill:#010101;}
	.st1{clip-path:url(#XMLID_8_);fill:#010101;}
</style>
<g id="XMLID_9_">
	<defs>
		<path id="XMLID_3_" d="M79.6,52.7c-1.5,0-2.7,1.2-2.7,2.7v27H23v-27c0-1.5-1.2-2.7-2.7-2.7c-1.5,0-2.7,1.2-2.7,2.7V85
			c0,1.5,1.2,2.7,2.7,2.7h59.3c1.5,0,2.7-1.2,2.7-2.7V55.4C82.3,53.9,81.1,52.7,79.6,52.7z"/>
	</defs>
	<clipPath id="XMLID_7_">
		<use xlink:href="#XMLID_3_"  style="overflow:visible;"/>
	</clipPath>
	<rect id="XMLID_4_" x="-14.5" y="20.5" class="st0" width="129" height="99.3"/>
</g>
<g id="XMLID_6_">
	<defs>
		<path id="XMLID_1_" d="M93.8,53.5L51.9,11.6c-1-1-2.7-1-3.8,0L6.2,53.5c-1,1-1,2.7,0,3.8C6.7,57.8,7.4,58,8.1,58
			c0.7,0,1.4-0.3,1.9-0.8l40-40l40,40c1,1,2.7,1,3.8,0C94.8,56.2,94.8,54.5,93.8,53.5z"/>
	</defs>
	<clipPath id="XMLID_8_">
		<use xlink:href="#XMLID_1_"  style="overflow:visible;"/>
	</clipPath>
	<rect id="XMLID_2_" x="-26.8" y="-21.4" class="st1" width="153.5" height="111.6"/>
</g>
</svg>
