<?xml version="1.0" encoding="utf-8"?>
<!-- Generator: Adobe Illustrator 19.0.0, SVG Export Plug-In . SVG Version: 6.00 Build 0)  -->
<svg version="1.1" id="Layer_1" xmlns="http://www.w3.org/2000/svg" xmlns:xlink="http://www.w3.org/1999/xlink" x="0px" y="0px"
	 viewBox="0 0 100 100" style="enable-background:new 0 0 100 100;" xml:space="preserve">
<style type="text/css">
	.st0{fill:#0084B1;}
	.st1{fill:#FFFFFF;}
</style>
<g>
	<g>
		<defs>
			<rect id="SVGID_1_" x="-1084.5" y="-214" width="1400" height="3833"/>
		</defs>
		<clipPath id="SVGID_2_">
			<use xlink:href="#SVGID_1_"  style="overflow:visible;"/>
		</clipPath>
	</g>
</g>
<g>
	<path class="st0" d="M0,0v100h100V0H0z M31.9,23.6c0,4.8-4,8.5-8.4,8.3c-4.5,0.1-8.4-3.6-8.4-8.4c0-4.6,3.8-8.4,8.4-8.4
		C28.1,15.2,31.9,19,31.9,23.6z M28.4,84.8h-9.8c-1.3,0-2.3-1-2.3-2.3V40.6c0-1.3,1-2.3,2.3-2.3h9.8c1.3,0,2.3,1,2.3,2.3v41.9
		C30.7,83.8,29.7,84.8,28.4,84.8z M84.9,53v30.8c0,0.5-0.4,1-1,1l-12.5,0c-0.5,0-1-0.4-1-1V58c0-2.2-0.9-4.3-2.4-5.7
		c-1.5-1.5-3.5-2.4-5.8-2.4c-4.4,0.1-8,3.7-8,8.2v25.7c0,0.5-0.4,1-1,1l-12.5,0c-0.5,0-1-0.4-1-1V39.3c0-0.5,0.4-1,1-1H53
		c0.5,0,1,0.4,1,1v5.1c0,0,0,0,0.1,0c0.2-0.4,0.5-0.8,0.8-1.2c2.6-3.7,6.8-6.1,11.6-6.1H69C77.8,37.1,84.9,44.3,84.9,53L84.9,53z"/>
	<path class="st1" d="M15.1,23.5c0,4.7,3.9,8.5,8.4,8.4c4.4,0.1,8.4-3.5,8.4-8.3c0-4.6-3.8-8.4-8.3-8.4
		C18.9,15.2,15.1,18.9,15.1,23.5z"/>
	<path class="st1" d="M30.7,40.6c0-1.3-1-2.3-2.3-2.3h-9.8c-1.3,0-2.3,1-2.3,2.3v41.9c0,1.3,1,2.3,2.3,2.3h9.8c1.3,0,2.3-1,2.3-2.3
		V40.6z"/>
	<path class="st1" d="M69,37.1h-2.5c-4.8,0-9,2.4-11.6,6.1c-0.3,0.4-0.5,0.8-0.8,1.2c-0.1,0-0.1,0-0.1,0v-5.1c0-0.5-0.4-1-1-1H40.8
		c-0.5,0-1,0.4-1,1v44.6c0,0.5,0.4,1,1,1l12.5,0c0.5,0,1-0.4,1-1V58.1c0-4.5,3.5-8.1,8-8.2c2.3,0,4.3,0.9,5.8,2.4
		c1.5,1.5,2.4,3.5,2.4,5.7v25.9c0,0.5,0.4,1,1,1l12.5,0c0.5,0,1-0.4,1-1V53h0C84.9,44.3,77.8,37.1,69,37.1z"/>
</g>
</svg>
