<?xml version="1.0" encoding="utf-8"?>
<!-- Generator: Adobe Illustrator 19.0.0, SVG Export Plug-In . SVG Version: 6.00 Build 0)  -->
<svg version="1.1" id="Layer_1" xmlns="http://www.w3.org/2000/svg" xmlns:xlink="http://www.w3.org/1999/xlink" x="0px" y="0px"
	 viewBox="0 0 100 100" style="enable-background:new 0 0 100 100;" xml:space="preserve">
<style type="text/css">
	.st0{fill:#25B7D3;}
	.st1{fill:#FFFFFF;}
</style>
<g>
	<path class="st0" d="M0,50c0,27.6,22.4,50,50,50c27.6,0,50-22.4,50-50c0-27.6-22.4-50-50-50C22.4,0,0,22.4,0,50z M54.7,16.1
		c1.4-1.5,3-2.2,4.9-2.2c1.5,0,2.8,0.5,3.8,1.5c1,1,1.5,2.3,1.5,3.8c0,2-0.7,3.8-2.1,5.3c-1.4,1.5-3,2.3-4.8,2.3
		c-1.5,0-2.7-0.5-3.7-1.6c-1-1-1.5-2.4-1.5-4C52.7,19.3,53.4,17.6,54.7,16.1z M35.4,44.2c4-4.4,7.8-7.7,11.2-9.6
		c3.5-2,6.4-2.9,8.9-2.9c1.5,0,2.7,0.4,3.6,1.1c0.9,0.7,1.4,1.8,1.4,3.1c0,0.8-0.4,3.2-3.9,15c-4.2,14-6.3,22.5-6.3,25.3
		c0,0.3,0.1,0.6,0.2,0.8c0.1,0.1,0.1,0.1,0.1,0.1c1.1-0.2,6.7-2.7,11.7-5c0.4-0.2,1-0.1,1.3,0.3c0.3,0.4,0.2,1-0.1,1.3
		c-5.6,5.3-9.6,8.5-12.2,10c-2.7,1.5-4.9,2.3-6.7,2.3c-1.7,0-3-0.6-4.1-1.6c-1-1.1-1.5-2.5-1.5-4.3c0-5.1,3-17.2,9-36.9
		c0.2-0.8,0.4-1.5,0.4-2.2c0-0.1,0-0.1,0-0.2c0,0,0,0-0.1,0c-0.6,0-1.3,0.3-2.2,0.8c-1,0.7-8.2,3.6-9.6,4.2c-0.4,0.2-0.9,0-1.2-0.4
		C35.1,45.1,35.1,44.6,35.4,44.2z"/>
	<path class="st1" d="M36.6,45.8c1.4-0.6,8.5-3.5,9.6-4.2c0.9-0.5,1.6-0.8,2.2-0.8c0,0,0,0,0.1,0c0,0,0,0.1,0,0.2
		c0,0.6-0.1,1.3-0.4,2.2C42,62.9,39,75,39,80.1c0,1.8,0.5,3.3,1.5,4.3c1,1.1,2.4,1.6,4.1,1.6c1.8,0,4-0.7,6.7-2.3
		c2.6-1.5,6.6-4.8,12.2-10c0.4-0.3,0.4-0.9,0.1-1.3c-0.3-0.4-0.8-0.6-1.3-0.3c-5,2.3-10.6,4.8-11.7,5c0,0-0.1-0.1-0.1-0.1
		c-0.1-0.2-0.2-0.5-0.2-0.8c0-2.8,2.1-11.3,6.3-25.3c3.5-11.8,3.9-14.2,3.9-15c0-1.2-0.5-2.3-1.4-3.1c-0.9-0.7-2.1-1.1-3.6-1.1
		c-2.5,0-5.4,1-8.9,2.9c-3.4,1.9-7.1,5.1-11.2,9.6c-0.3,0.3-0.3,0.9-0.1,1.3C35.6,45.9,36.1,46,36.6,45.8z"/>
	<path class="st1" d="M57.9,27c1.8,0,3.4-0.8,4.8-2.3c1.4-1.5,2.1-3.3,2.1-5.3c0-1.5-0.5-2.8-1.5-3.8c-1-1-2.3-1.5-3.8-1.5
		c-1.9,0-3.5,0.7-4.9,2.2c-1.3,1.4-2,3.2-2,5.3c0,1.6,0.5,3,1.5,4C55.2,26.4,56.4,27,57.9,27z"/>
</g>
</svg>
