<?xml version="1.0" encoding="utf-8"?>
<!-- Generator: Adobe Illustrator 19.0.0, SVG Export Plug-In . SVG Version: 6.00 Build 0)  -->
<svg version="1.1" id="Layer_1" xmlns="http://www.w3.org/2000/svg" xmlns:xlink="http://www.w3.org/1999/xlink" x="0px" y="0px"
	 viewBox="0 0 100 100" style="enable-background:new 0 0 100 100;" xml:space="preserve">
<style type="text/css">
	.st0{clip-path:url(#SVGID_2_);fill:#E22F0A;}
	.st1{clip-path:url(#SVGID_4_);fill:#E22F0A;}
	.st2{clip-path:url(#SVGID_6_);fill:#E22F0A;}
	.st3{clip-path:url(#SVGID_8_);fill:#E22F0A;}
	.st4{clip-path:url(#SVGID_10_);fill:#E22F0A;}
	.st5{clip-path:url(#SVGID_12_);fill:#E22F0A;}
	.st6{clip-path:url(#SVGID_14_);fill:#E22F0A;}
	.st7{clip-path:url(#SVGID_16_);fill:#E22F0A;}
	.st8{clip-path:url(#SVGID_18_);fill:#E22F0A;}
	.st9{clip-path:url(#SVGID_20_);fill:#E22F0A;}
	.st10{clip-path:url(#SVGID_22_);fill:#E22F0A;}
	.st11{clip-path:url(#SVGID_24_);fill:#E22F0A;}
	.st12{clip-path:url(#SVGID_26_);fill:#E22F0A;}
	.st13{clip-path:url(#SVGID_28_);fill:#E22F0A;}
</style>
<g>
	<defs>
		<path id="SVGID_1_" d="M76.8,81.9l-1,1l-12.9-7c-0.7-0.4-1.5-0.1-1.9,0.6c-0.4,0.7-0.1,1.5,0.6,1.9l12.2,6.6l-2.5,2.5
			c-3.1,3.1-9.2,3.1-16.9,0c-8.2-3.3-17.2-9.6-25.4-17.8c-8.2-8.2-14.5-17.2-17.8-25.4c-3.1-7.7-3.1-13.9,0-16.9l2.5-2.5l1.4,2.5
			c0.3,0.5,0.7,0.7,1.2,0.7c0.2,0,0.5-0.1,0.7-0.2c0.7-0.4,0.9-1.2,0.6-1.9l-1.8-3.2l1-1c0.6-0.6,1.5-1,2.3-1c0.1,0,0.3,0,0.4,0
			c0.9,0.1,1.7,0.7,2.2,1.5l8.5,15.2c0.7,1.2,0.5,2.8-0.5,3.7l-2.5,2.5l-6.6-12.2c-0.4-0.7-1.2-0.9-1.9-0.6
			c-0.7,0.4-0.9,1.2-0.6,1.9l7,12.9l-0.7,0.7c-2.1,2.1-2.3,5.4-0.6,7.8c2.8,3.8,6,7.5,9.5,11c3.5,3.5,7.2,6.7,11,9.5
			c2.3,1.7,5.7,1.5,7.8-0.6l0.7-0.7l3.2,1.8c0.2,0.1,0.4,0.2,0.7,0.2c0.5,0,1-0.3,1.2-0.7c0.4-0.7,0.1-1.5-0.6-1.9l-2.5-1.4l2.5-2.5
			c1-1,2.5-1.2,3.7-0.5l15.2,8.5c0.8,0.5,1.3,1.2,1.5,2.2C77.9,80.1,77.6,81.1,76.8,81.9z M80.6,78.7c-0.3-1.8-1.3-3.4-2.9-4.3
			l-15.2-8.5c-2.3-1.3-5.3-0.9-7.1,1l-5.3,5.3c-1.1,1.1-2.8,1.2-4.1,0.3c-3.7-2.7-7.3-5.8-10.7-9.3c-3.4-3.4-6.5-7-9.3-10.7
			c-0.9-1.2-0.8-3,0.3-4.1l5.3-5.3c1.9-1.9,2.3-4.8,1-7.1l-8.5-15.2c-0.9-1.6-2.4-2.6-4.3-2.9c-1.9-0.3-3.8,0.4-5.2,1.8l-5.6,5.6
			c-4,4-4.2,11.1-0.6,20c3.4,8.5,10,17.9,18.4,26.3c8.4,8.4,17.8,15,26.3,18.4c4.2,1.7,8,2.5,11.3,2.5c3.6,0,6.6-1,8.7-3.1l5.6-5.6
			C80.2,82.5,80.9,80.6,80.6,78.7z"/>
	</defs>
	<clipPath id="SVGID_2_">
		<use xlink:href="#SVGID_1_"  style="overflow:visible;"/>
	</clipPath>
	<rect x="-7.3" y="4.7" class="st0" width="101.2" height="101.2"/>
</g>
<g>
	<defs>
		<path id="SVGID_3_" d="M74,44.4h-1.6V32.2c0-0.8-0.6-1.4-1.4-1.4c-0.8,0-1.4,0.6-1.4,1.4v12.2h-7.4l2.6-11.9
			c0.2-0.8-0.3-1.5-1.1-1.7c-0.8-0.2-1.5,0.3-1.7,1.1l-3,13.6c-0.1,0.4,0,0.9,0.3,1.2c0.3,0.3,0.7,0.5,1.1,0.5h9.2v4.6
			c0,0.8,0.6,1.4,1.4,1.4c0.8,0,1.4-0.6,1.4-1.4v-4.6H74c0.8,0,1.4-0.6,1.4-1.4C75.4,45,74.8,44.4,74,44.4z"/>
	</defs>
	<clipPath id="SVGID_4_">
		<use xlink:href="#SVGID_3_"  style="overflow:visible;"/>
	</clipPath>
	<rect x="45.7" y="17.5" class="st1" width="43" height="49"/>
</g>
<g>
	<defs>
		<path id="SVGID_5_" d="M55.9,50.4H45.4c0.6-1.6,2.4-2.7,4.9-4c3.1-1.7,7-3.8,7-8.6c0-3.9-3.4-7-7.5-7s-7.5,3.2-7.5,7
			c0,0.8,0.6,1.4,1.4,1.4c0.8,0,1.4-0.6,1.4-1.4c0-2.3,2.1-4.2,4.6-4.2c2.6,0,4.6,1.9,4.6,4.2c0,2.9-2.1,4.2-5.5,6.1
			c-3.1,1.7-6.6,3.6-6.6,7.9c0,0.8,0.6,1.4,1.4,1.4h12.1c0.8,0,1.4-0.6,1.4-1.4C57.3,51.1,56.6,50.4,55.9,50.4z"/>
	</defs>
	<clipPath id="SVGID_6_">
		<use xlink:href="#SVGID_5_"  style="overflow:visible;"/>
	</clipPath>
	<rect x="29.1" y="17.5" class="st2" width="41.5" height="49"/>
</g>
<g>
	<defs>
		<path id="SVGID_7_" d="M85.8,67.1l-2.8,0.6c6.7-6.5,10.5-15.4,10.5-24.9C93.6,23.6,78,8,58.9,8C47.6,8,37,13.6,30.5,22.8
			c-0.5,0.6-0.3,1.5,0.3,2c0.6,0.5,1.5,0.3,2-0.3c6-8.5,15.7-13.5,26.1-13.5c17.6,0,31.9,14.3,31.9,31.9c0,8.8-3.6,17.1-9.9,23.1
			l0.6-3.2c0.2-0.8-0.3-1.5-1.1-1.7c-0.8-0.2-1.5,0.3-1.7,1.1l-1.5,7.6c-0.1,0.5,0.1,0.9,0.4,1.3c0.3,0.3,0.6,0.4,1,0.4
			c0.1,0,0.2,0,0.3,0l7.6-1.5c0.8-0.2,1.3-0.9,1.1-1.7C87.4,67.4,86.6,66.9,85.8,67.1z"/>
	</defs>
	<clipPath id="SVGID_8_">
		<use xlink:href="#SVGID_7_"  style="overflow:visible;"/>
	</clipPath>
	<rect x="17" y="-5.2" class="st3" width="89.9" height="89.9"/>
</g>
<g>
	<defs>
		<path id="SVGID_9_" d="M58.9,14.1c-0.8,0-1.4,0.6-1.4,1.4v3c0,0.8,0.6,1.4,1.4,1.4c0.8,0,1.4-0.6,1.4-1.4v-3
			C60.3,14.7,59.7,14.1,58.9,14.1z"/>
	</defs>
	<clipPath id="SVGID_10_">
		<use xlink:href="#SVGID_9_"  style="overflow:visible;"/>
	</clipPath>
	<rect x="44.2" y="0.8" class="st4" width="29.4" height="32.4"/>
</g>
<g>
	<defs>
		<path id="SVGID_11_" d="M86.1,41.3h-3c-0.8,0-1.4,0.6-1.4,1.4c0,0.8,0.6,1.4,1.4,1.4h3c0.8,0,1.4-0.6,1.4-1.4
			C87.5,42,86.9,41.3,86.1,41.3z"/>
	</defs>
	<clipPath id="SVGID_12_">
		<use xlink:href="#SVGID_11_"  style="overflow:visible;"/>
	</clipPath>
	<rect x="68.4" y="28.1" class="st5" width="32.4" height="29.4"/>
</g>
<g>
	<defs>
		<path id="SVGID_13_" d="M38.6,29.4L36,27.9c-0.7-0.4-1.5-0.2-1.9,0.5c-0.4,0.7-0.2,1.5,0.5,1.9l2.6,1.5c0.2,0.1,0.5,0.2,0.7,0.2
			c0.5,0,1-0.3,1.2-0.7C39.5,30.7,39.3,29.8,38.6,29.4z"/>
	</defs>
	<clipPath id="SVGID_14_">
		<use xlink:href="#SVGID_13_"  style="overflow:visible;"/>
	</clipPath>
	<rect x="20.6" y="14.5" class="st6" width="32" height="30.9"/>
</g>
<g>
	<defs>
		<path id="SVGID_15_" d="M83.2,55.2l-2.6-1.5c-0.7-0.4-1.5-0.2-1.9,0.5c-0.4,0.7-0.2,1.5,0.5,1.9l2.6,1.5c0.2,0.1,0.5,0.2,0.7,0.2
			c0.5,0,1-0.3,1.2-0.7C84.1,56.4,83.9,55.5,83.2,55.2z"/>
	</defs>
	<clipPath id="SVGID_16_">
		<use xlink:href="#SVGID_15_"  style="overflow:visible;"/>
	</clipPath>
	<rect x="65.2" y="40.2" class="st7" width="32" height="30.9"/>
</g>
<g>
	<defs>
		<path id="SVGID_17_" d="M73.2,17.9c-0.7-0.4-1.5-0.2-1.9,0.5l-1.5,2.6c-0.4,0.7-0.2,1.5,0.5,1.9c0.2,0.1,0.5,0.2,0.7,0.2
			c0.5,0,1-0.3,1.2-0.7l1.5-2.6C74.1,19.2,73.9,18.3,73.2,17.9z"/>
	</defs>
	<clipPath id="SVGID_18_">
		<use xlink:href="#SVGID_17_"  style="overflow:visible;"/>
	</clipPath>
	<rect x="56.3" y="4.5" class="st8" width="30.9" height="32"/>
</g>
<g>
	<defs>
		<path id="SVGID_19_" d="M47.5,62.5c-0.7-0.4-1.5-0.2-1.9,0.5L44,65.6c-0.4,0.7-0.2,1.5,0.5,1.9c0.2,0.1,0.5,0.2,0.7,0.2
			c0.5,0,1-0.3,1.2-0.7l1.5-2.6C48.4,63.8,48.2,62.9,47.5,62.5z"/>
	</defs>
	<clipPath id="SVGID_20_">
		<use xlink:href="#SVGID_19_"  style="overflow:visible;"/>
	</clipPath>
	<rect x="30.6" y="49.1" class="st9" width="30.9" height="32"/>
</g>
<g>
	<defs>
		<path id="SVGID_21_" d="M83.7,28.4c-0.4-0.7-1.3-0.9-1.9-0.5l-2.6,1.5c-0.7,0.4-0.9,1.3-0.5,1.9c0.3,0.5,0.7,0.7,1.2,0.7
			c0.2,0,0.5-0.1,0.7-0.2l2.6-1.5C83.9,30,84.1,29.1,83.7,28.4z"/>
	</defs>
	<clipPath id="SVGID_22_">
		<use xlink:href="#SVGID_21_"  style="overflow:visible;"/>
	</clipPath>
	<rect x="65.2" y="14.5" class="st10" width="32" height="30.9"/>
</g>
<g>
	<defs>
		<path id="SVGID_23_" d="M39.1,54.2c-0.4-0.7-1.3-0.9-1.9-0.5l-2.6,1.5c-0.7,0.4-0.9,1.3-0.5,1.9c0.3,0.5,0.7,0.7,1.2,0.7
			c0.2,0,0.5-0.1,0.7-0.2l2.6-1.5C39.3,55.7,39.5,54.8,39.1,54.2z"/>
	</defs>
	<clipPath id="SVGID_24_">
		<use xlink:href="#SVGID_23_"  style="overflow:visible;"/>
	</clipPath>
	<rect x="20.6" y="40.2" class="st11" width="32" height="30.9"/>
</g>
<g>
	<defs>
		<path id="SVGID_25_" d="M48,21.1l-1.5-2.6c-0.4-0.7-1.3-0.9-1.9-0.5c-0.7,0.4-0.9,1.3-0.5,1.9l1.5,2.6c0.3,0.5,0.7,0.7,1.2,0.7
			c0.2,0,0.5-0.1,0.7-0.2C48.2,22.6,48.4,21.8,48,21.1z"/>
	</defs>
	<clipPath id="SVGID_26_">
		<use xlink:href="#SVGID_25_"  style="overflow:visible;"/>
	</clipPath>
	<rect x="30.6" y="4.5" class="st12" width="30.9" height="32"/>
</g>
<g>
	<defs>
		<path id="SVGID_27_" d="M73.7,65.6L72.2,63c-0.4-0.7-1.3-0.9-1.9-0.5c-0.7,0.4-0.9,1.3-0.5,1.9l1.5,2.6c0.3,0.5,0.7,0.7,1.2,0.7
			c0.2,0,0.5-0.1,0.7-0.2C73.9,67.2,74.1,66.3,73.7,65.6z"/>
	</defs>
	<clipPath id="SVGID_28_">
		<use xlink:href="#SVGID_27_"  style="overflow:visible;"/>
	</clipPath>
	<rect x="56.3" y="49.1" class="st13" width="30.9" height="32"/>
</g>
</svg>
