<?xml version="1.0" encoding="utf-8"?>
<!-- Generator: Adobe Illustrator 19.0.0, SVG Export Plug-In . SVG Version: 6.00 Build 0)  -->
<svg version="1.1" id="Layer_1" xmlns="http://www.w3.org/2000/svg" xmlns:xlink="http://www.w3.org/1999/xlink" x="0px" y="0px"
	 viewBox="0 0 100 100" style="enable-background:new 0 0 100 100;" xml:space="preserve">
<style type="text/css">
	.st0{clip-path:url(#SVGID_2_);fill:#E22F0A;}
	.st1{clip-path:url(#SVGID_4_);fill:#E22F0A;}
	.st2{clip-path:url(#SVGID_6_);fill:#E22F0A;}
	.st3{clip-path:url(#SVGID_8_);fill:#E22F0A;}
	.st4{clip-path:url(#SVGID_10_);fill:#E22F0A;}
</style>
<g>
	<defs>
		<path id="SVGID_1_" d="M91.3,67.2h-1.6c-0.9,0-1.6-0.7-1.6-1.6V64h3.1L91.3,67.2L91.3,67.2z M79.4,84.9c-3.3,0-6-2.7-6-6
			c0-3.3,2.7-6,6-6s6,2.7,6,6C85.4,82.2,82.7,84.9,79.4,84.9z M30.7,84.9c-3.3,0-6-2.7-6-6c0-3.3,2.7-6,6-6c3.3,0,6,2.7,6,6
			C36.7,82.2,34,84.9,30.7,84.9z M70.5,55.4v-9h12.3l2.3,9H70.5z M70.5,40.4h10.4c1.7,0,3,1.4,3,3v0.1H70.5V40.4z M43.4,28.7
			c1.4-4.3,3.5-10.2,4.8-11.9c1.2-1.6,3.5-1.9,5.1-0.7c1.6,1.2,1.9,3.5,0.7,5.1c-0.5,0.6-2.1,2.2-7.6,5.6
			C45.4,27.5,44.4,28.2,43.4,28.7z M35.6,26.8c-5.5-3.4-7.1-4.9-7.6-5.6c-1.2-1.6-0.9-3.9,0.7-5.1c0.7-0.5,1.4-0.8,2.2-0.8
			c1.1,0,2.2,0.5,2.9,1.4c1.3,1.8,3.4,7.7,4.8,11.9C37.7,28.2,36.7,27.5,35.6,26.8z M87.9,55.5l-2.3-9.1c0.6-0.1,1.1-0.7,1.1-1.4
			v-1.5c0-3.2-2.6-5.8-5.8-5.8H70.5v-3c0-1.6-1.3-2.9-2.9-2.9H48.2L60,27.1c0.7-0.3,1.1-1.1,0.8-1.8c-0.3-0.7-1.1-1.1-1.8-0.8
			l-9.6,3.9c2.9-1.9,5.8-4,6.9-5.4c2.2-2.8,1.6-6.9-1.2-9c-2.8-2.2-6.9-1.6-9,1.2c-1.6,2.1-3.6,7.9-5,11.9c-1.3-4.1-3.4-9.9-5-11.9
			c-2.2-2.8-6.2-3.4-9-1.2c-2.8,2.2-3.4,6.2-1.2,9c1.1,1.5,4,3.5,6.9,5.4l-9.6-3.9c-0.7-0.3-1.5,0.1-1.8,0.8
			c-0.3,0.7,0.1,1.5,0.8,1.8l11.8,4.7H14.5c-1.6,0-2.9,1.3-2.9,2.9v25.1c0,0.8,0.6,1.4,1.4,1.4c0.8,0,1.4-0.6,1.4-1.4V34.6
			c0-0.1,0-0.1,0.1-0.1h53.1c0.1,0,0.1,0,0.1,0.1v25.1c0,0.8,0.6,1.4,1.4,1.4c0.8,0,1.4-0.6,1.4-1.4v-1.6h16.3c0,0,0,0,0,0
			c0,0,0,0,0,0c2,0,3.7,1.3,4.3,3.1h-4.3c-0.8,0-1.4,0.6-1.4,1.4v2.9c0,2.4,1.9,4.3,4.3,4.3h1.6V76h-3.6c-1.2-3.4-4.4-5.9-8.3-5.9
			c-3.8,0-7.1,2.5-8.3,5.9h-0.7V65.6c0-0.8-0.6-1.4-1.4-1.4c-0.8,0-1.4,0.6-1.4,1.4V76H39c-1.2-3.4-4.4-5.9-8.3-5.9
			s-7.1,2.5-8.3,5.9h-7.9c-0.1,0-0.1,0-0.1-0.1v-3h6c0.8,0,1.4-0.6,1.4-1.4s-0.6-1.4-1.4-1.4H7.1c-0.8,0-1.4,0.6-1.4,1.4
			s0.6,1.4,1.4,1.4h4.5v3c0,1.6,1.3,2.9,2.9,2.9H22c0,0,0,0.1,0,0.1c0,4.8,3.9,8.8,8.8,8.8c4.8,0,8.8-3.9,8.8-8.8c0,0,0-0.1,0-0.1
			h31.2c0,0,0,0.1,0,0.1c0,4.8,3.9,8.8,8.8,8.8s8.8-3.9,8.8-8.8c0,0,0-0.1,0-0.1h4.5c0.8,0,1.4-0.6,1.4-1.4V62.6
			C94.1,59,91.4,56,87.9,55.5z"/>
	</defs>
	<clipPath id="SVGID_2_">
		<use xlink:href="#SVGID_1_"  style="overflow:visible;"/>
	</clipPath>
	<rect x="-6" y="0.8" class="st0" width="111.8" height="98.5"/>
</g>
<g>
	<defs>
		<circle id="SVGID_3_" cx="30.7" cy="78.9" r="2.9"/>
	</defs>
	<clipPath id="SVGID_4_">
		<use xlink:href="#SVGID_3_"  style="overflow:visible;"/>
	</clipPath>
	<rect x="16.1" y="64.3" class="st1" width="29.2" height="29.2"/>
</g>
<g>
	<defs>
		<circle id="SVGID_5_" cx="79.4" cy="78.9" r="2.9"/>
	</defs>
	<clipPath id="SVGID_6_">
		<use xlink:href="#SVGID_5_"  style="overflow:visible;"/>
	</clipPath>
	<rect x="64.8" y="64.3" class="st2" width="29.2" height="29.2"/>
</g>
<g>
	<defs>
		<path id="SVGID_7_" d="M63.2,70.1H42.5c-0.8,0-1.4,0.6-1.4,1.4s0.6,1.4,1.4,1.4h20.6c0.8,0,1.4-0.6,1.4-1.4S63.9,70.1,63.2,70.1z"
			/>
	</defs>
	<clipPath id="SVGID_8_">
		<use xlink:href="#SVGID_7_"  style="overflow:visible;"/>
	</clipPath>
	<rect x="29.4" y="58.4" class="st3" width="46.9" height="26.3"/>
</g>
<g>
	<defs>
		<path id="SVGID_9_" d="M27.8,64.2H10.1c-0.8,0-1.4,0.6-1.4,1.4S9.3,67,10.1,67h17.7c0.8,0,1.4-0.6,1.4-1.4S28.5,64.2,27.8,64.2z"
			/>
	</defs>
	<clipPath id="SVGID_10_">
		<use xlink:href="#SVGID_9_"  style="overflow:visible;"/>
	</clipPath>
	<rect x="-3.1" y="52.5" class="st4" width="44" height="26.3"/>
</g>
</svg>
