<?xml version="1.0" encoding="utf-8"?>
<!-- Generator: Adobe Illustrator 19.0.0, SVG Export Plug-In . SVG Version: 6.00 Build 0)  -->
<svg version="1.1" id="Layer_1" xmlns="http://www.w3.org/2000/svg" xmlns:xlink="http://www.w3.org/1999/xlink" x="0px" y="0px"
	 viewBox="0 0 100 100" style="enable-background:new 0 0 100 100;" xml:space="preserve">
<style type="text/css">
	.st0{clip-path:url(#SVGID_2_);fill:#E22F0A;}
	.st1{clip-path:url(#SVGID_4_);fill:#E22F0A;}
	.st2{clip-path:url(#SVGID_6_);fill:#E22F0A;}
	.st3{clip-path:url(#SVGID_8_);fill:#E22F0A;}
	.st4{clip-path:url(#SVGID_10_);fill:#E22F0A;}
	.st5{clip-path:url(#SVGID_12_);fill:#E22F0A;}
	.st6{clip-path:url(#SVGID_14_);fill:#E22F0A;}
	.st7{clip-path:url(#SVGID_16_);fill:#E22F0A;}
	.st8{clip-path:url(#SVGID_18_);fill:#E22F0A;}
	.st9{clip-path:url(#SVGID_20_);fill:#E22F0A;}
	.st10{clip-path:url(#SVGID_22_);fill:#E22F0A;}
	.st11{clip-path:url(#SVGID_24_);fill:#E22F0A;}
</style>
<g>
	<defs>
		<path id="SVGID_1_" d="M58.2,74.9c-18,0-32.7-14.7-32.7-32.7c0-18,14.7-32.7,32.7-32.7s32.7,14.7,32.7,32.7S76.2,74.9,58.2,74.9z
			 M58.2,6.2c-19.9,0-36.1,16.2-36.1,36.1s16.2,36.1,36.1,36.1s36.1-16.2,36.1-36.1S78.1,6.2,58.2,6.2z"/>
	</defs>
	<clipPath id="SVGID_2_">
		<use xlink:href="#SVGID_1_"  style="overflow:visible;"/>
	</clipPath>
	<rect x="7.8" y="-8.1" class="st0" width="100.8" height="100.8"/>
</g>
<g>
	<defs>
		<path id="SVGID_3_" d="M59.9,56.8V44.5c6.9,2,9.3,3.9,9.3,6.9C69.1,53.7,65.4,56.3,59.9,56.8z M56.5,40c-6.9-2-9.3-3.9-9.3-6.9
			c0-2.3,3.7-4.9,9.3-5.4V40z M59.9,41V27.7c5.5,0.4,9.3,3,9.3,5.4c0,0.9,0.8,1.7,1.7,1.7c0.9,0,1.7-0.8,1.7-1.7
			c0-4.6-5.4-8.3-12.7-8.8v-2c0-0.9-0.8-1.7-1.7-1.7c-0.9,0-1.7,0.8-1.7,1.7v2c-7.2,0.5-12.7,4.2-12.7,8.8c0,6.2,5.8,8.6,12.7,10.5
			v13.2c-5.5-0.4-9.3-3-9.3-5.4c0-0.9-0.8-1.7-1.7-1.7c-0.9,0-1.7,0.8-1.7,1.7c0,4.6,5.4,8.3,12.7,8.8v2c0,0.9,0.8,1.7,1.7,1.7
			c0.9,0,1.7-0.8,1.7-1.7v-2c7.2-0.5,12.7-4.2,12.7-8.8C72.5,45.3,66.7,42.9,59.9,41z"/>
	</defs>
	<clipPath id="SVGID_4_">
		<use xlink:href="#SVGID_3_"  style="overflow:visible;"/>
	</clipPath>
	<rect x="29.5" y="6.3" class="st1" width="57.4" height="71.9"/>
</g>
<g>
	<defs>
		<path id="SVGID_5_" d="M51.2,90.7c-0.6-0.1-1.2-0.2-1.7-0.3c-0.9-0.2-1.8,0.4-2,1.4c-0.2,0.9,0.4,1.8,1.4,2
			c0.6,0.1,1.2,0.2,1.8,0.3c0.1,0,0.2,0,0.2,0c0.8,0,1.6-0.6,1.7-1.5C52.8,91.7,52.1,90.8,51.2,90.7z"/>
	</defs>
	<clipPath id="SVGID_6_">
		<use xlink:href="#SVGID_5_"  style="overflow:visible;"/>
	</clipPath>
	<rect x="33.1" y="76.1" class="st2" width="33.9" height="32.4"/>
</g>
<g>
	<defs>
		<path id="SVGID_7_" d="M42.9,88.8c-1.1-0.4-2.1-0.7-3.2-1.2c-0.9-0.4-1.9,0.1-2.2,0.9c-0.4,0.9,0.1,1.9,0.9,2.2
			c1.1,0.5,2.3,0.9,3.4,1.2c0.2,0.1,0.4,0.1,0.5,0.1c0.7,0,1.4-0.5,1.6-1.2C44.3,90,43.8,89.1,42.9,88.8z"/>
	</defs>
	<clipPath id="SVGID_8_">
		<use xlink:href="#SVGID_7_"  style="overflow:visible;"/>
	</clipPath>
	<rect x="23" y="73.1" class="st3" width="35.4" height="33.3"/>
</g>
<g>
	<defs>
		<path id="SVGID_9_" d="M10.4,52.7c-0.2-1.1-0.4-2.2-0.6-3.3c-0.1-0.9-1-1.6-1.9-1.4c-0.9,0.1-1.6,1-1.4,1.9
			c0.2,1.2,0.4,2.4,0.6,3.6c0.2,0.8,0.9,1.3,1.7,1.3c0.1,0,0.2,0,0.4,0C10,54.6,10.6,53.7,10.4,52.7z"/>
	</defs>
	<clipPath id="SVGID_10_">
		<use xlink:href="#SVGID_9_"  style="overflow:visible;"/>
	</clipPath>
	<rect x="-8" y="33.6" class="st4" width="32.7" height="35.5"/>
</g>
<g>
	<defs>
		<path id="SVGID_11_" d="M9.8,27.2c-0.9-0.2-1.8,0.3-2.1,1.2c-0.3,1.2-0.6,2.3-0.8,3.5c-0.2,0.9,0.4,1.8,1.3,2c0.1,0,0.2,0,0.3,0
			c0.8,0,1.5-0.6,1.7-1.4c0.2-1.1,0.5-2.2,0.8-3.3C11.2,28.4,10.7,27.4,9.8,27.2z"/>
	</defs>
	<clipPath id="SVGID_12_">
		<use xlink:href="#SVGID_11_"  style="overflow:visible;"/>
	</clipPath>
	<rect x="-7.5" y="12.8" class="st5" width="32.9" height="35.5"/>
</g>
<g>
	<defs>
		<path id="SVGID_13_" d="M13.5,62.4c-0.5-1-0.9-2.1-1.3-3.1c-0.3-0.9-1.3-1.3-2.2-1c-0.9,0.3-1.3,1.3-1,2.2
			c0.4,1.1,0.9,2.3,1.4,3.3c0.3,0.6,0.9,1,1.5,1c0.2,0,0.5,0,0.7-0.2C13.5,64.2,13.9,63.2,13.5,62.4z"/>
	</defs>
	<clipPath id="SVGID_14_">
		<use xlink:href="#SVGID_13_"  style="overflow:visible;"/>
	</clipPath>
	<rect x="-5.4" y="43.8" class="st6" width="33.4" height="35.3"/>
</g>
<g>
	<defs>
		<path id="SVGID_15_" d="M7.7,37.5c-0.9-0.1-1.7,0.7-1.8,1.6c-0.1,1.1-0.1,2.1-0.1,3.2c0,0.1,0,0.3,0,0.4c0,0.9,0.8,1.7,1.7,1.7
			c0,0,0,0,0,0c0.9,0,1.7-0.8,1.7-1.7c0-0.1,0-0.3,0-0.4c0-1,0-2,0.1-3C9.4,38.3,8.7,37.5,7.7,37.5z"/>
	</defs>
	<clipPath id="SVGID_16_">
		<use xlink:href="#SVGID_15_"  style="overflow:visible;"/>
	</clipPath>
	<rect x="-8.5" y="23.1" class="st7" width="32.2" height="35.6"/>
</g>
<g>
	<defs>
		<path id="SVGID_17_" d="M33.6,84.6c-1-0.6-1.9-1.2-2.9-1.8c-0.8-0.5-1.8-0.3-2.4,0.5c-0.5,0.8-0.3,1.8,0.5,2.4
			c1,0.7,2,1.3,3.1,1.9c0.3,0.2,0.6,0.2,0.8,0.2c0.6,0,1.2-0.3,1.5-0.8C34.7,86.1,34.4,85.1,33.6,84.6z"/>
	</defs>
	<clipPath id="SVGID_18_">
		<use xlink:href="#SVGID_17_"  style="overflow:visible;"/>
	</clipPath>
	<rect x="13.8" y="68.2" class="st8" width="35" height="33.9"/>
</g>
<g>
	<defs>
		<path id="SVGID_19_" d="M18.6,71.1c-0.7-0.9-1.3-1.8-1.9-2.8c-0.5-0.8-1.5-1-2.3-0.5c-0.8,0.5-1,1.5-0.5,2.3c0.6,1,1.3,2,2,3
			c0.3,0.5,0.8,0.7,1.4,0.7c0.3,0,0.7-0.1,1-0.3C19,72.9,19.2,71.9,18.6,71.1z"/>
	</defs>
	<clipPath id="SVGID_20_">
		<use xlink:href="#SVGID_19_"  style="overflow:visible;"/>
	</clipPath>
	<rect x="-0.7" y="53.2" class="st9" width="34" height="35"/>
</g>
<g>
	<defs>
		<path id="SVGID_21_" d="M25.4,78.6c-0.8-0.8-1.7-1.5-2.4-2.4c-0.7-0.7-1.7-0.7-2.4,0c-0.7,0.7-0.7,1.7,0,2.4
			c0.8,0.9,1.7,1.7,2.6,2.5c0.3,0.3,0.7,0.4,1.1,0.4c0.5,0,0.9-0.2,1.3-0.6C26.2,80.3,26.1,79.3,25.4,78.6z"/>
	</defs>
	<clipPath id="SVGID_22_">
		<use xlink:href="#SVGID_21_"  style="overflow:visible;"/>
	</clipPath>
	<rect x="5.7" y="61.4" class="st10" width="34.6" height="34.5"/>
</g>
<g>
	<defs>
		<path id="SVGID_23_" d="M13.1,19c-0.8-0.4-1.9,0-2.3,0.8c-0.3,0.6-0.5,1.1-0.8,1.7c-0.4,0.9,0,1.9,0.9,2.2
			c0.2,0.1,0.4,0.1,0.7,0.1c0.7,0,1.3-0.4,1.6-1c0.2-0.5,0.5-1.1,0.7-1.6C14.3,20.4,14,19.4,13.1,19z"/>
	</defs>
	<clipPath id="SVGID_24_">
		<use xlink:href="#SVGID_23_"  style="overflow:visible;"/>
	</clipPath>
	<rect x="-4.4" y="4.5" class="st11" width="32.8" height="33.7"/>
</g>
</svg>
