<?xml version="1.0" encoding="utf-8"?>
<!-- Generator: Adobe Illustrator 19.0.0, SVG Export Plug-In . SVG Version: 6.00 Build 0)  -->
<svg version="1.1" id="Layer_1" xmlns="http://www.w3.org/2000/svg" xmlns:xlink="http://www.w3.org/1999/xlink" x="0px" y="0px"
	 viewBox="0 0 100 100" style="enable-background:new 0 0 100 100;" xml:space="preserve">
<style type="text/css">
	.st0{clip-path:url(#SVGID_2_);fill:#E22F0A;}
	.st1{clip-path:url(#SVGID_4_);fill:#E22F0A;}
	.st2{clip-path:url(#SVGID_6_);fill:#E22F0A;}
	.st3{clip-path:url(#SVGID_8_);fill:#E22F0A;}
</style>
<g>
	<defs>
		<path id="SVGID_1_" d="M93,50H51.6c-0.8,0-1.4,0.6-1.4,1.4c0,0.8,0.6,1.4,1.4,1.4H93v21.5c0,0.1,0,0.1-0.1,0.1H74.4v-0.1
			c0-2-1.3-3.7-3.1-4.3v-3.4c0-0.8-0.6-1.4-1.4-1.4c-0.8,0-1.4,0.6-1.4,1.4v3.4c-1.8,0.6-3.1,2.3-3.1,4.3v0.1H39.3v-9.3
			c0-0.8-0.6-1.4-1.4-1.4c-0.8,0-1.4,0.6-1.4,1.4v9.3H7.3c-0.1,0-0.1,0-0.1-0.1V52.8h16.9c0.8,0,1.4-0.6,1.4-1.4
			c0-0.8-0.6-1.4-1.4-1.4H7.2V28.5c0-0.1,0-0.1,0.1-0.1h29.1v9.3c0,0.8,0.6,1.4,1.4,1.4c0.8,0,1.4-0.6,1.4-1.4v-9.3h26.2v0.1
			c0,2,1.3,3.7,3.1,4.3v3.4c0,0.8,0.6,1.4,1.4,1.4c0.8,0,1.4-0.6,1.4-1.4v-3.4c1.8-0.6,3.1-2.3,3.1-4.3v-0.1h18.4
			c0.1,0,0.1,0,0.1,0.1L93,50L93,50z M92.9,25.5H73c-0.8,0-1.4,0.6-1.4,1.4v1.5c0,0.9-0.7,1.6-1.6,1.6c-0.9,0-1.6-0.7-1.6-1.6V27
			c0-0.8-0.6-1.4-1.4-1.4H7.3c-1.6,0-3,1.3-3,3v45.8c0,1.6,1.3,3,3,3h59.6c0.8,0,1.4-0.6,1.4-1.4v-1.5c0-0.9,0.7-1.6,1.6-1.6
			c0.9,0,1.6,0.7,1.6,1.6v1.5c0,0.8,0.6,1.4,1.4,1.4h19.9c1.6,0,3-1.3,3-3V28.5C95.8,26.8,94.5,25.5,92.9,25.5z"/>
	</defs>
	<clipPath id="SVGID_2_">
		<use xlink:href="#SVGID_1_"  style="overflow:visible;"/>
	</clipPath>
	<rect x="-3.8" y="17.4" class="st0" width="107.7" height="68"/>
</g>
<g>
	<defs>
		<path id="SVGID_3_" d="M69.9,40.8c-0.8,0-1.4,0.6-1.4,1.4v3.1c0,0.8,0.6,1.4,1.4,1.4c0.8,0,1.4-0.6,1.4-1.4v-3.1
			C71.4,41.4,70.7,40.8,69.9,40.8z"/>
	</defs>
	<clipPath id="SVGID_4_">
		<use xlink:href="#SVGID_3_"  style="overflow:visible;"/>
	</clipPath>
	<rect x="60.4" y="32.7" class="st1" width="19.1" height="22.1"/>
</g>
<g>
	<defs>
		<path id="SVGID_5_" d="M69.9,56.1c-0.8,0-1.4,0.6-1.4,1.4v3.1c0,0.8,0.6,1.4,1.4,1.4c0.8,0,1.4-0.6,1.4-1.4v-3.1
			C71.4,56.7,70.7,56.1,69.9,56.1z"/>
	</defs>
	<clipPath id="SVGID_6_">
		<use xlink:href="#SVGID_5_"  style="overflow:visible;"/>
	</clipPath>
	<rect x="60.4" y="48" class="st2" width="19.1" height="22.1"/>
</g>
<g>
	<defs>
		<path id="SVGID_7_" d="M50.5,64c-0.8,0.8-1.8,1.2-2.9,1.2s-2.1-0.4-2.9-1.2c-2-2-3.8-7.2-4.8-10.6c3.4,1,8.6,2.8,10.6,4.8
			c0.8,0.8,1.2,1.8,1.2,2.9S51.3,63.3,50.5,64z M44.7,38.8c0.8-0.8,1.8-1.2,2.9-1.2c1.1,0,2.1,0.4,2.9,1.2c0.8,0.8,1.2,1.8,1.2,2.9
			c0,1.1-0.4,2.1-1.2,2.9c-2,2-7.2,3.8-10.6,4.8C40.8,46,42.6,40.8,44.7,38.8z M31,64c-0.8,0.8-1.8,1.2-2.9,1.2
			c-1.1,0-2.1-0.4-2.9-1.2c-0.8-0.8-1.2-1.8-1.2-2.9s0.4-2.1,1.2-2.9c2-2,7.2-3.8,10.6-4.8C34.9,56.8,33.1,62,31,64z M25.2,44.6
			c-0.8-0.8-1.2-1.8-1.2-2.9c0-1.1,0.4-2.1,1.2-2.9c0.8-0.8,1.8-1.2,2.9-1.2c1.1,0,2.1,0.4,2.9,1.2c2,2,3.8,7.2,4.8,10.6
			C32.4,48.4,27.3,46.6,25.2,44.6z M52.5,56.2c-2.1-2.1-6.1-3.7-9.4-4.8c3.3-1.1,7.3-2.7,9.4-4.8c1.3-1.3,2-3.1,2-4.9
			c0-1.9-0.7-3.6-2-4.9c-1.3-1.3-3.1-2-4.9-2c-1.9,0-3.6,0.7-4.9,2c-2.1,2.1-3.7,6.1-4.8,9.4c-1.1-3.3-2.7-7.3-4.8-9.4
			c-1.3-1.3-3.1-2-4.9-2c-1.9,0-3.6,0.7-4.9,2c-1.3,1.3-2,3.1-2,4.9c0,1.9,0.7,3.6,2,4.9c2.1,2.1,6.1,3.7,9.4,4.8
			c-3.3,1.1-7.3,2.7-9.4,4.8c-1.3,1.3-2,3.1-2,4.9c0,1.9,0.7,3.6,2,4.9c1.3,1.3,3.1,2,4.9,2c1.9,0,3.6-0.7,4.9-2
			c2.1-2.1,3.7-6.1,4.8-9.4c1.1,3.3,2.7,7.3,4.8,9.4c1.3,1.3,3.1,2,4.9,2c1.9,0,3.6-0.7,4.9-2c1.3-1.3,2-3.1,2-4.9
			C54.6,59.3,53.8,57.5,52.5,56.2z"/>
	</defs>
	<clipPath id="SVGID_8_">
		<use xlink:href="#SVGID_7_"  style="overflow:visible;"/>
	</clipPath>
	<rect x="13" y="26.6" class="st3" width="49.6" height="49.6"/>
</g>
</svg>
