<?xml version="1.0" encoding="utf-8"?>
<!-- Generator: Adobe Illustrator 19.0.0, SVG Export Plug-In . SVG Version: 6.00 Build 0)  -->
<svg version="1.1" id="Layer_1" xmlns="http://www.w3.org/2000/svg" xmlns:xlink="http://www.w3.org/1999/xlink" x="0px" y="0px"
	 viewBox="0 0 100 100" style="enable-background:new 0 0 100 100;" xml:space="preserve">
<style type="text/css">
	.st0{clip-path:url(#SVGID_2_);fill:#527FA2;}
	.st1{clip-path:url(#SVGID_4_);fill:#467593;}
	.st2{clip-path:url(#SVGID_6_);fill:#416B82;}
	.st3{clip-path:url(#SVGID_8_);fill:#FFFFFF;}
	.st4{clip-path:url(#SVGID_10_);fill:#FFFFFF;}
	.st5{clip-path:url(#SVGID_12_);fill:#FFFFFF;}
</style>
<g>
	<defs>
		<circle id="SVGID_1_" cx="49.1" cy="49.1" r="37.4"/>
	</defs>
	<clipPath id="SVGID_2_">
		<use xlink:href="#SVGID_1_"  style="overflow:visible;"/>
	</clipPath>
	<rect x="0" class="st0" width="98.2" height="98.2"/>
</g>
<g>
	<defs>
		<path id="SVGID_3_" d="M75.6,22.6c14.6,14.6,14.6,38.3,0,52.9c-14.6,14.6-38.3,14.6-52.9,0L75.6,22.6z"/>
	</defs>
	<clipPath id="SVGID_4_">
		<use xlink:href="#SVGID_3_"  style="overflow:visible;"/>
	</clipPath>
	<rect x="11" y="11" class="st1" width="87.3" height="87.3"/>
</g>
<g>
	<defs>
		<path id="SVGID_5_" d="M86.4,52.6L65.8,32l-1.4,1.4l-2.7-2.7l-2.5,2.5L57,30.9l-8.8,8.8l-9.4-9.4l-0.9,0.9l0.7,0.7l-0.4,0.4
			l-1.9-1.9l-1,1l0.9,0.9l-0.9,0.9l-1.7-1.7l-2,2l1.8,1.8l-1.8,1.8l0.6,0.6l-0.6,0.6l1.5,1.5l-3.1,3.1l7.5,7.5L36,51.9l4.9,4.9
			L31.8,66l20.4,20.4C70.3,84.9,84.7,70.6,86.4,52.6z"/>
	</defs>
	<clipPath id="SVGID_6_">
		<use xlink:href="#SVGID_5_"  style="overflow:visible;"/>
	</clipPath>
	<rect x="18.4" y="18.7" class="st2" width="79.6" height="79.4"/>
</g>
<g>
	<defs>
		<path id="SVGID_7_" d="M68.3,44.1c-3.6,0-7.3,0-10.9,0c4.3,7-0.6,16.2-9.4,15.4c-5.4-0.5-10.3-6.3-8.1-12.9
			c0.1-0.4,0.4-0.9,0.7-1.3c0.2-0.4,0.6-0.9,0.5-1.2c-3.6,0-10.8,0-10.8,0v18c0.4,3.5,3.1,6.3,6.7,6.6h12.4h12.4
			c3.6-0.4,6.3-3.4,6.6-6.5C68.3,62.1,68.3,47.2,68.3,44.1z"/>
	</defs>
	<clipPath id="SVGID_8_">
		<use xlink:href="#SVGID_7_"  style="overflow:visible;"/>
	</clipPath>
	<rect x="18.5" y="32.4" class="st3" width="61.5" height="48"/>
</g>
<g>
	<defs>
		<path id="SVGID_9_" d="M54.7,51.1c-0.6,2.6-3.5,4.5-6.4,4.1c-2.8-0.4-5.9-3.9-4.2-7.8c0.6-1.4,2-3.1,4.8-3.3
			C52.4,43.9,55.7,47,54.7,51.1z M48.3,42.3c-1.5,0.2-2.3,0.5-3,0.9c-1.7,1-3.3,2.9-3.5,5.4c-0.6,5.1,3.2,8.6,7.5,8.6
			c3.4,0,7.6-2.4,7.6-7.6C56.7,45,53,41.7,48.3,42.3z"/>
	</defs>
	<clipPath id="SVGID_10_">
		<use xlink:href="#SVGID_9_"  style="overflow:visible;"/>
	</clipPath>
	<rect x="30" y="30.5" class="st4" width="38.5" height="38.4"/>
</g>
<g>
	<defs>
		<path id="SVGID_11_" d="M64.6,38.8c0,0.5-0.4,1-1,1h-4.1c-0.5,0-1-0.4-1-1v-4.1c0-0.5,0.4-1,1-1h4.1c0.5,0,1,0.4,1,1V38.8z
			 M66.2,32.5c-1-1-2.7-2-4.6-2.1H49.3h0h-8.9V40h-1.6v-9.7h-1V40h-1.6v-9.6c-0.4,0.1-0.7,0.2-1,0.3V40h-1.6v-8.6
			c-0.5,0.3-0.9,0.7-1.3,1c-2.1,2.1-2.3,5.7-2.1,10.3H42c0.5-0.1,1.1-0.7,1.5-1c1.6-1.2,3.6-1.8,5.7-1.8h0.1c2.1,0,4.1,0.7,5.7,1.8
			c0.4,0.3,1,0.9,1.5,1h11.8C68.4,38.2,68.3,34.6,66.2,32.5z"/>
	</defs>
	<clipPath id="SVGID_12_">
		<use xlink:href="#SVGID_11_"  style="overflow:visible;"/>
	</clipPath>
	<rect x="18.4" y="18.7" class="st5" width="61.6" height="35.9"/>
</g>
</svg>
