<?xml version="1.0" encoding="utf-8"?>
<!-- Generator: Adobe Illustrator 19.0.0, SVG Export Plug-In . SVG Version: 6.00 Build 0)  -->
<svg version="1.1" id="Layer_1" xmlns="http://www.w3.org/2000/svg" xmlns:xlink="http://www.w3.org/1999/xlink" x="0px" y="0px"
	 viewBox="0 0 100 100" style="enable-background:new 0 0 100 100;" xml:space="preserve">
<style type="text/css">
	.st0{clip-path:url(#SVGID_2_);fill:#FFFFFF;}
</style>
<g>
	<defs>
		<path id="SVGID_1_" d="M50,54.9c-8.6,0-15.6-7-15.6-15.6c0-8.6,7-15.6,15.6-15.6s15.6,7,15.6,15.6C65.6,47.9,58.6,54.9,50,54.9z
			 M50,9.1c-16.6,0-30.1,13.5-30.1,30.1c0,4.3,0.9,8.5,2.6,12.3C30,68,44.5,85.4,48.7,90.4C49,90.8,49.5,91,50,91
			c0.5,0,1-0.2,1.3-0.6C55.5,85.4,70,68,77.5,51.6c1.7-3.8,2.6-8,2.6-12.3C80.1,22.7,66.6,9.1,50,9.1z"/>
	</defs>
	<clipPath id="SVGID_2_">
		<use xlink:href="#SVGID_1_"  style="overflow:visible;"/>
	</clipPath>
	<rect x="-14.3" y="-25" class="st0" width="128.6" height="150.2"/>
</g>
</svg>
