<?xml version="1.0" encoding="utf-8"?>
<!-- Generator: Adobe Illustrator 19.0.0, SVG Export Plug-In . SVG Version: 6.00 Build 0)  -->
<svg version="1.1" id="Layer_1" xmlns="http://www.w3.org/2000/svg" xmlns:xlink="http://www.w3.org/1999/xlink" x="0px" y="0px"
	 viewBox="0 0 100 100" style="enable-background:new 0 0 100 100;" xml:space="preserve">
<style type="text/css">
	.st0{fill:none;}
	.st1{fill:#2367B2;}
</style>
<g id="XMLID_1_">
	<path id="XMLID_15_" class="st0" d="M24.2,44.3c-2.2,0-3.9,1.7-3.9,3.9v36.3c0,2.1,1.8,3.9,3.9,3.9h51.7c2.2,0,3.9-1.7,3.9-3.9
		V48.2c0-2.1-1.8-3.9-3.9-3.9H24.2z M53.5,72.8v4.4c0,1.9-1.5,3.4-3.5,3.4s-3.5-1.5-3.5-3.4v-4.4c-4.3-1.4-7.4-5.4-7.4-10.1
		C39.2,56.8,44,52,50,52s10.8,4.8,10.8,10.7C60.8,67.4,57.7,71.4,53.5,72.8z"/>
	<path id="XMLID_16_" class="st0" d="M50,58.9c-2.2,0-3.9,1.7-3.9,3.9c0,2.1,1.8,3.9,3.9,3.9s3.9-1.7,3.9-3.9
		C53.9,60.6,52.2,58.9,50,58.9z"/>
	<path id="XMLID_17_" class="st0" d="M50,11.6c-12.3,0-22.4,9.9-22.4,22v3.9h44.7v-3.9C72.4,21.5,62.3,11.6,50,11.6z"/>
	<path id="XMLID_20_" class="st1" d="M50,4.8c-16.1,0-29.3,12.9-29.3,28.8v4.4c-4.3,1.4-7.4,5.4-7.4,10.1v36.3
		c0,5.9,4.9,10.7,10.8,10.7h51.7c6,0,10.8-4.8,10.8-10.7V48.2c0-4.7-3.1-8.7-7.4-10.1v-4.4C79.3,17.7,66.1,4.8,50,4.8z M79.8,48.2
		v36.3c0,2.1-1.8,3.9-3.9,3.9H24.2c-2.2,0-3.9-1.7-3.9-3.9V48.2c0-2.1,1.8-3.9,3.9-3.9h51.7C78,44.3,79.8,46.1,79.8,48.2z
		 M72.4,33.7v3.9H27.6v-3.9c0-12.1,10-22,22.4-22S72.4,21.5,72.4,33.7z"/>
	<path id="XMLID_24_" class="st1" d="M50,52c-6,0-10.8,4.8-10.8,10.7c0,4.7,3.1,8.7,7.4,10.1v4.4c0,1.9,1.5,3.4,3.5,3.4
		s3.5-1.5,3.5-3.4v-4.4c4.3-1.4,7.4-5.4,7.4-10.1C60.8,56.8,56,52,50,52z M50,66.6c-2.2,0-3.9-1.7-3.9-3.9c0-2.1,1.8-3.9,3.9-3.9
		s3.9,1.7,3.9,3.9C53.9,64.8,52.2,66.6,50,66.6z"/>
</g>
</svg>
