<?xml version="1.0" encoding="utf-8"?>
<!-- Generator: Adobe Illustrator 19.0.0, SVG Export Plug-In . SVG Version: 6.00 Build 0)  -->
<svg version="1.1" id="Layer_1" xmlns="http://www.w3.org/2000/svg" xmlns:xlink="http://www.w3.org/1999/xlink" x="0px" y="0px"
	 viewBox="0 22.4 100 56.6" style="enable-background:new 0 22.4 100 56.6;" xml:space="preserve">
<style type="text/css">
	.st0{clip-path:url(#SVGID_2_);}
	.st1{fill:#FFFFFE;}
	.st2{fill:#E03827;}
	.st3{fill:#FFFFFF;}
	.st4{fill:#E03727;}
	.st5{fill:#E03C28;}
	.st6{fill:#E03927;}
	.st7{fill:#454345;}
	.st8{fill:#FFFEFD;}
	.st9{fill:#FEF9F8;}
	.st10{fill:#FFFCFA;}
	.st11{fill:#FEFBF9;}
	.st12{fill:#FEFDFD;}
	.st13{fill:#FEFDFC;}
	.st14{fill:#FCFBFB;}
	.st15{fill:#434244;}
	.st16{fill:#444345;}
</style>
<g>
	<g>
		<defs>
			<rect id="SVGID_1_" x="2.1" y="26.6" width="95.8" height="48.7"/>
		</defs>
		<clipPath id="SVGID_2_">
			<use xlink:href="#SVGID_1_"  style="overflow:visible;"/>
		</clipPath>
		<g id="XMLID_3_" class="st0">
			<path id="XMLID_128_" class="st1" d="M19.5,26.7c26.1,0,52.2,0,78.2,0c0.2,0,0.3,0.1,0.3,0.3c0,16.1,0,32.2,0,48.2
				c0,0.2-0.1,0.3-0.3,0.3c-31.8,0-63.5,0-95.3,0c-0.2,0-0.3-0.1-0.3-0.3c0-3.7,0-7.4,0-11c0.1,0,0.1,0.1,0.1,0.2
				c0.5,1.8,2.3,2.8,4,2.3C8,66.2,9,64.4,8.5,62.6c-0.1-0.2,0-0.4,0.1-0.5c1.1-1.1,2.1-2.1,3.2-3.2c0.2-0.2,0.2-0.3,0.2-0.6
				c0-0.5,0-0.9,0-1.4c0-0.2,0-0.2,0.2-0.2c0.5,0,1,0,1.5,0c0.3,0,0.4,0,0.4,0.3c0,1.8,0,3.5,0,5.3c0,0.4-0.1,0.7-0.3,0.9
				c-0.6,0.8-1.3,1.6-1.9,2.5c-0.1,0.1-0.2,0.2-0.4,0.1C9,65.4,7,67.6,7.7,70c0.4,1.3,1.3,2.1,2.6,2.3c1.3,0.2,2.5-0.3,3.2-1.4
				s0.7-2.3,0.1-3.5c-0.1-0.2-0.1-0.3,0-0.5c0.8-1,1.6-2,2.4-3c0.1-0.2,0.2-0.4,0.2-0.6c0-2.1,0-4.2,0-6.2c0-0.2,0.1-0.3,0.3-0.3
				c0.5,0,0.9,0,1.4,0c0.3,0,0.3,0.1,0.3,0.3c0,3.5,0,7.1,0,10.6c0,0.4,0,0.8,0,1.1c0,0.2,0,0.2-0.2,0.3c-0.4,0.2-0.8,0.4-1.1,0.8
				c-1,1.1-1.2,2.7-0.4,3.9c0.8,1.3,2.3,1.8,3.7,1.4c1.3-0.4,2.3-1.5,2.3-3c0.1-1.3-0.8-2.7-2-3.2c-0.2-0.1-0.2-0.2-0.2-0.4
				c0-3.9,0-7.8,0-11.7c0-0.2,0-0.3,0.3-0.3c0.5,0,1,0,1.5,0c0.3,0,0.3,0.1,0.3,0.3c0,2.1,0,4.2,0,6.3c0,0.2,0,0.3,0.2,0.4
				c0.8,1,1.6,2,2.4,3c0.1,0.1,0.1,0.2,0,0.4c-0.6,0.9-0.7,1.8-0.4,2.8c0.4,1.4,1.8,2.4,3.2,2.3c1.7-0.1,2.8-1.1,3.1-2.7
				c0.4-2.2-1.5-4.2-3.8-3.8c-0.2,0-0.2,0-0.3-0.1c-0.6-0.8-1.3-1.6-1.9-2.5c-0.1-0.2-0.3-0.3-0.3-0.6c0-1.9,0-3.8,0-5.8
				c0-0.2,0-0.2,0.2-0.2c0.5,0,1.1,0,1.6,0c0.2,0,0.2,0,0.2,0.2c0,0.5,0,1,0,1.5c0,0.2,0.1,0.3,0.2,0.5c1,1,1.9,1.9,2.9,2.9
				c0.2,0.2,0.3,0.3,0.1,0.6c-0.1,0.2-0.1,0.5-0.2,0.8c-0.3,2.2,1.8,4,4,3.5c1.8-0.5,2.9-2.4,2.4-4.2c-0.6-1.8-2.5-2.8-4.3-2
				c-0.2,0.1-0.3,0-0.5-0.1c-0.5-0.5-1.1-1.1-1.6-1.6c-0.3-0.3-0.7-0.6-0.9-1c-0.2-0.4,0-0.9,0-1.3c0-0.2,0.1-0.3,0.2-0.4
				c1.1-0.7,1.8-1.8,1.8-3.1c0-5.6,0-11.1,0-16.7c0-1.8-1.5-3.5-3.3-3.7c-1.1-0.1-2.2,0-3.4,0c-0.2,0-0.3,0-0.4-0.2
				c-0.3-0.7-0.8-1-1.6-1c-0.6,0-1.3,0-1.9,0c-0.2,0-0.3,0-0.2-0.2c0-0.4,0-0.8,0-1.2c0-0.2,0-0.3,0.2-0.4c0.6-0.3,0.9-1.1,0.7-1.7
				C20.5,27.1,20,26.8,19.5,26.7z M50.5,42.5c0.4,0.1,0.8,0.4,1.2,0.6c0.4,0.3,0.4,0.3,0.1,0.7c-0.7,1.2-1.1,2.5-0.8,3.9
				c0.2,1,0.9,1.7,1.7,1.8c1.1,0.1,2-0.7,2-1.9c0-1.5-0.5-2.8-1.4-3.9c-0.2-0.3-0.1-0.4,0.1-0.6c0.6-0.5,1.2-0.9,2-1.1
				c0,0.1,0,0.2,0,0.4c0,3.8,0,7.5,0,11.3c0,1.1,0.4,2.2,1.1,3.1c2.1,2.6,6.2,2.2,7.7-0.7c0.3-0.7,0.6-1.4,0.6-2.1
				c0-4.3,0-8.5,0-12.8c0-1.1-0.4-2.1-1.2-2.9c-0.7-0.9-1.7-1.3-2.8-1.6c-0.8-0.2-1.6,0-2.3,0.3c-1.9,0.8-2.9,2.2-3.1,4.3
				c-1,0.3-2,0.7-2.7,1.5c-0.1,0.1-0.1,0.1-0.2,0c-0.6-0.5-1.3-0.8-2-1.1c0-0.1,0-0.3,0-0.4c0-2.6-1.9-4.2-4-4.6
				c-0.7-0.1-1.3,0-2,0.2c-1.9,0.6-3.3,2.4-3.3,4.4c0,4.2,0,8.4,0,12.6c0,1.2,0.4,2.2,1.2,3.1c2.2,2.5,6,1.8,7.3-0.6
				c0.5-0.8,0.8-1.7,0.8-2.6C50.5,49.9,50.5,46.2,50.5,42.5z M86.6,49.6c0.2,0.1,0.3,0.3,0.4,0.4c1.2,1.3,2.5,2.7,3.7,4
				c0.7,0.8,1.5,1.5,2.1,2.3c1.4,1.7,3.1,1.6,4.4,0.2c0.8-0.8,0.9-1.8,0.3-2.8c-0.2-0.3-0.4-0.6-0.6-0.8c-1.1-1.2-2.1-2.3-3.2-3.5
				c-0.5-0.6-1.1-1.2-1.6-1.8c-0.1-0.1-0.1-0.2,0-0.3c1.3-1.5,2.7-2.9,4-4.5c0.4-0.5,1-1,1.3-1.6c0.4-0.7,0.5-1.5,0.1-2.3
				c-0.4-0.7-1.1-1.3-1.9-1.5c-0.6-0.2-1.2-0.1-1.8,0.2c-0.4,0.2-0.8,0.6-1.1,0.9c-1.5,1.7-3.1,3.3-4.6,5.1
				c-0.5,0.6-1.1,1.1-1.6,1.8c0-0.2,0-0.3,0-0.4c0-1.8,0-3.6,0-5.4c0-1.1-0.7-1.9-1.8-2.1c-0.5-0.1-1-0.1-1.5-0.1
				c-1.7,0.1-2.6,0.9-2.6,2.7c0,3.5,0,6.9,0,10.4c0,1.6,0,3.1,0,4.7c0,1.2,0.5,1.9,1.5,2.3c0.9,0.3,1.8,0.3,2.8,0
				c0.5-0.2,1-0.4,1.2-0.9s0.4-1,0.3-1.5c0-1.2,0-2.4,0-3.6C86.6,50.9,86.6,50.3,86.6,49.6z M73.3,37.4
				C73.3,37.5,73.3,37.5,73.3,37.4c-1.3,0-2.5,0-3.8,0c-1.6,0.1-2.7,0.8-2.7,2.7c0,3.2,0,6.4,0,9.6c0,1.8,0,3.6,0,5.5
				c0,1.3,0.6,2.1,1.9,2.4c0.3,0.1,0.7,0.1,1,0.1c2.3,0,4.7,0,7,0c0.2,0,0.5,0,0.7-0.1c0.7-0.1,1.2-0.4,1.5-1.1
				c0.2-0.5,0.3-1.1,0.2-1.7c-0.1-1-0.6-1.7-1.5-1.9c-0.3-0.1-0.5-0.1-0.8-0.1c-1.3,0-2.6,0-3.9,0c-0.2,0-0.3,0-0.3-0.3
				c0-0.8,0-1.6,0-2.4c0-0.2,0.1-0.3,0.3-0.3c1,0,2,0,3,0c0.4,0,0.8,0,1.1-0.1c0.7-0.2,1.2-0.7,1.4-1.4c0.1-0.2,0.1-0.5,0.1-0.8
				c0-1.2-0.3-2.3-1.9-2.5c-0.2,0-0.4,0-0.6,0c-1.1,0-2.1,0-3.2,0c-0.2,0-0.3-0.1-0.3-0.3c0-0.8,0-1.6,0-2.3c0-0.3,0.1-0.3,0.3-0.3
				c1.3,0,2.6,0,3.9,0c1.2,0,1.9-0.5,2.1-1.5c0.1-0.5,0.1-0.9,0.1-1.4c-0.2-1.1-0.7-1.7-1.9-1.8c-0.2,0-0.3,0-0.5,0
				C75.6,37.4,74.5,37.4,73.3,37.4z"/>
			<path id="XMLID_119_" class="st2" d="M19.5,26.7c0.6,0.2,1,0.4,1.2,1c0.2,0.7-0.1,1.4-0.7,1.7c-0.2,0.1-0.2,0.2-0.2,0.4
				c0,0.4,0,0.8,0,1.2c0,0.2,0.1,0.2,0.2,0.2c0.6,0,1.3,0,1.9,0c0.7,0,1.3,0.4,1.6,1c0.1,0.2,0.2,0.2,0.4,0.2c1.1,0,2.2-0.1,3.4,0
				c1.8,0.2,3.3,1.8,3.3,3.7c0,5.6,0,11.1,0,16.7c0,1.4-0.7,2.4-1.8,3.1c-0.2,0.1-0.2,0.2-0.2,0.4c0,0.4-0.1,0.9,0,1.3
				c0.2,0.4,0.6,0.6,0.9,1c0.5,0.5,1.1,1.1,1.6,1.6c0.1,0.1,0.3,0.2,0.5,0.1c1.8-0.7,3.7,0.2,4.3,2s-0.5,3.7-2.4,4.2
				c-2.2,0.5-4.2-1.3-4-3.5c0-0.3,0-0.5,0.2-0.8c0.1-0.3,0-0.4-0.1-0.6c-1-1-1.9-1.9-2.9-2.9c-0.1-0.1-0.2-0.3-0.2-0.5
				c0-0.5,0-1,0-1.5c0-0.2,0-0.2-0.2-0.2c-0.5,0-1.1,0-1.6,0c-0.1,0-0.2,0-0.2,0.2c0,1.9,0,3.8,0,5.8c0,0.2,0.2,0.4,0.3,0.6
				c0.6,0.8,1.3,1.6,1.9,2.5c0.1,0.1,0.2,0.2,0.3,0.1c2.2-0.4,4.1,1.5,3.8,3.8c-0.3,1.6-1.5,2.6-3.1,2.7c-1.4,0.1-2.8-0.9-3.2-2.3
				c-0.3-1-0.2-2,0.4-2.8c0.1-0.2,0.1-0.2,0-0.4c-0.8-1-1.6-2-2.4-3c-0.1-0.1-0.2-0.3-0.2-0.4c0-2.1,0-4.2,0-6.3
				c0-0.3-0.1-0.3-0.3-0.3c-0.5,0-1,0-1.5,0c-0.2,0-0.3,0.1-0.3,0.3c0,3.9,0,7.8,0,11.7c0,0.2,0.1,0.3,0.2,0.4
				c1.2,0.5,2.1,1.9,2,3.2c-0.1,1.4-1,2.6-2.3,3c-1.4,0.4-2.9-0.2-3.7-1.4c-0.8-1.2-0.6-2.8,0.4-3.9c0.3-0.3,0.7-0.6,1.1-0.8
				c0.2-0.1,0.2-0.1,0.2-0.3c0-0.4,0-0.8,0-1.1c0-3.5,0-7.1,0-10.6c0-0.3-0.1-0.4-0.3-0.3c-0.5,0-0.9,0-1.4,0c-0.2,0-0.3,0-0.3,0.3
				c0,2.1,0,4.2,0,6.2c0,0.2-0.1,0.4-0.2,0.6c-0.8,1-1.6,2-2.4,3c-0.1,0.2-0.2,0.3,0,0.5c0.7,1.2,0.7,2.4-0.1,3.5
				c-0.7,1.2-1.9,1.6-3.2,1.4s-2.2-1-2.6-2.3C7,67.6,9,65.4,11.5,65.9c0.2,0,0.3,0,0.4-0.1c0.6-0.8,1.3-1.6,1.9-2.5
				c0.2-0.3,0.3-0.6,0.3-0.9c0-1.8,0-3.5,0-5.3c0-0.3-0.1-0.4-0.4-0.3c-0.5,0-1,0-1.5,0c-0.2,0-0.2,0-0.2,0.2c0,0.5,0,0.9,0,1.4
				c0,0.2-0.1,0.4-0.2,0.6c-1.1,1-2.1,2.1-3.2,3.2c-0.2,0.2-0.2,0.3-0.1,0.5c0.5,1.7-0.5,3.5-2.2,4c-1.8,0.5-3.5-0.5-4-2.3
				c0-0.1,0-0.2-0.1-0.2c0-0.4,0-0.8,0-1.2c0.1,0,0.1-0.1,0.1-0.2c0.6-2.1,2.7-3,4.7-2.1c0.2,0.1,0.2,0,0.4-0.1
				C8,60,8.6,59.4,9.2,58.8c0.3-0.3,0.7-0.6,0.9-0.9c0.2-0.4,0-0.9,0.1-1.3c0-0.2-0.1-0.3-0.2-0.3c-0.3-0.2-0.6-0.4-0.9-0.7
				c-0.7-0.8-1-1.7-1-2.8c0-5.3,0-10.5,0-15.8c0-0.3,0-0.6,0-0.8c0.1-1.7,1.6-3.3,3.3-3.4c1.1-0.1,2.2,0,3.4,0
				c0.2,0,0.3-0.1,0.4-0.2c0.3-0.7,0.8-1,1.6-1c0.6,0,1.3,0,1.9,0c0.2,0,0.3-0.1,0.3-0.3c0-0.4,0-0.8,0-1.2c0-0.2-0.1-0.3-0.2-0.4
				c-0.8-0.5-1-1.6-0.3-2.3c0.3-0.3,0.6-0.4,0.9-0.5C19.2,26.7,19.3,26.7,19.5,26.7z M19.3,51.1c1.4,0,2.9,0,4.3,0
				c1.9,0,3.2-1.5,3.2-3.2c0-2.9,0-5.9,0-8.8c0-1-0.5-1.9-1.3-2.5C25,36.2,24.3,36,23.6,36c-2.9,0-5.8,0-8.7,0c-0.9,0-1.7,0.3-2.4,1
				c-0.6,0.6-0.9,1.4-0.9,2.2c0,2.9,0,5.9,0,8.8c0,1.7,1.3,3.2,3.2,3.2C16.4,51,17.8,51.1,19.3,51.1z M19.2,54.9
				c1.6,0,2.8-0.5,3.9-1.5c0.3-0.3,0.3-0.6,0.1-0.8c-0.2-0.2-0.5-0.2-0.8,0.1c-1.9,1.7-4.4,1.7-6.3,0c-0.3-0.3-0.6-0.3-0.8-0.1
				s-0.2,0.5,0.1,0.8C16.5,54.3,17.8,54.8,19.2,54.9z M34,63.6c0-0.8-0.5-1.3-1.3-1.3c-0.7,0-1.3,0.6-1.3,1.3c0,0.7,0.6,1.3,1.2,1.3
				C33.4,64.8,34,64.3,34,63.6z M4.1,63.6c0,0.7,0.6,1.3,1.3,1.3s1.3-0.6,1.3-1.3c0-0.8-0.6-1.3-1.3-1.3S4.1,62.8,4.1,63.6z
				 M28.8,69c0-0.7-0.6-1.3-1.3-1.3c-0.7,0-1.3,0.6-1.3,1.3c0,0.8,0.5,1.3,1.3,1.3C28.3,70.4,28.7,69.8,28.8,69z M10.8,70.4
				c0.7,0,1.3-0.6,1.3-1.3c0-0.7-0.6-1.3-1.3-1.3s-1.3,0.6-1.3,1.3C9.6,69.8,10,70.3,10.8,70.4z M18,72.2c0,0.7,0.5,1.3,1.2,1.3
				s1.3-0.5,1.3-1.3c0-0.7-0.5-1.3-1.2-1.3C18.6,70.9,18,71.5,18,72.2z"/>
			<path id="XMLID_118_" class="st3" d="M19.1,26.7c-0.3,0.1-0.7,0.2-0.9,0.5c-0.6,0.7-0.5,1.8,0.3,2.3c0.2,0.1,0.2,0.2,0.2,0.4
				c0,0.4,0,0.8,0,1.2c0,0.2,0,0.3-0.3,0.3c-0.6,0-1.3,0-1.9,0c-0.7,0-1.3,0.3-1.6,1c-0.1,0.2-0.2,0.2-0.4,0.2c-1.1,0-2.2-0.1-3.4,0
				c-1.7,0.2-3.2,1.7-3.3,3.4c0,0.3,0,0.6,0,0.8c0,5.3,0,10.5,0,15.8c0,1.1,0.3,2,1,2.8c0.3,0.3,0.5,0.5,0.9,0.7
				c0.1,0.1,0.2,0.2,0.2,0.3c0,0.5,0.1,0.9-0.1,1.3c-0.1,0.4-0.6,0.6-0.9,0.9c-0.6,0.6-1.2,1.2-1.8,1.8c-0.1,0.1-0.2,0.2-0.4,0.1
				c-2-1-4.1,0-4.7,2.1c0,0.1,0,0.2-0.1,0.2c0-12,0-24,0-35.9c0-0.2,0-0.3,0.3-0.3C8,26.7,13.5,26.7,19.1,26.7z"/>
			<path id="XMLID_117_" class="st4" d="M86.6,49.6c0,0.6,0,1.3,0,1.9c0,1.2,0,2.4,0,3.6c0,0.5-0.1,1-0.3,1.5
				c-0.3,0.5-0.7,0.8-1.2,0.9c-0.9,0.3-1.9,0.3-2.8,0c-1-0.3-1.5-1.1-1.5-2.3c0-1.6,0-3.1,0-4.7c0-3.5,0-6.9,0-10.4
				c0-1.8,0.9-2.6,2.6-2.7c0.5,0,1,0,1.5,0.1c1.1,0.2,1.8,1,1.8,2.1c0,1.8,0,3.6,0,5.4c0,0.1,0,0.2,0,0.4c0.6-0.6,1.1-1.2,1.6-1.8
				c1.5-1.7,3.1-3.4,4.6-5.1c0.3-0.4,0.7-0.7,1.1-0.9c0.6-0.3,1.2-0.4,1.8-0.2c0.8,0.2,1.5,0.8,1.9,1.5c0.4,0.8,0.3,1.5-0.1,2.3
				c-0.3,0.6-0.9,1.1-1.3,1.6c-1.3,1.5-2.7,3-4,4.5c-0.1,0.1-0.1,0.2,0,0.3c0.5,0.6,1.1,1.2,1.6,1.8c1,1.2,2.1,2.4,3.2,3.5
				c0.2,0.2,0.4,0.5,0.6,0.8c0.6,1,0.5,2-0.3,2.8c-1.3,1.4-3,1.5-4.4-0.2c-0.7-0.8-1.4-1.6-2.1-2.3c-1.2-1.3-2.5-2.7-3.7-4
				C86.9,49.9,86.8,49.7,86.6,49.6z"/>
			<path id="XMLID_116_" class="st4" d="M73.3,37.4c1.2,0,2.3,0,3.5,0c0.2,0,0.4,0,0.5,0c1.1,0.1,1.7,0.7,1.9,1.8
				c0.1,0.5,0.1,0.9-0.1,1.4c-0.2,1-1,1.5-2.1,1.5c-1.3,0-2.6,0-3.9,0c-0.3,0-0.3,0.1-0.3,0.3c0,0.8,0,1.6,0,2.3
				c0,0.2,0,0.3,0.3,0.3c1.1,0,2.1,0,3.2,0c0.2,0,0.4,0,0.6,0c1.6,0.2,1.9,1.3,1.9,2.5c0,0.3,0,0.5-0.1,0.8
				c-0.2,0.7-0.6,1.2-1.4,1.4c-0.4,0.1-0.8,0.1-1.1,0.1c-1,0-2,0-3,0c-0.2,0-0.3,0.1-0.3,0.3c0,0.8,0,1.6,0,2.4
				c0,0.2,0.1,0.3,0.3,0.3c1.3,0,2.6,0,3.9,0c0.3,0,0.5,0,0.8,0.1c0.9,0.2,1.4,0.8,1.5,1.9c0.1,0.6,0,1.1-0.2,1.7
				c-0.3,0.7-0.8,1-1.5,1.1c-0.2,0-0.5,0.1-0.7,0.1c-2.3,0-4.7,0-7,0c-0.4,0-0.7,0-1-0.1c-1.3-0.3-1.9-1-1.9-2.4c0-1.8,0-3.6,0-5.5
				c0-3.2,0-6.4,0-9.6c0-1.9,1-2.7,2.7-2.7C70.8,37.4,72.1,37.5,73.3,37.4C73.3,37.5,73.3,37.5,73.3,37.4z"/>
			<path id="XMLID_115_" class="st5" d="M55.4,41.2c0.1-2.1,1.2-3.5,3.1-4.3c0.8-0.3,1.5-0.5,2.3-0.3c1.1,0.3,2,0.7,2.8,1.6
				c0.7,0.8,1.2,1.8,1.2,2.9c0,4.3,0,8.5,0,12.8c0,0.8-0.2,1.5-0.6,2.1c-1.5,2.9-5.6,3.3-7.7,0.7c-0.7-0.9-1.1-1.9-1.1-3.1
				c0-3.8,0-7.5,0-11.3c0-0.1,0-0.2,0-0.4c0.5-0.2,1-0.2,1.6-0.3c0,4,0,8,0,12c0,1.3,0.8,2.3,1.9,2.8c0.9,0.5,1.9,0.4,2.8-0.2
				c1.1-0.7,1.6-1.7,1.6-3c0-4,0-7.9,0-11.9c0-0.4,0-0.7-0.1-1.1c-0.4-1.4-1.8-2.5-3.3-2.3c-1.5,0.1-2.7,1.4-2.8,2.8
				C56.5,41,55.9,41.1,55.4,41.2z"/>
			<path id="XMLID_114_" class="st6" d="M50.5,42.5c0,3.7,0,7.4,0,11.1c0,1-0.3,1.8-0.8,2.6c-1.4,2.3-5.1,3-7.3,0.6
				c-0.8-0.9-1.2-1.9-1.2-3.1c0-4.2,0-8.4,0-12.6c0-2,1.4-3.8,3.3-4.4c0.7-0.2,1.3-0.3,2-0.2c2.2,0.4,4,2.1,4,4.6c0,0.1,0,0.3,0,0.4
				c-0.5-0.1-1-0.3-1.6-0.4c0-1.6-1.3-3.1-3-3.1s-3.2,1.3-3.2,3.1c0,4.2,0,8.4,0,12.6c0,1.5,1.1,2.7,2.4,3c0.8,0.2,1.6,0.1,2.3-0.4
				c1-0.7,1.6-1.6,1.6-2.9c0-3.8,0-7.6,0-11.5C49.5,42.1,50,42.3,50.5,42.5z"/>
			<path id="XMLID_111_" class="st7" d="M50.5,42.5c-0.5-0.2-1-0.4-1.5-0.5c-0.5-0.2-1-0.2-1.5-0.2c-0.2,0-0.3,0-0.3,0.2
				c-0.3,0.6-1,1-1.7,0.8s-1.1-0.7-1-1.4c0-0.6,0.5-1.2,1.1-1.3c0.7-0.2,1.3,0.1,1.6,0.7c0.1,0.1,0.1,0.2,0.3,0.2
				c0.5,0,1,0.1,1.6,0.2c0.5,0.1,1,0.3,1.6,0.4c0.7,0.3,1.4,0.6,2,1.1c0.1,0.1,0.2,0,0.2,0c0.7-0.8,1.7-1.3,2.7-1.5
				c0.5-0.1,1.1-0.2,1.6-0.2s1,0,1.5,0c0.2,0,0.3,0,0.4-0.2c0.4-0.6,1.1-0.8,1.8-0.5c0.6,0.3,1,1,0.8,1.7c-0.2,0.6-0.7,1-1.3,1
				c-0.7,0-1.2-0.3-1.5-1c0-0.1,0-0.2-0.2-0.2c-0.5,0-1,0-1.6,0c-0.5,0-1.1,0.1-1.6,0.3c-0.8,0.2-1.4,0.6-2,1.1
				c-0.2,0.2-0.3,0.3-0.1,0.6c0.9,1.1,1.4,2.4,1.4,3.9c0,1.2-0.9,2-2,1.9c-0.8-0.1-1.5-0.8-1.7-1.8c-0.3-1.4,0.1-2.7,0.8-3.9
				c0.3-0.4,0.3-0.4-0.1-0.7C51.3,42.9,50.9,42.7,50.5,42.5z M52.6,44.1c-0.6,0.9-0.9,1.8-0.9,2.8c0,0.5,0.1,1,0.4,1.4
				c0.2,0.3,0.6,0.5,1,0.4s0.6-0.3,0.8-0.7c0.1-0.2,0.1-0.4,0.1-0.6c0-1.1-0.4-2.1-1-3C52.9,44.3,52.8,44.2,52.6,44.1z"/>
			<path id="XMLID_108_" class="st8" d="M19.3,51.1c-1.4,0-2.9,0-4.3,0c-1.9,0-3.2-1.5-3.2-3.2c0-2.9,0-5.9,0-8.8
				c0-0.9,0.3-1.6,0.9-2.2c0.6-0.7,1.4-1,2.4-1c2.9,0,5.8,0,8.7,0c0.7,0,1.3,0.2,1.9,0.6C26.5,37.2,27,38,27,39c0,2.9,0,5.9,0,8.8
				c0,1.7-1.3,3.2-3.2,3.2C22.1,51,20.7,51.1,19.3,51.1z M24.8,42.1c0.1-1.7-1.4-3.3-3.3-3.3s-3.4,1.5-3.4,3.3
				c0,1.9,1.5,3.4,3.3,3.4C23.4,45.5,24.8,44.1,24.8,42.1z"/>
			<path id="XMLID_107_" class="st9" d="M19.2,54.9c-1.4,0-2.7-0.5-3.8-1.6c-0.3-0.3-0.3-0.6-0.1-0.8s0.5-0.2,0.8,0.1
				c1.9,1.7,4.4,1.7,6.3,0c0.3-0.3,0.6-0.3,0.8-0.1c0.2,0.2,0.2,0.6-0.1,0.8C22,54.3,20.7,54.8,19.2,54.9z"/>
			<path id="XMLID_106_" class="st10" d="M34,63.6c0,0.7-0.6,1.3-1.3,1.3s-1.3-0.6-1.2-1.3c0-0.7,0.6-1.3,1.3-1.3
				C33.4,62.2,34,62.8,34,63.6z"/>
			<path id="XMLID_105_" class="st10" d="M4.1,63.6c0-0.7,0.5-1.3,1.3-1.3c0.7,0,1.3,0.6,1.3,1.3c0,0.7-0.6,1.3-1.3,1.3
				C4.7,64.8,4.1,64.3,4.1,63.6z"/>
			<path id="XMLID_104_" class="st10" d="M28.8,69c0,0.8-0.5,1.3-1.3,1.3s-1.2-0.5-1.3-1.3c0-0.7,0.6-1.3,1.3-1.3
				C28.2,67.8,28.7,68.3,28.8,69z"/>
			<path id="XMLID_103_" class="st10" d="M10.8,70.4c-0.8,0-1.2-0.6-1.3-1.3c0-0.7,0.6-1.3,1.3-1.3s1.3,0.6,1.3,1.3
				C12,69.8,11.5,70.4,10.8,70.4z"/>
			<path id="XMLID_102_" class="st11" d="M18,72.2c0-0.7,0.6-1.3,1.3-1.3c0.7,0,1.2,0.6,1.2,1.3c0,0.7-0.6,1.3-1.3,1.3
				C18.5,73.4,18,72.8,18,72.2z"/>
			<path id="XMLID_99_" class="st12" d="M57,41.7c0.5-0.1,1,0,1.6,0c0.2,0,0.2,0.1,0.2,0.2c0.2,0.6,0.8,1,1.5,1c0.6,0,1.1-0.4,1.3-1
				c0.2-0.7-0.1-1.4-0.8-1.7c-0.6-0.3-1.4-0.1-1.8,0.5c-0.1,0.2-0.2,0.2-0.4,0.2c-0.5,0-1,0-1.5,0c0.1-1.4,1.3-2.6,2.8-2.8
				c1.5-0.1,2.9,0.9,3.3,2.3c0.1,0.4,0.1,0.7,0.1,1.1c0,4,0,7.9,0,11.9c0,1.3-0.5,2.3-1.6,3c-0.9,0.6-1.9,0.6-2.8,0.2
				C57.7,56,57,55.1,57,53.8C56.9,49.8,57,45.7,57,41.7z M60.1,52.3c-0.8,0-1.4,0.6-1.4,1.4c0,0.8,0.6,1.4,1.4,1.4
				c0.8,0,1.4-0.6,1.4-1.4C61.5,53,60.9,52.3,60.1,52.3z"/>
			<path id="XMLID_96_" class="st13" d="M49,41.2c-0.5-0.1-1-0.2-1.6-0.2c-0.2,0-0.2-0.1-0.3-0.2c-0.3-0.6-0.9-0.9-1.6-0.7
				c-0.6,0.1-1.1,0.7-1.1,1.3c0,0.7,0.4,1.3,1,1.4c0.7,0.2,1.4-0.1,1.7-0.8c0.1-0.2,0.2-0.2,0.3-0.2c0.5,0.1,1,0.1,1.5,0.2
				c0,3.8,0,7.6,0,11.5c0,1.3-0.5,2.2-1.6,2.9c-0.7,0.5-1.5,0.6-2.3,0.4c-1.3-0.3-2.4-1.6-2.4-3c0-4.2,0-8.4,0-12.6
				c0-1.7,1.5-3.1,3.2-3.1C47.6,38.2,49,39.6,49,41.2z M44.4,53.7c0,0.8,0.6,1.4,1.4,1.4c0.8,0,1.4-0.6,1.4-1.4
				c0-0.8-0.6-1.4-1.4-1.4C45.1,52.3,44.4,52.9,44.4,53.7z"/>
			<path id="XMLID_95_" class="st14" d="M52.6,44.1c0.2,0.1,0.2,0.2,0.3,0.4c0.6,0.9,1,1.9,1,3c0,0.2,0,0.4-0.1,0.6
				c-0.1,0.4-0.4,0.6-0.8,0.7c-0.4,0.1-0.7-0.1-1-0.4c-0.3-0.4-0.4-0.9-0.4-1.4C51.7,45.9,52.1,44.9,52.6,44.1z"/>
			<path id="XMLID_94_" class="st15" d="M24.8,42.1c0,1.9-1.5,3.4-3.3,3.4c-1.9,0-3.3-1.5-3.3-3.4c0-1.8,1.5-3.3,3.4-3.3
				C23.4,38.8,24.9,40.5,24.8,42.1z"/>
			<path id="XMLID_93_" class="st16" d="M60.1,52.3c0.8,0,1.4,0.6,1.4,1.4c0,0.8-0.6,1.4-1.4,1.4c-0.8,0-1.4-0.6-1.4-1.4
				C58.7,53,59.3,52.3,60.1,52.3z"/>
			<path id="XMLID_92_" class="st16" d="M44.4,53.7c0-0.8,0.6-1.4,1.4-1.4c0.8,0,1.4,0.6,1.4,1.4c0,0.8-0.6,1.4-1.4,1.4
				C45,55.2,44.4,54.5,44.4,53.7z"/>
		</g>
	</g>
</g>
</svg>
