<?xml version="1.0" encoding="utf-8"?>
<!-- Generator: Adobe Illustrator 19.0.0, SVG Export Plug-In . SVG Version: 6.00 Build 0)  -->
<svg version="1.1" id="Layer_1" xmlns="http://www.w3.org/2000/svg" xmlns:xlink="http://www.w3.org/1999/xlink" x="0px" y="0px"
	 viewBox="0 0 100 100" style="enable-background:new 0 0 100 100;" xml:space="preserve">
<style type="text/css">
	.st0{clip-path:url(#XMLID_6_);fill:#FFFFFF;}
	.st1{clip-path:url(#XMLID_7_);fill:#FFFFFF;}
</style>
<g>
	<defs>
		<path id="XMLID_3_" d="M66.8,85.9H45.6c-5.7,0-10.4-4.7-10.4-10.4v-51c0-5.7,4.7-10.4,10.4-10.4h21.5c1.3,0,2.3-1,2.3-2.3
			c0-1.3-1-2.3-2.3-2.3H45.6c-8.3,0-15.1,6.8-15.1,15.1v51c0,8.3,6.8,15.1,15.1,15.1h21.2c1.3,0,2.3-1,2.3-2.3S68,85.9,66.8,85.9z"
			/>
	</defs>
	<clipPath id="XMLID_6_">
		<use xlink:href="#XMLID_3_"  style="overflow:visible;"/>
	</clipPath>
	<rect id="XMLID_4_" x="-3.3" y="-24.4" class="st0" width="106.6" height="148.8"/>
</g>
<g>
	<defs>
		<path id="XMLID_1_" d="M78,48.3L63.2,33.6c-0.9-0.9-2.4-0.9-3.3,0C59,34.5,59,36,60,36.9l10.8,10.8H23.6c-1.3,0-2.3,1-2.3,2.3
			s1,2.3,2.3,2.3h47.1L60,63.1C59,64,59,65.5,60,66.4c0.4,0.4,1,0.7,1.6,0.7s1.2-0.2,1.6-0.7L78,51.7C78.9,50.7,78.9,49.2,78,48.3z"
			/>
	</defs>
	<clipPath id="XMLID_7_">
		<use xlink:href="#XMLID_1_"  style="overflow:visible;"/>
	</clipPath>
	<rect id="XMLID_2_" x="-12.5" y="-1" class="st1" width="125.1" height="101.9"/>
</g>
</svg>
