<?xml version="1.0" encoding="utf-8"?>
<!-- Generator: Adobe Illustrator 19.0.0, SVG Export Plug-In . SVG Version: 6.00 Build 0)  -->
<svg version="1.1" id="Layer_1" xmlns="http://www.w3.org/2000/svg" xmlns:xlink="http://www.w3.org/1999/xlink" x="0px" y="0px"
	 viewBox="0 0 100 100" style="enable-background:new 0 0 100 100;" xml:space="preserve">
<style type="text/css">
	.st0{clip-path:url(#SVGID_2_);fill:#FFFFFF;}
</style>
<g>
	<defs>
		<path id="SVGID_1_" d="M92.1,47.6C92.1,47.6,92.1,47.6,92.1,47.6L74.5,30.1c-1.3-1.3-3.5-1.3-4.8,0c-1.3,1.3-1.3,3.5,0,4.8
			l11.8,11.8H10.2c-1.9,0-3.4,1.5-3.4,3.4s1.5,3.4,3.4,3.4h71.4L69.8,65.1c-1.3,1.3-1.3,3.4,0,4.8c1.3,1.3,3.4,1.3,4.8,0l17.6-17.5
			c0,0,0,0,0,0C93.5,51.1,93.5,48.9,92.1,47.6z"/>
	</defs>
	<clipPath id="SVGID_2_">
		<use xlink:href="#SVGID_1_"  style="overflow:visible;"/>
	</clipPath>
	<rect x="-10.5" y="11.7" class="st0" width="121.1" height="76.6"/>
</g>
</svg>
