<?xml version="1.0" encoding="utf-8"?>
<!-- Generator: Adobe Illustrator 19.0.0, SVG Export Plug-In . SVG Version: 6.00 Build 0)  -->
<svg version="1.1" id="Layer_1" xmlns="http://www.w3.org/2000/svg" xmlns:xlink="http://www.w3.org/1999/xlink" x="0px" y="0px"
	 viewBox="0 0 100 100" style="enable-background:new 0 0 100 100;" xml:space="preserve">
<style type="text/css">
	.st0{clip-path:url(#SVGID_2_);}
	.st1{clip-path:url(#SVGID_4_);fill:#1E211E;}
	.st2{clip-path:url(#XMLID_7_);}
	.st3{clip-path:url(#XMLID_8_);fill:#1E211E;}
</style>
<g>
	<defs>
		<path id="SVGID_1_" d="M-524.1-1070.5c0.2-0.2,0.6-0.2,0.8,0c0.2,0.2,0.2,0.6,0,0.8l-4.2,4.2h13.9c0.3,0,0.6,0.3,0.6,0.6
			c0,0.3-0.3,0.6-0.6,0.6h-13.9l4.2,4.2c0.2,0.2,0.2,0.6,0,0.8c-0.2,0.2-0.6,0.2-0.8,0l-5.2-5.2c-0.2-0.2-0.2-0.6,0-0.8
			L-524.1-1070.5z"/>
	</defs>
	<clipPath id="SVGID_2_">
		<use xlink:href="#SVGID_1_"  style="overflow:visible;"/>
	</clipPath>
	<g class="st0">
		<defs>
			<rect id="SVGID_3_" x="-645" y="-1288" width="1400" height="2712"/>
		</defs>
		<clipPath id="SVGID_4_">
			<use xlink:href="#SVGID_3_"  style="overflow:visible;"/>
		</clipPath>
		<rect x="-534.5" y="-1075.6" class="st1" width="26.4" height="21.6"/>
	</g>
</g>
<g id="XMLID_2_">
	<defs>
		<path id="XMLID_3_" d="M34,18.7c1.3-1.3,3.3-1.3,4.6,0c1.3,1.3,1.3,3.3,0,4.6L15.2,46.7h77.5c1.8,0,3.3,1.4,3.3,3.2
			c0,1.8-1.5,3.3-3.3,3.3H15.2l23.5,23.4c1.3,1.3,1.3,3.4,0,4.6c-1.3,1.3-3.3,1.3-4.6,0l-29-29C3.7,51,3.7,49,5,47.7L34,18.7z"/>
	</defs>
	<clipPath id="XMLID_7_">
		<use xlink:href="#XMLID_3_"  style="overflow:visible;"/>
	</clipPath>
	<g id="XMLID_4_" class="st2">
		<defs>
			<rect id="XMLID_5_" x="-641.9" y="-1197.7" width="7828.6" height="15165.1"/>
		</defs>
		<clipPath id="XMLID_8_">
			<use xlink:href="#XMLID_5_"  style="overflow:visible;"/>
		</clipPath>
		<rect id="XMLID_6_" x="-23.9" y="-10.3" class="st3" width="147.8" height="120.5"/>
	</g>
</g>
</svg>
