<?xml version="1.0" encoding="utf-8"?>
<!-- Generator: Adobe Illustrator 19.0.0, SVG Export Plug-In . SVG Version: 6.00 Build 0)  -->
<svg version="1.1" id="Layer_1" xmlns="http://www.w3.org/2000/svg" xmlns:xlink="http://www.w3.org/1999/xlink" x="0px" y="0px"
	 viewBox="0 0 100 100" style="enable-background:new 0 0 100 100;" xml:space="preserve">
<style type="text/css">
	.st0{clip-path:url(#SVGID_2_);}
	.st1{clip-path:url(#SVGID_4_);}
	.st2{clip-path:url(#SVGID_6_);fill:#3C464D;}
	.st3{clip-path:url(#SVGID_8_);fill:#3C464D;}
</style>
<g>
	<defs>
		<path id="SVGID_1_" d="M78.5,68.2c-0.4,0-0.7-0.1-1-0.4L60.3,51.7c-0.6-0.6-0.6-1.5-0.1-2.1c0.6-0.6,1.5-0.6,2.1-0.1l17.2,16.1
			c0.6,0.6,0.6,1.5,0.1,2.1C79.3,68,78.9,68.2,78.5,68.2z"/>
	</defs>
	<clipPath id="SVGID_2_">
		<use xlink:href="#SVGID_1_"  style="overflow:visible;"/>
	</clipPath>
	<rect x="38.4" y="27.6" class="st0" width="63.1" height="62"/>
</g>
<g>
	<defs>
		<path id="SVGID_3_" d="M21.1,68.2c-0.4,0-0.8-0.2-1.1-0.5c-0.6-0.6-0.5-1.5,0.1-2.1l17.2-16.1c0.6-0.6,1.6-0.5,2.1,0.1
			c0.6,0.6,0.5,1.5-0.1,2.1L22.2,67.8C21.9,68,21.5,68.2,21.1,68.2z"/>
	</defs>
	<clipPath id="SVGID_4_">
		<use xlink:href="#SVGID_3_"  style="overflow:visible;"/>
	</clipPath>
	<rect x="-1.8" y="27.6" class="st1" width="63.1" height="62"/>
</g>
<g>
	<defs>
		<path id="SVGID_5_" d="M11,20.3c-2.5,0-4.5,2-4.5,4.5v50.9c0,2.5,2,4.5,4.5,4.5h77.7c2.5,0,4.5-2,4.5-4.5V24.8
			c0-2.5-2-4.5-4.5-4.5H11z M88.7,83.2H11c-4.1,0-7.5-3.3-7.5-7.5V24.8c0-4.1,3.4-7.5,7.5-7.5h77.7c4.1,0,7.5,3.3,7.5,7.5v50.9
			C96.1,79.8,92.8,83.2,88.7,83.2z"/>
	</defs>
	<clipPath id="SVGID_6_">
		<use xlink:href="#SVGID_5_"  style="overflow:visible;"/>
	</clipPath>
	<rect x="-18" y="-4.1" class="st2" width="135.6" height="108.8"/>
</g>
<g>
	<defs>
		<path id="SVGID_7_" d="M49.8,57.8c-2,0-4-0.7-5.5-2L6,22.3c-0.6-0.5-0.7-1.5-0.1-2.1c0.5-0.6,1.5-0.7,2.1-0.1l38.4,33.5
			c1.9,1.7,5.1,1.7,7,0l38.3-33.4c0.6-0.5,1.6-0.5,2.1,0.1c0.5,0.6,0.5,1.6-0.1,2.1L55.3,55.8C53.8,57.1,51.8,57.8,49.8,57.8z"/>
	</defs>
	<clipPath id="SVGID_8_">
		<use xlink:href="#SVGID_7_"  style="overflow:visible;"/>
	</clipPath>
	<rect x="-16" y="-1.8" class="st3" width="131.6" height="81"/>
</g>
</svg>
