<?xml version="1.0" encoding="utf-8"?>
<!-- Generator: Adobe Illustrator 19.0.0, SVG Export Plug-In . SVG Version: 6.00 Build 0)  -->
<svg version="1.1" id="Layer_1" xmlns="http://www.w3.org/2000/svg" xmlns:xlink="http://www.w3.org/1999/xlink" x="0px" y="0px"
	 viewBox="0 0 100 100" style="enable-background:new 0 0 100 100;" xml:space="preserve">
<style type="text/css">
	.st0{fill:none;}
	.st1{fill:#9B9B9B;}
</style>
<g id="XMLID_1_">
	<path id="XMLID_12_" class="st0" d="M84.6,79.2c3.4,0,6.1-2.7,6.1-6h0V26.8c0-3.3-2.7-6-6.1-6H15.4c-3.4,0-6.1,2.7-6.1,6v46.5
		c0,3.3,2.7,6,6.1,6H84.6z M15.7,29.7c-1.1-0.9-1.2-2.5-0.2-3.6c0.9-1,2.6-1.1,3.6-0.2l24.5,21.6c0.2,0.1,0.3,0.2,0.4,0.4
		c0,0,0,0,0,0.1l6,5.3l30.9-27.2c1.1-0.9,2.7-0.8,3.6,0.2c0.9,1,0.9,2.6-0.2,3.6L62,49.4l22.5,21c1,0.9,1.1,2.6,0.1,3.6
		c-0.5,0.5-1.2,0.8-1.9,0.8c-0.6,0-1.3-0.2-1.8-0.7L58.1,52.8l-6.4,5.6c-0.5,0.4-1.1,0.7-1.7,0.7s-1.2-0.2-1.7-0.6L42.2,53L19.3,74
		c-0.5,0.4-1.1,0.7-1.7,0.7c-0.7,0-1.4-0.3-1.9-0.8c-1-1-0.9-2.6,0.1-3.6l22.5-20.8L15.7,29.7z"/>
	<path id="XMLID_15_" class="st1" d="M84.6,84.2c6.2,0,11.2-4.9,11.2-11V26.8c0-6.1-5-11-11.2-11H15.4c-6.2,0-11.2,4.9-11.2,11v46.5
		c0,6.1,5,11,11.2,11H84.6z M9.4,73.2V26.8c0-3.3,2.7-6,6.1-6h69.1c3.4,0,6.1,2.7,6.1,6v46.5h0c0,3.3-2.7,6-6.1,6H15.4
		C12.1,79.2,9.4,76.5,9.4,73.2z"/>
	<path id="XMLID_16_" class="st1" d="M15.7,73.9c0.5,0.5,1.2,0.8,1.9,0.8c0.6,0,1.2-0.2,1.7-0.7L42.2,53l6.2,5.5
		c0.5,0.4,1.1,0.6,1.7,0.6s1.2-0.2,1.7-0.7l6.4-5.6l22.8,21.3c0.5,0.5,1.1,0.7,1.8,0.7c0.7,0,1.3-0.3,1.9-0.8c1-1,0.9-2.6-0.1-3.6
		L62,49.4l22.4-19.7c1-0.9,1.1-2.5,0.2-3.6c-0.9-1-2.6-1.1-3.6-0.2L50,53.2l-6-5.3c0,0,0,0,0-0.1c-0.1-0.1-0.3-0.2-0.4-0.4
		L19.1,25.9c-1.1-0.9-2.7-0.8-3.6,0.2c-0.9,1-0.9,2.6,0.2,3.6l22.6,19.9L15.8,70.4C14.7,71.3,14.7,72.9,15.7,73.9z"/>
</g>
</svg>
