<?xml version="1.0" encoding="utf-8"?>
<!-- Generator: Adobe Illustrator 19.0.0, SVG Export Plug-In . SVG Version: 6.00 Build 0)  -->
<svg version="1.1" id="Layer_1" xmlns="http://www.w3.org/2000/svg" xmlns:xlink="http://www.w3.org/1999/xlink" x="0px" y="0px"
	 viewBox="0 0 100 100" style="enable-background:new 0 0 100 100;" xml:space="preserve">
<style type="text/css">
	.st0{clip-path:url(#SVGID_2_);fill:#FFFFFF;}
	.st1{clip-path:url(#XMLID_7_);fill:#FFFFFF;}
</style>
<g>
	<defs>
		<path id="SVGID_1_" d="M90.2,73.4c0,3.3-2.7,6-6,6H15.8c-3.3,0-6-2.7-6-6V26.7c0-3.3,2.7-6,6-6h68.3c3.3,0,6,2.7,6,6L90.2,73.4
			L90.2,73.4z M84.2,15.6H15.8c-6.1,0-11.1,5-11.1,11.1v46.7c0,6.1,5,11.1,11.1,11.1h68.3c6.1,0,11.1-5,11.1-11.1V26.7
			C95.3,20.6,90.3,15.6,84.2,15.6z"/>
	</defs>
	<clipPath id="SVGID_2_">
		<use xlink:href="#SVGID_1_"  style="overflow:visible;"/>
	</clipPath>
	<rect id="XMLID_5_" x="-24" y="-13.2" class="st0" width="148" height="126.4"/>
</g>
<g>
	<defs>
		<path id="XMLID_1_" d="M61.8,49.4l22.1-19.8c1-0.9,1.1-2.5,0.2-3.6c-0.9-1-2.5-1.1-3.6-0.2L50,53.2l-6-5.3c0,0,0,0,0-0.1
			c-0.1-0.1-0.3-0.2-0.4-0.4L19.4,25.8c-1-0.9-2.6-0.8-3.6,0.2c-0.9,1-0.8,2.6,0.2,3.6l22.4,20L16.1,70.4c-1,1-1.1,2.5-0.1,3.6
			c0.5,0.5,1.2,0.8,1.9,0.8c0.6,0,1.2-0.2,1.7-0.7L42.2,53l6.1,5.5c0.5,0.4,1.1,0.6,1.7,0.6c0.6,0,1.2-0.2,1.7-0.7l6.3-5.7
			l22.5,21.4c0.5,0.5,1.1,0.7,1.7,0.7c0.7,0,1.3-0.3,1.8-0.8c1-1,0.9-2.6-0.1-3.6L61.8,49.4z"/>
	</defs>
	<clipPath id="XMLID_7_">
		<use xlink:href="#XMLID_1_"  style="overflow:visible;"/>
	</clipPath>
	<rect id="XMLID_2_" x="-13.6" y="-3.6" class="st1" width="127.2" height="107.3"/>
</g>
</svg>
