<?xml version="1.0" encoding="utf-8"?>
<!-- Generator: Adobe Illustrator 19.0.0, SVG Export Plug-In . SVG Version: 6.00 Build 0)  -->
<svg version="1.1" id="Layer_1" xmlns="http://www.w3.org/2000/svg" xmlns:xlink="http://www.w3.org/1999/xlink" x="0px" y="0px"
	 viewBox="0 0 100 100" style="enable-background:new 0 0 100 100;" xml:space="preserve">
<style type="text/css">
	.st0{fill:none;}
	.st1{fill:#9B9B9B;}
</style>
<g id="XMLID_1_">
	<path id="XMLID_12_" class="st0" d="M85.4,80c3.4,0,6.2-2.7,6.2-6.1h0V26.2c0-3.4-2.8-6.1-6.2-6.1H14.6c-3.4,0-6.2,2.7-6.2,6.1
		v47.6c0,3.4,2.8,6.1,6.2,6.1H85.4z M14.8,29.2c-1.1-1-1.2-2.6-0.2-3.6c1-1.1,2.6-1.2,3.7-0.2l25.1,22.1c0.2,0.1,0.3,0.2,0.4,0.4
		c0,0,0,0,0,0.1l6.2,5.4l31.6-27.9c1.1-1,2.7-0.9,3.7,0.2c1,1.1,0.9,2.7-0.2,3.6L62.3,49.4l23,21.5c1,1,1.1,2.6,0.1,3.6
		c-0.5,0.5-1.2,0.8-1.9,0.8c-0.6,0-1.3-0.2-1.8-0.7L58.4,52.9l-6.5,5.8c-0.5,0.4-1.1,0.7-1.7,0.7s-1.2-0.2-1.7-0.6L42,53.1
		L18.5,74.6c-0.5,0.5-1.1,0.7-1.8,0.7c-0.7,0-1.4-0.3-1.9-0.8c-1-1-0.9-2.7,0.1-3.6L38,49.6L14.8,29.2z"/>
	<path id="XMLID_15_" class="st1" d="M85.4,85.1c6.3,0,11.5-5.1,11.5-11.3V26.2c0-6.2-5.1-11.3-11.5-11.3H14.6
		c-6.3,0-11.5,5.1-11.5,11.3v47.7c0,6.2,5.1,11.3,11.5,11.3H85.4z M8.3,73.8V26.2c0-3.4,2.8-6.1,6.2-6.1h70.9c3.4,0,6.2,2.7,6.2,6.1
		v47.6h0c0,3.4-2.8,6.1-6.2,6.1H14.6C11.1,80,8.3,77.2,8.3,73.8z"/>
	<path id="XMLID_16_" class="st1" d="M14.8,74.5c0.5,0.5,1.2,0.8,1.9,0.8c0.6,0,1.3-0.2,1.8-0.7L42,53.1l6.4,5.6
		c0.5,0.4,1.1,0.6,1.7,0.6s1.3-0.2,1.7-0.7l6.5-5.8l23.3,21.8c0.5,0.5,1.2,0.7,1.8,0.7c0.7,0,1.4-0.3,1.9-0.8c1-1,1-2.7-0.1-3.6
		l-23-21.5l22.9-20.2c1.1-1,1.2-2.6,0.2-3.6c-1-1-2.6-1.1-3.7-0.2L50,53.3l-6.2-5.4c0,0,0,0,0-0.1c-0.1-0.1-0.3-0.2-0.4-0.4
		L18.3,25.3c-1.1-1-2.7-0.9-3.7,0.2c-1,1.1-0.9,2.7,0.2,3.6L38,49.6L14.9,70.9C13.9,71.8,13.8,73.5,14.8,74.5z"/>
</g>
</svg>
