<?xml version="1.0" encoding="utf-8"?>
<!-- Generator: Adobe Illustrator 19.0.0, SVG Export Plug-In . SVG Version: 6.00 Build 0)  -->
<svg version="1.1" id="Layer_1" xmlns="http://www.w3.org/2000/svg" xmlns:xlink="http://www.w3.org/1999/xlink" x="0px" y="0px"
	 viewBox="0 0 100 100" style="enable-background:new 0 0 100 100;" xml:space="preserve">
<style type="text/css">
	.st0{fill:#FFB600;}
	.st1{fill:#F7981D;}
	.st2{fill:#FF8500;}
	.st3{fill:#FF5050;}
	.st4{fill:#E52836;}
	.st5{fill:#CB2026;}
	.st6{fill:#FFFFFF;}
	.st7{fill:#DCE5E5;}
</style>
<g>
	<path class="st0" d="M97.6,50c0-11.8-7.1-22-17.5-26.3C90.4,28,97.6,38.2,97.6,50z"/>
	<path class="st0" d="M47.1,32h5.6c0.9,0.9,1.7,2,2.3,3H44.9c-0.6,1.1-1.2,2-1.7,3h9.2L69,21.4c0,0-0.1,0-0.1,0
		c-7.4,0-14.1,2.9-19.1,7.5c0.1,0.1,0.2,0.1,0.3,0.2C48.9,30,48,31,47.1,32z"/>
	<path class="st0" d="M42,41.1c-0.3,1-0.5,1.8-0.7,2.8h0.3l0,0.2h4.9l3-3L42,41.1C42,41.1,42,41.1,42,41.1z"/>
	<polygon class="st1" points="69,21.4 69,21.4 69,21.4 	"/>
	<path class="st1" d="M67.8,54.4C67.8,54.4,67.9,54.3,67.8,54.4c0-0.1,0-0.1,0-0.2c0-1.4,0.5-2.3,1.2-3V21.4c0,0,0,0,0,0L52.4,38.1
		h4.1c0.5,0.9,0.9,2,1.2,3h-8.3l-3,3h12.4c0.1,0.5,0.1,1,0.2,1.5c0,0,0.1,0,0.1,0c0,0.1,0,0.1-0.1,0.2c0.1,0.4,0.1,0.8,0.2,1.2
		c1-2.3,2.7-3.7,4.6-4.2c0.5-0.1,0.9-0.2,1.5-0.2c1.7,0,3.5,0.8,3.5,0.8l-0.5,3.2c0,0-1.2-0.9-2.7-0.9c-2.1,0-3.9,2-3.9,5.6
		c0,1.8,0.9,3.5,3,3.5c1.1,0,2.6-0.8,2.6-0.8l-0.6,3.3c0,0-1.7,0.5-2.9,0.5c-0.8,0-1.4-0.1-1.9-0.4c-1.4-0.5-2.3-1.4-2.9-2.8
		c-0.3,1.6-0.6,3.1-1.1,4.6H42.1c0.3,1,0.7,2,1.1,2.8c0,0.1,0.1,0.1,0.1,0.2h13.4c-0.5,1.1-1.1,2.1-1.7,3H45
		c0.1,0.1,0.1,0.2,0.2,0.3c0.6,0.8,1.2,1.8,1.9,2.6H53c-0.9,1.1-1.8,2.1-2.9,3c0,0-0.1,0.1-0.1,0.1c5.1,4.5,11.7,7.3,19,7.3V57.2
		C68.4,56.7,67.8,55.9,67.8,54.4z"/>
	<path class="st2" d="M80.1,23.7c-3.4-1.5-7.2-2.3-11.1-2.3v0C73,21.5,76.7,22.3,80.1,23.7z"/>
	<path class="st2" d="M74.3,52.1c-0.1,0-0.2,0-0.5-0.1c-0.1,0-0.2,0-0.2,0C71.5,52,71,53,71,53.8c0,0.4,0.3,1.1,1.1,1.2
		c0.3,0,0.5-0.1,0.8-0.2C74.1,54.2,74.3,52.5,74.3,52.1z"/>
	<path class="st2" d="M80.1,23.7c-3.4-1.4-7.1-2.2-11.1-2.2v29.8c1.1-1.1,2.7-1.6,4.2-1.6c0.5,0,1.4,0,1.4,0s0.1-0.2,0.1-0.7
		c0-0.9-0.9-1-2-1c-2,0-3.3,0.6-3.3,0.6l0.4-0.3c-0.2,0.1-0.4,0.1-0.4,0.1l0.5-2.6c0,0,1.5-0.6,3.6-0.6c1.1,0,4.2,0.2,4.1,3.8l0,0.1
		c0,0,0,0.1,0,0.1l-1.2,8.3h-2.7l0-0.2h0l0.1-1c-0.2,0.1-1.1,1.3-3.2,1.3c-0.5,0-1.1-0.2-1.7-0.6v21.4c15.9,0,28.6-12.8,28.6-28.6
		C97.6,38.2,90.4,28,80.1,23.7z M80.2,57.4v0.2h-3.3l2-11.8h2.9l-0.3,1.7c0,0,1.1-1.8,2.4-1.8c0.5,0,0.6,0,0.6,0
		c-0.3,0.8-0.8,1.5-1.1,3.5C81.3,48.3,81.1,52.4,80.2,57.4z M89.6,57.6l0.2-1.1c0,0-1.1,1.2-2.9,1.2c-2.6,0-3.8-2.6-3.8-5
		c0-3.9,2.4-7.3,5.1-7.3c1.7,0,2.9,1.5,2.9,1.5l0.6-4.1l3.2,0.2l-2.3,14.5H89.6z"/>
	<path class="st2" d="M90.4,50.9c0-1.8-0.6-2.6-1.7-2.6c-1.4,0-2.4,1.5-2.4,3.9c0,1.5,0.6,2.4,1.7,2.4
		C89.6,54.7,90.4,52.6,90.4,50.9z"/>
	<path class="st3" d="M7.5,42.9h2l21.2-21.2h0.2c0-0.3,0-0.3-0.2-0.3C15.1,21.6,2.4,34.3,2.4,50l4.7-4.7L7.5,42.9z"/>
	<path class="st4" d="M25.1,52.1c0,0-0.2,0-0.6-0.2c-2.3,0-2.7,1.1-2.7,1.8c0,0.5,0.3,1.2,1.2,1.2C24.8,55,25.1,52.6,25.1,52.1z"/>
	<path class="st4" d="M30.1,57.5c0,0-0.1,0-0.2,0c-0.1,0-0.2,0-0.3,0c-1-0.1-1.5-0.2-1.5-0.2l0.1-0.1C28,57.1,28,57,27.9,57l0.5-2.7
		c0,0,1.2,0.4,2.4,0.4l0-2.7c-0.9-0.5-1.7-1.3-1.7-2.9c0-1.6,0.7-2.6,1.6-3.2l-0.1-24.2L9.5,42.9h0.8h1.7l0.2,8.9l3-8.9h1.2h3.8
		l-2.4,14.5h-3.2l1.7-10.9l-3.9,10.9h-2.1L9.8,46.5L8,57.4H5.1l2-12.2L2.4,50c0,15.7,12.7,28.6,28.6,28.6l-0.1-21
		C30.6,57.5,30.3,57.5,30.1,57.5z M24.6,57.6l0-0.2h0l0.1-1c-0.2,0.1-1.1,1.3-3.2,1.3c-1.1,0-2.9-0.6-2.9-3.3c0,0,0,0,0-0.1
		c0,0,0,0,0-0.1c0-3.5,2.9-4.5,5.4-4.5c0.5,0,1.4,0,1.4,0s0.1-0.2,0.1-0.7c0-0.9-0.9-1-2-1c-2,0-3.3,0.6-3.3,0.6l0.4-0.3
		c-0.2,0.1-0.4,0.1-0.4,0.1l0.5-2.6c0,0,1.5-0.6,3.6-0.6c1.1,0,4.1,0.2,4.1,3.8l0,0.1c0,0,0,0.1,0,0.1l-1.2,8.3H24.6z"/>
	<path class="st5" d="M32.9,53.6c0-0.7-1.1-1-2.1-1.6l0,2.7c0.1,0,0.2,0,0.3,0C31.9,54.7,32.9,54.5,32.9,53.6z"/>
	<path class="st5" d="M45,65.3L45,65.3c-0.6-1-1.1-2-1.6-3h0c0-0.1,0-0.1-0.1-0.2c-0.8-1.8-1.6-3.7-2-5.6l-0.1,0.8
		c-0.3,0.2-1.1,0.5-2,0.5c0,0-0.1,0-0.1,0c-0.1,0-0.1,0-0.2,0c-1.4,0-2.4-0.8-2.4-2.6l0.4-0.8c0.3-2.7,1.7-10.4,1.7-10.4h2.6
		c0.2-1,0.5-1.9,0.8-2.8c0,0,0,0,0-0.1h0c1.5-4.7,4.2-8.9,7.8-12.1c-5-4.6-11.7-7.2-18.9-7.2h-0.2l0.1,24.2c0.8-0.5,1.8-0.7,2.9-0.7
		c0,0,0.1,0,0.1,0c0,0,0,0,0,0c1.8,0,2.9,0.3,2.9,0.3l-0.5,2.7c0,0-0.1,0-0.1,0l0,0c0,0-1.4-0.1-2-0.1c-1,0-1.6,0.3-1.6,1.1
		c0,1.5,3.6,0.8,3.6,4.5c0,4.1-3.8,3.9-4.5,3.9c0,0,0,0,0,0c0,0-0.1,0-0.1,0c-0.2,0-0.4,0-0.6,0l0.1,21c7.4,0,14-2.8,19.1-7.3
		c-1.9-1.7-3.4-3.6-4.8-5.7C45.2,65.5,45.1,65.4,45,65.3z"/>
	<path class="st5" d="M39.7,53.9c-0.2,0.3,0,0.9,1.1,0.9c0.1,0,0.1,0,0.1,0c-0.3-1.6-0.4-3.2-0.4-4.8c0-0.2,0-0.4,0-0.7L39.7,53.9z"
		/>
	<path class="st5" d="M40.5,49.3c0,0.2,0,0.4,0,0.7l1.4-1.4h-1.2L40.5,49.3z"/>
	<polygon class="st5" points="41.2,45.8 42.7,45.8 42.4,48.1 46.4,44.1 41.5,44.1 	"/>
	<path class="st5" d="M42,41.1c-0.3,0.9-0.6,1.8-0.8,2.8h0.1C41.4,43,41.7,42.1,42,41.1z"/>
	<path class="st5" d="M49.4,41.1l3-3h-9.2c0.5-1.1,1.1-2,1.7-3H55c-0.6-1.1-1.4-2.1-2.3-3h-5.6c0.9-1.1,1.8-2,2.9-2.9
		c-0.1-0.1-0.2-0.1-0.3-0.2c-3.6,3.3-6.2,7.4-7.8,12.1H49.4z"/>
	<path class="st5" d="M42,41.1C42,41.1,42,41.1,42,41.1C42,41.1,42,41.1,42,41.1L42,41.1z"/>
	<path class="st5" d="M53,68.1h-5.9c-0.7-0.8-1.3-1.7-1.9-2.6c1.4,2.1,3,4,4.8,5.7c0,0,0.1-0.1,0.1-0.1C51.2,70.3,52.1,69.2,53,68.1
		z"/>
	<path class="st5" d="M55.1,65.3c0.6-0.9,1.2-2,1.7-3H43.4c0.5,1,1,2.1,1.7,3H55.1z"/>
	<path class="st5" d="M42.3,48.6h-0.5L40.5,50c0,1.6,0.2,3.2,0.4,4.8c0.2,0,0.5-0.1,0.6-0.1l-0.3,1.7c0.5,2,1.2,3.8,2,5.6
		c-0.4-0.9-0.8-1.8-1.1-2.8h15.7c0.5-1.5,0.8-3.1,1.1-4.6c-0.4-0.9-0.7-2-0.7-3.2c0-1.7,0.3-3.1,0.9-4.4c0-0.4-0.1-0.8-0.2-1.2
		c-0.3,0.7-0.7,1.5-1,3.3c-2.1-0.8-2.3,3.3-3.2,8.3v0.2h-3.3l2-11.8h2.9L56,47.4c0,0,1.1-1.8,2.4-1.8c0.3,0,0.4,0,0.5,0
		c-0.1-0.5-0.1-1-0.2-1.5H46.4l-4,4L42.3,48.6z M47.6,45.6c3.3,0,4.4,2.4,4.4,4.4c0,0.8-0.5,2.7-0.5,2.7h-6.2c0,0-0.6,2.4,2.7,2.4
		c1.5,0,3.2-0.8,3.2-0.8l-0.6,2.9c0,0-0.9,0.5-3.2,0.5c-2.4,0-5.3-1.1-5.3-5.3C42.1,48.6,44.4,45.3,47.6,45.6z"/>
	<path class="st5" d="M45.2,65.6c-0.1-0.1-0.1-0.2-0.2-0.3h0C45.1,65.4,45.2,65.5,45.2,65.6z"/>
	<path class="st5" d="M43.4,62.2c0-0.1-0.1-0.1-0.1-0.2C43.3,62.1,43.3,62.2,43.4,62.2L43.4,62.2z"/>
	<path class="st5" d="M47.4,48c-1.7,0-2,2-2,2.1h3.3C48.8,50,49.1,48,47.4,48z"/>
	<path class="st5" d="M57.7,41.1c-0.3-1.1-0.8-2.1-1.2-3h-4.1l-3,3H57.7z"/>
	<path class="st6" d="M41.5,44.1l0.1-0.2h-0.3c0,0.1,0,0.1,0,0.2H41.5z"/>
	<path class="st6" d="M39.1,57.7c0.9,0,1.7-0.3,2-0.5c-0.3,0.1-1.1,0.4-2.1,0.4C39,57.7,39.1,57.7,39.1,57.7z"/>
	<path class="st6" d="M41.1,44h-2.6c0,0-1.4,7.6-1.7,10.4l4.1-8.9C41,44.9,41,44.4,41.1,44z"/>
	<path class="st6" d="M41.5,44.1h-0.2c0-0.1,0-0.1,0-0.2h-0.1c-0.1,0.5-0.2,0.9-0.2,1.4L41.5,44.1z"/>
	<path class="st6" d="M47.4,57.7c-2.4,0-3.8-1.1-3.8-5.3c0-3.8,0.8-7.1,3.9-6.8c-3.2-0.3-5.4,3-5.4,6.8C42.1,56.7,45,57.7,47.4,57.7
		z"/>
	<path class="st6" d="M48.8,50.2h0.6c0-0.2-0.3-2.1-2-2.1C49.1,48,48.8,50,48.8,50.2z"/>
	<path class="st6" d="M59,54.6c0.6,1.3,1.5,2.3,2.9,2.8c-1.8-0.8-2-3-2-6c0-4.9,1.4-7.8,4-8.5c-1.9,0.5-3.7,1.9-4.6,4.2
		c0.1,1,0.2,2.1,0.2,3.2C59.4,51.7,59.2,53.1,59,54.6z"/>
	<path class="st6" d="M59,54.6c0.2-1.4,0.4-2.9,0.4-4.4c0-1.1-0.1-2.1-0.2-3.2c-0.5,1.2-0.9,2.7-0.9,4.4
		C58.3,52.6,58.6,53.6,59,54.6z"/>
	<path class="st6" d="M24.2,49.8c0.5,0,1.4,0,1.4,0s0.2-0.2,0.2-0.8c0,0,0,0,0,0c0,0.5-0.1,0.7-0.1,0.7s-0.9,0-1.4,0
		c-2.6,0-5.4,1.1-5.4,4.5c0,0,0,0.1,0,0.1C18.8,50.9,21.6,49.8,24.2,49.8z"/>
	<path class="st6" d="M28.5,49.2L28.5,49.2c0-3.7-3-3.8-4.1-3.8c-2.1,0-3.6,0.6-3.6,0.6l-0.5,2.6c0,0,0.2-0.1,0.4-0.1l3.6-2.7
		C25.5,45.6,28.5,45.8,28.5,49.2z"/>
	<path class="st6" d="M25.1,52.1c0,0.5-0.3,2.9-2.1,2.9c1.8,0,3.6-2.4,3.6-2.9c0,0-1.7,0-2.1-0.2C24.9,52.1,25.1,52.1,25.1,52.1z"/>
	<polygon class="st6" points="24.7,56.4 24.6,57.4 24.6,57.4 24.8,56.3 	"/>
	<path class="st6" d="M30.8,52l0-6.1c-1,0.6-1.6,1.6-1.6,3.2C29.1,50.7,29.9,51.5,30.8,52z"/>
	<path class="st6" d="M30.8,54.7c-1.3-0.1-2.4-0.4-2.4-0.4L27.9,57c0,0.1,0.1,0.2,0.2,0.2l2.6-2.1L30.8,54.7z"/>
	<path class="st6" d="M30.1,57.5c0.2,0,0.5,0,0.8,0v0C30.6,57.5,30.3,57.5,30.1,57.5z"/>
	<path class="st6" d="M32.9,53.6c0,0.9-1.1,1.1-1.8,1.1c-0.1,0-0.2,0-0.3,0l0,0.4l0.4-0.3c0.8,0,1.8-0.2,1.8-1.1
		c0-1.4-2.3-1.1-2.3-4.5c0-3,0.8-3.9,3-3.9c0,0-0.1,0-0.1,0c-1,0-2.1,0.2-2.9,0.7l0,6.1C31.8,52.6,32.9,52.9,32.9,53.6z"/>
	<path class="st6" d="M34.1,48c0.6,0,2,0.1,2,0.1l0,0C35.7,48.1,34.5,48,34.1,48C34.1,48,34.1,48,34.1,48z"/>
	<path class="st6" d="M30.8,57.5c0.2,0,0.3,0,0.6,0c0,0,0.1,0,0.1,0C31.3,57.6,31.1,57.5,30.8,57.5L30.8,57.5z"/>
	<path class="st6" d="M84.6,52.7c0-3.9,0.9-7.3,3.6-7.3c-2.7,0-5.1,3.3-5.1,7.3c0,2.4,1.2,5,3.8,5C84.3,57.7,84.6,55.1,84.6,52.7z"
		/>
	<polygon class="st6" points="91.7,42.9 91.1,47 94.9,43 	"/>
	<path class="st6" d="M88.7,48.3c1.1,0,1.7,0.8,1.7,2.6c0,1.7-0.8,3.8-2.4,3.8c1.7,0,3-2.1,3-3.8C91,49.1,89.8,48.3,88.7,48.3z"/>
	<polygon class="st6" points="7.1,45.3 9.5,42.9 7.5,42.9 	"/>
	<polygon class="st6" points="5.1,57.4 10.2,42.9 9.5,42.9 7.1,45.3 	"/>
	<polygon class="st6" points="15.1,42.9 12.1,51.8 16.3,42.9 	"/>
	<polygon class="st6" points="56.3,45.8 53.5,45.8 51.5,57.6 54.8,57.6 54.8,57.4 51.7,57.4 	"/>
	<path class="st6" d="M67.9,54.3c0-1.3,0.5-2.2,1.2-2.9v-0.2C68.4,52,67.8,52.9,67.9,54.3C67.8,54.3,67.9,54.3,67.9,54.3z"/>
	<path class="st6" d="M77.7,49.2L77.7,49.2c0.2-3.7-3-3.8-4.1-3.8c-2.1,0-3.6,0.6-3.6,0.6l-0.5,2.6c0,0,0.2-0.1,0.4-0.1l3.6-2.7
		C74.6,45.6,77.6,45.8,77.7,49.2z"/>
	<path class="st6" d="M73.3,49.8c0.5,0,1.4,0,1.4,0s0.2-0.2,0.2-0.8c0,0,0,0,0,0c0,0.5-0.1,0.7-0.1,0.7s-0.9,0-1.4,0
		c-1.6,0-3.2,0.5-4.2,1.6v0.2C70.1,50.3,71.7,49.8,73.3,49.8z"/>
	<path class="st6" d="M74.3,52.1c0,0.4-0.3,2.1-1.4,2.6c1.5-0.6,2.8-2.2,2.8-2.6c0,0-1.1,0-1.8-0.1C74.1,52.1,74.2,52.1,74.3,52.1z"
		/>
	<polygon class="st6" points="73.9,56.4 73.7,57.4 73.8,57.4 73.9,56.3 	"/>
	<path class="st6" d="M71,53.8c0-0.7,0.5-1.8,2.6-1.8c0,0-0.1,0-0.1,0c-2.3,0-2.7,1.1-2.7,1.8c0,0.5,0.3,1.2,1.2,1.2c0,0,0,0,0.1,0
		C71.3,54.9,71,54.2,71,53.8z"/>
	<polygon class="st6" points="81.7,45.8 78.9,45.8 76.9,57.6 80.2,57.6 80.2,57.4 77.1,57.4 	"/>
	<path class="st7" d="M36.7,55.1c0-0.2,0-0.4,0.1-0.8l-0.4,0.8c0,1.8,1.1,2.6,2.4,2.6c0.1,0,0.1,0,0.2,0
		C37.7,57.6,36.7,56.9,36.7,55.1z"/>
	<polygon class="st7" points="41.5,44.1 41.5,44 41.5,44.1 	"/>
	<path class="st7" d="M40.8,54.8c-1.1,0-1.2-0.6-1.1-0.9l0.8-4.6c0-1.3,0.2-2.7,0.4-4l-4.1,8.9c0,0.4-0.1,0.7-0.1,0.8
		c0,1.8,1,2.5,2.3,2.5c1,0,1.8-0.3,2.1-0.4l0.1-0.8c-0.1-0.5-0.2-1.1-0.3-1.6C40.9,54.8,40.8,54.8,40.8,54.8z"/>
	<path class="st7" d="M40.9,45.4c-0.2,1.3-0.3,2.6-0.4,4l0.1-0.7h1.2l0.5-0.5l0.4-2.3h-1.5l0.3-1.7h0L40.9,45.4z"/>
	<polygon class="st7" points="42.3,48.6 42.4,48.1 41.8,48.6 	"/>
	<path class="st7" d="M40.9,54.8c0.1,0.5,0.2,1.1,0.3,1.6l0.3-1.7C41.4,54.7,41.2,54.8,40.9,54.8z"/>
	<path class="st7" d="M43.7,52.4c0,4.2,1.4,5.3,3.8,5.3c2.3,0,3.2-0.5,3.2-0.5l0.6-2.9c0,0-1.7,0.8-3.2,0.8c-3.3,0-2.7-2.4-2.7-2.4
		h6.2c0,0,0.5-2,0.5-2.7c0-2-1.1-4.4-4.4-4.4C44.4,45.3,43.7,48.6,43.7,52.4z M47.4,48c1.7,0,2,2,2,2.1h-0.6h-3.3
		C45.5,50,45.8,48,47.4,48z"/>
	<path class="st7" d="M59.8,51.4c0,3,0.2,5.2,2,6c0.5,0.2,1.1,0.4,1.9,0.4c1.2,0,2.9-0.5,2.9-0.5l0.6-3.3c0,0-1.5,0.8-2.6,0.8
		c-2.1,0-3-1.7-3-3.5c0-3.6,1.8-5.6,3.9-5.6c1.5,0,2.7,0.9,2.7,0.9l0.5-3.2c0,0-1.8-0.8-3.5-0.8c-0.5,0-1,0.1-1.5,0.2
		C61.3,43.6,59.8,46.5,59.8,51.4z"/>
	<path class="st7" d="M63.8,42.8c0.5-0.1,1-0.2,1.5-0.2C64.7,42.6,64.3,42.7,63.8,42.8z"/>
	<path class="st7" d="M28.5,49.2l-1.2,8.2h-2.7l0,0.2h2.7L28.5,49.2C28.5,49.2,28.5,49.2,28.5,49.2z"/>
	<path class="st7" d="M23.7,47.9c-1.4,0-2.4,0.3-3,0.5l-0.4,0.3c0,0,1.4-0.6,3.3-0.6c1,0,1.9,0.2,2,1c0,0,0-0.1,0-0.1
		C25.7,48,24.8,47.9,23.7,47.9z"/>
	<path class="st7" d="M21.6,57.6c-1,0-2.8-0.6-2.9-3.2c0,0,0,0,0,0.1c0,2.7,1.8,3.3,2.9,3.3c2.1,0,3-1.3,3.2-1.3l0-0.2
		C24.6,56.2,23.7,57.6,21.6,57.6z"/>
	<path class="st7" d="M28.5,49.2c-0.1-3.4-3-3.5-4.2-3.5l-3.6,2.7c0.5-0.2,1.6-0.5,3-0.5c1.1,0,2,0.2,2,1.1c0,0.1,0,0.1,0,0.1
		c0,0,0,0,0,0c0,0.6-0.2,0.8-0.2,0.8s-0.9,0-1.4,0c-2.5,0-5.4,1.1-5.4,4.5c0,2.6,1.8,3.2,2.9,3.2c2.1,0,3-1.4,3.2-1.4l0,0.2
		c0,0,0,0,0,0l-0.1,1.1h2.7L28.5,49.2z M22.9,55c-0.9,0-1.2-0.8-1.2-1.2c0-0.8,0.5-1.8,2.7-1.8c0.5,0.2,2.1,0.2,2.1,0.2
		C26.6,52.6,24.8,55,22.9,55z"/>
	<path class="st7" d="M28.1,57.3c0,0,0.5,0.1,1.5,0.2C28.9,57.4,28.4,57.3,28.1,57.3L28.1,57.3z"/>
	<path class="st7" d="M36.1,48.2c0.1,0,0.1,0,0.1,0l0.5-2.7c0,0-1.1-0.3-2.9-0.3c0,0,0,0,0,0c1.7,0,2.8,0.3,2.8,0.3L36.1,48.2z"/>
	<path class="st7" d="M32.3,49.1c0,1.5,3.6,0.8,3.6,4.5c0,3.9-3.4,3.9-4.4,3.9c0,0,0,0,0,0c0.8,0,4.5,0.2,4.5-3.9
		c0-3.8-3.6-3-3.6-4.5c0-0.7,0.6-1,1.6-1.1c0,0-0.1,0-0.1,0C32.9,48,32.3,48.3,32.3,49.1z"/>
	<path class="st7" d="M30.8,55l-2.6,2.1c0.2,0.1,0.7,0.2,1.4,0.3c0.1,0,0.2,0,0.3,0c0,0,0.1,0,0.2,0c0.2,0,0.5,0,0.8,0L30.8,55z"/>
	<path class="st7" d="M30.8,49.1c0,3.5,2.3,3.2,2.3,4.5c0,0.9-1.1,1.1-1.8,1.1L30.8,55l0,2.5c0.2,0,0.4,0,0.7,0c1,0,4.4,0,4.4-3.9
		c0-3.8-3.6-3-3.6-4.5c0-0.8,0.6-1.1,1.7-1.1c0,0,0.1,0,0.1,0c0,0,0,0,0,0c0.4,0,1.6,0.1,2,0.1l0.5-2.7c0,0-1-0.3-2.8-0.3
		C31.6,45.2,30.8,46.1,30.8,49.1z"/>
	<path class="st7" d="M91.1,47c0,0-1.2-1.5-2.9-1.5c-2.7,0-3.6,3.3-3.6,7.3c0,2.4-0.3,5,2.3,5c1.8,0,2.9-1.2,2.9-1.2l-0.2,1.1h3
		L94.9,43L91.1,47z M87.9,54.7c-1.1,0-1.7-0.9-1.7-2.4c0-2.4,1.1-3.9,2.4-3.9c1.1,0,2.3,0.8,2.3,2.6C91,52.6,89.6,54.7,87.9,54.7z"
		/>
	<polygon class="st7" points="8,57.4 9.8,46.5 10.1,57.4 12.2,57.4 16.1,46.5 14.5,57.4 17.7,57.4 20.1,42.9 16.3,42.9 12.1,51.8 
		11.9,42.9 10.2,42.9 5.1,57.4 	"/>
	<path class="st7" d="M59.1,45.6C59.1,45.6,59,45.6,59.1,45.6C59,45.7,59,45.7,59,45.8C59,45.7,59,45.7,59.1,45.6z"/>
	<path class="st7" d="M56,47.4l0.3-1.7l-4.7,11.6h3.2c0.9-5,1.1-9.1,3.2-8.3c0.3-1.8,0.7-2.6,1-3.3c0-0.1,0-0.1,0-0.2
		c-0.1,0-0.2,0-0.5,0C57.1,45.6,56,47.4,56,47.4z"/>
	<path class="st7" d="M67.9,54.3C67.9,54.3,67.8,54.4,67.9,54.3c0,1.6,0.5,2.4,1.2,2.8V57C68.4,56.5,67.9,55.7,67.9,54.3z"/>
	<path class="st7" d="M72.2,55c0.3,0,0.5-0.1,0.7-0.2C72.7,54.8,72.4,55,72.2,55C72.2,55,72.2,55,72.2,55z"/>
	<path class="st7" d="M70.7,57.6c-0.5,0-1.1-0.2-1.7-0.6v0.2c0.6,0.4,1.2,0.6,1.7,0.6c2.1,0,3-1.3,3.2-1.3l0-0.2
		C73.7,56.2,72.8,57.6,70.7,57.6z"/>
	<path class="st7" d="M73.7,52C73.7,52,73.7,52,73.7,52c0,0,0.1,0,0.1,0C73.8,52,73.8,52,73.7,52z"/>
	<path class="st7" d="M72.8,47.9c-1.4,0-2.4,0.3-3,0.5l-0.4,0.3c0,0,1.4-0.6,3.3-0.6c1,0,1.9,0.2,2,1c0,0,0-0.1,0-0.1
		C74.8,48,73.9,47.9,72.8,47.9z"/>
	<path class="st7" d="M73.8,57.4l0,0.2h2.7l1.2-8.3c0,0,0-0.1,0-0.1l-1.2,8.2H73.8z"/>
	<path class="st7" d="M69,51.4c-0.7,0.7-1.2,1.6-1.2,2.9c0,1.4,0.5,2.2,1.2,2.7V51.4z"/>
	<path class="st7" d="M74.6,49.8c0,0-0.9,0-1.4,0c-1.6,0-3.2,0.5-4.2,1.6V57c0.6,0.4,1.2,0.6,1.7,0.6c2.1,0,3-1.4,3.2-1.4l0,0.2
		c0,0,0,0,0,0l-0.1,1.1h2.7l1.2-8.2c-0.1-3.4-3-3.5-4.2-3.5l-3.6,2.7c0.5-0.2,1.6-0.5,3-0.5c1.1,0,2,0.2,2,1.1c0,0.1,0,0.1,0,0.1
		c0,0,0,0,0,0C74.8,49.7,74.6,49.8,74.6,49.8z M75.7,52.1c0,0.4-1.3,2.1-2.8,2.6c-0.2,0.1-0.4,0.2-0.7,0.2c0,0-0.1,0-0.1,0
		c0,0,0,0-0.1,0c-0.9,0-1.2-0.8-1.2-1.2c0-0.8,0.5-1.8,2.7-1.8c0,0,0.1,0,0.1,0c0,0,0,0,0.1,0c0.1,0,0.1,0,0.1,0
		C74.6,52.1,75.7,52.1,75.7,52.1z"/>
	<path class="st7" d="M84.5,45.6c0,0-0.2,0-0.6,0c-1.4,0-2.4,1.8-2.4,1.8l0.3-1.7l-4.7,11.6h3.2c0.9-5,1.1-9.1,3.2-8.3
		C83.7,47.1,84.2,46.4,84.5,45.6z"/>
</g>
</svg>
