<?xml version="1.0" encoding="utf-8"?>
<!-- Generator: Adobe Illustrator 19.0.0, SVG Export Plug-In . SVG Version: 6.00 Build 0)  -->
<svg version="1.1" id="Layer_1" xmlns="http://www.w3.org/2000/svg" xmlns:xlink="http://www.w3.org/1999/xlink" x="0px" y="0px"
	 viewBox="0 0 100 100" style="enable-background:new 0 0 100 100;" xml:space="preserve">
<style type="text/css">
	.st0{clip-path:url(#XMLID_8_);fill:#FFFFFF;}
	.st1{clip-path:url(#XMLID_9_);fill:#FFFFFF;}
	.st2{clip-path:url(#XMLID_10_);fill:#FFFFFF;}
</style>
<g>
	<defs>
		<path id="XMLID_5_" d="M13.3,22.5h73.3c1.9,0,3.4-1.1,3.4-2.5s-1.5-2.5-3.4-2.5H13.3c-1.9,0-3.4,1.1-3.4,2.5S11.4,22.5,13.3,22.5z
			"/>
	</defs>
	<clipPath id="XMLID_8_">
		<use xlink:href="#XMLID_5_"  style="overflow:visible;"/>
	</clipPath>
	<rect id="XMLID_6_" x="-15.2" y="-7.5" class="st0" width="130.4" height="55.1"/>
</g>
<g>
	<defs>
		<path id="XMLID_3_" d="M13.3,47.6h73.3c1.9,0,3.4-1.1,3.4-2.5s-1.5-2.5-3.4-2.5H13.3c-1.9,0-3.4,1.1-3.4,2.5S11.4,47.6,13.3,47.6z
			"/>
	</defs>
	<clipPath id="XMLID_9_">
		<use xlink:href="#XMLID_3_"  style="overflow:visible;"/>
	</clipPath>
	<rect id="XMLID_4_" x="-15.2" y="17.5" class="st1" width="130.4" height="55.1"/>
</g>
<g>
	<defs>
		<path id="XMLID_1_" d="M13.3,77.7h73.3c1.9,0,3.4-1.1,3.4-2.5c0-1.4-1.5-2.5-3.4-2.5H13.3c-1.9,0-3.4,1.1-3.4,2.5
			C9.9,76.6,11.4,77.7,13.3,77.7z"/>
	</defs>
	<clipPath id="XMLID_10_">
		<use xlink:href="#XMLID_1_"  style="overflow:visible;"/>
	</clipPath>
	<rect id="XMLID_2_" x="-15.2" y="47.6" class="st2" width="130.4" height="55.1"/>
</g>
</svg>
