<?xml version="1.0" encoding="utf-8"?>
<!-- Generator: Adobe Illustrator 19.0.0, SVG Export Plug-In . SVG Version: 6.00 Build 0)  -->
<svg version="1.1" id="Layer_1" xmlns="http://www.w3.org/2000/svg" xmlns:xlink="http://www.w3.org/1999/xlink" x="0px" y="0px"
	 viewBox="0 0 100 100" style="enable-background:new 0 0 100 100;" xml:space="preserve">
<style type="text/css">
	.st0{clip-path:url(#SVGID_2_);}
	.st1{clip-path:url(#SVGID_4_);fill:#E22F0A;}
	.st2{clip-path:url(#SVGID_6_);}
	.st3{clip-path:url(#SVGID_8_);fill:#E22F0A;}
	.st4{clip-path:url(#SVGID_10_);}
	.st5{clip-path:url(#SVGID_12_);fill:#E22F0A;}
</style>
<g>
	<defs>
		<path id="SVGID_1_" d="M13.9,15.7c-2.1,0-3.9,1.7-3.9,3.9v49c0,2.1,1.7,3.9,3.9,3.9h72.2c2.1,0,3.9-1.7,3.9-3.9v-49
			c0-2.1-1.7-3.9-3.9-3.9H13.9z M86.1,75H13.9c-3.6,0-6.4-2.9-6.4-6.4v-49c0-3.6,2.9-6.4,6.4-6.4h72.2c3.6,0,6.4,2.9,6.4,6.4v49
			C92.6,72.1,89.7,75,86.1,75z"/>
	</defs>
	<clipPath id="SVGID_2_">
		<use xlink:href="#SVGID_1_"  style="overflow:visible;"/>
	</clipPath>
	<g class="st0">
		<defs>
			<rect id="SVGID_3_" x="-2682.5" y="-5413.7" width="3271.8" height="11993.6"/>
		</defs>
		<clipPath id="SVGID_4_">
			<use xlink:href="#SVGID_3_"  style="overflow:visible;"/>
		</clipPath>
		<rect x="-4.2" y="1.5" class="st1" width="108.5" height="85.3"/>
	</g>
</g>
<g>
	<defs>
		<path id="SVGID_5_" d="M66.4,87.4H33.6c-0.7,0-1.3-0.6-1.3-1.3s0.6-1.3,1.3-1.3h32.9c0.7,0,1.3,0.6,1.3,1.3S67.2,87.4,66.4,87.4z"
			/>
	</defs>
	<clipPath id="SVGID_6_">
		<use xlink:href="#SVGID_5_"  style="overflow:visible;"/>
	</clipPath>
	<g class="st2">
		<defs>
			<rect id="SVGID_7_" x="-2682.5" y="-5413.7" width="3271.8" height="11993.6"/>
		</defs>
		<clipPath id="SVGID_8_">
			<use xlink:href="#SVGID_7_"  style="overflow:visible;"/>
		</clipPath>
		<rect x="20.6" y="73.1" class="st3" width="58.8" height="25.9"/>
	</g>
</g>
<g>
	<defs>
		<path id="SVGID_9_" d="M50,87.4c-0.7,0-1.3-0.6-1.3-1.3V73.7c0-0.7,0.6-1.3,1.3-1.3c0.7,0,1.3,0.6,1.3,1.3v12.3
			C51.3,86.8,50.7,87.4,50,87.4z"/>
	</defs>
	<clipPath id="SVGID_10_">
		<use xlink:href="#SVGID_9_"  style="overflow:visible;"/>
	</clipPath>
	<g class="st4">
		<defs>
			<rect id="SVGID_11_" x="-2682.5" y="-5413.7" width="3271.8" height="11993.6"/>
		</defs>
		<clipPath id="SVGID_12_">
			<use xlink:href="#SVGID_11_"  style="overflow:visible;"/>
		</clipPath>
		<rect x="37" y="60.8" class="st5" width="25.9" height="38.3"/>
	</g>
</g>
</svg>
