<?xml version="1.0" encoding="utf-8"?>
<!-- Generator: Adobe Illustrator 19.0.0, SVG Export Plug-In . SVG Version: 6.00 Build 0)  -->
<svg version="1.1" id="Layer_1" xmlns="http://www.w3.org/2000/svg" xmlns:xlink="http://www.w3.org/1999/xlink" x="0px" y="0px"
	 viewBox="0 0 100 100" style="enable-background:new 0 0 100 100;" xml:space="preserve">
<style type="text/css">
	.st0{fill:none;}
	.st1{fill:#139AD6;}
	.st2{fill:#263B80;}
	.st3{fill:#232C65;}
</style>
<g>
	<path class="st0" d="M50.5,52c-0.5-0.3-0.9-0.6-1.7-0.6c-1.4,0-2.6,1.1-2.7,2.4c0,0.8,0.2,1.4,0.5,1.8c0.3,0.3,0.9,0.6,1.7,0.6
		c1.5,0,2.6-1.1,2.9-2.4C51.1,53.2,50.9,52.5,50.5,52z"/>
	<path class="st0" d="M37.2,47.2h-0.3c-0.3,0-0.5,0.2-0.5,0.3L35.9,51h0.8c1.4,0,2.7,0,3-1.8c0.2-0.8,0-1.2-0.2-1.4
		C39,47.2,38.1,47.2,37.2,47.2z"/>
	<path class="st0" d="M76.4,49.2c0-0.8,0-1.2-0.3-1.4c-0.5-0.6-1.4-0.6-2.3-0.6h-0.3c-0.3,0-0.5,0.2-0.5,0.3L72.5,51h0.9
		C74.8,51,76.1,51,76.4,49.2z"/>
	<path class="st0" d="M85.4,51.4c-1.4,0-2.6,1.1-2.7,2.4c0,0.8,0.2,1.4,0.5,1.8c0.3,0.3,0.9,0.6,1.7,0.6c1.5,0,2.6-1.1,2.9-2.4
		c0.2-0.6,0-1.4-0.6-1.8C86.6,51.7,86.2,51.4,85.4,51.4z"/>
	<path class="st1" d="M67.9,58c0,0.3,0.2,0.5,0.5,0.5H71c0.3,0,0.5-0.2,0.5-0.5l0.6-3.8c0-0.3,0.3-0.6,0.8-0.6h1.7
		c3.5,0,5.4-1.7,5.9-5c0.3-1.4,0-2.6-0.6-3.3c-0.9-0.8-2.3-1.2-3.9-1.2h-5.1c-0.3,0-0.6,0.3-0.8,0.6L67.9,58z M73.1,47.5
		c0-0.2,0.2-0.3,0.5-0.3h0.3c0.9,0,1.8,0,2.3,0.6c0.3,0.1,0.3,0.6,0.3,1.4c-0.3,1.8-1.7,1.8-3,1.8h-0.9L73.1,47.5z"/>
	<path class="st2" d="M39,44.2h-5.1c-0.3,0-0.6,0.3-0.8,0.6L31.1,58c0,0.3,0.2,0.5,0.5,0.5h2.4c0.3,0,0.6-0.3,0.8-0.6l0.6-3.6
		c0-0.3,0.3-0.6,0.8-0.6h1.7c3.5,0,5.4-1.7,5.9-5c0.3-1.4,0-2.6-0.6-3.3C42,44.7,40.8,44.2,39,44.2z M39.6,49.2
		C39.3,51,38,51,36.6,51h-0.8l0.6-3.5c0-0.2,0.2-0.3,0.5-0.3h0.3c0.9,0,1.8,0,2.3,0.6C39.6,48,39.8,48.4,39.6,49.2z"/>
	<path class="st2" d="M50.8,58.5H53c0.3,0,0.6-0.3,0.8-0.6l1.4-8.4C55,49.3,54.7,49,54.5,49h-2.4c-0.2,0-0.5,0.2-0.5,0.3l-0.2,0.8
		l-0.2-0.3c-0.6-0.8-1.7-1.1-2.9-1.1c-2.7,0-5.1,2.1-5.6,5c-0.3,1.5,0.2,2.9,0.9,3.8c0.8,0.9,1.8,1.2,3.2,1.2c2.3,0,3.5-1.4,3.5-1.4
		L50.3,58C50.3,58.3,50.5,58.5,50.8,58.5z M48.2,56.2c-0.8,0-1.4-0.3-1.7-0.6c-0.3-0.5-0.5-1.1-0.5-1.8c0.2-1.4,1.4-2.4,2.7-2.4
		c0.8,0,1.2,0.3,1.7,0.6c0.5,0.5,0.6,1.2,0.6,1.8C50.8,55.2,49.7,56.2,48.2,56.2z"/>
	<path class="st1" d="M91.1,49h-2.4c-0.2,0-0.5,0.2-0.5,0.3l-0.2,0.8L88,49.8c-0.6-0.8-1.7-1.1-2.9-1.1c-2.7,0-5.1,2.1-5.6,5
		c-0.3,1.5,0.2,2.9,0.9,3.8c0.8,0.9,1.8,1.2,3.2,1.2c2.3,0,3.5-1.4,3.5-1.4L86.9,58c0,0.3,0.2,0.5,0.5,0.5h2.3
		c0.3,0,0.6-0.3,0.8-0.6l1.4-8.4C91.6,49.3,91.4,49,91.1,49z M87.7,53.8c-0.3,1.4-1.4,2.4-2.9,2.4c-0.8,0-1.4-0.3-1.7-0.6
		c-0.3-0.5-0.5-1.1-0.5-1.8c0.2-1.4,1.4-2.4,2.7-2.4c0.8,0,1.2,0.3,1.7,0.6C87.7,52.5,87.8,53.2,87.7,53.8z"/>
	<path class="st2" d="M67.6,49H65c-0.3,0-0.5,0.2-0.6,0.3l-3.3,5.1l-1.5-4.8c-0.1-0.3-0.3-0.5-0.8-0.5h-2.4c-0.3,0-0.5,0.3-0.5,0.6
		l2.7,8l-2.6,3.6c-0.2,0.3,0,0.8,0.3,0.8h2.4c0.3,0,0.5-0.2,0.6-0.3l8.3-11.9C68.2,49.5,67.9,49,67.6,49z"/>
	<path class="st1" d="M94.4,44.4c-0.2-0.2-0.3,0-0.5,0.3l-2.1,13.5c0,0.3,0.2,0.5,0.5,0.5h2.1c0.3,0,0.6-0.3,0.8-0.6l2.1-13.2
		c0-0.3-0.2-0.5-0.5-0.5H94.4z"/>
	<path class="st2" d="M14.3,37.9H6.8c-0.5,0-0.9,0.5-1.1,0.9l-3,19.7c0,0.5,0.3,0.8,0.6,0.8h4.5L9,52.2c0-0.1,0.1-0.2,0.2-0.3
		l1.2-7.8c0-0.3,0.2-0.6,0.5-0.8c0.2-0.2,0.3-0.2,0.5-0.2h5.9c0.8,0,1.4,0,2,0.2c0.2,0.2,0.3,0.2,0.5,0.2c0.2,0,0.3,0.1,0.5,0.1
		s0.2,0,0.6,0.2c0.2,0,0.4,0.1,0.6,0.2c0.1-1.9-0.2-3.1-1.2-4.3C18.9,38.5,17,37.9,14.3,37.9z"/>
	<path class="st1" d="M12.5,51.3h-0.2h-2.1c-0.5,0-0.9,0.5-1.1,0.9v-0.3L8,59.2H7.9l-0.3,2.1c0,0.3,0.2,0.6,0.6,0.6H12
		c0.5,0,0.9-0.3,0.9-0.8V61l0.8-4.7v-0.3c0-0.5,0.5-0.8,0.9-0.8h0.6c3.8,0,6.8-1.5,7.5-6c0.3-1.8,0.2-3.5-0.8-4.5
		c-0.1-0.2-0.4-0.5-0.7-0.6c-0.1,0.1-0.1,0.2-0.1,0.3C20.1,49.5,16.8,51.3,12.5,51.3z"/>
	<path class="st1" d="M9.2,51.9L9.2,51.9C9.1,52,9.1,52.1,9,52.2l-1.2,7.1H8L9.2,51.9z"/>
	<path class="st3" d="M21.2,44.2C21.2,44.2,21.2,44.2,21.2,44.2c0.1,0,0.1,0,0.2-0.1c-0.1,0-0.1-0.1-0.1-0.1
		C21.2,44,21.2,44,21.2,44.2C21.2,44.1,21.2,44.1,21.2,44.2z"/>
	<path class="st3" d="M20.6,43.8c-0.5-0.2-0.5-0.2-0.6-0.2s-0.3-0.1-0.5-0.1c-0.2,0-0.3,0-0.5-0.2c-0.6-0.2-1.2-0.2-2-0.2h-5.9
		c-0.2,0-0.3,0-0.5,0.2c-0.3,0.2-0.5,0.5-0.5,0.8l-1.2,7.8c0.2-0.3,0.6-0.6,0.9-0.6h0.2h2.1c4.4,0,7.7-1.7,8.7-6.8
		c0-0.2,0-0.3,0-0.5c0.1,0,0.1,0.1,0.2,0.1c0,0,0-0.1,0-0.1c-0.1,0-0.1,0-0.1,0s0,0,0.1,0c0,0,0-0.1,0-0.1
		C21,43.9,20.8,43.8,20.6,43.8z"/>
	<path class="st3" d="M21.2,44.5c0-0.1,0-0.2,0.1-0.3c0,0,0,0-0.1,0C21.2,44.3,21.2,44.4,21.2,44.5z"/>
	<path class="st3" d="M9.2,52.2c0.1-0.5,0.6-0.9,1.1-0.9h-0.2c-0.3,0-0.7,0.3-0.9,0.6l0,0V52.2z"/>
	<path class="st3" d="M21.2,44.5c0-0.1,0-0.2,0-0.4c-0.1,0-0.1-0.1-0.2-0.1c0,0.2,0,0.3,0,0.5c-1.1,5.1-4.4,6.8-8.7,6.8h0.2
		C16.8,51.3,20.1,49.5,21.2,44.5z"/>
</g>
</svg>
