<?xml version="1.0" encoding="utf-8"?>
<!-- Generator: Adobe Illustrator 19.0.0, SVG Export Plug-In . SVG Version: 6.00 Build 0)  -->
<svg version="1.1" id="Layer_1" xmlns="http://www.w3.org/2000/svg" xmlns:xlink="http://www.w3.org/1999/xlink" x="0px" y="0px"
	 viewBox="0 0 100 100" style="enable-background:new 0 0 100 100;" xml:space="preserve">
<style type="text/css">
	.st0{clip-path:url(#XMLID_10_);}
	.st1{clip-path:url(#XMLID_11_);fill:#FFFFFF;}
</style>
<g id="XMLID_2_">
	<defs>
		<path id="XMLID_3_" d="M96.2,76.2v2.2c0,0.6-0.5,1.1-1.1,1.1H4.9c-0.6,0-1.1-0.5-1.1-1.1v-2.2h38c0.2,0.6,0.8,1.1,1.4,1.1h13.6
			c0.7,0,1.3-0.5,1.4-1.1H96.2z M12.2,23.2c0-0.2,0.2-0.4,0.4-0.4h74.7c0.2,0,0.4,0.2,0.4,0.4v48.1c0,0.2-0.2,0.4-0.4,0.4H12.6
			c-0.2,0-0.4-0.2-0.4-0.4V23.2z M12.6,74.1h74.7c1.5,0,2.8-1.3,2.8-2.8V23.2c0-1.5-1.3-2.8-2.8-2.8H12.6c-1.5,0-2.8,1.3-2.8,2.8
			v48.1C9.8,72.8,11.1,74.1,12.6,74.1z"/>
	</defs>
	<clipPath id="XMLID_10_">
		<use xlink:href="#XMLID_3_"  style="overflow:visible;"/>
	</clipPath>
	<g id="XMLID_7_" class="st0">
		<defs>
			<rect id="XMLID_8_" x="-384.8" y="-4338.7" width="2627.9" height="9633"/>
		</defs>
		<clipPath id="XMLID_11_">
			<use xlink:href="#XMLID_8_"  style="overflow:visible;"/>
		</clipPath>
		<rect id="XMLID_9_" x="-5.6" y="11.1" class="st1" width="111.2" height="77.9"/>
	</g>
</g>
</svg>
