<?xml version="1.0" encoding="utf-8"?>
<!-- Generator: Adobe Illustrator 19.0.0, SVG Export Plug-In . SVG Version: 6.00 Build 0)  -->
<svg version="1.1" id="Layer_1" xmlns="http://www.w3.org/2000/svg" xmlns:xlink="http://www.w3.org/1999/xlink" x="0px" y="0px"
	 viewBox="0 0 100 100" style="enable-background:new 0 0 100 100;" xml:space="preserve">
<style type="text/css">
	.st0{fill:#E9E9E0;}
	.st1{fill:#D9D7CA;}
	.st2{fill:#CC4B4C;}
	.st3{fill:#FFFFFF;}
</style>
<g>
	<path class="st0" d="M67.7,43.7c0.3-0.4,0.3-0.6,0.4-0.7c-0.2-0.1-0.5-0.3-2-0.3c-0.8,0-1.9,0-3,0.2c1.4,1.1,1.7,1.6,2.6,1.6
		C66.1,44.5,67.2,44.4,67.7,43.7z"/>
	<path class="st0" d="M35.1,54.9c0,0.2-0.1,0.6,0.7,1.2c0.3-0.1,1.7-0.7,4.4-5.8C36.6,52.3,35.2,54,35.1,54.9z"/>
	<polygon class="st0" points="85.6,23 66.1,3.4 66.1,3.4 85.6,23 	"/>
	<path class="st0" d="M13.9,94.5v0.8c0,0.6,1.1,1.7,2.5,1.7C15,97,13.9,95.9,13.9,94.5z"/>
	<path class="st0" d="M49.6,17.6c-0.2,0.1-2.2,2.9,0.2,5.4C51.3,19.5,49.6,17.6,49.6,17.6z"/>
	<path class="st0" d="M83.6,97c1.4,0,2.5-1.1,2.5-1.7v-0.8C86.1,95.9,85,97,83.6,97z"/>
	<path class="st0" d="M16.4,3c-1.4,0-2.5,1.1-2.5,3.2v62.2h72.2V24.8c0-1-0.1-1.4-0.3-1.6H65.9V3.4C65.7,3.2,65.4,3,65.1,3H16.4z
		 M60.2,40.5c2.2-0.4,4.1-0.6,5.6-0.6c2.6,0,4.2,0.6,4.9,1.9c0.5,1,0.3,2.3-0.7,3.6c-0.9,1.3-2.2,2-3.7,2c-2,0-4.4-1.3-7.1-3.8
		c-4.8,1-10.3,2.8-14.8,4.7c-1.4,3-2.7,5.4-4,7.1c-1.7,2.4-3.2,3.5-4.7,3.5c-0.6,0-1.1-0.2-1.6-0.5c-1.7-1.3-2-2.8-1.9-3.8
		c0.3-2.7,3.7-5.6,10-8.5c2.5-5.5,4.9-12.3,6.4-18c-1.7-3.6-3.3-8.4-2.1-11.1c0.4-1,0.9-1.7,1.9-2c0.4-0.1,1.3-0.3,1.7-0.3
		c0.8,0,1.6,1.1,2.1,1.8c0.5,0.6,1.6,2-0.6,11.4C53.9,32.5,57.1,37.2,60.2,40.5z"/>
	<path class="st0" d="M46.1,44.5c3.5-1.4,7.3-2.5,10.9-3.4c-2.3-2.6-4.5-5.9-6.4-9.3C49.4,36,47.8,40.5,46.1,44.5z"/>
	<path class="st1" d="M85.8,23.2L85.6,23C85.7,23,85.7,23.1,85.8,23.2L85.8,23.2z"/>
	<path class="st1" d="M65.9,3.3v0.1c0.1,0,0.1,0,0.2,0.1L65.9,3.3z"/>
	<path class="st1" d="M85.7,23.2c0,0-0.1-0.1-0.1-0.2L66.1,3.4c0,0-0.1,0-0.2-0.1v19.8H85.7z"/>
	<path class="st2" d="M52.3,16.4c-0.5-0.7-1.3-1.8-2.1-1.8c-0.4,0-1.3,0.2-1.7,0.3c-1,0.3-1.5,1.1-1.9,2c-1.2,2.8,0.4,7.5,2.1,11.1
		c-1.4,5.7-3.8,12.5-6.4,18c-6.4,2.9-9.7,5.8-10,8.5c-0.1,1,0.1,2.5,1.9,3.8c0.5,0.4,1,0.5,1.6,0.5c1.5,0,3-1.1,4.7-3.5
		c1.3-1.8,2.6-4.2,4-7.1c4.5-2,10.1-3.7,14.8-4.7c2.6,2.5,5,3.8,7.1,3.8c1.5,0,2.8-0.7,3.7-2c1-1.4,1.2-2.6,0.7-3.6
		c-0.6-1.3-2.2-1.9-4.9-1.9c-1.5,0-3.4,0.2-5.6,0.6c-3.1-3.3-6.3-8-8.5-12.7C53.9,18.3,52.8,17,52.3,16.4z M35.8,56.1
		c-0.8-0.6-0.7-1-0.7-1.2c0.1-0.9,1.6-2.6,5.2-4.6C37.5,55.4,36,56,35.8,56.1z M66.2,42.7c1.5,0,1.8,0.2,2,0.3
		c0,0.1-0.1,0.3-0.4,0.7c-0.5,0.7-1.6,0.7-2,0.7c-0.9,0-1.2-0.5-2.6-1.6C64.2,42.7,65.3,42.7,66.2,42.7z M49.6,17.6
		c0.1,0,1.8,1.8,0.2,5.4C47.3,20.6,49.4,17.7,49.6,17.6z M57,41.1c-3.6,0.8-7.4,2-10.9,3.4c1.7-4.1,3.3-8.5,4.5-12.7
		C52.5,35.2,54.7,38.5,57,41.1z"/>
	<path class="st2" d="M35.7,83.7c0.3-0.1,0.6-0.3,0.9-0.6c0.3-0.3,0.5-0.6,0.7-1.1c0.2-0.5,0.3-1,0.3-1.7c0-0.3,0-0.6-0.1-1
		c-0.1-0.4-0.2-0.7-0.5-1c-0.2-0.3-0.6-0.6-1-0.8c-0.4-0.2-1-0.3-1.7-0.3h-2.1v6.7h2.5C35,83.8,35.4,83.8,35.7,83.7z"/>
	<path class="st2" d="M13.9,68.5v26.1c0,1.4,1.1,2.5,2.5,2.5h67.2c1.4,0,2.5-1.1,2.5-2.5V68.5H13.9z M32.2,92h-2.8V75h4.9
		c0.7,0,1.4,0.1,2.1,0.3s1.3,0.6,1.9,1c0.6,0.5,1,1,1.4,1.7c0.3,0.6,0.5,1.4,0.5,2.2c0,0.9-0.1,1.6-0.4,2.3s-0.7,1.3-1.2,1.8
		c-0.5,0.5-1.1,0.8-1.9,1.1c-0.7,0.3-1.5,0.4-2.4,0.4h-2V92L32.2,92L32.2,92z M53.9,90.6c-0.6,0.4-1.1,0.7-1.7,0.9
		c-0.5,0.2-1,0.3-1.5,0.4c-0.4,0.1-0.8,0.1-1,0.1h-6.4V75h5.1c1.4,0,2.7,0.2,3.8,0.7c1.1,0.4,2,1.1,2.7,1.8c0.7,0.7,1.2,1.6,1.6,2.6
		c0.4,1,0.5,1.9,0.5,2.9c0,1.4-0.1,2.6-0.4,3.6c-0.3,1-0.7,1.8-1.1,2.5C55,89.7,54.5,90.3,53.9,90.6z M71.6,77.1h-7.8v5.3h7.1v1.9
		h-7.1V92h-2.8V75h10.6V77.1z"/>
	<path class="st2" d="M52.9,88.1c0.8-1.2,1.2-2.9,1.2-5.2c0-0.7-0.1-1.4-0.3-2.1c-0.2-0.7-0.5-1.3-1-1.9c-0.5-0.6-1.1-1-2-1.4
		c-0.8-0.3-1.9-0.5-3.2-0.5h-1.6v12.8h2.7C50.8,89.9,52.1,89.3,52.9,88.1z"/>
	<path class="st3" d="M32.2,85.8h2c0.9,0,1.7-0.1,2.4-0.4c0.7-0.3,1.4-0.6,1.9-1.1c0.5-0.5,0.9-1.1,1.2-1.8s0.4-1.5,0.4-2.3
		c0-0.8-0.2-1.5-0.5-2.2c-0.3-0.6-0.8-1.2-1.4-1.7c-0.6-0.5-1.2-0.8-1.9-1S35,75,34.3,75h-4.9V92h2.8V85.8z M32.2,77.1L32.2,77.1
		L32.2,77.1h2.1c0.7,0,1.3,0.1,1.7,0.3c0.4,0.2,0.8,0.5,1,0.8c0.2,0.3,0.4,0.7,0.5,1c0.1,0.4,0.1,0.7,0.1,1c0,0.7-0.1,1.3-0.3,1.7
		c-0.2,0.5-0.4,0.8-0.7,1.1c-0.3,0.3-0.6,0.4-0.9,0.6c-0.3,0.1-0.7,0.2-1,0.2h-2.5V77.1z"/>
	<path class="st3" d="M56.6,86.6c0.3-1,0.4-2.2,0.4-3.6c0-1-0.2-2-0.5-2.9c-0.4-1-0.9-1.8-1.6-2.6c-0.7-0.7-1.6-1.4-2.7-1.8
		c-1.1-0.4-2.3-0.7-3.8-0.7h-5.1V92h6.4c0.2,0,0.5,0,1-0.1c0.4-0.1,0.9-0.2,1.5-0.4c0.5-0.2,1.1-0.5,1.7-0.9
		c0.6-0.4,1.1-0.9,1.5-1.6C56,88.4,56.3,87.6,56.6,86.6z M48.9,89.9h-2.7V77.1h1.6c1.3,0,2.4,0.2,3.2,0.5c0.8,0.3,1.5,0.8,2,1.4
		c0.5,0.6,0.8,1.2,1,1.9c0.2,0.7,0.3,1.4,0.3,2.1c0,2.3-0.4,4-1.2,5.2C52.1,89.3,50.8,89.9,48.9,89.9z"/>
	<polygon class="st3" points="61.1,75 61.1,92 63.9,92 63.9,84.3 70.9,84.3 70.9,82.5 63.9,82.5 63.9,77.1 71.6,77.1 71.6,75 	"/>
</g>
</svg>
