<?xml version="1.0" encoding="utf-8"?>
<!-- Generator: Adobe Illustrator 19.0.0, SVG Export Plug-In . SVG Version: 6.00 Build 0)  -->
<svg version="1.1" id="Layer_1" xmlns="http://www.w3.org/2000/svg" xmlns:xlink="http://www.w3.org/1999/xlink" x="0px" y="0px"
	 viewBox="0 0 100 100" style="enable-background:new 0 0 100 100;" xml:space="preserve">
<style type="text/css">
	.st0{clip-path:url(#SVGID_2_);}
	.st1{clip-path:url(#SVGID_4_);fill:#E22F0A;}
	.st2{clip-path:url(#SVGID_6_);}
	.st3{clip-path:url(#SVGID_8_);fill:#E22F0A;}
	.st4{clip-path:url(#SVGID_10_);}
	.st5{clip-path:url(#SVGID_12_);fill:#E22F0A;}
</style>
<g>
	<defs>
		<path id="SVGID_1_" d="M70.8,85.4c0,0.9-0.8,1.7-1.7,1.7H30.9c-0.9,0-1.7-0.8-1.7-1.7V14.6c0-0.9,0.8-1.7,1.7-1.7h38.1
			c0.9,0,1.7,0.8,1.7,1.7L70.8,85.4z M69.1,11.2H30.9c-1.9,0-3.4,1.5-3.4,3.4v70.8c0,1.9,1.5,3.4,3.4,3.4h38.1
			c1.9,0,3.4-1.5,3.4-3.4V14.6C72.5,12.7,70.9,11.2,69.1,11.2z"/>
	</defs>
	<clipPath id="SVGID_2_">
		<use xlink:href="#SVGID_1_"  style="overflow:visible;"/>
	</clipPath>
	<g class="st0">
		<defs>
			<rect id="SVGID_3_" x="-2233.4" y="-5664.2" width="3421.9" height="12543.5"/>
		</defs>
		<clipPath id="SVGID_4_">
			<use xlink:href="#SVGID_3_"  style="overflow:visible;"/>
		</clipPath>
		<rect x="15.3" y="-1.1" class="st1" width="69.4" height="102.1"/>
	</g>
</g>
<g>
	<defs>
		<rect id="SVGID_5_" x="31.3" y="15.7" width="37.4" height="57.9"/>
	</defs>
	<clipPath id="SVGID_6_">
		<use xlink:href="#SVGID_5_"  style="overflow:visible;"/>
	</clipPath>
	<g class="st2">
		<defs>
			<rect id="SVGID_7_" x="-2233.4" y="-5664.2" width="3421.9" height="12543.5"/>
		</defs>
		<clipPath id="SVGID_8_">
			<use xlink:href="#SVGID_7_"  style="overflow:visible;"/>
		</clipPath>
		<rect x="19.1" y="3.5" class="st3" width="61.8" height="82.4"/>
	</g>
</g>
<g>
	<defs>
		<circle id="SVGID_9_" cx="50" cy="79.8" r="4"/>
	</defs>
	<clipPath id="SVGID_10_">
		<use xlink:href="#SVGID_9_"  style="overflow:visible;"/>
	</clipPath>
	<g class="st4">
		<defs>
			<rect id="SVGID_11_" x="-2233.4" y="-5664.2" width="3421.9" height="12543.5"/>
		</defs>
		<clipPath id="SVGID_12_">
			<use xlink:href="#SVGID_11_"  style="overflow:visible;"/>
		</clipPath>
		<rect x="33.8" y="63.6" class="st5" width="32.4" height="32.4"/>
	</g>
</g>
</svg>
