<?xml version="1.0" encoding="utf-8"?>
<!-- Generator: Adobe Illustrator 19.0.0, SVG Export Plug-In . SVG Version: 6.00 Build 0)  -->
<svg version="1.1" id="Layer_1" xmlns="http://www.w3.org/2000/svg" xmlns:xlink="http://www.w3.org/1999/xlink" x="0px" y="0px"
	 viewBox="0 0 100 100" style="enable-background:new 0 0 100 100;" xml:space="preserve">
<style type="text/css">
	.st0{clip-path:url(#SVGID_2_);fill:#FFFFFF;}
	.st1{clip-path:url(#SVGID_4_);fill:#FFFFFF;}
	.st2{clip-path:url(#SVGID_6_);fill:#FFFFFF;}
	.st3{clip-path:url(#SVGID_8_);fill:#FFFFFF;}
	.st4{clip-path:url(#SVGID_10_);fill:#FFFFFF;}
</style>
<g>
	<defs>
		<path id="SVGID_1_" d="M63.2,66c-0.8-0.8-1.9-1.2-3.1-1.2c-1.3,0-2.5,0.5-3.4,1.4l-5.5,5.5l-1.5-0.8c-3.3-1.8-7.7-4.3-12.4-9
			c-4.7-4.7-7.2-9.2-9-12.5l-0.8-1.4l5.5-5.5c1.8-1.8,1.9-4.7,0.1-6.5L23,25.8c-0.8-0.8-1.9-1.2-3.1-1.2c-1.3,0-2.5,0.5-3.4,1.4
			L14,28.4l-0.2,0.4c-0.9,1.2-1.7,2.5-2.3,4c-0.5,1.4-0.9,2.7-1,4c-1.3,10.9,3.7,20.9,17.3,34.5C44,87.4,57.4,88.7,61.2,88.7
			c0.6,0,1,0,1.1,0c1.4-0.2,2.7-0.5,4-1c1.4-0.6,2.8-1.3,4-2.2l0.6-0.4l2.3-2.3c1.8-1.8,1.9-4.7,0.1-6.5L63.2,66z"/>
	</defs>
	<clipPath id="SVGID_2_">
		<use xlink:href="#SVGID_1_"  style="overflow:visible;"/>
	</clipPath>
	<rect x="-22.5" y="-8.3" class="st0" width="129.9" height="129.7"/>
</g>
<g>
	<defs>
		<path id="SVGID_3_" d="M52.5,47.2c-2.2-2.2-5-3.8-8-4.6l-1.4-0.4l-0.4,1.4c-0.2,0.5-0.3,1-0.5,1.4l-0.8,1.6l1.7,0.4
			c2.3,0.6,4.4,1.8,6,3.4c1.6,1.6,2.7,3.6,3.3,5.7l0.3,1l2.2,0.1c0.2,0,0.4,0.1,0.7,0.1l2,0.2l-0.5-2C56.4,52.5,54.8,49.6,52.5,47.2
			z"/>
	</defs>
	<clipPath id="SVGID_4_">
		<use xlink:href="#SVGID_3_"  style="overflow:visible;"/>
	</clipPath>
	<rect x="8.6" y="9.5" class="st1" width="81.9" height="81.1"/>
</g>
<g>
	<defs>
		<path id="SVGID_5_" d="M59.6,40.1c-4.1-4.1-9.3-6.8-15.1-7.7l-2-0.3l0.3,2c0.1,0.6,0.2,1.2,0.2,1.8l0.1,1.1l1.1,0.2
			c4.6,0.9,8.8,3,12.1,6.3c3.8,3.8,6.1,8.6,6.6,13.9l0.1,1.1l1.7,0.2c0.3,0,0.6,0,0.9,0l2.1,0.1l-0.2-1.7
			C67,50.6,64.2,44.7,59.6,40.1z"/>
	</defs>
	<clipPath id="SVGID_6_">
		<use xlink:href="#SVGID_5_"  style="overflow:visible;"/>
	</clipPath>
	<rect x="9.6" y="-0.8" class="st2" width="90.9" height="92.4"/>
</g>
<g>
	<defs>
		<path id="SVGID_7_" d="M67.3,32.4c-6.7-6.7-15.7-10.7-25.2-11.3L40.3,21l0.3,1.8c0.1,0.6,0.2,1.2,0.3,1.8l0.2,1.1l1.1,0.1
			c8.2,0.6,16,4.1,21.8,9.9c5.7,5.7,9.2,13.4,9.8,21.5l0.1,1.5l1.5-0.1c0.3,0,0.7,0,1.2-0.1l2.1-0.2l-0.1-1.5
			C77.8,47.6,73.9,38.9,67.3,32.4z"/>
	</defs>
	<clipPath id="SVGID_8_">
		<use xlink:href="#SVGID_7_"  style="overflow:visible;"/>
	</clipPath>
	<rect x="7.4" y="-11.8" class="st3" width="104" height="103.3"/>
</g>
<g>
	<defs>
		<path id="SVGID_9_" d="M89.5,55.8C88.5,44,83.4,33,75.1,24.6c-8.9-8.9-20.7-14.1-33.3-14.5L40.3,10l-0.1,1.4c0,0.4,0,0.8-0.1,1.2
			l-0.1,2.1l1.5,0.1C53,15.2,63.7,19.9,71.8,28c7.5,7.5,12.2,17.6,13,28.2l0.1,1.5l1.5-0.1c0.5-0.1,1-0.1,1.6-0.1l1.6-0.1L89.5,55.8
			z"/>
	</defs>
	<clipPath id="SVGID_10_">
		<use xlink:href="#SVGID_9_"  style="overflow:visible;"/>
	</clipPath>
	<rect x="7.3" y="-22.8" class="st4" width="115.2" height="113.3"/>
</g>
</svg>
