<?xml version="1.0" encoding="utf-8"?>
<!-- Generator: Adobe Illustrator 19.0.0, SVG Export Plug-In . SVG Version: 6.00 Build 0)  -->
<svg version="1.1" id="Layer_1" xmlns="http://www.w3.org/2000/svg" xmlns:xlink="http://www.w3.org/1999/xlink" x="0px" y="0px"
	 viewBox="0 0 100 100" style="enable-background:new 0 0 100 100;" xml:space="preserve">
<style type="text/css">
	.st0{clip-path:url(#SVGID_4_);}
	.st1{clip-path:url(#SVGID_6_);fill:#C9353D;}
	.st2{clip-path:url(#SVGID_8_);}
	.st3{clip-path:url(#SVGID_10_);fill:#FFFFFF;}
</style>
<g>
	<g>
		<defs>
			<rect id="SVGID_1_" x="-1084.5" y="-214" width="1400" height="3833"/>
		</defs>
		<clipPath id="SVGID_2_">
			<use xlink:href="#SVGID_1_"  style="overflow:visible;"/>
		</clipPath>
	</g>
</g>
<g>
	<defs>
		<rect id="SVGID_3_" width="100" height="100"/>
	</defs>
	<clipPath id="SVGID_4_">
		<use xlink:href="#SVGID_3_"  style="overflow:visible;"/>
	</clipPath>
	<g class="st0">
		<defs>
			<rect id="SVGID_5_" x="-7354.3" y="-1550.9" width="8755.2" height="23970.4"/>
		</defs>
		<clipPath id="SVGID_6_">
			<use xlink:href="#SVGID_5_"  style="overflow:visible;"/>
		</clipPath>
		<rect x="-31.3" y="-31.3" class="st1" width="162.5" height="162.5"/>
	</g>
</g>
<g>
	<defs>
		<path id="SVGID_7_" d="M35.2,83.8C18.9,77,8.3,57.6,15.1,37.8c6.7-19.5,28.3-29.8,47.8-22.5C82.3,22.6,92,44.1,84.4,63.4
			c-7.8,20-28.8,27.1-44.6,22.1c1.2-2.9,2.5-5.8,3.5-8.8c1-3,1.6-6.1,2.4-9c0.6,0.5,1.3,1.1,1.9,1.6c3.5,2.8,7.4,3,11.5,2
			c4.4-1.1,7.8-3.5,10.4-7.2c4.3-6.2,5.9-13.2,4.8-20.5c-1.1-7.6-5.6-13.1-12.6-15.9C51.1,23.6,41,25,32.3,32.7
			c-6.7,5.9-9,15.9-5.7,23.6c1.1,2.7,2.9,4.8,5.6,6.1c1.4,0.6,1.9,0.4,2.3-1c0-0.1,0.1-0.2,0.1-0.3c0.8-2,0.6-3.6-0.8-5.5
			c-2.4-3.5-2-7.5-0.8-11.4c2.2-7.3,8.8-12.2,16.5-12.3c2.1,0,4.2,0.2,6.2,0.6c5.9,1.4,9.8,6,10.2,12.1c0.3,4.9-0.5,9.6-2.6,14.1
			c-1.1,2.2-2.4,4.2-4.5,5.6c-1.9,1.3-4.1,1.8-6.4,1.2c-3.2-0.8-5-3.7-4.2-6.9c0.8-3.3,1.9-6.5,2.7-9.8c0.3-1.4,0.5-2.9,0.4-4.3
			c-0.4-3.9-4-5.7-7.4-3.8c-2.4,1.3-3.5,3.5-4.1,6.1c-0.5,2.6-0.3,5.2,0.6,7.8c0.2,0.5,0.2,1.1,0.1,1.7c-1.5,6.8-3.2,13.5-4.7,20.3
			c-0.4,2-0.3,4.1-0.5,6.1C35.2,82.9,35.2,83.3,35.2,83.8z"/>
	</defs>
	<clipPath id="SVGID_8_">
		<use xlink:href="#SVGID_7_"  style="overflow:visible;"/>
	</clipPath>
	<g class="st2">
		<defs>
			<rect id="SVGID_9_" x="-7354.3" y="-1550.9" width="8755.2" height="23970.4"/>
		</defs>
		<clipPath id="SVGID_10_">
			<use xlink:href="#SVGID_9_"  style="overflow:visible;"/>
		</clipPath>
		<rect x="-18.3" y="-18.3" class="st3" width="136.6" height="136.6"/>
	</g>
</g>
</svg>
