<?xml version="1.0" encoding="utf-8"?>
<!-- Generator: Adobe Illustrator 19.0.0, SVG Export Plug-In . SVG Version: 6.00 Build 0)  -->
<svg version="1.1" id="Layer_1" xmlns="http://www.w3.org/2000/svg" xmlns:xlink="http://www.w3.org/1999/xlink" x="0px" y="0px"
	 viewBox="0 0 100 100" style="enable-background:new 0 0 100 100;" xml:space="preserve">
<style type="text/css">
	.st0{fill:#8A9BA6;}
	.st1{font-family:'AvenirNext-Regular';}
	.st2{font-size:39.9318px;}
	.st3{fill:none;stroke:#798995;stroke-width:2;stroke-miterlimit:10;}
</style>
<text id="XMLID_1_" transform="matrix(1 0 0 1 40.3766 61.8449)" class="st0 st1 st2">?</text>
<path id="XMLID_3_" class="st3" d="M81.2,46.8c-0.2-2.1-0.6-4.2-1.2-6.1C79,37.7,77.7,35,76,32.5c-1.1-1.7-2.4-3.2-3.8-4.6
	c-2.8-2.8-6.2-5.1-10-6.7c-2.8-1.2-5.8-2-9-2.3c-1.1-0.1-2.1-0.2-3.2-0.2s-2.2,0.1-3.2,0.2c-3.2,0.3-6.2,1.1-9,2.3
	c-3.8,1.6-7.1,3.9-10,6.7c-1.4,1.4-2.7,3-3.8,4.6c-1.7,2.5-3,5.3-3.9,8.2c-0.6,2-1,4-1.2,6.1c-0.1,1.1-0.2,2.1-0.2,3.2
	s0.1,2.2,0.2,3.2c0.2,2.1,0.6,4.2,1.2,6.1c0.9,2.9,2.3,5.7,3.9,8.2c1.1,1.7,2.4,3.2,3.8,4.6c2.8,2.8,6.2,5.1,10,6.7
	c2.8,1.2,5.8,2,9,2.3c1.1,0.1,2.1,0.2,3.2,0.2s2.2-0.1,3.2-0.2c3.2-0.3,6.2-1.1,9-2.3c3.8-1.6,7.1-3.9,10-6.7c1.4-1.4,2.7-3,3.8-4.6
	c1.7-2.5,3-5.3,3.9-8.2c0.6-2,1-4,1.2-6.1c0.1-1.1,0.2-2.1,0.2-3.2S81.3,47.8,81.2,46.8z"/>
</svg>
