<?xml version="1.0" encoding="utf-8"?>
<!-- Generator: Adobe Illustrator 19.0.0, SVG Export Plug-In . SVG Version: 6.00 Build 0)  -->
<svg version="1.1" id="Layer_1" xmlns="http://www.w3.org/2000/svg" xmlns:xlink="http://www.w3.org/1999/xlink" x="0px" y="0px"
	 viewBox="0 0 100 100" style="enable-background:new 0 0 100 100;" xml:space="preserve">
<style type="text/css">
	.st0{fill:#25B7D3;}
	.st1{fill:#FFFFFF;}
</style>
<g>
	<path class="st0" d="M100,50c0-27.6-22.4-50-50-50C22.4,0,0,22.4,0,50c0,27.6,22.4,50,50,50C77.6,100,100,77.6,100,50z M33.7,40.5
		c-1.7,0-3-0.6-4.2-1.7c-1.1-1.2-1.7-2.4-1.7-3.8c0-2.8,0.9-5.6,2.7-8.5c1.8-2.9,4.4-5.3,7.9-7.2c3.5-1.9,7.5-2.8,12.1-2.8
		c4.3,0,8.1,0.8,11.3,2.4s5.8,3.7,7.6,6.4c1.8,2.7,2.7,5.7,2.7,8.9c0,2.5-0.5,4.7-1.5,6.6c-1,1.9-2.2,3.5-3.6,4.9
		c-1.4,1.4-3.9,3.7-7.6,6.9c-1,0.9-1.8,1.7-2.4,2.4c-0.6,0.7-1.1,1.3-1.4,1.9c-0.3,0.6-0.5,1.2-0.7,1.7c-0.2,0.6-0.4,1.6-0.7,3
		c-0.6,3.1-2.3,4.6-5.3,4.6c-1.5,0-2.8-0.5-3.9-1.5c-1-1-1.6-2.5-1.6-4.5c0-2.5,0.4-4.6,1.2-6.4c0.8-1.8,1.8-3.4,3.1-4.8
		c1.3-1.4,3-3,5.1-4.9c1.9-1.7,3.3-2.9,4.1-3.7c0.8-0.8,1.5-1.8,2.1-2.8c0.6-1,0.9-2.2,0.9-3.4c0-2.4-0.9-4.4-2.6-6
		c-1.8-1.6-4-2.4-6.8-2.4c-3.2,0-5.6,0.8-7.2,2.5c-1.5,1.6-2.8,4.1-3.9,7.2C38.5,38.9,36.6,40.5,33.7,40.5z M44.8,81.8
		c-1.3-1.2-2-2.8-2-4.9c0-1.9,0.6-3.4,1.9-4.7c1.3-1.3,2.9-1.9,4.8-1.9c1.9,0,3.4,0.6,4.7,1.9c1.3,1.3,1.9,2.8,1.9,4.7
		c0,2.1-0.7,3.7-2,4.9c-1.3,1.2-2.9,1.8-4.6,1.8C47.7,83.5,46.1,82.9,44.8,81.8z"/>
	<path class="st1" d="M50.5,25.8c2.8,0,5,0.8,6.8,2.4c1.8,1.6,2.6,3.6,2.6,6c0,1.2-0.3,2.3-0.9,3.4c-0.6,1-1.3,2-2.1,2.8
		c-0.8,0.8-2.2,2.1-4.1,3.7C50.7,46,49,47.7,47.7,49c-1.3,1.4-2.3,3-3.1,4.8c-0.8,1.8-1.2,4-1.2,6.4c0,2,0.5,3.5,1.6,4.5
		c1,1,2.3,1.5,3.9,1.5c3,0,4.7-1.5,5.3-4.6c0.3-1.4,0.6-2.5,0.7-3c0.2-0.6,0.4-1.2,0.7-1.7c0.3-0.6,0.7-1.2,1.4-1.9
		c0.6-0.7,1.4-1.5,2.4-2.4c3.6-3.2,6.1-5.6,7.6-6.9c1.4-1.4,2.6-3,3.6-4.9c1-1.9,1.5-4.1,1.5-6.6c0-3.2-0.9-6.1-2.7-8.9
		c-1.8-2.7-4.3-4.9-7.6-6.4s-7.1-2.4-11.3-2.4c-4.6,0-8.6,0.9-12.1,2.8c-3.5,1.9-6.1,4.3-7.9,7.2c-1.8,2.9-2.7,5.7-2.7,8.5
		c0,1.4,0.6,2.6,1.7,3.8c1.1,1.2,2.5,1.7,4.2,1.7c2.8,0,4.7-1.7,5.7-5c1.1-3.2,2.4-5.6,3.9-7.2C44.9,26.6,47.3,25.8,50.5,25.8z"/>
	<path class="st1" d="M56.1,76.9c0-1.9-0.6-3.4-1.9-4.7c-1.3-1.3-2.8-1.9-4.7-1.9c-1.9,0-3.5,0.6-4.8,1.9c-1.3,1.3-1.9,2.8-1.9,4.7
		c0,2.1,0.7,3.7,2,4.9c1.3,1.2,2.9,1.7,4.7,1.7c1.7,0,3.3-0.6,4.6-1.8C55.4,80.6,56.1,78.9,56.1,76.9z"/>
</g>
</svg>
