<?xml version="1.0" encoding="utf-8"?>
<!-- Generator: Adobe Illustrator 19.0.0, SVG Export Plug-In . SVG Version: 6.00 Build 0)  -->
<svg version="1.1" id="Layer_1" xmlns="http://www.w3.org/2000/svg" xmlns:xlink="http://www.w3.org/1999/xlink" x="0px" y="0px"
	 viewBox="0 0 100 100" style="enable-background:new 0 0 100 100;" xml:space="preserve">
<style type="text/css">
	.st0{clip-path:url(#XMLID_18_);fill:#010101;}
	.st1{clip-path:url(#XMLID_19_);fill:#010101;}
	.st2{clip-path:url(#XMLID_21_);fill:#010101;}
	.st3{clip-path:url(#XMLID_22_);fill:#010101;}
	.st4{clip-path:url(#XMLID_25_);fill:#010101;}
	.st5{clip-path:url(#XMLID_26_);fill:#010101;}
</style>
<g id="XMLID_36_">
	<defs>
		<path id="XMLID_37_" d="M45,21.8L15.4,51.4c-2,2-2,5.1,0,7.1L42.9,86c1.9,1.9,5.2,1.9,7.1,0l29.6-29.6c9.5-9.5,9.5-25.1,0-34.6
			C73,15.2,57.1,9.7,45,21.8z M46.5,90.9c-2.2,0-4.4-0.9-5.9-2.5L13,60.9c-3.3-3.3-3.3-8.6,0-11.9l29.6-29.6c7.4-7.8,25.4-14,39.4,0
			C92.9,30.3,92.9,48,82,58.8L52.4,88.4C50.9,90,48.7,90.9,46.5,90.9z"/>
	</defs>
	<clipPath id="XMLID_18_">
		<use xlink:href="#XMLID_37_"  style="overflow:visible;"/>
	</clipPath>
	<rect id="XMLID_15_" x="-22.7" y="-22.1" class="st0" width="146.1" height="146.3"/>
</g>
<g id="XMLID_31_">
	<defs>
		<path id="XMLID_32_" d="M70.2,34.3c-2.2,0-3.9-1.8-3.9-3.9s1.8-3.9,3.9-3.9c2.2,0,3.9,1.8,3.9,3.9C74.1,32.5,72.3,34.3,70.2,34.3z
			 M70.2,23.1c-4,0-7.3,3.3-7.3,7.3c0,4,3.3,7.3,7.3,7.3c4,0,7.3-3.3,7.3-7.3C77.5,26.3,74.2,23.1,70.2,23.1z"/>
	</defs>
	<clipPath id="XMLID_19_">
		<use xlink:href="#XMLID_32_"  style="overflow:visible;"/>
	</clipPath>
	<rect id="XMLID_12_" x="29.6" y="-10.2" class="st1" width="81.1" height="81.1"/>
</g>
<g id="XMLID_28_">
	<defs>
		<path id="XMLID_8_" d="M28.8,51.5c0,1,1.5,1.3,2.6,1.6c1.1,0.3,3.6,1,3.6,3.7c0,3-3.1,3.6-4.4,3.6c-1.9,0-3.6-0.7-5.1-2.1l1.6-1.9
			c1.3,1.1,2.5,1.7,3.6,1.7c0.5,0,1.6-0.2,1.6-1.2c0-0.9-1.3-1.3-2.2-1.5c-1.4-0.3-4-0.9-4-3.8c0-3,3.1-3.5,4.3-3.5
			c0.8,0,1.6,0.1,2.4,0.4c0.8,0.3,1.5,0.7,2.1,1.2l-1.4,1.9c-1-0.8-2.1-1.2-3.2-1.2C29.8,50.3,28.8,50.6,28.8,51.5z"/>
	</defs>
	<clipPath id="XMLID_21_">
		<use xlink:href="#XMLID_8_"  style="overflow:visible;"/>
	</clipPath>
	<rect id="XMLID_9_" x="-7.7" y="14.7" class="st2" width="76" height="78.8"/>
</g>
<g id="XMLID_23_">
	<defs>
		<path id="XMLID_24_" d="M42.1,51.8l-1.5,3.5h3L42.1,51.8z M45.7,60.2l-1.1-2.6h-5l-1.1,2.6h-2.8l5.2-11.9h2.6l5.2,11.9H45.7z"/>
	</defs>
	<clipPath id="XMLID_22_">
		<use xlink:href="#XMLID_24_"  style="overflow:visible;"/>
	</clipPath>
	<rect id="XMLID_7_" x="2.4" y="15" class="st3" width="79.4" height="78.4"/>
</g>
<g id="XMLID_20_">
	<defs>
		<polygon id="XMLID_3_" points="49.9,60.2 49.9,48.3 52.5,48.3 52.5,57.8 57.6,57.8 57.6,60.2 49.9,60.2 		"/>
	</defs>
	<clipPath id="XMLID_25_">
		<use xlink:href="#XMLID_3_"  style="overflow:visible;"/>
	</clipPath>
	<rect id="XMLID_4_" x="16.6" y="15" class="st4" width="74.2" height="78.4"/>
</g>
<g id="XMLID_17_">
	<defs>
		<polygon id="XMLID_1_" points="68.2,48.3 68.2,50.6 62.2,50.6 62.2,53.1 67.6,53.1 67.6,55.4 62.2,55.4 62.2,57.8 68.4,57.8 
			68.4,60.2 59.6,60.2 59.6,48.3 		"/>
	</defs>
	<clipPath id="XMLID_26_">
		<use xlink:href="#XMLID_1_"  style="overflow:visible;"/>
	</clipPath>
	<rect id="XMLID_2_" x="26.3" y="15" class="st5" width="75.3" height="78.4"/>
</g>
</svg>
