<?xml version="1.0" encoding="utf-8"?>
<!-- Generator: Adobe Illustrator 19.0.0, SVG Export Plug-In . SVG Version: 6.00 Build 0)  -->
<svg version="1.1" id="Layer_1" xmlns="http://www.w3.org/2000/svg" xmlns:xlink="http://www.w3.org/1999/xlink" x="0px" y="0px"
	 viewBox="0 0 100 100" style="enable-background:new 0 0 100 100;" xml:space="preserve">
<style type="text/css">
	.st0{display:none;}
	.st1{display:inline;}
	.st2{clip-path:url(#SVGID_2_);fill:#FFFFFF;}
	.st3{clip-path:url(#SVGID_4_);}
	.st4{clip-path:url(#SVGID_6_);fill:#3C464D;}
</style>
<g class="st0">
	<g class="st1">
		<g>
			<g>
				<g id="XMLID_2_">
					<g id="XMLID_7_">
						<defs>
							<rect id="SVGID_1_" x="-384.8" y="-4338.7" width="2627.9" height="9633"/>
						</defs>
						<clipPath id="SVGID_2_">
							<use xlink:href="#SVGID_1_"  style="overflow:visible;"/>
						</clipPath>
						<rect id="XMLID_9_" x="-5.6" y="11.1" class="st2" width="111.2" height="77.9"/>
					</g>
				</g>
			</g>
		</g>
	</g>
</g>
<g>
	<defs>
		<path id="SVGID_3_" d="M15.3,44.2c0-15.9,13-28.9,28.9-28.9c15.9,0,28.9,13,28.9,28.9c0,15.9-12.9,28.9-28.9,28.9
			C28.3,73.1,15.3,60.1,15.3,44.2z M88.7,85.4L69.5,66.2c5.1-5.9,8.2-13.6,8.2-22c0-18.5-15.1-33.6-33.6-33.6
			c-18.5,0-33.6,15.1-33.6,33.6c0,18.5,15.1,33.6,33.6,33.6c8.4,0,16.1-3.1,22-8.2l19.1,19.1c0.5,0.5,1.1,0.7,1.7,0.7
			c0.6,0,1.2-0.2,1.7-0.7C89.6,87.8,89.6,86.3,88.7,85.4z"/>
	</defs>
	<clipPath id="SVGID_4_">
		<use xlink:href="#SVGID_3_"  style="overflow:visible;"/>
	</clipPath>
	<g class="st3">
		<defs>
			<rect id="SVGID_5_" x="-2442.4" y="-10262.3" width="5512.5" height="20207.2"/>
		</defs>
		<clipPath id="SVGID_6_">
			<use xlink:href="#SVGID_5_"  style="overflow:visible;"/>
		</clipPath>
		<rect x="-9.1" y="-9.1" class="st4" width="118.1" height="118.1"/>
	</g>
</g>
</svg>
