<?xml version="1.0" encoding="utf-8"?>
<!-- Generator: Adobe Illustrator 19.0.0, SVG Export Plug-In . SVG Version: 6.00 Build 0)  -->
<svg version="1.1" id="Layer_1" xmlns="http://www.w3.org/2000/svg" xmlns:xlink="http://www.w3.org/1999/xlink" x="0px" y="0px"
	 viewBox="0 0 100 100" style="enable-background:new 0 0 100 100;" xml:space="preserve">
<style type="text/css">
	.st0{clip-path:url(#SVGID_2_);fill:#FFFFFF;}
</style>
<g>
	<defs>
		<path id="SVGID_1_" d="M15,44.1C15,28.1,28.1,15,44.1,15c16.1,0,29.1,13.1,29.1,29.1c0,16.1-13.1,29.1-29.1,29.1
			C28.1,73.3,15,60.2,15,44.1z M89,85.7L69.7,66.4c5.2-6,8.3-13.7,8.3-22.2c0-18.7-15.2-33.9-33.9-33.9c-18.7,0-33.9,15.2-33.9,33.9
			S25.5,78,44.2,78c8.5,0,16.3-3.1,22.2-8.3L85.7,89c0.5,0.5,1.1,0.7,1.7,0.7c0.6,0,1.2-0.2,1.7-0.7C90,88.1,90,86.6,89,85.7z"/>
	</defs>
	<clipPath id="SVGID_2_">
		<use xlink:href="#SVGID_1_"  style="overflow:visible;"/>
	</clipPath>
	<rect id="XMLID_3_" x="-14.6" y="-14.6" class="st0" width="129.1" height="129.2"/>
</g>
</svg>
