<?xml version="1.0" encoding="utf-8"?>
<!-- Generator: Adobe Illustrator 19.0.0, SVG Export Plug-In . SVG Version: 6.00 Build 0)  -->
<svg version="1.1" id="Layer_1" xmlns="http://www.w3.org/2000/svg" xmlns:xlink="http://www.w3.org/1999/xlink" x="0px" y="0px"
	 viewBox="0 0 100 100" style="enable-background:new 0 0 100 100;" xml:space="preserve">
<style type="text/css">
	.st0{fill:#1C223A;}
</style>
<path class="st0" d="M21.3,33.5c-9,0-16.4,7.4-16.4,16.4c0,9,7.4,16.4,16.4,16.4c5.7,0,10.8-3,13.7-7.4l28.4,17.2
	c-0.7,1.8-1.1,3.8-1.1,5.8c0,4.4,1.7,8.5,4.8,11.6c3.1,3.1,7.2,4.8,11.6,4.8c4.4,0,8.5-1.7,11.6-4.8c3.1-3.1,4.8-7.2,4.8-11.6
	s-1.7-8.5-4.8-11.6c-3.1-3.1-7.2-4.8-11.6-4.8c-4.4,0-8.5,1.7-11.6,4.8c-0.9,0.9-1.6,1.8-2.2,2.8L36.5,56c0.7-1.9,1.2-3.9,1.2-6.1
	c0-2.1-0.4-4.2-1.2-6l28.3-17.1c2.9,4.6,8,7.6,13.8,7.6c9,0,16.4-7.4,16.4-16.4c0-9-7.4-16.4-16.4-16.4c-9,0-16.4,7.3-16.4,16.4
	c0,2.1,0.4,4,1.1,5.8L35,41C32.1,36.5,27.1,33.5,21.3,33.5z"/>
</svg>
