<?xml version="1.0" encoding="utf-8"?>
<!-- Generator: Adobe Illustrator 19.0.0, SVG Export Plug-In . SVG Version: 6.00 Build 0)  -->
<svg version="1.1" id="Layer_1" xmlns="http://www.w3.org/2000/svg" xmlns:xlink="http://www.w3.org/1999/xlink" x="0px" y="0px"
	 viewBox="0 0 100 100" style="enable-background:new 0 0 100 100;" xml:space="preserve">
<style type="text/css">
	.st0{fill:#61A8DE;}
	.st1{fill:#FFFFFF;}
</style>
<g>
	<g>
		<defs>
			<rect id="SVGID_1_" x="-1084.5" y="-214" width="1400" height="3833"/>
		</defs>
		<clipPath id="SVGID_2_">
			<use xlink:href="#SVGID_1_"  style="overflow:visible;"/>
		</clipPath>
	</g>
</g>
<g>
	<path class="st0" d="M0,0v100h100V0H0z M71.9,80.6c-0.5,2.6-3.5,3.7-5.6,2.2L49.1,70.1l-8.8,9c-1.5,1.6-4.2,0.9-4.9-1.2l-6.3-20.1
		l-17-5c-2.2-0.7-2.4-3.8-0.2-4.6l66.9-26.1c2.5-1,5.2,1.2,4.6,3.9L71.9,80.6z"/>
	<path class="st0" d="M69.4,32.9L32.7,55.6c-0.6,0.4-0.9,1.2-0.7,1.9l4.9,15.9c0.1,0.3,0.6,0.3,0.6-0.1l1.2-10.6
		c0-0.4,0.2-0.8,0.6-1.1l31.1-27.5C71.1,33.5,70.2,32.4,69.4,32.9z"/>
	<path class="st1" d="M78.7,22.1L11.9,48.1c-2.2,0.8-2,4,0.2,4.6l17,5l6.3,20.1c0.7,2.1,3.3,2.7,4.9,1.2l8.8-9l17.2,12.7
		c2.1,1.5,5.1,0.4,5.6-2.2L83.4,26C83.9,23.3,81.3,21.1,78.7,22.1z M70.4,34.2L39.3,61.7c-0.3,0.3-0.5,0.7-0.6,1.1l-1.2,10.6
		c0,0.3-0.5,0.4-0.6,0.1L32,57.6c-0.2-0.7,0.1-1.5,0.7-1.9l36.7-22.7C70.2,32.4,71.1,33.5,70.4,34.2z"/>
</g>
</svg>
