<?xml version="1.0" encoding="utf-8"?>
<!-- Generator: Adobe Illustrator 19.0.0, SVG Export Plug-In . SVG Version: 6.00 Build 0)  -->
<svg version="1.1" id="Layer_1" xmlns="http://www.w3.org/2000/svg" xmlns:xlink="http://www.w3.org/1999/xlink" x="0px" y="0px"
	 viewBox="0 0 100 100" style="enable-background:new 0 0 100 100;" xml:space="preserve">
<style type="text/css">
	.st0{clip-path:url(#XMLID_2_);}
	.st1{clip-path:url(#XMLID_10_);fill:#E03426;}
</style>
<g id="XMLID_3_">
	<defs>
		<path id="XMLID_4_" d="M66.6,54.2L62.7,58l0.9,5.4l2.1,12l-10.8-5.7L50,67.2l-4.9,2.6l-10.8,5.7l2.1-12l0.9-5.4l-3.9-3.8l-8.7-8.5
			l12-1.8l5.5-0.8l2.4-4.9L50,27.3l5.4,10.9l2.4,4.9l5.5,0.8l12,1.8L66.6,54.2z M89.8,37.2l-25-3.6L53.6,10.9
			c-0.7-1.5-2.2-2.2-3.6-2.2c-1.4,0-2.9,0.7-3.6,2.2L35.2,33.6l-25,3.6c-3.3,0.5-4.6,4.5-2.2,6.8l18.1,17.6l-4.3,24.9
			c-0.4,2.6,1.6,4.7,4,4.7c0.6,0,1.3-0.1,1.9-0.5L50,79.1l22.4,11.8c0.6,0.3,1.3,0.5,1.9,0.5c2.3,0,4.4-2.1,4-4.7l-4.3-24.9L92,44.1
			C94.4,41.7,93.1,37.7,89.8,37.2z"/>
	</defs>
	<clipPath id="XMLID_2_">
		<use xlink:href="#XMLID_4_"  style="overflow:visible;"/>
	</clipPath>
	<g id="XMLID_7_" class="st0">
		<defs>
			<rect id="XMLID_8_" x="-3435.8" y="-1937.7" width="9696" height="26546.2"/>
		</defs>
		<clipPath id="XMLID_10_">
			<use xlink:href="#XMLID_8_"  style="overflow:visible;"/>
		</clipPath>
		<rect id="XMLID_9_" x="-27.9" y="-26" class="st1" width="155.7" height="151.9"/>
	</g>
</g>
</svg>
