<?xml version="1.0" encoding="utf-8"?>
<!-- Generator: Adobe Illustrator 19.0.0, SVG Export Plug-In . SVG Version: 6.00 Build 0)  -->
<svg version="1.1" id="Layer_1" xmlns="http://www.w3.org/2000/svg" xmlns:xlink="http://www.w3.org/1999/xlink" x="0px" y="0px"
	 viewBox="0 0 100 100" style="enable-background:new 0 0 100 100;" xml:space="preserve">
<style type="text/css">
	.st0{fill:#E03426;}
</style>
<g id="XMLID_1_">
	<path id="XMLID_19_" class="st0" d="M72.4,90.9c2.9,1.5,6.4-1,5.8-4.2L74,61.7l18.1-17.7c2.4-2.3,1.1-6.4-2.2-6.8l-25-3.6
		L53.6,10.9c-0.7-1.5-2.2-2.2-3.6-2.2v0v70.5L72.4,90.9z M69.8,75c0.1-0.2,0.2-0.3,0.4-0.3C70,74.7,69.9,74.8,69.8,75l-0.6,1.2
		L69.8,75z"/>
	<path id="XMLID_20_" class="st0" d="M70.1,74.7c-0.2,0-0.3,0.1-0.4,0.3C69.9,74.8,70,74.7,70.1,74.7z"/>
	<path id="XMLID_21_" class="st0" d="M7.9,44.1L26,61.7l-3.8,22.1l-0.5,2.8c0,0.1,0,0.3,0,0.4c0,0.1,0,0.1,0,0.2c0,0.2,0,0.4,0,0.6
		c0.2,2,2,3.5,3.9,3.5c0.6,0,1.3-0.1,2-0.5L50,79.1V8.6c-0.4,0-0.7,0-1.1,0.1c-1,0.3-2,1-2.5,2.1l-5.1,10.4l-6.1,12.3l-6.8,1
		l-18.2,2.7c-1,0.1-1.9,0.6-2.5,1.3c-0.1,0.1-0.2,0.3-0.3,0.4c-0.2,0.3-0.4,0.6-0.5,1c-0.1,0.2-0.1,0.3-0.1,0.5
		c0,0.2-0.1,0.4-0.1,0.5c0,0.6,0.1,1.2,0.3,1.8C7.2,43.2,7.5,43.7,7.9,44.1z"/>
	<path id="XMLID_22_" class="st0" d="M25.6,91.4c0.6,0,1.3-0.1,2-0.5L50,79.1v0L27.6,90.9C27,91.2,26.3,91.4,25.6,91.4z"/>
</g>
</svg>
