<?xml version="1.0" encoding="utf-8"?>
<!-- Generator: Adobe Illustrator 19.0.0, SVG Export Plug-In . SVG Version: 6.00 Build 0)  -->
<svg version="1.1" id="Layer_1" xmlns="http://www.w3.org/2000/svg" xmlns:xlink="http://www.w3.org/1999/xlink" x="0px" y="0px"
	 viewBox="0 0 100 100" style="enable-background:new 0 0 100 100;" xml:space="preserve">
<style type="text/css">
	.st0{clip-path:url(#SVGID_2_);fill:#FFFFFF;}
</style>
<g>
	<defs>
		<path id="SVGID_1_" d="M86.5,56.7c0,4.2-3.4,7.6-7.6,7.6h-4.5V43.9h4.5c4.2,0,7.6,3.4,7.6,7.6V56.7z M55.5,89.1H50
			c-1.8,0-3.3-1.5-3.3-3.3c0-1.8,1.5-3.3,3.3-3.3h5.5c1.8,0,3.3,1.5,3.3,3.3C58.8,87.6,57.3,89.1,55.5,89.1z M25.7,64.3h-4.5
			c-4.2,0-7.6-3.4-7.6-7.6v-5.2c0-4.2,3.4-7.6,7.6-7.6h4.5V64.3z M79.7,39.6v-3.3c0-8-2.8-15.4-8-20.9c-5.3-5.7-12.5-8.8-20.4-8.8
			h-2.8c-7.9,0-15.1,3.1-20.4,8.8c-5.1,5.5-8,12.9-8,20.9v3.3C14.1,40,9.1,45.2,9.1,51.5v5.2c0,6.6,5.4,12,12,12h6.7
			c1.2,0,2.2-1,2.2-2.2V41.8c0-1.2-1-2.2-2.2-2.2h-3.1v-3.3c0-14.4,10.3-25.3,23.9-25.3h2.8c13.7,0,23.9,10.9,23.9,25.3v3.3h-3.1
			c-1.2,0-2.2,1-2.2,2.2v24.7c0,1.2,1,2.2,2.2,2.2h3.1c-0.9,11.4-8.8,14.1-12.4,14.7c-1-3.1-3.9-5.3-7.3-5.3H50
			c-4.2,0-7.7,3.4-7.7,7.7s3.4,7.7,7.7,7.7h5.5c3.5,0,6.5-2.4,7.4-5.7c1.8-0.3,4.6-0.9,7.4-2.5c4-2.3,8.7-7,9.3-16.6
			c6.3-0.4,11.2-5.6,11.2-11.9v-5.2C90.9,45.2,85.9,40,79.7,39.6z"/>
	</defs>
	<clipPath id="SVGID_2_">
		<use xlink:href="#SVGID_1_"  style="overflow:visible;"/>
	</clipPath>
	<rect id="XMLID_5_" x="-27.1" y="-29.6" class="st0" width="154.1" height="159.3"/>
</g>
</svg>
