<?xml version="1.0" encoding="utf-8"?>
<!-- Generator: Adobe Illustrator 19.0.0, SVG Export Plug-In . SVG Version: 6.00 Build 0)  -->
<svg version="1.1" id="Layer_1" xmlns="http://www.w3.org/2000/svg" xmlns:xlink="http://www.w3.org/1999/xlink" x="0px" y="0px"
	 viewBox="0 0 100 100" style="enable-background:new 0 0 100 100;" xml:space="preserve">
<style type="text/css">
	.st0{clip-path:url(#XMLID_12_);fill:#FFFFFF;}
	.st1{clip-path:url(#XMLID_13_);fill:#FFFFFF;}
	.st2{clip-path:url(#SVGID_2_);fill:#FFFFFF;}
	.st3{clip-path:url(#SVGID_4_);fill:#FFFFFF;}
</style>
<g>
	<defs>
		<path id="XMLID_9_" d="M67.2,36L51.9,13.4c-1.3-2-3.4-1.9-4.7,0.1L33.1,35.9c-1.3,2-0.4,3.6,1.9,3.6h4.1v7.8c0,2.4,2,4.4,4.4,4.4
			h13.2c2.4,0,4.4-2,4.4-4.4v-7.8h4.2C67.7,39.5,68.5,38,67.2,36"/>
	</defs>
	<clipPath id="XMLID_12_">
		<use xlink:href="#XMLID_9_"  style="overflow:visible;"/>
	</clipPath>
	<rect id="XMLID_10_" x="12.8" y="-7.7" class="st0" width="74.7" height="79.1"/>
</g>
<g>
	<defs>
		<path id="XMLID_7_" d="M18.5,64h-4.9c-2.2,0-3-1.6-3-3.1c0-1.6,1.1-3.1,3-3.1h16.5c1.9,0,3.1,1.5,3.1,3.1c0,1.5-0.9,3.1-3.1,3.1
			h-4.9v22.5c0,2.2-1.4,3.5-3.4,3.5s-3.4-1.3-3.4-3.5V64z"/>
	</defs>
	<clipPath id="XMLID_13_">
		<use xlink:href="#XMLID_7_"  style="overflow:visible;"/>
	</clipPath>
	<rect id="XMLID_8_" x="-9.1" y="38.2" class="st1" width="61.9" height="71.5"/>
</g>
<g>
	<defs>
		<path id="SVGID_1_" d="M33.3,73.8c0-9.3,6.3-16.5,15.4-16.5c9,0,15.4,7.4,15.4,16.5c0,9.3-6.2,16.5-15.4,16.5
			C39.7,90.3,33.3,83.1,33.3,73.8 M57.2,73.8c0-5.4-2.8-10.3-8.4-10.3c-5.6,0-8.4,4.9-8.4,10.3c0,5.5,2.7,10.3,8.4,10.3
			C54.4,84.1,57.2,79.3,57.2,73.8"/>
	</defs>
	<clipPath id="SVGID_2_">
		<use xlink:href="#SVGID_1_"  style="overflow:visible;"/>
	</clipPath>
	<rect id="XMLID_6_" x="13.7" y="37.6" class="st2" width="70.2" height="72.3"/>
</g>
<g>
	<defs>
		<path id="SVGID_3_" d="M67,61.4c0-2.1,1.3-3.5,3.5-3.5h7.9c6.6,0,11.5,4.3,11.5,10.7c0,6.5-5.1,10.6-11.2,10.6h-5v7.3
			c0,2.2-1.4,3.5-3.4,3.5c-1.9,0-3.4-1.3-3.4-3.5V61.4z M73.7,73.3h4.6c2.8,0,4.6-2.1,4.6-4.7c0-2.7-1.8-4.8-4.6-4.8h-4.6V73.3z"/>
	</defs>
	<clipPath id="SVGID_4_">
		<use xlink:href="#SVGID_3_"  style="overflow:visible;"/>
	</clipPath>
	<rect id="XMLID_3_" x="47.3" y="38.2" class="st3" width="62.2" height="71.5"/>
</g>
</svg>
