<?xml version="1.0" encoding="utf-8"?>
<!-- Generator: Adobe Illustrator 19.0.0, SVG Export Plug-In . SVG Version: 6.00 Build 0)  -->
<svg version="1.1" id="Layer_1" xmlns="http://www.w3.org/2000/svg" xmlns:xlink="http://www.w3.org/1999/xlink" x="0px" y="0px"
	 viewBox="0 0 100 100" style="enable-background:new 0 0 100 100;" xml:space="preserve">
<style type="text/css">
	.st0{clip-path:url(#SVGID_4_);}
	.st1{clip-path:url(#SVGID_6_);fill:#50ABF1;}
	.st2{clip-path:url(#SVGID_8_);}
	.st3{clip-path:url(#SVGID_10_);fill:#FFFFFF;}
</style>
<g>
	<g>
		<defs>
			<rect id="SVGID_1_" x="-1084.5" y="-214" width="1400" height="3833"/>
		</defs>
		<clipPath id="SVGID_2_">
			<use xlink:href="#SVGID_1_"  style="overflow:visible;"/>
		</clipPath>
	</g>
</g>
<g>
	<defs>
		<rect id="SVGID_3_" width="100" height="100"/>
	</defs>
	<clipPath id="SVGID_4_">
		<use xlink:href="#SVGID_3_"  style="overflow:visible;"/>
	</clipPath>
	<g class="st0">
		<defs>
			<rect id="SVGID_5_" x="-7223" y="-1550.9" width="8755.2" height="23970.4"/>
		</defs>
		<clipPath id="SVGID_6_">
			<use xlink:href="#SVGID_5_"  style="overflow:visible;"/>
		</clipPath>
		<rect x="-31.3" y="-31.3" class="st1" width="162.5" height="162.5"/>
	</g>
</g>
<g>
	<defs>
		<path id="SVGID_7_" d="M13.2,73.2c6.7,4.2,14.5,6.7,23,6.7c23.8,0,43-19.3,43-43c0-0.6,0-1.2,0-1.8c0.9-0.7,6.2-4.9,7.5-7.7
			c0,0-4.3,1.8-8.5,2.2c0,0,0,0,0,0c0,0,0,0,0,0c0.4-0.3,5.8-4,6.6-8.4c0,0-3.1,1.6-7.3,3.1c-0.7,0.2-1.4,0.5-2.2,0.7
			c-2.8-2.9-6.7-4.8-11-4.8c-8.3,0-15.1,6.8-15.1,15.1c0,1.2,0.1,2.3,0.4,3.4c-1.2,0-18.9-1-31-15.7c0,0-7.2,9.9,4.3,20
			c0,0-3.5-0.1-6.5-1.9c0,0-1.1,11.9,11.9,15c0,0-2.6,1-6.7,0.3c0,0,2.3,9.6,13.9,10.5C35.4,66.9,26.3,75.1,13.2,73.2L13.2,73.2z"/>
	</defs>
	<clipPath id="SVGID_8_">
		<use xlink:href="#SVGID_7_"  style="overflow:visible;"/>
	</clipPath>
	<g class="st2">
		<defs>
			<rect id="SVGID_9_" x="-7223" y="-1551.8" width="8755.2" height="23970.4"/>
		</defs>
		<clipPath id="SVGID_10_">
			<use xlink:href="#SVGID_9_"  style="overflow:visible;"/>
		</clipPath>
		<rect x="-18" y="-11.1" class="st3" width="136" height="122.3"/>
	</g>
</g>
</svg>
