<?xml version="1.0" encoding="utf-8"?>
<!-- Generator: Adobe Illustrator 19.0.0, SVG Export Plug-In . SVG Version: 6.00 Build 0)  -->
<svg version="1.1" id="Layer_1" xmlns="http://www.w3.org/2000/svg" xmlns:xlink="http://www.w3.org/1999/xlink" x="0px" y="0px"
	 viewBox="0 0 100 100" style="enable-background:new 0 0 100 100;" xml:space="preserve">
<style type="text/css">
	.st0{fill:none;}
	.st1{fill:#010101;}
</style>
<g id="XMLID_1_">
	<path id="XMLID_2_" class="st0" d="M60.1,40.2H39.9c-2.3,0-4.2,1.9-4.2,4.2c0,2.3,1.9,4.2,4.2,4.2h20.2c2.3,0,4.2-1.9,4.2-4.2
		C64.2,42,62.4,40.2,60.1,40.2z"/>
	<path id="XMLID_27_" class="st0" d="M88.4,31.8H11.6v49.7c0,1.4,1.2,2.6,2.6,2.6h71.5c1.4,0,2.6-1.2,2.6-2.6V31.8z M67.8,44.3
		c0,4.3-3.5,7.8-7.8,7.8H39.9c-4.3,0-7.8-3.5-7.8-7.8s3.5-7.8,7.8-7.8h20.2C64.4,36.6,67.8,40,67.8,44.3z M69.5,79.1H30.5
		c-1,0-1.8-0.8-1.8-1.8v-18c0-1,0.8-1.8,1.8-1.8h38.9c1,0,1.8,0.8,1.8,1.8v18C71.3,78.3,70.5,79.1,69.5,79.1z"/>
	<path id="XMLID_31_" class="st0" d="M67.7,75.5V61.1H32.3v14.4H67.7z M60.5,66.3h1.1c1,0,1.8,0.8,1.8,1.8c0,1-0.8,1.8-1.8,1.8h-1.1
		c-1,0-1.8-0.8-1.8-1.8C58.6,67.1,59.5,66.3,60.5,66.3z M38.5,66.3h15c1,0,1.8,0.8,1.8,1.8c0,1-0.8,1.8-1.8,1.8h-15
		c-1,0-1.8-0.8-1.8-1.8C36.7,67.1,37.5,66.3,38.5,66.3z"/>
	<path id="XMLID_33_" class="st0" d="M91.6,28.2v-7c0-3-2.4-5.4-5.4-5.4H13.8c-3,0-5.4,2.4-5.4,5.4v7H91.6z"/>
	<path id="XMLID_36_" class="st1" d="M4.8,21.3V30c0,1,0.8,1.8,1.8,1.8H8v49.7c0,3.4,2.8,6.2,6.2,6.2h71.5c3.4,0,6.2-2.8,6.2-6.2
		V31.8h1.4c1,0,1.8-0.8,1.8-1.8v-8.8c0-5-4-9-9-9H13.8C8.8,12.3,4.8,16.3,4.8,21.3z M85.8,84.1H14.2c-1.4,0-2.6-1.2-2.6-2.6V31.8
		h76.8v49.7C88.4,83,87.2,84.1,85.8,84.1z M8.4,21.3c0-3,2.4-5.4,5.4-5.4h72.5c3,0,5.4,2.4,5.4,5.4v7H8.4V21.3z"/>
	<path id="XMLID_40_" class="st1" d="M60.1,36.6H39.9c-4.3,0-7.8,3.5-7.8,7.8s3.5,7.8,7.8,7.8h20.2c4.3,0,7.8-3.5,7.8-7.8
		S64.4,36.6,60.1,36.6z M64.2,44.3c0,2.3-1.9,4.2-4.2,4.2H39.9c-2.3,0-4.2-1.9-4.2-4.2c0-2.3,1.9-4.2,4.2-4.2h20.2
		C62.4,40.2,64.2,42,64.2,44.3z"/>
	<path id="XMLID_43_" class="st1" d="M71.3,59.3c0-1-0.8-1.8-1.8-1.8H30.5c-1,0-1.8,0.8-1.8,1.8v18c0,1,0.8,1.8,1.8,1.8h38.9
		c1,0,1.8-0.8,1.8-1.8V59.3z M32.3,61.1h35.3v14.4H32.3V61.1z"/>
	<path id="XMLID_44_" class="st1" d="M60.5,69.9h1.1c1,0,1.8-0.8,1.8-1.8c0-1-0.8-1.8-1.8-1.8h-1.1c-1,0-1.8,0.8-1.8,1.8
		C58.6,69.1,59.5,69.9,60.5,69.9z"/>
	<path id="XMLID_45_" class="st1" d="M38.5,69.9h15c1,0,1.8-0.8,1.8-1.8c0-1-0.8-1.8-1.8-1.8h-15c-1,0-1.8,0.8-1.8,1.8
		C36.7,69.1,37.5,69.9,38.5,69.9z"/>
</g>
</svg>
