<?xml version="1.0" encoding="utf-8"?>
<!-- Generator: Adobe Illustrator 19.0.0, SVG Export Plug-In . SVG Version: 6.00 Build 0)  -->
<svg version="1.1" id="Layer_1" xmlns="http://www.w3.org/2000/svg" xmlns:xlink="http://www.w3.org/1999/xlink" x="0px" y="0px"
	 viewBox="0 0 100 100" style="enable-background:new 0 0 100 100;" xml:space="preserve">
<style type="text/css">
	.st0{fill:none;}
	.st1{fill:#010101;}
</style>
<g id="XMLID_1_">
	<path id="XMLID_2_" class="st0" d="M64.3,24.7C63.7,12.1,55.1,10,50.1,9.9c-0.1,0-0.1,0-0.1,0h-0.1c-4.1,0-13.6,1.4-14.2,14.9
		c0,0,0,0.1,0,0.1c0,0.1-1.3,12.9,4.6,19.6c2.3,2.7,5.5,4,9.6,4c0,0,0.1,0,0.1,0c0,0,0.1,0,0.1,0c4.1,0,7.3-1.3,9.6-4
		c6-6.7,4.6-19.4,4.6-19.6C64.3,24.9,64.3,24.8,64.3,24.7z"/>
	<path id="XMLID_13_" class="st1" d="M60.3,7.4C57.4,5.8,54,4.9,50.2,4.8h-0.1c0,0-0.1,0-0.1,0h-0.1c-2.1,0-6.2,0.3-10.1,2.6
		c-3.9,2.2-8.7,7-9.2,17.1c-0.1,1.3-1.3,15.3,5.9,23.4c3.3,3.7,7.7,5.6,13.2,5.7c0.1,0,0.2,0,0.3,0c0,0,0.1,0,0.1,0
		c0.1,0,0.1,0,0.2,0c5.5-0.1,9.9-2,13.2-5.7c7.2-8.1,6-22,5.9-23.4C68.9,14.4,64.2,9.7,60.3,7.4z M59.7,44.5c-2.4,2.7-5.5,4-9.6,4
		c0,0-0.1,0-0.1,0c0,0-0.1,0-0.1,0c-4.1,0-7.3-1.3-9.6-4c-5.9-6.7-4.7-19.4-4.6-19.6c0-0.1,0-0.1,0-0.1C36.3,11.3,45.8,9.9,49.9,9.9
		h0.1c0,0,0.1,0,0.1,0c5.1,0.1,13.6,2.2,14.2,14.9c0,0.1,0,0.1,0,0.1C64.3,25,65.7,37.7,59.7,44.5z"/>
	<path id="XMLID_14_" class="st1" d="M13.5,86.2c0.6,0.4,14,8.9,36.5,8.9c22.5,0,36-8.6,36.5-8.9c0.4-0.3,0.8-0.7,1-1.2
		c0.9-2.5,0.9-7.5,0.9-8.5c0,0,0,0,0-0.1c0-0.1,0-0.3,0-0.5c-0.1-3.7-0.4-12.4-8.5-15.1c-0.1,0-0.1,0-0.2-0.1
		c-8.4-2.2-15.5-7-15.5-7.1c-1.1-0.8-2.7-0.5-3.5,0.6c-0.8,1.1-0.5,2.7,0.6,3.5c0.3,0.2,7.8,5.4,17.1,7.8c4.4,1.6,4.8,6.2,5,10.5
		c0,0.2,0,0.3,0,0.5c0,1.7-0.1,4.3-0.4,5.8c-3,1.7-14.9,7.7-33,7.7c-18,0-30-6-33-7.7c-0.3-1.5-0.4-4.1-0.4-5.8c0-0.1,0-0.3,0-0.5
		c0.1-4.3,0.6-8.9,5-10.5c9.3-2.4,16.8-7.6,17.1-7.8c1.1-0.8,1.4-2.4,0.6-3.5c-0.8-1.1-2.4-1.4-3.5-0.6c-0.1,0.1-7.1,4.9-15.5,7.1
		c-0.1,0-0.1,0-0.2,0.1c-8.1,2.8-8.4,11.5-8.5,15.1c0,0.2,0,0.3,0,0.5c0,0,0,0,0,0.1c0,1,0,6,1,8.5C12.7,85.6,13,86,13.5,86.2z"/>
</g>
</svg>
