<?xml version="1.0" encoding="utf-8"?>
<!-- Generator: Adobe Illustrator 19.0.0, SVG Export Plug-In . SVG Version: 6.00 Build 0)  -->
<svg version="1.1" id="Layer_1" xmlns="http://www.w3.org/2000/svg" xmlns:xlink="http://www.w3.org/1999/xlink" x="0px" y="0px"
	 viewBox="0 0 100 100" style="enable-background:new 0 0 100 100;" xml:space="preserve">
<style type="text/css">
	.st0{fill:none;}
	.st1{fill:#010101;}
</style>
<g id="XMLID_1_">
	<circle id="XMLID_2_" class="st0" cx="12.7" cy="38.6" r="3"/>
	<circle id="XMLID_15_" class="st0" cx="75.9" cy="84.3" r="3"/>
	<circle id="XMLID_16_" class="st0" cx="75.9" cy="32.9" r="3"/>
	<rect id="XMLID_22_" x="15.4" y="12.7" class="st0" width="11.8" height="6.1"/>
	<path id="XMLID_25_" class="st0" d="M84.1,45.1c0.2-0.3,0.4-0.6,0.7-0.9c3.5-2.8,5.5-6.9,5.5-11.4c0-8-6.5-14.5-14.5-14.5
		c-8,0-14.5,6.5-14.5,14.5c0,4.5,2,8.6,5.5,11.4c0.3,0.2,0.6,0.5,0.7,0.9l8.2,16.1L84.1,45.1z M67.5,32.9c0-4.6,3.8-8.4,8.4-8.4
		c4.6,0,8.4,3.8,8.4,8.4s-3.8,8.4-8.4,8.4C71.3,41.3,67.5,37.5,67.5,32.9z"/>
	<path id="XMLID_28_" class="st1" d="M35.5,58.7H18.4c-7.8,0-14.1,6.3-14.1,14.1c0,7.8,6.3,14.1,14.1,14.1h49.5
		c1.1,3.3,4.3,5.7,7.9,5.7c4.6,0,8.4-3.8,8.4-8.4c0-4.6-3.8-8.4-8.4-8.4c-3.7,0-6.8,2.4-7.9,5.7H18.4c-4.8,0-8.7-3.9-8.7-8.7
		c0-4.8,3.9-8.7,8.7-8.7h17.1c7.8,0,14.1-6.3,14.1-14.1s-6.3-14.1-14.1-14.1H20.6c-0.8-2.5-2.8-4.4-5.3-5.3v-6.5h14.5
		c1.5,0,2.7-1.2,2.7-2.7V10c0-1.5-1.2-2.7-2.7-2.7H12.7C11.2,7.3,10,8.5,10,10v11.4v9.2c-3.3,1.1-5.7,4.3-5.7,7.9
		c0,4.6,3.8,8.4,8.4,8.4c3.7,0,6.8-2.4,7.9-5.7h14.9c4.8,0,8.7,3.9,8.7,8.7S40.4,58.7,35.5,58.7z M75.9,81.2c1.7,0,3,1.4,3,3
		s-1.4,3-3,3c-1.7,0-3-1.4-3-3S74.2,81.2,75.9,81.2z M15.4,12.7h11.8v6.1H15.4V12.7z M12.7,41.6c-1.7,0-3-1.4-3-3c0-1.7,1.4-3,3-3
		s3,1.4,3,3C15.7,40.2,14.4,41.6,12.7,41.6z"/>
	<path id="XMLID_33_" class="st1" d="M84.3,32.9c0-4.6-3.8-8.4-8.4-8.4c-4.6,0-8.4,3.8-8.4,8.4s3.8,8.4,8.4,8.4
		C80.5,41.3,84.3,37.5,84.3,32.9z M72.8,32.9c0-1.7,1.4-3,3-3c1.7,0,3,1.4,3,3c0,1.7-1.4,3-3,3C74.2,35.9,72.8,34.5,72.8,32.9z"/>
	<path id="XMLID_36_" class="st1" d="M75.9,69.8c1,0,1.9-0.6,2.4-1.5L88.6,48c4.5-3.8,7.1-9.3,7.1-15.2c0-10.9-8.9-19.8-19.8-19.8
		c-10.9,0-19.8,8.9-19.8,19.8c0,5.9,2.6,11.4,7.1,15.2l10.4,20.3C74,69.2,74.9,69.8,75.9,69.8z M66.9,44.2
		c-3.5-2.8-5.5-6.9-5.5-11.4c0-8,6.5-14.5,14.5-14.5c8,0,14.5,6.5,14.5,14.5c0,4.5-2,8.6-5.5,11.4c-0.3,0.2-0.6,0.5-0.7,0.9
		l-8.2,16.1l-8.2-16.1C67.5,44.8,67.2,44.5,66.9,44.2z"/>
</g>
</svg>
