<?xml version="1.0" encoding="utf-8"?>
<!-- Generator: Adobe Illustrator 19.0.0, SVG Export Plug-In . SVG Version: 6.00 Build 0)  -->
<svg version="1.1" id="Layer_1" xmlns="http://www.w3.org/2000/svg" xmlns:xlink="http://www.w3.org/1999/xlink" x="0px" y="0px"
	 viewBox="0 0 100 100" style="enable-background:new 0 0 100 100;" xml:space="preserve">
<style type="text/css">
	.st0{fill:#1D1D1B;}
</style>
<g id="XMLID_1_">
	<path id="XMLID_2_" class="st0" d="M5.2,60.4c-0.8,1.4-0.3,3.1,1,3.9l12.9,7.5c0,0,0.1,0,0.1,0c0.1,0.1,0.3,0.1,0.4,0.2
		c0.1,0,0.2,0.1,0.3,0.1c0.1,0,0.2,0,0.4,0c0.1,0,0.2,0,0.3,0c0,0,0.1,0,0.1,0c0,0,0.1,0,0.1,0c0.1,0,0.1,0,0.2,0
		c0.1,0,0.3-0.1,0.4-0.1c0.1,0,0.2-0.1,0.3-0.1c0.1-0.1,0.2-0.1,0.3-0.2c0.1-0.1,0.2-0.1,0.3-0.2c0.1-0.1,0.2-0.2,0.3-0.3
		c0.1-0.1,0.2-0.2,0.2-0.3c0-0.1,0.1-0.1,0.1-0.2c0,0,0-0.1,0-0.1c0-0.1,0.1-0.1,0.1-0.2l5.1-12.7c0.6-1.5-0.1-3.1-1.6-3.7
		c-1.5-0.6-3.1,0.1-3.7,1.6l-2.6,6.5c-1.8-5.9-1.6-12-1.6-12.1c0-19.4,15.8-35.2,35.2-35.2c19.4,0,35.2,15.8,35.2,35.2
		c0,19.4-15.8,35.2-35.2,35.2c-1.6,0-2.9,1.3-2.9,2.9c0,1.6,1.3,2.9,2.9,2.9c22.6,0,41-18.4,41-41c0-22.6-18.4-41-41-41
		s-41,18.4-41,40.9c0,0.4-0.2,6.3,1.5,12.7l-5.5-3.2C7.8,58.6,6,59,5.2,60.4z"/>
	<path id="XMLID_9_" class="st0" d="M53.1,55.5C53.1,55.5,53.1,55.5,53.1,55.5c0.3,0.1,0.6,0.2,0.9,0.2c0.1,0,0.1,0,0.2,0
		c0.3,0,0.7-0.1,1-0.2c0.1,0,0.2-0.1,0.3-0.1c0.2-0.1,0.5-0.3,0.7-0.4c0,0,0.1-0.1,0.1-0.1L74.1,37c1.1-1.1,1.1-2.9,0-4.1
		c-1.1-1.1-2.9-1.1-4.1,0L53.5,49.5l-14.8-6.2c-1.5-0.6-3.1,0.1-3.8,1.5c-0.6,1.5,0.1,3.1,1.5,3.8L53.1,55.5z"/>
</g>
</svg>
