<?xml version="1.0" encoding="utf-8"?>
<!-- Generator: Adobe Illustrator 19.0.0, SVG Export Plug-In . SVG Version: 6.00 Build 0)  -->
<svg version="1.1" id="Layer_1" xmlns="http://www.w3.org/2000/svg" xmlns:xlink="http://www.w3.org/1999/xlink" x="0px" y="0px"
	 viewBox="0 0 100 100" style="enable-background:new 0 0 100 100;" xml:space="preserve">
<style type="text/css">
	.st0{fill:#010101;}
</style>
<g id="XMLID_1_">
	<path id="XMLID_2_" class="st0" d="M84.9,40.9c-1.8-1.3-4.2,0-4.2,2.2v4.2H33.5c-1.5,0-2.7,1.2-2.7,2.7c0,1.5,1.2,2.7,2.7,2.7h47.2
		v4.2c0,2.2,2.5,3.4,4.2,2.2l9.8-6.9c1.5-1.1,1.5-3.3,0-4.4L84.9,40.9z"/>
	<path id="XMLID_9_" class="st0" d="M46,91.9c15.4,0,29-8.4,36.3-20.9c0.7-1.3,0.3-2.9-1-3.7c-1.3-0.7-2.9-0.3-3.7,1
		C71.3,79.2,59.5,86.5,46,86.5C25.9,86.5,9.5,70.1,9.5,50S25.9,13.5,46,13.5c13.5,0,25.3,7.3,31.6,18.3c0.7,1.3,2.4,1.7,3.7,1
		c1.3-0.7,1.7-2.4,1-3.7C75,16.5,61.4,8.1,46,8.1C22.8,8.1,4.1,26.8,4.1,50C4.1,73.1,22.8,91.9,46,91.9z"/>
</g>
</svg>
