<?xml version="1.0" encoding="utf-8"?>
<!-- Generator: Adobe Illustrator 19.0.0, SVG Export Plug-In . SVG Version: 6.00 Build 0)  -->
<svg version="1.1" id="Layer_1" xmlns="http://www.w3.org/2000/svg" xmlns:xlink="http://www.w3.org/1999/xlink" x="0px" y="0px"
	 viewBox="0 0 100 100" style="enable-background:new 0 0 100 100;" xml:space="preserve">
<style type="text/css">
	.st0{fill:none;}
	.st1{fill:#3D474E;}
	.st2{fill:#E03426;}
</style>
<g id="XMLID_1_">
	<path id="XMLID_12_" class="st0" d="M93.4,50C93.4,26,74,6.6,50,6.6C26,6.6,6.6,26,6.6,50C6.6,74,26,93.4,50,93.4
		C74,93.4,93.4,74,93.4,50z M46.7,69.9V53.3H30.1c-1.8,0-3.3-1.5-3.3-3.3s1.5-3.3,3.3-3.3h16.6V30.1c0-1.8,1.5-3.3,3.3-3.3
		s3.3,1.5,3.3,3.3v16.6h16.6c1.8,0,3.3,1.5,3.3,3.3c0,1.8-1.5,3.3-3.3,3.3H53.3v16.6c0,1.8-1.5,3.3-3.3,3.3
		C48.2,73.1,46.7,71.7,46.7,69.9z"/>
	<path id="XMLID_15_" class="st1" d="M100,50c0-27.6-22.4-50-50-50C22.4,0,0,22.4,0,50c0,27.6,22.4,50,50,50
		C77.6,100,100,77.6,100,50z M6.6,50C6.6,26,26,6.6,50,6.6C74,6.6,93.4,26,93.4,50C93.4,74,74,93.4,50,93.4C26,93.4,6.6,74,6.6,50z"
		/>
	<path id="XMLID_16_" class="st2" d="M53.3,69.9V53.3h16.6c1.8,0,3.3-1.5,3.3-3.3c0-1.8-1.5-3.3-3.3-3.3H53.3V30.1
		c0-1.8-1.5-3.3-3.3-3.3s-3.3,1.5-3.3,3.3v16.6H30.1c-1.8,0-3.3,1.5-3.3,3.3s1.5,3.3,3.3,3.3h16.6v16.6c0,1.8,1.5,3.3,3.3,3.3
		C51.8,73.1,53.3,71.7,53.3,69.9z"/>
</g>
</svg>
