<?xml version="1.0" encoding="utf-8"?>
<!-- Generator: Adobe Illustrator 19.0.0, SVG Export Plug-In . SVG Version: 6.00 Build 0)  -->
<svg version="1.1" id="Layer_1" xmlns="http://www.w3.org/2000/svg" xmlns:xlink="http://www.w3.org/1999/xlink" x="0px" y="0px"
	 viewBox="0 0 100 100" style="enable-background:new 0 0 100 100;" xml:space="preserve">
<style type="text/css">
	.st0{fill:none;}
	.st1{fill:#3C58BF;}
	.st2{fill:#293688;}
	.st3{fill:#FFBC00;}
	.st4{fill:#F7981D;}
	.st5{fill:#ED7C00;}
	.st6{fill:#051244;}
</style>
<g>
	<path class="st0" d="M81.5,54.5h6.2c-0.4-1.7-1.8-8.1-1.8-8.1L85.5,44c-0.4,1-1,2.7-1,2.7S82.1,53.1,81.5,54.5z"/>
	<polygon class="st1" points="38.9,57.2 43.6,36.7 42.2,36.7 37.5,63.5 38.7,56.9 	"/>
	<polygon class="st2" points="38.9,57.2 45.1,63.5 49.7,36.7 43.6,36.7 	"/>
	<path class="st1" d="M52.4,44.9c0,4,3.7,6.1,6.7,7.5c-3-1.3-5.4-3.4-5.4-7.5c0-5.4,4-9.1,11.5-9.1C57.8,35.8,52.4,39.5,52.4,44.9z"
		/>
	<path class="st2" d="M53.7,44.9c0,4,2.4,6.1,5.4,7.5c2,0.9,3.1,1.6,3.5,2.3l5.9,5.8c1.5-1.5,2.3-3.5,2.3-5.7c0-3.1-1.9-5.5-6.4-7.5
		c-2.7-1.3-4.3-2.1-4.3-3.4c0-1.2,1.3-2.4,4.3-2.4c2.5,0,4.3,0.4,5.7,1l0.7,0.3l1.2-5.8c-1.5-0.6-3.9-1.2-6.9-1.2
		C57.8,35.8,53.7,39.5,53.7,44.9z"/>
	<path class="st2" d="M51.3,57.1c2.5,1,4.2,1.5,7.2,1.5c2.1,0,4.5-0.9,4.5-2.7c0.1-0.3,0-0.6-0.2-0.9c0.1,0.2,0.2,0.5,0.2,0.8
		c0,1.8-2.4,2.7-4.5,2.7c-3,0-4.6-0.4-7.2-1.5l-1-0.4l-1,6.1c0,0,0,0,0,0l1-6L51.3,57.1z"/>
	<path class="st1" d="M82.8,38.6c0.7-1.8,2.1-1.9,3.9-1.9h-1.8c-1.8,0-3.1,0.1-3.9,1.9L69.8,63.5L82.8,38.6z"/>
	<path class="st2" d="M87.7,54.5L87.7,54.5c-0.3-1.5-1.8-8.2-1.8-8.2L85.5,44l0.4,2.5C85.9,46.5,87.3,52.8,87.7,54.5z"/>
	<path class="st2" d="M85.5,44l8.9,8.6l-3.7-15.9h-4c-1.8,0-3.1,0.1-3.9,1.9l-13,24.9h1L85.5,44z"/>
	<polygon class="st1" points="32.9,36.8 31.4,36.8 26.2,49.5 26.5,49.8 	"/>
	<polygon class="st2" points="39.4,36.8 32.9,36.8 26.5,49.8 31.2,54.5 28.5,61 	"/>
	<path class="st2" d="M19.4,63.5L13,40.6c-0.1,0-0.2-0.1-0.2-0.1l6.5,23.2h8.1l0.1-0.1H19.4z"/>
	<path class="st3" d="M20.5,40.8l2.3,9.4l-2.4-11.4c-0.4-1.8-1.8-2.2-3.4-2.2H3L16.9,38C18.5,38,20,39,20.5,40.8z"/>
	<polygon class="st4" points="22.8,50.3 22.7,50.3 22.7,50.3 	"/>
	<path class="st4" d="M4.4,37L3,36.7C4.5,37,5.9,37.5,7.3,38l2.2,0.7C7.9,38,6.2,37.4,4.4,37z"/>
	<path class="st4" d="M9.5,38.6l8.6,2.6c2.1,0.7,2.7,2.5,3.1,4.3l1.2,4c0.1,0.3,0.2,0.5,0.3,0.7l0,0l-2.3-9.4C20,39,18.5,38,16.9,38
		L3,36.7L4.4,37C6.2,37.4,7.9,38,9.5,38.6z"/>
	<path class="st5" d="M7.3,38c-1.4-0.5-2.8-1-4.3-1.3L7.3,38z"/>
	<path class="st5" d="M9.5,38.6L7.3,38c1.9,0.7,3.8,1.5,5.4,2.5l-0.1-0.3C11.7,39.6,10.6,39.1,9.5,38.6z"/>
	<path class="st5" d="M12.9,40.3c-0.1,0-0.2-0.1-0.2-0.1l0.1,0.3c0.1,0,0.2,0.1,0.2,0.1L12.9,40.3z"/>
	<path class="st5" d="M12.8,39.9l-0.1-0.3c4.1,2.1,7.9,6,9.7,9.9l-1.2-4c-0.4-1.8-1-3.6-3.1-4.3l-8.6-2.6c1.1,0.5,2.2,1,3.2,1.5
		l-0.1-0.4C12.7,39.8,12.7,39.9,12.8,39.9z"/>
	<path class="st5" d="M12.6,39.8l0.1,0.4c0.1,0,0.2,0.1,0.2,0.1l-0.1-0.4C12.7,39.9,12.7,39.8,12.6,39.8z"/>
	<polygon class="st6" points="27.4,63.5 27.5,63.5 28.5,61 	"/>
	<path class="st6" d="M23,51.3l0.1,0.3l0.7,3.9l2.4-5.9l0,0l-2.4,5.7l-0.6-3.7c-0.1-0.4-0.3-0.7-0.4-1.1l0.3,1.1
		C23,51.4,23,51.3,23,51.3z"/>
	<polygon class="st6" points="23.8,55.4 26.5,49.8 26.2,49.5 	"/>
	<path class="st6" d="M26.5,49.8l-2.7,5.6L23,51.6c-0.4-1.1-1-2.2-1.7-3.3c-1.9-2.9-4.8-5.5-8.3-7.6l6.4,22.9h8l1.1-2.5l2.7-6.5
		L26.5,49.8z"/>
	<path class="st6" d="M22.8,50.9c0.1,0.2,0.2,0.5,0.3,0.7L23,51.3C22.9,51.2,22.8,51,22.8,50.9z"/>
	<path class="st6" d="M21.3,48.2c0.7,1.1,1.3,2.2,1.7,3.3c-0.1-0.2-0.2-0.4-0.3-0.7C22.4,50,21.9,49.1,21.3,48.2z"/>
	<polygon class="st6" points="22.9,51.1 23,51.4 22.8,50.3 22.7,50.3 	"/>
	<path class="st6" d="M22.7,50.3c-0.1-0.2-0.2-0.5-0.3-0.7l0.5,1.5L22.7,50.3z"/>
	<path class="st6" d="M23,51.4l-0.1-0.3l0,0.2C23,51.3,23,51.4,23,51.4z"/>
	<path class="st6" d="M12.9,40.3l0.1,0.3c3.5,2.1,6.4,4.7,8.3,7.6C19.4,45.1,16.6,42.4,12.9,40.3z"/>
	<path class="st6" d="M12.7,39.6l0.1,0.3c4.4,2.3,8.4,6.8,10,11c0.1,0.1,0.1,0.3,0.2,0.4l0-0.2l-0.5-1.5
		C20.6,45.7,16.8,41.7,12.7,39.6z"/>
	<path class="st6" d="M12.8,39.9l0.1,0.4c3.7,2.1,6.5,4.8,8.4,7.9c0.6,0.9,1.1,1.7,1.4,2.6C21.2,46.7,17.2,42.2,12.8,39.9z"/>
	<polygon class="st6" points="38.7,56.9 37.5,63.5 38.9,57.2 	"/>
	<polygon class="st6" points="38.9,57.2 37.5,63.5 45.1,63.5 	"/>
	<path class="st6" d="M62.2,54.2c0.3,0.3,0.5,0.5,0.6,0.7c0-0.1-0.1-0.2-0.2-0.3L62.2,54.2z"/>
	<path class="st6" d="M57.8,64.1c-3.4,0-6.7-0.7-8.5-1.5l0,0.1c1.8,0.7,5.1,1.5,8.5,1.5c4.8,0,8.6-1.3,10.9-3.7l-0.1-0.1
		C66.3,62.7,62.5,64.1,57.8,64.1z"/>
	<path class="st6" d="M62.8,55c0.2,0.3,0.2,0.6,0.2,0.9c0,1.8-2.4,2.7-4.5,2.7c-3,0-4.6-0.4-7.2-1.5l-1-0.4l-1,6
		c1.8,0.7,5.1,1.5,8.5,1.5c4.8,0,8.5-1.4,10.8-3.7l-5.9-5.8C62.7,54.8,62.8,54.9,62.8,55z"/>
	<path class="st6" d="M81.5,54.5v0.1h6.3c0,0,0-0.1,0-0.1H81.5z"/>
	<polygon class="st6" points="94.4,52.6 94.4,52.6 97,63.5 	"/>
	<path class="st6" d="M84.4,46.6c0,0-2.5,6.6-3,7.9C82.1,53.1,84.4,46.6,84.4,46.6z"/>
	<path class="st6" d="M88.9,59l0.9,4.5H97l-2.5-10.9L85.5,44l0.4,2.4c0,0,1.5,6.7,1.8,8.2h0c0,0,0,0.1,0,0.1h-6.3v-0.1
		c0.4-1.3,3-7.9,3-7.9s0.6-1.6,1-2.7L70.9,63.5h7l1.5-4.5H88.9z"/>
</g>
</svg>
