<?xml version="1.0" encoding="UTF-8"?>
<svg width="38px" height="38px" viewBox="0 0 38 38" version="1.1" xmlns="http://www.w3.org/2000/svg" xmlns:xlink="http://www.w3.org/1999/xlink">
    <!-- Generator: Sketch 47 (45396) - http://www.bohemiancoding.com/sketch -->
    <title>5@2x</title>
    <desc>Created with Sketch.</desc>
    <defs></defs>
    <g id="Page-1" stroke="none" stroke-width="1" fill="none" fill-rule="evenodd">
        <g id="Trang-Chủ" transform="translate(-91.000000, -1062.000000)">
            <g id="Menu-trượt" transform="translate(85.000000, 835.000000)">
                <g id="5" transform="translate(6.000000, 227.000000)">
                    <circle id="Oval-5-Copy-3" fill="#ECECEC" cx="19" cy="19" r="19"></circle>
                    <g id="yoga" transform="translate(8.000000, 7.000000)" fill-rule="nonzero" fill="#4A4A4A">
                        <path d="M15.2990033,16.7722466 C12.9835236,17.098615 10.7123292,17.098615 8.41582891,16.7722466 C8.52970495,15.9224572 8.63725455,15.0972993 8.7511306,14.2782994 C8.82072152,13.7487205 8.90296533,13.2252995 8.95990335,12.6895627 C8.97888269,12.5232996 8.97255624,12.3262469 8.89663888,12.1846154 C8.83337441,12.0614575 8.66256034,11.9321417 8.52337851,11.913668 C8.40950246,11.9013522 8.2133826,12.030668 8.16277103,12.1415101 C8.06154788,12.3693522 8.00460985,12.6279838 7.97297762,12.8804574 C7.80848999,14.0812468 7.65665527,15.2820362 7.51747343,16.4828255 C7.4858412,16.747615 7.3782916,16.8830887 7.11258082,16.981615 C5.70810959,17.505036 4.3099648,18.0469307 2.90549356,18.5826675 C2.76631173,18.6319306 2.62712989,18.6750359 2.48162161,18.7119833 C1.62122482,18.902878 0.969600776,18.2870886 1.15306774,17.4372992 C1.29224957,16.7968782 1.67816284,16.3165624 2.22856373,15.9717203 C2.74100594,15.6515098 3.27875393,15.3682467 3.82282838,15.0911415 C4.27200612,14.8632994 4.47445242,14.536931 4.56934913,14.0381415 C4.80342766,12.788089 5.08179133,11.5441944 5.41709302,10.3249313 C5.91055589,8.5329841 7.13788661,7.54772103 9.04847361,7.28908947 C11.0792631,7.01198423 13.0847468,7.07356317 15.0839041,7.4738263 C16.2985819,7.71398417 17.1526522,8.38519464 17.6334622,9.50593139 C18.2850862,11.0084576 18.6836524,12.5725627 18.8354871,14.1982468 C18.8734458,14.5861941 19.0442599,14.8386678 19.3669087,15.0480362 C20.1450617,15.5345098 20.9168882,16.0394572 21.6823883,16.5444045 C22.0809545,16.8091939 22.4225826,17.1232465 22.5427851,17.6035623 C22.7072727,18.2747728 22.3023801,18.7797201 21.593818,18.7550885 C21.3470866,18.7489306 21.0877023,18.6935096 20.8599502,18.6072991 C19.4301732,18.0654044 18.0003961,17.505036 16.5706191,16.9631413 C16.3618464,16.8830887 16.2669496,16.7660887 16.2416439,16.5382466 C16.0708298,15.1835099 15.8747099,13.834931 15.6849165,12.4863522 C15.6785901,12.4555627 15.6785901,12.4247733 15.6722636,12.3939838 C15.5963463,12.0491417 15.4255322,11.8767207 15.1724743,11.9013522 C14.9194164,11.9259838 14.7106437,12.1661417 14.7486024,12.4925101 C14.8181933,13.2252995 14.9257429,13.9580889 15.0206396,14.6908783 C15.1028834,15.3682467 15.1977801,16.051773 15.2990033,16.7722466 Z" id="Shape"></path>
                        <path d="M22.4892877,19.535955 C22.9277305,20.4430744 23.1946087,21.3625355 22.8260626,22.3375346 C22.4829335,23.244654 21.7267786,23.6827865 20.7927049,23.8740838 C19.7061294,24.1024064 18.6449709,23.9357926 17.5965208,23.6704448 C16.4845283,23.3927552 15.4360783,22.9607935 14.4448164,22.3930726 C13.0723,21.6031999 11.6934293,20.8194981 10.3209129,20.0296254 C10.2319535,19.9802583 10.1429941,19.9185495 10.0476805,19.8753534 C9.78080226,19.7457649 9.51392406,19.8074737 9.37413072,20.0234545 C9.23433738,20.2456062 9.30423405,20.5418085 9.55204952,20.6960805 C10.0413262,20.9984536 10.5433114,21.288485 11.0389423,21.5785164 C11.1533187,21.646396 11.2676951,21.7204466 11.3947799,21.7944972 C11.3693629,21.8253516 11.3503002,21.856206 11.3312375,21.8623768 C9.32329678,22.5288319 7.32171032,23.2323123 5.29470688,23.8308877 C4.17636016,24.1641152 2.99447101,24.1887987 1.84435307,23.867913 C0.910279389,23.6025651 0.255792386,23.0471859 0.0588108613,22.0906994 C-0.150879149,21.0663333 0.211312687,20.2085809 0.967467573,19.4989297 C1.01830152,19.4495626 1.1644491,19.4372209 1.23434577,19.4742462 C1.81258186,19.7766193 2.39717219,19.7889611 3.00717949,19.5544676 C4.48771805,18.9805757 5.9809651,18.4313674 7.45514941,17.8451337 C7.82369549,17.6970326 8.1668246,17.6600073 8.55443341,17.7032035 C10.8101896,17.9685514 13.0723,18.0487728 15.3217019,17.6846909 C15.6966022,17.6229821 16.0143144,17.6846909 16.3574435,17.8204502 C17.8379821,18.400513 19.3248749,18.968234 20.8117677,19.5174423 C21.5043801,19.7766193 21.7521956,19.7581067 22.4892877,19.535955 Z" id="Shape"></path>
                        <path d="M11.7256183,0.00036604854 C13.2540833,0.0187115682 14.4818667,1.24174621 14.4442815,2.70327261 C14.4066963,4.18314453 13.1663845,5.36337296 11.6817689,5.33891226 C10.1720965,5.31445157 8.96936991,4.10976245 8.97563411,2.64212088 C8.98816252,1.18059448 10.2410027,-0.0240946443 11.7256183,0.00036604854 Z" id="Shape"></path>
                    </g>
                </g>
            </g>
        </g>
    </g>
</svg>