<?xml version="1.0" encoding="UTF-8"?>
<svg width="38px" height="38px" viewBox="0 0 38 38" version="1.1" xmlns="http://www.w3.org/2000/svg" xmlns:xlink="http://www.w3.org/1999/xlink">
    <!-- Generator: Sketch 47 (45396) - http://www.bohemiancoding.com/sketch -->
    <title>4@2x</title>
    <desc>Created with Sketch.</desc>
    <defs></defs>
    <g id="Page-1" stroke="none" stroke-width="1" fill="none" fill-rule="evenodd">
        <g id="Trang-Chủ" transform="translate(-91.000000, -1009.000000)">
            <g id="Menu-trượt" transform="translate(85.000000, 835.000000)">
                <g id="4" transform="translate(6.000000, 174.000000)">
                    <circle id="Oval-5-Copy-3" fill="#ECECEC" cx="19" cy="19" r="19"></circle>
                    <g id="ourdoor" transform="translate(7.000000, 7.000000)" fill-rule="nonzero" fill="#4A4A4A">
                        <path d="M5.0107416,0 C6.39891252,1.24412008 7.77953903,2.4804644 9.04699943,3.61572397 C8.87347807,4.10559625 8.66223467,4.45550502 8.64714585,4.81318954 C8.60187941,5.95622486 8.64714585,7.09926018 8.62451263,8.23451975 C8.60942382,8.77104653 8.70750111,9.0587493 9.31105368,9.19093706 C10.0126835,9.34645207 15.9199544,14.3618111 16.0180316,14.4628959 C17.5269131,15.9636157 19.0056169,17.5032143 20.5748536,18.9339524 C21.6687926,19.9292485 23.0041527,20.3957935 24.5054897,20.3335875 C25.5088959,20.2947087 26.0219155,20.7690295 25.9992823,21.5699318 C25.9766491,22.3319554 25.4787182,22.6818641 24.5054897,22.7362944 C22.528855,22.8529306 20.7634638,22.2230949 19.3073932,20.9245445 C17.4967355,19.2916369 15.8294215,17.4798871 14.0715746,15.7847735 C12.7890254,14.5484291 9.24315402,11.7336075 8.63960145,11.4459047 C8.63960145,15.2949012 8.63960145,18.9650554 8.63960145,22.6740884 C8.29255872,22.6740884 8.05113769,22.6740884 7.68900614,22.6740884 C7.68900614,20.0847635 7.68900614,17.4954386 7.68900614,14.8594592 C5.68219384,14.8594592 3.79609205,14.8594592 1.79682415,14.8594592 C1.79682415,17.4410083 1.79682415,20.0303332 1.79682415,22.6740884 C1.41960379,22.6974156 1.14800514,22.7051914 0.755695964,22.7285186 C0.755695964,22.3552826 0.755695964,22.0520283 0.755695964,21.7409983 C0.755695964,18.5762679 0.770784778,15.4193132 0.733062742,12.2545827 C0.725518335,11.8502437 0.521819342,11.3992502 0.295487127,11.0493414 C-0.11191086,10.4195056 -0.0968220454,9.8907546 0.333209163,9.28424606 C0.544452563,8.98876755 0.717973928,8.59998002 0.733062742,8.2422955 C0.785873592,7.09926018 0.778329185,5.95622486 0.733062742,4.82096529 C0.717973928,4.47105652 0.521819342,4.13669925 0.355842384,3.63127547 C1.59312516,2.5115674 2.95866285,1.25189583 4.33174496,0 C4.55807717,0 4.78440939,0 5.0107416,0 Z M4.66369887,4.36219602 C3.75837001,4.38552327 2.98884048,5.19420132 3.0114737,6.11173987 C3.03410693,7.02927843 3.84135849,7.81462923 4.73914294,7.79130197 C5.65201621,7.77575047 6.39891252,6.96707242 6.3762793,6.03398237 C6.35364608,5.09311656 5.59166095,4.34664451 4.66369887,4.36219602 Z M2.1589557,11.4148017 L1.69120245,11.8191407 L2.20422214,12.0757405 L7.20616409,12.0835162 L7.65128411,11.7336075 L7.19107527,11.4303532 L2.1589557,11.4148017 Z M4.82213142,13.1099153 C3.96961341,13.1099153 2.2721218,13.1254668 2.2721218,13.1254668 L1.77419093,13.4287211 L2.24948858,13.7475268 L7.10054239,13.7475268 C7.10054239,13.7475268 7.45512952,13.5920118 7.63619529,13.4753756 C7.46267393,13.3742908 7.12317561,13.1254668 7.12317561,13.1254668 C7.12317561,13.1254668 5.58411655,13.1099153 4.82213142,13.1099153 Z" id="Shape"></path>
                    </g>
                </g>
            </g>
        </g>
    </g>
</svg>