<?xml version="1.0" encoding="UTF-8"?>
<svg width="38px" height="38px" viewBox="0 0 38 38" version="1.1" xmlns="http://www.w3.org/2000/svg" xmlns:xlink="http://www.w3.org/1999/xlink">
    <!-- Generator: Sketch 47 (45396) - http://www.bohemiancoding.com/sketch -->
    <title>7@2x</title>
    <desc>Created with Sketch.</desc>
    <defs></defs>
    <g id="Page-1" stroke="none" stroke-width="1" fill="none" fill-rule="evenodd">
        <g id="Trang-Chủ" transform="translate(-91.000000, -1168.000000)">
            <g id="Menu-trượt" transform="translate(85.000000, 835.000000)">
                <g id="7" transform="translate(6.000000, 333.000000)">
                    <circle id="Oval-5-Copy-4" fill="#ECECEC" cx="19" cy="19" r="19"></circle>
                    <g id="martial-arts" transform="translate(19.000000, 19.000000) scale(-1, 1) translate(-19.000000, -19.000000) translate(6.000000, 7.000000)" fill-rule="nonzero" fill="#4A4A4A">
                        <path d="M10.7392278,10.5868723 C10.795344,10.349896 10.6933146,10.2067229 10.458647,10.1425418 C10.3464146,10.1129197 10.2341823,10.0783607 10.1168485,10.0487387 C9.99951468,10.0191166 9.86687646,9.97468357 9.8260647,9.86606944 C9.74954265,9.65871518 9.61690443,9.6735262 9.45875885,9.74264429 C9.34142504,9.79201435 9.21898976,9.82657339 9.11185889,9.88581746 C8.8720898,10.0240536 8.6323207,10.1129197 8.34663838,10.1079827 C8.18849281,10.1079827 8.03034724,10.1524158 7.89260754,10.2462189 C7.73446197,10.354833 7.60692522,10.300526 7.51509876,10.1474788 C7.474287,10.0783607 7.43347524,10.0043056 7.41306936,9.92531351 C7.29063408,9.43654991 7.02025616,8.99221936 6.98964734,8.47383372 C6.97434293,8.21710941 6.80599442,7.98507012 6.78558854,7.71847179 C6.77028413,7.49630652 6.81109589,7.31363729 6.97434293,7.13590507 C7.69365021,6.33611009 8.44356631,5.56100013 9.22409123,4.82044922 C9.5709912,4.49460682 9.95360145,4.29218957 10.4331396,4.21319747 C11.0300116,4.10952034 11.6319851,3.9910322 12.1829439,3.73430788 C12.4584233,3.60594572 12.8104247,3.54670165 12.8818453,3.16655218 C12.8869467,3.14680416 12.9532658,3.11718212 12.9889761,3.12211913 C13.2236438,3.13693015 13.2083394,3.00363098 13.1930349,2.84070978 C13.1675276,2.58892247 13.0654982,2.3667572 12.9634688,2.14459192 C12.6675835,1.48797011 12.8410335,0.653616086 13.3868908,0.298151648 C14.0041687,-0.106682851 14.6673598,-0.0721238085 15.310145,0.238907575 C15.8662053,0.510442909 16.2131052,0.944899445 16.2386126,1.57683622 C16.243714,1.71013539 16.1926993,1.83356054 16.1467861,1.95698569 C16.0651626,2.19396198 16.0141479,2.43093828 16.1416846,2.66791457 C16.1875979,2.75184367 16.1978008,2.84564679 16.0906699,2.87033182 C15.8100891,2.94438691 15.8100891,3.17148919 15.7794803,3.37390644 C15.7386685,3.61088273 15.6621465,3.80342597 15.310145,3.79848896 C15.6366391,4.03052825 15.8560023,4.30206358 16.2743229,4.26256753 C16.7589625,4.21319747 17.187486,4.38105568 17.5547918,4.69208706 C17.7435462,4.85500826 17.9680109,4.93893737 18.2281859,4.92412635 C18.5342741,4.90931533 18.8352608,4.92412635 19.1158417,5.07223653 C19.238277,5.1314806 19.3811181,5.12160659 19.5188578,5.12160659 C19.9881931,5.12160659 20.4524268,5.11666959 20.9217621,5.1265436 C21.0901106,5.1314806 21.2839665,5.09692156 21.3910973,5.28452779 C21.4013003,5.30427582 21.452315,5.30921282 21.4829238,5.31414983 C22.1206076,5.34377186 22.732784,5.52644109 23.3653663,5.58074816 C23.5949324,5.60049618 23.8193971,5.62024421 24.0489632,5.58568516 C24.089775,5.58074816 24.1458912,5.56593714 24.1713985,5.58074816 C24.5795161,5.82759846 25.033547,5.68936229 25.4620704,5.72885834 C25.956913,5.7782284 26.0589424,5.8621575 25.9722175,6.34104709 C25.9365072,6.54840135 25.9007969,6.76069261 25.7732601,6.94336184 C25.6406219,7.12603106 25.4620704,7.20008615 25.2478087,7.11122004 C24.9621264,6.9927319 24.6611396,6.88411776 24.4213706,6.68663752 C24.2122103,6.51384231 23.9928471,6.45459823 23.7224692,6.49903129 C22.9725531,6.62245644 22.222637,6.73600758 21.4676194,6.84955872 C21.3604885,6.86436974 21.36559,6.95323585 21.3451841,7.01247992 C21.2635606,7.25439322 21.1615312,7.48643251 21.0135886,7.69872377 C20.9268636,7.82708592 20.8146312,7.86658197 20.6666886,7.82708592 C20.5544562,7.79746389 20.4269195,7.78758988 20.3248901,7.7283458 C19.8861637,7.47162149 19.4372343,7.51111754 18.9627976,7.62960568 C18.4169403,7.76784185 17.8557786,7.78265287 17.2946169,7.75796784 C17.1670801,7.75303083 17.1160654,7.79252688 17.0650507,7.891267 C16.8864993,8.23685743 16.840586,8.60713289 16.840586,8.98728235 C16.840586,10.1227938 16.2743229,10.9818328 15.4121744,11.6976987 C15.3662612,11.7322577 15.310145,11.7569428 15.2591303,11.7816278 C15.0091583,12.1667143 14.5959392,12.2950764 14.1827201,12.4234386 C14.1010966,12.4481236 14.0143716,12.4283756 13.9327481,12.4036906 C13.2644555,12.2160843 12.6471776,11.929738 12.1217262,11.4755334 C11.8921601,11.2780532 11.6268836,11.139817 11.3309984,11.0410769 C11.0963307,10.9620848 10.8667646,10.8337226 10.7392278,10.5868723 Z" id="Shape"></path>
                        <path d="M13.1681082,16.8761002 C12.8890414,16.9875353 12.6049006,17.0888399 12.3309078,17.2154706 C12.1533198,17.2965143 12.0366192,17.2711881 12.0011016,17.0736442 C11.9452882,16.7697304 11.79307,16.8203827 11.5901123,16.9318178 C11.1182357,17.1901445 10.6311373,17.4079493 10.1237432,17.6004281 C9.66708842,17.7726459 9.30683856,18.0866901 9.01254994,18.4564518 C8.4594903,19.1554535 7.7542124,19.651846 6.94238173,19.9861511 C6.28784326,20.2546083 5.79059697,20.6851528 5.41512529,21.2524585 C4.97369236,21.926134 4.29885812,22.366809 3.75087242,22.9290494 C3.67476329,23.0100931 3.58343234,22.9999627 3.49210139,22.9999627 C2.88322839,22.9797017 2.28450327,22.9087885 1.77203516,22.5137006 C1.70099998,22.7011141 1.78725699,22.8328101 1.82784852,22.9695713 C1.8988837,23.2025718 2.0206583,23.4760942 1.81770064,23.6584425 C1.62489085,23.8306603 1.36611983,23.6888339 1.15808822,23.5875293 C0.802912299,23.4153115 0.457884265,23.227898 0.0976344054,23.0556802 C0.0164513385,23.0151583 0.0113773968,22.9645061 0.00630345517,22.8986581 C-0.0139923116,22.5339615 0.00630345517,22.1743303 0.194039297,21.8450903 C0.275222364,21.6981987 0.290444189,21.5411766 0.265074481,21.3841545 C0.229556889,21.1612844 0.356405431,21.0397189 0.478180032,20.8624358 C0.731877116,20.4977393 1.08197909,20.2596735 1.39656348,19.9709554 C2.09676743,19.3226061 2.87815445,18.7704961 3.59358022,18.1424076 C3.94875614,17.8283634 4.26334053,17.4788625 4.56777703,17.114166 C4.80117834,16.8355784 5.08024514,16.6532301 5.44556894,16.627904 C5.67389631,16.6127083 5.84641033,16.5012733 5.9884807,16.3391859 C6.75971983,15.4679664 7.42440619,14.5106381 8.22101504,13.6546143 C8.32249387,13.5482445 8.3021981,13.4114833 8.2768284,13.294983 C8.23116292,13.0974391 8.32249387,12.9809388 8.44426847,12.8593733 C8.81974016,12.4845463 9.2510252,12.1705021 9.66708842,11.8412621 C9.90048973,11.6589139 10.1338911,11.4816309 10.3672924,11.3043478 C10.5398064,11.3550001 10.6412852,11.5018918 10.747838,11.6234573 C11.1080879,12.0337409 11.5647426,12.2920676 12.0670628,12.4896115 C12.3512036,12.6010466 12.6353443,12.7074164 12.9042632,12.8492428 C13.0311118,12.9150908 13.1427385,13.0062649 13.2543652,13.0974391 C13.5638756,13.360831 13.6399848,13.6647448 13.4928404,14.044637 C13.3761398,14.3434855 13.274661,14.6473993 13.1934779,14.9563783 C13.0514075,15.4831621 13.2036258,16.009946 13.1985518,16.5367299 C13.2086997,16.6532301 13.2645131,16.7747956 13.1681082,16.8761002 Z" id="Shape"></path>
                        <path d="M14.9844606,12.4347826 C15.2117077,12.5034429 15.3450919,12.672453 15.3747328,12.915405 C15.3895533,13.0210363 15.4389548,13.0157547 15.508117,13.0157547 C16.1750378,13.0315994 16.7085744,13.3432117 17.1927095,13.813271 C17.6472037,14.2569224 18.1906206,14.5790978 18.7439179,14.8590207 C19.3219159,15.1495068 19.7368888,15.6090029 19.9789564,16.2533538 C20.4186301,17.4469874 20.8780644,18.6300578 21.1794138,19.8765071 C21.3325586,20.5102948 21.505464,21.1493641 21.5301648,21.7989965 C21.5449852,22.1951139 21.6783694,22.3165899 21.984659,22.4275027 C22.369991,22.5648234 22.7059214,22.8341832 23.1159542,22.9081251 C23.2592187,22.9345329 23.4074233,22.9503776 23.5556279,22.9662223 C23.654431,22.9767854 23.748294,22.9767854 23.7384136,23.1405139 C23.7285333,23.2778346 23.6988924,23.3887475 23.5605681,23.4098737 C23.1455952,23.4732525 22.7306222,23.5788838 22.3156493,23.5102235 C21.7870528,23.4204369 21.2880972,23.5207866 20.7842015,23.6422626 C20.3544081,23.7426123 19.9196745,23.7531754 19.484941,23.7267676 C19.1687711,23.7056413 18.9958657,23.4838156 19.0156263,23.1457955 C19.0205665,23.0348827 19.0502074,22.9239698 19.0650279,22.8077754 C19.0600877,22.8024938 19.0502074,22.7866491 19.035387,22.7866491 C18.8723619,22.7602413 18.6747557,22.8658726 18.5611322,22.7549597 C18.4623291,22.6598916 18.4722094,22.4433474 18.4079874,22.2954636 C18.0177152,21.3659083 17.8695106,20.3571294 17.6126226,19.3853215 C17.498999,18.9469517 17.2766921,18.6353394 16.8765396,18.4346399 C16.3084219,18.1441539 15.7600648,17.8061338 15.2265282,17.4522689 C15.1425456,17.3466376 15.1672463,17.2198801 15.1623062,17.0984041 C15.1376054,16.4857426 15.221588,15.8730811 15.2117077,15.2604196 C15.1968872,14.4206509 15.1030243,13.6020084 14.7522734,12.8308999 C14.6287695,12.5721033 14.707812,12.4559089 14.9844606,12.4347826 Z" id="Shape"></path>
                        <path d="M14.4248802,13.1255382 C14.2146173,13.1945629 14.168908,13.2954452 14.2831813,13.5503056 C14.6625687,14.3945309 14.7037071,15.3184001 14.6945652,16.2475788 C14.6854234,16.8900396 14.6625687,17.5325003 14.644285,18.1696515 C14.5208698,18.4245119 14.5985756,18.71123 14.57115,18.9820192 C14.5482954,19.1944029 14.5162989,19.2368796 14.3288906,19.2103317 C14.0866312,19.1784741 14.0363509,19.0616631 14.0546347,18.8068026 C14.0729184,18.5519422 14.0637765,18.2970817 14.100344,18.0475308 C14.1186277,17.9307198 14.1231987,17.79798 14.0592056,17.6864785 C14.03178,17.3625933 14.0454928,17.0333986 14.0637765,16.7095134 C14.0957731,16.0829815 14.1414824,15.4564495 14.0363509,14.8352271 C14.0226381,14.7555832 14.0180672,14.6759393 13.9860707,14.601605 C13.9175067,14.4476268 13.9495032,14.1927664 13.7529531,14.1609088 C13.5289774,14.1237417 13.2684343,14.3626733 13.1907284,14.601605 C13.0536005,15.0263725 13.0490295,15.4670687 13.0536005,15.9077649 C13.0581714,16.3590803 13.0901679,16.8050861 13.1450191,17.2564015 C13.154161,17.341355 13.1633029,17.4316181 13.0993098,17.5059524 C13.0673133,17.8245279 13.1633029,18.1324843 13.1952994,18.4457503 C13.218154,18.6899916 13.0536005,18.6156573 12.9621818,18.6687532 C12.8387666,18.7377779 12.8250539,18.6368956 12.8113411,18.5307038 C12.7839155,18.2811529 12.7564899,18.0262925 12.7290643,17.7767416 C12.7244933,17.7236457 12.7290643,17.6705497 12.6833549,17.6333826 C12.6650712,17.288259 12.6559294,16.9431355 12.6239328,16.6033216 C12.5736526,16.1042198 12.6193619,15.6210469 12.7747736,15.1484931 C12.8250539,14.9998245 12.8616213,14.8511559 12.9073306,14.6971777 C13.0673133,14.1396704 13.0078911,13.9325963 12.5919363,13.5768536 C12.4045281,13.4175658 12.1988361,13.311374 11.9794314,13.2317301 C11.2526531,12.9556312 10.6447191,12.488387 10.173913,11.7875208 C10.2241933,11.6069946 10.3887469,11.5061124 10.4070306,11.3043478 C10.6858575,11.6866385 11.1292379,11.7397344 11.4674869,11.9945949 C11.5543346,12.0636196 11.6457533,12.1220251 11.7234591,12.2122882 C12.1714105,12.7220091 12.7244933,12.998108 13.3141436,13.1892533 C13.4329879,13.2264205 13.560974,13.141467 13.6661054,13.1308478 C14.03178,13.1042998 14.1963336,12.7432475 14.4751605,12.5786501 C14.4568767,12.7697955 14.438593,12.9503216 14.4248802,13.1255382 Z" id="Shape"></path>
                        <path d="M13.675825,16.7927372 C13.6140173,16.1616848 13.5389651,15.5354496 13.5742838,14.89958 C13.5919431,14.5864625 13.6360915,14.2781621 13.7508772,13.9891304 C13.7950256,13.8735178 13.8568333,13.8012599 13.9760339,13.7964427 C14.1305531,13.7916255 14.2585834,13.7193676 14.351295,13.5652174 C14.5764516,13.979496 14.6912373,14.4082263 14.6956522,14.8754941 C14.6956522,15.5739872 14.6647483,16.267663 14.5985258,16.9565217 C14.3071466,16.78792 13.9981081,16.739748 13.675825,16.7927372 Z" id="Shape"></path>
                    </g>
                </g>
            </g>
        </g>
    </g>
</svg>