<?xml version="1.0" encoding="UTF-8"?>
<svg width="38px" height="38px" viewBox="0 0 38 38" version="1.1" xmlns="http://www.w3.org/2000/svg" xmlns:xlink="http://www.w3.org/1999/xlink">
    <!-- Generator: Sketch 47 (45396) - http://www.bohemiancoding.com/sketch -->
    <title>6@2x</title>
    <desc>Created with Sketch.</desc>
    <defs></defs>
    <g id="Page-1" stroke="none" stroke-width="1" fill="none" fill-rule="evenodd">
        <g id="Trang-Chủ" transform="translate(-91.000000, -1115.000000)">
            <g id="Menu-trượt" transform="translate(85.000000, 835.000000)">
                <g id="6" transform="translate(6.000000, 280.000000)">
                    <circle id="Oval-5-Copy-3" fill="#ECECEC" cx="19" cy="19" r="19"></circle>
                    <g id="dumbbell" transform="translate(6.000000, 12.000000)" fill-rule="nonzero" fill="#4A4A4A">
                        <path d="M25.5041317,5.11538059 C25.257521,5.11538059 25.0575649,5.36670729 25.0575649,5.67598867 C25.0575649,6.53402848 25.0575649,8.16493539 25.0575649,9.02245775 C25.0575649,9.33173913 25.2575729,9.58254838 25.5046507,9.58254838 C25.7512615,9.58254838 25.9503353,9.33168739 25.9503353,9.02245775 C25.9503353,8.16545285 25.9503353,6.53449418 25.9503353,5.67547122 C25.9503353,5.36670729 25.7507425,5.11538059 25.5041317,5.11538059 Z" id="Shape"></path>
                        <path d="M0.447137725,5.11538059 C0.200526946,5.11538059 0,5.36670729 0,5.67598867 C0,6.53501164 0,8.16343478 0.000518962076,9.02147459 C0.000518962076,9.33075597 0.200526946,9.58156522 0.447137725,9.58260012 C0.693800399,9.58260012 0.893289421,9.33173913 0.893289421,9.02250949 C0.893289421,8.16498714 0.893289421,6.53454593 0.893808383,5.67552296 C0.893756487,5.36670729 0.693800399,5.11538059 0.447137725,5.11538059 Z" id="Shape"></path>
                        <path d="M5.94564471,0.0420171464 C5.12288224,0.0420171464 4.45539321,0.794600122 4.45539321,1.72239253 C4.45539321,4.53495407 4.45591218,10.1639581 4.45643114,12.9754847 C4.45643114,13.9032771 5.12288224,14.6558083 5.94569661,14.6558083 C6.76851098,14.6558083 7.4359481,13.9027596 7.4359481,12.9754847 C7.4359481,11.8724829 7.4359481,10.3341482 7.4359481,8.70417269 C8.29498603,8.70417269 15.9839281,8.70417269 18.2757166,8.70417269 C18.2757166,10.3346656 18.2757166,11.8724829 18.2757166,12.9760021 C18.2757166,13.9032771 18.9431537,14.6558083 19.76602,14.6558083 C20.5887824,14.6558083 21.2552854,13.9027596 21.2552854,12.9754847 C21.2552854,10.1629231 21.2552854,4.53391917 21.2552854,1.72239253 C21.2552854,0.794134415 20.5887305,0.0420171464 19.76602,0.0420171464 C18.9432056,0.0420171464 18.2757166,0.793616963 18.2757166,1.72239253 C18.2757166,2.82534262 18.2757166,4.36321157 18.2757166,5.99360104 C15.9830459,5.99360104 8.29498603,5.99360104 7.4359481,5.99360104 C7.4359481,4.36321157 7.4359481,2.82529088 7.4359481,1.72187508 C7.4359481,0.793668708 6.76897804,0.0420171464 5.94564471,0.0420171464 Z" id="Shape"></path>
                        <path d="M23.2288463,2.28651929 C23.1801677,2.28651929 23.1320599,2.28651929 23.0829661,2.28651929 C22.4630659,2.28651929 21.9598802,2.78679241 21.9598802,3.40576914 C21.9598802,5.35382272 21.9598802,9.3440545 21.9598802,11.2920563 C21.9598802,11.9105674 22.463014,12.4123411 23.0833293,12.4123411 C23.132008,12.4123411 23.1811537,12.4123411 23.2292615,12.4123411 C23.8495768,12.4123411 24.3527106,11.912068 24.3527106,11.2930395 C24.3527106,9.34550337 24.3527106,5.35480588 24.3522954,3.40670055 C24.3528144,2.78777557 23.8491617,2.28651929 23.2288463,2.28651929 Z" id="Shape"></path>
                        <path d="M2.70462275,2.28651929 C2.65599601,2.28651929 2.6068503,2.28651929 2.55822355,2.28651929 C1.93790818,2.28651929 1.43518962,2.78679241 1.43518962,3.40576914 C1.43518962,5.35382272 1.43518962,9.3440545 1.43518962,11.2920563 C1.43518962,11.9110848 1.93790818,12.4123411 2.55822355,12.4123411 C2.6068503,12.4123411 2.65599601,12.4123411 2.70410379,12.4123411 C3.32441916,12.4123411 3.82713772,11.912068 3.82713772,11.2930395 C3.82713772,9.34550337 3.82713772,5.35480588 3.82713772,3.40670055 C3.82765669,2.78777557 3.32493812,2.28651929 2.70462275,2.28651929 Z" id="Shape"></path>
                    </g>
                </g>
            </g>
        </g>
    </g>
</svg>