<?xml version="1.0" encoding="UTF-8"?>
<svg width="38px" height="38px" viewBox="0 0 38 38" version="1.1" xmlns="http://www.w3.org/2000/svg" xmlns:xlink="http://www.w3.org/1999/xlink">
    <!-- Generator: Sketch 47 (45396) - http://www.bohemiancoding.com/sketch -->
    <title>8@2x</title>
    <desc>Created with Sketch.</desc>
    <defs></defs>
    <g id="Page-1" stroke="none" stroke-width="1" fill="none" fill-rule="evenodd">
        <g id="Trang-Chủ" transform="translate(-91.000000, -1221.000000)">
            <g id="Menu-trượt" transform="translate(85.000000, 835.000000)">
                <g id="8" transform="translate(6.000000, 386.000000)">
                    <circle id="Oval-5-Copy-4" fill="#ECECEC" cx="19" cy="19" r="19"></circle>
                    <g id="002-swimming-figure" transform="translate(19.000000, 19.500000) scale(-1, 1) translate(-19.000000, -19.500000) translate(6.000000, 11.000000)" fill-rule="nonzero" fill="#4A4A4A">
                        <path d="M3.30037155,3.53156671 L9.31183652,4.30127067 C9.52163057,4.83181661 10.5787155,7.44331219 10.7774692,7.91063245 C10.7774692,7.91063245 10.7774692,7.91063245 10.7746815,7.91063245 C9.03306794,8.76830258 7.29145435,9.62322376 5.54984076,10.4808939 C6.15429936,10.3709362 6.76703822,10.3159573 7.38253715,10.3159573 C8.18848195,10.3159573 8.97786624,10.4121703 9.73136943,10.6018474 C11.2521762,10.9866993 12.6266985,11.602435 13.9542994,12.1989831 C15.1383758,12.729529 16.2589703,13.232613 17.3768047,13.521252 C17.5341295,13.5624862 17.6859342,13.5982224 17.8377389,13.6284333 C16.5128981,10.9262226 12.9496285,3.64427336 12.2458068,2.04163975 C11.9145966,1.28568051 11.4591826,1.00528835 10.8133503,0.922820069 L3.75305308,0.0184179162 C2.7787431,-0.105284506 1.88723567,0.57920223 1.76027176,1.54957901 C1.63880042,2.51995579 2.32606157,3.40786428 3.30037155,3.53156671 Z" id="Shape"></path>
                        <path d="M0.460244161,16.1602095 C0.656210191,16.3004056 0.87977707,16.3663802 1.10334395,16.3663802 C1.15302548,16.3663802 1.19994692,16.3636038 1.24686837,16.3553845 C1.53943737,16.3168993 1.81544586,16.1629585 2.00037155,15.9073068 C2.71523355,14.914911 3.8220276,14.1342388 5.11098726,13.7053762 C5.85069002,13.4607478 6.6235138,13.3370454 7.38253715,13.3370454 C10.1343418,13.3370454 12.4942144,14.9754152 14.9782633,15.9182751 C16.3086242,16.4240805 17.6969469,16.7979368 19.2067134,16.7979368 C19.8415329,16.7979368 20.4984331,16.7319896 21.1801741,16.5807978 C22.783811,16.2289331 24.1583057,15.4702249 25.1519363,14.4063566 C25.3893036,14.1507049 25.6045626,13.8813085 25.7950361,13.5926696 C26.1317665,13.0868641 25.9910021,12.4051263 25.4831465,12.0697553 C25.2954607,11.9460529 25.0856943,11.8883251 24.8759278,11.8883251 C24.5171168,11.8883251 24.166586,12.0615085 23.9540594,12.3803858 C23.8684968,12.5095586 23.7746539,12.6332611 23.6725308,12.754242 C22.9825096,13.573427 21.9474777,14.1617007 20.7054395,14.433846 C19.5600042,14.6840273 18.2958854,14.6097784 17.1670382,14.3184179 C15.9802017,14.0105363 14.8319788,13.496484 13.6120212,12.949417 C12.3147813,12.36939 10.9761401,11.7673716 9.52436306,11.3990408 C8.83434183,11.2231084 8.11119958,11.1378912 7.37977707,11.1378912 C6.38338641,11.1378912 5.37043524,11.3000513 4.40716561,11.6189562 C3.5653397,11.8993483 2.78423567,12.2896707 2.0831741,12.7817589 C1.34347134,13.3013091 0.71141189,13.9198212 0.203556263,14.6235506 C0.170435244,14.6702826 0.142834395,14.7170146 0.117993631,14.7664956 C-0.122133758,15.2420627 0.0103503185,15.8385832 0.460244161,16.1602095 Z" id="Shape"></path>
                        <ellipse id="Oval" cx="20.4487516" cy="7.1793862" rx="3.89447983" ry="3.87875817"></ellipse>
                    </g>
                </g>
            </g>
        </g>
    </g>
</svg>