<?xml version="1.0" encoding="UTF-8"?>
<svg width="38px" height="38px" viewBox="0 0 38 38" version="1.1" xmlns="http://www.w3.org/2000/svg" xmlns:xlink="http://www.w3.org/1999/xlink">
    <!-- Generator: Sketch 47 (45396) - http://www.bohemiancoding.com/sketch -->
    <title>9@2x</title>
    <desc>Created with Sketch.</desc>
    <defs></defs>
    <g id="Page-1" stroke="none" stroke-width="1" fill="none" fill-rule="evenodd">
        <g id="Trang-Chủ" transform="translate(-91.000000, -1274.000000)">
            <g id="Menu-trượt" transform="translate(85.000000, 835.000000)">
                <g id="9" transform="translate(6.000000, 439.000000)">
                    <circle id="Oval-5-Copy-4" fill="#ECECEC" cx="19" cy="19" r="19"></circle>
                    <g id="001-ball" transform="translate(5.000000, 12.000000)" fill-rule="nonzero" fill="#4A4A4A">
                        <path d="M14.4523119,0.0222690058 C10.732078,0.0222690058 7.70584016,3.0485614 7.70584016,6.76874074 C7.70584016,10.4889201 10.7321326,13.5152125 14.4523119,13.5152125 C18.1724912,13.5152125 21.1987836,10.4889201 21.1987836,6.76874074 C21.1987836,3.0485614 18.1725458,0.0222690058 14.4523119,0.0222690058 Z M14.4523119,12.5514776 C11.2636413,12.5514776 8.66957505,9.95746589 8.66957505,6.76874074 C8.66957505,3.58001559 11.2635867,0.98605848 14.4523119,0.98605848 C17.6404912,0.98605848 20.2349942,3.58007018 20.2349942,6.76874074 C20.2349942,9.95741131 17.6409825,12.5514776 14.4523119,12.5514776 Z" id="Shape"></path>
                        <path d="M17.162963,5.91051072 L14.7529981,3.98293177 C14.5770838,3.84222222 14.3269942,3.84222222 14.1511345,3.98293177 L11.7416608,5.91051072 C11.5758986,6.04303314 11.5161326,6.2685614 11.5951657,6.46565302 L12.5589552,8.87512671 C12.6322027,9.05824561 12.8095361,9.17821442 13.0066277,9.17821442 L15.8979961,9.17821442 C16.0950877,9.17821442 16.2719298,9.05824561 16.3456686,8.87512671 L17.3094581,6.46565302 C17.388,6.2685614 17.3287251,6.04303314 17.162963,5.91051072 Z M15.5717661,8.21442495 L13.3329123,8.21442495 L12.6230877,6.43961793 L14.4523665,4.97608577 L16.2816452,6.43961793 L15.5717661,8.21442495 Z" id="Shape"></path>
                        <path d="M15.5129825,0.215048733 L14.4523665,1.62891228 L13.3921871,0.215048733 L12.6211774,0.793333333 L14.0668616,2.72091228 C14.1579571,2.84235478 14.300577,2.91369201 14.4523665,2.91369201 C14.6036647,2.91369201 14.7463392,2.84235478 14.8383626,2.72091228 L16.2840468,0.793333333 L15.5129825,0.215048733 Z" id="Shape"></path>
                        <rect id="Rectangle-path" x="13.9704172" y="1.94984795" width="1" height="2.40947368"></rect>
                        <path d="M11.0438986,5.14381287 L10.0801092,2.73433918 L9.18525536,3.09238986 L9.93410526,4.96407797 L8.09281871,5.33222612 L8.28221442,6.27723977 L10.6911969,5.79534503 C10.8314152,5.76739961 10.9523665,5.67870565 11.0203197,5.55246004 C11.0882729,5.42621442 11.0968967,5.27682651 11.0438986,5.14381287 Z" id="Shape"></path>
                        <rect id="Rectangle-path" transform="translate(11.330906, 5.788017) rotate(-56.311522) translate(-11.330906, -5.788017) " x="10.8309058" y="4.91910793" width="1" height="1.73781827"></rect>
                        <path d="M12.5098324,10.5072593 C12.4563431,10.2928109 12.2635634,10.1420039 12.0424016,10.1420039 L9.63292788,10.1420039 L9.63292788,11.1057934 L11.6660117,11.1057934 L12.0568109,12.6680624 L12.9916725,12.4348382 L12.5098324,10.5072593 Z" id="Shape"></path>
                        <rect id="Rectangle-path" transform="translate(12.539409, 9.668936) rotate(-63.434949) translate(-12.539409, -9.668936) " x="11.4619606" y="9.16893515" width="2.15489745" height="1"></rect>
                        <path d="M18.9695906,4.96407797 L19.7184405,3.09238986 L18.8235867,2.73433918 L17.8597973,5.14381287 C17.8067992,5.27682651 17.8154776,5.42670565 17.8838674,5.55246004 C17.9523119,5.67821442 18.0727719,5.76739961 18.2129903,5.79534503 L20.6224639,6.27723977 L20.8108772,5.33222612 L18.9695906,4.96407797 Z" id="Shape"></path>
                        <rect id="Rectangle-path" transform="translate(17.596265, 5.820832) rotate(-33.688478) translate(-17.596265, -5.820832) " x="16.7273284" y="5.32082958" width="1.73787285" height="1"></rect>
                        <path d="M16.8622768,10.1420039 C16.641115,10.1420039 16.4483353,10.2928109 16.394846,10.5072593 L15.9129513,12.4348382 L16.8473216,12.6680624 L17.2386121,11.1057934 L19.2716959,11.1057934 L19.2716959,10.1420039 L16.8622768,10.1420039 Z" id="Shape"></path>
                        <rect id="Rectangle-path" transform="translate(16.396037, 9.651509) rotate(-26.565051) translate(-16.396037, -9.651509) " x="15.8960353" y="8.57406027" width="1" height="2.15489745"></rect>
                        <path d="M6.03462768,12.5075945 C4.5017232,12.3186901 3.13414425,11.5433138 2.18432749,10.3255595 C0.223508772,7.81156335 0.673091618,4.1708538 3.1871423,2.20959844 C5.28146589,0.575500975 8.20651072,0.575500975 10.3008343,2.20959844 L10.8935828,1.44966862 C8.44988694,-0.456241715 5.03716179,-0.456241715 2.59395712,1.44966862 C-0.338838207,3.73769981 -0.863633528,7.98556725 1.42439766,10.9188538 C2.53277193,12.3394854 4.1282807,13.2435088 5.91662378,13.4646706 C6.19804288,13.499384 6.47853411,13.5162495 6.75755166,13.5162495 C8.25235867,13.5162495 9.69613255,13.0222924 10.8931462,12.087922 L10.3003977,11.3284834 C9.08307992,12.2777544 7.56895127,12.6989006 6.03462768,12.5075945 Z" id="Shape"></path>
                        <rect id="Rectangle-path" x="6.26015595" y="0.504163743" width="1" height="12.0473138"></rect>
                        <rect id="Rectangle-path" x="0.477473684" y="6.286846" width="7.71026121" height="1"></rect>
                        <path d="M5.49296686,6.43383236 C5.40334503,4.56792982 4.59281871,2.84901365 3.21023002,1.59321637 L2.56208187,2.30642495 C3.7542924,3.38925536 4.45303704,4.87107212 4.53010526,6.47962573 C4.60717349,8.08817934 4.0539961,9.63025341 2.97072904,10.8224639 C2.84159064,10.9650838 2.70519298,11.1014815 2.5625731,11.2306199 L3.21023002,11.9447563 C3.37550097,11.7948772 3.53504094,11.6353918 3.68442885,11.4705575 C4.9402807,10.0880234 5.58258869,8.29924366 5.49296686,6.43383236 Z" id="Shape"></path>
                        <path d="M25.9478674,1.36386745 L25.5657466,0.924382066 C25.077575,0.350955166 24.3663314,0.0222690058 23.6155166,0.0222690058 C23.6121326,0.0222690058 23.6083119,0.0222690058 23.6039454,0.0222690058 C22.8502924,0.0222690058 22.1389942,0.350900585 21.6542066,0.920506823 L21.265809,1.36768811 C20.6244288,2.11992203 20.1261598,2.9714386 19.7830097,3.89860429 L20.6875244,4.23253021 C20.9906121,3.41185185 21.4320624,2.65819883 21.9963197,1.99607797 L22.3852086,1.54889669 C22.68977,1.190846 23.1340585,0.98605848 23.6058558,0.98605848 C23.609731,0.98605848 23.6121326,0.98605848 23.6135517,0.98605848 C24.083384,0.98605848 24.5272359,1.19133723 24.8351267,1.55277193 L25.2177388,1.99274854 C26.3540585,3.32326706 26.9804834,5.01953216 26.9819571,6.76830409 C26.980538,8.51854971 26.3545497,10.2143236 25.2206316,11.5414581 L24.8317427,11.9886394 C24.5271813,12.3461988 24.083384,12.5514776 23.6115867,12.5514776 C23.6077115,12.5514776 23.6058012,12.5514776 23.6038908,12.5514776 C23.1340585,12.5514776 22.6897154,12.3461988 22.3818246,11.9852554 L22.0001949,11.54577 C21.4296062,10.8725692 20.9882105,10.1116569 20.6885068,9.28377388 L19.7820819,9.61240546 C20.1213567,10.5477583 20.620117,11.4079532 21.2687018,12.1731774 L21.6508226,12.6136452 C22.1394854,13.1866355 22.8502378,13.5152671 23.6015439,13.5152671 C23.6044366,13.5147758 23.6083119,13.5152671 23.613115,13.5152671 C24.3658402,13.5152671 25.0770838,13.1866355 25.5623626,12.6170292 L25.9507602,12.1703392 C27.2354854,10.6663626 27.9443275,8.74795322 27.9458012,6.76830409 C27.9443275,4.79012865 27.2354854,2.8717193 25.9478674,1.36386745 Z" id="Shape"></path>
                        <rect id="Rectangle-path" x="23.1263626" y="3.39553216" width="1" height="6.74647173"></rect>
                        <rect id="Rectangle-path" x="22.1626277" y="4.35932164" width="2.89136842" height="1"></rect>
                        <rect id="Rectangle-path" x="22.1626277" y="6.286846" width="2.89136842" height="1"></rect>
                        <rect id="Rectangle-path" x="22.1626277" y="8.21442495" width="2.89136842" height="1"></rect>
                        <rect id="Rectangle-path" x="20.7169435" y="2.43174269" width="5.78268226" height="1"></rect>
                        <rect id="Rectangle-path" x="20.7169435" y="10.1420039" width="5.78268226" height="1"></rect>
                    </g>
                </g>
            </g>
        </g>
    </g>
</svg>