<?xml version="1.0" encoding="UTF-8"?>
<svg width="38px" height="38px" viewBox="0 0 38 38" version="1.1" xmlns="http://www.w3.org/2000/svg" xmlns:xlink="http://www.w3.org/1999/xlink">
    <!-- Generator: Sketch 47 (45396) - http://www.bohemiancoding.com/sketch -->
    <title>2@2x</title>
    <desc>Created with Sketch.</desc>
    <defs></defs>
    <g id="Page-1" stroke="none" stroke-width="1" fill="none" fill-rule="evenodd">
        <g id="Trang-Chủ" transform="translate(-91.000000, -903.000000)">
            <g id="Menu-trượt" transform="translate(85.000000, 835.000000)">
                <g id="2" transform="translate(6.000000, 68.000000)">
                    <circle id="Oval-5-Copy" fill="#ECECEC" cx="19" cy="19" r="19"></circle>
                    <g id="run-machine" transform="translate(6.000000, 4.000000)" fill-rule="nonzero" fill="#4A4A4A">
                        <path d="M0.359116022,24.3286588 C-0.0287292818,24.0350118 -0.0574585635,23.3889882 0.287292818,22.9778824 C0.48839779,22.7282824 0.732596685,22.5520941 1.06298343,22.5520941 C1.35027624,22.5520941 1.63756906,22.5667765 1.93922652,22.5667765 C2.02541436,22.5667765 2.11160221,22.5520941 2.19779006,22.5374118 C2.24088398,22.5374118 2.2839779,22.5227294 2.34143646,22.5227294 C9.7679558,22.5227294 17.1801105,22.5227294 24.6066298,22.5227294 C24.7646409,22.5227294 24.9370166,22.5374118 25.0950276,22.5814588 C25.1812155,22.5961412 25.2674033,22.6695529 25.3392265,22.7282824 C25.4541436,22.8163765 25.5690608,22.9044706 25.6839779,23.0072471 C25.7270718,23.0366118 25.7558011,23.0953412 25.7701657,23.1540706 C26.201105,23.9616 25.5977901,24.9159529 24.7933702,24.9012706 C24.2331492,24.8865882 23.6729282,24.8719059 23.1127072,24.8719059 C22.638674,24.8719059 22.1502762,24.9012706 21.6762431,24.9012706 C14.8674033,24.9012706 8.07292818,24.9012706 1.2640884,24.9012706 C0.933701657,24.9012706 0.64640884,24.8278588 0.430939227,24.5782588 C0.387845304,24.5195294 0.373480663,24.4314353 0.344751381,24.3580235 C0.33038674,24.3433412 0.344751381,24.3433412 0.359116022,24.3286588 Z" id="Shape"></path>
                        <path d="M1.03425414,12.6855529 C1.20662983,12.2450824 1.37900552,11.9367529 2.22651934,12.1716706 C2.2839779,12.2010353 3.44751381,12.5240471 3.74917127,12.5974588 C4.48176796,12.7883294 5.22872928,12.9792 5.96132597,13.1700706 C6.23425414,13.2434824 6.49281768,13.3022118 6.75138122,13.3756235 C6.8519337,13.4049882 6.90939227,13.3756235 6.98121547,13.2875294 C7.7281768,12.3038118 8.47513812,11.3347765 9.22209945,10.3657412 C9.3801105,10.1748706 9.33701657,9.93995294 9.3801105,9.7344 C9.43756906,9.45543529 9.46629834,9.17647059 9.50939227,8.85345882 C9.7679558,8.97091765 10.0121547,9.07369412 10.241989,9.19115294 C10.6298343,9.36734118 11.0176796,9.57289412 11.4055249,9.7344 C11.7359116,9.86654118 12.0519337,9.82249412 12.3966851,9.57289412 C12.3248619,9.80781176 12.2530387,10.0133647 12.1955801,10.2189176 C12.1381215,10.4097882 12.080663,10.6006588 12.0232044,10.7915294 C11.9944751,10.8943059 12.0232044,10.9824 12.0950276,11.0558118 C13.0430939,12.0688941 13.9911602,13.0819765 14.9535912,14.0803765 C15.1259669,14.2565647 15.1977901,14.4621176 15.2265193,14.7117176 C15.2983425,15.5779765 15.3701657,16.4295529 15.4276243,17.2958118 C15.4994475,18.3382588 15.5856354,19.3807059 15.6430939,20.4231529 C15.6574586,20.6727529 15.6718232,20.9223529 15.6430939,21.1719529 C15.5856354,21.4949647 15.2696133,21.7445647 14.9104972,21.7886118 C14.5944751,21.8326588 14.2209945,21.6417882 14.0917127,21.3481412 C14.0198895,21.1719529 13.9767956,20.9664 13.9480663,20.7755294 C13.8475138,20.0707765 13.761326,19.3660235 13.6751381,18.6612706 C13.5889503,17.9858824 13.4883978,17.3104941 13.3878453,16.6497882 C13.3447514,16.3414588 13.2872928,16.0331294 13.2729282,15.7248 C13.2585635,15.4605176 13.1867403,15.2696471 12.9569061,15.1228235 C12.1955801,14.5942588 11.4342541,14.0510118 10.7016575,13.4930824 C10.4143646,13.2728471 10.198895,12.9645176 9.95469613,12.6708706 C9.79668508,12.48 9.65303867,12.2597647 9.46629834,12.0688941 C9.53812155,12.2304 9.59558011,12.3919059 9.68176796,12.5387294 C9.91160221,12.8617412 10.1414365,13.1847529 10.4,13.4930824 C10.4861878,13.5958588 10.4574586,13.6252235 10.3712707,13.6986353 C9.55248619,14.3152941 8.73370166,14.9466353 7.91491713,15.5632941 C7.77127072,15.6660706 7.64198895,15.7835294 7.4839779,15.8716235 C7.28287293,15.9744 7.06740331,15.9450353 6.86629834,15.8716235 C5.8320442,15.4605176 4.79779006,15.0640941 3.77790055,14.6676706 C3.03093923,14.3740235 2.2839779,14.0803765 1.53701657,13.8014118 C1.36464088,13.6839529 0.775690608,13.3903059 1.03425414,12.6855529 Z" id="Shape"></path>
                        <path d="M18.3292818,22.0235294 C18.5447514,21.8179765 18.7745856,21.5977412 18.9900552,21.4068706 C19.8232044,20.6580706 20.6850829,19.9386353 21.6331492,19.3513412 C22.0497238,19.0870588 22.4950276,18.8521412 22.9690608,18.72 C23.0983425,18.6906353 23.1414365,18.6172235 23.1414365,18.4850824 C23.2276243,17.5454118 23.1701657,16.6057412 23.0265193,15.6807529 C22.8685083,14.6529882 22.5812155,13.6545882 22.1790055,12.7002353 C21.8629834,11.9514353 21.4751381,11.232 21.0154696,10.5566118 C20.9292818,10.4244706 20.8287293,10.3804235 20.6563536,10.3804235 C19.7370166,10.3951059 18.8320442,10.3804235 17.9127072,10.3804235 C17.7690608,10.3804235 17.639779,10.3657412 17.5535912,10.2189176 C17.438674,10.0280471 17.5104972,9.80781176 17.7116022,9.7344 C17.7977901,9.70503529 17.8839779,9.70503529 17.9701657,9.70503529 C18.8320442,9.70503529 19.679558,9.69035294 20.5414365,9.70503529 C20.8718232,9.71971765 21.1303867,9.61694118 21.3889503,9.44075294 C21.9348066,9.07369412 22.3657459,8.60385882 22.5955801,7.97251765 C22.681768,7.70823529 22.7248619,7.42927059 22.7679558,7.15030588 C22.7966851,6.93007059 22.9259669,6.7392 23.1414365,6.68047059 C23.3281768,6.62174118 23.5436464,6.70983529 23.6585635,6.87134118 C23.8022099,7.07689412 23.759116,7.31181176 23.7160221,7.53204706 C23.5436464,8.64790588 22.9546961,9.51416471 22.0640884,10.1601882 C22.0353591,10.1748706 22.0209945,10.2042353 21.9922652,10.2189176 C22.1502762,10.4978824 22.3226519,10.7768471 22.480663,11.0558118 C22.9403315,11.9073882 23.3281768,12.8030118 23.5867403,13.7426824 C23.7303867,14.3006118 23.8740331,14.8585412 23.9745856,15.4311529 C24.118232,16.2680471 24.161326,17.1196235 24.118232,17.9712 C24.1038674,18.2061176 24.0895028,18.4557176 24.0895028,18.6906353 C24.0895028,18.7493647 24.118232,18.8227765 24.161326,18.8521412 C24.5922652,19.1457882 24.7933702,19.5862588 24.9082873,20.0707765 C24.9944751,20.3937882 24.9944751,20.7461647 25.0375691,21.0838588 C25.0950276,21.6564706 24.6497238,22.0822588 24.1038674,22.0822588 C22.3370166,22.0675765 20.5701657,22.0822588 18.8176796,22.0822588 C18.6596685,22.0822588 18.4872928,22.0822588 18.3292818,22.0822588 C18.3436464,22.0528941 18.3292818,22.0382118 18.3292818,22.0235294 Z" id="Shape"></path>
                        <path d="M9.25082873,6.62174118 C9.52375691,6.75388235 9.79668508,6.88602353 10.0696133,7.00348235 C10.7734807,7.32649412 11.4773481,7.64950588 12.1668508,7.97251765 C12.5834254,8.16338824 12.7414365,8.69195294 12.5403315,9.14710588 C12.3679558,9.52884706 11.879558,9.74908235 11.4773481,9.58757647 C10.960221,9.36734118 10.4430939,9.11774118 9.92596685,8.86814118 C9.12154696,8.50108235 8.31712707,8.11934118 7.51270718,7.75228235 C7.25414365,7.63482353 6.98121547,7.51736471 6.73701657,7.35585882 C6.20552486,6.97411765 6.30607735,6.15190588 6.88066298,5.85825882 C7.74254144,5.41778824 8.60441989,4.96263529 9.46629834,4.52216471 C9.88287293,4.30192941 10.2994475,4.08169412 10.7160221,3.87614118 C11.1469613,3.67058824 11.6497238,3.86145882 11.8508287,4.31661176 C12.0232044,4.69835294 11.9226519,5.21223529 11.4629834,5.44715294 C10.7878453,5.79952941 10.1127072,6.15190588 9.43756906,6.50428235 C9.39447514,6.53364706 9.33701657,6.57769412 9.25082873,6.62174118 Z" id="Shape"></path>
                        <path d="M13.9624309,4.16978824 C12.8707182,4.16978824 11.9944751,3.25948235 11.9944751,2.14362353 C11.9944751,1.02776471 12.9138122,0.132141176 13.9767956,0.132141176 C15.0254144,0.132141176 15.9447514,1.01308235 15.9447514,2.14362353 C15.9447514,3.2448 15.039779,4.16978824 13.9624309,4.16978824 Z" id="Shape"></path>
                        <path d="M12.7270718,8.53044706 C12.5977901,7.9872 12.1668508,7.84037647 11.7646409,7.64950588 C11.1469613,7.37054118 10.5149171,7.07689412 9.89723757,6.78324706 C9.85414365,6.76856471 9.81104972,6.69515294 9.82541436,6.66578824 C9.85414365,6.57769412 9.88287293,6.44555294 9.94033149,6.40150588 C10.4287293,6.13722353 10.9314917,5.87294118 11.4342541,5.62334118 C12.0662983,5.32969412 12.2674033,4.68367059 11.9226519,4.11105882 C11.7502762,3.81741176 11.4773481,3.69995294 11.161326,3.64122353 C11.1325967,3.64122353 11.1038674,3.62654118 11.0751381,3.62654118 C11.0751381,3.61185882 11.0751381,3.59717647 11.0751381,3.56781176 C11.2618785,3.53844706 11.4342541,3.4944 11.6209945,3.4944 C12.238674,3.47971765 12.6983425,3.75868235 13.0718232,4.2432 C13.359116,4.61025882 13.560221,5.02136471 13.6176796,5.4912 C13.6320442,5.66738824 13.6320442,5.85825882 13.5745856,6.01976471 C13.3303867,6.78324706 13.0718232,7.54672941 12.8132597,8.32489412 C12.798895,8.38362353 12.7701657,8.44235294 12.7270718,8.53044706 Z" id="Shape"></path>
                        <path d="M13.1005525,8.01656471 C13.2872928,7.53204706 13.4883978,7.07689412 13.6320442,6.62174118 C13.7325967,6.29872941 13.8762431,6.15190588 14.2353591,6.15190588 C14.8243094,6.13722353 15.398895,6.03444706 15.9878453,5.9904 C16.4331492,5.96103529 16.8640884,6.31341176 16.9071823,6.7392 C16.9502762,7.25308235 16.6629834,7.66418824 16.1745856,7.7376 C15.6718232,7.81101176 15.1546961,7.84037647 14.6519337,7.88442353 C14.2066298,7.92847059 13.7469613,7.97251765 13.3016575,8.01656471 C13.2441989,8.00188235 13.1867403,8.00188235 13.1005525,8.01656471 Z" id="Shape"></path>
                    </g>
                </g>
            </g>
        </g>
    </g>
</svg>