<?xml version="1.0" encoding="UTF-8"?>
<svg width="38px" height="38px" viewBox="0 0 38 38" version="1.1" xmlns="http://www.w3.org/2000/svg" xmlns:xlink="http://www.w3.org/1999/xlink">
    <!-- Generator: Sketch 47 (45396) - http://www.bohemiancoding.com/sketch -->
    <title>1@2x</title>
    <desc>Created with Sketch.</desc>
    <defs></defs>
    <g id="Page-1" stroke="none" stroke-width="1" fill="none" fill-rule="evenodd">
        <g id="Trang-Chủ" transform="translate(-91.000000, -850.000000)">
            <g id="Menu-trượt" transform="translate(85.000000, 835.000000)">
                <g id="1" transform="translate(6.000000, 15.000000)">
                    <circle id="Oval-5" fill="#ECECEC" cx="19" cy="19" r="19"></circle>
                    <g id="gym-01" transform="translate(5.000000, 8.000000)" fill-rule="nonzero" fill="#4A4A4A">
                        <path d="M3.33766109,8.53132624 C3.5591824,8.43504819 3.75960645,8.41365307 3.87564143,8.28528233 C4.27648953,7.84668232 4.74062943,7.78249695 5.24696387,7.91086768 C5.40519338,7.95365793 5.57397153,7.97505305 5.70055514,8.06063354 C6.19634094,8.37086282 6.64993221,8.2103994 7.10352348,7.95365793 C7.60985792,7.6862189 8.11619236,7.72900914 8.61197817,7.90017012 C9.0233749,8.04993598 9.424223,8.25318965 9.84616836,8.40295551 C10.0149465,8.45644331 10.1942733,8.43504819 10.3736001,8.45644331 C10.3946973,8.45644331 10.4263432,8.44574575 10.4474405,8.44574575 C10.8060941,8.43504819 11.1331017,8.3494677 11.354623,7.98575061 C11.4179149,7.878775 11.5550471,7.80389207 11.6710821,7.77179939 C11.9769925,7.6862189 12.0613815,7.47226767 12.0613815,7.15134083 C12.0613815,7.04436521 12.0719302,6.92669204 12.0824788,6.81971642 C12.2301597,5.98530664 11.8715061,5.28996515 11.5234012,4.61601878 C11.4073662,4.38067243 11.3124285,4.1667212 11.3440744,3.90997973 C11.4495608,3.15045287 11.5444985,2.39092601 11.702728,1.64209672 C11.9242493,0.593735701 12.3883892,0.165833246 13.3483149,0.037462509 C13.9601357,-0.0481179821 14.5614078,0.0160673862 15.1415827,0.19792593 C15.711209,0.379784473 16.0698625,0.796989367 16.1964461,1.43884305 C16.344127,2.24116015 16.4707106,3.04347726 16.5972942,3.84579436 C16.6500374,4.19881389 16.5234538,4.4983456 16.3124811,4.7764822 C15.9749248,5.22577978 15.8377926,5.77135541 15.795598,6.3276286 C15.7745008,6.71274081 15.8483412,7.10855058 15.9010844,7.50436035 C15.911633,7.57924328 15.9960221,7.66482377 16.0698625,7.70761402 C16.3652243,7.85737988 16.6394888,8.0178433 16.8188155,8.33877014 C16.8504614,8.39225795 16.9770451,8.38156039 17.0614341,8.40295551 C17.2618582,8.43504819 17.4622822,8.488536 17.6732549,8.49923356 C17.7787413,8.50993112 17.9053249,8.50993112 18.0002626,8.45644331 C18.5909861,8.13551647 19.2028069,7.86807744 19.8673708,7.80389207 C20.2471216,7.77179939 20.5846779,7.84668232 20.9327829,8.03923842 C21.2597905,8.22109696 21.6184441,8.38156039 22.0087435,8.18900428 C22.2724594,8.06063354 22.5572725,8.00714574 22.831537,7.93226281 C23.3167742,7.81458963 23.7387196,7.88947256 24.0868245,8.33877014 C24.1817622,8.45644331 24.3821862,8.47783844 24.561513,8.56341893 C24.5826103,8.33877014 24.5931589,8.17830672 24.6248048,8.0178433 C24.6880966,7.63273109 24.7724857,7.24761888 24.8463261,6.87320423 C24.8568748,6.83041399 24.877972,6.78762374 24.877972,6.73413593 C24.8885207,6.00670176 24.994007,5.27926759 24.793583,4.56253097 C24.7513884,4.40206755 24.7302912,4.23090657 24.6669994,4.08114071 C24.6353535,4.00625778 24.5404157,3.94207241 24.4665753,3.90997973 C24.445478,3.89928217 24.361089,4.00625778 24.3399917,4.07044315 C24.2556026,4.29509194 24.129019,4.4983456 23.9180463,4.4983456 C23.3484201,4.51974073 22.7998911,4.4983456 22.3568485,3.99556022 C22.0298408,3.63184313 21.9138058,3.2253358 22.0403895,2.74394554 C22.1036813,2.48720406 22.2091676,2.23046259 22.3146539,1.99511624 C22.4306889,1.72767721 22.631113,1.64209672 22.9053775,1.6741894 C23.496101,1.73837477 24.0762758,1.75976989 24.6669994,1.82395526 C25.4054037,1.90953575 25.7957032,2.33743821 25.9117382,3.16115043 C26.0172245,3.95276997 26.3969754,4.60532122 26.723983,5.30066271 C27.0193448,5.93181883 27.3358038,6.55227739 27.6100683,7.19413107 C27.9159787,7.91086768 28.021465,8.67039454 27.8315896,9.46201408 C27.7999437,9.57968726 27.8315896,9.71875556 27.8737841,9.83642873 C28.0636596,10.2964239 28.0531109,10.4461897 27.7472005,10.8206044 C27.0720879,11.6550142 26.1860027,12.1043117 25.2577229,12.4573313 C24.0973731,12.8959313 22.8948288,13.1205801 21.6817359,13.2810435 C21.5867982,13.2917411 21.4918605,13.2917411 21.4074714,13.2917411 C20.9116856,13.2810435 20.901137,13.2810435 20.7323588,13.7945264 C20.4791916,14.5433557 20.0888921,15.1745119 19.4770714,15.6131119 C19.2344528,15.7842729 19.055126,15.9875265 18.9496396,16.3084534 C18.8968965,16.4796143 18.7914101,16.6507753 18.6648265,16.7684485 C18.2956243,17.121468 18.1373948,17.5814632 18.0424571,18.0842486 C17.8525817,19.0791218 17.6521576,20.0632974 17.1352746,20.9191023 C17.1141773,20.9618926 17.09308,21.0260779 17.1036287,21.0688682 C17.1669205,21.5395609 17.2302123,22.0102536 17.3146013,22.4702487 C17.3989904,22.9730341 17.4939281,23.4758195 17.5783172,24 C15.1837772,24 12.7892373,24 10.3630514,24 C10.4263432,23.6897707 10.489635,23.4116341 10.5318296,23.1121024 C10.5951214,22.6307121 10.6478646,22.1493219 10.7006077,21.6679316 C10.7111564,21.5716536 10.6900591,21.464678 10.721705,21.389795 C10.9010318,21.0581706 10.7533509,20.8228243 10.5845728,20.5446877 C10.1942733,19.8707413 10.0254951,19.0898193 9.93055744,18.3195949 C9.84616836,17.6777412 9.62464705,17.1535607 9.23434758,16.6721705 C9.07611807,16.4796143 8.991729,16.2335704 8.86514539,16.0196192 C8.83349948,15.9661314 8.80185358,15.901946 8.74911041,15.8805509 C7.90521968,15.4740436 7.50437158,14.6610289 7.17736392,13.7838289 C6.98748851,13.2810435 6.99803714,13.2917411 6.5233486,13.3131362 C4.28703816,13.4308094 2.31444357,12.6284923 0.521175767,11.195019 C0.0781331325,10.8419995 -0.0800963799,10.4461897 0.0464872301,9.87921898 C0.0781331325,9.72945312 0.0781331325,9.55829214 0.0570358642,9.40852628 C-0.0800963799,8.60620917 0.0359385959,7.83598475 0.341848987,7.10855058 C0.489529865,6.74483349 0.647759377,6.37041885 0.827086158,6.02809688 C1.3334206,5.07601392 1.74481733,4.07044315 2.08237362,3.02208213 C2.14566543,2.84022359 2.21950587,2.65836505 2.29334631,2.48720406 C2.44102718,2.1448821 2.6941944,1.952326 3.02120206,1.90953575 C3.65412011,1.82395526 4.28703816,1.74907233 4.93050485,1.69558452 C5.47903382,1.65279428 5.6583606,1.82395526 5.77439558,2.41232114 C5.78494421,2.48720406 5.80604148,2.56208699 5.81659011,2.62627236 C6.0275628,3.49277483 5.70055514,4.1667212 4.91995621,4.39136999 C4.65624036,4.46625292 4.3925245,4.50904317 4.12880865,4.51974073 C3.79125236,4.54113585 3.64357148,4.40206755 3.54863377,4.07044315 C3.5275365,4.00625778 3.45369606,3.89928217 3.42205016,3.90997973 C3.34820972,3.93137485 3.25327201,3.99556022 3.24272338,4.05974559 C3.14778567,4.51974073 3.0633966,4.99043343 3.01065343,5.45042857 C2.96845889,5.79275053 2.97900753,6.14577006 2.96845889,6.48809202 C2.96845889,6.54157983 2.96845889,6.6057652 2.98955616,6.64855544 C3.25327201,7.18343351 3.35875836,7.78249695 3.33766109,8.53132624 Z" id="Shape"></path>
                    </g>
                </g>
            </g>
        </g>
    </g>
</svg>