<?xml version="1.0" encoding="UTF-8"?>
<svg width="38px" height="38px" viewBox="0 0 38 38" version="1.1" xmlns="http://www.w3.org/2000/svg" xmlns:xlink="http://www.w3.org/1999/xlink">
    <!-- Generator: Sketch 47 (45396) - http://www.bohemiancoding.com/sketch -->
    <title>3@2x</title>
    <desc>Created with Sketch.</desc>
    <defs></defs>
    <g id="Page-1" stroke="none" stroke-width="1" fill="none" fill-rule="evenodd">
        <g id="Trang-Chủ" transform="translate(-91.000000, -956.000000)">
            <g id="Menu-trượt" transform="translate(85.000000, 835.000000)">
                <g id="3" transform="translate(6.000000, 121.000000)">
                    <circle id="Oval-5-Copy-2" fill="#ECECEC" cx="19" cy="19" r="19"></circle>
                    <g id="002-business" transform="translate(9.000000, 6.000000)" fill-rule="nonzero" fill="#4A4A4A">
                        <path d="M17.2089618,1.36216216 L14.2909912,1.36216216 C14.2909912,2.53894803 14.2909912,2.86845395 14.2909912,3.39440928 C14.2909912,4.54527949 13.3920071,5.48157405 12.2871029,5.48157405 L5.71289706,5.48157405 C4.60794582,5.48157405 3.70900881,4.5452305 3.70900881,3.39440928 C3.70900881,2.86816001 3.70900881,2.5395359 3.70900881,1.36216216 L0.791038224,1.36216216 C0.354175159,1.36216216 0,1.73105594 0,2.18607393 L0,24.3760882 C0,24.8311062 0.354175159,25.2 0.791038224,25.2 L17.2089618,25.2 C17.6458248,25.2 18,24.8311062 18,24.3760882 L18,2.18602494 C18,1.73095796 17.6458248,1.36216216 17.2089618,1.36216216 Z M3.18790568,7.36415708 C2.8789784,7.04239156 2.8789784,6.52074734 3.18790568,6.19903081 C3.49678593,5.87726529 3.99766392,5.87726529 4.30654417,6.19903081 L4.99904362,6.92030879 L5.69154307,6.19903081 C6.00042332,5.87726529 6.50130131,5.87726529 6.81018156,6.19903081 C7.1190618,6.52079633 7.11910884,7.04244055 6.81018156,7.36415708 L6.1176821,8.08543506 L6.81018156,8.80671304 C7.11910884,9.12847855 7.11910884,9.65012278 6.81018156,9.97183931 C6.50130131,10.2936048 6.00042332,10.2936538 5.69154307,9.97183931 L4.99904362,9.25056133 L4.30654417,9.97183931 C3.99766392,10.2936048 3.49678593,10.2936538 3.18790568,9.97183931 C2.8789784,9.65007379 2.8789784,9.12842957 3.18790568,8.80671304 L3.88040513,8.08543506 L3.18790568,7.36415708 Z M3.18790568,13.6528898 C2.8789784,13.3311242 2.8789784,12.80948 3.18790568,12.4877635 C3.49678593,12.165998 3.99766392,12.165998 4.30654417,12.4877635 L4.99904362,13.2090415 L5.69154307,12.4877635 C6.00042332,12.165998 6.50130131,12.165998 6.81018156,12.4877635 C7.1190618,12.809529 7.11910884,13.3311732 6.81018156,13.6528898 L6.1176821,14.3741677 L6.81018156,15.0954457 C7.11910884,15.4172112 7.11910884,15.9388555 6.81018156,16.260572 C6.50130131,16.5823375 6.00042332,16.5823865 5.69154307,16.260572 L4.99904362,15.539294 L4.30654417,16.260572 C3.99766392,16.5823375 3.49678593,16.5823865 3.18790568,16.260572 C2.8789784,15.9388065 2.8789784,15.4171622 3.18790568,15.0954457 L3.88040513,14.3741677 L3.18790568,13.6528898 Z M5.07359443,22.9812974 C3.84621053,22.9812974 2.84769998,21.9412423 2.84769998,20.6629004 C2.84769998,19.3845585 3.84625756,18.3445034 5.07359443,18.3445034 C6.3009313,18.3445034 7.29948888,19.3845585 7.29948888,20.6629004 C7.29948888,21.9411933 6.3009313,22.9812974 5.07359443,22.9812974 Z M14.7949265,21.4867632 L9.47430309,21.4867632 C9.03744003,21.4867632 8.68326487,21.1178694 8.68326487,20.6628514 C8.68326487,20.2078334 9.03739299,19.8389397 9.47430309,19.8389397 L14.7949265,19.8389397 C15.2317895,19.8389397 15.5859647,20.2078334 15.5859647,20.6628514 C15.5859647,21.1178694 15.2317895,21.4867632 14.7949265,21.4867632 Z M14.7949265,15.1980305 L9.47430309,15.1980305 C9.03744003,15.1980305 8.68326487,14.8291367 8.68326487,14.3741187 C8.68326487,13.9191008 9.03739299,13.550207 9.47430309,13.550207 L14.7949265,13.550207 C15.2317895,13.550207 15.5859647,13.9191008 15.5859647,14.3741187 C15.5859647,14.8291367 15.2317895,15.1980305 14.7949265,15.1980305 Z M14.7949265,8.90934683 L9.47430309,8.90934683 C9.03744003,8.90934683 8.68326487,8.54045305 8.68326487,8.08543506 C8.68326487,7.63041707 9.03739299,7.26152329 9.47430309,7.26152329 L14.7949265,7.26152329 C15.2317895,7.26152329 15.5859647,7.63041707 15.5859647,8.08543506 C15.5859647,8.54045305 15.2317895,8.90934683 14.7949265,8.90934683 Z" id="Shape"></path>
                        <path d="M11.8120898,0 L5.54500818,0 C5.32292611,0 5.14285714,0.180269006 5.14285714,0.402597787 L5.14285714,3.00280762 C5.14285714,3.2251364 5.32292611,3.40540541 5.54500818,3.40540541 L11.8121347,3.40540541 C12.0342167,3.40540541 12.2142857,3.2251364 12.2142857,3.00280762 L12.2142857,0.402597787 C12.2142857,0.180269006 12.0342167,0 11.8120898,0 Z" id="Shape"></path>
                    </g>
                </g>
            </g>
        </g>
    </g>
</svg>